<?xml version="1.0" ?><!DOCTYPE svg  PUBLIC '-//W3C//DTD SVG 1.1//EN'  'http://www.w3.org/Graphics/SVG/1.1/DTD/svg11.dtd'><svg enable-background="new 0 0 128 128" height="128px" id="Layer_1" version="1.1" viewBox="0 0 128 128" width="128px" xml:space="preserve" xmlns="http://www.w3.org/2000/svg" xmlns:xlink="http://www.w3.org/1999/xlink"><path d="M112.4,105.6L86.1,79.3c-0.8,1.1-1.7,2.1-2.5,3.1l26,26c1.2,1.2,1.2,3.1,0,4.2c-0.6,0.6-1.3,0.9-2.1,0.9  s-1.6-0.3-2.1-0.9l-26-26c-1,0.9-2,1.7-3.1,2.5l26.3,26.3c1.4,1.4,3.2,2.1,5,2.1s3.6-0.7,5-2.1C115.1,112.8,115.1,108.4,112.4,105.6  z" fill="#2C3E50"/><path d="M93.9,56.4c0-0.3,0-0.7,0-1c0-0.4,0-0.8-0.1-1.1c0-0.5-0.1-1-0.2-1.5c0-0.2,0-0.4-0.1-0.5c0,0,0,0,0,0  c-0.8-5.9-2.9-11.8-6.3-16.9c0,0,0,0,0,0c-0.5-0.7-0.9-1.4-1.5-2c0,0,0,0-0.1-0.1c-1.1-1.4-2.2-2.7-3.5-4c-0.5-0.5-1-0.9-1.5-1.4  c-0.1-0.1-0.2-0.2-0.3-0.3c-0.4-0.3-0.7-0.6-1.1-0.9c-0.3-0.3-0.7-0.6-1-0.8c0,0,0,0-0.1,0c0,0,0,0,0,0c-6.7-5.2-15.2-8.3-24.3-8.3  c-22,0-39.9,17.9-39.9,39.9c0,22,17.9,39.9,39.9,39.9S94,79.4,94,57.3C94,57,94,56.7,93.9,56.4z M54.1,93.3  c-19.8,0-35.9-16.1-35.9-35.9c0-19.8,16.1-35.9,35.9-35.9c8.3,0,16,2.9,22.1,7.6v0c0.1,0.1,0.1,0.1,0.2,0.2c3.4,2.7,6.4,6.1,8.6,9.9  l0,0c1.5,2.5,2.6,5.1,3.4,7.8c0,0,0,0,0,0c1.3,4.3,1.8,8.7,1.4,13.1h0C88.5,78.6,73,93.3,54.1,93.3z" fill="#2C3E50"/><path d="M81,40.9L81,40.9c0-0.1-0.1-0.1-0.1-0.2c-0.3-0.4-0.5-0.8-0.8-1.2c-0.1-0.1-0.2-0.2-0.3-0.4  c-0.3-0.5-0.7-0.9-1-1.4c0,0-0.1-0.1-0.1-0.1c-0.4-0.5-0.8-0.9-1.2-1.4c0,0,0,0,0,0c-5.8-6.4-14.2-10.5-23.5-10.5  c-17.4,0-31.6,14.1-31.6,31.6s14.1,31.6,31.6,31.6c16.5,0,30.1-12.7,31.5-28.9h0c0,0,0-0.1,0-0.1c0-0.3,0.1-0.6,0.1-0.8c0,0,0,0,0,0  C85.9,52.8,84.4,46.4,81,40.9z M54.1,86.9c-16.3,0-29.6-13.3-29.6-29.6s13.3-29.6,29.6-29.6c9.2,0,17.5,4.2,22.9,10.9  c0,0,0.1,0.1,0.1,0.1c0.7,0.9,1.4,1.9,2.1,2.9c3.5,5.6,5,12.1,4.4,18.4h0C82.2,75.1,69.5,86.9,54.1,86.9z" fill="#3B97D3"/></svg>