<?xml version="1.0" encoding="utf-8"?>
<!-- Generator: Adobe Illustrator 18.0.0, SVG Export Plug-In . SVG Version: 6.00 Build 0)  -->
<!DOCTYPE svg PUBLIC "-//W3C//DTD SVG 1.1//EN" "http://www.w3.org/Graphics/SVG/1.1/DTD/svg11.dtd">
<svg version="1.1" id="Layer_1" xmlns="http://www.w3.org/2000/svg" xmlns:xlink="http://www.w3.org/1999/xlink" x="0px" y="0px"
	 viewBox="0 0 135.9 53.2" enable-background="new 0 0 135.9 53.2" xml:space="preserve">
<path class="share-facebook" fill="#FFFFFF" d="M43.6,0h-34C4.3,0,0,4.3,0,9.6v34c0,5.3,4.3,9.6,9.6,9.6h34c5.3,0,9.6-4.3,9.6-9.6v-34
	C53.2,4.3,48.9,0,43.6,0z M44.8,14.5h-3.5c-1.7,0-3.2,1.4-3.2,3.2v2.4h6.7v7.2h-6.7v22.1h-9.4V27.3h-6.1v-7.2h6.1v-4.3
	c0-4.7,3.8-8.4,8.4-8.4h7.7V14.5z"/>
<path class="share-twitter" fill="#FFFFFF" d="M135.9,6.3c-2.4,1.1-5,1.8-7.7,2.1c2.8-1.7,4.9-4.3,5.9-7.4c-2.6,1.5-5.5,2.7-8.5,3.3
	c-2.5-2.6-5.9-4.2-9.8-4.2c-7.4,0-13.4,6-13.4,13.4c0,1,0.1,2.1,0.3,3.1c-11.2-0.6-21.1-5.9-27.7-14c-1.2,2-1.8,4.3-1.8,6.8
	c0,4.7,2.4,8.8,6,11.2c-2.2-0.1-4.3-0.7-6.1-1.7c0,0.1,0,0.1,0,0.2c0,6.5,4.6,11.9,10.8,13.2c-1.1,0.3-2.3,0.5-3.5,0.5
	c-0.9,0-1.7-0.1-2.5-0.2c1.7,5.3,6.7,9.2,12.6,9.3c-4.6,3.6-10.4,5.8-16.7,5.8c-1.1,0-2.2-0.1-3.2-0.2c5.9,3.8,13,6,20.6,6
	c24.7,0,38.2-20.5,38.2-38.2c0-0.6,0-1.2,0-1.7C131.8,11.4,134.1,9,135.9,6.3z"/>
</svg>
