<?xml version="1.0" encoding="utf-8"?>
<!-- Generator: Adobe Illustrator 18.0.0, SVG Export Plug-In . SVG Version: 6.00 Build 0)  -->
<!DOCTYPE svg PUBLIC "-//W3C//DTD SVG 1.1//EN" "http://www.w3.org/Graphics/SVG/1.1/DTD/svg11.dtd">
<svg version="1.1" id="Layer_1" xmlns="http://www.w3.org/2000/svg" xmlns:xlink="http://www.w3.org/1999/xlink" x="0px" y="0px"
	 viewBox="0 0 1048.6 262.6" enable-background="new 0 0 1048.6 262.6" xml:space="preserve">
	<g id="BOTON_ENTRAR">
	<path fill-rule="evenodd" clip-rule="evenodd" fill="#4F2747" d="M91.9,16.9c0,0,17.8,3.8,22.7,0.7c4.9-3.1,21.2-7,21.2-7l5.7,1.6
		l3.7-1.2l12.3,5.6h8.7l596.8-1.2l-14.8-4.9l29.1-3.8l-4.5-3.3l17.9,0.3l-5-3.7l40.5,0.2l38-0.2L840,3.4l24.3,1.7l-21.9,1.7
		l21.9,2.6l-16.4,1l19.6,3.3l9.6-4.8l14,5.7l25.1,2.2l-11,1.7l11,2.4l-10.9-0.3l20.2,3.4l-21.9,4.1l21.9,2.3l-19.7,2.4l3.3,5.9
		l7.9,1.1l24.7,6.7h46.2l-15,3.4c0,0,2.9-0.3,10.7,4.3c7.8,4.6,25.6,5.7,30.7,5.9c5.2,0.2,11.1,9,20,9c8.8-0.1,11.9,4.3,11.9,4.3
		l2.4,5.2h-8.7l8.7,3.6l-10.9,2.2l7.4,0.8l-4.6,4.1c0,0-1.8,3.1-1.5,6.1c0.3,3.1-3.8,4.8-3.8,4.8s-0.5-0.5-0.7,3.6
		c-0.2,4.1-11.4,6-11.4,6l-0.4,3.2l-3.3,1.6c0,0-8.7-0.3-13.5,0c-4.9,0.3-6.8,0.7-10.3,1.3c-3.5,0.6-17.8-0.1-22.7,0.2
		c-4.9,0.3-15.7,6.6-15.7,6.6s4,1.2,10.5-0.2c6.5-1.4,22-4,21.7-4.9c-0.3-0.9-3.2-1.8,6.8-0.2c10,1.6,14.2,0.3,18.3,0.8
		c4.1,0.5,11.1,1.2,11.1,1.2l-33.1,3.6l-10.2,3.6l-1.9,2.8l-3.5-0.2l2.3,4.9l1.1,2.1l-2,3c0,0,14.9-3.6,19.4-2.1
		c4.5,1.5,9.2,4.4,9.2,4.4l8.3,5.1h3.9h2.4l-4,4.4l-0.4,4.3l0.9,4.3h-5l-1,1.3l-8.2,3.4l-6.2,1l8.9,1.5l-4.9,4.5l0.4,5.7l3.3,4.9
		l-6.1,3.6H994l-7.3,0.8c0,0-0.8-1.5-7.1,2c-6.3,3.6-11.6,6.5-11.6,6.5l-5.1,4.8l-8,1.1l-3.3,0.9l11.2,1.9l10-1.3l7.6-2.1
		c0,0,8.5,2.3,9.7,1.5c1.2-0.8,6.1-1.1,6.1-1.1l4.4,2.9l-24,3.9l-4.2,0.9l-3.7,3.1l5,5h4.7l-2.2,0.6l-5.8,1.2l-4.1,1.4l-7.3,0.2
		c0,0-3.8-0.6-1.8,1.2c2,1.8,6.3,0,6.3,0l-2.7,3.4L958,227l2.4,4.4l-0.3,1.9l-21.3,4.6l-6.8,4.9c0,0-2.7-0.6-5.6,0.3
		c-2.9,0.9-9.1,3.8-9.1,3.8l-2.7,2.3l26.9-3.2l9.7-0.7l5.5,0.7l-23.3,3l-8.6,3.3l-5.1,2.2c0,0-14,0.2-16,0.8
		c-2,0.6-12.3,0.8-12.3,0.8s-12.4-2.7-16-3c-3.6-0.2-32.5-0.4-32.5-0.4l-16.5,9.4l-17.6,0.6l-8-1.7l-12.7-2.2l-12.6-2.1l-26.7,1.7
		c0,0-1.8-0.3-5.9-0.3c-4.1,0-25.6,1.3-25.6,1.3l-12.9,0.1l-10.8,1.9l8.3-6.8H600.1l-18.4,7l-10.1-0.8l-4.5,0.5l2.7-5l-22.9-1.6
		l-18.8,3.7l2.1-4.3l-48.1-1.5l6.6-1.7l-89.5,1.7l-22.6,8.8l-14.4-1.1l-9.9,0.7l11-4.7l-43.1,2.2l-25.1-0.7l-19,1.4l-27,0.7
		l11.5-5.5l-59.7,0.1h-22.4l-46.1-3.8l6.7-7.6l-16.5-3.4l9.1-2.1l7.7-1.3l4.3-1.4v-3.5l-5.7-0.4l-8.9-4.2l-30.8-4.1L76.6,217
		l-7.3-1.4c0,0-1.8-1.7-3.8-1.6c-1.9,0.1-6-0.8-6-0.8s-8.1-4.9-16-5.9c-7.9-1-14.1,0-14.1,0l-11-5.1c0,0-3.7-3.8-8.2-4.6
		c-4.5-0.8-5.5-3.3-8.3-3.9c-2.8-0.6-2-0.6-1.5-4.2c0.6-3.6-0.5-6.8,1.2-8c1.7-1.2,1.6-5.7,1.6-5.7l2.9-3.5c0,0,3.9-3.5,3.8-4.9
		c-0.1-1.4,0.5-2.5,1.9-4c1.4-1.5,7.3-3.6,7.3-3.6l3.2-5.2c0,0,5.3-2.8,9.1-1.9c3.8,0.8,10.6,0.1,14.3-0.4
		c3.7-0.6,13.1-2.1,13.1-2.1s4.7,0.1,5.4,0.8c0.7,0.7,11.2,1.2,11.2,1.2s11.1-1.9,12.5-4.7c1.4-2.8,0.7-5,0.7-5l-8.4,0.3
		c0,0-4.6,1.4-7.5,2.3c-2.9,0.9-5-3.7-9.8-2c-4.8,1.7-10.8,2.7-10.8,2.7L38.8,148l-12.3,1l-13.5,0.4l-3.7-2l34.5-4.5l8.2-0.5l6-2.3
		l6.7-1.8l1.8-1.9l0.2-4l-0.4-1.8l-5.3-0.1l-5.2-0.3c0,0-10.7,2.2-12.9-1.2c-2.3-3.5-5.3-6.2-5.3-6.2l-3.7-0.9l-5.1-4
		c0,0-0.9-1.7-0.8-3.9c0.1-2.2-2-3.8,0.1-5c2-1.2,8-2.5,8-2.5l3.2-1.7c0,0,6.3,1.8,7.9,1.4c1.6-0.5,4.4-3.2,4.4-3.2l-5.3-0.6
		l-6.1-1.8l4.5-5.6l-3.9-6.3l-1.1-2.1l8.5-2.6l7.4,0.7l3.3-2.3l7.1-2.5l7.4-2.6c0,0,7.4-9.7,7.8-9.4c0.4,0.3,6.8,1.9,6.6,0
		c-0.2-1.9,6.5-1.8,6.5-1.8l2.3-0.1L81,62.2l-8.3,2l-6.7-1.8l-7.5,3.5l-7.2-0.2l-4.3-3.5l23.4-2.9l5.8-2.1l-5.5-7.2L83.6,48l4.6-1.6
		L84,45.9l4.8-4.1l-2-2.1l-1.8-3.5c0,0,10.4,0,11.2-0.3c0.8-0.3,4.2-2.6,6.6-3.4c2.3-0.8,6.4-1.5,8-2.5c1.6-1,3-1.8,3-1.8l9.9-3.3
		l-1-3.3c0,0-12.2,0.6-12.3,0.6c-0.1,0-8.5,0.9-8.5,0.9l-2.8-0.2L96,23L91.9,16.9z"/>
</g>
<text id="TEXTO_BOTON_ENTRAR" transform="matrix(1 0 0 1 156.7831 185.4336)" fill="#FFD44A" font-family="FilbertBrush" font-size="153.0578" letter-spacing="12">CONTINUE</text>
</svg>
