<?xml version="1.0" encoding="utf-8"?>
<!-- Generator: Adobe Illustrator 18.0.0, SVG Export Plug-In . SVG Version: 6.00 Build 0)  -->
<!DOCTYPE svg PUBLIC "-//W3C//DTD SVG 1.1//EN" "http://www.w3.org/Graphics/SVG/1.1/DTD/svg11.dtd">
<svg version="1.1" id="Layer_1" xmlns="http://www.w3.org/2000/svg" xmlns:xlink="http://www.w3.org/1999/xlink" x="0px" y="0px"
	 viewBox="0 0 867.8 262.6" style="enable-background:new 0 0 867.8 262.6;" xml:space="preserve">
<style type="text/css">
	.st0{fill-rule:evenodd;clip-rule:evenodd;fill:#4F2747;}
	.st1{fill:#FFD64A;}
</style>
<g id="BOTON_ENTRAR">
	<path class="st0" d="M76.1,16.9c0,0,14.7,3.8,18.8,0.7c4.1-3.1,17.6-7,17.6-7l4.7,1.6l3.1-1.2l10.2,5.6h7.2l493.9-1.2l-12.2-4.9
		l24.1-3.8l-3.7-3.3l14.8,0.3L650.4,0l33.5,0.2L715.3,0l-20.1,3.4l20.1,1.7l-18.1,1.7l18.1,2.6l-13.5,1l16.2,3.3l7.9-4.8l11.6,5.7
		l20.8,2.2l-9.1,1.7l9.1,2.4l-9.1-0.3l16.7,3.4l-18.1,4.1l18.1,2.3l-16.3,2.4l2.7,5.9L759,40l20.4,6.7h38.2L805.2,50
		c0,0,2.4-0.3,8.8,4.3c6.5,4.6,21.2,5.7,25.4,5.9c4.3,0.2,9.2,9,16.5,9c7.3-0.1,9.8,4.3,9.8,4.3l2,5.2h-7.2l7.2,3.6l-9.1,2.2
		l6.2,0.8l-3.8,4.1c0,0-1.5,3.1-1.2,6.1c0.2,3.1-3.1,4.8-3.1,4.8s-0.4-0.5-0.6,3.6c-0.1,4.1-9.5,6-9.5,6l-0.3,3.2l-2.7,1.6
		c0,0-7.2-0.3-11.2,0s-5.7,0.7-8.5,1.3c-2.9,0.6-14.7-0.1-18.8,0.2c-4.1,0.3-13,6.6-13,6.6s3.3,1.2,8.7-0.2c5.4-1.4,18.2-4,17.9-4.9
		c-0.3-0.9-2.6-1.8,5.7-0.2c8.3,1.6,11.8,0.3,15.2,0.8c3.4,0.5,9.2,1.2,9.2,1.2l-27.4,3.6l-8.4,3.6l-1.5,2.8l-2.9-0.2l1.9,4.9
		l0.9,2.1l-1.7,3c0,0,12.3-3.6,16.1-2.1c3.7,1.5,7.6,4.4,7.6,4.4l6.9,5.1h3.2h2l-3.3,4.4l-0.3,4.3l0.8,4.3h-4.2l-0.8,1.3l-6.8,3.4
		l-5.1,1l7.4,1.5l-4,4.5l0.4,5.7l2.7,4.9l-5.1,3.6h-4.7l-6.1,0.8c0,0-0.7-1.5-5.9,2c-5.2,3.6-9.6,6.5-9.6,6.5l-4.2,4.8l-6.6,1.1
		l-2.7,0.9l9.3,1.9l8.3-1.3l6.3-2.1c0,0,7,2.3,8,1.5c1-0.8,5.1-1.1,5.1-1.1l3.6,2.9l-19.8,3.9l-3.5,0.9l-3.1,3.1l4.1,5h3.9l-1.9,0.6
		l-4.8,1.2l-3.4,1.4l-6.1,0.2c0,0-3.1-0.6-1.5,1.2c1.6,1.8,5.2,0,5.2,0l-2.3,3.4l-2.1,2.3l2,4.4l-0.3,1.9l-17.6,4.6l-5.6,4.9
		c0,0-2.2-0.6-4.6,0.3c-2.4,0.9-7.5,3.8-7.5,3.8l-2.3,2.3l22.3-3.2l8-0.7l4.5,0.7l-19.3,3l-7.1,3.3l-4.2,2.2c0,0-11.6,0.2-13.2,0.8
		c-1.6,0.6-10.2,0.8-10.2,0.8s-10.3-2.7-13.2-3c-3-0.2-26.9-0.4-26.9-0.4l-13.7,9.4l-14.5,0.6l-6.6-1.7l-10.5-2.2l-10.4-2.1
		l-22.1,1.7c0,0-1.5-0.3-4.9-0.3c-3.4,0-21.2,1.3-21.2,1.3l-10.7,0.1l-9,1.9l6.9-6.8h-84.3l-15.3,7l-8.3-0.8l-3.7,0.5l2.2-5l-19-1.6
		l-15.6,3.7l1.7-4.3l-39.8-1.5l5.4-1.7l-74.1,1.7l-18.7,8.8l-11.9-1.1l-8.2,0.7l9.1-4.7l-35.6,2.2l-20.8-0.7l-15.7,1.4L206,260
		l9.5-5.5l-49.4,0.1h-18.5l-38.2-3.8l5.6-7.6l-13.6-3.4l7.5-2.1l6.3-1.3l3.5-1.4v-3.5l-4.6-0.4l-7.3-4.2l-25.5-4.1L63.4,217l-6-1.4
		c0,0-1.5-1.7-3.1-1.6c-1.6,0.1-5-0.8-5-0.8s-6.7-4.9-13.2-5.9c-6.5-1-11.7,0-11.7,0l-9.1-5.1c0,0-3.1-3.8-6.8-4.6
		c-3.7-0.8-4.6-3.3-6.9-3.9c-2.3-0.6-1.7-0.6-1.2-4.2c0.5-3.6-0.4-6.8,1-8c1.4-1.2,1.3-5.7,1.3-5.7l2.4-3.5c0,0,3.2-3.5,3.1-4.9
		c-0.1-1.4,0.4-2.5,1.6-4c1.2-1.5,6.1-3.6,6.1-3.6l2.7-5.2c0,0,4.4-2.8,7.5-1.9c3.1,0.8,8.8,0.1,11.8-0.4c3-0.6,10.8-2.1,10.8-2.1
		s3.9,0.1,4.5,0.8c0.6,0.7,9.2,1.2,9.2,1.2s9.2-1.9,10.4-4.7c1.1-2.8,0.6-5,0.6-5l-6.9,0.3c0,0-3.8,1.4-6.2,2.3
		c-2.4,0.9-4.2-3.7-8.1-2c-4,1.7-9,2.7-9,2.7L32.1,148L22,149l-11.2,0.4l-3.1-2l28.5-4.5l6.8-0.5l5-2.3l5.5-1.8l1.5-1.9l0.2-4
		l-0.3-1.8l-4.4-0.1l-4.3-0.3c0,0-8.8,2.2-10.7-1.2c-1.9-3.5-4.4-6.2-4.4-6.2l-3-0.9l-4.2-4c0,0-0.8-1.7-0.7-3.9
		c0.1-2.2-1.6-3.8,0.1-5c1.7-1.2,6.7-2.5,6.7-2.5l2.6-1.7c0,0,5.2,1.8,6.6,1.4c1.4-0.5,3.6-3.2,3.6-3.2l-4.4-0.6l-5.1-1.8l3.7-5.6
		l-3.2-6.3l-0.9-2.1l7-2.6l6.1,0.7l2.7-2.3l5.9-2.5l6.1-2.6c0,0,6.1-9.7,6.5-9.4c0.3,0.3,5.7,1.9,5.5,0c-0.1-1.9,5.4-1.8,5.4-1.8
		l1.9-0.1L67,62.2l-6.8,2l-5.5-1.8l-6.2,3.5l-6-0.2L39,62.2l19.3-2.9l4.8-2.1l-4.5-7.2L69.2,48l3.8-1.6l-3.5-0.5l3.9-4.1l-1.7-2.1
		l-1.5-3.5c0,0,8.6,0,9.3-0.3c0.6-0.3,3.5-2.6,5.4-3.4c1.9-0.8,5.3-1.5,6.6-2.5c1.3-1,2.4-1.8,2.4-1.8l8.2-3.3l-0.8-3.3
		c0,0-10.1,0.6-10.2,0.6c-0.1,0-7.1,0.9-7.1,0.9l-2.3-0.2L79.5,23L76.1,16.9z"/>
</g>
<g id="TEXTO_BOTON_ENTRAR">
	<path class="st1" d="M185.3,181.6c-1.7-1.2-3.3-2.6-4.7-4.2c-1.4-1.6-2.5-3.3-3.4-5.1c-0.9-1.8-1.3-3.6-1.4-5.6
		c-0.1-1.9,0.4-3.9,1.5-6c0.5-0.9,1.2-1.9,2.1-2.9c0.9-1,1.8-1.8,2.8-2.4c1-0.6,2-0.8,3.1-0.8c1.1,0.1,2,0.7,2.8,1.9
		c0.7,0.9,1.4,1.9,1.9,2.8c0.6,1,1.1,1.9,1.7,2.8c0.6,0.9,1.2,1.7,1.9,2.4c0.7,0.8,1.7,1.5,2.9,2.1c2.1,1,4.4,1.6,6.8,1.8
		c2.4,0.2,4.8,0,7.3-0.4c2.4-0.4,4.9-1.1,7.3-2c2.4-0.9,4.6-1.9,6.7-3.1c1.5-0.7,3.4-1.8,5.5-3.3c2.1-1.5,3.9-3.1,5.4-4.9
		c1.4-1.8,2.2-3.6,2.2-5.5c0.1-1.9-1.2-3.7-3.8-5.4c-2.3-1.5-4.7-2.3-7-2.4c-2.3,0-4.8-0.2-7.3-0.4c-2.6-0.3-5.1-0.8-7.5-1.4
		c-2.4-0.6-4.8-1.5-7-2.6c-4.9-2.5-8.3-6.1-10.3-10.8c-2-4.6-2.1-9.6-0.4-14.9c1.7-5.1,4.4-9.7,8-13.9c3.6-4.1,7.5-7.7,11.8-10.6
		c4.3-3.1,8.9-5.7,13.8-8s10-3.5,15.3-3.8c2.7-0.1,5.3,0.2,7.9,0.9c2.6,0.7,5,1.8,7.2,3.3c2.2,1.5,4.1,3.3,5.7,5.4
		c1.6,2.1,2.7,4.5,3.4,7.3c0.8,2.7,1,5.4,0.6,8.1c-0.4,2.8-1.2,5.4-2.3,8c-0.5,1.1-1.1,2.1-1.7,3c-0.6,0.9-1.3,1.8-2,2.8
		c-0.1,0.1-0.3,0.3-0.6,0.5c-0.3,0.3-0.6,0.6-1,0.9c-0.4,0.4-0.7,0.7-1,1c-0.3,0.3-0.5,0.5-0.5,0.6c-0.7,0.6-1.6,1-2.8,1.1
		c-1.1,0.2-2.3,0.2-3.4,0.1c-1.2-0.1-2.3-0.3-3.4-0.7c-1.1-0.4-1.9-0.8-2.5-1.3c-1.1-0.7-1.7-1.6-1.8-2.8c-0.1-1.1,0.1-2.3,0.5-3.5
		c0.5-1.2,1-2.4,1.7-3.7c0.7-1.2,1.2-2.3,1.6-3.2c0.8-2.1,0.9-4.1,0.2-5.8c-0.7-1.7-2.3-2.6-5-2.6c-2.3,0.2-4.6,0.7-6.8,1.6
		c-2.2,0.9-4.3,1.8-6.4,2.8c-4.6,2.8-8.8,6.2-12.7,10.4c-0.3,0.3-0.8,0.9-1.5,1.8c-0.7,0.9-1.4,1.8-2.1,2.8c-0.7,1-1.3,1.9-1.7,2.9
		c-0.4,1-0.4,1.7,0,2.1c1.3,1.3,3.1,2.1,5.4,2.3c2.3,0.2,4.4,0.3,6.4,0.3c2,0.2,4,0.4,5.8,0.7c1.8,0.3,3.7,0.7,5.5,1.5
		c4.9,1.4,9.3,3.9,13.2,7.5c3.9,3.6,6.5,7.9,7.7,13c1.1,5.5,0.5,10.8-1.8,15.8c-2.3,5-5.6,9.3-9.6,12.9c-3.8,3.2-8.2,6-13.3,8.6
		c-5.1,2.6-10.4,4.4-15.8,5.5c-5.4,1.1-10.8,1.3-16.2,0.6C194.6,186.9,189.7,184.9,185.3,181.6z"/>
	<path class="st1" d="M267,188c-1.9-3.7-2.9-6.9-2.8-9.8c0-1.2,0.2-2.4,0.7-3.6c0.5-1.2,1.2-2.2,2.3-3.1c1.1-0.9,2.6-1.7,4.4-2.2
		c1.9-0.6,4.3-0.8,7.1-0.8h4.4c-1.7-1.1-2.8-3-3.1-5.7c-0.3-2.7,0.7-6.6,3.1-11.7l26.5-55.6h-7.3c-1.9-3.7-2.9-6.9-2.8-9.8
		c0-1.2,0.2-2.4,0.7-3.6c0.5-1.2,1.2-2.2,2.3-3.1c1.1-0.9,2.5-1.7,4.4-2.2c1.9-0.6,4.3-0.8,7.1-0.8h62.3c2.1,3.7,3.3,6.9,3.4,9.8
		c0,1.2-0.2,2.4-0.6,3.6c-0.4,1.2-1.2,2.2-2.3,3.1c-1.1,0.9-2.7,1.7-4.7,2.2c-2,0.6-4.5,0.8-7.6,0.8h-38.1c0.7,1.5,1,3.4,0.8,5.7
		c-0.2,2.2-1.1,5.2-2.8,8.7l-7,14.5h28.3c0.9,3.7,1.4,6.9,1.5,9.8c0,2.4-0.4,4.7-1.3,6.7c-0.9,2-2.7,3.1-5.6,3.1h-28.3
		c-0.2-0.5-0.4-1.1-0.5-1.7c-0.2-0.8-0.4-2.2-0.6-4.1l-14.8,30.3h44.8c2.1,3.7,3.3,6.9,3.4,9.8c0,1.2-0.2,2.4-0.6,3.6
		c-0.4,1.2-1.1,2.2-2.2,3.1c-1.1,0.9-2.6,1.7-4.5,2.2c-1.9,0.6-4.4,0.8-7.5,0.8H267z"/>
	<path class="st1" d="M390.4,190.3c-5.3-2.6-9.1-6.3-11.2-11.3c-2.2-5-3.4-10.3-3.6-15.9c0-5.5,0.7-11,2.1-16.6
		c1.4-5.6,3.2-11,5.6-16.2c2.3-5.3,5.1-10.3,8.2-15.2c3.1-4.9,6.5-9.4,10-13.6c3.2-3.7,6.8-7.3,10.9-10.8c4.1-3.5,8.6-6.5,13.3-9
		c4.7-2.5,9.7-4.3,14.8-5.3c5.2-1,10.3-0.9,15.5,0.3c4.8,1.3,8.5,4,11,7.9c2.5,3.9,3.5,8.3,2.8,13.2c-0.4,4.1-1.5,8-3.1,11.9
		c-1.7,3.8-3.5,7.4-5.6,10.8c0.1,0.1-0.3,0.3-1.2,0.6s-2,0.6-3.2,1c-1.2,0.4-2.4,0.7-3.4,0.9c-1.1,0.3-1.7,0.4-1.9,0.4
		c-1.7,0-3-0.6-3.8-1.8c-0.8-1.2-1.1-2.7-0.9-4.4c0-1.9,0.2-3.8,0.7-5.7c0.5-1.8,1-3.7,1.6-5.5c0.2-1,0.4-2,0.7-3
		c0.3-1,0.5-2,0.7-3.1c0.2-0.5,0.3-1.3,0.4-2.3c0-1,0.2-1.7,0.4-2c-0.2-0.2-0.6-0.3-1.2-0.3c-0.6,0-1.3,0.1-2.1,0.2
		c-0.8,0.1-1.5,0.2-2.1,0.3c-0.7,0.1-1.1,0.2-1.3,0.2c-2.6,0.5-5,1.3-7.3,2.2c-2.3,1-4.6,2.1-6.9,3.4c-4.4,3.1-8.3,6.6-11.9,10.6
		c-3.5,4-6.8,8.3-9.7,12.9c-3,4.8-5.6,9.8-7.8,15.1c-2.2,5.3-3.9,10.7-4.9,16.3c-0.3,1.6-0.5,3.5-0.5,5.7c-0.1,2.2,0.2,4.2,0.7,6
		c0.5,1.8,1.4,3.2,2.7,4.2c1.3,1,3.1,1,5.6,0.2c2.4-0.7,4.8-1.8,7-3.4c2.2-1.5,4.3-3.2,6.3-5.1c2-1.9,3.9-3.9,5.6-5.9
		c1.7-2,3.4-4,5.1-5.8l3.1-4.1l5.1-11c3.8,0.3,7,1.1,9.6,2.3c2.2,1.1,4,2.7,5.2,4.8c1.2,2.1,1,5.1-0.8,9l-19.4,42.4
		c-2.3,0-4.5-0.2-6.6-0.6c-1.7-0.4-3.4-1.1-5.1-2c-1.7-0.9-2.8-2.3-3.4-4.1h-0.5c-3.9,2-8,3.2-12.3,3.6
		C398.5,192.9,394.4,192.2,390.4,190.3z"/>
	<path class="st1" d="M572.5,91c-2,8.2-4.9,16-8.5,23.5c-3.6,7.5-7.2,14.9-10.8,22.3c-2.1,4.8-4.3,9.5-6.5,14.2
		c-2.2,4.7-4.7,9.2-7.6,13.5c-2.9,4-6.4,7.9-10.7,11.7c-4.3,3.8-8.9,6.9-13.9,9.2c-5,2.3-10.1,3.5-15.3,3.5
		c-5.3,0.1-10.3-1.7-15.1-5.3c-4.2-3.1-7-6.7-8.6-10.8c-1.5-4.1-2.2-8.5-2-13c0.2-4.5,1.1-9.1,2.7-13.7c1.6-4.6,3.3-8.8,5.3-12.7
		c2.1-4,4.2-8,6.3-12.2c2-4.1,4.1-8.2,6.1-12.3c2-3.8,4-7.5,5.7-11.1c1.8-3.6,3.6-7.2,5.4-10.8c1-1.8,1.8-3.3,2.4-4.5
		c0.6-1.2,1.7-2.3,3.2-3.3c1.2-0.7,2.6-1.4,4.1-2.1c1.5-0.7,2.9-1.1,4.3-1.3c1.4-0.2,2.5,0.1,3.5,0.8c1,0.7,1.5,2.1,1.6,4.3
		c0.2,3.6-0.3,7.1-1.5,10.6c-1.2,3.5-2.5,6.8-3.9,9.9c-1.5,3.8-3.2,7.5-5,11.1c-1.8,3.6-3.6,7.2-5.4,10.8c-2,4.3-4.2,8.4-6.4,12.5
		c-2.2,4-4.3,8.2-6.2,12.5c-0.8,2-1.5,4.4-2.1,7.1c-0.6,2.7-0.7,5.2-0.4,7.4c0.4,2.2,1.3,4,2.9,5.2c1.6,1.2,4.2,1.4,7.7,0.5
		c4.9-1.3,9.2-4,12.9-8s6.8-8.2,9.3-12.6c1.9-3.4,3.8-6.9,5.4-10.5c1.7-3.6,3.4-7.3,5.1-11.1c3.7-8,7.3-15.8,10.9-23.6
		c3.6-7.8,7.2-15.6,11-23.6c0.8-0.5,1.9-1.1,3.2-1.8c1.3-0.7,2.7-1.3,4.1-1.7c1.4-0.4,2.7-0.5,3.9-0.3c1.2,0.2,2.2,0.9,2.9,2.1
		c0.5,0.9,0.8,1.9,0.9,3.1c0.1,1.1,0.1,2.3,0,3.5c-0.1,1.2-0.3,2.4-0.5,3.6C573,88.9,572.7,90,572.5,91z"/>
	<path class="st1" d="M571.9,187.1c-1.1-0.4-2.1-1.1-2.8-2.2c-0.8-1.1-1.2-2.6-1.3-4.6c-0.1-2,0.3-4.5,1.1-7.4
		c0.9-3,2.3-6.6,4.4-10.9l41.5-86.8c4.5-0.9,8-0.7,10.6,0.6c1,0.6,1.9,1.5,2.7,2.6c0.8,1.1,1.2,2.6,1.3,4.5c0.1,1.9-0.2,4.2-1,7
		c-0.8,2.8-2.1,6.2-3.9,10.2l-41.3,86.5C578.3,188.1,574.6,188.2,571.9,187.1z"/>
	<path class="st1" d="M638.3,187.3c-4.5,1.1-8.1,1.1-10.7,0c-1.1-0.4-2.1-1.1-2.9-2.1c-0.8-1-1.3-2.4-1.5-4.1
		c-0.2-1.7,0.1-3.9,0.7-6.5c0.6-2.6,1.8-5.7,3.7-9.4L661,95.4h-9.5c-1.4-1.3-2.7-3-3.8-5.1c-1.1-2-1.4-4.1-0.9-6.1
		c0.6-2.4,2.1-4.3,4.4-5.4c2.3-1.2,5-2,8-2.4c3-0.5,5.9-0.7,8.9-0.6c3,0.1,5.3,0.1,7,0.1c2.9,0,5.8-0.1,8.7-0.2c3-0.1,5.9,0,8.8,0.2
		c2.9,0.2,5.7,0.6,8.5,1.3c2.8,0.7,5.4,1.8,8,3.4c4.4,2.6,7.9,6.1,10.4,10.6c2.5,4.5,3.8,9.3,3.8,14.4c-0.2,4.9-1.6,9.5-4.2,13.9
		c-2.6,4.4-5.9,8.1-10,11c-4.1,2.9-8.5,5-13.3,6.5c-4.8,1.5-9.6,2.5-14.5,3.1l18.1,40.9c-2.6,3-5.2,5.1-7.8,6.3
		c-2.2,1.1-4.6,1.4-7,0.8c-2.4-0.6-4.6-2.9-6.6-7.1l-17.6-39.2L638.3,187.3z M677.1,95.4c0.8,1.7,1.1,4,0.8,6.7
		c-0.3,2.8-1.6,6.3-3.8,10.7l-5.4,11.2c0.8-0.4,1.6-0.7,2.3-0.8c0.7-0.2,1.4-0.3,2.1-0.5c2.1-0.7,4.4-1.3,6.7-1.7
		c2.3-0.4,4.7-1,7-1.7c1.6-0.4,3.5-1,5.6-1.9c2.1-0.9,4-2,5.8-3.4s3.2-3,4.2-4.7c1-1.8,1.3-3.9,0.9-6.2c-0.5-2.5-1.8-4.4-3.8-5.5
		c-2-1.1-4.4-1.8-7-2.1c-2.7-0.3-5.4-0.4-8.1-0.2c-2.8,0.2-5.1,0.2-7,0.2H677.1z"/>
</g>
<g>
</g>
<g>
</g>
<g>
</g>
<g>
</g>
<g>
</g>
<g>
</g>
<g>
</g>
<g>
</g>
<g>
</g>
<g>
</g>
<g>
</g>
<g>
</g>
<g>
</g>
<g>
</g>
<g>
</g>
</svg>
