<?xml version="1.0" encoding="utf-8"?>
<!-- Generator: Adobe Illustrator 18.0.0, SVG Export Plug-In . SVG Version: 6.00 Build 0)  -->
<!DOCTYPE svg PUBLIC "-//W3C//DTD SVG 1.1//EN" "http://www.w3.org/Graphics/SVG/1.1/DTD/svg11.dtd">
<svg version="1.1" id="Layer_1" xmlns="http://www.w3.org/2000/svg" xmlns:xlink="http://www.w3.org/1999/xlink" x="0px" y="0px"
	 viewBox="0 78.4 612 635.2" enable-background="new 0 78.4 612 635.2" xml:space="preserve">
<g>
	<path fill="#00A99D" d="M612,566.4c0,81.3-65.8,147.2-147.2,147.2H147.2C65.8,713.6,0,647.8,0,566.4V225.6
		C0,144.2,65.8,78.4,147.2,78.4h317.6c81.3,0,147.2,65.8,147.2,147.2V566.4z"/>
</g>
<g>
	<path fill="#FFFFFF" d="M527.9,181.7c4,4.5,6.8,9.9,8.5,16.3c1.7,6.4,1.2,14.2-1.5,23.4c-2.7,9.2-8.3,20-16.7,32.7
		c-8.4,12.6-20.3,27.1-35.6,43.4L369.8,411.7l24.5,207.8c-15.8,14.8-30.4,23.3-43.8,25.2c-5.9,1-11.9,0.6-17.8-1.1
		c-5.9-1.7-11.5-5.6-16.7-11.5c-5.2-5.9-9.9-14.6-14.1-26c-4.2-11.4-7.3-26-9.3-43.8l-8.2-62.3L137.5,652.1
		c-24.7-0.5-42.3-5.2-52.7-14.1c-4.5-4-7.5-9-9.3-15.2c-1.7-6.2-1.1-14,1.9-23.4c3-9.4,8.9-20.7,17.8-33.8
		c8.9-13.1,22-28.3,39.3-45.6l135.8-141l-23-185.5c15.8-12.9,30.7-20,44.5-21.5c5.9-0.5,11.9,0.3,17.8,2.2c5.9,2,11.5,5.9,16.7,11.9
		c5.2,5.9,9.8,14.2,13.7,24.9c4,10.6,7.2,24.4,9.6,41.2L355,293l123.9-129.1C502.1,165.8,518.5,171.8,527.9,181.7z"/>
</g>
</svg>
