<?xml version="1.0" encoding="utf-8"?>
<!-- Generator: Adobe Illustrator 18.0.0, SVG Export Plug-In . SVG Version: 6.00 Build 0)  -->
<!DOCTYPE svg PUBLIC "-//W3C//DTD SVG 1.1//EN" "http://www.w3.org/Graphics/SVG/1.1/DTD/svg11.dtd">
<svg version="1.1" id="Layer_1" xmlns="http://www.w3.org/2000/svg" xmlns:xlink="http://www.w3.org/1999/xlink" x="0px" y="0px"
	 viewBox="0 0 464.7 484.5" enable-background="new 0 0 464.7 484.5" xml:space="preserve">
<g>
	<path d="M397.3,67.9c3,3.3,5.1,7.3,6.3,12.1c1.3,4.8,0.9,10.6-1.1,17.3c-2,6.8-6.1,14.9-12.4,24.3c-6.2,9.4-15.1,20.1-26.5,32.3
		l-84,85.1L298,393.6c-11.8,11-22.6,17.2-32.5,18.7c-4.5,0.7-8.8,0.5-13.3-0.8c-4.5-1.3-8.5-4.2-12.4-8.5
		c-3.9-4.5-7.3-10.8-10.5-19.3c-3.2-8.4-5.5-19.3-6.9-32.5l-6-46.4l-109.2,113c-18.4-0.4-31.4-3.9-39.2-10.5
		c-3.3-3-5.7-6.7-6.9-11.3c-1.3-4.6-0.8-10.4,1.4-17.3c2.2-6.9,6.6-15.4,13.3-25.1c6.6-9.7,16.4-21,29.2-33.9l101-104.9l-17.1-138
		c11.8-9.5,22.8-14.9,33.1-16c4.5-0.4,8.8,0.2,13.3,1.7c4.5,1.5,8.5,4.5,12.4,8.8c3.9,4.5,7.2,10.6,10.2,18.4
		c3,7.9,5.4,18.1,7.1,30.6l3.9,30.3l92.2-96.1C378.2,56.1,390.3,60.6,397.3,67.9z"/>
</g>
</svg>
