<?xml version="1.0" encoding="utf-8"?>
<!-- Generator: Adobe Illustrator 18.0.0, SVG Export Plug-In . SVG Version: 6.00 Build 0)  -->
<!DOCTYPE svg PUBLIC "-//W3C//DTD SVG 1.1//EN" "http://www.w3.org/Graphics/SVG/1.1/DTD/svg11.dtd">
<svg version="1.1" id="Layer_1" xmlns="http://www.w3.org/2000/svg" xmlns:xlink="http://www.w3.org/1999/xlink" x="0px" y="0px"
	 viewBox="0 156.8 612 635.2" enable-background="new 0 156.8 612 635.2" xml:space="preserve">
<g>
	<path fill="#00A99D" d="M612,644.8c0,81.3-65.8,147.2-147.2,147.2H147.2C65.8,792,0,726.2,0,644.8V304
		c0-81.4,65.8-147.2,147.2-147.2h317.6c81.3,0,147.2,65.8,147.2,147.2V644.8z"/>
</g>
<g>
	<path fill="#FFFFFF" d="M477.8,301.1c3.2,3.6,5.5,8,6.9,13.2s1,11.5-1.2,18.9c-2.2,7.4-6.7,16.2-13.5,26.4
		c-6.8,10.2-16.4,21.9-28.8,35.1l-91.1,92.2l19.8,167.8c-12.8,12-24.6,18.8-35.4,20.4c-4.8,0.8-9.6,0.5-14.4-0.9
		c-4.8-1.4-9.3-4.5-13.5-9.3c-4.2-4.8-8-11.8-11.4-21c-3.4-9.2-5.9-21-7.5-35.4l-6.6-50.3L162.4,681c-20-0.4-34.2-4.2-42.6-11.4
		c-3.6-3.2-6.1-7.3-7.5-12.3c-1.4-5-0.9-11.3,1.5-18.9c2.4-7.6,7.2-16.7,14.4-27.3c7.2-10.6,17.8-22.9,31.7-36.8l109.7-113.9
		l-18.6-149.8c12.8-10.4,24.8-16.2,35.9-17.4c4.8-0.4,9.6,0.2,14.4,1.8c4.8,1.6,9.3,4.8,13.5,9.6c4.2,4.8,7.9,11.5,11.1,20.1
		c3.2,8.6,5.8,19.7,7.8,33.3l4.4,33l100.1-104.3C456.9,288.2,470.2,293.1,477.8,301.1z"/>
</g>
</svg>
