<?xml version="1.0" encoding="utf-8"?>
<!-- Generator: Adobe Illustrator 18.0.0, SVG Export Plug-In . SVG Version: 6.00 Build 0)  -->
<!DOCTYPE svg PUBLIC "-//W3C//DTD SVG 1.1//EN" "http://www.w3.org/Graphics/SVG/1.1/DTD/svg11.dtd">
<svg version="1.1" id="Layer_1" xmlns="http://www.w3.org/2000/svg" xmlns:xlink="http://www.w3.org/1999/xlink" x="0px" y="0px"
	 viewBox="0 0 561.4 487.6" enable-background="new 0 0 561.4 487.6" xml:space="preserve">
<g>
	<path fill="#FFFFFF" d="M449.3,67.4c3,3.3,5.1,7.4,6.4,12.2c1.3,4.8,0.9,10.7-1.1,17.5c-2,6.9-6.2,15-12.5,24.5
		c-6.3,9.5-15.2,20.3-26.7,32.6L330.7,240l18.4,155.9c-11.9,11.1-22.8,17.4-32.8,18.9c-4.5,0.7-8.9,0.5-13.4-0.8
		c-4.5-1.3-8.6-4.2-12.5-8.6c-3.9-4.5-7.4-10.9-10.6-19.5c-3.2-8.5-5.5-19.5-7-32.8l-6.1-46.8L156.5,420.3
		c-18.6-0.4-31.7-3.9-39.5-10.6c-3.3-3-5.7-6.8-7-11.4c-1.3-4.6-0.8-10.5,1.4-17.5c2.2-7,6.7-15.5,13.4-25.3
		c6.7-9.8,16.5-21.2,29.5-34.2l101.9-105.8L238.9,76.3c11.9-9.6,23-15,33.4-16.1c4.5-0.4,8.9,0.2,13.4,1.7c4.5,1.5,8.6,4.5,12.5,8.9
		c3.9,4.5,7.3,10.7,10.3,18.6c3,8,5.4,18.3,7.2,30.9l3.9,30.6l93-96.9C430,55.5,442.2,60,449.3,67.4z"/>
</g>
<g>
</g>
<g>
</g>
<g>
</g>
<g>
</g>
<g>
</g>
<g>
</g>
</svg>
