<?xml version="1.0" encoding="utf-8"?>
<!-- Generator: Adobe Illustrator 18.0.0, SVG Export Plug-In . SVG Version: 6.00 Build 0)  -->
<!DOCTYPE svg PUBLIC "-//W3C//DTD SVG 1.1//EN" "http://www.w3.org/Graphics/SVG/1.1/DTD/svg11.dtd">
<svg version="1.1" id="Layer_1" xmlns="http://www.w3.org/2000/svg" xmlns:xlink="http://www.w3.org/1999/xlink" x="0px" y="0px"
	 viewBox="0 0 365 479.8" style="enable-background:new 0 0 365 479.8;" xml:space="preserve">
<style type="text/css">
	.st0{fill:none;stroke:#C3412E;stroke-width:5;stroke-miterlimit:10;stroke-dasharray:12.0321,12.0321;}
	.st1{fill:#C3412E;}
	.st2{fill-rule:evenodd;clip-rule:evenodd;fill:#EBE5DF;}
	.st3{fill-rule:evenodd;clip-rule:evenodd;fill:#C5ADA6;}
	.st4{fill-rule:evenodd;clip-rule:evenodd;fill:#C79B72;}
	.st5{fill-rule:evenodd;clip-rule:evenodd;fill:#CA8D62;}
	.st6{fill:#85271E;}
	.st7{fill:#F3F3F3;}
</style>
<g>
	<circle class="st0" cx="182.5" cy="297.3" r="180"/>
</g>
<g>
	<g>
		
			<image style="overflow:visible;opacity:0.75;" width="803" height="769" xlink:href="76F2B49844E4089.png"  transform="matrix(0.24 0 0 0.24 157.2061 0)">
		</image>
		<g>
			<path class="st1" d="M325.2,83.8C323.1,82.2,325.2,84.2,325.2,83.8C325.2,83.8,325.8,83.9,325.2,83.8
				C324.9,83.8,325.4,84,325.2,83.8c-0.1-0.1-9.3-9.6-13.9-11.8c-2.3-1.1-9.2-4.7-13.2-4.9c1.1-1.8-1.7,1.5,0,0
				c4.5-3.9,5.1-6.7,4.5-8.6c-0.3-1-2-4.8-2.3-5.4c-2.9-7.5-0.8-2.9-7.3-13.3c-3.4-5.4-9.5-11.7-12.2-15c-3.7-4.5-10.3-10-15.2-12
				c-6-2.4-11.3-4.6-15.6-4.8c-4.5-0.2-14.1,3.3-20.1,7.9c-3.2,2.4,0.8-0.8,0,0l-57.5,51.8c-0.6,0.5-1.1,1.1-1.5,1.9
				c-3.2,6.1-4,12.7-5.2,21.7l-0.2,1.2c-0.7,5.7,0.7,11,4.1,15.3c2.9,3.7,6.6,5.8,9.2,7c1.2,0.6,4.9,2.3,17.7,2.3
				c2.1,0,4.2-0.1,5.9-0.1c3.9-0.2,12.3-1.9,18.7-3.6c-1.1,1.5-2.1,2.9-2.9,4c-4.5,6.6-8.2,12.6-8.2,18.2c0,7.5,6.2,12.1,12.3,15.7
				c6.9,4.1,23.1,7.9,31.9,9.3c5.7,0.9,10,1,12.6,1c1.3,0,2.2,0,2.9-0.1c3.5,0.6,6,0.9,7.9,0.9c5.6,0,7.8-2.5,9.7-5
				c0.4-0.5,0.7-1,1.2-1.5c3.3-3.5,5.6-9.1,7.9-14.5c0.8-1.9,1.6-3.8,2.3-5.3c2.4-4.9,6.2-10.4,6.4-10.7c0.2-0.3,4.1-5.6,8.9-9.6
				c2.3-2,5.7-5.1,8.6-8.6c3.3-4.1,5-7.6,5.3-10.9C327.9,92.6,328.6,86.7,325.2,83.8z"/>
		</g>
	</g>
	<path class="st2" d="M177.4,69.4l50.4-41.2c0,0,10.7-10.8,17.7-10.4c7.1,0.4,22.3,5.8,27.3,11.9s15.2,21.8,15.9,26.2
		c0.7,4.4,4.1,8.9,0,12.5c-4.1,3.6-7.5,4.9-7.5,4.9s-1.1,2.2,2.4,2.6c3.5,0.4,14.7-0.2,18.4,1.5c3.7,1.7,10.3,6.2,11.9,7.3
		c1.6,1.1,3.4,1.3,3.4,1.3s6.1,2.7,5.7,7.1c-0.4,4.4-6.3,10.8-11.8,15.5c-5.5,4.6-9.9,10.7-9.9,10.7s-4.3,6-6.9,11.6
		c-2.7,5.6-5.5,14.4-9.1,18.2c-3.7,3.9-1.7,5.8-14.1,3.6c0,0-5.2,0.6-14.8-0.9c-9.6-1.5-24.2-5.2-29.8-8.5
		c-5.6-3.3-9.4-6.4-9.4-10.6s3.9-10,7.2-14.8c3.3-4.9,12.2-15.7,14.4-18.2c2.2-2.6,5.4-5.6,10.3-8.3c5-2.7,4.8-6.5,4.8-6.5
		s0.3,1.7,2.1,0.9c1.8-0.9-0.7-1.5-0.7-1.5s3.8-0.7,0.2,0.6c-3.5,1.2-8,3.5-13.3,6.9c-5.2,3.4-11.7,9.9-17.3,11.8
		c-5.6,1.9-17.4,4.5-21.8,4.7c-4.4,0.2-16.5,0.4-20.8-1.6c-4.3-1.9-11.1-6.8-9.9-16.2C173.9,81,174.6,74.8,177.4,69.4z"/>
	<g>
		<path class="st3" d="M294.9,92.5c0.8,0.6,2.4,2.4,2,4.3c-0.3,1.9-0.3,1.2-2,1c-1.7-0.2-2.2-3.4-2.2-3.4l-0.7-1.9
			c0,0-2.2-0.6-3-0.9c-0.8-0.3-2.4-5.2-2.4-5.2s-1.4-2.3-1.5-3.6c-0.2-1.3,0.7-2,0-2.6c-0.7-0.7-1.4-0.3-1.4-1.6
			c0-1.3-3-3.3-1.7-3.2c1.4,0.1,8,0.2,9.5,0.3c1.5,0.1,4.3,0.4,4.3,0.4s-0.9,1.8-1.3,2.4c-0.3,0.6,4.2,0.6,3.4,1.9
			c-0.8,1.4-3.4,1.2-3.5,2.3c-0.2,1.1,1.4,2.8,0.3,2.8c-1,0-1.5-1.4-2.5-0.9c-1,0.4-0.5,0.9-0.2,1.8c0.3,0.8,0.3,1.9,0.7,2.9
			c0.3,1,0.3,2,0.8,2.4c0.5,0.3,0.5,0.3,0.5,0.3L294.9,92.5z"/>
		<path class="st3" d="M271.9,77.3c0.3,2.1-1.4,6.4-2.4,7.3c-1,0.9-2.2,0.3-3.2,0c-1-0.3-1,0.6-1.7,0c-0.7-0.6-5.6-1.3-5.6-1.3
			L271.9,77.3z"/>
		<path class="st3" d="M218.6,135.6c0,0-1-6.1,0.8-9.1c1.9-3,3.9-6.9,4.6-7.3c0.7-0.3,4.9-8.2,7.6-11c2.7-2.9,2-1.7,3.9-3.4
			c1.9-1.7,1.9-1.7,1.9-1.7s0.4-3,3.4-5c3-1.9,4.3-5.6,6.8-5.6c0,0,3.6-1.8,3.9,0.7c0.3,2.5-2.5,5.3,0,4.8c2.5-0.4,4-1.9,3.9-1.6
			c-0.1,0.3-1.4-0.2-0.1,0.3c1.4,0.5,1.2-1,1.2-1l-2.6-1.9c0,0,0.6-3.5,2.4-1.4c1.8,2.1,1,5.8,1.8,5.6c0.8-0.3,2.2-1.4,2.2-1.4
			s0.5,0.7,1.3,1.4c0.9,0.8,0.4,1.5,4.4,2.4c4.1,0.9,5.6,1.4,5.4,2.6c-0.2,1.2-5.1-1.4-3.5,0.3c1.5,1.7,1,2.7,3.6,4.7
			c2.5,2.1,3.5,2.4,4.6,3.9c1,1.5,2.5,1.2,3.2,4.6c0,0,2.6,2.4,2.3,5.1c-0.3,2.7,0.6,9.3,0,10.7c-0.6,1.4-1,2.5-1.1,4.6
			c-0.2,2-0.5,3-0.3,3.7c0.2,0.7-0.3,0.5,0.7,1.5c1,1,0.5,1,1,2.9c0.5,1.9,1.5,6.1-1,6.8c-2.5,0.7-6,0.8-10.4,0s-8.2-1.7-11.3-1.7
			c-3.1,0-8.7-1-13.4-2c-4.7-1-9-2.2-11-2.5c-2-0.3-1.9-1.4-4.6-2c-2.7-0.7-5.2-2.2-7.1-3.5c-1.9-1.4-1.7-1.4-3-2.9
			C218.6,135.6,218.6,135.6,218.6,135.6z"/>
		<path class="st3" d="M283.1,131.2c2.5,0.8,3.8,1.4,2.3,3c-1.5,1.7-2.7,1.4-2.3,0C283.5,132.9,283.1,131.2,283.1,131.2z"/>
	</g>
	<path class="st3" d="M177.9,71.1c0.8,0,1.1-0.3,1,0.9c-0.1,1.2-0.9,1.7-0.9,1.7s1.5-0.8,1.8,0c0.3,0.8-1.3,1.8-0.9,2.4
		c0.5,0.6,0.5,1.5,0,3.7c-0.5,2.2,0.6,6.6,1.5,5.7c0.9-0.9,1.2-5.2,2.4-3.7c1.2,1.5,1.1,3.8,0,5c-1.1,1.2-3.3,1.6-2,1.9
		c1.3,0.3,2.4-0.1,2.9,0c0.5,0.1,1.7,0.3,1.2,1.6c-0.5,1.3-1.6,3.2-3.4,4.8c-1.7,1.6-3.6,3.4-1.5,2.7c2.2-0.7,2-2.7,3-2.8
		c0.9-0.1,0.1,1.1,0.9,0.9c0.8-0.1,0.5,0.9,2.7-0.7c2.2-1.6,3.2-2.1,3.2-2.8c0-0.6,0.3-1.4,0-2.1c-0.3-0.7-1.2-1.6-1.6-1.9
		c-0.4-0.3-1.9-1.1-1.1-1.8c0.8-0.7,1.9-2.2,1.9-2.2s1.6-0.5,1.6,0.9c0,1.4,0,1.1,1.1,3.6c1.1,2.4,1.8,3.1,2.4,1.9
		c0.7-1.2,1.3-2.4,2-1.6c0.7,0.8,0.8-2.5,2.3-2c1.5,0.5,0.3,2,1.5,1.4c1.2-0.5,1.1-0.5,1.9-1.4c0.8-1-0.1-0.8,1.3-1.8
		c1.5-1,1.5-2.8,1.8-1.7c0.3,1.1,0.7,1.8,0,2.8c-0.7,1.1,1.5,0.7,1.5,0.7s0.3-1.2,0.5-1.8c0.3-0.6,0.1-2,0.7-1.8
		c0.5,0.1,0.1-0.9,0.5,0.1c0.4,1.1,0.5,1.7,0.5,1.7s0.7-0.2,1.1,0c0.4,0.2,0.5,0.2,0.5-1c0-1.1-0.5-2.2,0-2.9
		c0.5-0.7,2.3-2.6,3.1-1.2c0.8,1.3-1.1,1.9-0.7,2.8c0.4,0.9,0.5,0.8,0.9,1.3c0.3,0.5,1.1-0.2,1.4-0.9c0.3-0.7,2-2.3,2.2-1.2
		c0.1,1.1-1.6,3.3,0,3c1.6-0.2,2.2-1.5,2.6-0.9c0.4,0.6,1.2-3.2,3-2.2c1.8,0.9,2.3,1.9,3.5,1.3c1.2-0.5,2.8-2,2.8-2s0.5-0.3,1.5-0.3
		c0.9,0,2.4-0.4,2.4-0.4s-1.6-2,0-2.5c1.6-0.6,2.7,0.6,2.9,0c0.2-0.6-0.5-1.8,0-2.4c0.5-0.6,0.3-1,1.9-0.9c1.6,0.1,1.4,0,2.2-0.1
		c0.8-0.1,2.5-2.3,0.9-2.4c-1.7-0.1-1.6,0.2-2.4-0.6c-0.8-0.9-0.5-1.5-0.7-2.5c-0.2-1-0.2-1.3,0-2.1c0.2-0.8,0-2.5,0-2.5h-1.9
		c0,0,0.3-2,0.1-3.2c-0.2-1.2-2.5-1.7-1.3-2.2c1.2-0.4,2.9-0.3,3.2,0.6c0.2,0.9,1.6,2.8,2,1.4c0.4-1.3,0.4-2.1,0.6-2.6
		c0.2-0.6,1.2-1.6,1.2-1.6s1.6,1.5,2.2,2c0.6,0.5,1.7,3.6,1.9,4.2c0.1,0.5,0.5,1.9-0.5,0.9c-1.1-0.9-1.6-3-3.2-1.9
		c-1.6,1.1,0,0.9,1.5,2.4c1.5,1.5,2.4,1,1.9,2.1c-0.5,1.1-0.4,2.3-1.6,1c-1.2-1.3-2.2-1.9-2.6-1.5c-0.4,0.4-0.8-0.1-0.2,1.7
		c0.6,1.9-0.3,2.7,0.9,2.8c1.2,0.1,2.3-1,2.3-1s0.8,0.6,1.8,1.1c1,0.5,0.2-0.4,2,0.7c1.8,1.2,2.8,1.2,2.9,1.7c0,0.5,1.5,2.4,1.5,2.4
		s0.1,0.7-0.8,0.6c-0.9-0.1-3.6-0.3-3.6,0.6c0.1,0.9,0.2-0.1,0,1.2c-0.2,1.3-0.8,2.1-0.2,2.4c0.6,0.3,0.6-0.1,1.9-0.1
		c1.3,0-0.1-0.1,2.7,0.8c2.8,0.9,2,0.7,2.8,0.9c0.8,0.3,1.5,0.5,1.5,0.5v1.2c0,0-12.4,6.3-21.7,13.8c0,0-8.6,6.6-22,8.7
		c-13.3,2.2-28.7,2.2-33.5-2.3c0,0-3-2.7-2.2-4c0.8-1.3,0.8-1.8,0.8-1.8s1.1-2-0.9-1.2c-2,0.8-2,1.9-2.4,1.3
		c-0.4-0.5-2.3-3.9-1.2-6.3c1.1-2.4-0.4-5.3-0.1-5.7c0.3-0.4,0.7-0.5,1.2-3.1c0.5-2.6,0.1-2.7,0.4-3.9c0.3-1.2,0.4-4.2,1.1-5.3
		c0.7-1.1,1.5-2.5,1.5-2.5L177.9,71.1z"/>
	<g>
		<path class="st4" d="M242.3,21c0.1,0.8-3.4,1.6-3.6,2.7c-0.3,1.1-1.2,5-0.8,6.3c0.4,1.3,0.8,2.4,0.9,3.5c0,0-1.4,2-1,3.8
			c0.4,1.8,2.6,5,2.2,6.3c-0.4,1.3-2.7,1.5-2.3,2.2c0.4,0.7,2.1,1.5,2.3,3.1c0.2,1.6,1.7,2.2,1.8,3.2c0.1,1.1,0.9,2.8,0.5,3.4
			c-0.4,0.5-0.1,1.3,0.8,3.1c0.9,1.8,1.9,1.2,1.9,2.3c0,1.1,0.4,1.5,1.2,2.3c0.8,0.8,1.2,2.2,3.2,2.7c2,0.5,3.1,0.5,5.1,1.3
			c2,0.8,2.7,1.1,4.4,0c0,0,1.1,1.3,1.9,1.8c0.8,0.4,0.7,1.9,3.8,1.1c3.1-0.8,6.3-1.9,8.3-2.6c2-0.7,4.7-1.6,4.7-1.6
			s1.1,0.1,1.2-0.8c0.1-0.9-1.6-2.6-0.8-3c0.8-0.4,1.5,1.1,2,2.3c0.5,1.2,0.5,1.8,1.9,1.5c1.3-0.3,1.6-0.4,2.4-0.7
			c0.8-0.3,1.2-1.1,1.5-0.7c0.3,0.4-0.4,1.7,0.5,1.7c0.9,0,0.1-0.8,1.8-1.1c1.6-0.3,1.6-0.3,1.6-0.3s-0.4-2.2-1.1-3.5
			c-0.7-1.3-0.4-2.7-1.5-3.4c-1.1-0.7-1.1-0.5-1.1-1.2c0-0.7-0.3-1.5,0.1-2.7c0.4-1.2-0.3-1.2-0.9-2.7c-0.7-1.5-1.6-2.2-1.5-3.5
			c0.1-1.3-1.5-3.4-1.8-4c-0.3-0.7-2.7-3.1-3.4-3.5c-0.7-0.4-1.3,0.1-1.3-1.1c0-1.2,1.3-3.4-1.3-3.8c-2.7-0.4-4.2-0.8-4.6-1.9
			c-0.4-1.1-0.5-3.6-0.8-4.2c-0.3-0.5-0.5-1.3-2.2-1.9c-1.6-0.5-2.2-2.6-3-2.7c-0.8-0.1-2-0.5-1.9,0.8c0.1,1.3,1.7,3.2,1,3.5
			c-0.7,0.3-3.1,0.3-3.1,0.3s0.1,1.2-0.8,0.5c-0.9-0.7-1.2-0.8-1.3-1.3c-0.1-0.5,0.5-1.1-0.3-1.3c-0.8-0.3-1.6-1.2-0.9-2.2
			C259,24.2,260,23,260,23s0.5-1.1,0-1.2c-0.5-0.1-3.4-2-5.7-1.8c-2.3,0.3-1.3,0.9-0.7,1.9c0.7,0.9,1.3,2.4,0.4,2
			c-0.9-0.4-3.2-0.9-3.4-1.9c-0.2-0.9,0-2,0-2s-2.5-1.1-5-0.9C243.3,19.2,242.3,21,242.3,21z"/>
		<path class="st5" d="M237,52.6c0,0-1.5,0.2-1.1,1.3c0.4,1.1,0.9,0.5,1.8,1.9c0.9,1.5,0.5,4.1,1.7,4c1.2-0.1,1.2-2.2,1.3-4.1
			s0.7-2.8-0.5-2.8c-1.2,0-2.5,0-2.5,0L237,52.6z"/>
		<path class="st5" d="M276.3,69.2c0,0-2.2,0.9-2,1c0.1,0.2-0.1,2.2,2,1.8c2.2-0.4,3.8,0,5-0.7c1.2-0.7-0.9-1.2-1.2-2.2
			c-0.3-0.9-0.1-2.6-1.5-1.9C277.2,68,276.3,69.2,276.3,69.2z"/>
		<path class="st5" d="M258.4,74.9c0,0-0.7-1.6-1.5-1.1c-0.8,0.5-0.1,1.5,0,2.6c0.1,1.1-0.5,2.3,0.5,2c1.1-0.3,1.9-0.5,2.8-1.1
			c0.9-0.5,1.2-1.2,1.2-1.2v-0.8c0,0-0.3-0.7-1.5-0.5c-1.2,0.3-1.1,0.3-1.1,0.3L258.4,74.9z"/>
		<path class="st5" d="M247.8,76.1c1,0.3,2.3,0.4,3.6,0.6c1.2,0.1,2.2,0,2.2,0s2-1,1.9,0.1c-0.1,1-0.1,1.9-1.3,1.7
			c-1.2-0.2-4-0.6-4-0.6s-1.1-0.8-1.5-0.6c-0.4,0.2-0.7,0-0.7,0S247.3,76,247.8,76.1z"/>
		<path class="st5" d="M230.2,98c-1.5-0.7-2.7-1.9-2.6-2.4c0.1-0.5,1.3-0.8,3.4-1.2c2-0.4,5.8-2,6.7-2.3c0.9-0.3,5.7-3.4,6.7-3.5
			c0.9-0.1,5.2-3.8,7.1-3.9c1.9-0.1,2.4,0,2.4,0s-13,7.3-15.5,9.8c-2.5,2.5-4.8,3.7-6.1,4.5c-1.3,0.8-1.8,2.6-1.9,0.8
			C230.2,98,230.2,98,230.2,98z"/>
	</g>
	<path class="st4" d="M219.9,137c0,0-1.2-3.3-0.8-4.5c0.3-1.2,0.1-2,0.4-2.9c0.3-0.8-0.6-1.2,0.5-1.7c1-0.5,1.9-0.7,2.2-2.2
		c0.3-1.5-1.9-2.7,0-2.4c1.9,0.3,1.2,2,2.2,1.7c1-0.3,1-3,1-3s-0.2-1.2,0-1.4c0.2-0.2,0.3,0.2,1.2,0.2c0.8,0,0.9,0,0.9,0
		s0.3-1.7,0-2.6c-0.3-0.8-1.2-2.1-0.5-2.5c0.7-0.3,1.8-1.4,2.3-0.1c0.5,1.4,2.3,3.5,2.3,3.5v-6c0,0,0.1-0.4,1.3-0.4
		c1.2,0,1.1,0,1.1,0s1.2-0.4,2.6-4.4c1.4-4-0.5-4.7,0.8-5.2c1.4-0.5,0.2-0.8,1.4-0.6c1.2,0.2,1-0.2,2-0.1c1,0.1,2.9-2.1,2.9-2.1
		s0.8-2.8,1.9-2.4c1,0.4,3.8-0.1,4.9,0c1.1,0,2,2.3,5,3.2c2.9,0.8,2.4,1,3.7,1.5c1.3,0.5,4.5,1.7,4.7,2c0.2,0.3,1.5,0.8,1.5,0.8
		s0.6,1.3,1.9,2.5c1.3,1.2,3.2,2.2,3.2,2.2s2,1.9,2.5,2.2c0.5,0.3,2.7,1.2,3,1.9c0.3,0.7,0.5,2.5,0.8,3.1c0.3,0.6,0.3,1.3,1.2,2.8
		c0.9,1.5,0,1.5,0.7,2.7c0.7,1.2-0.5,4.6,0,5.2c0.5,0.7-0.1,3.2,0.2,4.1c0.3,0.8,0.7,4.2,0,5.6c-0.7,1.4-2.4,4.1-2.4,4.9
		c0,0.8,1.2,2.2,2.8,3.2c1.6,1,1.6,3.4,1.4,4.1c-0.2,0.7,0.7,1.4-1,1.5c-1.7,0.2-5.2,0.5-6.1,0.7c-0.8,0.2-11-2.2-11.9-2
		c-0.8,0.2-3-0.1-5.2-0.3c-2.2-0.2-5.8-0.7-6.6-1c-0.8-0.3-2.4-0.5-4.2-0.9c-1.9-0.3-3.4-0.8-6.1-1.2c-2.7-0.3-8.6-2.5-10.5-3.7
		c-1.9-1.2-1.9-1.5-3.6-2.4C223.9,140,219.9,137,219.9,137z"/>
	<path class="st1" d="M129.4,77.4c0,0-12.5-25.4-20.6-19.8C100.7,63.1,120.1,72.6,129.4,77.4z"/>
	<path class="st1" d="M131.3,71.8c0,0,10.5-26.3,1-28.6C122.7,40.9,128.6,61.6,131.3,71.8z"/>
	<path class="st1" d="M127.1,81.5c0,0-28.1,3.5-25.5,13C104.2,103.9,119.6,88.7,127.1,81.5z"/>
	<g>
		<g>
			<path class="st1" d="M262.9,90.2c-0.9-3.8-4-6.6-7.8-7.3l-13.3-2.4c-1-0.2-1.9-0.3-2.8-0.3c-4.1,0-6.7,1.7-8.3,3.1
				c-2,1.9-3.4,4.3-3.9,7c-0.2,1.2-0.3,2.5-0.3,3.8l-4.7,7.1c-0.3,0.4-0.5,0.8-0.8,1.2c-0.2,0.1-0.4,0.2-0.5,0.4
				c-0.3-0.4-0.7-0.8-1-1.2l2.4-4.8c0,0,0-0.1,0.1-0.1c0.7-1.5,1.2-2.9,1.5-4.3c0.4-1.7,0.4-3.3,0.3-4.8c-0.3-2-1-3.9-2.1-5.5
				c-0.9-1.3-2.1-2.4-3.4-3.2c-0.1-0.1-0.2-0.5-0.3-0.6c-2.2-1.3-4.7-2.3-7.4-2.3c0,0,0,0-0.1,0c-3.7,0-7.1,2.5-8.8,5.8l-7.1,14.2
				l-0.2-4.9c-0.1-1.6-0.2-3-0.6-4.4c-0.4-1.7-1.1-3.1-1.9-4.4c-0.4-0.6-0.9-1.2-1.4-1.7c1.2-1.8,1.8-4,1.7-6.2l-1.1-17.5
				c-0.1-1.6-0.3-3-0.7-4.3c-0.5-1.7-1.2-3.1-2.2-4.4c-1.4-1.8-3.2-3.1-5.3-3.9c-1.4-0.5-3-0.8-4.5-0.7c-0.1,0-0.1,0-0.2,0
				c-2.6,0.1-5.1,1-7.5,2.7c-1.3,0.9-2.3,2.1-3,3.5c-0.3-0.4-0.7-0.8-1.1-1.1c-1.2-1-2.5-1.8-3.9-2.3c-0.1,0-0.2-0.1-0.3-0.1
				c-2.2-0.7-4.6-0.9-7.1-0.4c-3.6,0.6-6.5,3.1-7.7,6.5l-5.3,15.4c0,0.1-0.1,0.2-0.1,0.3c-0.1,0.4-0.2,0.8-0.3,1.2
				c-0.3,0.3-0.6,0.6-0.8,1c-1.1,1.5-1.8,3.1-2.1,4.9c-0.2,1.2-0.3,2.4-0.1,3.6c0.1,1.3,0.4,2.6,0.9,3.8l-2.4,0.7
				c-1.9,0.5-3.6,1.4-4.9,2.6c-1.5,1.3-2.6,2.9-3.3,4.7c-0.6,1.6-0.9,3.2-0.8,4.9c0,0,0,0,0,0.1c0,1,0.2,2.1,0.5,3.1
				c0.2,0.7,0.4,1.4,0.7,2c-1.2,1.1-2.2,2.5-2.9,4.1c-0.3,0.8-0.6,1.6-0.9,2.4c-0.8,2.5-1.1,5-0.9,7.7c0.2,3.1,1.1,6,2.8,8.6
				c1.7,2.7,4,4.8,6.8,6.1c2,0.9,4.2,1.4,6.4,1.4c1,0,2.1-0.1,3.1-0.3c3.3-0.7,6.3-2.3,8.7-4.8c1.8-1.8,3.2-4,4.2-6.3
				c0-0.1,0.1-0.1,0.1-0.2c0.2-0.4,0.3-0.8,0.4-1.1c0.3,0.6,0.6,1.2,0.9,1.7c1.1,1.6,2.5,2.9,4.2,3.8c1.9,1,4.1,1.6,6.5,1.6
				c0.6,0,1.3,0,2-0.1c2.4-0.3,4.6-1.4,6.2-3.2c0.4,0.2,0.7,0.4,1.1,0.5c1.7,0.7,3.6,1,5.4,0.9c2.6-0.2,5-1.1,7.4-2.9
				c1.7,1.6,3.9,2.7,6.3,2.8l12.3,0.7c0.3,0,0.7,0,1,0c3.1,0,5.5-0.9,7.1-2.1c1.4,1.7,3.5,3,5.8,3.4l13.3,2.4c1,0.2,1.9,0.3,2.8,0.3
				c0.8,0,1.5-0.1,2.3-0.2c1.8-0.3,3.5-1,5-2c1.7-1.2,3.1-2.8,4-4.6c0.5-1.1,0.9-2.3,1.1-3.5c0-0.1,0-0.2,0.1-0.3
				c0.2-1.3,0.2-2.7,0.1-4.1c0.2-0.3,0.4-0.6,0.6-0.9c0.9-1.5,1.5-3.2,1.8-5c0-0.1,0-0.2,0.1-0.3c1.5-0.4,2.8-1,4-1.9
				c1.6-1.2,2.9-2.7,3.8-4.5c0.5-1.1,0.9-2.3,1.1-3.5c0-0.1,0-0.2,0-0.3C263.7,94.7,263.5,92.5,262.9,90.2z M161.9,95.7
				c0.4-2.2,0.3-4.5-0.4-6.6c-0.1-0.2-0.2-0.5-0.2-0.7l0.8-0.1c0.9-0.1,1.7-0.3,2.4-0.5c0.7,0.1,1.5,0.2,2.3,0.2
				c0.5,0,1.1,0,1.7-0.1l-3.9,6.6C163.6,94.7,162.7,95.2,161.9,95.7z"/>
			<g>
				<g>
					<path class="st6" d="M155.5,92c0.2,0.6,0.2,1.3,0,1.9c-0.2,0.6-0.8,1.1-1.8,1.4l-0.4,0.1l0,0.2c0.4,0.7,0.6,1.6,0.6,2.5
						c0,0.9,0,1.8-0.1,2.5c-0.1,0.6-0.2,1.3-0.3,2c-0.1,0.7-0.2,1.3-0.3,2c-0.3,1.8-0.5,3.7-0.8,5.5c-0.3,1.9-0.7,3.6-1.4,5.3
						c-0.6,1.3-1.3,2.5-2.3,3.5c-1,1-2.1,1.6-3.5,1.9c-1.2,0.2-2.3,0.1-3.4-0.4c-1.1-0.5-2-1.3-2.7-2.4c-0.8-1.2-1.2-2.5-1.3-3.9
						c-0.1-1.4,0.1-2.8,0.5-4.2c0.1-0.5,0.3-0.9,0.5-1.4c0.2-0.5,0.5-0.8,1-0.9c0.5-0.1,1-0.1,1.6,0c0.6,0.1,1,0.4,1.2,1
						c0.1,0.2,0.1,0.5,0.1,1c0,0.4,0,0.9,0,1.4c0,0.5-0.1,1.1-0.1,1.6c0,0.6,0,1.1,0,1.5c0.1,0.5,0.2,0.8,0.4,1.1
						c0.2,0.3,0.5,0.4,0.8,0.3c0.6-0.1,1.1-0.3,1.5-0.8c0.4-0.5,0.7-1,1-1.6c0.3-0.6,0.5-1.3,0.6-2c0.1-0.7,0.3-1.3,0.3-1.8
						c0.4-2.1,0.8-4.2,1-6.4c0.3-2.1,0.6-4.3,0.9-6.4l-6.6,1.9c-0.6-0.9-1-1.7-1.2-2.5c-0.1-0.3-0.1-0.7-0.2-1c0-0.3,0-0.6,0.2-0.9
						c0.1-0.3,0.3-0.6,0.6-0.8c0.3-0.2,0.7-0.4,1.2-0.6l10.7-3C154.8,90.5,155.2,91.3,155.5,92z"/>
					<path class="st6" d="M182.9,87.7c0.9-0.6,1.7-1,2.4-1c0.3,0,0.6,0.1,0.9,0.2c0.3,0.1,0.6,0.4,0.8,0.7c0.2,0.4,0.4,0.9,0.6,1.5
						c0.2,0.6,0.3,1.4,0.3,2.3l0.8,20.7c-0.9,0.7-1.7,1.1-2.4,1.2c-0.3,0-0.6,0-0.9-0.2c-0.3-0.1-0.6-0.4-0.8-0.7
						c-0.2-0.4-0.4-0.9-0.6-1.5c-0.2-0.7-0.3-1.5-0.3-2.5l0-0.8c-0.2,0.2-0.4,0.3-0.7,0.4c-0.3,0.1-0.6,0.1-1,0.2l-5,0.5l-3.8,6.5
						c-1.1,0.1-1.9,0-2.6-0.3c-0.3-0.1-0.5-0.4-0.7-0.6c-0.2-0.3-0.3-0.6-0.3-1.1c0-0.5,0.1-1,0.2-1.6c0.2-0.6,0.5-1.4,1-2.3
						l-0.6,0.1c-0.4-1-0.7-1.8-0.8-2.6c-0.1-0.7,0.1-1.3,0.4-1.9c0.3-0.6,1-0.9,2.1-1l2.2-0.2l8.8-15L182.9,87.7z M183.4,102.6
						l-0.3-4.9l-2.9,5.2L183.4,102.6z"/>
					<path class="st6" d="M216,108.7c0.3,1,0.5,2,0.5,2.7c0,0.7-0.2,1.3-0.7,1.8c-0.4,0.5-1.2,0.8-2.4,0.7l-12.3-0.7
						c-0.3-1-0.4-1.9-0.3-2.7c0-0.3,0.1-0.7,0.2-1c0.1-0.3,0.3-0.6,0.5-0.8c0.2-0.2,0.5-0.4,0.9-0.6c0.4-0.1,0.8-0.2,1.4-0.1
						l0.8,0.1c-0.3-0.4-0.4-1-0.3-1.8c0-0.7,0.4-1.7,0.9-3l8.5-16.8c1,0,1.9,0.2,2.5,0.6c0.2,0.2,0.5,0.4,0.7,0.7
						c0.2,0.3,0.3,0.6,0.4,1c0.1,0.4,0,0.9-0.1,1.5c-0.1,0.6-0.4,1.2-0.8,2l-8.1,15.9L216,108.7z"/>
					<path class="st6" d="M256.7,92.6c0.3,1.1,0.3,2,0.2,2.8c-0.1,0.3-0.2,0.7-0.3,1c-0.1,0.3-0.4,0.6-0.6,0.8
						c-0.3,0.2-0.6,0.3-1.1,0.4c-0.4,0.1-1,0.1-1.6-0.1l-7.8-1.4c0.1,0.4,0,0.8-0.1,1.4c-0.1,0.5-0.4,1.1-0.9,1.8l-1.8,2.6l5.5,1
						c0,1,0,2-0.1,2.7c-0.1,0.7-0.3,1.3-0.6,1.8c-0.3,0.5-0.7,0.7-1.3,0.6l-6.1-1.1c0-0.1,0-0.1,0-0.3c0-0.2,0-0.4,0-0.7l-3.8,5.6
						l9,1.6c0.2,1.1,0.3,2,0.2,2.8c-0.1,0.3-0.2,0.7-0.3,1c-0.1,0.3-0.4,0.6-0.6,0.7c-0.3,0.2-0.6,0.3-1.1,0.4
						c-0.4,0.1-1,0.1-1.6-0.1l-13.3-2.4c-0.2-1-0.3-2-0.1-2.7c0.1-0.7,0.4-1.2,1-1.7c0.5-0.5,1.4-0.6,2.6-0.4l0.5,0.1
						c-0.2-0.4-0.3-1-0.2-1.6c0.1-0.6,0.4-1.4,1.1-2.3l7.7-11.6L240,95c-0.2-1.1-0.2-2-0.1-2.8c0.1-0.7,0.4-1.2,1-1.7
						c0.5-0.5,1.4-0.6,2.6-0.4L256.7,92.6z"/>
				</g>
				<g>
					<path class="st6" d="M165.9,73.6c0.5,0.8,0.8,1.6,0.9,2.2c0.1,0.6,0,1.1-0.3,1.6c-0.3,0.5-1,0.8-2.1,1l-11.5,1.4
						c-0.4-0.8-0.7-1.5-0.7-2.2c0-0.3,0-0.6,0-0.9c0.1-0.3,0.2-0.5,0.3-0.8c0.2-0.2,0.4-0.4,0.7-0.6c0.3-0.2,0.7-0.3,1.3-0.3
						l0.8-0.1c-0.3-0.3-0.5-0.8-0.6-1.4c-0.1-0.6,0.1-1.5,0.4-2.6l5.3-15.4c0.9-0.2,1.7-0.1,2.4,0.1c0.3,0.1,0.5,0.2,0.7,0.4
						c0.2,0.2,0.4,0.5,0.5,0.8c0.1,0.3,0.2,0.8,0.1,1.3c0,0.5-0.2,1.1-0.4,1.8l-5,14.6L165.9,73.6z"/>
					<path class="st6" d="M179.9,54.3c0.8-0.6,1.6-0.9,2.2-0.9c0.3,0,0.6,0,0.9,0.1c0.3,0.1,0.5,0.3,0.8,0.6
						c0.2,0.3,0.4,0.7,0.6,1.2c0.2,0.5,0.3,1.2,0.3,2l1.1,17.6c-0.8,0.7-1.6,1-2.3,1.1c-0.3,0-0.6,0-0.9-0.1
						c-0.3-0.1-0.5-0.3-0.8-0.6c-0.2-0.3-0.4-0.7-0.6-1.3c-0.2-0.5-0.3-1.3-0.3-2.1l0-0.7c-0.2,0.1-0.4,0.3-0.7,0.3
						c-0.3,0.1-0.6,0.1-0.9,0.2l-4.7,0.6l-3.5,5.7c-1,0.1-1.8,0.1-2.4-0.2c-0.3-0.1-0.5-0.3-0.6-0.5c-0.2-0.2-0.3-0.5-0.3-0.9
						c0-0.4,0-0.8,0.2-1.4c0.2-0.6,0.5-1.2,0.9-2l-0.6,0.1c-0.4-0.8-0.7-1.5-0.8-2.2c-0.1-0.6,0-1.1,0.3-1.6c0.3-0.5,0.9-0.8,1.9-1
						l2.1-0.2l8-13.1V54.3z M180.6,67l-0.3-4.1l-2.7,4.5L180.6,67z"/>
				</g>
			</g>
			<g>
				<path class="st7" d="M152.1,92c0.2,0.6,0.2,1.3,0,1.9c-0.2,0.6-0.8,1.1-1.8,1.4l-0.4,0.1l0,0.2c0.4,0.7,0.6,1.6,0.6,2.5
					c0,0.9,0,1.8-0.1,2.5c-0.1,0.6-0.2,1.3-0.3,2c-0.1,0.7-0.2,1.3-0.3,2c-0.3,1.8-0.5,3.7-0.8,5.5c-0.3,1.9-0.7,3.6-1.4,5.3
					c-0.6,1.3-1.3,2.5-2.3,3.5c-1,1-2.1,1.6-3.5,1.9c-1.2,0.2-2.3,0.1-3.4-0.4c-1.1-0.5-2-1.3-2.7-2.4c-0.8-1.2-1.2-2.5-1.3-3.9
					c-0.1-1.4,0.1-2.8,0.5-4.2c0.1-0.5,0.3-0.9,0.5-1.4c0.2-0.5,0.5-0.8,1-0.9c0.5-0.1,1-0.1,1.6,0c0.6,0.1,1,0.4,1.2,1
					c0.1,0.2,0.1,0.5,0.1,1c0,0.4,0,0.9,0,1.4c0,0.5-0.1,1.1-0.1,1.6c0,0.6,0,1.1,0,1.5c0.1,0.5,0.2,0.8,0.4,1.1
					c0.2,0.3,0.5,0.4,0.8,0.3c0.6-0.1,1.1-0.3,1.5-0.8c0.4-0.5,0.7-1,1-1.6c0.3-0.6,0.5-1.3,0.6-2c0.1-0.7,0.3-1.3,0.3-1.8
					c0.4-2.1,0.8-4.2,1-6.4c0.3-2.1,0.6-4.3,0.9-6.4l-6.6,1.9c-0.6-0.9-1-1.7-1.2-2.5c-0.1-0.3-0.1-0.7-0.2-1c0-0.3,0-0.6,0.2-0.9
					c0.1-0.3,0.3-0.6,0.6-0.8c0.3-0.2,0.7-0.4,1.2-0.6l10.7-3C151.5,90.5,151.9,91.3,152.1,92z"/>
				<path class="st7" d="M179.5,87.7c0.9-0.6,1.7-1,2.4-1c0.3,0,0.6,0.1,0.9,0.2c0.3,0.1,0.6,0.4,0.8,0.7c0.2,0.4,0.4,0.9,0.6,1.5
					c0.2,0.6,0.3,1.4,0.3,2.3l0.8,20.7c-0.9,0.7-1.7,1.1-2.4,1.2c-0.3,0-0.6,0-0.9-0.2c-0.3-0.1-0.6-0.4-0.8-0.7
					c-0.2-0.4-0.4-0.9-0.6-1.5c-0.2-0.7-0.3-1.5-0.3-2.5l0-0.8c-0.2,0.2-0.4,0.3-0.7,0.4c-0.3,0.1-0.6,0.1-1,0.2l-5,0.5l-3.8,6.5
					c-1.1,0.1-1.9,0-2.6-0.3c-0.3-0.1-0.5-0.4-0.7-0.6c-0.2-0.3-0.3-0.6-0.3-1.1c0-0.5,0.1-1,0.2-1.6c0.2-0.6,0.5-1.4,1-2.3
					l-0.6,0.1c-0.4-1-0.7-1.8-0.8-2.6c-0.1-0.7,0.1-1.3,0.4-1.9c0.3-0.6,1-0.9,2.1-1l2.2-0.2l8.8-15L179.5,87.7z M180.1,102.6
					l-0.3-4.9l-2.9,5.2L180.1,102.6z"/>
				<path class="st7" d="M212.7,108.7c0.3,1,0.5,2,0.5,2.7c0,0.7-0.2,1.3-0.7,1.8c-0.4,0.5-1.2,0.8-2.4,0.7l-12.3-0.7
					c-0.3-1-0.4-1.9-0.3-2.7c0-0.3,0.1-0.7,0.2-1c0.1-0.3,0.3-0.6,0.5-0.8c0.2-0.2,0.5-0.4,0.9-0.6c0.4-0.1,0.8-0.2,1.4-0.1l0.8,0.1
					c-0.3-0.4-0.4-1-0.3-1.8c0-0.7,0.4-1.7,0.9-3l8.5-16.8c1,0,1.9,0.2,2.5,0.6c0.2,0.2,0.5,0.4,0.7,0.7c0.2,0.3,0.3,0.6,0.4,1
					c0.1,0.4,0,0.9-0.1,1.5c-0.1,0.6-0.4,1.2-0.8,2l-8.1,15.9L212.7,108.7z"/>
				<path class="st7" d="M253.4,92.6c0.3,1.1,0.3,2,0.2,2.8c-0.1,0.3-0.2,0.7-0.3,1c-0.1,0.3-0.4,0.6-0.6,0.8
					c-0.3,0.2-0.6,0.3-1.1,0.4c-0.4,0.1-1,0.1-1.6-0.1l-7.8-1.4c0.1,0.4,0,0.8-0.1,1.4c-0.1,0.5-0.4,1.1-0.9,1.8l-1.8,2.6l5.5,1
					c0,1,0,2-0.1,2.7c-0.1,0.7-0.3,1.3-0.6,1.8c-0.3,0.5-0.7,0.7-1.3,0.6l-6.1-1.1c0-0.1,0-0.1,0-0.3c0-0.2,0-0.4,0-0.7l-3.8,5.6
					l9,1.6c0.2,1.1,0.3,2,0.2,2.8c-0.1,0.3-0.2,0.7-0.3,1c-0.1,0.3-0.4,0.6-0.6,0.7c-0.3,0.2-0.6,0.3-1.1,0.4
					c-0.4,0.1-1,0.1-1.6-0.1l-13.3-2.4c-0.2-1-0.3-2-0.1-2.7c0.1-0.7,0.4-1.2,1-1.7c0.5-0.5,1.4-0.6,2.6-0.4l0.5,0.1
					c-0.2-0.4-0.3-1-0.2-1.6c0.1-0.6,0.4-1.4,1.1-2.3l7.7-11.6l-1.1-0.2c-0.2-1.1-0.2-2-0.1-2.8c0.1-0.7,0.4-1.2,1-1.7
					c0.5-0.5,1.4-0.6,2.6-0.4L253.4,92.6z"/>
			</g>
		</g>
		<g>
			<path class="st7" d="M162.5,73.6c0.5,0.8,0.8,1.6,0.9,2.2c0.1,0.6,0,1.1-0.3,1.6c-0.3,0.5-1,0.8-2.1,1l-11.5,1.4
				c-0.4-0.8-0.7-1.5-0.7-2.2c0-0.3,0-0.6,0-0.9c0.1-0.3,0.2-0.5,0.3-0.8c0.2-0.2,0.4-0.4,0.7-0.6c0.3-0.2,0.7-0.3,1.3-0.3l0.8-0.1
				c-0.3-0.3-0.5-0.8-0.6-1.4c-0.1-0.6,0.1-1.5,0.4-2.6l5.3-15.4c0.9-0.2,1.7-0.1,2.4,0.1c0.3,0.1,0.5,0.2,0.7,0.4
				c0.2,0.2,0.4,0.5,0.5,0.8c0.1,0.3,0.2,0.8,0.1,1.3c0,0.5-0.2,1.1-0.4,1.8l-5,14.6L162.5,73.6z"/>
			<path class="st7" d="M176.5,54.3c0.8-0.6,1.6-0.9,2.2-0.9c0.3,0,0.6,0,0.9,0.1c0.3,0.1,0.5,0.3,0.8,0.6c0.2,0.3,0.4,0.7,0.6,1.2
				c0.2,0.5,0.3,1.2,0.3,2l1.1,17.6c-0.8,0.7-1.6,1-2.3,1.1c-0.3,0-0.6,0-0.9-0.1c-0.3-0.1-0.5-0.3-0.8-0.6
				c-0.2-0.3-0.4-0.7-0.6-1.3c-0.2-0.5-0.3-1.3-0.3-2.1l0-0.7c-0.2,0.1-0.4,0.3-0.7,0.3c-0.3,0.1-0.6,0.1-0.9,0.2l-4.7,0.6l-3.5,5.7
				c-1,0.1-1.8,0.1-2.4-0.2c-0.3-0.1-0.5-0.3-0.6-0.5c-0.2-0.2-0.3-0.5-0.3-0.9c0-0.4,0-0.8,0.2-1.4c0.2-0.6,0.5-1.2,0.9-2l-0.6,0.1
				c-0.4-0.8-0.7-1.5-0.8-2.2c-0.1-0.6,0-1.1,0.3-1.6c0.3-0.5,0.9-0.8,1.9-1l2.1-0.2l8-13.1V54.3z M177.3,67l-0.3-4.1l-2.7,4.5
				L177.3,67z"/>
		</g>
	</g>
</g>
<g>
</g>
<g>
</g>
<g>
</g>
<g>
</g>
<g>
</g>
<g>
</g>
</svg>
