<?xml version="1.0" encoding="utf-8"?>
<!-- Generator: Adobe Illustrator 18.0.0, SVG Export Plug-In . SVG Version: 6.00 Build 0)  -->
<!DOCTYPE svg PUBLIC "-//W3C//DTD SVG 1.1//EN" "http://www.w3.org/Graphics/SVG/1.1/DTD/svg11.dtd">
<svg version="1.1" id="Layer_1" xmlns="http://www.w3.org/2000/svg" xmlns:xlink="http://www.w3.org/1999/xlink" x="0px" y="0px"
	 viewBox="0 0 612 792" enable-background="new 0 0 612 792" xml:space="preserve">
<circle fill="#FFD55B" cx="306" cy="396" r="306"/>
<g>
	<line fill="#00B99A" x1="441.5" y1="204.2" x2="155.6" y2="587.8"/>
	<g>
		<line fill="none" stroke="#00B99A" stroke-width="30" stroke-miterlimit="1" x1="441.5" y1="204.2" x2="155.6" y2="587.8"/>
		<g>
			<path fill="#00B99A" d="M346.8,234.9c1.2,3.1,4.6,4.7,7.7,3.5l85.8-32.6l-6.7,91.6c-0.2,3.3,2.2,6.2,5.5,6.4
				c3.3,0.2,6.2-2.3,6.4-5.5l7.4-100.9c0.1-2-0.8-4-2.4-5.3c-1.6-1.2-3.8-1.5-5.7-0.8l-94.6,35.9c-1.1,0.4-2,1.1-2.7,2
				C346.4,230.8,346,232.9,346.8,234.9z"/>
		</g>
		<g>
			<path fill="#00B99A" d="M158,488.2c3.3,0.2,5.8,3.1,5.5,6.4l-6.7,91.6l85.8-32.6c3.1-1.2,6.6,0.4,7.7,3.5
				c1.2,3.1-0.4,6.6-3.5,7.7l-94.6,35.9c-1.9,0.7-4.1,0.4-5.7-0.8c-1.6-1.2-2.5-3.2-2.4-5.3l7.4-100.9c0.1-1.2,0.5-2.3,1.2-3.1
				C153.9,489,155.9,488.1,158,488.2z"/>
		</g>
	</g>
</g>
</svg>
