<?xml version="1.0" encoding="utf-8"?>
<!-- Generator: Adobe Illustrator 18.0.0, SVG Export Plug-In . SVG Version: 6.00 Build 0)  -->
<!DOCTYPE svg PUBLIC "-//W3C//DTD SVG 1.1//EN" "http://www.w3.org/Graphics/SVG/1.1/DTD/svg11.dtd">
<svg version="1.1" id="Layer_1" xmlns="http://www.w3.org/2000/svg" xmlns:xlink="http://www.w3.org/1999/xlink" x="0px" y="0px"
	 viewBox="0 0 439.5 219.9" style="enable-background:new 0 0 439.5 219.9;" xml:space="preserve">
<style type="text/css">
	.st0{fill:#FFCC4B;}
</style>
<g>
	<g>
		<path class="st0" d="M66.9,40.8c0-0.4,0.1-0.7,0.2-1c0.1-0.3,0.3-0.6,0.6-0.9c0.3-0.3,0.7-0.5,1.1-0.6c0.5-0.2,1.1-0.2,1.9-0.2
			h1.6c-0.5-0.3-0.8-0.9-0.8-1.9c0-0.9,0.4-2.2,1.2-3.9l10-20.8c1.2-0.1,2.2,0,2.9,0.3c0.3,0.2,0.6,0.4,0.8,0.7
			c0.2,0.3,0.4,0.7,0.5,1.1c0.1,0.5,0,1-0.1,1.7c-0.1,0.7-0.5,1.5-0.9,2.5L76.1,38h10.8c0.6,1.1,0.8,2,0.9,2.8c0,0.4-0.1,0.7-0.2,1
			c-0.1,0.3-0.3,0.6-0.6,0.9c-0.3,0.3-0.7,0.5-1.2,0.6c-0.5,0.2-1.2,0.2-2,0.2H67.6C67.1,42.6,66.9,41.6,66.9,40.8z"/>
		<path class="st0" d="M93.1,43.9c-1.4,0.1-2.5,0-3.2-0.5c-0.3-0.2-0.5-0.5-0.7-0.8c-0.1-0.4-0.2-0.8-0.1-1.4c0.1-0.6,0.4-1.2,0.8-2
			c0.4-0.8,1.1-1.7,2-2.8h-1.7c-0.5-1.1-0.7-2-0.7-2.8c0-0.4,0.1-0.7,0.2-1c0.1-0.3,0.3-0.6,0.6-0.9c0.3-0.3,0.7-0.5,1.1-0.6
			c0.5-0.2,1.1-0.2,1.8-0.2h3l13.6-17.3h0.1l0.1-1.1c1.1-0.7,2-1,2.9-0.9c0.4,0,0.7,0.1,1,0.3c0.3,0.2,0.6,0.5,0.8,1
			c0.2,0.5,0.4,1,0.5,1.8c0.1,0.7,0.1,1.7,0.1,2.8l-1.4,24.8c-1.1,0.8-2.1,1.2-2.9,1.2c-0.4,0-0.7-0.1-1-0.3c-0.3-0.2-0.6-0.5-0.9-1
			c-0.2-0.5-0.4-1.1-0.5-1.9c-0.1-0.8-0.1-1.8-0.1-3l0.1-1.7c-0.3,0.2-0.7,0.4-1.1,0.6c-0.4,0.1-1,0.2-1.7,0.2h-7L93.1,43.9z
			 M103.4,30.8h5.4c0,0,0,0.1,0,0.1c0,0,0.1,0.1,0.1,0.2l0.5-8L103.4,30.8z"/>
		<path class="st0" d="M116.8,43.4c-0.3-0.1-0.6-0.3-0.8-0.6c-0.2-0.3-0.4-0.7-0.5-1.1c-0.1-0.5,0-1,0.1-1.7
			c0.1-0.7,0.5-1.5,0.9-2.5l9.3-19.6c0.2,0,0.4-0.1,0.6-0.1c0.3,0,0.7,0,1.3,0.1l-0.5-5.1c1-0.8,1.9-1.3,2.7-1.4
			c0.4,0,0.7,0,1.1,0.2c0.4,0.1,0.7,0.4,1,0.8c0.3,0.4,0.6,1,0.8,1.7c0.2,0.7,0.4,1.7,0.5,2.8l1.3,13.9l9.6-20
			c1.3-0.2,2.3-0.2,3,0.2c0.3,0.2,0.6,0.4,0.8,0.7c0.2,0.3,0.4,0.7,0.4,1.3c0,0.5,0,1.2-0.2,2c-0.2,0.8-0.6,1.7-1.1,2.8l-11.4,23.9
			v0.1c-1,1-1.9,1.5-2.7,1.6c-0.4,0.1-0.7,0-1.1-0.1s-0.7-0.4-1-0.8s-0.6-1-0.8-1.8s-0.4-1.7-0.5-2.9l-1.1-12.2l-8.7,18
			C118.6,43.8,117.6,43.7,116.8,43.4z"/>
		<path class="st0" d="M150.9,44.7c-1.8-0.5-3.1-1.4-4-2.6s-1.4-2.6-1.7-4.1c-0.2-1.5-0.3-3.1,0-4.8c0.2-1.7,0.6-3.2,1.1-4.5
			c0.5-1.5,1.2-3,2-4.4s1.7-2.8,2.7-4.1c1-1.3,2.1-2.5,3.3-3.6c1.2-1.1,2.5-2.1,3.9-2.9c1.3-0.8,2.8-1.4,4.4-1.8
			c1.6-0.4,3.1-0.5,4.7-0.3c0.8,0.1,1.4,0.4,2.1,0.7c0.6,0.4,1.1,0.8,1.6,1.4c0.4,0.5,0.7,1.2,0.9,1.8c0.2,0.7,0.2,1.4,0.2,2.2
			c-0.1,1.3-0.5,2.5-1,3.7c-0.5,1.2-1.1,2.3-1.7,3.4c-0.1,0.1-0.4,0.5-0.9,1.1c-0.5,0.6-0.9,1.3-1.4,2c-0.6,0.8-1.2,1.8-2,2.8
			c-0.2,0.1-0.5,0.3-0.9,0.4c-0.4,0.1-0.8,0.2-1.2,0.2c-0.4,0-0.8,0-1.1-0.1c-0.3-0.1-0.6-0.3-0.7-0.7c-0.2-0.4-0.2-0.7-0.2-1.1
			s0.1-0.8,0.3-1.2c0.1-0.4,0.3-0.8,0.5-1.2c0.2-0.4,0.4-0.7,0.5-1c0.4-0.7,0.7-1.5,1.2-2.2s0.9-1.4,1.3-2.2
			c0.4-0.7,0.8-1.5,1.1-2.3c0.3-0.8,0.6-1.5,0.7-2.3c-0.1,0.1-0.3,0.1-0.6,0c-0.3,0-0.5,0-0.6,0c-0.8,0.1-1.5,0.2-2.2,0.5
			c-0.7,0.2-1.3,0.5-2,0.9c-0.6,0.3-1.2,0.7-1.7,1.2c-1.2,0.9-2.2,1.9-3.1,3c-0.9,1.1-1.7,2.3-2.5,3.6c-0.8,1.3-1.5,2.6-2,4
			c-0.6,1.4-0.9,2.9-1.1,4.4c-0.1,0.6-0.1,1.1-0.1,1.7c0,0.6,0.1,1.1,0.3,1.5c0.2,0.5,0.5,0.9,0.8,1.2c0.4,0.3,0.9,0.5,1.6,0.5
			c0.6,0.1,1.2,0,1.8-0.2c0.6-0.2,1.2-0.4,1.8-0.7c0.3-0.2,0.6-0.4,0.9-0.7c0.3-0.3,0.6-0.5,0.9-0.6c0.4-0.1,0.8-0.2,1.3-0.3
			c0.5-0.1,1-0.1,1.4-0.1c0.5,0,0.8,0.1,1.1,0.4c0.3,0.2,0.3,0.7,0.2,1.3c-0.1,0.6-0.3,1.2-0.6,1.7c-0.3,0.5-0.7,1.1-1.1,1.5
			c-0.5,0.5-1,0.9-1.5,1.3c-0.6,0.4-1.1,0.7-1.7,1c-1.1,0.5-2.2,0.8-3.4,0.9C153.2,45.1,152,45,150.9,44.7z"/>
		<path class="st0" d="M165.6,43.6c-0.6-1.1-0.8-2-0.8-2.8c0-0.4,0.1-0.7,0.2-1c0.1-0.3,0.4-0.6,0.7-0.9c0.3-0.3,0.7-0.5,1.3-0.6
			c0.5-0.2,1.2-0.2,2-0.2h1.3c-0.5-0.3-0.8-0.9-0.9-1.6c-0.1-0.8,0.2-1.9,0.9-3.4l7.6-15.9h-2.1c-0.6-1.1-0.8-2-0.8-2.8
			c0-0.4,0.1-0.7,0.2-1c0.1-0.3,0.4-0.6,0.7-0.9c0.3-0.3,0.7-0.5,1.3-0.6s1.2-0.2,2-0.2H197c0.6,1.1,0.9,2,1,2.8
			c0,0.4-0.1,0.7-0.2,1c-0.1,0.3-0.3,0.6-0.7,0.9c-0.3,0.3-0.8,0.5-1.3,0.6c-0.6,0.2-1.3,0.2-2.2,0.2h-10.9c0.2,0.4,0.3,1,0.2,1.6
			s-0.3,1.5-0.8,2.5l-2,4.2h8.1c0.3,1.1,0.4,2,0.4,2.8c0,0.7-0.1,1.3-0.4,1.9c-0.2,0.6-0.8,0.9-1.6,0.9h-8.1
			c-0.1-0.1-0.1-0.3-0.1-0.5c-0.1-0.2-0.1-0.6-0.2-1.2L174,38h12.9c0.6,1.1,0.9,2,1,2.8c0,0.4-0.1,0.7-0.2,1
			c-0.1,0.3-0.3,0.6-0.6,0.9s-0.7,0.5-1.3,0.6c-0.6,0.2-1.3,0.2-2.2,0.2H165.6z"/>
		<path class="st0" d="M192.4,43.4c-0.3-0.1-0.6-0.3-0.8-0.6c-0.2-0.3-0.3-0.7-0.4-1.3c0-0.6,0.1-1.3,0.3-2.1
			c0.2-0.8,0.6-1.9,1.2-3.1l11.6-24.8c0.4-0.1,0.7-0.1,1.1-0.2c0.3,0,0.7,0,1,0c0.4,0,0.7,0.1,1,0.3c0.4,0.1,0.7,0.2,1,0.5
			c0.3,0.2,0.5,0.6,0.7,1.1c0.2,0.5,0.3,1.1,0.4,1.9c0.1,0.8,0,1.7-0.2,2.9l-2,14.4L225.1,10c0.9-0.1,1.7,0,2.3,0.3
			c0.5,0.2,0.9,0.6,1.2,1.1c0.3,0.5,0.2,1.4-0.2,2.5c0,0.5-0.1,1.2-0.3,2c-0.2,0.8-0.6,1.7-1.1,2.8l-11.8,24.6
			c-1.3,0.4-2.4,0.5-3.1,0.2c-0.3-0.1-0.6-0.3-0.8-0.6c-0.2-0.3-0.3-0.7-0.4-1.3c0-0.6,0.1-1.3,0.3-2.1c0.2-0.8,0.6-1.9,1.2-3.1
			l1.8-4l-8.6,10.6l-0.1,0.2c-1.1,0.7-2.1,1.1-2.9,1c-0.4,0-0.7-0.2-1-0.4c-0.3-0.2-0.6-0.6-0.8-1.1c-0.2-0.5-0.3-1.1-0.4-2
			c0-0.8,0-1.9,0.2-3.1l1.2-7.9l-6.4,13.5C194.2,43.7,193.1,43.7,192.4,43.4z"/>
		<path class="st0" d="M221,43.6c-0.6-1.1-0.8-2-0.8-2.8c0-0.4,0.1-0.7,0.2-1c0.1-0.3,0.4-0.6,0.7-0.9c0.3-0.3,0.7-0.5,1.3-0.6
			c0.5-0.2,1.2-0.2,2-0.2h1.3c-0.5-0.3-0.8-0.9-0.9-1.6c-0.1-0.8,0.2-1.9,0.9-3.4l7.6-15.9h-2.1c-0.6-1.1-0.8-2-0.8-2.8
			c0-0.4,0.1-0.7,0.2-1c0.1-0.3,0.4-0.6,0.7-0.9c0.3-0.3,0.7-0.5,1.3-0.6c0.5-0.2,1.2-0.2,2-0.2h17.9c0.6,1.1,0.9,2,1,2.8
			c0,0.4-0.1,0.7-0.2,1c-0.1,0.3-0.3,0.6-0.7,0.9c-0.3,0.3-0.8,0.5-1.3,0.6c-0.6,0.2-1.3,0.2-2.2,0.2h-10.9c0.2,0.4,0.3,1,0.2,1.6
			s-0.3,1.5-0.8,2.5l-2,4.2h8.1c0.3,1.1,0.4,2,0.4,2.8c0,0.7-0.1,1.3-0.4,1.9c-0.2,0.6-0.8,0.9-1.6,0.9H234
			c-0.1-0.1-0.1-0.3-0.1-0.5c-0.1-0.2-0.1-0.6-0.2-1.2l-4.3,8.7h12.9c0.6,1.1,0.9,2,1,2.8c0,0.4-0.1,0.7-0.2,1
			c-0.1,0.3-0.3,0.6-0.6,0.9c-0.3,0.3-0.7,0.5-1.3,0.6c-0.6,0.2-1.3,0.2-2.2,0.2H221z"/>
		<path class="st0" d="M247.9,43.4c-0.3-0.1-0.6-0.3-0.8-0.6c-0.2-0.3-0.4-0.7-0.5-1.1c-0.1-0.5,0-1,0.1-1.7
			c0.1-0.7,0.5-1.5,0.9-2.5l9.3-19.6c0.2,0,0.4-0.1,0.6-0.1c0.3,0,0.7,0,1.3,0.1l-0.5-5.1c1-0.8,1.9-1.3,2.7-1.4
			c0.4,0,0.7,0,1.1,0.2c0.4,0.1,0.7,0.4,1,0.8c0.3,0.4,0.6,1,0.8,1.7c0.2,0.7,0.4,1.7,0.5,2.8l1.3,13.9l9.6-20
			c1.3-0.2,2.3-0.2,3,0.2c0.3,0.2,0.6,0.4,0.8,0.7c0.2,0.3,0.4,0.7,0.4,1.3c0,0.5,0,1.2-0.2,2c-0.2,0.8-0.6,1.7-1.1,2.8l-11.4,23.9
			v0.1c-1,1-1.9,1.5-2.7,1.6c-0.4,0.1-0.7,0-1.1-0.1c-0.4-0.1-0.7-0.4-1-0.8c-0.3-0.4-0.6-1-0.8-1.8c-0.2-0.8-0.4-1.7-0.5-2.9
			l-1.1-12.2l-8.7,18C249.7,43.8,248.7,43.7,247.9,43.4z"/>
		<path class="st0" d="M279.5,43.4c-0.3-0.1-0.6-0.3-0.8-0.6c-0.2-0.3-0.4-0.7-0.4-1.2c-0.1-0.5,0-1.1,0.2-1.9s0.5-1.6,1-2.7l9.7-20
			h-8.7c-0.6-1.1-0.9-2-0.9-2.8c0-0.4,0.1-0.7,0.2-1c0.1-0.3,0.4-0.6,0.8-0.9c0.4-0.3,0.8-0.5,1.4-0.6s1.4-0.2,2.3-0.2h20.1
			c0.7,1.1,1.1,2,1.1,2.8c0,0.4-0.1,0.7-0.2,1c-0.1,0.3-0.4,0.6-0.7,0.9c-0.4,0.3-0.8,0.5-1.5,0.6c-0.6,0.2-1.4,0.2-2.4,0.2h-6.9
			c0.2,0.5,0.3,1.1,0.2,1.9s-0.4,1.8-1,3.1l-10.3,21.3C281.2,43.7,280.2,43.7,279.5,43.4z"/>
		<path class="st0" d="M311.5,43.6c-0.6-1.1-0.8-2-0.8-2.8c0-0.4,0.1-0.7,0.2-1c0.1-0.3,0.4-0.6,0.7-0.9c0.3-0.3,0.7-0.5,1.3-0.6
			c0.5-0.2,1.2-0.2,2-0.2h1.3c-0.5-0.3-0.8-0.9-0.9-1.6c-0.1-0.8,0.2-1.9,0.9-3.4l7.6-15.9h-2.1c-0.6-1.1-0.8-2-0.8-2.8
			c0-0.4,0.1-0.7,0.2-1c0.1-0.3,0.4-0.6,0.7-0.9c0.3-0.3,0.7-0.5,1.3-0.6c0.5-0.2,1.2-0.2,2-0.2h17.9c0.6,1.1,0.9,2,1,2.8
			c0,0.4-0.1,0.7-0.2,1c-0.1,0.3-0.3,0.6-0.7,0.9c-0.3,0.3-0.8,0.5-1.3,0.6c-0.6,0.2-1.3,0.2-2.2,0.2h-10.9c0.2,0.4,0.3,1,0.2,1.6
			s-0.3,1.5-0.8,2.5l-2,4.2h8.1c0.3,1.1,0.4,2,0.4,2.8c0,0.7-0.1,1.3-0.4,1.9c-0.2,0.6-0.8,0.9-1.6,0.9h-8.1
			c-0.1-0.1-0.1-0.3-0.1-0.5c-0.1-0.2-0.1-0.6-0.2-1.2l-4.3,8.7h12.9c0.6,1.1,0.9,2,1,2.8c0,0.4-0.1,0.7-0.2,1
			c-0.1,0.3-0.3,0.6-0.6,0.9c-0.3,0.3-0.7,0.5-1.3,0.6c-0.6,0.2-1.3,0.2-2.2,0.2H311.5z"/>
		<path class="st0" d="M338.4,43.4c-0.3-0.1-0.6-0.3-0.8-0.6c-0.2-0.3-0.4-0.7-0.5-1.1c-0.1-0.5,0-1,0.1-1.7
			c0.1-0.7,0.5-1.5,0.9-2.5l9.3-19.6c0.2,0,0.4-0.1,0.6-0.1c0.3,0,0.7,0,1.3,0.1l-0.5-5.1c1-0.8,1.9-1.3,2.7-1.4
			c0.4,0,0.7,0,1.1,0.2c0.4,0.1,0.7,0.4,1,0.8c0.3,0.4,0.6,1,0.8,1.7c0.2,0.7,0.4,1.7,0.5,2.8l1.3,13.9l9.6-20
			c1.3-0.2,2.3-0.2,3,0.2c0.3,0.2,0.6,0.4,0.8,0.7c0.2,0.3,0.4,0.7,0.4,1.3c0,0.5,0,1.2-0.2,2c-0.2,0.8-0.6,1.7-1.1,2.8l-11.4,23.9
			v0.1c-1,1-1.9,1.5-2.7,1.6c-0.4,0.1-0.7,0-1.1-0.1c-0.4-0.1-0.7-0.4-1-0.8c-0.3-0.4-0.6-1-0.8-1.8c-0.2-0.8-0.4-1.7-0.5-2.9
			l-1.1-12.2l-8.7,18C340.2,43.8,339.2,43.7,338.4,43.4z"/>
	</g>
	<g>
		<path class="st0" d="M218.8,195c-0.7-1.5-1.1-2.8-1.2-3.9c0-0.5,0.1-1,0.2-1.4c0.1-0.5,0.4-0.9,0.8-1.3c0.4-0.4,0.9-0.7,1.6-1
			c0.7-0.3,1.5-0.4,2.6-0.5c-0.1-0.4-0.1-1,0-1.6c0.2-0.9,0.7-1.7,1.4-2.4s1.5-1.3,2.2-1.8c0.8-0.7,1.6-1.2,2.5-1.8
			c0.9-0.5,1.8-1,2.7-1.6c2-1.1,3.9-2.3,5.9-3.4c1.9-1.1,3.8-2.4,5.7-3.8c1.6-1.1,3.2-2.5,4.7-4.1c1.5-1.6,2.4-3.4,2.9-5.5
			c0.1-1,0-1.9-0.3-2.9c-0.3-1-0.9-1.7-1.9-2.1c-0.7-0.3-1.4-0.5-2.1-0.5c-0.7,0-1.4,0.1-2.1,0.2c-1.1,0.1-2.2,0.5-3.1,1
			c-1,0.6-1.7,1.4-2.4,2.4c0,0.1-0.1,0.4-0.3,0.9c-0.2,0.5-0.3,1-0.5,1.6c-0.2,0.5-0.3,1-0.3,1.5c0,0.5,0,0.7,0.2,0.7
			c-0.3,0.3-0.7,0.8-1.2,1.2c-0.4,0.5-0.9,0.9-1.4,1.2c-0.5,0.3-1,0.5-1.5,0.6c-0.5,0.1-1-0.1-1.5-0.6c-0.6-0.5-1.1-1.1-1.4-1.9
			c-0.3-0.7-0.5-1.5-0.6-2.3c-0.1-0.8-0.1-1.6,0-2.5c0.1-0.8,0.3-1.6,0.5-2.3c0.5-1.7,1.3-3.3,2.4-4.6c1.1-1.3,2.3-2.4,3.8-3.2
			c1.4-0.9,3-1.5,4.7-1.9c1.7-0.4,3.4-0.5,5.2-0.5c1.8,0.1,3.5,0.5,5.1,1.2c1.5,0.7,2.9,1.7,3.9,3c1.1,1.3,1.9,2.7,2.4,4.4
			s0.8,3.4,0.6,5.2c-0.1,1.8-0.5,3.5-1.2,5.1c-0.7,1.6-1.5,3.1-2.6,4.5c-1,1.4-2.2,2.7-3.5,3.9c-1.3,1.2-2.6,2.3-3.9,3.2
			c-2,1.4-4,2.8-6,3.9c-2.1,1.2-4.1,2.3-6.2,3.4l-3.2,1.8h18.2c0.9,1.6,1.3,3,1.4,4.2c0,0.5-0.1,1-0.3,1.5c-0.2,0.5-0.5,0.9-1,1.3
			c-0.5,0.4-1.1,0.7-2,0.9c-0.8,0.2-1.9,0.4-3.2,0.4H218.8z"/>
		<path class="st0" d="M271.5,194.5c-2.2,0.1-4.2-0.3-6.1-1.3c-1.9-1-3.4-2.5-4.5-4.5c-1.1-2.2-1.7-4.5-1.7-7.1c0-2.5,0.2-5,0.8-7.3
			c0.5-2.2,1.2-4.4,2.1-6.6c0.9-2.2,2-4.3,3.2-6.4c1.2-2,2.6-3.9,4.2-5.7c1.5-1.7,3.2-3.3,5.1-4.7c0.9-0.7,1.9-1.4,2.9-2
			c1-0.6,2.1-1.1,3.2-1.6c0.3-0.1,0.6-0.2,0.9-0.4c0.4-0.2,0.8-0.3,1.1-0.5c0.4-0.1,0.8-0.2,1.1-0.4c0.4-0.1,0.7-0.1,1-0.1
			c0.9,0.2,1.8,0.5,2.8,0.9c1,0.4,1.7,1.1,2.1,2c0.3,0.4,0.3,0.8,0.2,1.2c-0.1,0.4-0.3,0.7-0.6,1c-0.3,0.3-0.6,0.5-1,0.8
			c-0.4,0.2-0.7,0.4-1,0.6c-1.7,1-3.4,2-5.1,3c-1.6,1-3.2,2.2-4.6,3.6c-3.2,3.1-5.6,6.5-7.3,10.4c-0.5,1-0.9,2.2-1.3,3.3
			c-0.4,1.2-0.8,2.3-1,3.5c-0.3,1.2-0.4,2.4-0.5,3.6c0,1.2,0.1,2.4,0.4,3.5c0.3,1.4,0.9,2.2,1.7,2.5c0.9,0.3,1.8,0.3,2.8,0
			c1-0.3,2-0.8,3-1.4c1-0.7,1.8-1.3,2.4-1.9c1.7-1.7,3.3-3.5,4.6-5.6c1.3-2.1,2.3-4.3,3.1-6.6c0.3-1,0.6-2.1,0.9-3.2
			c0.2-1.1,0.3-2.2,0.3-3.3c0-0.4,0-0.9,0-1.3c0-0.5-0.1-0.9-0.3-1.4c0-0.1-0.1-0.2-0.2-0.4c-0.1-0.2-0.2-0.4-0.3-0.6
			c-0.1-0.2-0.3-0.5-0.4-0.9c0.1-0.7,0.2-1.4,0.3-2c0.1-0.5,0.2-1,0.2-1.5c0-0.5,0.1-0.7,0.1-0.8c0.2-0.7,0.6-1,1.2-1.2
			c0.6-0.1,1.2-0.1,1.8,0.1c1,0.3,1.9,0.9,2.6,1.7c0.7,0.8,1.3,1.6,1.8,2.6c0.5,1,0.8,2,1,3.1c0.2,1.1,0.3,2.1,0.3,3.1
			c0.1,2.2-0.1,4.3-0.7,6.4c-0.5,2.1-1.3,4.1-2.2,6.1c-0.9,2-2,4-3.4,6.1c-1.3,2.1-2.9,3.9-4.6,5.6c-1.7,1.7-3.6,3-5.7,4.1
			C276.1,193.8,273.8,194.4,271.5,194.5z"/>
		<path class="st0" d="M299.7,192.2c-0.5-0.2-0.9-0.6-1.2-1c-0.4-0.5-0.6-1.1-0.6-1.9c-0.1-0.8,0.1-1.8,0.4-3
			c0.3-1.2,0.9-2.7,1.7-4.5l10.2-21.2l-6.5,4c-1.4-1-2.4-2-3.1-3c-0.3-0.4-0.5-0.9-0.7-1.4s-0.2-1-0.2-1.4s0.3-1,0.6-1.5
			c0.3-0.5,0.9-1,1.6-1.5l15.1-9.6c1.9-0.3,3.4-0.3,4.5,0.3c0.4,0.3,0.8,0.6,1.2,1.1c0.3,0.5,0.6,1.1,0.6,1.9s0,1.8-0.3,2.9
			c-0.3,1.2-0.8,2.6-1.6,4.2l-17,35.6C302.4,192.7,300.9,192.7,299.7,192.2z"/>
		<path class="st0" d="M317.9,182.4c0-0.2,0.1-0.4,0.3-0.6c0.2-0.2,0.5-0.4,0.8-0.5c0.3-0.2,0.6-0.3,0.9-0.4
			c0.3-0.1,0.5-0.2,0.7-0.3c0.5-0.1,1-0.1,1.5,0c0.5,0.1,0.9,0.3,1.3,0.7c0.7,0.5,1.3,1.2,1.7,1.9c0.4,0.7,1,1.4,1.7,2
			c0.8,0.6,1.7,1,2.7,1.2c1,0.2,1.9,0.3,2.9,0.2s2-0.3,3-0.6c1-0.3,1.9-0.7,2.8-1.1c0.7-0.3,1.5-0.7,2.5-1.3c1-0.6,1.9-1.3,2.7-2.1
			s1.3-1.6,1.5-2.5c0.2-0.9-0.2-1.7-1.2-2.6c-1-0.8-2.1-1.3-3.4-1.3c-1.2-0.1-2.5-0.1-3.7-0.1h-3.9c-0.2,0-0.4,0-0.6,0.1
			c-0.2,0-0.4,0-0.6-0.1v0.1c-1.7-0.3-3.1-0.9-4.1-1.6c-0.4-0.3-0.8-0.7-1.1-1c-0.3-0.4-0.5-0.9-0.7-1.4c-0.1-0.5-0.1-1.1,0.1-1.8
			c0.2-0.7,0.6-1.4,1.2-2.2l8.5-11.9h-2c-0.7-1.5-1-2.9-0.9-4.1c0-0.5,0.1-1,0.2-1.5c0.2-0.5,0.4-1,0.8-1.3c0.4-0.4,0.9-0.7,1.5-1
			c0.6-0.2,1.5-0.4,2.5-0.4h21.4c0.7,1.6,1.1,3,1.2,4.2c0,1-0.3,2-1,2.8c-0.7,0.9-2,1.3-4.1,1.3h-10.8c0.1,1-0.3,2.2-1.2,3.6
			l-5.5,7.8c1.6,0,3.2,0.1,4.9,0.4c1.6,0.3,3.2,0.8,4.6,1.6c1.4,0.8,2.6,1.8,3.7,3c1,1.2,1.8,2.7,2.2,4.4c0.6,2.4,0.4,4.7-0.5,6.7
			c-0.9,2.1-2.3,3.8-4,5.4c-1.7,1.5-3.7,2.8-6,3.8s-4.3,1.8-6.3,2.2c-2.3,0.6-4.7,0.8-7,0.6c-2.4-0.2-4.5-1-6.5-2.4
			c-1.9-1.3-3.3-3.1-4.2-5.4c0-0.1,0-0.4-0.1-0.9s-0.1-1-0.2-1.6c-0.1-0.6-0.2-1.1-0.2-1.5C317.8,182.6,317.8,182.4,317.9,182.4z"/>
	</g>
	<path class="st0" d="M61.4,216.4c0,0,336.5-21.3,338.3-7c1.8,14.2-190.7,10.2-232.8,9.3C124.8,217.7,60.4,223.3,61.4,216.4z"/>
	<g>
		<path class="st0" d="M55.5,125.6c-0.7-0.2-1.2-0.7-1.7-1.2c-0.5-0.6-0.8-1.4-0.9-2.4c-0.1-1,0-2.3,0.4-3.8s1-3.3,2-5.5l19.3-40.3
			h-4.3c-1.1-2.1-1.7-4-1.6-5.7c0-0.7,0.1-1.4,0.4-2.1c0.3-0.7,0.7-1.3,1.3-1.8c0.6-0.5,1.5-1,2.6-1.3c1.1-0.3,2.5-0.5,4.1-0.5h36.1
			c1.2,2.1,1.8,4,1.9,5.7c0,0.7-0.1,1.4-0.4,2.1c-0.2,0.7-0.7,1.3-1.3,1.8c-0.7,0.5-1.5,1-2.7,1.3c-1.1,0.3-2.6,0.5-4.3,0.5H84.2
			c0.4,1,0.5,2.3,0.3,3.9c-0.2,1.6-1,3.7-2.3,6.2l-3.1,6.6h16.4c0.6,2.1,0.9,4,0.9,5.7c0,1.4-0.3,2.7-0.8,3.9
			c-0.5,1.2-1.6,1.8-3.3,1.8H76.1c-0.1-0.3-0.2-0.6-0.3-1c-0.1-0.5-0.2-1.3-0.4-2.4l-13.6,28.5C59.2,126.3,57.1,126.3,55.5,125.6z"
			/>
		<path class="st0" d="M97.8,126.1c-1.1-2.1-1.7-4-1.6-5.7c0-0.7,0.1-1.4,0.4-2.1c0.3-0.7,0.7-1.3,1.3-1.8c0.6-0.5,1.5-1,2.6-1.3
			c1.1-0.3,2.5-0.5,4.1-0.5h2.6c-1-0.6-1.6-1.8-1.8-3.3c-0.2-1.6,0.4-3.8,1.8-6.8l15.3-32.2h-4.3c-1.1-2.1-1.7-4-1.6-5.7
			c0-0.7,0.1-1.4,0.4-2.1c0.3-0.7,0.7-1.3,1.3-1.8c0.6-0.5,1.5-1,2.6-1.3c1.1-0.3,2.5-0.5,4.1-0.5h36.1c1.2,2.1,1.9,4,1.9,5.7
			c0,0.7-0.1,1.4-0.4,2.1c-0.2,0.7-0.7,1.3-1.3,1.8c-0.7,0.5-1.6,1-2.7,1.3c-1.2,0.3-2.6,0.5-4.4,0.5h-22.1c0.4,0.9,0.6,2,0.5,3.3
			c-0.1,1.3-0.6,3-1.6,5.1l-4.1,8.4h16.4c0.5,2.1,0.8,4,0.9,5.7c0,1.4-0.3,2.7-0.8,3.9c-0.5,1.2-1.6,1.8-3.2,1.8H124
			c-0.1-0.3-0.2-0.6-0.3-1c-0.1-0.5-0.2-1.3-0.4-2.4l-8.6,17.5h26c1.2,2.1,1.9,4,2,5.7c0,0.7-0.1,1.4-0.4,2.1
			c-0.2,0.7-0.7,1.3-1.3,1.8c-0.6,0.5-1.5,1-2.6,1.3c-1.1,0.3-2.6,0.5-4.3,0.5H97.8z"/>
		<path class="st0" d="M161.3,124.8c-0.7-0.1-1.4-0.3-2-0.7c-0.6-0.4-1.2-1.1-1.6-2c-0.4-0.9-0.8-2.1-0.9-3.6
			c-0.2-1.5-0.1-3.4,0.1-5.7l4.9-49.3c2.2-1.5,4.1-2.2,5.8-2.1c0.7,0.1,1.4,0.3,2,0.7c0.6,0.4,1.2,1,1.6,2c0.4,0.9,0.8,2.2,1,3.8
			c0.2,1.6,0.2,3.6,0,6L169.7,98l26.5-37c2.8-0.3,4.9,0,6.3,0.9c0.6,0.4,1.1,1,1.4,1.6c0.4,0.7,0.5,1.6,0.3,2.7
			c-0.1,1.1-0.6,2.5-1.3,4.1c-0.7,1.6-1.9,3.5-3.4,5.7l-32.2,44.5l-0.2,2.7C164.8,124.5,162.9,125,161.3,124.8z"/>
		<path class="st0" d="M199,125.6c-2.6,0.6-4.7,0.6-6.2,0c-0.7-0.2-1.2-0.7-1.7-1.2c-0.5-0.6-0.8-1.4-0.8-2.4c-0.1-1,0-2.3,0.4-3.8
			s1.1-3.3,2.1-5.5l19.3-40.3h-5.5c-0.8-0.8-1.6-1.7-2.2-2.9c-0.7-1.2-0.8-2.4-0.5-3.5c0.4-1.4,1.2-2.5,2.6-3.1
			c1.4-0.7,2.9-1.2,4.6-1.4c1.7-0.3,3.4-0.4,5.1-0.4c1.7,0,3.1,0,4.1,0c1.7,0,3.3,0,5.1-0.1c1.7-0.1,3.4,0,5.1,0.1
			c1.7,0.1,3.3,0.4,4.9,0.8c1.6,0.4,3.1,1,4.6,2c2.5,1.5,4.5,3.5,6,6.1c1.5,2.6,2.2,5.4,2.2,8.3c-0.1,2.8-0.9,5.5-2.4,8.1
			c-1.5,2.5-3.4,4.7-5.8,6.4c-2.4,1.7-4.9,2.9-7.7,3.8c-2.8,0.9-5.6,1.5-8.4,1.8l10.5,23.7c-1.5,1.7-3,2.9-4.5,3.6
			c-1.3,0.6-2.7,0.8-4.1,0.5c-1.4-0.3-2.7-1.7-3.8-4.1l-10.2-22.7L199,125.6z M221.4,72.5c0.5,1,0.6,2.3,0.4,3.9
			c-0.2,1.6-0.9,3.7-2.2,6.2l-3.1,6.5c0.5-0.2,0.9-0.4,1.3-0.5c0.4-0.1,0.8-0.2,1.2-0.3c1.2-0.4,2.5-0.7,3.9-1
			c1.4-0.2,2.7-0.6,4.1-1c0.9-0.2,2-0.6,3.2-1.1c1.2-0.5,2.3-1.2,3.4-2c1-0.8,1.8-1.7,2.4-2.7c0.6-1,0.8-2.2,0.5-3.6
			c-0.3-1.5-1-2.5-2.2-3.2c-1.2-0.6-2.5-1.1-4.1-1.2c-1.5-0.2-3.1-0.2-4.7-0.1c-1.6,0.1-3,0.1-4.1,0.1H221.4z"/>
		<path class="st0" d="M244,125.6c-0.7-0.2-1.2-0.7-1.6-1.3c-0.4-0.6-0.7-1.5-0.8-2.7s0.2-2.6,0.7-4.3c0.5-1.7,1.3-3.8,2.5-6.3
			l24-50.3c2.6-0.5,4.6-0.4,6.1,0.4c0.6,0.4,1.1,0.9,1.6,1.5c0.4,0.7,0.7,1.5,0.8,2.6c0.1,1.1-0.1,2.5-0.6,4.1s-1.2,3.6-2.3,5.9
			l-23.9,50.1C247.7,126.1,245.6,126.2,244,125.6z"/>
		<path class="st0" d="M262.9,126.1c-1.1-2.1-1.7-4-1.6-5.7c0-0.7,0.1-1.4,0.4-2.1c0.3-0.7,0.7-1.3,1.3-1.8c0.6-0.5,1.5-1,2.6-1.3
			c1.1-0.3,2.5-0.5,4.1-0.5h2.6c-1-0.6-1.6-1.8-1.8-3.3c-0.2-1.6,0.4-3.8,1.8-6.8l15.3-32.2h-4.3c-1.1-2.1-1.7-4-1.6-5.7
			c0-0.7,0.1-1.4,0.4-2.1c0.3-0.7,0.7-1.3,1.3-1.8c0.6-0.5,1.5-1,2.6-1.3c1.1-0.3,2.5-0.5,4.1-0.5h36.1c1.2,2.1,1.9,4,1.9,5.7
			c0,0.7-0.1,1.4-0.4,2.1c-0.2,0.7-0.7,1.3-1.3,1.8c-0.7,0.5-1.6,1-2.7,1.3c-1.2,0.3-2.6,0.5-4.4,0.5h-22.1c0.4,0.9,0.6,2,0.5,3.3
			c-0.1,1.3-0.6,3-1.6,5.1l-4.1,8.4h16.4c0.5,2.1,0.8,4,0.9,5.7c0,1.4-0.3,2.7-0.8,3.9c-0.5,1.2-1.6,1.8-3.2,1.8h-16.4
			c-0.1-0.3-0.2-0.6-0.3-1c-0.1-0.5-0.2-1.3-0.4-2.4l-8.6,17.5h26c1.2,2.1,1.9,4,2,5.7c0,0.7-0.1,1.4-0.4,2.1
			c-0.2,0.7-0.7,1.3-1.3,1.8c-0.6,0.5-1.5,1-2.6,1.3c-1.1,0.3-2.6,0.5-4.3,0.5H262.9z"/>
		<path class="st0" d="M323.2,125.6c-2.6,0.6-4.7,0.6-6.2,0c-0.7-0.2-1.2-0.7-1.7-1.2c-0.5-0.6-0.8-1.4-0.8-2.4
			c-0.1-1,0-2.3,0.4-3.8s1.1-3.3,2.1-5.5l19.3-40.3h-5.5c-0.8-0.8-1.6-1.7-2.2-2.9c-0.7-1.2-0.8-2.4-0.5-3.5
			c0.4-1.4,1.2-2.5,2.6-3.1c1.4-0.7,2.9-1.2,4.6-1.4c1.7-0.3,3.4-0.4,5.1-0.4c1.7,0,3.1,0,4.1,0c1.7,0,3.3,0,5.1-0.1
			c1.7-0.1,3.4,0,5.1,0.1c1.7,0.1,3.3,0.4,4.9,0.8c1.6,0.4,3.1,1,4.6,2c2.5,1.5,4.5,3.5,6,6.1c1.5,2.6,2.2,5.4,2.2,8.3
			c-0.1,2.8-0.9,5.5-2.4,8.1c-1.5,2.5-3.4,4.7-5.8,6.4c-2.4,1.7-4.9,2.9-7.7,3.8c-2.8,0.9-5.6,1.5-8.4,1.8l10.5,23.7
			c-1.5,1.7-3,2.9-4.5,3.6c-1.3,0.6-2.7,0.8-4.1,0.5c-1.4-0.3-2.7-1.7-3.8-4.1l-10.2-22.7L323.2,125.6z M345.6,72.5
			c0.5,1,0.6,2.3,0.4,3.9c-0.2,1.6-0.9,3.7-2.2,6.2l-3.1,6.5c0.5-0.2,0.9-0.4,1.3-0.5c0.4-0.1,0.8-0.2,1.2-0.3
			c1.2-0.4,2.5-0.7,3.9-1c1.4-0.2,2.7-0.6,4.1-1c0.9-0.2,2-0.6,3.2-1.1c1.2-0.5,2.3-1.2,3.4-2c1-0.8,1.8-1.7,2.4-2.7
			c0.6-1,0.8-2.2,0.5-3.6c-0.3-1.5-1-2.5-2.2-3.2c-1.2-0.6-2.5-1.1-4.1-1.2c-1.5-0.2-3.1-0.2-4.7-0.1c-1.6,0.1-3,0.1-4.1,0.1H345.6z
			"/>
	</g>
	<g>
		<g>
			<g>
				<path class="st0" d="M6.5,49.4c-2.3-1.6-3.4-3.3-3.5-4.8c0-1.6,0.6-3.1,1.8-4.6c1.3-1.4,2.9-2.8,5-4.1c2.1-1.3,4-2.5,5.9-3.6
					L3.7,33.1c-1.4-0.3-2.4-1-3-2c-0.6-1-0.9-2-0.7-3c0.1-1,0.5-2,1.2-2.8C2,24.6,2.8,24.2,4,24.2h10.5L4.4,12.5
					C3.7,11.3,3.5,10.1,3.8,9C4.1,8,4.7,7.1,5.5,6.5c0.8-0.6,1.8-0.9,2.9-1c1.1,0,2,0.4,2.8,1.3l8.5,13L22,3.9
					c0.2-1.1,0.8-1.9,1.8-2.7c1-0.7,2-1.1,3.2-1.2c1.1-0.1,2.3,0.2,3.3,0.8c1.1,0.6,1.8,1.7,2.1,3.1l-2.7,17L39.7,5
					c0.9-0.5,2-0.7,3.1-0.4c1.2,0.3,2.2,0.8,3.1,1.6c0.9,0.9,1.5,1.8,1.7,3c0.3,1.2-0.1,2.3-1,3.5L35.6,25.4l14.7-1
					c2.4,2.5,3.6,4.2,3.5,5.4c-0.2,1.1-1.1,1.9-3,2.2c-1.8,0.3-4.4,0.4-7.5,0.3c-3.2-0.1-6.6-0.1-10.4,0c1.1,0.9,2.5,1.8,3.9,2.9
					c1.4,1.1,2.8,2.1,4.1,3.2c1.3,1.1,2.5,2,3.5,2.9c1,0.8,1.7,1.5,2.1,1.9c-1.4,2.6-2.9,4.1-4.6,4.6c-1.7,0.5-3.4,0.3-5.1-0.6
					c-1.7-0.8-3.4-2-5-3.5c-1.6-1.5-3-2.9-4.1-4.1c-0.2,3-0.6,5.9-1,9.1c-0.5,3.1-1.2,6-2.4,8.8c-2.8,0.7-4.7,0.5-5.7-0.5
					c-1-0.9-1.5-2.3-1.4-4c0-1.7,0.4-3.8,1.1-6.1c0.6-2.3,1.2-4.4,1.7-6.5c-0.8,0.6-1.8,1.4-3,2.2c-1.1,0.8-2.4,1.7-3.6,2.6
					c-1.2,0.9-2.4,1.7-3.6,2.5C8.5,48.5,7.4,49.1,6.5,49.4z"/>
			</g>
		</g>
	</g>
</g>
<g>
</g>
<g>
</g>
<g>
</g>
<g>
</g>
<g>
</g>
<g>
</g>
<g>
</g>
<g>
</g>
<g>
</g>
<g>
</g>
<g>
</g>
<g>
</g>
<g>
</g>
<g>
</g>
<g>
</g>
</svg>
