<?xml version="1.0" encoding="utf-8"?>
<!-- Generator: Adobe Illustrator 18.0.0, SVG Export Plug-In . SVG Version: 6.00 Build 0)  -->
<!DOCTYPE svg PUBLIC "-//W3C//DTD SVG 1.1//EN" "http://www.w3.org/Graphics/SVG/1.1/DTD/svg11.dtd">
<svg version="1.1" id="Layer_1" xmlns="http://www.w3.org/2000/svg" xmlns:xlink="http://www.w3.org/1999/xlink" x="0px" y="0px"
	 viewBox="0 0 874.4 87.1" enable-background="new 0 0 874.4 87.1" xml:space="preserve">
<g>
	<polygon fill="#FFFFFF" points="20.2,65.1 0,65.1 0,22.7 7.5,22.7 7.5,58.3 20.2,58.3 	"/>
	<polygon fill="#FFFFFF" points="44.8,65.1 24.6,65.1 24.6,22.7 44.8,22.6 45,30.2 32.1,30.2 32.1,38.9 44.1,38.9 44.1,46.3 
		32.1,46.3 32.1,57.3 45,57.3 	"/>
	<polygon fill="#FFFFFF" points="90.8,65.3 83.2,65.3 83.1,42.4 70,56.1 56.9,42.4 56.9,65.3 48.9,65.3 48.9,21 69.8,44.7 
		90.8,21.2 	"/>
	<g>
		<path fill="#FFFFFF" d="M140.1,43.8c0,6.2-2.3,11.4-6.9,15.8c-4.6,4.3-10,6.5-16.2,6.5c-6.3,0-11.7-2.1-16.2-6.4
			c-4.5-4.3-6.8-9.5-6.8-15.8c0-6.2,2.3-11.5,6.9-15.8c4.5-4.2,9.9-6.3,16.1-6.3c6.2,0,11.6,2.1,16.2,6.3
			C137.8,32.4,140.1,37.7,140.1,43.8 M131.9,43.8c0-4.1-1.5-7.5-4.3-10.3c-2.9-2.8-6.4-4.2-10.5-4.2c-4.1,0-7.6,1.4-10.5,4.2
			c-2.9,2.8-4.3,6.2-4.3,10.3c0,4,1.5,7.5,4.4,10.3c2.9,2.8,6.4,4.2,10.5,4.2c4,0,7.5-1.4,10.5-4.2
			C130.4,51.3,131.9,47.9,131.9,43.8"/>
		<polygon fill="#FFFFFF" points="175.8,65.8 151.3,41.2 151.3,65.5 143,65.5 143,21.2 167.3,45.6 167.3,22.2 175.8,22.2 		"/>
		<path fill="#FFFFFF" d="M0.8,16.9H0.2v-5.1h0.7c1.6,0,2,0.5,2,1.5c0,1.1-0.8,1.5-1.8,1.5H0.8V16.9z M0.8,14.2H1
			c0.6,0,1.3-0.1,1.3-0.9c0-0.8-0.8-0.9-1.4-0.9H0.8V14.2z"/>
		<path fill="#FFFFFF" d="M13.3,16.9h-0.8L11,14.7h-0.3v2.1h-0.6v-5.1h0.8c0.5,0,0.9,0,1.3,0.2c0.4,0.3,0.7,0.7,0.7,1.2
			c0,0.7-0.5,1.3-1.2,1.4L13.3,16.9z M10.8,14.2h0.2c0.6,0,1.3-0.1,1.3-0.9c0-0.8-0.7-0.9-1.4-0.9h-0.2V14.2z"/>
		<polygon fill="#FFFFFF" points="19.8,11.8 22.5,11.8 22.5,12.4 20.4,12.4 20.4,13.8 22.4,13.8 22.4,14.4 20.4,14.4 20.4,16.3 
			22.5,16.3 22.5,16.9 19.8,16.9 		"/>
		<polygon fill="#FFFFFF" points="29.8,11.6 33.6,15.5 33.6,11.8 34.2,11.8 34.2,17.1 30.4,13.1 30.4,16.9 29.8,16.9 		"/>
		<path fill="#FFFFFF" d="M44,12.8c-0.2-0.3-0.4-0.5-0.8-0.5c-0.4,0-0.8,0.3-0.8,0.7c0,0.4,0.4,0.6,0.7,0.7l0.4,0.1
			c0.7,0.3,1.3,0.7,1.3,1.5c0,0.9-0.7,1.6-1.6,1.6c-0.8,0-1.5-0.6-1.6-1.4l0.6-0.1c0,0.6,0.4,1,1,1c0.5,0,0.9-0.5,0.9-1
			c0-0.6-0.4-0.8-0.9-1l-0.3-0.1c-0.6-0.2-1.1-0.6-1.1-1.3c0-0.8,0.7-1.3,1.5-1.3c0.6,0,1,0.3,1.3,0.8L44,12.8z"/>
		<path fill="#FFFFFF" d="M52.6,15.6l-0.6,1.3h-0.7l2.4-5.3l2.4,5.3h-0.7L55,15.6H52.6z M53.8,13L52.9,15h1.8L53.8,13z"/>
		<path fill="#FFFFFF" d="M72.3,16.2c-0.4,0.5-0.9,0.8-1.5,0.8c-0.8,0-1.6-0.6-1.6-1.5c0-0.7,0.4-1,0.9-1.3l0.3-0.2
			c-0.3-0.3-0.6-0.7-0.6-1.1c0-0.7,0.5-1.1,1.2-1.1c0.6,0,1.2,0.4,1.2,1.1c0,0.6-0.5,0.9-0.9,1.3l1.1,1.3l0.6-0.7l0.4,0.4l-0.6,0.7
			l0.9,1.1h-0.8L72.3,16.2z M70.7,14.4c-0.4,0.3-0.9,0.6-0.9,1.1c0,0.5,0.5,0.9,1,0.9c0.5,0,0.8-0.4,1.2-0.7L70.7,14.4L70.7,14.4z
			 M71,13.5c0.3-0.2,0.6-0.4,0.6-0.8c0-0.4-0.3-0.6-0.6-0.6c-0.3,0-0.6,0.2-0.6,0.5c0,0.3,0.1,0.4,0.3,0.6L71,13.5L71,13.5z"/>
		<polygon fill="#FFFFFF" points="86.8,13.5 86.8,13.5 86.2,16.9 85.5,16.9 86.6,11.6 88.3,15.6 90.1,11.6 91.1,16.9 90.5,16.9 
			89.9,13.5 89.8,13.5 88.3,17 		"/>
		<path fill="#FFFFFF" d="M99,15.6l-0.6,1.3h-0.7l2.4-5.3l2.4,5.3h-0.7l-0.6-1.3H99z M100.1,13L99.2,15h1.8L100.1,13z"/>
		<path fill="#FFFFFF" d="M112.7,16.9H112l-1.5-2.1h-0.3v2.1h-0.6v-5.1h0.8c0.4,0,0.9,0,1.3,0.2c0.4,0.3,0.7,0.7,0.7,1.2
			c0,0.7-0.5,1.3-1.2,1.4L112.7,16.9z M110.2,14.2h0.2c0.7,0,1.3-0.1,1.3-0.9c0-0.8-0.8-0.9-1.4-0.9h-0.1V14.2z"/>
		<polygon fill="#FFFFFF" points="122.6,11.8 123.4,11.8 121.1,14.1 123.5,16.9 122.6,16.9 120.7,14.5 120.4,14.7 120.4,16.9 
			119.8,16.9 119.8,11.8 120.4,11.8 120.4,14 		"/>
		<polygon fill="#FFFFFF" points="130.4,11.8 133.1,11.8 133.1,12.4 131.1,12.4 131.1,13.8 133.1,13.8 133.1,14.4 131.1,14.4 
			131.1,16.3 133.1,16.3 133.1,16.9 130.4,16.9 		"/>
		<polygon fill="#FFFFFF" points="141.9,16.9 141.2,16.9 141.2,12.4 140,12.4 140,11.8 143.1,11.8 143.1,12.4 141.9,12.4 		"/>
		<rect x="150.1" y="11.8" fill="#FFFFFF" width="0.6" height="5.1"/>
		<polygon fill="#FFFFFF" points="158.3,11.6 162.1,15.5 162.1,11.8 162.7,11.8 162.7,17.1 158.9,13.1 158.9,16.9 158.3,16.9 		"/>
		<path fill="#FFFFFF" d="M174.8,14.3v0.2c0,1.4-1,2.4-2.4,2.4c-1.4,0-2.6-1.2-2.6-2.6c0-1.5,1.2-2.7,2.6-2.7c0.8,0,1.6,0.4,2.1,1
			l-0.4,0.4c-0.4-0.5-1-0.8-1.6-0.8c-1.1,0-2,0.9-2,2.1c0,1.1,0.9,2.1,2,2.1c0.8,0,1.6-0.7,1.7-1.5h-1.3v-0.6H174.8z"/>
		<path fill="#FFFFFF" d="M122.7,80.9c0,3.4-2.6,6.2-5.9,6.2c-3.2,0-5.9-2.8-5.9-6.2c0-3.4,3.8-7.6,6-14.8
			C119.1,73.3,122.7,77.5,122.7,80.9"/>
	</g>
</g>
<g>
	<path fill="#FFFFFF" d="M221.2,9.5v26.9c0,10.8,6.4,15.3,14.6,15.3h23c3.4,4,6.5,5.5,15.6,5.5l110,0c11.8,0,25.4-7.4,25.4-25.7v-22
		H221.2z M404.4,32.1c0,11.1-8.8,20.1-19.6,20.1H276.3c-6.4,0-11.5-1.7-14.5-5.4h-25.9c-5.6,0-10.3-4.6-10.3-10.3l0-22.5h88.9
		c0.3,0,0.6,0,0.9,0h88.9V32.1z"/>
	<path fill="#FFFFFF" d="M321.8,43c-5.1,0-9.4-4.7-9.4-10.4c0-7.1,3.3-11,9-11c2.5,0,4.8,1.1,6.2,4V14.8h0.9c1.7,0,2.6,0.9,2.6,2.9
		v14C331.1,39.6,328.2,43,321.8,43 M321.5,24.9c-3.6,0-5.6,2.7-5.6,7.4c0,4.1,2.5,7.4,6.2,7.4c3.7,0,5.4-2,5.4-7.1
		C327.5,28.9,326.4,24.9,321.5,24.9"/>
	<path fill="#FFFFFF" d="M341.5,33.9h-5.1c0.3,3.4,2.7,5.9,6.6,5.9c3.2,0,5.1-1,6.2-2.1h0.2v1.5c0,2.2-2.3,3.8-6.9,3.8
		c-5.7,0-9.7-4.4-9.7-10.3c0-6.7,4.2-11.1,9.6-11.1c4,0,7.8,3,7.8,7.2C350.3,32.4,348.6,33.9,341.5,33.9 M342.1,24.8
		c-3.4,0-5.5,2.9-5.7,5.5l0,0.8l4.7-0.1c5-0.1,5.8-0.5,5.8-2.1C346.9,26.7,345.4,24.8,342.1,24.8"/>
	<path fill="#FFFFFF" d="M302.1,33.9H297c0.3,3.4,2.7,5.9,6.6,5.9c3.2,0,5.1-1,6.2-2.1h0.2v1.5c0,2.2-2.3,3.8-6.9,3.8
		c-5.7,0-9.7-4.4-9.7-10.3c0-6.7,4.2-11.1,9.6-11.1c4,0,7.8,3,7.8,7.2C310.8,32.4,309.1,33.9,302.1,33.9 M302.7,24.8
		c-3.4,0-5.5,2.9-5.7,5.5l0,0.8l4.6-0.1c5-0.1,5.8-0.5,5.8-2.1C307.4,26.7,305.9,24.8,302.7,24.8"/>
	<path fill="#FFFFFF" d="M358.3,43c-4,0-6.2-2-6.2-6.1V15.1h1.1c1.4,0,2.5,0.9,2.5,2.7v18.7c0,2.6,1.3,3.3,3.2,3.3h2.3v1.2
		C361.1,42.4,360.2,43,358.3,43"/>
	<path fill="#FFFFFF" d="M368.9,43c-4,0-6.2-2-6.2-6.1V15.1h1.1c1.4,0,2.5,0.9,2.5,2.7v18.7c0,2.6,1.3,3.3,3.2,3.3h2.3v1.2
		C371.7,42.4,370.8,43,368.9,43"/>
	<path fill="#FFFFFF" d="M262.4,43c1.4,0,2.4-0.9,2.4-2.6v-9.3c0-4.4,1.6-6.1,4.5-6.1c3.5,0,4.9,1.8,4.9,6v12h1.2
		c1.7,0,2.4-0.9,2.4-2.6v-9.3c0-3.8,1.7-6.1,4.7-6.1c3.1,0,4.7,1.9,4.7,6.1V43h1.1c1.5,0,2.5-0.9,2.5-2.6v-9.8
		c0-4.8-3.1-9.1-8.6-9.1c-3.1,0-5.2,1.4-6.5,3.8c-1.4-2.3-3.8-3.8-6.6-3.8c-5.2,0-8,3.1-8,9.4v12H262.4z"/>
	<path fill="#FFFFFF" d="M384.1,43c1.4,0,2.2-0.7,2.2-2.3v-9.5c0-4.3,1.6-6,5.2-6c3.1,0,4.9,1.7,4.9,6V43h1.3c1.3,0,2.2-0.8,2.2-2.4
		v-9.5c0-5.8-3.5-9.2-8.7-9.2c-5.1,0-8.3,3-8.3,9.2V43H384.1z"/>
	<path fill="#FFFFFF" d="M379,43c-4,0-6.2-2-6.2-6.1V22.2h1.1c1.2,0,2.4,0.9,2.4,2.7v11.5c0,2.6,1.3,3.4,3.2,3.4h1.5v1.2
		C381.1,42.3,380.2,43,379,43"/>
	<path fill="#FFFFFF" d="M378.1,16.9l-4.9,2.8l0.4,0.8c0.4,0.8,1.4,1,2.2,0.6l4.8-2.7l-0.4-0.7C379.7,16.9,378.8,16.5,378.1,16.9"/>
	<path fill="#FFFFFF" d="M239.4,34h-2.9c0.2,2,1.6,3.4,3.8,3.4c1.8,0,2.9-0.6,3.6-1.2h0.1V37c0,1.2-1.3,2.2-4,2.2
		c-3.2,0-5.5-2.5-5.5-5.9c0-3.8,2.4-6.4,5.5-6.4c2.3,0,4.5,1.8,4.5,4.1C244.4,33.2,243.4,34,239.4,34 M239.7,28.8
		c-2,0-3.2,1.6-3.2,3.2l0,0.5l2.7,0c2.8,0,3.3-0.3,3.3-1.2C242.4,29.9,241.6,28.8,239.7,28.8"/>
	<path fill="#FFFFFF" d="M253.9,34h-2.9c0.2,2,1.6,3.4,3.8,3.4c1.8,0,2.9-0.6,3.6-1.2h0.1V37c0,1.2-1.3,2.2-4,2.2
		c-3.2,0-5.5-2.5-5.5-5.9c0-3.8,2.4-6.4,5.5-6.4c2.3,0,4.5,1.8,4.5,4.1C258.9,33.2,257.9,34,253.9,34 M254.2,28.8
		c-1.9,0-3.2,1.6-3.3,3.2l0,0.5l2.7,0c2.8,0,3.3-0.3,3.3-1.2C256.9,29.9,256.1,28.8,254.2,28.8"/>
	<path fill="#FFFFFF" d="M248.3,39.2c-2.3,0-3.6-1.1-3.6-3.5V23.2h0.6c0.8,0,1.4,0.5,1.4,1.5v10.7c0,1.5,0.7,1.9,1.8,1.9h1.3V38
		C250,38.9,249.4,39.2,248.3,39.2"/>
	<path fill="#FFFFFF" d="M231.5,27.2h4.1v0.7c0,0.7-0.5,1.2-1.6,1.2h-2.5v5.9c0,1.7,0.7,2.4,1.9,2.4c0.7,0,1.4-0.1,1.9-0.3h0.1v0.7
		c0,1-0.8,1.5-2.1,1.5c-2.6,0-3.8-1.4-3.8-4.1v-7.7c0-0.7,0.2-1.3,0.5-1.8c0.3-0.4,0.9-0.8,1.2-0.8h0.2V27.2z"/>
	<path fill="#FFFFFF" d="M385,79.1c-2.4,0-4.3-1.1-4.3-2.8v-1h0.1c0.8,0.9,2.4,1.6,4.2,1.6c2.1,0,3-0.7,3-2.1c0-1.2-0.5-1.7-3.8-2.4
		c-2.7-0.6-3.9-1.5-3.9-3.6c0-2.3,2.1-4.5,5.6-4.5c2.1,0,4.2,1,4.2,2.7V68h-0.1c-0.6-0.7-2.2-1.5-3.8-1.5c-2.4,0-3.4,0.8-3.4,2
		c0,1,0.5,1.4,3.5,2c2.8,0.6,4.2,1.9,4.2,3.9C390.6,77.5,388.2,79.1,385,79.1"/>
	<path fill="#FFFFFF" d="M273.4,79.1c-3,0-5.6-1.7-5.6-4.4c0-3.2,2.5-4.9,6.9-4.9h2v-0.7c0-2.1-1.1-3-3.5-3c-2.2,0-3.9,0.8-4.7,2
		h-0.1v-1.2c0-1.4,1.8-3.1,5.1-3.1c3.8,0,5.7,2,5.7,5.6v4.6C279.2,76.9,277.5,79.1,273.4,79.1 M276.7,71.9h-2c-3,0-4.3,0.9-4.3,2.6
		c0,1.3,1.3,2.3,3.2,2.3c2.2,0,3.2-0.9,3.2-3V71.9z"/>
	<path fill="#FFFFFF" d="M372.3,72.5h-3.6c0.2,2.5,2,4.2,4.7,4.2c2.3,0,3.6-0.7,4.5-1.5h0.1v1.1c0,1.5-1.7,2.7-5,2.7
		c-4.1,0-6.9-3.1-6.9-7.4c0-4.8,3-8,6.9-8c2.9,0,5.6,2.2,5.6,5.1C378.6,71.5,377.4,72.5,372.3,72.5 M372.7,66c-2.4,0-4,2-4.1,3.9
		l0,0.6l3.3,0c3.6-0.1,4.2-0.4,4.2-1.5C376.1,67.4,375,66,372.7,66"/>
	<path fill="#FFFFFF" d="M312.6,79.1c-2.9,0-4.4-1.4-4.4-4.4V64.1h0.8c0.9,0,1.7,0.7,1.7,2v8.2c0,1.9,0.9,2.4,2.3,2.4h1.1v0.8
		C314.1,78.5,313.5,79.1,312.6,79.1"/>
	<path fill="#FFFFFF" d="M292.7,83.7c-1,0-1.6-0.7-1.6-1.7v-5.5c-0.6,1.5-2.4,2.7-4.4,2.7c-3.4,0-6.4-2.8-6.4-7.4
		c0-4.4,3-7.9,7.2-7.9c3.9,0,6.3,2.6,6.3,7.2v12.5H292.7z M287.1,66.3c-2.7,0-4.4,2.2-4.4,5.4c0,3.3,1.9,5.3,4.2,5.3
		c2.4,0,4.2-1.4,4.2-5.4C291.2,67.8,289.5,66.3,287.1,66.3"/>
	<path fill="#FFFFFF" d="M337.3,72.5h-3.6c0.3,2.5,2,4.2,4.7,4.2c2.3,0,3.7-0.7,4.5-1.5h0.1v1.1c0,1.5-1.7,2.7-5,2.7
		c-4.1,0-6.9-3.1-6.9-7.4c0-4.8,3-8,6.9-8c2.9,0,5.6,2.2,5.6,5.1C343.6,71.5,342.4,72.5,337.3,72.5 M337.7,66c-2.4,0-4,2-4.1,3.9
		l0,0.6l3.3,0c3.6-0.1,4.2-0.4,4.2-1.5C341.2,67.4,340.1,66,337.7,66"/>
	<path fill="#FFFFFF" d="M325.8,64h5.1v0.8c0,0.9-0.6,1.5-1.9,1.5h-3.1v7.3c0,2.1,0.8,3,2.4,3c0.9,0,1.8-0.1,2.3-0.4h0.1v0.9
		c0,1.2-1,1.9-2.7,1.9c-3.3,0-4.7-1.7-4.7-5.1v-9.6c0-0.9,0.2-1.7,0.6-2.3c0.4-0.5,1.2-1,1.6-1h0.3V64z"/>
	<path fill="#FFFFFF" d="M300.7,79.1c-3.6,0-6-2.5-6-6.9V64h0.8c1.1,0,1.7,0.7,1.7,2v6.1c0,3,1.5,4.6,3.7,4.6c2.3,0,3.5-1.3,3.5-4.5
		V64h0.7c1.2,0,1.8,0.6,1.8,2v6.5C306.9,76.8,304.6,79.1,300.7,79.1"/>
	<path fill="#FFFFFF" d="M359.9,79.1h-0.7c-0.5,0-0.9-0.2-1.3-0.7c-2.8-4.2-4.7-9.4-5.5-14.3h1.2c1,0,1.4,0.7,1.5,1.4
		c0.7,3.4,1.8,7.2,4.1,10.8c2.2-3.3,4-9.5,4.4-12.2h0.9c0.7,0,1.1,0.5,1.1,1.2c0,0.7-0.2,1.5-0.3,1.9
		C364.6,70.5,362.3,76.4,359.9,79.1"/>
	<path fill="#FFFFFF" d="M311.5,60l-2.6,2.6l0.6,0.6c0.6,0.6,1.5,0.6,2.1,0l2.5-2.5l-0.5-0.5C313.1,59.5,312.1,59.4,311.5,60"/>
</g>
<g>
	<polygon fill="#FFFFFF" points="688.4,23.1 691.6,23.1 707.9,53.8 724.1,23.1 727.4,23.1 727.4,56.6 725.2,56.6 725.2,26.1 
		725.1,26.1 708.9,56.6 706.8,56.6 690.6,26.1 690.5,26.1 690.5,56.6 688.4,56.6 	"/>
	<path fill="#FFFFFF" d="M732.9,23.1h2.2v21c0,7.2,3.4,11.3,12.7,11.3c9.3,0,12.7-4.2,12.7-11.3v-21h2.2v21.1
		c0,8.6-5,13.1-14.8,13.1c-9.8,0-14.8-4.5-14.8-13.1V23.1z M754.2,14.5l-7.4,6.7h-2.1l6.7-6.7H754.2z"/>
	<path fill="#FFFFFF" d="M768.6,45.5c0,6.2,3.8,9.9,12.8,9.9c8.2,0,11.2-3.5,11.2-7.5c0-3.7-1.8-5.4-8.8-6.9l-6.2-1.3
		c-7.3-1.5-10.1-3.7-10.1-8.8c0-5,4.4-8.7,12.7-8.7c8.4,0,13.8,3.1,14,10.2H792c-0.3-3.9-2.4-8.4-11.3-8.4c-8.2,0-10.8,3-10.8,6.8
		c0,3.6,1.6,5.3,7.9,6.6l6.9,1.4c6.7,1.3,10.4,3.5,10.4,8.8c0,4.5-3,9.5-13.5,9.5c-11,0-15.2-4.7-15.2-11.8H768.6z"/>
	<rect x="799.2" y="23.1" fill="#FFFFFF" width="2.2" height="33.5"/>
	<path fill="#FFFFFF" d="M839.8,43.9c-0.8,6.4-6.4,13.5-16.5,13.5c-10.2,0-17.8-6.4-17.8-17.5c0-8.1,5.5-17.5,17.8-17.5
		c8.1,0,14.2,3.8,15.9,11.2h-2.2c-1.6-6.4-7.4-9.4-13.7-9.4c-9.6,0-15.7,7.2-15.7,15.6c0,8.4,5.4,15.6,15.7,15.6
		c7.4,0,13-4.3,14.3-11.6H839.8z"/>
	<path fill="#FFFFFF" d="M856.3,23.1h2.4l15.4,33.5h-2.4l-4.9-10.8h-18.5l-4.9,10.8h-2.4L856.3,23.1z M849.2,43.9h16.8l-8.4-18.4
		L849.2,43.9z"/>
	<path fill="#FFFFFF" d="M763.4,15.7c-0.1-0.5-0.5-0.9-1.2-0.9c-0.9,0-1.4,0.5-1.4,1.5c0,0.7,0.4,1.4,1.4,1.4c0.6,0,1.1-0.3,1.3-1
		h0.5c-0.1,0.8-0.8,1.5-1.8,1.5c-0.9,0-1.9-0.5-1.9-1.9c0-1.1,0.7-1.9,1.9-1.9c0.7,0,1.7,0.3,1.8,1.4H763.4z"/>
	<path fill="#FFFFFF" d="M766.4,14.3c1.4,0,2,1,2,1.9c0,0.9-0.6,1.9-2,1.9c-1.5,0-2-1-2-1.9C764.4,15.2,764.9,14.3,766.4,14.3
		 M766.4,14.7c-0.8,0-1.5,0.5-1.5,1.4c0,1,0.7,1.4,1.5,1.4c0.8,0,1.5-0.5,1.5-1.4C767.9,15.2,767.2,14.7,766.4,14.7"/>
	<path fill="#FFFFFF" d="M769,14.4h2.3c0.7,0,1,0.5,1,1c0,0.5-0.2,0.8-0.6,0.9v0c0.3,0,0.5,0.3,0.5,0.8c0,0.7,0,0.8,0.2,1h-0.6
		c-0.1-0.1-0.1-0.3-0.1-0.7c0-0.7-0.3-0.9-0.7-0.9h-1.4V18H769V14.4z M771,16c0.5,0,0.7-0.3,0.7-0.6c0-0.3-0.2-0.6-0.6-0.6h-1.5V16
		H771z"/>
	<path fill="#FFFFFF" d="M772.9,14.4h1.9c0.8,0,1.2,0.4,1.2,1c0,0.7-0.4,1.1-1.2,1.1h-1.4V18h-0.5V14.4z M774.7,16.1
		c0.5,0,0.7-0.3,0.7-0.6c0-0.4-0.2-0.6-0.6-0.6h-1.4v1.2H774.7z"/>
	<path fill="#FFFFFF" d="M778.3,14.3c1.5,0,2,1,2,1.9c0,0.9-0.6,1.9-2,1.9c-1.5,0-2-1-2-1.9C776.3,15.2,776.9,14.3,778.3,14.3
		 M778.3,14.7c-0.8,0-1.5,0.5-1.5,1.4c0,1,0.7,1.4,1.5,1.4c0.8,0,1.5-0.5,1.5-1.4C779.8,15.2,779.2,14.7,778.3,14.7"/>
	<path fill="#FFFFFF" d="M780.9,14.4h2.3c0.7,0,1,0.5,1,1c0,0.5-0.2,0.8-0.6,0.9v0c0.3,0,0.5,0.3,0.5,0.8c0,0.7,0,0.8,0.2,1h-0.6
		c-0.1-0.1-0.1-0.3-0.1-0.7c0-0.7-0.3-0.9-0.7-0.9h-1.4V18h-0.5V14.4z M783,16c0.5,0,0.7-0.3,0.7-0.6c0-0.3-0.2-0.6-0.6-0.6h-1.5V16
		H783z"/>
	<path fill="#FFFFFF" d="M787.2,16.9h-1.8l-0.5,1.1h-0.6l1.6-3.6h0.6l1.6,3.6h-0.6L787.2,16.9z M786.3,14.9l-0.7,1.6h1.4L786.3,14.9
		z"/>
	<path fill="#FFFFFF" d="M791.6,15.7c-0.1-0.5-0.5-0.9-1.2-0.9c-0.9,0-1.4,0.5-1.4,1.5c0,0.7,0.4,1.4,1.4,1.4c0.6,0,1.1-0.3,1.3-1
		h0.5c-0.1,0.8-0.8,1.5-1.8,1.5c-0.9,0-1.9-0.5-1.9-1.9c0-1.1,0.7-1.9,1.9-1.9c0.7,0,1.7,0.3,1.8,1.4H791.6z"/>
	<rect x="792.8" y="14.4" fill="#FFFFFF" width="0.5" height="3.6"/>
	<path fill="#FFFFFF" d="M796,14.3c1.5,0,2,1,2,1.9c0,0.9-0.6,1.9-2,1.9c-1.5,0-2-1-2-1.9C794,15.2,794.6,14.3,796,14.3 M796,14.7
		c-0.8,0-1.5,0.5-1.5,1.4c0,1,0.6,1.4,1.5,1.4c0.8,0,1.5-0.5,1.5-1.4C797.5,15.2,796.8,14.7,796,14.7 M796.1,13.4h0.6l-0.7,0.7h-0.4
		L796.1,13.4z"/>
	<polygon fill="#FFFFFF" points="799.2,15.1 799.2,15.1 799.2,18 798.6,18 798.6,14.4 799.3,14.4 801.6,17.2 801.6,17.2 801.6,14.4 
		802.1,14.4 802.1,18 801.5,18 	"/>
	<path fill="#FFFFFF" d="M804.7,14.4h2.2c0.7,0,1,0.5,1,1c0,0.5-0.2,0.8-0.6,0.9v0c0.3,0,0.5,0.3,0.5,0.8c0,0.7,0,0.8,0.2,1h-0.6
		c-0.1-0.1-0.1-0.3-0.1-0.7c0-0.7-0.3-0.9-0.7-0.9h-1.4V18h-0.6V14.4z M806.7,16c0.5,0,0.7-0.3,0.7-0.6c0-0.3-0.2-0.6-0.6-0.6h-1.5
		V16H806.7z"/>
	<polygon fill="#FFFFFF" points="808.5,14.4 811.4,14.4 811.4,14.8 809,14.8 809,15.9 811.4,15.9 811.4,16.3 809,16.3 809,17.5 
		811.5,17.5 811.5,18 808.5,18 	"/>
	<polygon fill="#FFFFFF" points="814.8,14.4 815.4,14.4 813.8,18 813.2,18 811.6,14.4 812.2,14.4 813.6,17.4 	"/>
	<rect x="815.8" y="14.4" fill="#FFFFFF" width="0.5" height="3.6"/>
	<path fill="#FFFFFF" d="M817.4,16.8c0,0.6,0.6,0.8,1.2,0.8c0.6,0,1-0.2,1-0.6c0-0.3-0.3-0.5-0.7-0.5l-0.8-0.1
		c-0.4-0.1-1.1-0.3-1.1-1c0-0.7,0.5-1.1,1.5-1.1c0.7,0,1.5,0.3,1.6,1.1h-0.5c0-0.3-0.2-0.7-1.1-0.7c-0.4,0-0.9,0.2-0.9,0.6
		c0,0.2,0.1,0.4,0.6,0.5L819,16c0.3,0.1,1.1,0.2,1.1,0.9c0,0.9-0.8,1.2-1.6,1.2c-0.8,0-1.7-0.3-1.7-1.3H817.4z"/>
	<polygon fill="#FFFFFF" points="821.5,14.8 820.2,14.8 820.2,14.4 823.4,14.4 823.4,14.8 822.1,14.8 822.1,18 821.5,18 	"/>
	<path fill="#FFFFFF" d="M826.1,16.9h-1.8l-0.5,1.1h-0.6l1.6-3.6h0.6l1.6,3.6h-0.6L826.1,16.9z M825.2,14.9l-0.7,1.6h1.4L825.2,14.9
		z"/>
	<path fill="#FFFFFF" d="M690.6,71.9h0.7l2.4,6.2h-0.6l-0.7-1.9h-2.8l-0.7,1.9h-0.6L690.6,71.9z M689.7,75.6h2.4l-1.2-3.1
		L689.7,75.6z"/>
	<path fill="#FFFFFF" d="M694.2,71.9h0.5v2.5h0c0.2-0.5,0.8-0.9,1.4-0.9c1.2,0,1.6,0.7,1.6,1.7V78h-0.5v-2.8c0-0.8-0.2-1.3-1.1-1.3
		c-0.9,0-1.4,0.7-1.4,1.5V78h-0.5V71.9z"/>
	<path fill="#FFFFFF" d="M702.8,75.8c0,1.3-0.7,2.4-2.1,2.4c-1.4,0-2.1-1.1-2.1-2.4c0-1.3,0.7-2.4,2.1-2.4
		C702,73.5,702.8,74.5,702.8,75.8 M699.1,75.8c0,0.9,0.5,1.9,1.5,1.9c1,0,1.6-1,1.6-1.9c0-0.9-0.5-1.9-1.6-1.9
		C699.6,73.9,699.1,74.9,699.1,75.8"/>
	<path fill="#FFFFFF" d="M703.6,73.6h0.5v1h0c0.3-0.7,0.9-1.1,1.7-1.1v0.5c-1-0.1-1.7,0.7-1.7,1.6V78h-0.5V73.6z"/>
	<path fill="#FFFFFF" d="M706.2,74.9c0-1,0.8-1.5,1.8-1.5c0.8,0,1.6,0.2,1.6,1.4v2.4c0,0.2,0.1,0.3,0.3,0.3c0.1,0,0.1,0,0.2,0V78
		c-0.1,0-0.2,0-0.3,0c-0.6,0-0.6-0.3-0.6-0.8h0c-0.4,0.6-0.8,0.9-1.6,0.9c-0.8,0-1.5-0.4-1.5-1.3c0-1.2,1.2-1.3,2.4-1.4
		c0.5-0.1,0.7-0.1,0.7-0.6c0-0.7-0.5-0.9-1.2-0.9c-0.7,0-1.2,0.3-1.2,1H706.2z M709.1,75.6L709.1,75.6c-0.1,0.1-0.3,0.2-0.5,0.2
		c-0.9,0.2-2.1,0.2-2.1,1c0,0.5,0.5,0.9,1,0.9c0.8,0,1.6-0.5,1.5-1.4V75.6z"/>
	<path fill="#FFFFFF" d="M713.1,73.6h0.5v0.8h0c0.3-0.6,0.9-1,1.6-1c1.4,0,2,1.1,2,2.4c0,1.3-0.6,2.4-2,2.4c-0.7,0-1.3-0.3-1.5-1h0
		v2.5h-0.5V73.6z M715.2,73.9c-1.2,0-1.6,0.9-1.6,1.9c0,0.9,0.4,1.9,1.6,1.9c1,0,1.5-1,1.5-1.9C716.7,74.9,716.3,73.9,715.2,73.9"/>
	<path fill="#FFFFFF" d="M721.7,78h-0.5v-0.8h0c-0.3,0.6-0.9,0.9-1.5,0.9c-1.1,0-1.6-0.7-1.6-1.7v-2.9h0.5v2.9
		c0,0.8,0.3,1.2,1.2,1.2c0.9,0,1.3-0.9,1.3-1.8v-2.3h0.6V78z"/>
	<path fill="#FFFFFF" d="M723,76c0,0.8,0.4,1.8,1.5,1.8c0.8,0,1.2-0.5,1.4-1.1h0.5c-0.2,1-0.8,1.6-1.9,1.6c-1.4,0-2-1.1-2-2.4
		c0-1.2,0.6-2.4,2-2.4c1.4,0,2,1.3,1.9,2.5H723z M725.9,75.5c0-0.8-0.5-1.6-1.4-1.6c-0.9,0-1.4,0.8-1.5,1.6H725.9z"/>
	<path fill="#FFFFFF" d="M731.1,78h-0.5v-0.9h0c-0.2,0.6-0.9,1-1.6,1c-1.4,0-2-1.1-2-2.4c0-1.3,0.6-2.4,2-2.4c0.7,0,1.3,0.3,1.5,1h0
		v-2.5h0.5V78z M729,77.7c1.1,0,1.5-1,1.5-1.9c0-0.9-0.4-1.9-1.5-1.9c-1,0-1.5,1-1.5,1.9C727.5,76.7,728,77.7,729,77.7"/>
	<path fill="#FFFFFF" d="M732.4,76c0,0.8,0.4,1.8,1.5,1.8c0.8,0,1.2-0.5,1.4-1.1h0.5c-0.2,1-0.8,1.6-1.9,1.6c-1.4,0-2-1.1-2-2.4
		c0-1.2,0.6-2.4,2-2.4c1.4,0,2,1.3,2,2.5H732.4z M735.3,75.5c0-0.8-0.5-1.6-1.4-1.6c-0.9,0-1.4,0.8-1.5,1.6H735.3z"/>
	<path fill="#FFFFFF" d="M739.2,74.9c0-0.7-0.5-1-1.2-1c-0.5,0-1,0.2-1,0.8c0,0.5,0.6,0.6,0.9,0.7l0.7,0.2c0.6,0.1,1.3,0.4,1.3,1.2
		c0,1-1,1.3-1.8,1.3c-1,0-1.7-0.5-1.8-1.6h0.5c0,0.7,0.6,1.1,1.3,1.1c0.5,0,1.2-0.2,1.2-0.8c0-0.5-0.5-0.7-1-0.8l-0.7-0.1
		c-0.7-0.2-1.2-0.4-1.2-1.2c0-0.9,0.9-1.3,1.7-1.3c0.9,0,1.6,0.5,1.6,1.4H739.2z"/>
	<rect x="743.1" y="71.9" fill="#FFFFFF" width="0.5" height="6.2"/>
	<path fill="#FFFFFF" d="M745,76c0,0.8,0.4,1.8,1.5,1.8c0.8,0,1.2-0.5,1.4-1.1h0.5c-0.2,1-0.8,1.6-1.9,1.6c-1.4,0-2-1.1-2-2.4
		c0-1.2,0.6-2.4,2-2.4c1.4,0,2,1.3,2,2.5H745z M747.9,75.5c0-0.8-0.5-1.6-1.4-1.6c-0.9,0-1.4,0.8-1.5,1.6H747.9z"/>
	<path fill="#FFFFFF" d="M749.5,76c0,0.8,0.4,1.8,1.5,1.8c0.8,0,1.2-0.5,1.4-1.1h0.5c-0.2,1-0.8,1.6-1.9,1.6c-1.4,0-2-1.1-2-2.4
		c0-1.2,0.6-2.4,2-2.4c1.4,0,2,1.3,2,2.5H749.5z M752.4,75.5c0-0.8-0.5-1.6-1.4-1.6c-0.9,0-1.4,0.8-1.5,1.6H752.4z"/>
	<path fill="#FFFFFF" d="M753.6,73.6h0.5v1h0c0.3-0.7,0.9-1.1,1.7-1.1v0.5c-1-0.1-1.7,0.7-1.7,1.6V78h-0.5V73.6z"/>
	<rect x="755.9" y="77.1" fill="#FFFFFF" width="0.7" height="0.9"/>
	<rect x="758.3" y="77.1" fill="#FFFFFF" width="0.7" height="0.9"/>
	<rect x="760.7" y="77.1" fill="#FFFFFF" width="0.7" height="0.9"/>
	<rect x="765.1" y="71.9" fill="#FFFFFF" width="0.5" height="6.2"/>
	<path fill="#FFFFFF" d="M770.7,75.8c0,1.3-0.7,2.4-2.1,2.4c-1.4,0-2.1-1.1-2.1-2.4c0-1.3,0.7-2.4,2.1-2.4
		C770,73.5,770.7,74.5,770.7,75.8 M767,75.8c0,0.9,0.5,1.9,1.6,1.9s1.6-1,1.6-1.9c0-0.9-0.5-1.9-1.6-1.9S767,74.9,767,75.8"/>
	<path fill="#FFFFFF" d="M777.8,79.7h-0.5v-2.5h0c-0.2,0.6-0.9,1-1.5,1c-1.3,0-2-1.1-2-2.4c0-1.3,0.7-2.4,2-2.4c0.6,0,1.4,0.4,1.6,1
		h0v-0.8h0.5V79.7z M775.7,77.7c1.1,0,1.6-1,1.6-1.9c0-0.9-0.4-1.9-1.6-1.9c-1,0-1.5,1-1.5,1.9C774.3,76.7,774.7,77.7,775.7,77.7"/>
	<path fill="#FFFFFF" d="M782.4,78h-0.5v-0.8h0c-0.3,0.6-0.9,0.9-1.5,0.9c-1.1,0-1.6-0.7-1.6-1.7v-2.9h0.5v2.9
		c0,0.8,0.3,1.2,1.2,1.2c0.9,0,1.3-0.9,1.3-1.8v-2.3h0.5V78z"/>
	<path fill="#FFFFFF" d="M783.8,76c0,0.8,0.4,1.8,1.5,1.8c0.8,0,1.2-0.5,1.4-1.1h0.5c-0.2,1-0.8,1.6-1.9,1.6c-1.4,0-2-1.1-2-2.4
		c0-1.2,0.6-2.4,2-2.4c1.4,0,2,1.3,2,2.5H783.8z M786.7,75.5c0-0.8-0.5-1.6-1.4-1.6c-0.9,0-1.4,0.8-1.5,1.6H786.7z"/>
	<path fill="#FFFFFF" d="M790.3,73.6h0.5v0.7h0c0.3-0.5,0.8-0.9,1.5-0.9c0.6,0,1.1,0.3,1.3,0.9c0.3-0.6,0.8-0.9,1.4-0.9
		c1,0,1.5,0.5,1.5,1.6v3h-0.5v-3c0-0.7-0.3-1.1-1-1.1c-0.9,0-1.2,0.8-1.2,1.6V78h-0.5v-3c0-0.6-0.2-1.1-0.9-1.1
		c-0.9,0-1.3,0.7-1.3,1.6V78h-0.5V73.6z"/>
	<path fill="#FFFFFF" d="M797.4,74.9c0.1-1,0.8-1.5,1.8-1.5c0.8,0,1.6,0.2,1.6,1.4v2.4c0,0.2,0.1,0.3,0.3,0.3c0.1,0,0.1,0,0.2,0V78
		c-0.1,0-0.2,0-0.3,0c-0.6,0-0.6-0.3-0.6-0.8h0c-0.4,0.6-0.8,0.9-1.6,0.9c-0.8,0-1.5-0.4-1.5-1.3c0-1.2,1.2-1.3,2.4-1.4
		c0.4-0.1,0.7-0.1,0.7-0.6c0-0.7-0.5-0.9-1.2-0.9c-0.7,0-1.2,0.3-1.2,1H797.4z M800.3,75.6L800.3,75.6c-0.1,0.1-0.3,0.2-0.5,0.2
		c-0.9,0.2-2.1,0.2-2.1,1c0,0.5,0.5,0.9,1,0.9c0.8,0,1.6-0.5,1.5-1.4V75.6z M799.1,73h-0.4l0.9-1.2h0.7L799.1,73z"/>
	<path fill="#FFFFFF" d="M804.6,74.9c0-0.7-0.5-1-1.2-1c-0.5,0-1.1,0.2-1.1,0.8c0,0.5,0.6,0.6,0.9,0.7l0.7,0.2
		c0.6,0.1,1.3,0.4,1.3,1.2c0,1-1,1.3-1.8,1.3c-1,0-1.7-0.5-1.8-1.6h0.5c0,0.7,0.6,1.1,1.3,1.1c0.5,0,1.2-0.2,1.2-0.8
		c0-0.5-0.5-0.7-1-0.8l-0.7-0.1c-0.7-0.2-1.2-0.4-1.2-1.2c0-0.9,0.9-1.3,1.7-1.3c0.9,0,1.6,0.5,1.6,1.4H804.6z"/>
	<path fill="#FFFFFF" d="M809.4,73.6h0.9V74h-0.9v3c0,0.4,0.1,0.6,0.4,0.6c0.2,0,0.3,0,0.5,0v0.5c-0.2,0-0.3,0-0.5,0
		c-0.7,0-1-0.2-1-1v-3H808v-0.5h0.8v-1.3h0.5V73.6z"/>
	<path fill="#FFFFFF" d="M811.4,76c0,0.8,0.4,1.8,1.5,1.8c0.8,0,1.2-0.5,1.4-1.1h0.5c-0.2,1-0.8,1.6-1.9,1.6c-1.4,0-2-1.1-2-2.4
		c0-1.2,0.6-2.4,2-2.4c1.4,0,2,1.3,2,2.5H811.4z M814.2,75.5c0-0.8-0.5-1.6-1.4-1.6c-0.9,0-1.4,0.8-1.5,1.6H814.2z"/>
	<path fill="#FFFFFF" d="M821.7,77.7c0,1.3-0.5,2.1-2,2.1c-0.9,0-1.8-0.4-1.9-1.4h0.5c0.1,0.7,0.7,0.9,1.3,0.9c1,0,1.4-0.6,1.4-1.7
		v-0.6h0c-0.2,0.5-0.8,0.9-1.4,0.9c-1.4,0-2-1-2-2.3c0-1.2,0.7-2.2,2-2.2c0.6,0,1.2,0.4,1.4,0.9h0v-0.8h0.5V77.7z M821.1,75.8
		c0-0.9-0.4-1.8-1.4-1.8c-1,0-1.5,0.9-1.5,1.8c0,0.9,0.5,1.8,1.5,1.8C820.6,77.5,821.1,76.7,821.1,75.8"/>
	<path fill="#FFFFFF" d="M826.3,78h-0.5v-0.8h0c-0.3,0.6-0.9,0.9-1.5,0.9c-1.1,0-1.6-0.7-1.6-1.7v-2.9h0.5v2.9
		c0,0.8,0.3,1.2,1.2,1.2c0.9,0,1.3-0.9,1.3-1.8v-2.3h0.5V78z"/>
	<path fill="#FFFFFF" d="M830,74.9c0-0.7-0.5-1-1.2-1c-0.5,0-1.1,0.2-1.1,0.8c0,0.5,0.6,0.6,0.9,0.7l0.7,0.2
		c0.6,0.1,1.3,0.4,1.3,1.2c0,1-1,1.3-1.8,1.3c-1,0-1.7-0.5-1.8-1.6h0.5c0,0.7,0.6,1.1,1.3,1.1c0.5,0,1.2-0.2,1.2-0.8
		c0-0.5-0.5-0.7-1-0.8l-0.7-0.1c-0.7-0.2-1.2-0.4-1.2-1.2c0-0.9,0.9-1.3,1.7-1.3c0.9,0,1.6,0.5,1.6,1.4H830z"/>
	<path fill="#FFFFFF" d="M832.3,73.6h0.9V74h-0.9v3c0,0.4,0.1,0.6,0.4,0.6c0.2,0,0.3,0,0.5,0v0.5c-0.2,0-0.3,0-0.5,0
		c-0.7,0-1-0.2-1-1v-3H831v-0.5h0.8v-1.3h0.5V73.6z"/>
	<path fill="#FFFFFF" d="M833.9,74.9c0.1-1,0.8-1.5,1.8-1.5c0.8,0,1.6,0.2,1.6,1.4v2.4c0,0.2,0.1,0.3,0.3,0.3c0.1,0,0.1,0,0.2,0V78
		c-0.1,0-0.2,0-0.4,0c-0.5,0-0.6-0.3-0.6-0.8h0c-0.4,0.6-0.8,0.9-1.6,0.9c-0.8,0-1.5-0.4-1.5-1.3c0-1.2,1.2-1.3,2.4-1.4
		c0.4-0.1,0.7-0.1,0.7-0.6c0-0.7-0.5-0.9-1.2-0.9c-0.7,0-1.2,0.3-1.2,1H833.9z M836.8,75.6L836.8,75.6c-0.1,0.1-0.3,0.2-0.5,0.2
		c-0.9,0.2-2.1,0.2-2.1,1c0,0.5,0.5,0.9,1,0.9c0.8,0,1.6-0.5,1.6-1.4V75.6z"/>
	<path fill="#FFFFFF" d="M841.2,76c0,0.8,0.4,1.8,1.5,1.8c0.8,0,1.2-0.5,1.4-1.1h0.5c-0.2,1-0.8,1.6-1.9,1.6c-1.4,0-2-1.1-2-2.4
		c0-1.2,0.6-2.4,2-2.4c1.4,0,2,1.3,2,2.5H841.2z M844.1,75.5c0-0.8-0.5-1.6-1.4-1.6c-0.9,0-1.4,0.8-1.5,1.6H844.1z"/>
	<path fill="#FFFFFF" d="M848,74.9c0-0.7-0.6-1-1.2-1c-0.5,0-1.1,0.2-1.1,0.8c0,0.5,0.6,0.6,0.9,0.7l0.7,0.2
		c0.6,0.1,1.3,0.4,1.3,1.2c0,1-1,1.3-1.8,1.3c-1,0-1.7-0.5-1.8-1.6h0.5c0,0.7,0.6,1.1,1.3,1.1c0.5,0,1.2-0.2,1.2-0.8
		c0-0.5-0.5-0.7-1-0.8l-0.7-0.1c-0.7-0.2-1.2-0.4-1.2-1.2c0-0.9,0.9-1.3,1.7-1.3c0.9,0,1.6,0.5,1.6,1.4H848z"/>
	<path fill="#FFFFFF" d="M852.6,75c-0.1-0.7-0.6-1.1-1.3-1.1c-1,0-1.6,0.9-1.6,1.9c0,0.9,0.5,1.9,1.6,1.9c0.7,0,1.2-0.5,1.3-1.3h0.5
		c-0.1,1.1-0.8,1.7-1.8,1.7c-1.4,0-2.1-1.1-2.1-2.4c0-1.3,0.7-2.4,2.1-2.4c0.9,0,1.7,0.5,1.8,1.5H852.6z"/>
	<path fill="#FFFFFF" d="M857.5,78H857v-0.8h0c-0.3,0.6-0.9,0.9-1.5,0.9c-1.1,0-1.5-0.7-1.5-1.7v-2.9h0.5v2.9c0,0.8,0.3,1.2,1.2,1.2
		c0.9,0,1.3-0.9,1.3-1.8v-2.3h0.6V78z"/>
	<path fill="#FFFFFF" d="M861.7,75c-0.1-0.7-0.6-1.1-1.3-1.1c-1,0-1.6,0.9-1.6,1.9c0,0.9,0.5,1.9,1.6,1.9c0.7,0,1.2-0.5,1.3-1.3h0.5
		c-0.1,1.1-0.8,1.7-1.8,1.7c-1.4,0-2.1-1.1-2.1-2.4c0-1.3,0.7-2.4,2.1-2.4c0.9,0,1.7,0.5,1.8,1.5H861.7z"/>
	<path fill="#FFFFFF" d="M863,71.9h0.5v2.5h0c0.2-0.5,0.8-0.9,1.4-0.9c1.2,0,1.6,0.7,1.6,1.7V78h-0.5v-2.8c0-0.8-0.3-1.3-1.1-1.3
		c-0.9,0-1.4,0.7-1.4,1.5V78H863V71.9z"/>
	<path fill="#FFFFFF" d="M867.6,74.9c0.1-1,0.8-1.5,1.8-1.5c0.8,0,1.6,0.2,1.6,1.4v2.4c0,0.2,0.1,0.3,0.3,0.3c0.1,0,0.1,0,0.2,0V78
		c-0.1,0-0.2,0-0.4,0c-0.6,0-0.6-0.3-0.6-0.8h0c-0.4,0.6-0.8,0.9-1.6,0.9c-0.8,0-1.5-0.4-1.5-1.3c0-1.2,1.2-1.3,2.4-1.4
		c0.4-0.1,0.7-0.1,0.7-0.6c0-0.7-0.5-0.9-1.2-0.9c-0.7,0-1.2,0.3-1.2,1H867.6z M870.5,75.6L870.5,75.6c-0.1,0.1-0.3,0.2-0.5,0.2
		c-0.9,0.2-2.1,0.2-2.1,1c0,0.5,0.5,0.9,1,0.9c0.8,0,1.6-0.5,1.5-1.4V75.6z"/>
	<path fill="#FFFFFF" d="M872.1,73.6h0.5v1h0c0.3-0.7,0.9-1.1,1.7-1.1v0.5c-1-0.1-1.7,0.7-1.7,1.6V78h-0.5V73.6z"/>
	<line fill="#FFFFFF" x1="688.2" y1="64.4" x2="874.4" y2="64.4"/>
</g>
<g>
	<path fill="#FFFFFF" d="M566.1,65.3c-0.4,0-0.4,0.3-0.4,0.5V68c0,0.1,0,0.4,0.3,0.4c0.4,0,0.4-0.3,0.4-0.4v-2.2
		C566.4,65.6,566.4,65.3,566.1,65.3z"/>
	<path fill="#FFFFFF" d="M452.9,0v74.2h191.1V0H452.9z M477.8,50.2c-2.7,4.8-8.1,5.3-11.4,5.3c-7.5,0-13.3-3.2-13.3-12.1v-7.8h8.8
		v6.2c0,3.1,0,6.2,4.3,6.2c4.3,0,4.3-3.2,4.3-7.9c0-3.8-0.7-5.4-3-7.1l-8.4-6.3c-4.5-3.4-5.7-7.1-5.7-12.5c0-4.1,0.3-8.1,3.5-11
		c1.8-1.7,5-3.2,9.6-3.2c5.2,0,12.2,2.3,12.2,11.5v5.3H470v-3.8c0-2.6,0-5.4-3.9-5.4c-2.4,0-4.1,1-4.1,5.3c0,4.4,0.9,5.4,2.8,6.9
		l8.7,6.6c1.7,1.4,3.5,3.2,4.5,5.2c1.3,2.4,1.3,4.1,1.3,8.4C479.4,44.5,479.4,47.4,477.8,50.2z M506.6,55.5h-8.8V30h-8.1v25.5h-8.8
		V0h8.8v22.1h8.1V0h8.8V55.5z M534.8,43c0,3.9-0.7,6.6-2.6,8.7c-2.9,3.3-7.3,3.8-10.5,3.8c-10.8,0-13.4-5.7-13.4-12.5V13.2
		c0-2.3,0.1-6.3,2.5-9.1c1.8-2.2,5.4-4.1,10.9-4.1c4.3,0,7.7,1.3,10,3.3c2.4,2.2,3.2,5,3.2,10.1V43z M536.4,43v-29
		c0-4.3,0.2-7.2,2.4-9.9c3.5-4.1,8.9-4.2,10.7-4.2c13,0,13,8.6,13,12.4v8.2h-8.8v-6.8c0-4-0.6-6.3-4.5-6.3c-3.9,0-4.1,3.4-4.1,5.8
		v28.5c0,3.2,0.5,6,4.4,6c4.1,0,4.1-3.3,4.1-6.6v-6.9h8.8v7.5c0,4.3,0,13.6-13,13.6c-2.5,0-6.5-0.5-9.3-2.6
		C536.4,50.1,536.4,46,536.4,43z M564.2,0h9v21.9L587.1,0h8.7l-14.9,24.1l14.9,31.4h-9.6l-13-27.1v27.1h-9V0z M545.7,69.1h-0.9
		l-0.4-2.6l-0.5,2.6h-0.9l-0.9-4.4h1l0.5,2.9l0.5-2.9h0.8l0.5,2.9l0.5-2.9h1L545.7,69.1z M550.4,69.1h-0.9l-0.4-2.6l-0.5,2.6h-0.9
		l-0.9-4.4h1l0.5,2.9l0.5-2.9h0.8l0.4,2.9l0.5-2.9h1L550.4,69.1z M555.1,69.1h-0.9l-0.4-2.6l-0.5,2.6h-1l-0.9-4.4h1l0.5,2.9l0.5-2.9
		h0.8l0.4,2.9l0.5-2.9h1L555.1,69.1z M557.4,69.1h-1V68h1V69.1z M559.2,69.1c-1.1,0-1.3-0.6-1.3-1.1v-0.5h0.9c0,0.6,0,0.9,0.4,0.9
		c0.2,0,0.4-0.1,0.4-0.5c0-0.2,0-0.4-0.3-0.6l-0.8-0.6c-0.1,0-0.2-0.2-0.3-0.3c-0.1-0.1-0.2-0.3-0.2-0.8c0-0.9,0.6-1.1,1.3-1.1
		c0.9,0,1.2,0.4,1.2,1v0.5h-0.9c0-0.5,0-0.8-0.4-0.8c-0.1,0-0.4,0-0.4,0.4c0,0.1,0,0.3,0.3,0.5l0.9,0.6c0.1,0,0.3,0.2,0.3,0.3
		c0.1,0.2,0.1,0.4,0.1,0.7C560.6,68.4,560.6,69.1,559.2,69.1z M564,69.1h-1V66c0-0.2,0-0.5-0.4-0.5c-0.3,0-0.4,0.2-0.4,0.5v3.2h-1
		v-6h1v2c0.2-0.2,0.4-0.4,0.9-0.4c0.3,0,0.9,0.1,0.9,1V69.1z M567.4,67.9c0,0.8-0.5,1.2-1.4,1.2c-1.3,0-1.3-1-1.3-1.3v-1.9
		c0-0.5,0.2-1.2,1.4-1.2c0.3,0,0.7,0.1,0.9,0.2c0.4,0.3,0.4,0.6,0.4,1V67.9z M570.8,66.4h-1v-0.5c0-0.1,0-0.5-0.4-0.5
		c-0.4,0-0.4,0.4-0.4,0.6v1.9c0,0.2,0,0.6,0.4,0.6c0.4,0,0.4-0.4,0.4-0.6v-0.5h1v0.5c0,0.9-0.5,1.3-1.4,1.3c-0.2,0-0.7,0-1-0.3
		c-0.3-0.3-0.4-0.6-0.4-1V66c0-0.3,0.1-0.6,0.2-0.8c0.3-0.3,0.7-0.5,1.2-0.5c0.4,0,0.8,0.1,1,0.3c0.3,0.2,0.4,0.5,0.4,0.9V66.4z
		 M573.3,69.1l-0.9-2.3v2.3h-1v-6h1v3.1l0.8-1.5h1.1l-1.1,1.8l1.2,2.6H573.3z M575.6,69.1h-1V68h1V69.1z M579,66.4h-1v-0.5
		c0-0.1,0-0.5-0.4-0.5c-0.4,0-0.4,0.4-0.4,0.6v1.9c0,0.2,0,0.6,0.4,0.6c0.4,0,0.4-0.4,0.4-0.6v-0.5h1v0.5c0,0.9-0.5,1.3-1.4,1.3
		c-0.2,0-0.7,0-1-0.3c-0.3-0.3-0.4-0.6-0.4-1V66c0-0.3,0.1-0.6,0.2-0.8c0.3-0.3,0.7-0.5,1.2-0.5c0.4,0,0.8,0.1,1,0.3
		c0.3,0.2,0.4,0.5,0.4,0.9V66.4z M582.3,67.9c0,0.8-0.5,1.2-1.4,1.2c-1.3,0-1.3-1-1.3-1.3v-1.9c0-0.5,0.2-1.2,1.4-1.2
		c0.3,0,0.7,0.1,0.9,0.2c0.4,0.3,0.4,0.6,0.4,1V67.9z M587.5,69.1h-1v-3.3c0-0.2,0-0.5-0.4-0.5c-0.3,0-0.4,0.2-0.4,0.5v3.2h-1v-3.3
		c0-0.2,0-0.5-0.4-0.5c-0.3,0-0.4,0.2-0.4,0.5v3.3h-1v-4.4h1V65c0.2-0.2,0.4-0.4,0.8-0.4c0.4,0,0.7,0.2,0.8,0.4
		c0.3-0.2,0.5-0.4,1-0.4c0.3,0,0.5,0.1,0.6,0.2c0.2,0.2,0.2,0.5,0.2,0.7V69.1z M589.1,69.1h-1V68h1V69.1z M592.5,66.4h-1v-0.5
		c0-0.1,0-0.5-0.4-0.5c-0.4,0-0.4,0.4-0.4,0.6v1.9c0,0.2,0,0.6,0.4,0.6c0.4,0,0.4-0.4,0.4-0.6v-0.5h1v0.5c0,0.9-0.5,1.3-1.4,1.3
		c-0.2,0-0.7,0-1-0.3c-0.3-0.3-0.4-0.6-0.4-1V66c0-0.3,0.1-0.6,0.2-0.8c0.3-0.3,0.7-0.5,1.2-0.5c0.4,0,0.8,0.1,1,0.3
		c0.3,0.2,0.3,0.5,0.3,0.9V66.4z M595.8,67.9c0,0.8-0.5,1.2-1.4,1.2c-1.3,0-1.3-1-1.3-1.3v-1.9c0-0.5,0.2-1.2,1.4-1.2
		c0.3,0,0.7,0.1,0.9,0.2c0.4,0.3,0.4,0.6,0.4,1V67.9z"/>
	<path fill="#FFFFFF" d="M521.6,7.5c-4.5,0-4.5,4.1-4.5,7v26.8c0,3,0.1,6.5,4.5,6.5c4.3,0,4.3-3.7,4.3-6.2V14.1
		C525.9,11.3,525.9,7.5,521.6,7.5z"/>
	<path fill="#FFFFFF" d="M594.5,65.3c-0.4,0-0.4,0.3-0.4,0.5V68c0,0.1,0,0.4,0.3,0.4c0.4,0,0.4-0.3,0.4-0.4v-2.2
		C594.8,65.6,594.8,65.3,594.5,65.3z"/>
	<path fill="#FFFFFF" d="M580.9,65.3c-0.4,0-0.4,0.3-0.4,0.5V68c0,0.1,0,0.4,0.4,0.4c0.4,0,0.4-0.3,0.4-0.4v-2.2
		C581.3,65.6,581.2,65.3,580.9,65.3z"/>
</g>
<g>
</g>
<g>
</g>
<g>
</g>
<g>
</g>
<g>
</g>
<g>
</g>
<g>
</g>
<g>
</g>
<g>
</g>
<g>
</g>
<g>
</g>
<g>
</g>
<g>
</g>
<g>
</g>
<g>
</g>
</svg>
