<?xml version="1.0" encoding="utf-8"?>
<!-- Generator: Adobe Illustrator 18.0.0, SVG Export Plug-In . SVG Version: 6.00 Build 0)  -->
<!DOCTYPE svg PUBLIC "-//W3C//DTD SVG 1.1//EN" "http://www.w3.org/Graphics/SVG/1.1/DTD/svg11.dtd">
<svg version="1.1" id="Layer_1" xmlns="http://www.w3.org/2000/svg" xmlns:xlink="http://www.w3.org/1999/xlink" x="0px" y="0px"
	 viewBox="0 0 107.8 107.8" style="enable-background:new 0 0 107.8 107.8;" xml:space="preserve">
<style type="text/css">
	.st0{fill-rule:evenodd;clip-rule:evenodd;fill:#FFD55B;}
	.st1{fill:#00B99A;}
	.st2{fill:none;stroke:#C5412E;stroke-width:6;stroke-linecap:round;stroke-linejoin:round;stroke-miterlimit:10;}
</style>
<circle class="st0" cx="53.9" cy="53.9" r="53.9"/>
<g>
	<g>
		<path class="st1" d="M54.9,33c-0.7,0-1.4,0.3-1.9,0.8l-14.3,9.1H27.5c-0.7,0-1.4,0.3-1.9,0.8c-0.5,0.5-0.8,1.2-0.8,1.9v16.5
			c0,0.7,0.3,1.4,0.8,1.9c0.5,0.5,1.2,0.8,1.9,0.8h11.2L53,74c0.5,0.5,1.2,0.8,1.9,0.8c0.7,0,1.4-0.3,1.9-0.8
			c0.5-0.5,0.8-1.2,0.8-1.9V35.7c0-0.7-0.3-1.4-0.8-1.9C56.3,33.2,55.6,33,54.9,33z"/>
		<path class="st1" d="M70.3,60c1.2-1.9,1.8-3.9,1.8-6.1c0-2.2-0.6-4.2-1.8-6.1c-1.2-1.9-2.8-3.2-4.8-4c-0.3-0.1-0.6-0.2-1.1-0.2
			c-0.7,0-1.4,0.3-1.9,0.8c-0.5,0.5-0.8,1.2-0.8,2c0,0.6,0.2,1.1,0.5,1.5c0.3,0.4,0.8,0.8,1.2,1.1s1,0.6,1.5,1
			c0.5,0.4,0.9,0.9,1.2,1.5c0.3,0.7,0.5,1.5,0.5,2.4c0,1-0.2,1.8-0.5,2.4c-0.3,0.7-0.8,1.2-1.2,1.5c-0.5,0.4-1,0.7-1.5,1
			c-0.5,0.3-0.9,0.7-1.2,1.1c-0.3,0.4-0.5,0.9-0.5,1.5c0,0.8,0.3,1.4,0.8,2c0.5,0.5,1.2,0.8,1.9,0.8c0.4,0,0.8-0.1,1.1-0.2
			C67.5,63.2,69.1,61.9,70.3,60z"/>
		<path class="st1" d="M69.8,33.7c-0.4-0.1-0.7-0.2-1.1-0.2c-0.7,0-1.4,0.3-1.9,0.8c-0.5,0.5-0.8,1.2-0.8,1.9c0,1.1,0.6,2,1.7,2.5
			c1.6,0.8,2.7,1.5,3.3,1.9c2.1,1.5,3.8,3.5,5,5.8c1.2,2.3,1.8,4.8,1.8,7.4c0,2.6-0.6,5.1-1.8,7.4c-1.2,2.3-2.8,4.3-5,5.8
			c-0.6,0.4-1.7,1.1-3.3,1.9c-1.1,0.6-1.7,1.4-1.7,2.5c0,0.7,0.3,1.4,0.8,1.9c0.5,0.5,1.2,0.8,2,0.8c0.3,0,0.7-0.1,1.1-0.2
			c4-1.7,7.2-4.4,9.7-8.1c2.4-3.7,3.6-7.7,3.6-12.1c0-4.4-1.2-8.4-3.6-12.1C77,38.1,73.8,35.4,69.8,33.7z"/>
	</g>
</g>
<line class="st2" x1="72.7" y1="24.4" x2="35.2" y2="83.4"/>
</svg>
