<?xml version="1.0" encoding="utf-8"?>
<!-- Generator: Adobe Illustrator 18.0.0, SVG Export Plug-In . SVG Version: 6.00 Build 0)  -->
<!DOCTYPE svg PUBLIC "-//W3C//DTD SVG 1.1//EN" "http://www.w3.org/Graphics/SVG/1.1/DTD/svg11.dtd">
<svg version="1.1" id="Layer_1" xmlns="http://www.w3.org/2000/svg" xmlns:xlink="http://www.w3.org/1999/xlink" x="0px" y="0px"
	 viewBox="-2.5 87.5 617 617" enable-background="new -2.5 87.5 617 617" xml:space="preserve">
<circle fill="#FFD55B" stroke="#00B99A" stroke-width="5" stroke-miterlimit="10" cx="306" cy="396" r="306"/>
<g>
	<g>
		<path fill="#00B99A" d="M311.7,277.3c-4,0-7.9,1.7-10.8,4.5l-81.2,51.7h-63.6c-4,0-7.9,1.7-10.8,4.5c-2.8,2.8-4.5,6.8-4.5,10.8
			v93.7c0,4,1.7,7.9,4.5,10.8c2.8,2.8,6.8,4.5,10.8,4.5h63.6l81.2,52.2c2.8,2.8,6.8,4.5,10.8,4.5s7.9-1.7,10.8-4.5s4.5-6.8,4.5-10.8
			V292.7c0-4-1.7-7.9-4.5-10.8C319.6,278.5,315.7,277.3,311.7,277.3z"/>
		<path fill="#00B99A" d="M399.1,430.6c6.8-10.8,10.2-22.1,10.2-34.6c0-12.5-3.4-23.8-10.2-34.6c-6.8-10.8-15.9-18.2-27.3-22.7
			c-1.7-0.6-3.4-1.1-6.2-1.1c-4,0-7.9,1.7-10.8,4.5s-4.5,6.8-4.5,11.4c0,3.4,1.1,6.2,2.8,8.5c1.7,2.3,4.5,4.5,6.8,6.2
			c2.3,1.7,5.7,3.4,8.5,5.7c2.8,2.3,5.1,5.1,6.8,8.5c1.7,4,2.8,8.5,2.8,13.6c0,5.7-1.1,10.2-2.8,13.6c-1.7,4-4.5,6.8-6.8,8.5
			c-2.8,2.3-5.7,4-8.5,5.7c-2.8,1.7-5.1,4-6.8,6.2c-1.7,2.3-2.8,5.1-2.8,8.5c0,4.5,1.7,7.9,4.5,11.4c2.8,2.8,6.8,4.5,10.8,4.5
			c2.3,0,4.5-0.6,6.2-1.1C383.2,448.8,392.3,441.4,399.1,430.6z"/>
		<path fill="#00B99A" d="M396.3,281.3c-2.3-0.6-4-1.1-6.2-1.1c-4,0-7.9,1.7-10.8,4.5s-4.5,6.8-4.5,10.8c0,6.2,3.4,11.4,9.7,14.2
			c9.1,4.5,15.3,8.5,18.7,10.8c11.9,8.5,21.6,19.9,28.4,32.9c6.8,13.1,10.2,27.3,10.2,42s-3.4,29-10.2,42
			c-6.8,13.1-15.9,24.4-28.4,32.9c-3.4,2.3-9.7,6.2-18.7,10.8c-6.2,3.4-9.7,7.9-9.7,14.2c0,4,1.7,7.9,4.5,10.8s6.8,4.5,11.4,4.5
			c1.7,0,4-0.6,6.2-1.1c22.7-9.7,40.9-25,55.1-46c13.6-21,20.4-43.7,20.4-68.7s-6.8-47.7-20.4-68.7C437.1,306.3,419,291,396.3,281.3
			z"/>
	</g>
</g>
<line fill="none" stroke="#C5412E" stroke-width="6" stroke-linecap="round" stroke-linejoin="round" stroke-miterlimit="10" x1="412.7" y1="228.5" x2="199.8" y2="563.5"/>
</svg>
