<?xml version="1.0" encoding="utf-8"?>
<!-- Generator: Adobe Illustrator 18.0.0, SVG Export Plug-In . SVG Version: 6.00 Build 0)  -->
<!DOCTYPE svg PUBLIC "-//W3C//DTD SVG 1.1//EN" "http://www.w3.org/Graphics/SVG/1.1/DTD/svg11.dtd">
<svg version="1.1" id="Layer_1" xmlns="http://www.w3.org/2000/svg" xmlns:xlink="http://www.w3.org/1999/xlink" x="0px" y="0px"
	 viewBox="0 0 753 390" style="enable-background:new 0 0 753 390;" xml:space="preserve">
<style type="text/css">
	.st0{fill:#4A2246;}
	.st1{fill:#BE4227;}
	.st2{fill:#12826D;}
</style>
<g>
	
		<image style="overflow:visible;" width="2550" height="1100" xlink:href="2908339CE58A15BD.png"  transform="matrix(0.2981 -4.781800e-02 6.079800e-02 0.379 -51.6163 57.9707)">
	</image>
</g>
<g>
	<g>
		<g>
			<path class="st0" d="M161.3,154.6c2-0.2,4,0,5.9,0.5c1.9,0.6,3.5,1.5,5,2.7c1.5,1.2,2.6,2.7,3.5,4.4c0.9,1.7,1.4,3.6,1.5,5.7
				c0.1,2.7-0.3,5.1-1.3,7.4c-1,2.3-2.4,4.4-4.1,6.2c-1.7,1.8-3.7,3.4-5.9,4.7c-2.2,1.3-4.5,2.3-6.9,2.9c-0.9,0.3-1.6,0.5-2.2,0.7
				c-0.6,0.1-1.3-0.1-2.1-0.6c-0.4-0.4-0.9-0.9-1.2-1.4c-0.4-0.5-0.7-1-0.9-1.6c-0.2-0.6-0.2-1.1-0.2-1.7c0.1-0.6,0.3-1.1,0.8-1.7
				c0.8-0.9,1.7-1.7,2.9-2.2c1.1-0.6,2.3-1.1,3.4-1.6c1-0.6,2-1.2,3-1.9c1-0.6,1.9-1.4,2.7-2.4c0.5-0.7,1-1.5,1.5-2.6
				c0.5-1.1,0.7-2.1,0.8-3.2c0.1-1.1-0.1-2-0.5-2.9c-0.4-0.9-1.3-1.5-2.6-1.8c-0.9-0.3-1.8-0.3-2.9-0.1c-1,0.2-2,0.3-2.9,0.4
				l-1.3,0.1c0.3,0.7,0.5,1.7,0.5,2.8c0,1.2-0.3,2.6-1,4.3l-11.6,33.1c-2.1,0.5-3.8,0.5-5.1,0.1c-0.6-0.2-1.1-0.5-1.6-0.9
				c-0.5-0.4-0.8-1-1.1-1.7c-0.2-0.7-0.3-1.7-0.2-2.8c0.1-1.1,0.4-2.5,1-4.2l10.6-29.9l-2.8,0.3c-0.6-0.5-1.1-1.1-1.6-1.8
				c-0.5-0.7-0.8-1.4-1-2.1c-0.3-1-0.2-1.8,0.3-2.5c0.4-0.7,1-1.3,1.7-1.7c0.7-0.5,1.5-0.8,2.5-1.1c0.9-0.3,1.7-0.5,2.4-0.7
				c1.8-0.3,3.6-0.6,5.5-0.8C157.6,154.9,159.5,154.8,161.3,154.6z"/>
			<path class="st0" d="M203.3,152.1c1.7-1.2,3.3-1.8,4.7-1.9c0.6,0,1.2,0.1,1.8,0.3c0.6,0.2,1.1,0.6,1.6,1.3
				c0.5,0.6,0.9,1.5,1.2,2.6c0.3,1.1,0.5,2.5,0.6,4.1l1.9,36.7c-1.8,1.4-3.4,2.1-4.8,2.2c-0.6,0.1-1.2,0-1.8-0.2
				c-0.6-0.2-1.1-0.6-1.6-1.3c-0.5-0.6-0.9-1.5-1.2-2.7c-0.3-1.2-0.5-2.6-0.6-4.4l0-1.4c-0.4,0.3-0.8,0.5-1.4,0.7
				c-0.6,0.2-1.2,0.3-2,0.4l-9.9,1.1l-7.4,11.8c-2.1,0.3-3.8,0.1-5-0.4c-0.5-0.2-1-0.6-1.3-1.1c-0.4-0.5-0.6-1.1-0.6-1.9
				c-0.1-0.8,0.1-1.8,0.4-2.9c0.4-1.1,1-2.5,1.9-4.1l-1.2,0.1c-0.9-1.7-1.4-3.2-1.6-4.6c-0.1-1.2,0.1-2.3,0.7-3.4
				c0.6-1.1,2-1.7,4.1-2l4.3-0.5l17-27.2L203.3,152.1z M204.6,178.6l-0.6-8.6l-5.7,9.3L204.6,178.6z"/>
			<path class="st0" d="M256.2,155c0.8,2.4,0.8,4.8,0.1,7.2c-0.7,2.3-1.9,4.4-3.6,6.2c-1.6,1.6-3.4,2.9-5.4,3.9
				c-2,1-4.1,1.8-6.3,2.3l9.2,15.7c-1.2,1.5-2.4,2.7-3.6,3.3c-1,0.6-2.1,0.9-3.3,0.8c-1.2-0.1-2.3-0.9-3.3-2.6l-8.4-14.4l-6.7,18.9
				c-2.1,0.5-3.8,0.5-5.1,0.1c-0.6-0.2-1.1-0.5-1.6-0.9c-0.5-0.4-0.8-1-1.1-1.7c-0.2-0.7-0.3-1.7-0.2-2.8c0.1-1.1,0.4-2.5,1-4.2
				l10.6-29.9l-3,0.3c-0.6-0.5-1.1-1.1-1.5-1.8c-0.4-0.7-0.7-1.4-0.9-2.2c-0.2-0.9-0.1-1.7,0.3-2.4c0.4-0.7,1-1.2,1.7-1.7
				c0.7-0.5,1.5-0.8,2.4-1.1c0.9-0.3,1.7-0.5,2.4-0.7c1.8-0.3,3.6-0.6,5.4-0.8c1.8-0.2,3.6-0.3,5.3-0.5c1.7-0.2,3.4-0.1,5,0.1
				c1.6,0.3,3.2,0.8,4.6,1.6c1.4,0.8,2.6,1.7,3.7,3C255,151.9,255.8,153.4,256.2,155z M247.2,159c0.1-1.2-0.3-2-1.2-2.6
				c-0.9-0.6-1.8-0.9-2.9-0.9c-0.9,0-1.7,0.1-2.5,0.2c-0.8,0.1-1.7,0.3-2.5,0.3l-1,0.1c0.3,0.7,0.5,1.7,0.5,2.8c0,1.2-0.4,2.6-1,4.3
				l-1.3,3.5l2.1-0.7c1.1-0.5,2.2-0.9,3.4-1.2c1.2-0.4,2.3-0.9,3.2-1.5c0.8-0.5,1.5-1.1,2.1-1.8C246.7,160.7,247.1,159.9,247.2,159z
				"/>
			<path class="st0" d="M282,143.6c1.7-1.2,3.3-1.8,4.7-1.9c0.6,0,1.2,0.1,1.8,0.3c0.6,0.2,1.1,0.6,1.6,1.3c0.5,0.6,0.9,1.5,1.2,2.6
				c0.3,1.1,0.5,2.5,0.6,4.1l1.9,36.7c-1.8,1.3-3.4,2.1-4.8,2.2c-0.6,0.1-1.2,0-1.8-0.2c-0.6-0.2-1.1-0.6-1.6-1.3
				c-0.5-0.6-0.9-1.5-1.2-2.7c-0.3-1.1-0.5-2.6-0.6-4.4l0-1.4c-0.4,0.3-0.8,0.5-1.4,0.7c-0.6,0.2-1.2,0.3-2,0.4l-9.9,1.1l-7.4,11.8
				c-2.1,0.3-3.8,0.1-5-0.4c-0.5-0.2-1-0.6-1.3-1.1c-0.4-0.5-0.6-1.1-0.6-1.9c-0.1-0.8,0.1-1.8,0.4-2.9c0.4-1.1,1-2.5,1.9-4.1
				l-1.2,0.1c-0.9-1.7-1.4-3.2-1.6-4.6c-0.1-1.2,0.1-2.3,0.7-3.4c0.6-1.1,2-1.7,4.1-2l4.3-0.5l17-27.2L282,143.6z M283.4,170.1
				l-0.6-8.6l-5.7,9.3L283.4,170.1z"/>
			<path class="st0" d="M349.9,136.3c1.7-1.2,3.3-1.8,4.7-1.9c0.6,0,1.2,0.1,1.8,0.3c0.6,0.2,1.1,0.6,1.6,1.3
				c0.5,0.6,0.9,1.5,1.2,2.6c0.3,1.1,0.5,2.5,0.6,4.1l1.9,36.7c-1.8,1.4-3.4,2.1-4.8,2.2c-0.6,0.1-1.2,0-1.8-0.2
				c-0.6-0.2-1.1-0.6-1.6-1.3c-0.5-0.6-0.9-1.5-1.2-2.7c-0.3-1.1-0.5-2.6-0.6-4.4l0-1.4c-0.4,0.3-0.8,0.5-1.4,0.7
				c-0.6,0.2-1.2,0.3-2,0.4l-9.9,1.1l-7.4,11.8c-2.1,0.3-3.8,0.1-5-0.4c-0.5-0.2-1-0.6-1.3-1.1c-0.4-0.5-0.6-1.1-0.6-1.9
				c-0.1-0.8,0.1-1.8,0.4-2.9c0.4-1.1,1-2.5,1.9-4.1l-1.2,0.1c-0.9-1.7-1.4-3.2-1.6-4.6c-0.1-1.2,0.1-2.3,0.7-3.4
				c0.6-1.1,2-1.7,4.1-1.9l4.3-0.5l17-27.2L349.9,136.3z M351.2,162.8l-0.6-8.6l-5.7,9.3L351.2,162.8z"/>
			<path class="st0" d="M399.8,130.2c0.5,0.3,1,0.7,1.4,1.2c0.4,0.5,0.6,1.2,0.6,2c0,0.9-0.1,1.9-0.5,3.1c-0.4,1.2-1.1,2.7-2,4.4
				l-19.8,34.7l0,1.8c-1.8,1.2-3.4,1.7-4.8,1.7c-0.6,0-1.2-0.1-1.8-0.4c-0.6-0.3-1.1-0.7-1.6-1.3c-0.5-0.6-0.8-1.5-1.1-2.6
				c-0.3-1.1-0.4-2.5-0.4-4.1l-0.3-36.3c1.8-1.3,3.4-1.9,4.8-2c0.6,0,1.2,0.1,1.8,0.3c0.6,0.2,1.1,0.7,1.5,1.3
				c0.4,0.6,0.8,1.5,1.1,2.7c0.3,1.2,0.4,2.6,0.5,4.4l0.2,15.3l15.2-27C396.8,129.3,398.6,129.5,399.8,130.2z"/>
			<path class="st0" d="M424.4,128.3c1.7-1.2,3.3-1.8,4.7-1.9c0.6,0,1.2,0.1,1.8,0.3c0.6,0.2,1.1,0.6,1.6,1.3
				c0.5,0.6,0.9,1.5,1.2,2.6c0.3,1.1,0.5,2.5,0.6,4.1l1.9,36.7c-1.8,1.4-3.4,2.1-4.8,2.2c-0.6,0.1-1.2,0-1.8-0.2
				c-0.6-0.2-1.1-0.6-1.6-1.3c-0.5-0.6-0.9-1.5-1.2-2.7c-0.3-1.1-0.5-2.6-0.6-4.4l0-1.4c-0.4,0.3-0.8,0.5-1.4,0.7
				c-0.6,0.2-1.2,0.3-2,0.4l-9.9,1.1l-7.4,11.8c-2.1,0.3-3.8,0.1-5-0.4c-0.5-0.2-1-0.6-1.3-1.1c-0.4-0.5-0.6-1.1-0.6-1.9
				c-0.1-0.8,0.1-1.8,0.4-2.9c0.4-1.1,1-2.5,1.9-4.1l-1.2,0.1c-0.9-1.7-1.4-3.2-1.6-4.6c-0.1-1.2,0.1-2.3,0.7-3.4
				c0.6-1.1,2-1.7,4.1-1.9l4.3-0.5l17-27.2L424.4,128.3z M425.7,154.8l-0.6-8.6l-5.7,9.3L425.7,154.8z"/>
			<path class="st0" d="M468.9,167.2l-0.1,0c-0.2,0.2-0.5,0.6-1,1c-0.5,0.5-1,0.9-1.6,1.2c-0.6,0.3-1.3,0.6-2.1,0.7
				c-0.7,0.1-1.5-0.1-2.2-0.5c-0.8-0.4-1.5-1.2-2.1-2.3c-0.6-1.1-1.2-2.8-1.6-4.9l-3.2-15.3l-8.9,25.5c-2.1,0.4-3.8,0.4-5.1,0
				c-0.6-0.2-1.1-0.5-1.6-0.9c-0.5-0.4-0.8-0.9-1-1.6c-0.2-0.7-0.3-1.5-0.2-2.6c0.1-1,0.4-2.3,0.9-3.8l10.7-30.3l0.7-0.1
				c0.2,0,0.5,0,0.8,0c0.3,0,0.6,0,0.9,0l-1.4-7.3c1.5-1.4,3-2.2,4.4-2.4c0.6-0.1,1.2-0.1,1.8,0.1c0.6,0.2,1.2,0.5,1.8,1.1
				c0.6,0.5,1.1,1.3,1.6,2.4c0.5,1,0.9,2.4,1.3,4l3.6,17.9l10.1-28.7c2-0.5,3.7-0.4,5.1,0.1c0.5,0.2,1,0.6,1.5,1.1
				c0.5,0.5,0.8,1.1,1,1.9c0.2,0.8,0.3,1.8,0.1,3c-0.1,1.2-0.5,2.6-1.1,4.3l-12.9,36.5L468.9,167.2z"/>
			<path class="st0" d="M519.9,116c1,1.7,1.6,3.3,1.8,4.6c0.1,0.6,0,1.2-0.1,1.8c-0.1,0.6-0.4,1.1-0.7,1.6c-0.4,0.5-0.9,0.9-1.7,1.3
				c-0.7,0.4-1.7,0.6-2.9,0.7l-0.3,0c0.2,0.9,0.2,2-0.1,3.3c-0.3,1.3-1.2,2.9-2.7,4.7l-19,24.4l17.3-1.9c1,1.7,1.7,3.3,1.9,4.6
				c0.1,0.6,0,1.2-0.1,1.8c-0.1,0.6-0.4,1.1-0.8,1.6c-0.4,0.5-1,0.9-1.8,1.3c-0.8,0.4-1.8,0.6-3.1,0.7l-26.3,2.8
				c-0.9-1.6-1.5-3-1.7-4.3c-0.1-0.5-0.1-1.1,0-1.7c0.1-0.6,0.3-1.1,0.6-1.6c0.3-0.5,0.8-0.9,1.4-1.4c0.6-0.4,1.4-0.7,2.4-0.9
				c-0.2-0.8-0.1-1.9,0.4-3.1c0.4-1.3,1.4-2.8,2.8-4.5l19.3-24.7l-14.4,1.6c-0.9-1.7-1.5-3.3-1.6-4.7c-0.1-1.2,0.1-2.3,0.8-3.4
				c0.7-1.1,2.1-1.7,4.3-2L519.9,116z"/>
			<path class="st0" d="M544.8,115.4c1.7-1.2,3.3-1.8,4.7-1.9c0.6,0,1.2,0.1,1.8,0.3c0.6,0.2,1.1,0.6,1.6,1.3
				c0.5,0.6,0.9,1.5,1.2,2.6c0.3,1.1,0.5,2.5,0.6,4.1l1.9,36.7c-1.8,1.4-3.4,2.1-4.8,2.2c-0.6,0.1-1.2,0-1.8-0.2
				c-0.6-0.2-1.1-0.6-1.6-1.3c-0.5-0.6-0.9-1.5-1.2-2.7c-0.3-1.1-0.5-2.6-0.6-4.4l0-1.4c-0.4,0.3-0.8,0.5-1.4,0.7
				c-0.6,0.2-1.2,0.3-2,0.4l-9.9,1.1l-7.4,11.8c-2.1,0.3-3.8,0.1-5-0.4c-0.5-0.2-1-0.6-1.3-1.1c-0.4-0.5-0.6-1.1-0.6-1.9
				c-0.1-0.8,0.1-1.8,0.4-2.9c0.4-1.1,1-2.5,1.9-4.1l-1.2,0.1c-0.9-1.7-1.4-3.2-1.6-4.6c-0.1-1.2,0.1-2.3,0.7-3.4
				c0.6-1.1,2-1.7,4.1-1.9l4.3-0.5l17-27.2L544.8,115.4z M546.2,141.8l-0.6-8.6l-5.7,9.3L546.2,141.8z"/>
			<path class="st0" d="M597.8,118.3c0.8,2.4,0.8,4.8,0.1,7.2c-0.7,2.3-1.9,4.4-3.6,6.2c-1.6,1.6-3.4,2.9-5.4,3.9
				c-2,1-4.1,1.8-6.3,2.3l9.2,15.7c-1.2,1.5-2.4,2.7-3.6,3.3c-1,0.6-2.1,0.9-3.3,0.8c-1.2-0.1-2.3-0.9-3.3-2.6l-8.4-14.4l-6.7,18.9
				c-2.1,0.5-3.8,0.5-5.1,0.1c-0.6-0.2-1.1-0.5-1.6-0.9c-0.5-0.4-0.8-1-1.1-1.7c-0.2-0.7-0.3-1.7-0.2-2.8c0.1-1.1,0.4-2.5,1-4.2
				l10.6-29.9l-3,0.3c-0.6-0.5-1.1-1.1-1.5-1.8c-0.4-0.7-0.7-1.4-0.9-2.2c-0.2-0.9-0.1-1.7,0.3-2.4c0.4-0.7,1-1.2,1.7-1.7
				c0.7-0.5,1.5-0.8,2.4-1.1c0.9-0.3,1.7-0.5,2.4-0.7c1.8-0.3,3.6-0.6,5.4-0.8c1.8-0.2,3.6-0.3,5.3-0.5c1.7-0.2,3.4-0.1,5,0.1
				c1.6,0.3,3.2,0.8,4.6,1.6c1.4,0.8,2.6,1.7,3.7,3C596.5,115.2,597.3,116.6,597.8,118.3z M588.8,122.3c0.1-1.2-0.3-2-1.2-2.6
				c-0.9-0.6-1.8-0.9-2.9-0.9c-0.9,0-1.7,0.1-2.6,0.2c-0.8,0.1-1.7,0.3-2.5,0.3l-1,0.1c0.3,0.7,0.5,1.7,0.5,2.8c0,1.2-0.4,2.6-1,4.3
				l-1.3,3.5l2.1-0.7c1.1-0.5,2.2-0.9,3.4-1.2c1.2-0.4,2.3-0.9,3.2-1.5c0.8-0.5,1.5-1.1,2.1-1.8C588.3,124,588.7,123.2,588.8,122.3z
				"/>
		</g>
		<g>
			<g>
				<path class="st1" d="M193.3,204.2c1.6,0,3.1,0.4,4.6,0.9c1.5,0.6,2.8,1.5,3.8,2.7c1.2,1.3,1.9,2.9,2.2,4.6
					c0.3,1.7,0.3,3.4,0,5.1c-0.3,1.8-0.7,3.5-1.4,5.1c-0.7,1.6-1.6,3.2-2.6,4.6s-2.2,2.8-3.6,3.9c-1.4,1.2-2.8,2.2-4.4,3.1
					c-1.3,0.7-2.6,1.2-3.9,1.6c-1.3,0.4-2.7,0.7-4.1,0.8l-6.4,0.4c-0.2,0-0.4-0.1-0.7-0.3c-0.3-0.2-0.5-0.4-0.6-0.5
					c-0.2-0.2-0.4-0.4-0.6-0.6c-0.2-0.2-0.4-0.5-0.5-0.7c-0.1-0.3-0.2-0.5-0.3-0.8c0-0.3,0-0.5,0.1-0.8c0.2-0.5,0.7-0.9,1.3-1.2
					c0.6-0.3,1.2-0.5,1.8-0.6c0.6-0.3,1.2-0.4,1.8-0.5c-0.6-0.3-1-0.9-1.2-1.7c-0.2-0.8,0-1.9,0.7-3.3l6.1-15.1l-0.3,0
					c-0.2-0.1-0.4-0.3-0.6-0.5c-0.4-0.4-0.8-0.8-1.2-1.3c-0.4-0.5-0.5-1-0.4-1.6c0.1-0.6,0.5-1,1-1.3c0.6-0.3,1.1-0.6,1.7-0.8
					c1.2-0.4,2.5-0.7,3.8-0.9C190.6,204.3,192,204.2,193.3,204.2z M197.9,216.1c0.1-0.8,0.1-1.7-0.1-2.5c-0.1-0.8-0.5-1.5-1.1-2.1
					c-0.5-0.4-1.1-0.7-1.8-0.8c-0.7-0.2-1.4-0.2-2-0.2l-2,0.1c0.5,0.9,0.4,2.1-0.3,3.8l-6.5,16.1c0.4,0,0.8-0.1,1.3-0.3
					c1.5-0.4,3-1,4.4-1.9c1.4-0.9,2.6-1.9,3.6-3c1.2-1.2,2.2-2.7,3-4.2C197.1,219.4,197.6,217.8,197.9,216.1z"/>
				<path class="st1" d="M230.7,201.9c0.7,1.1,1,2.2,1.1,3.1c0,0.4,0,0.8-0.1,1.2c-0.1,0.4-0.3,0.7-0.6,1c-0.3,0.3-0.7,0.6-1.2,0.8
					c-0.5,0.2-1.2,0.3-2.1,0.4l-10.1,0.6c0.2,0.4,0.3,0.9,0.2,1.6c0,0.6-0.2,1.4-0.6,2.2l-1.4,3.4l7.1-0.4c0.4,1.2,0.6,2.2,0.6,3.1
					c0,0.8,0,1.5-0.3,2.2c-0.2,0.7-0.7,1-1.5,1.1l-7.9,0.5c0-0.1,0-0.2-0.1-0.3c-0.1-0.2-0.1-0.5-0.2-0.8l-3,7.3l11.7-0.7
					c0.6,1.1,1,2.2,1.1,3.1c0,0.4,0,0.8-0.1,1.2c-0.1,0.4-0.3,0.7-0.6,1c-0.3,0.3-0.7,0.6-1.2,0.8c-0.5,0.2-1.2,0.3-2,0.4l-17.2,1
					c-0.6-1.1-0.9-2.1-0.9-3c0-0.8,0.2-1.5,0.7-2.2c0.5-0.7,1.5-1.1,3.1-1.2l0.6,0c-0.4-0.4-0.6-1-0.7-1.7c-0.1-0.7,0.1-1.7,0.7-2.9
					l6.1-15.1l-1.4,0.1c-0.6-1.1-0.9-2.2-0.9-3.1c0-0.8,0.2-1.5,0.7-2.2c0.5-0.7,1.5-1.1,3.1-1.2L230.7,201.9z"/>
				<path class="st1" d="M243.7,201.5c1.6-0.2,3.2,0.1,4.6,0.8c1.4,0.7,2.5,1.8,3.1,3.3c0.3,0.8,0.4,1.6,0.4,2.5
					c0,0.8-0.2,1.6-0.5,2.4c-0.1,0.3-0.2,0.6-0.3,0.9s-0.3,0.6-0.5,0.8c0,0.1-0.1,0.2-0.2,0.3c-0.1,0.1-0.2,0.3-0.3,0.4
					c-0.1,0.2-0.3,0.4-0.5,0.6c-0.1,0.1-0.3,0.2-0.5,0.3c-0.2,0.1-0.5,0.1-0.8,0.1c-0.3,0-0.5,0-0.8,0c-0.3,0-0.5-0.1-0.6-0.1
					c-0.5-0.1-0.8-0.3-1.1-0.6c-0.3-0.3-0.4-0.7-0.4-1.2c0-0.3,0.1-0.6,0.3-1.1c0.2-0.5,0.3-0.9,0.4-1.3c0.1-0.4,0.1-0.8,0.1-1.2
					c-0.1-0.3-0.3-0.5-0.8-0.6c-0.5-0.1-0.9,0-1.4,0.1c-0.5,0.2-1,0.4-1.4,0.6c-0.5,0.3-0.9,0.5-1.3,0.9c-0.4,0.3-0.8,0.6-1.1,0.8
					c-0.6,0.5-1.2,1.1-1.8,1.8c-0.6,0.7-1,1.5-1.2,2.3c0.7,0.3,1.4,0.4,2.2,0.4c0.8-0.1,1.5-0.1,2.3,0c1.2,0.1,2.3,0.4,3.3,0.8
					c1.1,0.4,2,1.1,2.8,1.9c0.9,0.9,1.5,1.9,1.9,2.9c0.3,1,0.4,2.1,0.3,3.2s-0.5,2.1-1,3.1c-0.6,1-1.3,1.9-2.1,2.7
					c-0.8,0.8-1.8,1.5-2.9,2.1c-1.1,0.7-2.2,1.2-3.4,1.7c-1.2,0.4-2.4,0.8-3.6,0.9c-1.2,0.2-2.4,0.1-3.6-0.1c-0.8-0.2-1.6-0.5-2.5-1
					c-0.9-0.5-1.7-1-2.3-1.7c-0.6-0.7-1.1-1.4-1.3-2.3s0-1.7,0.5-2.7c0.2-0.3,0.4-0.6,0.7-0.8c0.3-0.2,0.6-0.4,0.9-0.5
					c0.3-0.1,0.6-0.1,1,0c0.3,0.1,0.6,0.3,0.9,0.7c0.5,0.6,1,1.1,1.4,1.6c0.5,0.4,1.1,0.7,1.9,0.7c0.8,0.1,1.5,0,2.4-0.2
					c0.8-0.2,1.6-0.4,2.4-0.8c0.8-0.3,1.5-0.8,2.2-1.2c0.7-0.5,1.3-1,1.7-1.6c0.5-0.7,0.7-1.3,0.5-1.8c-0.2-0.6-0.7-1-1.6-1.3
					c-0.7-0.2-1.5-0.2-2.2-0.2c-0.8,0.1-1.5,0-2.2-0.1c-0.8-0.1-1.6-0.3-2.4-0.6c-0.8-0.3-1.5-0.7-2.1-1.2c-0.6-0.5-1.1-1.1-1.5-1.8
					c-0.4-0.7-0.6-1.5-0.7-2.3c-0.1-0.8,0-1.6,0.2-2.4c0.2-0.8,0.5-1.5,0.9-2.2c0.4-0.7,0.8-1.4,1.4-2c0.5-0.6,1.1-1.2,1.6-1.7
					c1.2-1.2,2.6-2.3,4.1-3.2C240.4,202.3,242.1,201.7,243.7,201.5z"/>
				<path class="st1" d="M269.1,225.3c0.6,1.1,0.9,2.2,1,3.1c0.1,0.8-0.1,1.5-0.6,2.2c-0.5,0.7-1.5,1-3,1.1l-15.7,1
					c-0.5-1.1-0.8-2.1-0.8-3c0-0.4,0-0.8,0.1-1.2c0.1-0.4,0.3-0.7,0.5-1c0.3-0.3,0.6-0.6,1.1-0.8c0.4-0.2,1-0.3,1.7-0.4l1.1-0.1
					c-0.4-0.5-0.6-1.1-0.7-2c-0.1-0.8,0.2-2,0.8-3.5l8.4-20.5c1.3-0.1,2.4,0,3.3,0.3c0.3,0.1,0.7,0.4,0.9,0.7
					c0.3,0.3,0.5,0.7,0.6,1.1c0.1,0.5,0.2,1,0.1,1.7c-0.1,0.7-0.3,1.5-0.7,2.4l-7.9,19.5L269.1,225.3z"/>
				<path class="st1" d="M285.2,199.1c0.3,0.2,0.6,0.4,0.9,0.7c0.3,0.3,0.5,0.7,0.6,1.3c0.1,0.5,0.1,1.2,0,2
					c-0.1,0.8-0.4,1.8-0.9,2.9l-10,24.6c-1.4,0.4-2.6,0.4-3.4,0.1c-0.4-0.1-0.7-0.4-1-0.7c-0.3-0.3-0.5-0.7-0.5-1.3s0-1.2,0.1-2.1
					c0.1-0.8,0.5-1.9,0.9-3.1l9.9-24.6C283.3,198.6,284.4,198.7,285.2,199.1z"/>
				<path class="st1" d="M312.3,197.5c0.6,1.1,0.9,2.2,1,3.1c0,0.4,0,0.8-0.1,1.2c-0.1,0.4-0.3,0.7-0.5,1c-0.3,0.3-0.6,0.6-1.1,0.8
					s-1.1,0.3-1.9,0.4l-0.2,0c0.1,0.6,0.1,1.3-0.2,2.1c-0.2,0.8-0.9,1.8-1.9,3l-13.1,15.3l11.3-0.7c0.6,1.1,1,2.2,1.1,3.1
					c0,0.4,0,0.8-0.1,1.2s-0.3,0.7-0.6,1c-0.3,0.3-0.7,0.5-1.2,0.8c-0.5,0.2-1.2,0.3-2,0.4l-17.2,1c-0.6-1-0.9-2-1-2.8
					c0-0.4,0-0.7,0.1-1.1c0.1-0.4,0.2-0.7,0.4-1c0.2-0.3,0.5-0.6,1-0.8c0.4-0.3,0.9-0.4,1.6-0.5c-0.1-0.6,0-1.2,0.3-2
					c0.3-0.8,1-1.8,2-2.9l13.3-15.5l-9.4,0.6c-0.6-1.1-0.9-2.2-0.9-3.1c0-0.8,0.2-1.5,0.6-2.2c0.5-0.7,1.4-1.1,2.9-1.2L312.3,197.5z
					"/>
				<path class="st1" d="M328.6,197.8c1.2-0.7,2.2-1.1,3.1-1.1c0.4,0,0.8,0.1,1.1,0.3c0.4,0.2,0.7,0.4,1,0.9c0.3,0.4,0.5,1,0.7,1.7
					c0.2,0.7,0.3,1.6,0.3,2.7l0.1,24c-1.2,0.8-2.2,1.2-3.2,1.3c-0.4,0-0.8,0-1.2-0.2c-0.4-0.2-0.7-0.4-1-0.9c-0.3-0.4-0.5-1-0.7-1.8
					c-0.2-0.8-0.3-1.7-0.3-2.9l0-0.9c-0.3,0.2-0.6,0.3-0.9,0.4c-0.4,0.1-0.8,0.1-1.3,0.2l-6.5,0.4l-5.1,7.4c-1.4,0.1-2.5,0-3.3-0.4
					c-0.3-0.2-0.6-0.4-0.8-0.7c-0.2-0.3-0.3-0.7-0.3-1.3c0-0.5,0.1-1.2,0.4-1.9s0.7-1.6,1.4-2.6l-0.8,0c-0.5-1.1-0.8-2.1-0.9-3
					c0-0.8,0.1-1.5,0.6-2.2c0.4-0.7,1.3-1.1,2.7-1.1l2.8-0.2l11.9-17.2L328.6,197.8z M328.6,215.1l-0.1-5.6l-4,5.9L328.6,215.1z"/>
				<path class="st1" d="M372.2,219.1c0.6,1.1,0.9,2.2,1,3.1c0.1,0.8-0.1,1.5-0.6,2.2c-0.5,0.7-1.5,1-3,1.1l-15.7,1
					c-0.5-1.1-0.8-2.1-0.8-3c0-0.4,0-0.8,0.1-1.2c0.1-0.4,0.3-0.7,0.5-1c0.3-0.3,0.6-0.6,1.1-0.8c0.4-0.2,1-0.3,1.7-0.4l1.1-0.1
					c-0.4-0.5-0.6-1.1-0.7-2c-0.1-0.8,0.2-2,0.8-3.5l8.4-20.5c1.3-0.1,2.4,0,3.3,0.3c0.3,0.1,0.7,0.4,0.9,0.7
					c0.3,0.3,0.5,0.7,0.6,1.1c0.1,0.5,0.2,1,0.1,1.7s-0.3,1.5-0.7,2.4l-7.9,19.5L372.2,219.1z"/>
				<path class="st1" d="M392.7,193.9c1.2-0.7,2.2-1.1,3.1-1.1c0.4,0,0.8,0.1,1.1,0.3c0.4,0.2,0.7,0.4,1,0.9c0.3,0.4,0.5,1,0.7,1.7
					c0.2,0.7,0.3,1.6,0.3,2.7l0.1,24c-1.2,0.8-2.2,1.2-3.2,1.3c-0.4,0-0.8,0-1.2-0.2c-0.4-0.2-0.7-0.4-1-0.9c-0.3-0.4-0.5-1-0.7-1.8
					c-0.2-0.8-0.3-1.7-0.3-2.9l0-0.9c-0.3,0.2-0.6,0.3-0.9,0.4c-0.4,0.1-0.8,0.1-1.3,0.2l-6.5,0.4l-5.1,7.4c-1.4,0.1-2.5,0-3.3-0.4
					c-0.3-0.2-0.6-0.4-0.8-0.7c-0.2-0.3-0.3-0.7-0.3-1.3c0-0.5,0.1-1.2,0.4-1.9c0.3-0.7,0.7-1.6,1.4-2.6l-0.8,0
					c-0.5-1.1-0.8-2.1-0.9-3c0-0.8,0.1-1.5,0.6-2.2c0.4-0.7,1.3-1.1,2.7-1.1l2.8-0.2l11.9-17.2L392.7,193.9z M392.8,211.2l-0.1-5.6
					l-4,5.9L392.8,211.2z"/>
				<path class="st1" d="M436.1,190c1.3-0.1,2.6,0.1,3.8,0.5c1.2,0.4,2.3,1.1,3.2,1.9c0.9,0.8,1.6,1.8,2.2,3
					c0.5,1.1,0.8,2.4,0.8,3.7c0,1.7-0.4,3.3-1.1,4.8c-0.7,1.5-1.7,2.8-2.9,3.9c-1.2,1.1-2.5,2.1-4,2.9c-1.5,0.8-3,1.3-4.6,1.7
					c-0.6,0.2-1.1,0.3-1.5,0.4c-0.4,0.1-0.8-0.1-1.3-0.5c-0.3-0.3-0.5-0.6-0.8-0.9c-0.2-0.3-0.4-0.7-0.5-1.1
					c-0.1-0.4-0.1-0.7-0.1-1.1c0.1-0.4,0.2-0.7,0.5-1.1c0.5-0.6,1.2-1,1.9-1.4c0.8-0.3,1.5-0.6,2.3-0.9c0.7-0.4,1.4-0.7,2-1.1
					c0.6-0.4,1.2-0.9,1.8-1.5c0.4-0.4,0.7-1,1.1-1.6c0.3-0.7,0.5-1.4,0.6-2.1c0.1-0.7,0-1.3-0.2-1.9c-0.2-0.6-0.8-1-1.6-1.2
					c-0.6-0.2-1.2-0.2-1.9-0.2c-0.7,0.1-1.3,0.2-1.9,0.2l-0.9,0.1c0.2,0.5,0.3,1.1,0.2,1.9c0,0.8-0.3,1.7-0.8,2.8l-8.6,21.2
					c-1.4,0.2-2.5,0.2-3.3-0.1c-0.4-0.1-0.7-0.3-1-0.6c-0.3-0.3-0.5-0.7-0.6-1.1c-0.1-0.5-0.1-1.1-0.1-1.8c0.1-0.7,0.3-1.6,0.8-2.7
					l7.8-19.1l-1.9,0.1c-0.4-0.4-0.7-0.8-1-1.2c-0.3-0.4-0.5-0.9-0.6-1.4c-0.1-0.6-0.1-1.2,0.2-1.6c0.3-0.4,0.7-0.8,1.2-1.1
					c0.5-0.3,1-0.5,1.6-0.7c0.6-0.2,1.1-0.3,1.6-0.4c1.2-0.2,2.4-0.3,3.6-0.3C433.6,190.1,434.9,190,436.1,190z"/>
				<path class="st1" d="M463.5,189.6c1.2-0.7,2.2-1.1,3.1-1.1c0.4,0,0.8,0.1,1.1,0.3c0.4,0.2,0.7,0.4,1,0.9c0.3,0.4,0.5,1,0.7,1.7
					c0.2,0.7,0.3,1.6,0.3,2.7l0.1,24c-1.2,0.8-2.2,1.2-3.2,1.3c-0.4,0-0.8,0-1.2-0.2c-0.4-0.2-0.7-0.4-1-0.9c-0.3-0.4-0.5-1-0.7-1.8
					c-0.2-0.8-0.3-1.7-0.3-2.9l0-0.9c-0.3,0.2-0.6,0.3-0.9,0.4c-0.4,0.1-0.8,0.1-1.3,0.2l-6.5,0.4l-5.1,7.4c-1.4,0.1-2.5,0-3.3-0.4
					c-0.3-0.2-0.6-0.4-0.8-0.7c-0.2-0.3-0.3-0.7-0.3-1.3c0-0.5,0.1-1.2,0.4-1.9c0.3-0.7,0.7-1.6,1.4-2.6l-0.8,0
					c-0.5-1.1-0.8-2.1-0.9-3c0-0.8,0.1-1.5,0.6-2.2c0.4-0.7,1.3-1.1,2.7-1.1l2.8-0.2l11.9-17.2L463.5,189.6z M463.5,206.9l-0.1-5.6
					l-4,5.9L463.5,206.9z M463.2,188.1c-0.8-0.9-1.4-1.8-1.8-2.6c-0.2-0.4-0.3-0.7-0.3-1.1c-0.1-0.4,0-0.8,0.1-1.1
					c0.1-0.4,0.3-0.7,0.6-1c0.3-0.3,0.7-0.6,1.3-0.9l12.3-5.4c0.9,0.9,1.5,1.8,1.9,2.6c0.3,0.7,0.4,1.5,0.3,2.3
					c-0.2,0.8-0.8,1.4-2,1.9L463.2,188.1z"/>
				<path class="st1" d="M491.2,186.1c0.8-0.1,1.7,0,2.5,0.2c0.8,0.2,1.5,0.5,2.2,1c0.6,0.5,1.2,1,1.6,1.7c0.4,0.7,0.6,1.5,0.7,2.5
					c0,1.2-0.2,2.5-0.6,3.7c-0.4,1.2-0.9,2.4-1.5,3.5c-0.3,0.1-0.5,0.2-0.7,0.3c-0.4,0.2-0.7,0.3-0.8,0.3c-0.5,0.3-1.1,0.3-1.7,0.2
					c-0.7-0.1-1.1-0.5-1.2-1s-0.2-1.1-0.2-1.6c0-0.2,0-0.5,0.1-1c0.1-0.5,0.2-1,0.3-1.5c0.1-0.5,0.2-1,0.2-1.4c0-0.4,0-0.7-0.1-0.7
					c-1.1,0.1-2.2,0.4-3.2,0.9c-1,0.5-1.9,1.2-2.7,2c-0.8,0.8-1.6,1.6-2.3,2.6c-0.7,0.9-1.3,1.8-1.8,2.8c-1.3,2.3-2.3,4.7-2.9,7.3
					c-0.1,0.3-0.1,0.7-0.2,1.3c-0.1,0.6-0.2,1.2-0.2,1.9c0,0.6,0.1,1.2,0.2,1.7c0.1,0.5,0.4,0.8,0.8,0.9c0.4,0.1,0.9,0.1,1.3-0.1
					c0.4-0.2,0.9-0.4,1.3-0.7c0.4-0.3,0.8-0.6,1.1-1c0.4-0.4,0.7-0.7,0.9-1c0.4-0.4,0.8-0.9,1.2-1.4c0.4-0.5,0.8-1,1.1-1.5
					c0.1-0.1,0.2-0.2,0.4-0.4c0.2-0.2,0.4-0.5,0.5-0.7l1.3-3.4c1.2,0.1,2.3,0.3,3.1,0.6c0.4,0.1,0.7,0.3,1,0.6
					c0.3,0.2,0.6,0.5,0.7,0.8c0.2,0.3,0.3,0.7,0.3,1.1c0,0.4-0.1,0.9-0.3,1.4l-4.7,12.1c-0.6,0-1.2,0-1.7-0.1
					c-0.5-0.1-1-0.2-1.5-0.4s-1-0.5-1.4-0.8c-1.3,0.7-2.6,1.2-4,1.3c-1.4,0.1-2.8-0.3-4.2-1.1c-1.1-0.7-1.9-1.5-2.5-2.5
					c-0.6-1-1-2.1-1.2-3.2c-0.2-1.2-0.2-2.4-0.1-3.7c0.1-1.3,0.4-2.6,0.7-3.8c0.3-1.3,0.7-2.5,1.2-3.6c0.5-1.1,0.9-2.2,1.4-3.1
					c0.8-1.5,1.7-3,2.7-4.5c1.1-1.5,2.2-2.8,3.6-3.9c1.3-1.2,2.8-2.2,4.4-3C487.7,186.8,489.4,186.3,491.2,186.1z"/>
				<path class="st1" d="M510.4,185.4c0.3,0.2,0.6,0.4,0.9,0.7c0.3,0.3,0.5,0.7,0.6,1.3c0.1,0.5,0.1,1.2-0.1,2
					c-0.1,0.8-0.4,1.8-0.9,2.9l-10,24.6c-1.4,0.4-2.6,0.4-3.4,0.1c-0.4-0.1-0.7-0.4-1-0.7c-0.3-0.3-0.5-0.7-0.5-1.3
					c-0.1-0.6-0.1-1.2,0.1-2.1c0.1-0.8,0.5-1.9,0.9-3.1l9.9-24.6C508.4,185,509.6,185,510.4,185.4z"/>
				<path class="st1" d="M529.9,214L529.9,214c-0.2,0.1-0.4,0.4-0.7,0.6c-0.3,0.3-0.7,0.5-1.1,0.7c-0.4,0.2-0.9,0.3-1.4,0.4
					c-0.5,0-1-0.1-1.4-0.4c-0.5-0.3-0.9-0.8-1.3-1.6c-0.4-0.7-0.7-1.8-0.9-3.3l-1.6-10.1l-6.6,16.3c-1.4,0.2-2.5,0.2-3.3-0.1
					c-0.4-0.1-0.7-0.3-1-0.6c-0.3-0.3-0.5-0.6-0.6-1.1c-0.1-0.5-0.2-1-0.1-1.7c0.1-0.7,0.3-1.5,0.7-2.4l7.9-19.4l0.5,0
					c0.2,0,0.3,0,0.5,0s0.4,0,0.6,0l-0.7-4.8c1-0.8,2-1.3,2.9-1.5c0.4-0.1,0.8,0,1.2,0.1c0.4,0.1,0.8,0.4,1.1,0.7
					c0.3,0.4,0.7,0.9,1,1.6c0.3,0.7,0.5,1.6,0.7,2.6L528,202l7.4-18.4c1.3-0.2,2.4-0.2,3.3,0.2c0.3,0.2,0.6,0.4,0.9,0.7
					c0.3,0.3,0.5,0.7,0.6,1.2c0.1,0.5,0.1,1.2,0,1.9c-0.1,0.8-0.4,1.7-0.9,2.8L529.9,214L529.9,214z"/>
				<path class="st1" d="M555.1,184.1c1.2-0.7,2.2-1.1,3.1-1.1c0.4,0,0.8,0.1,1.1,0.3c0.4,0.2,0.7,0.4,1,0.9c0.3,0.4,0.5,1,0.7,1.7
					c0.2,0.7,0.3,1.6,0.3,2.7l0.1,24c-1.2,0.8-2.2,1.2-3.2,1.3c-0.4,0-0.8,0-1.2-0.2c-0.4-0.2-0.7-0.4-1-0.9c-0.3-0.4-0.5-1-0.7-1.8
					c-0.2-0.8-0.3-1.7-0.3-2.9l0-0.9c-0.3,0.2-0.6,0.3-0.9,0.4c-0.4,0.1-0.8,0.1-1.3,0.2l-6.5,0.4l-5.1,7.4c-1.4,0.1-2.5,0-3.3-0.4
					c-0.3-0.2-0.6-0.4-0.8-0.7c-0.2-0.3-0.3-0.7-0.3-1.3c0-0.5,0.1-1.2,0.4-1.9c0.3-0.7,0.7-1.6,1.4-2.6l-0.8,0
					c-0.5-1.1-0.8-2.1-0.9-3c0-0.8,0.1-1.5,0.6-2.2c0.4-0.7,1.3-1.1,2.7-1.1l2.8-0.2l11.9-17.2L555.1,184.1z M555.2,201.3l-0.1-5.6
					l-4,5.9L555.2,201.3z"/>
			</g>
		</g>
		<g>
			<path class="st2" d="M224.4,261.2c0.3,0.1,0.5,0.3,0.7,0.6c0.2,0.2,0.4,0.6,0.4,1s0.1,0.9,0,1.5c-0.1,0.6-0.3,1.4-0.6,2.2
				l-7.6,18.8c-1.1,0.3-2,0.3-2.6,0.1c-0.3-0.1-0.5-0.3-0.7-0.5c-0.2-0.2-0.4-0.5-0.4-1c-0.1-0.4-0.1-1,0-1.6
				c0.1-0.6,0.3-1.4,0.7-2.4l2-4.9l-5.9,0.4l-4.3,10.6c-1.1,0.3-2,0.3-2.6,0.1c-0.3-0.1-0.5-0.3-0.7-0.5c-0.2-0.2-0.4-0.5-0.4-1
				c-0.1-0.4,0-1,0.1-1.6c0.1-0.6,0.4-1.4,0.8-2.4l1.9-4.9l-1.4,0.1c-0.4-0.9-0.6-1.6-0.7-2.3c0-0.6,0.1-1.2,0.5-1.7
				c0.3-0.5,1.1-0.8,2.2-0.9l1.4-0.1l3.6-9c1-0.2,1.9-0.2,2.5,0.1c0.3,0.1,0.5,0.3,0.7,0.6c0.2,0.2,0.4,0.6,0.4,1
				c0.1,0.4,0.1,0.9,0,1.5c-0.1,0.6-0.3,1.4-0.7,2.2l-1.3,3.3l5.2-0.3c0,0,0.1,0.1,0.1,0.2c0.1,0,0.1,0.1,0.1,0.2
				c0,0.1,0.1,0.2,0.1,0.3l3.9-9.8C223,260.9,223.8,260.9,224.4,261.2z"/>
			<path class="st2" d="M237.2,261.4c0.9-0.6,1.7-0.8,2.4-0.8c0.3,0,0.6,0.1,0.9,0.2c0.3,0.1,0.5,0.3,0.8,0.7
				c0.2,0.3,0.4,0.8,0.5,1.3c0.1,0.6,0.2,1.2,0.2,2.1l0.2,18.3c-0.9,0.6-1.7,1-2.4,1c-0.3,0-0.6,0-0.9-0.1c-0.3-0.1-0.6-0.3-0.8-0.7
				c-0.2-0.3-0.4-0.8-0.5-1.4c-0.1-0.6-0.2-1.3-0.2-2.2l0-0.7c-0.2,0.1-0.4,0.2-0.7,0.3c-0.3,0.1-0.6,0.1-1,0.1l-4.9,0.3l-3.9,5.7
				c-1.1,0.1-1.9,0-2.5-0.3c-0.3-0.1-0.5-0.3-0.6-0.6c-0.2-0.2-0.3-0.6-0.3-1c0-0.4,0.1-0.9,0.3-1.4c0.2-0.6,0.6-1.2,1.1-2l-0.6,0
				c-0.4-0.9-0.6-1.6-0.7-2.3c0-0.6,0.1-1.2,0.4-1.7c0.3-0.5,1-0.8,2.1-0.9l2.2-0.1l9.1-13.2L237.2,261.4z M237.3,274.7l-0.1-4.3
				l-3,4.5L237.3,274.7z"/>
			<path class="st2" d="M263.6,261.7c0.3,1,0.2,2.1-0.1,3.2c-0.3,1.1-0.7,2.1-1.2,3c-0.2,0.6-0.5,1.2-0.8,1.8
				c-0.3,0.6-0.7,1.2-1,1.7c0,0-0.1,0.1-0.3,0.4c-0.1,0.2-0.3,0.4-0.4,0.7c-0.2,0.2-0.3,0.5-0.4,0.6c-0.1,0.2-0.2,0.3-0.2,0.3
				c-0.3,0-0.7,0.1-1,0.2c-0.3,0.1-0.6,0.2-1,0.2c-0.3,0-0.6,0-0.8-0.2c-0.3-0.1-0.4-0.4-0.5-0.7c-0.1-0.3-0.1-0.7-0.1-1
				c0-0.4,0.1-0.7,0.2-1.1c0.1-0.4,0.2-0.7,0.4-1.1c0.1-0.3,0.3-0.7,0.4-0.9c0.4-0.9,0.9-1.7,1.3-2.6c0.5-0.9,0.8-1.8,0.9-2.8
				c-0.8,0.1-1.6,0.3-2.3,0.6c-0.7,0.4-1.4,0.8-2.1,1.4c-0.6,0.5-1.2,1.2-1.8,1.8s-1,1.4-1.4,2c-0.5,0.9-0.9,1.8-1.3,2.7
				c-0.4,0.9-0.7,1.9-0.9,2.9c-0.1,0.3-0.1,0.7-0.2,1.1c-0.1,0.4-0.1,0.9-0.1,1.3c0,0.5,0,0.9,0.2,1.3c0.1,0.4,0.3,0.7,0.6,1
				c0.3,0.2,0.6,0.3,0.9,0.3c0.4,0,0.7,0,1.1-0.1c0.4-0.1,0.7-0.2,1-0.4c0.3-0.2,0.6-0.4,0.8-0.5c0.2-0.1,0.4-0.3,0.5-0.4
				c0.2-0.1,0.4-0.2,0.6-0.3c0.5-0.2,1-0.3,1.4-0.3c0.5-0.1,0.9,0,1.2,0.1c0.3,0.1,0.5,0.3,0.6,0.6c0.1,0.3,0.1,0.6,0.1,0.9
				c-0.1,0.4-0.2,0.7-0.3,1.1c-0.3,0.7-0.7,1.3-1.3,1.9s-1.2,1-1.9,1.3c-1,0.5-2,0.8-3.2,0.9c-1.2,0.1-2.3-0.2-3.3-0.7
				c-1.2-0.6-2.2-1.6-2.7-2.8c-0.6-1.2-0.8-2.5-0.8-3.8c0-1.4,0.1-2.7,0.5-4.1c0.3-1.4,0.8-2.7,1.4-4c0.6-1.3,1.3-2.5,2.1-3.7
				c0.8-1.2,1.7-2.2,2.7-3.1c1-0.9,2.1-1.7,3.2-2.4c1.2-0.6,2.4-1.1,3.8-1.2c0.6-0.1,1.2-0.1,1.8-0.1c0.6,0,1.2,0.2,1.7,0.4
				c0.5,0.2,1,0.6,1.4,1C263.1,260.6,263.4,261.1,263.6,261.7z"/>
			<path class="st2" d="M271.8,258.1c0.3,0.1,0.5,0.3,0.7,0.6c0.2,0.2,0.4,0.6,0.4,1s0.1,0.9,0,1.5c-0.1,0.6-0.3,1.4-0.7,2.2
				l-7.5,18.8c-1.1,0.3-2,0.3-2.6,0.1c-0.3-0.1-0.5-0.3-0.7-0.5c-0.2-0.2-0.4-0.5-0.4-1c-0.1-0.4,0-1,0.1-1.6
				c0.1-0.6,0.3-1.4,0.7-2.4l7.5-18.9C270.3,257.8,271.1,257.9,271.8,258.1z"/>
			<path class="st2" d="M285.3,258.3c0.9-0.6,1.7-0.8,2.4-0.8c0.3,0,0.6,0.1,0.9,0.2c0.3,0.1,0.5,0.3,0.8,0.7
				c0.2,0.3,0.4,0.8,0.5,1.3c0.1,0.6,0.2,1.2,0.2,2.1l0.2,18.3c-0.9,0.6-1.7,1-2.4,1c-0.3,0-0.6,0-0.9-0.1c-0.3-0.1-0.6-0.3-0.8-0.7
				c-0.2-0.3-0.4-0.8-0.5-1.4c-0.1-0.6-0.2-1.3-0.2-2.2l0-0.7c-0.2,0.1-0.4,0.2-0.7,0.3c-0.3,0.1-0.6,0.1-1,0.1l-4.9,0.3l-3.9,5.7
				c-1.1,0.1-1.9,0-2.5-0.3c-0.3-0.1-0.5-0.3-0.6-0.6c-0.2-0.2-0.3-0.6-0.3-1c0-0.4,0.1-0.9,0.3-1.4c0.2-0.6,0.6-1.2,1.1-2l-0.6,0
				c-0.4-0.9-0.6-1.6-0.7-2.3c0-0.6,0.1-1.2,0.4-1.7c0.3-0.5,1-0.8,2.1-0.9l2.2-0.1l9.1-13.2L285.3,258.3z M285.4,271.6l-0.1-4.3
				l-3,4.5L285.4,271.6z"/>
			<path class="st2" d="M326.1,254.3c0.5,0.9,0.8,1.7,0.9,2.4c0,0.3,0,0.6-0.1,0.9c-0.1,0.3-0.2,0.6-0.4,0.8
				c-0.2,0.2-0.5,0.4-0.9,0.6c-0.4,0.2-0.9,0.3-1.6,0.3l-7.8,0.5c0.1,0.3,0.2,0.7,0.2,1.2c0,0.5-0.2,1.1-0.4,1.7l-1.1,2.6l5.4-0.4
				c0.3,0.9,0.4,1.7,0.5,2.4c0,0.6,0,1.2-0.2,1.7c-0.2,0.5-0.5,0.8-1.1,0.8l-6,0.4c0,0,0-0.1-0.1-0.2c-0.1-0.2-0.1-0.4-0.2-0.6
				L311,275l9-0.6c0.5,0.9,0.8,1.7,0.8,2.4c0,0.3,0,0.6-0.1,0.9c-0.1,0.3-0.2,0.6-0.4,0.8c-0.2,0.2-0.5,0.4-0.9,0.6
				c-0.4,0.2-0.9,0.3-1.5,0.3l-13.2,0.9c-0.5-0.8-0.7-1.6-0.7-2.3c0-0.6,0.1-1.2,0.5-1.7c0.4-0.5,1.2-0.8,2.4-0.9l0.5,0
				c-0.3-0.3-0.5-0.8-0.6-1.3c-0.1-0.5,0.1-1.3,0.5-2.3l4.6-11.6l-1.1,0.1c-0.5-0.9-0.7-1.7-0.7-2.4c0-0.6,0.1-1.2,0.5-1.7
				c0.4-0.5,1.2-0.8,2.4-0.9L326.1,254.3z"/>
			<path class="st2" d="M336.8,273.3c0.5,0.9,0.7,1.7,0.8,2.4c0.1,0.6-0.1,1.2-0.4,1.7c-0.4,0.5-1.1,0.8-2.3,0.9l-12,0.8
				c-0.4-0.9-0.6-1.6-0.6-2.3c0-0.3,0-0.6,0.1-0.9c0.1-0.3,0.2-0.6,0.4-0.8c0.2-0.2,0.5-0.4,0.8-0.6c0.3-0.2,0.8-0.3,1.3-0.3
				l0.8-0.1c-0.3-0.4-0.5-0.9-0.5-1.5c0-0.6,0.1-1.6,0.6-2.7l6.4-15.7c1-0.1,1.8,0,2.5,0.2c0.3,0.1,0.5,0.3,0.7,0.5
				c0.2,0.2,0.4,0.5,0.5,0.9c0.1,0.4,0.1,0.8,0.1,1.3c-0.1,0.5-0.2,1.1-0.5,1.9l-6,14.9L336.8,273.3z"/>
			<path class="st2" d="M370.6,256c1,0.7,1.6,1.5,2,2.6c0.4,1.1,0.5,2.2,0.5,3.3c0,1.1-0.2,2.3-0.5,3.4c-0.3,1.1-0.8,2.2-1.3,3.3
				c-0.5,1.1-1.2,2-1.9,3c-0.7,0.9-1.5,1.7-2.3,2.4c-0.9,0.8-1.8,1.4-3,1.9c-1.1,0.5-2.3,0.8-3.4,0.8c-1.1,0-2.2-0.2-3.2-0.7
				c-1-0.5-1.8-1.4-2.4-2.6c-0.5-1.1-0.8-2.2-0.9-3.5c-0.1-1.2,0-2.4,0.3-3.6c0.2-1.2,0.6-2.4,1.1-3.6c0.5-1.1,1-2.2,1.6-3.1
				c0.7-1.2,1.5-2.3,2.4-3.2c0.9-1,1.9-1.9,3-2.7c0.6-0.4,1.1-0.7,1.7-1c0.6-0.3,1.2-0.6,1.8-0.8c0.4-0.2,0.8-0.2,1.1-0.2
				c0.3,0,0.7,0.1,1.1,0.2c0.2,0.1,0.5,0.2,0.7,0.4c0.3,0.2,0.5,0.4,0.7,0.6c0.2,0.2,0.3,0.5,0.3,0.8c0,0.3-0.1,0.5-0.3,0.8
				c-0.3,0.4-0.7,0.7-1.1,0.9s-0.9,0.5-1.3,0.8c-1,0.6-2,1.3-2.8,2c-0.9,0.7-1.7,1.6-2.3,2.5c-0.8,1.1-1.5,2.3-2,3.5
				c-0.5,1.2-0.9,2.5-1,3.9c0,0.3-0.1,0.6-0.1,0.9c0,0.4,0,0.7,0,1.1c0,0.3,0.1,0.7,0.2,1c0.1,0.3,0.3,0.6,0.6,0.7
				c0.2,0.1,0.5,0.2,0.7,0.2c0.3,0,0.5,0,0.8-0.1c0.3-0.1,0.5-0.2,0.8-0.3c0.3-0.1,0.5-0.2,0.7-0.4c1.2-0.7,2.1-1.6,3-2.8
				c0.8-1.2,1.5-2.4,1.9-3.6c0.2-0.6,0.4-1.2,0.5-1.8c0.1-0.6,0.2-1.2,0.2-1.9c0-0.3,0-0.6,0-0.8c0-0.3-0.1-0.5-0.2-0.8
				c-0.1,0-0.1-0.2-0.3-0.4c-0.1-0.2-0.2-0.4-0.2-0.4c0-0.5,0.1-0.9,0.1-1.3c0-0.4,0.1-0.7,0.1-1c0-0.3,0.1-0.5,0.1-0.5
				c0.2-0.2,0.4-0.3,0.6-0.4c0.2-0.1,0.4-0.1,0.7,0s0.5,0.1,0.7,0.2S370.4,255.9,370.6,256z"/>
			<path class="st2" d="M387.6,255.5c0.1,0.4,0.2,0.8,0.2,1.4c0,0.6-0.2,1.3-0.6,2.1l-6.5,16.3c-1,0.2-1.9,0.2-2.6-0.1
				c-0.3-0.1-0.5-0.3-0.8-0.5c-0.2-0.2-0.4-0.5-0.5-0.9c-0.1-0.4-0.1-0.8,0-1.4c0.1-0.6,0.3-1.3,0.6-2.1l5.9-14.7l-5.8,0.4
				c-0.5-0.9-0.7-1.7-0.8-2.4c0-0.3,0-0.6,0.1-0.9c0.1-0.3,0.2-0.6,0.5-0.8c0.2-0.2,0.6-0.4,1-0.6c0.4-0.2,1-0.3,1.7-0.3l14.8-1
				c0.6,0.9,0.9,1.6,1,2.3c0,0.3,0,0.6-0.1,0.9c-0.1,0.3-0.2,0.6-0.5,0.8c-0.2,0.2-0.6,0.4-1.1,0.6c-0.5,0.2-1,0.3-1.8,0.3
				L387.6,255.5z"/>
			<path class="st2" d="M411.5,254.4c0.3,1.2,0.3,2.4-0.1,3.6s-1,2.2-1.9,3c-0.8,0.8-1.7,1.4-2.8,1.8c-1,0.4-2.1,0.8-3.2,1l4.2,8
				c-0.6,0.7-1.3,1.3-1.9,1.6c-0.5,0.3-1.1,0.4-1.7,0.4c-0.6-0.1-1.1-0.5-1.6-1.4l-3.9-7.3l-3.7,9.3c-1,0.2-1.9,0.2-2.6-0.1
				c-0.3-0.1-0.5-0.3-0.8-0.5c-0.2-0.2-0.4-0.5-0.5-0.9s-0.1-0.8-0.1-1.4c0.1-0.6,0.3-1.3,0.6-2l5.9-14.7l-1.5,0.1
				c-0.3-0.3-0.5-0.6-0.7-0.9c-0.2-0.3-0.3-0.7-0.4-1.1c-0.1-0.5,0-0.9,0.2-1.2c0.2-0.3,0.5-0.6,0.9-0.8c0.4-0.2,0.8-0.4,1.2-0.5
				c0.4-0.1,0.9-0.2,1.2-0.3c0.9-0.1,1.8-0.2,2.7-0.3c0.9,0,1.8-0.1,2.7-0.2c0.8-0.1,1.7,0,2.5,0.2c0.8,0.2,1.6,0.5,2.2,0.9
				c0.7,0.4,1.3,0.9,1.8,1.6C411,252.9,411.3,253.6,411.5,254.4z M407,256.2c0.1-0.6-0.1-1-0.6-1.3c-0.4-0.3-0.9-0.5-1.4-0.5
				c-0.4,0-0.9,0-1.3,0c-0.4,0.1-0.8,0.1-1.3,0.1l-0.5,0c0.1,0.4,0.2,0.8,0.2,1.4c0,0.6-0.2,1.3-0.6,2.1l-0.7,1.7l1.1-0.3
				c0.6-0.2,1.1-0.4,1.7-0.5c0.6-0.2,1.1-0.4,1.6-0.7c0.4-0.2,0.8-0.5,1.1-0.9C406.7,257.1,406.9,256.7,407,256.2z"/>
			<path class="st2" d="M428.6,252.3c1,0.7,1.6,1.5,2,2.6c0.4,1.1,0.5,2.2,0.5,3.3c0,1.1-0.2,2.3-0.5,3.4c-0.3,1.1-0.8,2.2-1.3,3.3
				c-0.5,1.1-1.2,2-1.9,3c-0.7,0.9-1.5,1.7-2.3,2.4c-0.9,0.8-1.8,1.4-3,1.9s-2.3,0.8-3.4,0.8c-1.1,0-2.2-0.2-3.2-0.7
				c-1-0.5-1.8-1.4-2.4-2.6c-0.5-1.1-0.8-2.2-0.9-3.5c-0.1-1.2,0-2.4,0.3-3.6c0.2-1.2,0.6-2.4,1.1-3.6c0.5-1.1,1-2.2,1.6-3.1
				c0.7-1.2,1.5-2.3,2.4-3.2c0.9-1,1.9-1.9,3-2.7c0.6-0.4,1.1-0.7,1.7-1c0.6-0.3,1.2-0.6,1.8-0.8c0.4-0.2,0.8-0.2,1.1-0.2
				c0.3,0,0.7,0.1,1.1,0.2c0.2,0.1,0.5,0.2,0.7,0.4s0.5,0.4,0.7,0.6c0.2,0.2,0.3,0.5,0.3,0.8c0,0.3-0.1,0.5-0.3,0.8
				c-0.3,0.4-0.7,0.7-1.1,0.9c-0.4,0.3-0.9,0.5-1.3,0.8c-1,0.6-2,1.3-2.8,2c-0.9,0.7-1.7,1.6-2.3,2.5c-0.8,1.1-1.5,2.3-2,3.5
				c-0.5,1.2-0.9,2.5-1,3.9c0,0.3-0.1,0.6-0.1,0.9c0,0.4,0,0.7,0,1.1c0,0.3,0.1,0.7,0.2,1c0.1,0.3,0.3,0.6,0.6,0.7
				c0.2,0.1,0.5,0.2,0.7,0.2c0.3,0,0.5,0,0.8-0.1c0.3-0.1,0.5-0.2,0.8-0.3c0.3-0.1,0.5-0.2,0.7-0.4c1.2-0.7,2.1-1.6,3-2.8
				c0.8-1.2,1.5-2.4,1.9-3.6c0.2-0.6,0.4-1.2,0.5-1.8c0.1-0.6,0.2-1.2,0.2-1.9c0-0.3,0-0.6,0-0.8c0-0.3-0.1-0.5-0.2-0.8
				c-0.1,0-0.1-0.2-0.3-0.4c-0.1-0.2-0.2-0.4-0.2-0.4c0-0.5,0.1-0.9,0.1-1.3c0-0.4,0.1-0.7,0.1-1c0-0.3,0.1-0.5,0.1-0.5
				c0.2-0.2,0.4-0.3,0.6-0.4c0.2-0.1,0.4-0.1,0.7,0s0.5,0.1,0.7,0.2C428.3,252,428.5,252.2,428.6,252.3z"/>
			<path class="st2" d="M458.6,265.4c0.5,0.9,0.7,1.7,0.8,2.4c0.1,0.6-0.1,1.2-0.4,1.7c-0.4,0.5-1.1,0.8-2.3,0.9l-12,0.8
				c-0.4-0.9-0.6-1.6-0.6-2.3c0-0.3,0-0.6,0.1-0.9s0.2-0.6,0.4-0.8s0.5-0.4,0.8-0.6c0.3-0.2,0.8-0.3,1.3-0.3l0.8-0.1
				c-0.3-0.4-0.5-0.9-0.5-1.5c0-0.6,0.1-1.6,0.6-2.7l6.4-15.7c1-0.1,1.8,0,2.5,0.2c0.3,0.1,0.5,0.3,0.7,0.5c0.2,0.2,0.4,0.5,0.5,0.9
				c0.1,0.4,0.1,0.8,0.1,1.3c-0.1,0.5-0.2,1.1-0.5,1.9l-6,14.9L458.6,265.4z"/>
			<path class="st2" d="M474.2,246.1c0.9-0.6,1.7-0.8,2.4-0.8c0.3,0,0.6,0.1,0.9,0.2s0.5,0.3,0.8,0.7c0.2,0.3,0.4,0.8,0.5,1.3
				c0.1,0.6,0.2,1.2,0.2,2.1l0.2,18.3c-0.9,0.6-1.7,1-2.4,1c-0.3,0-0.6,0-0.9-0.1c-0.3-0.1-0.6-0.3-0.8-0.7
				c-0.2-0.3-0.4-0.8-0.5-1.4c-0.1-0.6-0.2-1.3-0.2-2.2l0-0.7c-0.2,0.1-0.4,0.2-0.7,0.3c-0.3,0.1-0.6,0.1-1,0.1l-4.9,0.3l-3.9,5.7
				c-1.1,0.1-1.9,0-2.5-0.3c-0.3-0.1-0.5-0.3-0.6-0.6c-0.2-0.2-0.3-0.6-0.3-1c0-0.4,0.1-0.9,0.3-1.4s0.6-1.2,1.1-2l-0.6,0
				c-0.4-0.9-0.6-1.6-0.7-2.3c0-0.6,0.1-1.2,0.4-1.7c0.3-0.5,1-0.8,2.1-0.9l2.2-0.1l9.1-13.2L474.2,246.1z M474.3,259.3l-0.1-4.3
				l-3,4.5L474.3,259.3z"/>
			<path class="st2" d="M493.2,243.5c1.2,0,2.4,0.3,3.5,0.7c1.2,0.5,2.1,1.1,2.9,2c0.9,1,1.5,2.2,1.7,3.5c0.2,1.3,0.2,2.6,0,3.9
				c-0.2,1.4-0.5,2.7-1.1,3.9c-0.5,1.3-1.2,2.4-2,3.6c-0.8,1.1-1.7,2.1-2.8,3c-1,0.9-2.2,1.7-3.3,2.4c-1,0.5-2,0.9-3,1.3
				c-1,0.3-2,0.5-3.1,0.6l-4.9,0.3c-0.2,0-0.3-0.1-0.6-0.3c-0.2-0.2-0.4-0.3-0.5-0.4c-0.2-0.1-0.3-0.3-0.5-0.5
				c-0.2-0.2-0.3-0.4-0.4-0.6c-0.1-0.2-0.2-0.4-0.2-0.6c0-0.2,0-0.4,0.1-0.6c0.2-0.4,0.5-0.7,1-0.9c0.5-0.2,0.9-0.4,1.3-0.5
				c0.5-0.2,0.9-0.3,1.4-0.4c-0.4-0.2-0.7-0.7-0.9-1.3c-0.2-0.6,0-1.4,0.5-2.5l4.6-11.6l-0.3,0c-0.2-0.1-0.3-0.2-0.4-0.4
				c-0.3-0.3-0.6-0.6-0.9-1c-0.3-0.4-0.4-0.8-0.3-1.3c0.1-0.4,0.4-0.8,0.8-1c0.4-0.2,0.9-0.4,1.3-0.6c0.9-0.3,1.9-0.6,2.9-0.7
				C491.2,243.6,492.2,243.5,493.2,243.5z M496.8,252.6c0.1-0.6,0-1.3-0.1-1.9c-0.1-0.6-0.4-1.2-0.9-1.6c-0.4-0.3-0.9-0.5-1.4-0.6
				c-0.5-0.1-1.1-0.2-1.6-0.1l-1.5,0.1c0.4,0.7,0.3,1.6-0.2,2.9l-4.9,12.3c0.3,0,0.6-0.1,1-0.3c1.2-0.3,2.3-0.8,3.3-1.4
				c1-0.7,2-1.5,2.8-2.3c0.9-1,1.6-2,2.3-3.2C496.2,255.1,496.6,253.9,496.8,252.6z"/>
			<path class="st2" d="M519,246.4c1,0.7,1.6,1.5,2,2.6c0.4,1.1,0.5,2.2,0.5,3.3c0,1.1-0.2,2.3-0.5,3.4c-0.3,1.1-0.8,2.2-1.3,3.3
				c-0.5,1.1-1.2,2-1.9,3s-1.5,1.7-2.3,2.4c-0.9,0.8-1.8,1.4-3,1.9s-2.3,0.8-3.4,0.8c-1.1,0-2.2-0.2-3.2-0.7c-1-0.5-1.8-1.4-2.4-2.6
				c-0.5-1.1-0.8-2.2-0.9-3.5c-0.1-1.2,0-2.4,0.3-3.6c0.2-1.2,0.6-2.4,1.1-3.6c0.5-1.1,1-2.2,1.6-3.1c0.7-1.2,1.5-2.3,2.4-3.2
				c0.9-1,1.9-1.9,3-2.7c0.6-0.4,1.1-0.7,1.7-1c0.6-0.3,1.2-0.6,1.8-0.8c0.4-0.2,0.8-0.2,1.1-0.2s0.7,0.1,1.1,0.2
				c0.2,0.1,0.5,0.2,0.7,0.4c0.3,0.2,0.5,0.4,0.7,0.6c0.2,0.2,0.3,0.5,0.3,0.8c0,0.3-0.1,0.5-0.3,0.8c-0.3,0.4-0.7,0.7-1.1,0.9
				c-0.4,0.3-0.9,0.5-1.3,0.8c-1,0.6-2,1.3-2.8,2c-0.9,0.7-1.7,1.6-2.3,2.5c-0.8,1.1-1.5,2.3-2,3.5c-0.5,1.2-0.9,2.5-1,3.9
				c0,0.3-0.1,0.6-0.1,0.9c0,0.4,0,0.7,0,1.1c0,0.3,0.1,0.7,0.2,1c0.1,0.3,0.3,0.6,0.6,0.7c0.2,0.1,0.5,0.2,0.7,0.2s0.5,0,0.8-0.1
				c0.3-0.1,0.5-0.2,0.8-0.3c0.3-0.1,0.5-0.2,0.7-0.4c1.2-0.7,2.1-1.6,3-2.8c0.8-1.2,1.5-2.4,1.9-3.6c0.2-0.6,0.4-1.2,0.5-1.8
				c0.1-0.6,0.2-1.2,0.2-1.9c0-0.3,0-0.6,0-0.8c0-0.3-0.1-0.5-0.2-0.8c-0.1,0-0.1-0.2-0.3-0.4c-0.1-0.2-0.2-0.4-0.2-0.4
				c0-0.5,0.1-0.9,0.1-1.3c0-0.4,0.1-0.7,0.1-1c0-0.3,0.1-0.5,0.1-0.5c0.2-0.2,0.4-0.3,0.6-0.4c0.2-0.1,0.4-0.1,0.7,0
				c0.2,0,0.5,0.1,0.7,0.2C518.6,246.2,518.8,246.3,519,246.4z"/>
		</g>
		<path class="st2" d="M196,251.3c0,0,350.2-37.9,353.5-25.5C552.8,238.2,196,251.3,196,251.3z"/>
	</g>
</g>
<g>
</g>
<g>
</g>
<g>
</g>
<g>
</g>
<g>
</g>
<g>
</g>
<g>
</g>
<g>
</g>
<g>
</g>
<g>
</g>
<g>
</g>
<g>
</g>
<g>
</g>
<g>
</g>
<g>
</g>
</svg>
