<?xml version="1.0" encoding="utf-8"?>
<!-- Generator: Adobe Illustrator 18.0.0, SVG Export Plug-In . SVG Version: 6.00 Build 0)  -->
<!DOCTYPE svg PUBLIC "-//W3C//DTD SVG 1.1//EN" "http://www.w3.org/Graphics/SVG/1.1/DTD/svg11.dtd">
<svg version="1.1" id="Layer_1" xmlns="http://www.w3.org/2000/svg" xmlns:xlink="http://www.w3.org/1999/xlink" x="0px" y="0px"
	 viewBox="0 0 788.4 79.1" enable-background="new 0 0 788.4 79.1" xml:space="preserve">
<g>
	<path fill="#FFFFFF" d="M347.4,17.1l1.9-4.8c0.4-0.9,1.2-1.3,2.2-0.8c2,0.9,3.5,2.4,4.9,4.1c0.3,0.3,0.7,1.2,0.4,1.7
		c-3,6.6-5,12.2-5.7,18.6c-0.1,0.7-0.5,0.7-1.1,0.6c-1.2-0.3-3.5-2.2-4.1-2.9c-1.3-1.2-1.7-2.4-1.3-4.4c0.4-3.2,2.7-8.7-0.4-11
		c-2.9-2.2-8.1,2.5-12.2,7.5c-5.4,6.3-9.3,13.8-11.4,21.8c-0.9,3.2-2.3,13.4,2.7,14c6.8,0.9,15.7-4.9,17.1-10.6
		c0.2-0.9,0.6-0.9,0.9-0.8c2.7,1.2,6.8,4.1,5.7,6.8c-0.4,0.7-1.4,2.3-1.8,2.8c-5.5,6.4-15.5,10.8-22.9,5.8
		C308,57,312.3,41.2,319.3,29c3.3-6.2,11.3-17.1,19.2-16.7C342.2,12.5,345.6,14.6,347.4,17.1z"/>
	<path fill="#FFFFFF" d="M365.1,66.6c0,1.2,0,2.8-1.1,2.4c-2-0.6-3.3-1.5-4.7-2.8c-1.5-1.5-1.6-3.6-1.8-5.6c0-0.6,0-1,0.6-1.2
		c0.6,0,0.6-0.6,0.7-1.3c0.8-4.3,1.4-6.7,2.3-11.1c-2.1-0.1-3.4-1.4-5.6-4c-0.7-1-0.8-2,0.6-2.2l6.8-1l6.6-25c0.2-0.9,0.6-1.9,1-2.7
		c0.5-0.8,0.7-0.9,1.5-0.6c2.1,0.8,4.5,3.1,5.2,4.5c0.2,0.4,0.4,0.8,0.1,1.3c-0.6,1.5-1.2,2.9-1.7,4.4c-1.4,5.2-3.3,11.7-4.5,17
		l15.7-2c1.7-7.4,4.5-19.4,6.4-26.6c0.4-1.7,0.8-1.7,2.1-1.1c1.5,0.7,3.3,2.1,4.4,3.7c0.6,0.9,0.7,1.7,0.3,2.9
		c-0.6,1.7-1.1,3.6-1.5,5.5l-3.7,15.9c1,0.8,3.2,2.3,4.1,3.6c0.6,0.9-0.3,1.5-1.2,1.7c-0.3,0-3.9,0.6-4.2,0.6
		c-1.3,5.9-2.8,13.2-3.9,19.3c-0.1,0.6-0.3,1.5,0.2,2.1c0.4,0.7,0.2,1.7,0,2.3l-0.8,2c-0.5,0.7-1.5,0.5-2.3,0.1
		c-1.6-0.7-3.1-2.1-4.3-3.5c-1.2-1.4-0.6-4.9-0.1-6.8l2.9-14.7c-3.9,0.4-10.9,1.3-15.8,2.1L365.1,66.6z"/>
	<path fill="#FFFFFF" d="M415.2,11.4c1.9,1.2,6.2,3.6,4.6,6c-1.2,1.6-5,16.7-11.4,45.3c-0.2,0.9-0.2,1.7,0.1,2.3
		c0.4,0.8,0,1.2-0.6,1.9c-1.3,1.5-5.8-1.4-6.8-2.7c-0.7-0.9-0.8-1.9-0.6-3.1c1.4-6,9.1-37.8,10.6-43.9
		C412.3,12.5,412.6,9.8,415.2,11.4z"/>
	<path fill="#FFFFFF" d="M445.3,22.3c-4.4-4.2-12.7-4.4-13.8-1.5c-1.5,3.7,0.6,7.6,3,10.7c4.6,5.7,10.8,9.5,15.1,14.9
		c3.2,3.7,4.6,8.4,1.9,12.3c-6.3,9.7-19.8,12.2-28.1,5.5c-2.6-2.1-4.1-4.8-4.7-8.1c-0.2-1.8,0.2-3.6,1.5-5c1.7-2,5.2-4.7,5.2-1.6
		c0,4.5,2.4,7.7,6.3,10c4.1,2.5,9.7,3.1,13.8,1.4c3.7-1.7,0.8-5.4-0.9-7.6c-4.5-5.8-10.6-10.4-15-15.4c-9-9.7-2.7-22.1,8.2-23.9
		c5-0.9,11.2,1.6,13,3.3l1.2-2.8c0.6-1.5,1.2-1.7,2.5-0.9c1.6,0.9,2.9,2.2,4.1,3.7c0.6,0.8,0.7,1.6,0.4,2.5l-0.9,1.5
		c-2.3,4.8-3.6,9.6-4.9,14.3c-0.2,0.9-0.4,1.2-1.4,0.9c-1.2-0.4-2.9-1.9-3.9-2.9c-1.4-1.2-1.2-3.3-0.7-5.1
		C448,25.3,448.4,25.3,445.3,22.3z"/>
	<path fill="#FFFFFF" d="M504.4,12.3l1.8,1.2l0.9-2.9c0.4-1,1.6-0.8,2.1-0.6c2.1,1,4.5,4.4,4.3,5.8c-4.7,15.9-9.1,35.7-11.4,50.9
		c-0.1,0.8-0.7,1.7-1.5,1.3c-0.9-0.4-3.8-1.9-4.9-3.4c-1-1.5-0.7-2.2-0.4-3.7c0.7-4.4,5.3-25.6,6.8-31.8
		c-6.1,12.5-13.1,23.3-18,35.3c-0.7,1.7-0.8,2.5-0.8,4.1c0,0.7-0.2,0.9-0.9,0.7c-1.2-0.4-3.6-2-4.7-3.6c-0.7-0.9-0.9-3-1.1-4.4
		c-0.7-6.6-2.7-23.1-3.3-30.6c-1,5.9-7.1,28.8-8.4,34.4l-0.7,2.9c-0.1,0.4-0.4,0.6-0.8,0.6c-2.8-1.2-6-3.6-6.2-6.8
		c0-1.2,1-1.4,1.3-2.2c3.7-14.2,8.2-31.2,11.7-47.7c0.1-0.9,0.8-1.4,1.5-1c3.3,1.5,5.8,2.8,7,4.5c0.6,0.9,0.1,2,0.1,2.8
		c0.7,12,2.4,23.2,3.1,34.5c7.4-14.7,13.8-26.6,20.6-39.4C503.1,12.1,503.5,11.7,504.4,12.3z"/>
	<path fill="#FFFFFF" d="M545,15.1c3.3,1.9,5.9,4.2,7.4,7.5c4.4,9.9-2.1,23.7-7.2,31.8c-4.6,7.1-13,16.3-21.5,12.2
		c-7.4-3.6-9.9-11.4-9.5-18.4c0.5-6,2-11.6,3.9-17c2.5-7,7-15.7,9.1-19.1c0.4-0.8,0.8-0.9,1.7-0.6c1.2,0.4,3.9,2.8,4.9,3.7
		C537.7,13.2,541.2,13.1,545,15.1z M527,30c-2.8,7-5.5,16.2-6.2,23.2c-0.7,6.4,0.9,12.5,8.2,7.6c9.8-6.4,18.4-25.6,18.4-36.5
		c0-5.2-3.1-7-7.1-4.9c-4.4,2.3-8.1,8.8-8.7,10.5c-0.6,1.5-1.5,1.2-2,1.2L527,30z"/>
	<path fill="#FFFFFF" d="M580.8,22.3c-4.4-4.2-12.7-4.4-13.8-1.5c-1.5,3.7,0.6,7.6,3,10.7c4.6,5.7,10.8,9.5,15.1,14.9
		c3.2,3.7,4.6,8.4,1.9,12.3c-6.3,9.7-19.8,12.2-28.1,5.5c-2.6-2.1-4.1-4.8-4.7-8.1c-0.2-1.8,0.2-3.6,1.5-5c1.7-2,5.2-4.7,5.2-1.6
		c0,4.5,2.4,7.7,6.3,10c4.1,2.5,9.7,3.1,13.8,1.4c3.7-1.7,0.8-5.4-0.9-7.6c-4.5-5.8-10.6-10.4-15-15.4c-9-9.7-2.7-22.1,8.2-23.9
		c5-0.9,11.2,1.6,13,3.3l1.2-2.8c0.6-1.5,1.2-1.7,2.5-0.9c1.6,0.9,2.9,2.2,4.1,3.7c0.6,0.8,0.7,1.6,0.4,2.5l-0.9,1.5
		c-2.3,4.8-3.6,9.6-4.9,14.3c-0.2,0.9-0.4,1.2-1.4,0.9c-1.2-0.4-2.9-1.9-3.9-2.9c-1.4-1.2-1.2-3.3-0.7-5.1
		C583.5,25.3,583.9,25.3,580.8,22.3z"/>
	<path fill="#FFFFFF" d="M623.8,57.4c1.5-0.1,2.5-1.8,3.5-0.9c1.1,0.9,3.6,3.9,4.4,5c1.7,2.8-0.4,2.7-2.3,2.8
		c-6.8,0.3-20.9,1.5-30.1,2.4c-2.1,0.1-5.2-2.7-6.3-4.4c-0.7-0.9,0-1.4,1.1-1.6c1.2-0.2,2.8-0.4,4.1-0.6c1.5-5.7,2.9-11.5,4.3-17.2
		c-1.5-1.2-2.8-2.2-4.1-3.7c-0.8-0.8-0.8-2.1,0.2-2.3c2.1-0.6,3.5-0.7,5.2-1.2c0.8-0.2,0.9-0.6,1.3-2.1l2.7-10.3
		c-2.7-2-4.6-3.7-5-4.7c-0.4-0.8-0.1-1.4,0.8-1.5l6-1l0.6-1.5c0.6-1.5,1.3-0.8,3.1,0.2c0.5,0.2,0.9,0.7,1.5,0.6
		c5.8-1,12.7-2.1,18.6-3.1c0.9-0.4,2-0.7,2.8-0.2c1.2,0.7,3.1,2.3,4.7,4.6c0.6,0.8,0.1,1.4-0.9,1.5l-23.6,4
		c-0.6,0.1-0.9,0.4-0.9,0.9c-1.1,3.6-2,7.4-3.1,11.3c6-0.8,11.4-1.7,15.1-2c0.7-0.1,1.5,0,2,0.3c1.7,0.9,3.1,2.3,4.2,3.8
		c0.7,0.9,0.6,2-0.4,2.2c-8.3,0.9-16,2-22.7,3.1c-1.5,5.5-2.9,11.5-4.2,17.7C608.4,59.1,622,57.5,623.8,57.4z"/>
	<path fill="#FFFFFF" d="M678.2,67.8c0.1,0.7,0.2,2-0.7,2c-2-0.1-5.2-1.6-6.5-3.5c-0.9-0.9-0.9-2.4-1.2-3.7
		c-0.7-4.7-0.8-7.6-1.4-12.4c-0.1-0.9-0.4-0.7-1.1-0.7c-3.9,0.3-10,0.9-14,1.5c-0.7,0.1-1.2,0.3-1.4,0.9c-2.2,5.2-4.5,10.2-6.8,15.3
		l-0.4,0.9c-0.2,0.9-0.6,1.2-1.3,0.9c-2-0.9-3-1.7-4.1-2.7c-0.8-0.7-1-1.7-1-2.5V62c0-1,0-1,1.2-1.2l4-8.8c-0.6,0-1.7-0.4-2.1-0.6
		c-0.9-0.6-2.2-1.7-3.5-3.4c-0.6-1-1-2,0.4-2.2c3.9-0.5,4.5-0.5,7.8-0.9c0.7-0.1,1-0.4,1.3-0.9c4.1-9.1,8.4-17.9,12.5-26.6
		c0.5-1.2,1.3-2.7,1.3-3.7c0-1.5,1.3-1.1,2.2-0.9c0.1-1.6,0.1-3.5,2-2.9c1.8,0.6,4.2,1.7,5.5,3.2c0.8,0.8,1.2,1.7,0.9,3
		c-0.3,1.7-0.1,3.1,0.1,4.7c0.8,7,1.7,13.6,2.7,20.3c0.1,0.9,0.2,0.7,1.2,0.8c2.1,0.2,2.8,1.4,5.6,5.2c0.6,0.8,0.1,1.2-0.8,1.2
		c-1.5,0-3.2,0.1-4.9,0.4L678.2,67.8z M667.4,41.6c-0.8-5.8-1.4-13.6-2.3-19.1L656,43.7c3.8-0.4,7.1-0.6,10.8-1
		C667.6,42.4,667.4,42.2,667.4,41.6z"/>
	<path fill="#FFFFFF" d="M695.9,65.4l-0.4,2.9c-0.2,1.2-0.7,1.5-1.9,0.9c-1.5-0.7-2.4-1.6-3.7-2.5c-0.7-0.9-1.7-0.6-2.7-0.9
		c-1.8-1-3.5-2.6-4.4-4.3c-0.6-1-0.2-1.5,0.9-1.6c1.2-0.2,4.1-0.5,5.3-0.6c3.9-15.5,10.4-42.4,10.5-46.6c0-1.2,0.5-1.7,1.7-1.1
		c1.8,0.9,5.8,3.4,5.3,6c-0.2,1.7-0.4,3.3-0.8,5.1c-2.5,12.2-5.8,23.9-8.3,35.8c1.9-0.1,13.2-0.9,16.6-1.3c1.7-0.2,2.3-2.2,3.6-1.2
		c1.1,0.8,3.3,3.7,4,4.9c0.2,0.5,0.4,1.1,0.1,1.5c-0.7,1.2-3.3,1-4.5,1.2C713.4,63.8,699.6,65.1,695.9,65.4z"/>
	<path fill="#FFFFFF" d="M754.4,15.1c3.3,1.9,5.9,4.2,7.4,7.5c4.4,9.9-2.1,23.7-7.2,31.8c-4.6,7.1-13,16.3-21.5,12.2
		c-7.4-3.6-9.9-11.4-9.5-18.4c0.5-6,2-11.6,3.9-17c2.5-7,7-15.7,9.1-19.1c0.4-0.8,0.8-0.9,1.7-0.6c1.2,0.4,3.9,2.8,4.9,3.7
		C747.1,13.2,750.6,13.1,754.4,15.1z M736.4,30c-2.8,7-5.5,16.2-6.2,23.2c-0.7,6.4,0.9,12.5,8.2,7.6c9.8-6.4,18.4-25.6,18.4-36.5
		c0-5.2-3.1-7-7.1-4.9c-4.4,2.3-8.1,8.8-8.7,10.5c-0.6,1.5-1.5,1.2-2,1.2L736.4,30z"/>
</g>
<path fill="#FFFFFF" d="M63.3,1.9H14c-7.7,0-14,6.3-14,14v49.3c0,7.7,6.2,13.9,14,13.9h49.3c7.7,0,13.9-6.2,13.9-13.9V15.9
	C77.2,8.2,71,1.9,63.3,1.9z M65,23h-5.1c-2.5,0-4.6,2.1-4.6,4.6V31H65v10.4h-9.7v32H41.6v-32h-8.8V31h8.8v-6.2
	c0-6.8,5.5-12.2,12.2-12.2H65V23z"/>
<path fill-rule="evenodd" clip-rule="evenodd" fill="#FFFFFF" d="M225.7,1.9h57.4c5.5,0,9.9,4.5,9.9,9.9v57.4c0,5.4-4.5,9.9-9.9,9.9
	h-57.4c-5.4,0-9.9-4.5-9.9-9.9V11.8C215.8,6.4,220.3,1.9,225.7,1.9L225.7,1.9z M272,10.5c-1.9,0-3.5,1.6-3.5,3.5v8.3
	c0,1.9,1.6,3.5,3.5,3.5h8.7c1.9,0,3.5-1.6,3.5-3.5V14c0-1.9-1.6-3.5-3.5-3.5H272L272,10.5z M284.3,34.6h-6.8c0.6,2.1,1,4.3,1,6.6
	c0,12.8-10.7,23.2-24,23.2c-13.2,0-24-10.4-24-23.2c0-2.3,0.4-4.5,1-6.6h-7.1v32.6c0,1.7,1.4,3.1,3.1,3.1h53.8
	c1.7,0,3.1-1.4,3.1-3.1V34.6L284.3,34.6z M254.5,25.3c-8.6,0-15.5,6.7-15.5,15c0,8.3,6.9,15,15.5,15c8.6,0,15.5-6.7,15.5-15
	C270,32,263,25.3,254.5,25.3z"/>
<path fill="#FFFFFF" d="M197.1,11c-3.5,1.6-7.2,2.6-11.2,3.1c4-2.4,7.1-6.2,8.6-10.8c-3.8,2.2-7.9,3.9-12.4,4.7
	c-3.6-3.8-8.6-6.1-14.2-6.1c-10.8,0-19.5,8.7-19.5,19.5c0,1.5,0.2,3,0.5,4.4c-16.2-0.8-30.6-8.6-40.2-20.4c-1.7,2.9-2.6,6.2-2.6,9.8
	c0,6.8,3.4,12.7,8.7,16.2c-3.2-0.1-6.2-1-8.8-2.4c0,0.1,0,0.2,0,0.2c0,9.4,6.7,17.3,15.6,19.1c-1.6,0.4-3.4,0.7-5.1,0.7
	c-1.3,0-2.5-0.1-3.7-0.3c2.5,7.7,9.7,13.4,18.2,13.5c-6.7,5.2-15.1,8.3-24.2,8.3c-1.6,0-3.1-0.1-4.7-0.3c8.6,5.5,18.9,8.8,29.9,8.8
	c35.8,0,55.4-29.7,55.4-55.4c0-0.8,0-1.7-0.1-2.5C191.2,18.4,194.5,15,197.1,11z"/>
<g>
</g>
<g>
</g>
<g>
</g>
<g>
</g>
<g>
</g>
<g>
</g>
<g>
</g>
<g>
</g>
<g>
</g>
<g>
</g>
<g>
</g>
<g>
</g>
<g>
</g>
<g>
</g>
<g>
</g>
</svg>
