<?xml version="1.0" encoding="utf-8"?>
<!-- Generator: Adobe Illustrator 18.0.0, SVG Export Plug-In . SVG Version: 6.00 Build 0)  -->
<!DOCTYPE svg PUBLIC "-//W3C//DTD SVG 1.1//EN" "http://www.w3.org/Graphics/SVG/1.1/DTD/svg11.dtd">
<svg version="1.1" id="Layer_1" xmlns="http://www.w3.org/2000/svg" xmlns:xlink="http://www.w3.org/1999/xlink" x="0px" y="0px"
	 viewBox="0 0 606 182.1" style="enable-background:new 0 0 606 182.1;" xml:space="preserve">
<style type="text/css">
	.st0{fill:#62C8D2;}
	.st1{fill:#FFFFFF;}
</style>
<g>
	<g>
		<g>
			<g>
				<path class="st0" d="M59.8,25.4c0.7,0.3,1.2,0.8,1.7,1.5c0.5,0.7,0.7,1.7,0.7,2.9c0,1.2-0.2,2.7-0.7,4.5c-0.5,1.8-1.3,4-2.5,6.5
					L32.3,96.6c-2.9,1-5.2,1.1-6.8,0.5c-0.7-0.2-1.2-0.7-1.7-1.4c-0.5-0.7-0.7-1.6-0.7-2.8c0-1.2,0.2-2.8,0.8-4.6
					c0.6-1.9,1.5-4.2,2.7-6.9l26.8-56C56.1,24.6,58.2,24.6,59.8,25.4z"/>
				<path class="st0" d="M27.8,120.5c-3.8,0-7.4-0.7-10.7-2c-5-1.9-9.2-5.4-12.3-9.9c-3-4.3-4.6-9.5-4.7-15.2
					c-0.1-3.7,0.5-7.5,1.7-11.7c0.9-3,2.2-6.3,4-10.1c0-0.1,0.1-0.1,0.1-0.2l26.8-56c3-6.2,8.6-10.8,15.2-12.4
					c7.9-2,15.3-1.4,21.7,1.5c4.6,2.1,8.5,5.5,11.4,9.8c2.8,4.4,4.3,9.4,4.5,14.9c0.1,3.5-0.4,7.2-1.5,11.2c-0.8,3-2,6.3-3.7,10
					c-0.1,0.2-0.2,0.3-0.2,0.5l-26.8,55.7c-2.7,5.6-7.6,9.9-13.5,11.9C35.4,119.9,31.6,120.5,27.8,120.5z"/>
			</g>
			<g>
				<path class="st0" d="M81.8,25.4c0.7,0.3,1.2,0.8,1.7,1.5c0.5,0.7,0.7,1.7,0.7,2.9c0,1.2-0.2,2.7-0.7,4.5c-0.5,1.8-1.3,4-2.5,6.5
					L54.2,96.6c-2.9,1-5.2,1.1-6.8,0.5c-0.7-0.2-1.2-0.7-1.7-1.4c-0.5-0.7-0.7-1.6-0.7-2.8c0-1.2,0.2-2.8,0.8-4.6
					c0.5-1.9,1.5-4.2,2.7-6.9l26.8-56C78.1,24.6,80.2,24.6,81.8,25.4z"/>
				<path class="st0" d="M49.7,120.5c-3.8,0-7.4-0.7-10.7-2c-5-1.9-9.2-5.3-12.3-9.8c-3-4.4-4.6-9.5-4.7-15.2
					c-0.1-3.7,0.5-7.5,1.7-11.8c0.9-3,2.2-6.3,4-10.1c0-0.1,0.1-0.1,0.1-0.2l26.8-56c3-6.2,8.6-10.8,15.2-12.4
					c7.9-2,15.3-1.4,21.6,1.5c4.6,2.1,8.6,5.5,11.4,9.9c2.8,4.3,4.3,9.3,4.5,14.9c0.1,3.5-0.4,7.2-1.5,11.2c-0.8,3-2,6.3-3.7,10
					c-0.1,0.2-0.2,0.3-0.2,0.5L75,106.6c-2.7,5.6-7.6,9.9-13.5,11.9C57.4,119.9,53.5,120.5,49.7,120.5z"/>
			</g>
			<g>
				<path class="st0" d="M106.5,48.6c1.8,0.5,3.2,1.3,4.3,2.3c1.1,1,2,2.3,2.5,3.7c0.5,1.4,0.7,3,0.7,4.6c-0.1,1.6-0.4,3.2-1,4.8
					c-0.9,2.6-2.2,4.9-4,7c-1.7,2.1-3.7,3.9-5.9,5.3c-2.9,1.9-5.9,3.2-9.1,4c-0.4,0.1-0.8,0.2-1.2,0.4c-0.5,0.1-0.9,0.2-1.5,0.4
					c-0.5,0.1-1,0.2-1.5,0.2c-0.5,0-0.9,0-1.2-0.1c-0.7-0.3-1.6-0.8-2.6-1.4c-1-0.6-1.8-1.4-2.2-2.2C83.6,78.2,83.3,79,83,80
					c-0.3,1-0.4,1.9-0.5,2.9c-0.1,0.9,0,1.8,0.3,2.5c0.2,0.7,0.8,1.1,1.6,1.1c1,0.1,2.1,0.1,3.2-0.1c1.1-0.2,2.1-0.6,3.2-1.1
					c0.1-0.1,0.3-0.2,0.8-0.5c0.5-0.2,0.9-0.5,1.4-0.8c0.5-0.3,0.9-0.5,1.3-0.8c0.4-0.3,0.6-0.5,0.6-0.6c0.1-0.2,0.4-0.3,1-0.2
					c0.6,0,1.2,0.1,1.9,0.3c0.7,0.2,1.3,0.3,1.9,0.5c0.6,0.2,0.9,0.4,1.1,0.4c1,0.6,1.6,1.4,1.6,2.4c0,1-0.2,1.9-0.6,2.8
					c-1,2.3-2.6,4.1-4.7,5.6c-2.1,1.5-4.3,2.5-6.5,3.1c-2.2,0.6-4.5,0.8-6.8,0.6c-2.4-0.2-4.5-0.9-6.5-2.3c-2-1.4-3.5-3.2-4.4-5.4
					c-0.9-2.2-1.5-4.5-1.6-6.9c0-3.2,0.5-6.5,1.6-9.7c1.1-3.2,2.5-6.2,4.4-9.1c1.9-2.9,4-5.5,6.5-7.8c2.5-2.3,5.1-4.2,7.8-5.7
					c2.3-1.1,4.7-2,7.4-2.7C101.3,48.1,103.9,48,106.5,48.6z M97.9,65.6c1-0.8,1.8-1.6,2.3-2.5c0.5-0.9,1.1-1.8,1.7-2.9
					c-0.5-0.1-1.3,0-2.1,0.3c-0.9,0.3-1.7,0.7-2.6,1.2c-0.9,0.5-1.7,1-2.5,1.6c-0.8,0.5-1.4,1-1.8,1.4c-1.2,1-2.4,2.2-3.4,3.3
					c-1.1,1.2-2,2.5-2.8,3.9l2.7-1.4c1.5-0.6,3-1.3,4.5-2.1C95.3,67.6,96.7,66.7,97.9,65.6z"/>
				<path class="st0" d="M85,121.4c-1.1,0-2.3,0-3.4-0.1c-6.4-0.5-12.4-2.6-17.7-6.3c0,0-0.1-0.1-0.1-0.1c-5.5-3.8-9.8-9-12.4-15.1
					c-2.1-4.7-3.2-9.8-3.5-15c0-0.4,0-0.8,0-1.1c0-5.7,0.9-11.4,2.8-17c1.7-5,4-9.9,6.9-14.4c2.9-4.4,6.3-8.5,10.1-12
					c3.9-3.7,8.2-6.8,12.8-9.2c0.3-0.1,0.5-0.3,0.8-0.4c3.6-1.8,7.5-3.2,11.7-4.3c6.3-1.7,12.8-1.7,19-0.3c0.3,0.1,0.5,0.1,0.8,0.2
					c5.3,1.5,10,4,13.8,7.5c3.9,3.6,6.8,7.9,8.6,12.8c1.5,4.3,2.2,8.7,2.1,13.3c-0.2,4.1-1,8.1-2.4,12c-1.8,5-4.4,9.6-7.8,13.7
					c-0.6,0.7-1.1,1.3-1.7,2c-0.2,3.9-1.1,7.7-2.8,11.1c-2.8,5.9-6.9,10.8-12.4,14.6c-4.3,3-8.8,5.1-13.6,6.4
					C92.6,120.9,88.8,121.4,85,121.4z"/>
			</g>
			<g>
				<path class="st0" d="M155.1,63.4c0.9,0.1,1.5,0.5,1.8,1.1c0.4,0.6,0.6,1.4,0.6,2.2c0,0.9,0,1.7-0.1,2.6
					c-0.1,0.9-0.3,1.6-0.5,2.2c-0.6,2.7-1.6,5.4-2.9,7.9c-1.3,2.5-2.6,5.1-3.8,7.6c-1.6,3.2-3.2,6.5-5,9.9c-1.7,3.4-3.7,6.6-5.9,9.7
					c-2.2,3.1-4.7,5.8-7.5,8.2c-2.8,2.4-6,4.3-9.7,5.5c-2.9,1-6,1.4-9.2,1.2c-3.2-0.2-6.2-1.3-8.9-3.2c-0.6-0.5-1.4-1.2-2.3-2.2
					c-0.9-1-1.4-2-1.4-3c0.1-0.7,0.2-1.3,0.5-2c0.2-0.7,0.6-1.3,1-1.8c0.4-0.5,1-1,1.6-1.3c0.6-0.3,1.4-0.4,2.2-0.4
					c0.8,0.1,1.6,0.4,2.3,0.8c0.7,0.4,1.5,0.7,2.3,1.1c0.5,0.1,1,0.2,1.6,0.3c0.6,0.1,1.2,0.1,1.6,0.1c1.4,0.1,2.8,0,4.2-0.3
					c1.4-0.3,2.7-0.9,3.9-1.7c2.7-1.6,5-3.7,7-6.4c2-2.7,3.8-5.4,5.4-8.1c-0.3,0.2-0.6,0.4-0.9,0.6c-0.3,0.2-0.7,0.4-1.1,0.6
					c-1.1,0.8-2.3,1.5-3.5,2.1c-1.2,0.6-2.5,1-3.7,1.1c-1.3,0.2-2.5,0.1-3.8-0.2c-1.3-0.3-2.5-0.9-3.8-1.8c-1.2-0.9-2.2-2-2.8-3.2
					c-0.6-1.2-1.1-2.5-1.3-3.9c-0.2-1.4-0.3-2.8-0.2-4.3c0.1-1.5,0.4-2.9,0.7-4.2c0.7-3.1,1.8-6.1,3.4-9.1c1.6-2.9,3.5-5.6,5.6-8.1
					c2-2.4,4.3-4.6,6.8-6.5c2.5-1.9,5.2-3.5,8-4.8c2.8-1.3,5.8-2.2,8.9-2.8c3.1-0.6,6.2-0.7,9.4-0.4c1,0.1,2,0.3,2.9,0.4
					c0.9,0.2,1.7,0.6,2.3,1.2c0.4,0.4,0.8,0.9,1.2,1.5c0.4,0.6,0.8,1.2,1.1,1.8c0.3,0.6,0.4,1.3,0.4,1.9c0,0.6-0.2,1.2-0.6,1.8
					c-0.9,1-2,1.6-3.6,1.8c-1.5,0.2-2.9,0.3-4.1,0.4c-1.4,0.1-2.8,0.3-4.2,0.4c-1.4,0.2-2.8,0.4-4.2,0.8c-3.1,0.9-5.8,2.1-8.3,3.8
					c-2.5,1.6-4.8,3.6-6.8,5.9c-1.8,2.1-3.5,4.5-4.9,7.2c-1.4,2.7-2.2,5.4-2.3,8.1c2.9-1.8,5.7-3.8,8.2-6.1c2.5-2.3,5-4.6,7.5-7
					c1.8-1.5,3.4-3.1,5-4.8c1.6-1.6,3.2-3.3,4.9-4.9c0.2,0.1,0.5,0.1,1.1,0.1c0.6,0,1.1,0.1,1.6,0.1c0.5,0,1.1,0.1,1.5,0.1
					C154.8,63.3,155,63.4,155.1,63.4z"/>
				<path class="st0" d="M114.7,144.9c-1,0-2.1,0-3.2-0.1c-7.6-0.5-14.7-3.1-20.9-7.6c-0.3-0.2-0.6-0.4-0.9-0.7
					c-1.4-1.1-2.8-2.4-4.4-4.1c-5.1-5.3-7.9-12.1-7.9-19.1c0-0.7,0-1.4,0.1-2.1c0.2-2.6,0.8-5.2,1.7-7.8c1.1-2.9,2.6-5.7,4.5-8.1
					c1.8-2.3,3.9-4.3,6.3-5.9c-0.2-2.3-0.2-4.6,0-6.9c0.2-2.6,0.7-5.2,1.3-7.7c1.2-5.1,3.1-10.1,5.7-14.8c2.3-4.3,5.1-8.2,8.2-11.8
					c3.1-3.7,6.5-7,10.3-9.9c3.9-3,8.1-5.5,12.6-7.5c4.5-2,9.2-3.5,14.1-4.4c5.2-1,10.5-1.2,15.9-0.7c0.2,0,0.3,0,0.5,0.1
					c1.4,0.2,2.7,0.4,4,0.6c6.1,1,11.5,4,15.6,8.5c0.1,0.2,0.3,0.3,0.4,0.5c0.7,0.8,1.4,1.8,2.2,2.8c0,0,0,0.1,0.1,0.1
					c1.5,2,2.7,4.2,3.7,6.4c1.5,3.5,2.3,7.2,2.3,11c0,5.8-1.9,11.3-5.5,15.9c-0.1,0.2-0.3,0.4-0.4,0.5c-0.2,0.2-0.4,0.4-0.6,0.7
					c-0.2,1.7-0.5,3.2-0.9,4.6c-1,4.4-2.6,8.8-4.8,12.8c-1.2,2.3-2.3,4.6-3.5,6.9c0,0.1-0.1,0.2-0.1,0.2c-1.6,3.3-3.4,6.8-5.2,10.3
					c-2.2,4.4-4.8,8.6-7.6,12.6c-3.2,4.5-7,8.7-11.1,12.3c-5,4.3-10.7,7.6-17.1,9.9C125,144.1,119.9,144.9,114.7,144.9z"/>
			</g>
			<g>
				<path class="st0" d="M196.5,80.6c-1.4,3.1-3.2,5.9-5.3,8.5c-2.1,2.6-4.6,4.7-7.5,6.5c-1.3,0.9-2.8,1.6-4.4,2.2
					c-1.6,0.6-3.2,0.9-4.8,1.1c-1.6,0.1-3.2,0-4.8-0.3c-1.6-0.3-3.1-1-4.4-2.1c-1.9-1.3-3.3-3-4.2-4.9c-0.9-1.9-1.4-3.9-1.6-6
					c-0.1-2.1,0.1-4.3,0.5-6.6c0.5-2.3,1.2-4.5,2.1-6.6c0.9-2.1,1.9-4.1,3.1-6c1.1-1.9,2.3-3.5,3.4-4.9c2-2.4,4.3-4.6,6.7-6.4
					c2.5-1.8,5.1-3.3,8-4.3c1.3-0.5,2.4-0.8,3.2-1c0.9-0.2,1.9,0.1,3,0.8c0.6,0.4,1.2,0.8,1.6,1.4c0.5,0.5,0.9,1.1,1.1,1.7
					c0.3,0.6,0.4,1.2,0.3,1.9c-0.1,0.6-0.4,1.3-0.9,1.9l-0.5,0.6c1.3-0.1,2.5,0.4,3.6,1.4c1.1,1.1,2,2.1,2.6,3.2
					c0.7,1.4,1.2,2.9,1.4,4.4c0.2,1.6,0.2,3.1,0,4.7c-0.2,1.6-0.5,3.1-1,4.7C197.6,77.8,197.1,79.2,196.5,80.6z M183.1,80.4
					c1.6-2.2,3-4.6,3.9-7.3c1-2.7,1-5.3,0.1-8c0.1,0.1,0.2-0.1,0.4-0.4c0.1-0.3,0.2-0.6,0.4-1c0.1-0.4,0.2-0.7,0.3-1.1
					c0.1-0.3,0.2-0.5,0.2-0.6c0-0.3,0-0.7,0.1-1.1c0.1-0.4,0.2-0.8,0.3-1.1c-0.6,0.4-1.3,0.7-1.9,1.1c-0.7,0.4-1.3,0.8-1.9,1.2
					c-1.1,0.9-2.2,1.7-3.2,2.5c-1,0.8-2,1.7-2.9,2.7c-1,1.1-2,2.3-2.9,3.7c-0.9,1.4-1.7,2.8-2.4,4.3c-0.7,1.5-1.2,3-1.6,4.6
					c-0.4,1.6-0.5,3.1-0.3,4.7c0.1,1.1,0.4,1.8,1,2.1c0.5,0.3,1.2,0.4,1.9,0.1c0.8-0.2,1.6-0.6,2.5-1.2c0.9-0.6,1.7-1.2,2.6-1.9
					c0.8-0.7,1.6-1.4,2.2-2C182.4,81.2,182.9,80.7,183.1,80.4z M182,44.5c-1.5-1.8-2.5-3.5-3-5.1c-0.2-0.7-0.4-1.4-0.5-2.1
					c-0.1-0.7,0-1.4,0.3-2.1c0.2-0.7,0.7-1.3,1.3-1.9c0.6-0.6,1.5-1.1,2.6-1.5l23.5-8.7c1.5,1.8,2.6,3.5,3.3,5.1
					c0.5,1.4,0.6,2.8,0.3,4.3c-0.4,1.4-1.7,2.5-3.9,3.3L182,44.5z"/>
				<path class="st0" d="M173.3,121.8c-2.8,0-5.5-0.3-8.3-0.9c-4.9-1-9.3-3.1-13.4-6.1c-4.9-3.6-8.7-8.1-11.3-13.4
					c-2.2-4.6-3.5-9.6-3.8-14.8c-0.2-4.2,0.1-8.5,1-12.8c0.8-3.7,2-7.4,3.5-10.9c1.3-3.1,2.9-6.1,4.6-8.9c1.7-2.8,3.5-5.4,5.4-7.6
					c1.5-1.8,3.1-3.5,4.8-5.1c-0.1-0.7-0.2-1.5-0.3-2.2c-0.3-4.1,0.2-8.1,1.6-11.9c1.5-4,3.8-7.6,7.1-10.7c2.8-2.7,6.2-4.8,10.1-6.3
					c0.1,0,0.2-0.1,0.4-0.1l23.5-8.7c9.2-3.4,19.5-0.6,25.7,6.9c3,3.6,5.2,7.2,6.8,10.9c0.1,0.2,0.2,0.4,0.2,0.6
					c2.3,5.9,2.7,12.3,1.1,18.4c-1.8,6.9,8.5,11,2.1,14.9c1.2,2.9-12.7,7.6-12.3,10.7c0.5,3.5,0.5,7,0.1,10.5c-0.4,3.1-1,6.1-2,9.1
					c-0.8,2.4-1.6,4.7-2.6,6.8c0,0,0,0.1,0,0.1c-2.2,4.8-5,9.3-8.3,13.4c-3.7,4.6-8.2,8.5-13.3,11.6c-2.7,1.7-5.5,3.1-8.6,4.2
					c-3.5,1.3-7.2,2.1-10.9,2.4C175.4,121.8,174.3,121.8,173.3,121.8z"/>
			</g>
			<g>
				<path class="st0" d="M271,25.4c0.7,0.3,1.2,0.8,1.7,1.5c0.5,0.7,0.7,1.7,0.7,2.9c0,1.2-0.2,2.7-0.7,4.5c-0.5,1.8-1.3,4-2.5,6.5
					l-26.8,55.7c-2.9,1-5.2,1.1-6.8,0.5c-0.7-0.2-1.2-0.7-1.7-1.4c-0.5-0.7-0.7-1.6-0.7-2.8c0-1.2,0.2-2.8,0.8-4.6
					c0.5-1.9,1.5-4.2,2.7-6.9l26.8-56C267.3,24.6,269.4,24.6,271,25.4z"/>
				<path class="st0" d="M238.9,120.5c-3.8,0-7.4-0.7-10.7-2c-5-1.9-9.2-5.3-12.3-9.8c-3-4.4-4.6-9.5-4.7-15.2
					c-0.1-3.7,0.5-7.5,1.7-11.8c0.9-3,2.2-6.3,4-10.1c0-0.1,0.1-0.1,0.1-0.2l26.8-56c3-6.2,8.6-10.8,15.2-12.4
					c7.9-2,15.3-1.4,21.6,1.5c4.6,2.1,8.6,5.5,11.4,9.9c2.8,4.3,4.3,9.3,4.5,14.9c0.1,3.5-0.4,7.2-1.5,11.2c-0.8,3-2,6.3-3.7,10
					c-0.1,0.2-0.2,0.3-0.2,0.5l-26.8,55.7c-2.7,5.6-7.6,9.9-13.5,11.9C246.6,119.9,242.7,120.5,238.9,120.5z"/>
			</g>
			<g>
				<path class="st0" d="M302.1,48.6c0.9,0.1,1.9,0.3,2.8,0.4c1,0.2,1.8,0.6,2.4,1.2c0.4,0.4,0.9,0.9,1.3,1.5
					c0.4,0.6,0.8,1.2,1.1,1.8c0.3,0.6,0.4,1.3,0.4,1.9c0,0.6-0.3,1.2-0.7,1.8c-0.4,0.5-0.9,0.9-1.5,1.1c-0.6,0.3-1.3,0.5-2.1,0.6
					c-0.7,0.2-1.5,0.2-2.2,0.3c-0.7,0-1.3,0.1-1.9,0.1c-1.4,0.1-2.8,0.3-4.3,0.4c-1.5,0.2-2.9,0.4-4.2,0.8c-3.1,0.9-5.8,2.1-8.3,3.8
					c-2.5,1.6-4.8,3.6-6.8,5.9c-0.9,1-1.8,2.2-2.6,3.4c-0.8,1.2-1.6,2.5-2.2,3.8c-0.7,1.3-1.2,2.7-1.6,4c-0.4,1.4-0.7,2.7-0.7,4.1
					c2.9-1.8,5.6-3.8,8.1-6.1c2.5-2.3,5.1-4.6,7.6-7c1.2-1.1,2.4-2.2,3.6-3.4c1.2-1.2,2.4-2.4,3.6-3.6c0.1-0.1,0.2-0.2,0.5-0.5
					c0.3-0.2,0.6-0.5,0.9-0.8c0.3-0.3,0.6-0.5,0.9-0.8c0.3-0.2,0.4-0.4,0.4-0.5h0.7c1,0,2.1,0.1,3.2,0.4c1.1,0.2,2.1,0.7,3.1,1.4
					c1.1,0.7,1.9,1.8,2.4,3.1c0.5,1.3,0.2,3-0.8,5l-12.6,25.4c-2-0.1-3.6-0.4-5-0.9c-1.2-0.5-2.3-1.2-3.2-2.1
					c-0.9-0.9-1.2-2.3-0.9-4l-5,3.6c-1.1,0.8-2.3,1.5-3.5,2.1c-1.3,0.6-2.5,1-3.8,1.1c-1.3,0.2-2.5,0.1-3.8-0.2
					c-1.3-0.3-2.5-0.9-3.6-1.8c-1.2-0.9-2.2-2-2.8-3.2c-0.7-1.2-1.1-2.5-1.3-3.9c-0.2-1.4-0.3-2.8-0.2-4.3c0.1-1.5,0.3-2.9,0.7-4.2
					c0.7-3.1,1.9-6.1,3.5-9.1c1.6-2.9,3.4-5.6,5.4-8.1c2.1-2.4,4.4-4.6,6.9-6.5c2.5-1.9,5.2-3.5,8-4.8c2.8-1.3,5.8-2.2,8.9-2.8
					C295.7,48.5,298.9,48.3,302.1,48.6z"/>
				<path class="st0" d="M292.5,121.3c-0.2,0-0.5,0-0.7,0c-4-0.1-7.8-0.8-11.2-1.9c-2,0.7-4.1,1.2-6.2,1.5
					c-4.2,0.6-8.5,0.4-12.6-0.6c-4.4-1.1-8.5-3.1-12.2-6c-3.8-2.9-6.8-6.4-9-10.4c-2-3.6-3.3-7.5-3.9-11.6c-0.5-3-0.6-6.1-0.4-9.2
					c0.2-2.9,0.6-5.7,1.3-8.4c1.2-5,3.1-9.8,5.6-14.4c2.3-4.2,4.9-8.2,7.9-11.7c0.1-0.1,0.1-0.2,0.2-0.3c3.1-3.7,6.6-7,10.4-9.9
					c3.9-3,8.1-5.5,12.6-7.5c4.5-2,9.2-3.5,14.1-4.4c5.2-1,10.5-1.2,15.9-0.7c0.3,0,0.6,0.1,0.9,0.1c1.1,0.1,2.2,0.3,3.3,0.5
					c6,0.9,11.4,3.7,15.5,8.1c1.1,1.1,2.2,2.4,3.2,3.8c0,0,0,0,0,0.1c1.5,2,2.7,4.2,3.7,6.4c1.7,3.8,2.4,7.9,2.2,12.1
					c-0.2,4.4-1.5,8.6-3.8,12.4c0,4.1-0.9,8.9-3.5,14.2l-12.6,25.3C309.3,116.4,301.2,121.3,292.5,121.3z"/>
			</g>
			<g>
				<path class="st0" d="M343.3,99.3c-0.7-0.2-1.3-0.7-1.7-1.2c-0.5-0.6-0.8-1.4-1-2.3c-0.2-1-0.1-2.2,0.2-3.6
					c0.3-1.4,0.9-3.1,1.9-5.1l19.5-40.8c0.4-0.1,0.8-0.1,1.2-0.2c0.7-0.1,1.6,0,2.7,0.2l-1-10.7c2-1.8,3.9-2.7,5.6-2.8
					c0.7-0.1,1.5,0.1,2.2,0.4c0.7,0.3,1.4,0.9,2.1,1.7c0.6,0.9,1.2,2,1.6,3.6c0.5,1.5,0.8,3.5,1.1,5.9l2.7,28.9l20-41.6
					c2.6-0.5,4.7-0.4,6.3,0.4c0.7,0.4,1.2,0.9,1.7,1.5c0.5,0.6,0.7,1.5,0.8,2.6c0.1,1.1-0.1,2.5-0.5,4.1c-0.4,1.6-1.2,3.6-2.3,5.9
					l-23.7,49.8v0.2c-2,2-3.9,3.1-5.6,3.4c-0.7,0.1-1.5,0-2.2-0.2c-0.7-0.3-1.4-0.9-2.1-1.7c-0.6-0.9-1.2-2.1-1.6-3.7
					c-0.5-1.6-0.8-3.6-1.1-6.1l-2.4-25.4l-18.1,37.5C347,100.1,344.9,100,343.3,99.3z"/>
				<path class="st0" d="M346.6,123c-4.2,0-8.1-0.7-11.8-2.2c-4.2-1.6-8-4.3-10.9-7.8c-3.2-3.8-19.5,18.5-20.3,13.3
					c-0.6-3.8,13.7-34.8,14.6-39c0.7-3.2,1.9-6.6,3.7-10.2l19.5-40.8c0.2-0.4,0.4-0.8,0.6-1.1c0.1-6.5,2.9-12.6,7.8-17
					c5.8-5.1,12.2-8,19-8.5c4.4-0.3,8.7,0.4,12.8,2.1c1.3,0.6,2.6,1.2,3.9,2c3-2.5,6.6-4.2,10.5-4.9c7.4-1.4,14.2-0.7,20.2,2.1
					c0.5,0.2,0.9,0.4,1.4,0.7c3.8,2,6.9,4.9,9.4,8.3c2.9,4.1,4.6,8.8,5.1,14.1c0.3,3.7-0.1,7.6-1.2,11.8c-0.8,3.2-2.1,6.5-3.8,10.1
					l-22.9,48.1c-1.1,3-2.9,5.8-5.3,8.2c-5.5,5.5-11.7,8.9-18.4,9.9c-4.6,0.7-9.4,0.2-13.8-1.4c-1.4-0.5-2.8-1.2-4.2-2
					c-2.6,1.8-5.6,3-8.7,3.6C351.3,122.8,348.9,123,346.6,123z"/>
			</g>
			<g>
				<path class="st0" d="M436.1,48.6c1.8,0.5,3.2,1.3,4.3,2.3c1.1,1,2,2.3,2.5,3.7c0.5,1.4,0.7,3,0.7,4.6c-0.1,1.6-0.4,3.2-1,4.8
					c-0.9,2.6-2.2,4.9-4,7c-1.7,2.1-3.7,3.9-5.9,5.3c-2.9,1.9-5.9,3.2-9.1,4c-0.4,0.1-0.8,0.2-1.2,0.4c-0.5,0.1-0.9,0.2-1.5,0.4
					c-0.5,0.1-1,0.2-1.5,0.2c-0.5,0-0.9,0-1.2-0.1c-0.7-0.3-1.6-0.8-2.6-1.4c-1-0.6-1.8-1.4-2.2-2.2c-0.2,0.7-0.5,1.6-0.8,2.6
					c-0.3,1-0.4,1.9-0.5,2.9c-0.1,0.9,0,1.8,0.3,2.5c0.2,0.7,0.8,1.1,1.6,1.1c1,0.1,2.1,0.1,3.2-0.1c1.1-0.2,2.1-0.6,3.2-1.1
					c0.1-0.1,0.3-0.2,0.8-0.5c0.5-0.2,0.9-0.5,1.4-0.8c0.5-0.3,0.9-0.5,1.3-0.8c0.4-0.3,0.6-0.5,0.6-0.6c0.1-0.2,0.4-0.3,1-0.2
					c0.6,0,1.2,0.1,1.9,0.3c0.7,0.2,1.3,0.3,1.9,0.5c0.6,0.2,0.9,0.4,1.1,0.4c1,0.6,1.6,1.4,1.6,2.4c0,1-0.2,1.9-0.6,2.8
					c-1,2.3-2.6,4.1-4.7,5.6c-2.1,1.5-4.3,2.5-6.5,3.1c-2.2,0.6-4.5,0.8-6.8,0.6c-2.4-0.2-4.5-0.9-6.5-2.3c-2-1.4-3.5-3.2-4.4-5.4
					c-0.9-2.2-1.5-4.5-1.6-6.9c0-3.2,0.5-6.5,1.6-9.7c1.1-3.2,2.5-6.2,4.4-9.1c1.9-2.9,4-5.5,6.5-7.8c2.5-2.3,5.1-4.2,7.8-5.7
					c2.3-1.1,4.7-2,7.4-2.7C430.9,48.1,433.5,48,436.1,48.6z M427.5,65.6c1-0.8,1.8-1.6,2.3-2.5c0.5-0.9,1.1-1.8,1.7-2.9
					c-0.5-0.1-1.3,0-2.1,0.3c-0.9,0.3-1.7,0.7-2.6,1.2c-0.9,0.5-1.7,1-2.5,1.6c-0.8,0.5-1.4,1-1.8,1.4c-1.2,1-2.4,2.2-3.4,3.3
					c-1.1,1.2-2,2.5-2.8,3.9l2.7-1.4c1.5-0.6,3-1.3,4.5-2.1C424.9,67.6,426.3,66.7,427.5,65.6z"/>
				<path class="st0" d="M414.6,121.4c-1.1,0-2.3,0-3.4-0.1c-6.4-0.5-12.4-2.6-17.7-6.3c0,0-0.1-0.1-0.1-0.1
					c-5.5-3.8-9.8-9-12.4-15.1c-2.1-4.7-3.2-9.8-3.5-15c0-0.4,0-0.8,0-1.1c0-5.7,0.9-11.4,2.8-17c1.7-5,4-9.9,6.9-14.4
					c2.9-4.4,6.3-8.5,10.1-12c3.9-3.7,8.2-6.8,12.8-9.2c0.3-0.1,0.5-0.3,0.8-0.4c3.6-1.8,7.5-3.2,11.7-4.3c6.3-1.7,12.8-1.7,19-0.3
					c0.3,0.1,0.5,0.1,0.8,0.2c5.3,1.5,10,4,13.8,7.5c3.9,3.6,6.8,7.9,8.6,12.8c1.5,4.3,2.2,8.7,2.1,13.3c-0.2,4.1-1,8.1-2.4,12
					c-1.8,5-4.4,9.6-7.8,13.7c-0.6,0.7-1.1,1.3-1.7,2c-0.2,3.9-1.1,7.7-2.8,11.1c-2.8,5.9-6.9,10.8-12.4,14.6
					c-4.3,3-8.8,5.1-13.6,6.4C422.2,120.9,418.4,121.4,414.6,121.4z"/>
			</g>
			<g>
				<path class="st0" d="M484.7,63.4c0.9,0.1,1.5,0.5,1.8,1.1c0.4,0.6,0.6,1.4,0.6,2.2c0,0.9,0,1.7-0.1,2.6
					c-0.1,0.9-0.3,1.6-0.5,2.2c-0.6,2.7-1.6,5.4-2.9,7.9c-1.3,2.5-2.6,5.1-3.8,7.6c-1.6,3.2-3.2,6.5-5,9.9c-1.7,3.4-3.7,6.6-5.9,9.7
					c-2.2,3.1-4.7,5.8-7.5,8.2c-2.8,2.4-6,4.3-9.7,5.5c-2.9,1-6,1.4-9.2,1.2c-3.2-0.2-6.2-1.3-8.9-3.2c-0.6-0.5-1.4-1.2-2.3-2.2
					c-0.9-1-1.4-2-1.4-3c0.1-0.7,0.2-1.3,0.5-2c0.2-0.7,0.6-1.3,1-1.8c0.4-0.5,1-1,1.6-1.3c0.6-0.3,1.4-0.4,2.2-0.4
					c0.8,0.1,1.6,0.4,2.3,0.8c0.7,0.4,1.5,0.7,2.3,1.1c0.5,0.1,1,0.2,1.6,0.3c0.6,0.1,1.2,0.1,1.6,0.1c1.4,0.1,2.8,0,4.2-0.3
					c1.4-0.3,2.7-0.9,3.9-1.7c2.7-1.6,5-3.7,7-6.4c2-2.7,3.8-5.4,5.4-8.1c-0.3,0.2-0.6,0.4-0.9,0.6c-0.3,0.2-0.7,0.4-1.1,0.6
					c-1.1,0.8-2.3,1.5-3.5,2.1c-1.2,0.6-2.5,1-3.7,1.1c-1.3,0.2-2.5,0.1-3.8-0.2c-1.3-0.3-2.5-0.9-3.8-1.8c-1.2-0.9-2.2-2-2.8-3.2
					c-0.6-1.2-1.1-2.5-1.3-3.9c-0.2-1.4-0.3-2.8-0.2-4.3c0.1-1.5,0.4-2.9,0.7-4.2c0.7-3.1,1.8-6.1,3.4-9.1c1.6-2.9,3.5-5.6,5.6-8.1
					c2-2.4,4.3-4.6,6.8-6.5c2.5-1.9,5.2-3.5,8-4.8c2.8-1.3,5.8-2.2,8.9-2.8c3.1-0.6,6.2-0.7,9.4-0.4c1,0.1,2,0.3,2.9,0.4
					c0.9,0.2,1.7,0.6,2.3,1.2c0.4,0.4,0.8,0.9,1.2,1.5c0.4,0.6,0.8,1.2,1.1,1.8c0.3,0.6,0.4,1.3,0.4,1.9c0,0.6-0.2,1.2-0.6,1.8
					c-0.9,1-2,1.6-3.6,1.8c-1.5,0.2-2.9,0.3-4.1,0.4c-1.4,0.1-2.8,0.3-4.2,0.4c-1.4,0.2-2.8,0.4-4.2,0.8c-3.1,0.9-5.8,2.1-8.3,3.8
					c-2.5,1.6-4.8,3.6-6.8,5.9c-1.8,2.1-3.5,4.5-4.9,7.2c-1.4,2.7-2.2,5.4-2.3,8.1c2.9-1.8,5.7-3.8,8.2-6.1c2.5-2.3,5-4.6,7.5-7
					c1.8-1.5,3.4-3.1,5-4.8c1.6-1.6,3.2-3.3,4.9-4.9c0.2,0.1,0.5,0.1,1.1,0.1c0.5,0,1.1,0.1,1.6,0.1c0.5,0,1.1,0.1,1.5,0.1
					C484.4,63.3,484.6,63.4,484.7,63.4z"/>
				<path class="st0" d="M444.2,144.9c-1,0-2.1,0-3.2-0.1c-7.6-0.5-14.7-3.1-20.9-7.6c-0.3-0.2-0.6-0.4-0.9-0.7
					c-1.4-1.1-2.8-2.4-4.4-4.1c-5.1-5.3-7.9-12.1-7.9-19.1c0-0.7,0-1.4,0.1-2.1c0.2-2.6,0.8-5.3,1.7-7.8c1.1-2.9,2.6-5.7,4.5-8.1
					c1.8-2.3,3.9-4.3,6.3-5.9c-0.2-2.3-0.2-4.6,0-6.9c0.2-2.6,0.7-5.2,1.3-7.7c1.2-5.1,3.1-10.1,5.7-14.8c2.4-4.3,5.1-8.2,8.2-11.8
					c3.1-3.7,6.5-7,10.3-9.9c3.9-3,8.1-5.5,12.6-7.5c4.5-2,9.2-3.5,14.1-4.4c5.2-1,10.5-1.2,15.9-0.7c0.2,0,0.3,0,0.5,0.1
					c1.4,0.2,2.7,0.4,4,0.6c6.1,1,11.5,3.9,15.6,8.5c0.2,0.2,0.3,0.4,0.5,0.5c0.7,0.8,1.5,1.8,2.2,2.8c0,0,0,0,0,0.1
					c1.5,2,2.7,4.2,3.7,6.4c1.5,3.5,2.3,7.2,2.3,11c0,5.8-1.9,11.3-5.5,15.9c-0.1,0.2-0.3,0.3-0.4,0.5c-0.2,0.2-0.4,0.4-0.6,0.7
					c-0.2,1.7-0.5,3.2-0.9,4.6c-1,4.4-2.6,8.8-4.8,12.8c-1.2,2.3-2.4,4.6-3.5,6.9c0,0.1-0.1,0.2-0.1,0.3c-1.7,3.4-3.4,6.9-5.2,10.3
					c-2.2,4.4-4.8,8.6-7.6,12.6c-3.2,4.5-7,8.7-11.1,12.3c-5,4.3-10.7,7.6-17.1,9.9C454.6,144.1,449.5,144.9,444.2,144.9z"/>
			</g>
			<g>
				<path class="st0" d="M530.7,51c1.1,1.1,1.8,2.4,2.1,3.8c0.3,1.4,0.4,2.9,0.2,4.4c-0.2,1.5-0.5,3-1.1,4.4
					c-0.5,1.4-1.1,2.7-1.6,3.9c-0.7,1.6-1.5,3.1-2.3,4.6c-0.9,1.5-1.8,2.9-2.7,4.3c-0.1,0.1-0.4,0.4-0.8,0.9c-0.4,0.5-0.8,1-1.3,1.6
					c-0.5,0.6-0.9,1.1-1.3,1.6c-0.4,0.5-0.6,0.7-0.7,0.7c-0.6,0.2-1.3,0.2-2,0.2c-0.7-0.1-1.5-0.3-2.2-0.6c-0.7-0.3-1.3-0.8-1.9-1.3
					c-0.6-0.5-1-1.1-1.1-1.8c-0.4-1.5-0.3-3.1,0.5-4.8c0.7-1.6,1.4-3.1,2.1-4.5c0.3-0.6,0.6-1.2,1-1.8c0.4-0.6,0.7-1.2,1-1.8
					c-0.2,0.2-0.3,0.4-0.5,0.5c-0.1,0.2-0.3,0.3-0.5,0.5c-1.5,1.4-2.9,2.9-4.3,4.5c-1.3,1.6-2.6,3.2-3.8,4.8
					c-1.9,2.4-3.8,5.2-5.7,8.1c-1.9,3-3.6,5.8-5.1,8.4l-3,6.2c-0.6,0.1-1.2,0.1-1.8,0.1c-0.5,0-1.1,0-1.7-0.1
					c-0.6-0.1-1.2-0.2-1.8-0.4c-0.7-0.1-1.4-0.4-1.9-0.7c-0.5-0.3-0.9-0.9-1.1-1.6c-0.1-0.1-0.2-0.2-0.2-0.4c-0.4-0.9-0.6-2-0.5-3.4
					c0.1-1.3,0.7-3,1.7-5l17-36.3c1.3-0.1,2.5,0,3.6,0.3c1,0.2,1.9,0.5,2.8,1c0.9,0.5,1.6,1.2,2.1,2.1c0.6-0.3,1.2-0.6,1.7-1
					c0.5-0.4,1-0.7,1.5-1c1-0.6,2.1-1.1,3.3-1.6c1.2-0.5,2.4-0.8,3.7-0.9c1.2-0.2,2.4-0.1,3.6,0.2C528.8,49.5,529.8,50.1,530.7,51z"
					/>
				<path class="st0" d="M493.9,121.1c-1.3,0-2.7-0.1-4-0.2c-1.6-0.2-3.3-0.4-4.9-0.9c-3.1-0.7-6-1.8-8.6-3.5
					c-4.5-2.7-7.9-6.7-10-11.5c-0.5-1-0.9-1.9-1.2-2.9c-1.3-3.8-1.9-7.9-1.6-12.2c0.3-4.4,1.6-8.9,4-13.6l16.9-36
					c3.6-7.8,11.3-12.9,19.8-13.3c3.2-0.2,6.3,0.1,9.3,0.7c0,0,0,0,0.1,0c2.5-0.8,5-1.4,7.5-1.7c4-0.5,8-0.3,11.8,0.6
					c5.3,1.3,10.2,4,14.1,7.9c4.2,4.2,7.1,9.5,8.4,15.3c0.8,4,1,8,0.5,12c-0.4,3.2-1.2,6.4-2.3,9.4c-0.7,2-1.5,3.8-2.2,5.5
					c-1.1,2.4-2.3,4.8-3.6,7.1c-1,1.7-2.1,3.4-3.1,5c-0.6,1-1.3,1.9-2.1,2.8l-0.1,0.1c-0.3,0.3-0.5,0.6-0.8,1c-0.8,1-1.5,2-2.3,2.8
					c-4.1,4.7-8.6,7-12.6,8c-2.8,0.7-5.7,1-8.6,0.8l-1.7,3.6c-3.5,7.2-10.5,12.1-18.5,12.9C496.7,121.1,495.3,121.1,493.9,121.1z"/>
			</g>
			<g>
				<path class="st0" d="M575,48.6c0.9,0.1,1.9,0.3,2.8,0.4c1,0.2,1.8,0.6,2.4,1.2c0.4,0.4,0.9,0.9,1.3,1.5c0.4,0.6,0.8,1.2,1.1,1.8
					c0.3,0.6,0.4,1.3,0.4,1.9c0,0.6-0.3,1.2-0.7,1.8c-0.4,0.5-0.9,0.9-1.5,1.1c-0.6,0.3-1.3,0.5-2.1,0.6c-0.7,0.2-1.5,0.2-2.2,0.3
					c-0.7,0-1.3,0.1-1.9,0.1c-1.4,0.1-2.8,0.3-4.3,0.4c-1.5,0.2-2.9,0.4-4.2,0.8c-3.1,0.9-5.8,2.1-8.3,3.8c-2.5,1.6-4.8,3.6-6.8,5.9
					c-0.9,1-1.8,2.2-2.6,3.4c-0.8,1.2-1.6,2.5-2.2,3.8c-0.7,1.3-1.2,2.7-1.6,4c-0.4,1.4-0.7,2.7-0.7,4.1c2.9-1.8,5.6-3.8,8.1-6.1
					c2.5-2.3,5.1-4.6,7.6-7c1.2-1.1,2.4-2.2,3.6-3.4c1.2-1.2,2.4-2.4,3.6-3.6c0.1-0.1,0.2-0.2,0.5-0.5c0.3-0.2,0.6-0.5,0.9-0.8
					c0.3-0.3,0.6-0.5,0.9-0.8c0.3-0.2,0.4-0.4,0.4-0.5h0.7c1,0,2.1,0.1,3.2,0.4c1.1,0.2,2.1,0.7,3.1,1.4c1.1,0.7,1.9,1.8,2.4,3.1
					c0.5,1.3,0.2,3-0.8,5l-12.6,25.4c-2-0.1-3.6-0.4-5-0.9c-1.2-0.5-2.3-1.2-3.2-2.1c-0.9-0.9-1.2-2.3-0.9-4l-5,3.6
					c-1.1,0.8-2.3,1.5-3.5,2.1c-1.3,0.6-2.5,1-3.8,1.1c-1.3,0.2-2.5,0.1-3.8-0.2c-1.3-0.3-2.5-0.9-3.6-1.8c-1.2-0.9-2.2-2-2.8-3.2
					c-0.7-1.2-1.1-2.5-1.3-3.9c-0.2-1.4-0.3-2.8-0.2-4.3c0.1-1.5,0.3-2.9,0.7-4.2c0.7-3.1,1.9-6.1,3.5-9.1c1.6-2.9,3.4-5.6,5.4-8.1
					c2.1-2.4,4.4-4.6,6.9-6.5c2.5-1.9,5.2-3.5,8-4.8c2.8-1.3,5.8-2.2,8.9-2.8C568.6,48.5,571.8,48.3,575,48.6z"/>
				<path class="st0" d="M565.4,121.3c-0.2,0-0.5,0-0.7,0c-4-0.1-7.8-0.8-11.2-1.9c-2,0.7-4.1,1.2-6.2,1.5
					c-4.2,0.6-8.5,0.4-12.6-0.6c-4.4-1.1-8.5-3.1-12.2-6c-3.8-2.9-6.8-6.4-9-10.4c-2-3.6-3.3-7.5-3.9-11.6c-0.5-3-0.6-6.1-0.4-9.2
					c0.2-2.9,0.6-5.7,1.3-8.4c1.2-5,3.1-9.8,5.6-14.4c2.3-4.2,4.9-8.2,7.9-11.7c0.1-0.1,0.1-0.2,0.2-0.3c3.1-3.7,6.6-7,10.4-9.9
					c3.9-3,8.1-5.5,12.6-7.5c4.5-2,9.2-3.5,14.1-4.4c5.2-1,10.6-1.2,15.9-0.7c0.3,0,0.6,0.1,0.9,0.1c1.1,0.1,2.2,0.3,3.3,0.5
					c6,1,11.4,3.7,15.5,8.1c1.1,1.1,2.2,2.4,3.2,3.8c1.5,2.1,2.7,4.2,3.7,6.5c1.7,3.8,2.4,7.9,2.2,12.1c-0.2,4.4-1.5,8.6-3.8,12.4
					c0,4.1-0.9,8.9-3.5,14.2l-12.6,25.3C582.2,116.4,574.2,121.3,565.4,121.3z"/>
			</g>
		</g>
		<g>
			<g>
				<path class="st0" d="M151.1,135.6c0.6,0.4,1.1,0.9,1.4,1.4c0.3,0.6,0.5,1.2,0.5,1.9c0,0.7,0,1.3-0.2,2c-0.2,0.7-0.4,1.3-0.6,1.9
					c-0.3,0.6-0.6,1.2-0.9,1.7c-0.3,0.6-0.7,1.1-1,1.7c-0.1,0.1-0.2,0.2-0.4,0.5c-0.2,0.3-0.4,0.6-0.6,0.9c-0.2,0.3-0.4,0.6-0.6,0.8
					c-0.2,0.2-0.2,0.4-0.2,0.4c-0.1,0.1-0.4,0.2-0.6,0.2c-0.3,0-0.6,0-0.9,0c-0.3,0-0.6-0.1-0.9-0.2c-0.3-0.1-0.5-0.2-0.6-0.3
					c-0.4-0.2-0.7-0.6-0.8-1.1c-0.1-0.5-0.1-0.9,0-1.4c0.1-0.5,0.2-0.9,0.4-1.4c0.2-0.5,0.4-0.9,0.7-1.4c0.2-0.5,0.5-0.9,0.7-1.3
					c0.2-0.4,0.4-0.9,0.6-1.4c-2,0.6-3.8,1.8-5.2,3.4c-1.5,1.6-2.5,3.4-3.2,5.4c-0.1,0.5-0.3,1.1-0.4,1.7c-0.1,0.7,0,1.2,0.3,1.7
					c0.1,0.2,0.2,0.3,0.5,0.4c0.2,0.1,0.4,0.1,0.7,0c0.2,0,0.5-0.1,0.7-0.1c0.2,0,0.4-0.1,0.6-0.2c0.5-0.1,0.9-0.4,1.4-0.7
					c0.1-0.1,0.2-0.2,0.4-0.3c0.2-0.2,0.3-0.2,0.4-0.2c0.5,0.1,1.1,0.1,1.8,0.1c0.6,0,1.2,0.1,1.6,0.4c0.3,0.2,0.4,0.5,0.5,0.7
					c0.1,0.3,0.1,0.6,0,0.9c-0.1,0.3-0.2,0.6-0.3,0.9c-0.1,0.3-0.3,0.6-0.4,0.8c-0.8,1.1-1.9,1.9-3.2,2.5c-1.1,0.5-2.3,0.7-3.6,0.7
					c-1.3,0-2.4-0.3-3.5-0.9c-1-0.6-1.8-1.3-2.3-2.2c-0.5-0.9-0.8-1.8-0.9-2.8c-0.1-1-0.1-2.1,0.1-3.2c0.2-1.1,0.5-2.2,0.9-3.2
					c0.4-1.1,0.9-2,1.4-3c0.5-0.9,1.1-1.8,1.6-2.5c1-1.2,2.2-2.3,3.4-3.3c1.3-0.9,2.6-1.7,4.1-2.2c0.5-0.2,1-0.4,1.6-0.5
					c0.6-0.1,1.2-0.2,1.8-0.3c0.6,0,1.2,0,1.7,0.1C150.1,135,150.6,135.2,151.1,135.6z"/>
				<path class="st0" d="M139.5,181.8c-5.2,0-10.4-1.4-14.9-3.9c-4.5-2.6-8.2-6.2-10.8-10.5c-2.2-3.6-3.5-7.7-4-11.9
					c-0.4-3.3-0.3-6.7,0.4-10.1c0.5-2.5,1.2-5,2.1-7.4c0.8-2.1,1.8-4.2,2.9-6.1c1.1-1.9,2.3-3.7,3.5-5.2c0.1-0.1,0.2-0.3,0.4-0.4
					c2.1-2.6,4.6-4.9,7.2-6.9c3-2.3,6.3-4.1,9.9-5.4c1.3-0.5,2.7-1,4.2-1.3c2.1-0.5,4.1-0.8,6.2-0.9c0.5,0,1,0,1.5,0
					c2.1,0,4.1,0.2,6.1,0.6c3.2,0.7,6.2,1.9,9,3.6c4.1,2.5,7.5,6.1,9.7,10.3c1.8,3.5,2.9,7.2,3.1,11c0.2,3-0.1,6-0.8,8.9
					c-0.5,1.9-1.1,3.8-1.9,5.6c-0.2,0.4-0.4,0.8-0.6,1.3c-0.6,1.1-1.2,2.2-1.8,3.3c-0.3,0.4-0.5,0.9-0.8,1.3
					c-0.2,0.4-0.5,0.8-0.8,1.2c-0.4,2-1.1,3.9-2,5.7c-0.7,1.5-1.6,3-2.5,4.3c-0.1,0.1-0.1,0.2-0.2,0.2c-3.2,4.3-7.5,7.8-12.5,10
					C148.3,180.9,144,181.8,139.5,181.8z M169.8,157.6C169.8,157.6,169.8,157.6,169.8,157.6c1-2.3,1.5-4.7,1.7-7.2
					C171.3,152.9,170.7,155.3,169.8,157.6z M151.2,153.3l1.3,3.9c0,0,0.1,0,0.1,0c0.6-0.3,1.2-0.6,1.7-1c0.2-0.1,0.3-0.3,0.4-0.4
					l-2.8-2.3L151.2,153.3z M153.1,153.9l1.9,1.5c0.2-0.2,0.3-0.4,0.3-0.4c0-0.1,0.1-0.2,0.1-0.2c0-0.1,0.1-0.1,0.1-0.2L153.1,153.9
					z M152.5,153.4l3,0.9c0-0.1,0.1-0.2,0.1-0.4c0.2-1.2,0.3-2.5,0.1-3.7c-0.3-2.2-1-4.4-2.1-6.3c-1.5-2.5-3.7-4.7-6.1-6.1
					c-2.4-1.3-5-2.1-7.7-2.1l1.8,1.8l10.6,5.3l-5.1-2.2l1.1,3.5l2.1,2.1l-1.7-1l2.2,6.9L152.5,153.4z M143.4,139.2l3.2,1.1l-3.6-1.5
					L143.4,139.2z"/>
			</g>
			<g>
				<path class="st0" d="M169.5,150.3c-0.7,1.5-1.5,2.8-2.5,4.1c-1,1.2-2.2,2.3-3.6,3.1c-0.6,0.4-1.3,0.8-2.1,1
					c-0.8,0.3-1.5,0.4-2.3,0.5c-0.8,0.1-1.5,0-2.3-0.2c-0.8-0.2-1.5-0.5-2.1-1c-0.9-0.6-1.6-1.4-2-2.3c-0.4-0.9-0.7-1.9-0.7-2.9
					c-0.1-1,0-2.1,0.3-3.2c0.2-1.1,0.6-2.2,1-3.2c0.4-1,0.9-2,1.5-2.9c0.5-0.9,1.1-1.7,1.6-2.3c1-1.2,2-2.2,3.2-3.1
					c1.2-0.9,2.5-1.6,3.8-2.1c0.6-0.2,1.1-0.4,1.6-0.5c0.4-0.1,0.9,0.1,1.4,0.4c0.3,0.2,0.6,0.4,0.8,0.7c0.2,0.3,0.4,0.5,0.5,0.8
					c0.1,0.3,0.2,0.6,0.2,0.9c0,0.3-0.2,0.6-0.4,0.9l-0.3,0.3c0.6-0.1,1.2,0.2,1.7,0.7c0.5,0.5,1,1,1.2,1.5c0.4,0.7,0.6,1.4,0.7,2.1
					c0.1,0.7,0.1,1.5,0,2.3c-0.1,0.8-0.2,1.5-0.5,2.2C170.1,148.9,169.8,149.6,169.5,150.3z M163.1,150.2c0.8-1.1,1.4-2.2,1.9-3.5
					c0.5-1.3,0.5-2.6,0-3.8c0.1,0,0.1,0,0.2-0.2c0.1-0.1,0.1-0.3,0.2-0.5c0.1-0.2,0.1-0.3,0.2-0.5c0-0.2,0.1-0.3,0.1-0.3
					c0-0.1,0-0.3,0-0.5c0-0.2,0.1-0.4,0.1-0.5c-0.3,0.2-0.6,0.4-0.9,0.5c-0.3,0.2-0.6,0.4-0.9,0.6c-0.5,0.4-1,0.8-1.5,1.2
					c-0.5,0.4-0.9,0.8-1.4,1.3c-0.5,0.5-1,1.1-1.4,1.8c-0.4,0.7-0.8,1.3-1.2,2.1c-0.3,0.7-0.6,1.5-0.8,2.2c-0.2,0.8-0.2,1.5-0.1,2.2
					c0.1,0.5,0.2,0.9,0.5,1c0.2,0.1,0.6,0.2,0.9,0.1c0.4-0.1,0.8-0.3,1.2-0.6c0.4-0.3,0.8-0.6,1.2-0.9c0.4-0.3,0.7-0.7,1.1-1
					C162.8,150.6,163,150.3,163.1,150.2z"/>
				<path class="st0" d="M158.5,182c-2.2,0-4.3-0.2-6.5-0.7c-4-0.9-7.7-2.5-11.1-5c-3.9-2.8-7-6.6-9.1-10.8c-1.8-3.6-2.8-7.6-3-11.6
					c-0.2-3.1,0.1-6.2,0.7-9.3c0.6-2.6,1.3-5.1,2.4-7.4c0.9-2,1.9-4,3-5.8c1.1-1.8,2.3-3.6,3.6-5.1c2.1-2.6,4.6-4.9,7.3-6.9
					c2.9-2.2,6.1-3.9,9.5-5.1c1.9-0.7,3.8-1.2,5.6-1.6c0,0,0.1,0,0.1,0c5.9-1,12,0.2,17.3,3.4c2.3,1.4,4.3,3.1,6.1,5
					c1.8,2,3.2,4.2,4.3,6.7c0,0,0,0.1,0.1,0.1c0,0.1,0.1,0.1,0.1,0.2c0.4,0.6,0.8,1.2,1.2,1.8c0.2,0.3,0.4,0.7,0.6,1
					c1.6,3,2.6,6.3,3.1,9.7c0.4,2.7,0.4,5.4,0.1,8c-0.3,2.3-0.7,4.5-1.4,6.6c-0.5,1.6-1.1,3.1-1.8,4.6c0,0,0,0.1-0.1,0.1
					c-1.5,3.2-3.4,6.2-5.6,9c-2.6,3.3-5.8,6-9.4,8.2c-2,1.2-4.1,2.2-6.3,3c-2.7,1-5.6,1.6-8.4,1.8C160,182,159.2,182,158.5,182z
					 M166.9,142.1L166.9,142.1l2.5-0.8l-1-0.8L166.9,142.1z M166.1,140.7l0.8,1.4l1.5-1.6l-1.3-1.1l-0.1-0.6L166.1,140.7z
					 M164.3,139.8l0.8,0.3l0-1.6l-1.2,0.6L164.3,139.8z M164,139.7l0.3,0.1l-0.5-0.8l-0.4,0.2L164,139.7z M161.9,137.6l1.5,1.5
					l0.4-0.2l-0.8-1.3L161.9,137.6z M163.1,137.7l0.7,1.3l1.2-0.6l0-0.5L163.1,137.7z M163.1,137.7l2,0.2l0-0.6
					c-0.9-0.4-1.8-0.7-2.8-1L163.1,137.7z M161.9,137.6l1.2,0.1l-0.8-1.4c-0.2-0.1-0.4-0.1-0.7-0.2c-0.4-0.1-0.9-0.2-1.3-0.2
					L161.9,137.6z"/>
			</g>
			<g>
				<path class="st0" d="M194.4,136.1c0.5,0.4,0.8,0.9,1.1,1.4c0.2,0.5,0.4,1.1,0.4,1.7c0.1,0.6,0.1,1.2,0,1.8
					c-0.1,0.6-0.2,1.2-0.3,1.7c-0.4,1.5-0.9,3.1-1.6,4.8c-0.7,1.7-1.4,3.2-2.1,4.6c-0.1,0.1-0.3,0.6-0.7,1.2
					c-0.4,0.7-0.8,1.4-1.2,2.1c-0.5,0.9-1.1,1.9-1.7,3c-0.4,0.2-0.7,0.3-1.2,0.4c-0.4,0.1-0.9,0.1-1.2,0c-0.4-0.1-0.7-0.3-1.1-0.5
					c-0.3-0.2-0.5-0.6-0.5-1.1c-0.1-0.9,0-1.9,0.4-2.8c0.4-0.9,0.8-1.8,1.2-2.6c0.4-0.8,0.8-1.7,1.3-2.7c0.5-0.9,0.9-1.9,1.4-2.8
					c0.4-1,0.8-1.9,1.2-2.9s0.6-1.9,0.7-2.9c-0.8,0.2-1.6,0.5-2.3,1c-0.8,0.4-1.5,0.9-2.2,1.5c-0.7,0.6-1.4,1.1-2,1.8
					c-0.6,0.6-1.2,1.3-1.7,1.9c-1.1,1.4-2.2,3-3.2,4.8c-1,1.8-1.9,3.5-2.8,5c-0.1,0.1-0.1,0.2-0.2,0.4c0,0.1-0.1,0.2-0.2,0.4
					l-0.6,1.1c-1.2,0.1-2.2,0-2.9-0.3c-0.3-0.1-0.6-0.3-0.9-0.6c-0.2-0.2-0.4-0.6-0.5-1c-0.1-0.4-0.1-0.9,0-1.5
					c0.1-0.6,0.4-1.3,0.8-2.1l8.2-17.4c0.7,0,1.3,0,1.9,0.1c0.5,0.1,1,0.3,1.4,0.6c0.4,0.3,0.7,0.8,0.9,1.3c0.6-0.4,1.2-0.7,1.7-1.1
					c0.6-0.3,1.1-0.6,1.8-0.9c0.5-0.2,1.1-0.4,1.7-0.6c0.6-0.1,1.2-0.2,1.8-0.2c0.6,0,1.2,0.1,1.8,0.3
					C193.5,135.4,194,135.7,194.4,136.1z"/>
				<path class="st0" d="M186.6,182.1c-1.9,0-3.8-0.2-5.7-0.6c-0.5-0.1-1-0.2-1.5-0.4c-0.6,0.1-1.2,0.2-1.8,0.3
					c-5.1,0.5-9.9-0.2-14.2-2c-0.2-0.1-0.4-0.2-0.5-0.2c-2.9-1.3-5.4-3.1-7.6-5.3c-3.2-3.2-5.5-7.3-6.6-11.7c-0.9-3.5-1-7.3-0.3-11
					c0.5-2.7,1.4-5.4,2.7-8.2l8.1-17.2c3.7-7.8,11.3-12.9,19.9-13.2c1.8-0.1,3.4,0,5,0.2c5.7-1.3,21.8-21.1,27.1-19.2
					c3.6,1.3-3.7,23.3-1,25.8c2.8,2.6,5,5.6,6.5,9.1c1.2,2.8,1.9,5.6,2.2,8.6c0,0,0,0.1,0,0.1c0.2,2,0.2,4.1,0,6.2c0,0,0,0.1,0,0.1
					c-0.2,1.7-0.5,3.3-0.9,5c-0.6,2.6-1.5,5.2-2.6,7.9c-1,2.4-2,4.6-3,6.6c-0.2,0.4-0.4,0.8-0.6,1.1c-0.1,0.2-0.2,0.4-0.5,0.8
					c-0.4,0.7-0.8,1.5-1.3,2.3c-0.4,0.8-0.9,1.6-1.3,2.4c-2,3.8-5.1,6.9-8.8,9c-2.7,1.6-5.7,2.7-8.9,3.2
					C189.5,182,188,182.1,186.6,182.1z M177,138.9l3.1,0.4l-0.1-2.3c-1.1,0.4-2.2,0.9-3.2,1.5L177,138.9z"/>
			</g>
			<g>
				<path class="st0" d="M229,123.8c0.3,0.1,0.6,0.4,0.8,0.7c0.2,0.3,0.3,0.8,0.4,1.4c0,0.6-0.1,1.3-0.3,2.2
					c-0.2,0.9-0.6,1.9-1.2,3.1l-12.8,26.7c-1.4,0.5-2.5,0.5-3.2,0.2c-0.3-0.1-0.6-0.3-0.8-0.7c-0.2-0.3-0.3-0.8-0.4-1.4
					c0-0.6,0.1-1.3,0.4-2.2c0.3-0.9,0.7-2,1.3-3.3l12.8-26.8C227.2,123.5,228.2,123.5,229,123.8z"/>
				<path class="st0" d="M204,166.4c-3.3,0-6.5-0.6-9.5-1.8c-4.7-1.8-8.6-5-11.5-9.1c-2.7-4-4.2-8.7-4.4-13.8
					c-0.1-3.1,0.4-6.1,1.3-9.3c0.6-2,1.4-4.1,2.5-6.5c0-0.1,0.1-0.1,0.1-0.2l12.8-26.8c3-6.2,8.5-10.8,15.2-12.4
					c6.4-1.6,12.8-1.1,18.3,1.5c4.2,1.9,7.9,5.1,10.5,9c0,0,0,0.1,0.1,0.1c2.5,3.9,3.9,8.5,4,13.3c0.1,2.9-0.3,5.8-1.1,8.8
					c-0.6,2.1-1.4,4.2-2.4,6.6c-0.1,0.2-0.2,0.3-0.2,0.5L227,152.9c-2.7,5.6-7.6,9.9-13.5,11.9C210.3,165.9,207.1,166.4,204,166.4z
					 M203.8,120.3l-2.9,1.9c2.2,3.3,5.2,6,8.9,7.6c2.6,1.2,5.4,1.8,8.2,1.8c1.7,0,3.1-0.3,3.9-0.5l-0.2-1c-0.1-0.2-0.3-0.5-0.4-0.7
					c-2.4-3.5-5.9-6.3-9.8-7.9C208.9,120.7,206.3,120.2,203.8,120.3z M200,120.7c0.3,0.5,0.5,0.9,0.8,1.4l2.8-1.8
					C202.1,120.3,200.9,120.5,200,120.7z"/>
			</g>
			<g>
				<path class="st0" d="M243.9,135c0.4,0.1,0.9,0.1,1.4,0.2c0.5,0.1,0.8,0.3,1.1,0.6c0.2,0.2,0.4,0.4,0.6,0.7
					c0.2,0.3,0.4,0.6,0.5,0.9c0.1,0.3,0.2,0.6,0.2,0.9c0,0.3-0.1,0.6-0.3,0.9c-0.2,0.2-0.4,0.4-0.7,0.5c-0.3,0.1-0.6,0.2-1,0.3
					c-0.4,0.1-0.7,0.1-1,0.1c-0.3,0-0.6,0-0.9,0.1c-0.7,0.1-1.4,0.1-2.1,0.2c-0.7,0.1-1.4,0.2-2,0.4c-1.5,0.4-2.8,1-4,1.8
					c-1.2,0.8-2.3,1.7-3.2,2.8c-0.4,0.5-0.9,1-1.2,1.6c-0.4,0.6-0.8,1.2-1.1,1.8c-0.3,0.6-0.6,1.3-0.8,1.9c-0.2,0.7-0.3,1.3-0.4,2
					c1.4-0.8,2.7-1.8,3.9-2.9c1.2-1.1,2.4-2.2,3.7-3.3c0.6-0.5,1.2-1.1,1.7-1.6c0.6-0.6,1.1-1.1,1.7-1.7c0,0,0.1-0.1,0.2-0.2
					c0.1-0.1,0.3-0.2,0.4-0.4c0.1-0.1,0.3-0.3,0.4-0.4c0.1-0.1,0.2-0.2,0.2-0.3h0.4c0.5,0,1,0.1,1.5,0.2c0.5,0.1,1,0.3,1.5,0.7
					c0.5,0.4,0.9,0.8,1.1,1.5c0.2,0.6,0.1,1.4-0.4,2.4l-6.1,12.2c-0.9,0-1.7-0.2-2.4-0.4c-0.6-0.2-1.1-0.6-1.5-1
					c-0.4-0.4-0.6-1.1-0.4-1.9l-2.4,1.7c-0.5,0.4-1.1,0.7-1.7,1c-0.6,0.3-1.2,0.5-1.8,0.5c-0.6,0.1-1.2,0.1-1.8-0.1
					c-0.6-0.1-1.2-0.4-1.7-0.9c-0.6-0.4-1-0.9-1.4-1.5c-0.3-0.6-0.5-1.2-0.6-1.9c-0.1-0.7-0.1-1.4-0.1-2.1c0-0.7,0.2-1.4,0.3-2
					c0.4-1.5,0.9-2.9,1.7-4.3c0.8-1.4,1.6-2.7,2.6-3.9c1-1.2,2.1-2.2,3.3-3.1c1.2-0.9,2.5-1.7,3.8-2.3c1.4-0.6,2.8-1.1,4.3-1.3
					C240.8,134.9,242.3,134.8,243.9,135z"/>
				<path class="st0" d="M239.3,181.8c-0.2,0-0.5,0-0.7,0c-1.7-0.1-3.4-0.2-5.1-0.6c-0.4,0.1-0.8,0.1-1.2,0.2
					c-1.4,0.2-2.7,0.3-4,0.3c-2.2,0-4.5-0.3-6.7-0.8c-3.7-0.9-7.2-2.6-10.3-5c-3.1-2.4-5.6-5.3-7.5-8.7c-1.6-3-2.7-6.2-3.2-9.5
					c-0.3-2.3-0.4-4.6-0.3-7c0.1-2.1,0.5-4.2,1-6.2c0.8-3.3,2.1-6.6,3.8-9.7c1.5-2.7,3.2-5.2,5.1-7.6c0.1-0.1,0.1-0.2,0.2-0.3
					c2-2.4,4.3-4.6,6.8-6.5c2.6-2,5.4-3.7,8.4-5c3-1.4,6.2-2.4,9.5-3c3.6-0.7,7.3-0.8,11-0.5c0.3,0,0.6,0.1,0.9,0.1
					c0.6,0.1,1.2,0.2,1.8,0.3c5.5,0.9,10.5,3.5,14.2,7.4c0.9,0.9,1.8,2,2.6,3c1.3,1.7,2.3,3.6,3.2,5.5c1.5,3.6,2.2,7.3,2,11
					c0,0,0,0.1,0,0.1c-0.1,3-0.8,5.9-2,8.6c-0.4,3-1.3,6-2.8,8.9l-6,12.1C256.1,176.8,248,181.8,239.3,181.8z M239.3,157.4
					c0.5,0.1,1,0.3,1.5,0.4l0.4-2.8v-1.7l-1.8-0.1L239.3,157.4z"/>
			</g>
			<g>
				<path class="st0" d="M281.8,135.6c0.6,0.4,1.1,0.9,1.4,1.4c0.3,0.6,0.5,1.2,0.5,1.9c0,0.7,0,1.3-0.2,2c-0.2,0.7-0.4,1.3-0.6,1.9
					c-0.3,0.6-0.6,1.2-0.9,1.7c-0.3,0.6-0.7,1.1-1,1.7c-0.1,0.1-0.2,0.2-0.4,0.5c-0.2,0.3-0.4,0.6-0.6,0.9c-0.2,0.3-0.4,0.6-0.6,0.8
					c-0.2,0.2-0.2,0.4-0.2,0.4c-0.1,0.1-0.4,0.2-0.6,0.2c-0.3,0-0.6,0-0.9,0c-0.3,0-0.6-0.1-0.9-0.2c-0.3-0.1-0.5-0.2-0.6-0.3
					c-0.4-0.2-0.7-0.6-0.8-1.1c-0.1-0.5-0.1-0.9,0-1.4c0.1-0.5,0.2-0.9,0.4-1.4c0.2-0.5,0.4-0.9,0.7-1.4c0.2-0.5,0.5-0.9,0.7-1.3
					c0.2-0.4,0.4-0.9,0.6-1.4c-2,0.6-3.8,1.8-5.2,3.4c-1.5,1.6-2.5,3.4-3.2,5.4c-0.1,0.5-0.3,1.1-0.4,1.7c-0.1,0.7,0,1.2,0.3,1.7
					c0.1,0.2,0.2,0.3,0.5,0.4c0.2,0.1,0.4,0.1,0.7,0c0.2,0,0.5-0.1,0.7-0.1c0.2,0,0.4-0.1,0.6-0.2c0.5-0.1,0.9-0.4,1.4-0.7
					c0.1-0.1,0.2-0.2,0.4-0.3c0.2-0.2,0.3-0.2,0.4-0.2c0.5,0.1,1.1,0.1,1.8,0.1c0.6,0,1.2,0.1,1.6,0.4c0.3,0.2,0.4,0.5,0.5,0.7
					c0.1,0.3,0.1,0.6,0,0.9c-0.1,0.3-0.2,0.6-0.3,0.9c-0.1,0.3-0.3,0.6-0.4,0.8c-0.8,1.1-1.9,1.9-3.2,2.5c-1.1,0.5-2.3,0.7-3.6,0.7
					s-2.4-0.3-3.5-0.9c-1-0.6-1.8-1.3-2.3-2.2c-0.5-0.9-0.8-1.8-0.9-2.8c-0.1-1-0.1-2.1,0.1-3.2c0.2-1.1,0.5-2.2,0.9-3.2
					c0.4-1.1,0.9-2,1.4-3c0.5-0.9,1.1-1.8,1.6-2.5c1-1.2,2.2-2.3,3.4-3.3c1.3-0.9,2.6-1.7,4.1-2.2c0.5-0.2,1-0.4,1.6-0.5
					c0.6-0.1,1.2-0.2,1.8-0.3c0.6,0,1.2,0,1.7,0.1C280.7,135,281.3,135.2,281.8,135.6z"/>
				<path class="st0" d="M270.2,181.8c-5.2,0-10.4-1.4-14.9-3.9c-4.5-2.6-8.2-6.2-10.8-10.5c-2.2-3.7-3.5-7.7-4-11.9
					c-0.4-3.3-0.3-6.6,0.4-10c0.5-2.5,1.2-5,2.1-7.4c0.8-2.1,1.8-4.2,2.9-6.1c1.1-1.9,2.3-3.7,3.5-5.2c0.1-0.1,0.2-0.3,0.4-0.4
					c2.1-2.6,4.6-4.9,7.2-6.9c3-2.3,6.3-4.1,9.8-5.4c1.3-0.5,2.7-1,4.2-1.3c2.1-0.5,4.1-0.8,6.2-0.9c0.6,0,1,0,1.5,0
					c2.1,0,4.1,0.2,6.1,0.6c3.2,0.7,6.2,1.9,9,3.6c4.1,2.5,7.5,6.1,9.7,10.3c1.8,3.5,2.9,7.2,3.1,11.1c0.2,3-0.1,6-0.8,8.9
					c-0.5,1.9-1.1,3.8-1.9,5.6c-0.2,0.4-0.4,0.8-0.6,1.2c-0.6,1.2-1.2,2.3-1.9,3.4c-0.2,0.4-0.5,0.8-0.7,1.3
					c-0.2,0.4-0.5,0.8-0.8,1.2c-0.4,2-1.1,3.9-2,5.7c0,0,0,0.1,0,0.1c-0.7,1.5-1.5,2.9-2.5,4.2c0,0.1-0.1,0.1-0.2,0.2
					c-3.2,4.3-7.5,7.8-12.5,10C279,180.9,274.7,181.8,270.2,181.8z M300.5,157.6C300.5,157.6,300.5,157.6,300.5,157.6
					c2.3-5.3,2.4-11.3,0.4-16.7c0,0,0,0,0,0c1,2.8,1.5,5.8,1.3,8.8C302.1,152.5,301.5,155.1,300.5,157.6z M281.8,153.3l1.2,3.9
					c0,0,0.1,0,0.1,0c0.6-0.3,1.2-0.6,1.7-1c0.2-0.1,0.3-0.3,0.4-0.4l-2.8-2.3L281.8,153.3z M283.8,153.9l1.8,1.5
					c0.2-0.2,0.3-0.4,0.3-0.4c0-0.1,0.1-0.2,0.1-0.2c0-0.1,0-0.1,0.1-0.2L283.8,153.9z M283.1,153.3l3.1,0.9c0-0.1,0-0.2,0.1-0.3
					c0-0.2,0.1-0.4,0.1-0.6l-5.8-4.1l0.9,2.9L283.1,153.3z M280.5,149.2l5.8,4.1c0.1-1,0.1-2,0-3.1c-0.3-2.2-1-4.4-2.1-6.3
					c-1.5-2.6-3.7-4.7-6.1-6.1c-2.4-1.3-5-2.1-7.7-2.1l1.9,1.9l10.5,5.2l-5.1-2.2l1.1,3.5l2.1,2.1l-1.7-1L280.5,149.2z M274.1,139.3
					l3.2,1.1l-3.6-1.5L274.1,139.3z"/>
			</g>
			<g>
				<path class="st0" d="M300.2,150.3c-0.7,1.5-1.5,2.8-2.5,4.1c-1,1.2-2.2,2.3-3.6,3.1c-0.6,0.4-1.3,0.8-2.1,1
					c-0.8,0.3-1.5,0.4-2.3,0.5c-0.8,0.1-1.5,0-2.3-0.2c-0.8-0.2-1.5-0.5-2.1-1c-0.9-0.6-1.6-1.4-2-2.3c-0.4-0.9-0.7-1.9-0.7-2.9
					c-0.1-1,0-2.1,0.3-3.2c0.2-1.1,0.6-2.2,1-3.2c0.4-1,0.9-2,1.5-2.9c0.5-0.9,1.1-1.7,1.6-2.3c1-1.2,2-2.2,3.2-3.1
					c1.2-0.9,2.5-1.6,3.8-2.1c0.6-0.2,1.1-0.4,1.6-0.5c0.4-0.1,0.9,0.1,1.4,0.4c0.3,0.2,0.6,0.4,0.8,0.7c0.2,0.3,0.4,0.5,0.5,0.8
					c0.1,0.3,0.2,0.6,0.2,0.9c0,0.3-0.2,0.6-0.4,0.9l-0.3,0.3c0.6-0.1,1.2,0.2,1.7,0.7c0.5,0.5,1,1,1.2,1.5c0.4,0.7,0.6,1.4,0.7,2.1
					c0.1,0.7,0.1,1.5,0,2.3c-0.1,0.8-0.2,1.5-0.5,2.2C300.8,148.9,300.5,149.6,300.2,150.3z M293.8,150.2c0.8-1.1,1.4-2.2,1.9-3.5
					c0.5-1.3,0.5-2.6,0-3.8c0.1,0,0.1,0,0.2-0.2c0.1-0.1,0.1-0.3,0.2-0.5c0.1-0.2,0.1-0.3,0.2-0.5c0-0.2,0.1-0.3,0.1-0.3
					c0-0.1,0-0.3,0-0.5c0-0.2,0.1-0.4,0.1-0.5c-0.3,0.2-0.6,0.4-0.9,0.5c-0.3,0.2-0.6,0.4-0.9,0.6c-0.5,0.4-1,0.8-1.5,1.2
					c-0.5,0.4-0.9,0.8-1.4,1.3c-0.5,0.5-1,1.1-1.4,1.8c-0.4,0.7-0.8,1.3-1.2,2.1c-0.3,0.7-0.6,1.5-0.8,2.2c-0.2,0.8-0.2,1.5-0.1,2.2
					c0.1,0.5,0.2,0.9,0.5,1c0.2,0.1,0.6,0.2,0.9,0.1c0.4-0.1,0.8-0.3,1.2-0.6c0.4-0.3,0.8-0.6,1.2-0.9c0.4-0.3,0.7-0.7,1.1-1
					C293.5,150.6,293.7,150.3,293.8,150.2z"/>
				<path class="st0" d="M289.1,182c-2.2,0-4.3-0.2-6.4-0.7c-4-0.9-7.8-2.5-11.1-5c-3.9-2.8-7-6.6-9-10.8c-1.8-3.6-2.8-7.5-3-11.6
					c-0.2-3.1,0.1-6.2,0.7-9.3c0.5-2.5,1.3-5,2.4-7.4c0.9-2,1.9-3.9,2.9-5.7c1.1-1.9,2.3-3.6,3.6-5.1c2.1-2.6,4.6-4.9,7.3-6.9
					c2.9-2.2,6.1-3.9,9.5-5.2c2-0.7,3.8-1.2,5.7-1.6c1.4-0.2,2.8-0.4,4.2-0.4c4.6,0,9.1,1.3,13.1,3.7c2.3,1.4,4.3,3.1,6.1,5
					c1.8,2.1,3.3,4.3,4.4,6.7c0,0.1,0.1,0.1,0.1,0.2c0.4,0.6,0.8,1.2,1.2,1.9c0.2,0.3,0.4,0.6,0.5,1c1.6,3,2.6,6.3,3.1,9.7
					c0.4,2.7,0.4,5.4,0.1,8.1c-0.3,2.2-0.7,4.4-1.4,6.6c-0.5,1.6-1.1,3.1-1.7,4.5c0,0,0,0.1,0,0.1c-1.5,3.2-3.4,6.2-5.6,9
					c-2.6,3.3-5.8,6-9.4,8.2c-2,1.2-4.1,2.2-6.3,3c-2.7,1-5.6,1.6-8.4,1.8C290.7,182,289.9,182,289.1,182z M296.8,140.8l0.9,1.4
					l2.4-0.9l-2.3-2l-0.1-0.6L296.8,140.8z M295,139.8l0.8,0.3l0-2.8c-0.9-0.4-1.8-0.7-2.8-1L295,139.8z M294.7,139.7l0.3,0.1
					l-2.1-3.5c-0.2-0.1-0.5-0.1-0.7-0.2c-0.4-0.1-0.9-0.2-1.3-0.2L294.7,139.7z"/>
			</g>
			<g>
				<path class="st0" d="M318.8,136.1c0.8,0.5,1.5,1.2,1.9,2c0.4,0.8,0.6,1.8,0.5,2.7c-0.1,0.9-0.4,1.8-0.9,2.6c0,0-0.1,0.1-0.2,0.2
					c-0.1,0.1-0.2,0.3-0.3,0.4c-0.1,0.2-0.2,0.3-0.3,0.4c-0.1,0.1-0.2,0.2-0.2,0.2c-0.1,0.1-0.3,0.2-0.7,0.2c-0.4,0-0.7,0-0.9,0
					c-0.3-0.1-0.6-0.2-1-0.4c-0.3-0.2-0.6-0.4-0.8-0.8c-0.1-0.2-0.2-0.4-0.2-0.7c0-0.2,0-0.5,0.1-0.7c0-0.2,0-0.5,0-0.7
					c0-0.2-0.1-0.4-0.2-0.6c-0.1-0.1-0.2-0.2-0.4-0.2s-0.4,0-0.5,0.1c-0.2,0.1-0.4,0.2-0.5,0.2c-0.2,0.1-0.3,0.2-0.4,0.2
					c-0.6,0.3-1.1,0.7-1.7,1.1c-0.5,0.4-1,0.9-1.3,1.4c0.8,0.2,1.6,0.3,2.3,0.4c0.7,0,1.5,0.2,2.3,0.6c1.1,0.5,2,1.3,2.7,2.3
					c0.7,1,1,2.2,0.9,3.4c-0.1,1.2-0.5,2.3-1.2,3.3c-0.7,1-1.7,1.8-2.7,2.5c-1.1,0.7-2.2,1.2-3.5,1.5c-1.2,0.4-2.4,0.5-3.5,0.5
					c-1.1,0-2.2-0.2-3.2-0.7c-1.1-0.5-1.9-1.2-2.5-2.2c-0.2-0.3-0.3-0.6-0.5-0.9c-0.2-0.3-0.2-0.7-0.2-1c0.1-0.5,0.3-1,0.7-1.6
					c0.4-0.5,0.8-0.8,1.4-0.9c0.3,0,0.5,0,0.7,0.1c0.2,0.1,0.4,0.2,0.6,0.4c0.2,0.1,0.3,0.3,0.5,0.5c0.2,0.2,0.3,0.4,0.5,0.5
					c0.4,0.2,0.9,0.3,1.4,0.3c0.5,0,0.9,0,1.4-0.1c0.4-0.1,0.8-0.2,1.2-0.3c0.5-0.1,0.9-0.3,1.4-0.5c0.4-0.2,0.8-0.5,1.2-0.8
					c0.4-0.3,0.6-0.6,0.8-1.1c-0.1-0.3-0.3-0.4-0.6-0.5c-0.3-0.1-0.7-0.2-1.1-0.2c-0.4,0-0.8,0-1.2,0c-0.4,0-0.7,0-1-0.1
					c-0.8-0.2-1.6-0.5-2.4-1c-0.8-0.5-1.4-1.1-1.7-2c-0.4-0.8-0.5-1.5-0.5-2.3c0-0.8,0.2-1.5,0.6-2.2c0.3-0.7,0.8-1.4,1.3-2
					c0.5-0.6,1-1.1,1.6-1.6c0.7-0.6,1.4-1.1,2.3-1.6c0.8-0.5,1.7-0.9,2.6-1.2c0.9-0.3,1.8-0.4,2.8-0.4
					C317,135.3,317.9,135.6,318.8,136.1z"/>
				<path class="st0" d="M308.5,181.7c-0.2,0-0.4,0-0.6,0c-4.3,0-8.6-1-12.6-2.8c-4.9-2.3-9.1-5.8-12.1-10.4
					c-0.2-0.3-0.4-0.6-0.5-0.9c-0.5-0.8-1-1.7-1.4-2.5c-2.4-4.7-3.1-10-2.3-15.1c0.5-3.1,1.5-6,3.1-8.7c0.4-3.2,1.3-6.2,2.6-9.1
					c1.2-2.5,2.7-4.9,4.5-7c1.2-1.4,2.4-2.7,3.8-3.9c0.1-0.1,0.2-0.1,0.2-0.2c1.6-1.4,3.4-2.7,5.4-3.9c2.5-1.5,5.2-2.8,8-3.6
					c3.4-1,7-1.5,10.6-1.3c4.7,0.2,9.3,1.7,13.5,4.1c4.5,2.7,8.1,6.6,10.5,11.2c2.5,4.9,3.5,10.3,2.9,15.8c-0.3,2.6-0.9,5.2-1.9,7.6
					c0,0.5,0,0.9-0.1,1.4c-0.4,5.7-2.4,11.1-5.9,15.7c-2.4,3.2-5.4,5.9-8.8,8c-2.9,1.8-6.1,3.3-9.5,4.2
					C314.8,181.2,311.6,181.7,308.5,181.7z M311.6,157.8c1.1,0.3,2.3,0.4,3.4,0.5c0.2,0,0.5,0,0.7,0c1.2,0,2.4-0.1,3.6-0.4v-4.8
					l-1.4-3.8l-1.7-1.9l-1.8,1.1l-1.1,1.9l0.2,0.1l-0.3,0.1l-0.5,0.9l0,0.1l0-0.1l-2,3.4L311.6,157.8z M309.4,157.1
					c0.7,0.3,1.5,0.5,2.2,0.7l-0.8-3.1L309.4,157.1z M306.8,155.9c0.8,0.5,1.6,0.9,2.4,1.2l1.5-2.4l-0.5-1.9l0.5,1.9l2-3.3l-0.4-0.5
					l-3.5,1.2l0.2,1.1l-0.2-1l-0.3,0.1l-3.8,2.3C305.4,154.9,306.1,155.4,306.8,155.9z M304,153.8c0.2,0.2,0.4,0.4,0.6,0.5l2.8-1.8
					l-2.9,1L304,153.8z M318.1,149.5l1.3,3.3V151L318.1,149.5z M312.3,150.8l0.4,0.5l0.5-0.8L312.3,150.8z M317.9,149l1.4,1.6
					l-1.1-2.1l-0.6-0.4L317.9,149z M318.2,148.5l1.1,2v-1.3L318.2,148.5z M312.1,149.9l1.2,0.4l1.1-1.8L312.1,149.9z M311.3,149.6
					l0.2,0.1l0.3-0.2l0.3-3.7l-1.9,2.3L311.3,149.6z M309.5,148.9l1.8,0.7l-1.2-1.5L309.5,148.9z M312.1,145.8l-0.3,3.7l3.3-2.2
					l0.3-0.5l-2.8-1.7L312.1,145.8z M316.5,147.5l1.2,1.3l-0.3-0.8L316.5,147.5z M308.3,148.5L308.3,148.5l0.9-1.6l-0.5-0.6
					l-0.6,0.5L308.3,148.5z M306.6,147.9l1.6,0.6l-0.3-1.6L306.6,147.9z M306.2,147.8L306.2,147.8l1.6-1.2l-0.3-1.6l-0.1-0.1
					L306.2,147.8z M304.3,147.1l1.9,0.7l1.3-3l-1.8-2.3l-7.4-0.4l0,0c0.1,1,0.3,2,0.6,3L304.3,147.1l1.2-0.6L304.3,147.1z
					 M315.4,146.8l-0.3,0.4l0.5-0.3L315.4,146.8z M308.7,146.3l0.5,0.6l0.7-1.5L308.7,146.3z M307.8,145.3l0.2,1.2l0.5-0.4
					L307.8,145.3z M307.8,145.2l0.7,0.9l1.5-1.1l1.1-2.2l-2.7-0.1l-0.7,1.7L307.8,145.2z M305.7,142.5l1.8,2.2l0.1-0.1l-0.3-2
					L305.7,142.5z M307.5,142.6l0.2,1.7l0.7-1.6L307.5,142.6z M308.5,142.6l2.7,0.2l0.2-0.9l-1.7-2L308.5,142.6z M307.4,142.5l1,0.1
					l1.2-2.8l-1.2-1.3l1.2,1.3l0.9-2.2l-3.3-2c-0.3,0-0.6,0.1-0.8,0.1L307.4,142.5z M305.6,142.4l1.6,0.1l-1.1-6.8
					c-0.2,0-0.4,0.1-0.6,0.1c-0.9,0.3-1.8,0.6-2.6,1.1c-0.3,0.2-0.7,0.5-1,0.7L305.6,142.4z M298.3,141.9l7.2,0.5l-3.7-4.6
					c-0.8,0.7-1.6,1.5-2.3,2.3C299.1,140.7,298.7,141.3,298.3,141.9z M309.7,139.8l1.8,2l0.7-2.9l-0.3-0.5l-1.2-0.7L309.7,139.8z"/>
			</g>
			<g>
				<path class="st0" d="M341.8,135c0.4,0.1,0.9,0.1,1.4,0.2c0.5,0.1,0.8,0.3,1.1,0.6c0.2,0.2,0.4,0.4,0.6,0.7
					c0.2,0.3,0.4,0.6,0.5,0.9c0.1,0.3,0.2,0.6,0.2,0.9c0,0.3-0.1,0.6-0.3,0.9c-0.2,0.2-0.4,0.4-0.7,0.5c-0.3,0.1-0.6,0.2-1,0.3
					c-0.4,0.1-0.7,0.1-1,0.1c-0.3,0-0.6,0-0.9,0.1c-0.7,0.1-1.4,0.1-2.1,0.2c-0.7,0.1-1.4,0.2-2,0.4c-1.5,0.4-2.8,1-4,1.8
					c-1.2,0.8-2.3,1.7-3.2,2.8c-0.4,0.5-0.9,1-1.2,1.6c-0.4,0.6-0.8,1.2-1.1,1.8c-0.3,0.6-0.6,1.3-0.8,1.9c-0.2,0.7-0.3,1.3-0.4,2
					c1.4-0.8,2.7-1.8,3.9-2.9c1.2-1.1,2.4-2.2,3.7-3.3c0.6-0.5,1.2-1.1,1.7-1.6c0.6-0.6,1.1-1.1,1.7-1.7c0,0,0.1-0.1,0.2-0.2
					c0.1-0.1,0.3-0.2,0.4-0.4c0.1-0.1,0.3-0.3,0.4-0.4c0.1-0.1,0.2-0.2,0.2-0.3h0.4c0.5,0,1,0.1,1.5,0.2c0.5,0.1,1,0.3,1.5,0.7
					c0.5,0.4,0.9,0.8,1.1,1.5c0.2,0.6,0.1,1.4-0.4,2.4l-6.1,12.2c-0.9,0-1.7-0.2-2.4-0.4c-0.6-0.2-1.1-0.6-1.5-1
					c-0.4-0.4-0.6-1.1-0.4-1.9l-2.4,1.7c-0.5,0.4-1.1,0.7-1.7,1c-0.6,0.3-1.2,0.5-1.8,0.5c-0.6,0.1-1.2,0.1-1.8-0.1
					c-0.6-0.1-1.2-0.4-1.7-0.9c-0.6-0.4-1-0.9-1.4-1.5c-0.3-0.6-0.5-1.2-0.6-1.9c-0.1-0.7-0.1-1.4-0.1-2.1c0-0.7,0.2-1.4,0.3-2
					c0.4-1.5,0.9-2.9,1.7-4.3c0.8-1.4,1.6-2.7,2.6-3.9c1-1.2,2.1-2.2,3.3-3.1c1.2-0.9,2.5-1.7,3.8-2.3c1.4-0.6,2.8-1.1,4.3-1.3
					C338.8,134.9,340.3,134.8,341.8,135z"/>
				<path class="st0" d="M337.2,181.8c-0.2,0-0.5,0-0.7,0c-1.7-0.1-3.4-0.2-5.1-0.6c-0.4,0.1-0.8,0.1-1.2,0.2
					c-1.4,0.2-2.7,0.3-4,0.3c-2.2,0-4.5-0.3-6.7-0.8c-3.7-0.9-7.2-2.6-10.3-5c-3.1-2.4-5.6-5.3-7.5-8.7c-1.6-3-2.7-6.2-3.2-9.5
					c-0.3-2.3-0.4-4.6-0.3-7c0.1-2.1,0.5-4.2,1-6.2c0.8-3.3,2.1-6.6,3.8-9.7c1.5-2.7,3.2-5.2,5.1-7.6c0.1-0.1,0.1-0.2,0.2-0.3
					c2-2.4,4.3-4.6,6.8-6.5c2.6-2,5.4-3.7,8.4-5c3-1.4,6.2-2.4,9.5-3c3.6-0.7,7.3-0.8,11-0.5c0.3,0,0.6,0.1,0.9,0.1
					c0.6,0.1,1.2,0.2,1.8,0.3c5.5,0.9,10.5,3.5,14.2,7.4c0.9,0.9,1.8,2,2.6,3c1.3,1.7,2.3,3.6,3.2,5.5c1.5,3.6,2.2,7.3,2,11
					c0,0,0,0.1,0,0.1c-0.1,3-0.8,5.9-2,8.6c-0.4,3-1.3,6-2.8,8.9l-6,12.1C354,176.8,346,181.8,337.2,181.8z M337.3,157.4
					c0.5,0.1,1,0.3,1.5,0.4l0.4-2.8v-1.7l-1.8-0.1L337.3,157.4z"/>
			</g>
			<g>
				<path class="st0" d="M378.6,135.2c0.8,0.1,1.4,0.4,2,0.9c0.6,0.5,1,1,1.4,1.6c0.4,0.6,0.6,1.3,0.8,2c0.2,0.7,0.2,1.4,0.2,2.1
					c0,1.5-0.3,2.9-0.8,4.4c-0.5,1.4-1.1,2.8-1.9,4c-0.7,1.2-1.5,2.4-2.4,3.5c-0.9,1.1-2,2.1-3.1,2.9c-1.2,0.8-2.4,1.4-3.7,1.8
					c-1.3,0.4-2.8,0.4-4.3,0c-1.2-0.3-2.2-0.8-2.9-1.4c-0.7-0.7-1.2-1.4-1.5-2.3c-0.3-0.9-0.4-1.8-0.4-2.8c0-1,0.2-2.1,0.4-3.1
					c0.2-1.1,0.5-2.1,0.9-3.1c0.4-1,0.7-1.9,1.1-2.7c1.4-3.1,2.8-6.2,4.3-9.2c1.5-3,2.9-6.1,4.4-9.1l0.8-0.4
					c0.2-0.1,0.4-0.2,0.6-0.3c0.2-0.1,0.3-0.1,0.3-0.2c0.4-0.1,0.8-0.1,1.2-0.1c0.4,0,0.7,0.1,1,0.4c0.3,0.3,0.4,0.7,0.5,1.1
					c0.1,0.4,0.1,0.8,0,1.3c-0.1,0.5-0.2,0.9-0.3,1.3c-0.1,0.4-0.3,0.8-0.4,1.2c-0.5,1.7-1.1,3.3-1.8,4.8c-0.7,1.5-1.5,3.1-2.2,4.7
					c-0.7,1.5-1.5,3.1-2.3,4.6c-0.8,1.5-1.5,3.1-2.1,4.8c-0.2,0.7-0.5,1.4-0.7,2.2c-0.2,0.8-0.3,1.5-0.2,2.3
					c0.1,0.4,0.3,0.6,0.7,0.7c0.4,0.1,0.8,0.1,1.1,0.1c0.7,0,1.3-0.2,1.9-0.7c0.6-0.4,1.2-0.9,1.7-1.5c0.5-0.6,1-1.2,1.5-1.8
					c0.4-0.7,0.8-1.2,1.1-1.7c0.8-1.5,1.3-2.9,1.7-4.4c0.1-0.4,0.2-1,0.2-1.7c0-0.7-0.1-1.2-0.4-1.6c-0.1-0.2-0.3-0.4-0.4-0.7
					c-0.1-0.3-0.2-0.6-0.3-0.9c-0.1-0.3-0.2-0.6-0.3-0.9c-0.1-0.3-0.2-0.5-0.4-0.7c0-0.4,0.1-0.6,0.2-0.8c0.2-0.2,0.4-0.3,0.7-0.4
					c0.3-0.1,0.6-0.2,0.9-0.2C378.1,135.1,378.3,135.1,378.6,135.2z"/>
				<path class="st0" d="M369,181.8c-2.5,0-5-0.3-7.5-0.9c-5.3-1.2-9.8-3.6-13.4-7.1c-3.4-3.2-6-7.1-7.5-11.5
					c-1.3-3.6-1.8-7.5-1.7-11.4c0.1-2.3,0.4-4.6,0.9-6.8c0.4-2.1,1-4.2,1.8-6.3c0.6-1.5,1.2-3,1.8-4.4c1.5-3.3,3-6.6,4.5-9.8
					c1.5-3,2.9-6,4.4-9c2.4-4.9,6.4-8.9,11.4-11.1l0.4-0.2c1.7-0.9,3.5-1.6,5.4-2c2.1-0.5,4.2-0.7,6.4-0.7c6.5,0,12.7,2.5,17.3,7.2
					c0.6,0.6,1.1,1.1,1.6,1.8c2.8,3.4,4.6,7.4,5.4,11.7c0.2,0.9,0.3,1.8,0.3,2.7c0.4,0.6,0.9,1.3,1.3,2c1.6,2.8,2.8,5.7,3.5,8.9
					c0.6,2.5,0.8,5,0.7,7.6c0,4-0.8,8-2.1,11.8c-1,2.7-2.1,5.2-3.5,7.6c-1.3,2.3-2.8,4.5-4.5,6.6c-2.2,2.8-4.8,5.2-7.7,7.3
					c-3.4,2.4-7.2,4.2-11.3,5.3C374.3,181.4,371.6,181.8,369,181.8z M374.5,146.7c0.6,0,1.3,0.1,1.9,0l1.1-5.9l-1.1-0.5l-5.2,4.4
					L374.5,146.7z M377.6,143.1l-0.4,3.6c0.9-0.1,1.9-0.2,2.8-0.4l-0.6-2.7L377.6,143.1z M369.8,145.9c1.4,0.4,2.9,0.7,4.3,0.8
					l-3.3-1.7L369.8,145.9z M369.3,145.7C369.3,145.7,369.4,145.7,369.3,145.7l1.3-0.9l-1.3-0.7V145.7z M362.8,142.3
					c1.9,1.4,4,2.5,6.2,3.3l-0.1-1.7l-4.4-2.3l-1.6,0.6l1.4,0.6l-1.4-0.6L362.8,142.3z M369.3,143.3l1.7,1.1l5.4-4.2l-3.5-1.7
					l-3.6,1.3V143.3z M377.6,143.1l1.7,0.4l-0.5-2.1l-1-0.5L377.6,143.1z M365.9,141.1l3,1.9l-0.1-3L365.9,141.1z M362.3,141.9
					l0.6,0.3l1.6-0.6l-3.3-1.7l-0.5,0.5C361.1,141,361.7,141.5,362.3,141.9z M377.9,140.9l0.9,0.4l-0.6-2.4c0,0-0.1-0.1-0.1-0.1
					L377.9,140.9z M362.3,138.8l3.6,2.3l2.9-1.1l-0.2-4.4c-1.1,0-2.3,0.2-3.4,0.5c-0.1,0-0.2,0.1-0.3,0.1L362.3,138.8z M376.5,140.2
					l1,0.5l0.4-2.1c0,0,0,0,0,0l-1.1,0.3l1.1-0.4c-0.6-0.5-1.3-0.9-2-1.2l-3,1.1L376.5,140.2l0.7-0.6L376.5,140.2z M369.3,135.6v4.2
					l3.5-1.3l-0.2-0.1l0.2,0.1l3-1.1c-1.2-0.7-2.5-1.2-3.8-1.5C371.2,135.7,370.3,135.6,369.3,135.6z"/>
			</g>
			<g>
				<path class="st0" d="M399.9,123.8c0.3,0.1,0.6,0.4,0.8,0.7c0.2,0.3,0.3,0.8,0.4,1.4c0,0.6-0.1,1.3-0.3,2.2
					c-0.2,0.9-0.6,1.9-1.2,3.1l-12.8,26.7c-1.4,0.5-2.5,0.5-3.2,0.2c-0.3-0.1-0.6-0.3-0.8-0.7c-0.2-0.3-0.3-0.8-0.4-1.4
					c0-0.6,0.1-1.3,0.4-2.2c0.3-0.9,0.7-2,1.3-3.3l12.8-26.8C398.1,123.5,399.1,123.5,399.9,123.8z"/>
				<path class="st0" d="M384.5,181.4c-3.3,0-6.5-0.6-9.5-1.8c-4.7-1.8-8.6-5-11.5-9.1c-2.7-4-4.2-8.7-4.4-13.8
					c-0.1-3.1,0.4-6.1,1.3-9.3c0.6-2,1.4-4.1,2.5-6.5c0-0.1,0.1-0.1,0.1-0.2l12.8-26.8c3-6.2,8.5-10.8,15.2-12.4
					c6.4-1.6,12.8-1.1,18.3,1.5c4.2,1.9,7.9,5.1,10.5,9c0,0,0,0.1,0.1,0.1c2.5,3.9,3.9,8.5,4,13.3c0.1,2.9-0.3,5.8-1.1,8.8
					c-0.6,2.1-1.4,4.2-2.4,6.6c-0.1,0.2-0.2,0.3-0.2,0.5l-12.8,26.7c-2.7,5.6-7.6,9.9-13.5,11.9
					C390.8,180.9,387.6,181.4,384.5,181.4z M384.3,135.3l-2.9,1.9c2.2,3.3,5.2,6,8.9,7.6c2.6,1.2,5.4,1.8,8.2,1.8
					c1.7,0,3.1-0.3,3.9-0.5l-0.2-1c-0.1-0.2-0.3-0.5-0.4-0.7c-2.4-3.5-5.9-6.3-9.8-7.9C389.4,135.7,386.8,135.2,384.3,135.3z
					 M380.5,135.7c0.3,0.5,0.5,0.9,0.8,1.4l2.8-1.8C382.6,135.3,381.4,135.5,380.5,135.7z"/>
			</g>
			<g>
				<path class="st0" d="M414.8,135c0.4,0.1,0.9,0.1,1.4,0.2c0.5,0.1,0.8,0.3,1.1,0.6c0.2,0.2,0.4,0.4,0.6,0.7
					c0.2,0.3,0.4,0.6,0.5,0.9c0.1,0.3,0.2,0.6,0.2,0.9c0,0.3-0.1,0.6-0.3,0.9c-0.2,0.2-0.4,0.4-0.7,0.5c-0.3,0.1-0.6,0.2-1,0.3
					c-0.4,0.1-0.7,0.1-1,0.1c-0.3,0-0.6,0-0.9,0.1c-0.7,0.1-1.4,0.1-2.1,0.2c-0.7,0.1-1.4,0.2-2,0.4c-1.5,0.4-2.8,1-4,1.8
					c-1.2,0.8-2.3,1.7-3.2,2.8c-0.4,0.5-0.9,1-1.2,1.6c-0.4,0.6-0.8,1.2-1.1,1.8c-0.3,0.6-0.6,1.3-0.8,1.9c-0.2,0.7-0.3,1.3-0.4,2
					c1.4-0.8,2.7-1.8,3.9-2.9c1.2-1.1,2.4-2.2,3.7-3.3c0.6-0.5,1.2-1.1,1.7-1.6c0.6-0.6,1.1-1.1,1.7-1.7c0,0,0.1-0.1,0.2-0.2
					c0.1-0.1,0.3-0.2,0.4-0.4c0.1-0.1,0.3-0.3,0.4-0.4c0.1-0.1,0.2-0.2,0.2-0.3h0.4c0.5,0,1,0.1,1.5,0.2c0.5,0.1,1,0.3,1.5,0.7
					c0.5,0.4,0.9,0.8,1.1,1.5c0.2,0.6,0.1,1.4-0.4,2.4l-6,12.2c-0.9,0-1.7-0.2-2.4-0.4c-0.6-0.2-1.1-0.6-1.5-1
					c-0.4-0.4-0.6-1.1-0.4-1.9l-2.4,1.7c-0.5,0.4-1.1,0.7-1.7,1c-0.6,0.3-1.2,0.5-1.8,0.5c-0.6,0.1-1.2,0.1-1.8-0.1
					c-0.6-0.1-1.2-0.4-1.7-0.9c-0.6-0.4-1-0.9-1.4-1.5c-0.3-0.6-0.5-1.2-0.6-1.9c-0.1-0.7-0.1-1.4-0.1-2.1c0-0.7,0.2-1.4,0.3-2
					c0.4-1.5,0.9-2.9,1.7-4.3c0.8-1.4,1.6-2.7,2.6-3.9c1-1.2,2.1-2.2,3.3-3.1c1.2-0.9,2.5-1.7,3.8-2.3c1.4-0.6,2.8-1.1,4.3-1.3
					C411.7,134.9,413.2,134.8,414.8,135z"/>
				<path class="st0" d="M410.2,181.8c-0.2,0-0.5,0-0.7,0c-1.7-0.1-3.4-0.2-5.1-0.6c-0.4,0.1-0.8,0.1-1.2,0.2
					c-3.6,0.5-7.2,0.3-10.6-0.5c-3.7-0.9-7.2-2.6-10.3-5c-3.1-2.4-5.6-5.3-7.5-8.7c-1.6-3-2.7-6.2-3.2-9.5c-0.3-2.3-0.5-4.6-0.3-7
					c0.1-2.1,0.5-4.2,1-6.2c0.8-3.4,2.1-6.6,3.8-9.7c1.5-2.7,3.2-5.2,5.1-7.6c0.1-0.1,0.1-0.2,0.2-0.3c2-2.4,4.3-4.6,6.8-6.5
					c2.6-2,5.4-3.7,8.4-5c3-1.4,6.2-2.4,9.5-3c3.6-0.7,7.3-0.8,11-0.5c0.3,0,0.6,0.1,0.9,0.1c0.6,0.1,1.2,0.2,1.8,0.3
					c5.5,0.9,10.5,3.5,14.2,7.4c0.9,0.9,1.8,2,2.6,3c1.3,1.8,2.4,3.6,3.2,5.6c1.5,3.5,2.2,7.3,2,11.1c-0.1,3-0.8,5.9-2,8.6
					c-0.4,3-1.3,6-2.8,8.9l-6,12.1C426.9,176.8,418.9,181.8,410.2,181.8z M410.2,157.4c0.5,0.1,1,0.3,1.5,0.4l0.4-2.9v-1.7l-1.8-0.1
					L410.2,157.4z"/>
			</g>
			<g>
				<path class="st0" d="M439.9,136.1c0.5,0.4,0.8,0.9,1.1,1.4c0.2,0.5,0.4,1.1,0.4,1.7c0.1,0.6,0.1,1.2,0,1.8
					c-0.1,0.6-0.2,1.2-0.3,1.7c-0.4,1.5-0.9,3.1-1.6,4.8c-0.7,1.7-1.4,3.2-2.1,4.6c-0.1,0.1-0.3,0.6-0.7,1.2
					c-0.4,0.7-0.8,1.4-1.2,2.1c-0.5,0.9-1.1,1.9-1.7,3c-0.4,0.2-0.7,0.3-1.2,0.4c-0.4,0.1-0.9,0.1-1.3,0c-0.4-0.1-0.7-0.3-1.1-0.5
					c-0.3-0.2-0.5-0.6-0.5-1.1c-0.1-0.9,0-1.9,0.4-2.8c0.4-0.9,0.8-1.8,1.2-2.6c0.4-0.8,0.8-1.7,1.3-2.7c0.5-0.9,0.9-1.9,1.4-2.8
					c0.4-1,0.8-1.9,1.2-2.9c0.4-1,0.6-1.9,0.7-2.9c-0.8,0.2-1.6,0.5-2.3,1c-0.8,0.4-1.5,0.9-2.2,1.5c-0.7,0.6-1.4,1.1-2,1.8
					c-0.6,0.6-1.2,1.3-1.7,1.9c-1.1,1.4-2.2,3-3.2,4.8c-1,1.8-1.9,3.5-2.8,5c-0.1,0.1-0.1,0.2-0.2,0.4c0,0.1-0.1,0.2-0.2,0.4
					l-0.6,1.1c-1.2,0.1-2.2,0-2.9-0.3c-0.3-0.1-0.6-0.3-0.9-0.6c-0.2-0.2-0.4-0.6-0.5-1c-0.1-0.4-0.1-0.9,0-1.5
					c0.1-0.6,0.4-1.3,0.8-2.1l8.2-17.4c0.7,0,1.3,0,1.9,0.1c0.5,0.1,1,0.3,1.4,0.6c0.4,0.3,0.7,0.8,0.9,1.3c0.6-0.4,1.2-0.7,1.7-1.1
					c0.6-0.3,1.1-0.6,1.8-0.9c0.5-0.2,1.1-0.4,1.7-0.6c0.6-0.1,1.2-0.2,1.8-0.2c0.6,0,1.2,0.1,1.8,0.3
					C439,135.4,439.5,135.7,439.9,136.1z"/>
				<path class="st0" d="M432.1,182.1c-1.9,0-3.8-0.2-5.6-0.6c-0.5-0.1-1-0.2-1.5-0.4c-0.6,0.1-1.2,0.2-1.8,0.3
					c-5.1,0.5-9.9-0.2-14.2-2c-0.2-0.1-0.4-0.2-0.5-0.2c-2.9-1.3-5.4-3.1-7.6-5.3c-3.2-3.2-5.5-7.2-6.6-11.7c-0.9-3.6-1-7.2-0.3-11
					c0.5-2.8,1.4-5.5,2.7-8.2l8.1-17.2c3.7-7.8,11.3-12.9,19.9-13.2c1.8-0.1,3.4,0,5,0.2c5.6-1.3,11.3-1.1,16.6,0.8
					c3.6,1.3,6.8,3.2,9.5,5.8c2.8,2.6,5,5.6,6.5,9.1c1.2,2.7,1.9,5.6,2.2,8.6c0.2,2.1,0.2,4.2,0,6.3c-0.2,1.7-0.5,3.4-0.9,5
					c-0.6,2.6-1.5,5.3-2.6,8c-0.9,2.3-2,4.5-3,6.5c-0.2,0.4-0.4,0.7-0.6,1.1c-0.1,0.2-0.2,0.4-0.5,0.8c-0.4,0.7-0.9,1.5-1.3,2.3
					c0,0,0,0.1,0,0.1c-0.4,0.7-0.9,1.5-1.3,2.4c-2,3.7-5,6.9-8.7,9c-2.8,1.6-5.8,2.7-8.9,3.2c0,0-0.1,0-0.1,0
					C435,182,433.5,182.1,432.1,182.1z M422.5,138.9l3.1,0.4l-0.1-2.3c-1.1,0.4-2.2,0.9-3.3,1.5L422.5,138.9z"/>
			</g>
			<g>
				<path class="st0" d="M459.8,135.6c0.6,0.4,1.1,0.9,1.4,1.4c0.3,0.6,0.5,1.2,0.5,1.9c0,0.7,0,1.3-0.2,2c-0.2,0.7-0.4,1.3-0.6,1.9
					c-0.3,0.6-0.6,1.2-0.9,1.7c-0.3,0.6-0.7,1.1-1,1.7c-0.1,0.1-0.2,0.2-0.4,0.5c-0.2,0.3-0.4,0.6-0.6,0.9c-0.2,0.3-0.4,0.6-0.6,0.8
					c-0.2,0.2-0.2,0.4-0.2,0.4c-0.1,0.1-0.4,0.2-0.6,0.2c-0.3,0-0.6,0-0.9,0c-0.3,0-0.6-0.1-0.9-0.2c-0.3-0.1-0.5-0.2-0.6-0.3
					c-0.4-0.2-0.7-0.6-0.8-1.1c-0.1-0.5-0.1-0.9,0-1.4c0.1-0.5,0.2-0.9,0.4-1.4c0.2-0.5,0.4-0.9,0.7-1.4c0.2-0.5,0.5-0.9,0.7-1.3
					c0.2-0.4,0.4-0.9,0.6-1.4c-2,0.6-3.8,1.8-5.2,3.4c-1.5,1.6-2.5,3.4-3.2,5.4c-0.1,0.5-0.3,1.1-0.4,1.7c-0.1,0.7,0,1.2,0.3,1.7
					c0.1,0.2,0.2,0.3,0.5,0.4c0.2,0.1,0.4,0.1,0.7,0c0.2,0,0.5-0.1,0.7-0.1c0.2,0,0.4-0.1,0.6-0.2c0.5-0.1,0.9-0.4,1.4-0.7
					c0.1-0.1,0.2-0.2,0.4-0.3c0.2-0.2,0.3-0.2,0.4-0.2c0.5,0.1,1.1,0.1,1.8,0.1c0.6,0,1.2,0.1,1.6,0.4c0.3,0.2,0.4,0.5,0.5,0.7
					c0.1,0.3,0.1,0.6,0,0.9c-0.1,0.3-0.2,0.6-0.3,0.9c-0.1,0.3-0.3,0.6-0.4,0.8c-0.8,1.1-1.9,1.9-3.2,2.5c-1.1,0.5-2.3,0.7-3.6,0.7
					c-1.3,0-2.4-0.3-3.5-0.9c-1-0.6-1.8-1.3-2.3-2.2c-0.5-0.9-0.8-1.8-0.9-2.8c-0.1-1-0.1-2.1,0.1-3.2c0.2-1.1,0.5-2.2,0.9-3.2
					c0.4-1.1,0.9-2,1.4-3c0.5-0.9,1.1-1.8,1.6-2.5c1-1.2,2.2-2.3,3.4-3.3c1.3-0.9,2.6-1.7,4.1-2.2c0.5-0.2,1-0.4,1.6-0.5
					c0.6-0.1,1.2-0.2,1.8-0.3c0.6,0,1.2,0,1.7,0.1C458.8,135,459.3,135.2,459.8,135.6z"/>
				<path class="st0" d="M448.3,181.8c-5.2,0-10.4-1.4-14.9-3.9c-4.5-2.6-8.2-6.2-10.8-10.5c-2.2-3.7-3.5-7.7-4-11.9
					c-0.4-3.3-0.3-6.6,0.4-10c0.5-2.5,1.2-5,2.1-7.4c0.8-2.1,1.8-4.2,2.9-6.1c1.1-1.9,2.3-3.7,3.5-5.2c0.1-0.1,0.2-0.3,0.4-0.4
					c2.1-2.6,4.6-4.9,7.2-6.9c3-2.3,6.3-4.1,9.8-5.4c1.3-0.5,2.7-1,4.2-1.3c2.1-0.5,4.1-0.8,6.2-0.9c0.6,0,1,0,1.5,0
					c2.1,0,4.1,0.2,6.1,0.6c3.2,0.7,6.2,1.9,9,3.6c4.1,2.5,7.5,6.1,9.7,10.3c1.8,3.5,2.9,7.2,3.1,11.1c0.2,3-0.1,6-0.8,8.9
					c-0.5,1.9-1.1,3.8-1.9,5.6c-0.2,0.4-0.4,0.8-0.6,1.2c-0.6,1.2-1.2,2.3-1.9,3.4c-0.2,0.4-0.5,0.8-0.7,1.3
					c-0.2,0.4-0.5,0.8-0.8,1.2c-0.4,2-1.1,3.9-2,5.7c0,0,0,0.1,0,0.1c-0.7,1.5-1.5,2.9-2.5,4.2c0,0.1-0.1,0.1-0.2,0.2
					c-3.2,4.3-7.5,7.8-12.5,10C457.1,180.9,452.7,181.8,448.3,181.8z M478.5,157.6C478.5,157.6,478.5,157.6,478.5,157.6
					c2.3-5.3,2.4-11.3,0.4-16.7c0,0,0,0,0,0c1,2.8,1.5,5.8,1.3,8.8C480.2,152.5,479.6,155.1,478.5,157.6z M459.9,153.3l1.2,3.9
					c0,0,0.1,0,0.1,0c0.6-0.3,1.2-0.6,1.7-1c0.2-0.1,0.3-0.3,0.4-0.4l-2.8-2.3L459.9,153.3z M461.9,153.9l1.8,1.5
					c0.2-0.2,0.3-0.4,0.3-0.4c0-0.1,0.1-0.2,0.1-0.2c0-0.1,0-0.1,0.1-0.2L461.9,153.9z M461.1,153.3l3.1,0.9c0-0.1,0-0.2,0.1-0.3
					c0-0.2,0.1-0.4,0.1-0.6l-5.8-4.1l0.9,2.9L461.1,153.3z M458.6,149.2l5.8,4.1c0.1-1,0.1-2,0-3.1c-0.3-2.2-1-4.4-2.1-6.3
					c-1.5-2.6-3.7-4.7-6.1-6.1c-2.4-1.3-5-2.1-7.7-2.1l1.9,1.9l10.5,5.2l-5.1-2.2l1.1,3.5l2.1,2.1l-1.7-1L458.6,149.2z M452.1,139.3
					l3.2,1.1l-3.6-1.5L452.1,139.3z"/>
			</g>
			<g>
				<path class="st0" d="M481.5,135c0.4,0.1,0.9,0.1,1.4,0.2c0.5,0.1,0.8,0.3,1.1,0.6c0.2,0.2,0.4,0.4,0.6,0.7
					c0.2,0.3,0.4,0.6,0.5,0.9c0.1,0.3,0.2,0.6,0.2,0.9c0,0.3-0.1,0.6-0.3,0.9c-0.2,0.2-0.4,0.4-0.7,0.5c-0.3,0.1-0.6,0.2-1,0.3
					c-0.4,0.1-0.7,0.1-1,0.1c-0.3,0-0.6,0-0.9,0.1c-0.7,0.1-1.4,0.1-2.1,0.2c-0.7,0.1-1.4,0.2-2,0.4c-1.5,0.4-2.8,1-4,1.8
					c-1.2,0.8-2.3,1.7-3.2,2.8c-0.4,0.5-0.9,1-1.2,1.6c-0.4,0.6-0.8,1.2-1.1,1.8c-0.3,0.6-0.6,1.3-0.8,1.9c-0.2,0.7-0.3,1.3-0.4,2
					c1.4-0.8,2.7-1.8,3.9-2.9c1.2-1.1,2.4-2.2,3.7-3.3c0.6-0.5,1.2-1.1,1.7-1.6c0.6-0.6,1.1-1.1,1.7-1.7c0,0,0.1-0.1,0.2-0.2
					c0.1-0.1,0.3-0.2,0.4-0.4c0.1-0.1,0.3-0.3,0.4-0.4c0.1-0.1,0.2-0.2,0.2-0.3h0.4c0.5,0,1,0.1,1.5,0.2c0.5,0.1,1,0.3,1.5,0.7
					c0.5,0.4,0.9,0.8,1.1,1.5c0.2,0.6,0.1,1.4-0.4,2.4l-6.1,12.2c-0.9,0-1.7-0.2-2.4-0.4c-0.6-0.2-1.1-0.6-1.5-1
					c-0.4-0.4-0.6-1.1-0.4-1.9l-2.4,1.7c-0.5,0.4-1.1,0.7-1.7,1s-1.2,0.5-1.8,0.5c-0.6,0.1-1.2,0.1-1.8-0.1
					c-0.6-0.1-1.2-0.4-1.7-0.9c-0.6-0.4-1-0.9-1.4-1.5c-0.3-0.6-0.5-1.2-0.6-1.9c-0.1-0.7-0.1-1.4-0.1-2.1c0-0.7,0.2-1.4,0.3-2
					c0.4-1.5,0.9-2.9,1.7-4.3c0.8-1.4,1.6-2.7,2.6-3.9c1-1.2,2.1-2.2,3.3-3.1c1.2-0.9,2.5-1.7,3.8-2.3c1.4-0.6,2.8-1.1,4.3-1.3
					C478.4,134.9,479.9,134.8,481.5,135z"/>
				<path class="st0" d="M476.9,181.8c-0.2,0-0.5,0-0.7,0c-1.7-0.1-3.4-0.2-5.1-0.6c-0.4,0.1-0.8,0.1-1.2,0.2
					c-1.4,0.2-2.7,0.3-4,0.3c-2.2,0-4.5-0.3-6.7-0.8c-3.7-0.9-7.2-2.6-10.3-5c-3.1-2.4-5.6-5.3-7.5-8.7c-1.6-3-2.7-6.2-3.2-9.5
					c-0.3-2.3-0.4-4.6-0.3-7c0.1-2.1,0.5-4.2,1-6.2c0.8-3.3,2.1-6.6,3.8-9.7c1.5-2.7,3.2-5.2,5.1-7.6c0.1-0.1,0.1-0.2,0.2-0.3
					c2-2.4,4.3-4.6,6.8-6.5c2.6-2,5.4-3.7,8.4-5c3-1.4,6.2-2.4,9.5-3c3.6-0.7,7.3-0.8,11-0.5c0.3,0,0.6,0.1,0.9,0.1
					c0.6,0.1,1.2,0.2,1.8,0.3c5.5,0.9,10.5,3.5,14.2,7.4c0.9,0.9,1.8,2,2.6,3c1.3,1.7,2.3,3.6,3.2,5.5c1.5,3.6,2.2,7.3,2,11
					c0,0,0,0.1,0,0.1c-0.1,3-0.8,5.9-2,8.6c-0.4,3-1.3,6-2.8,8.9l-6,12.1C493.6,176.8,485.6,181.8,476.9,181.8z M476.9,157.4
					c0.5,0.1,1,0.3,1.5,0.4l0.4-2.8v-1.7l-1.8-0.1L476.9,157.4z"/>
			</g>
		</g>
	</g>
	<g>
		<path class="st1" d="M56.6,29.5c0.7,0.3,1.2,0.8,1.7,1.5c0.5,0.7,0.7,1.7,0.7,2.9c0,1.2-0.2,2.7-0.7,4.5c-0.5,1.8-1.3,4-2.5,6.5
			L29,100.7c-2.9,1-5.2,1.1-6.8,0.5c-0.7-0.2-1.2-0.7-1.7-1.4c-0.5-0.7-0.7-1.6-0.7-2.8c0-1.2,0.2-2.8,0.8-4.6
			c0.6-1.9,1.5-4.2,2.7-6.9l26.8-56C52.9,28.7,55,28.7,56.6,29.5z"/>
		<path class="st1" d="M78.5,29.5c0.7,0.3,1.2,0.8,1.7,1.5c0.5,0.7,0.7,1.7,0.7,2.9c0,1.2-0.2,2.7-0.7,4.5c-0.5,1.8-1.3,4-2.5,6.5
			L51,100.7c-2.9,1-5.2,1.1-6.8,0.5c-0.7-0.2-1.2-0.7-1.7-1.4c-0.5-0.7-0.7-1.6-0.7-2.8c0-1.2,0.2-2.8,0.8-4.6
			c0.5-1.9,1.5-4.2,2.7-6.9l26.8-56C74.8,28.7,77,28.7,78.5,29.5z"/>
		<path class="st1" d="M103.3,52.7c1.8,0.5,3.2,1.3,4.3,2.3c1.1,1,2,2.3,2.5,3.7c0.5,1.4,0.7,3,0.7,4.6c-0.1,1.6-0.4,3.2-1,4.8
			c-0.9,2.6-2.2,4.9-4,7c-1.7,2.1-3.7,3.9-5.9,5.3c-2.9,1.9-5.9,3.2-9.1,4c-0.4,0.1-0.8,0.2-1.2,0.4c-0.5,0.1-0.9,0.2-1.5,0.4
			c-0.5,0.1-1,0.2-1.5,0.2c-0.5,0-0.9,0-1.2-0.1c-0.7-0.3-1.6-0.8-2.6-1.4c-1-0.6-1.8-1.4-2.2-2.2c-0.2,0.7-0.5,1.6-0.8,2.6
			c-0.3,1-0.4,1.9-0.5,2.9c-0.1,0.9,0,1.8,0.3,2.5c0.2,0.7,0.8,1.1,1.6,1.1c1,0.1,2.1,0.1,3.2-0.1c1.1-0.2,2.1-0.6,3.2-1.1
			c0.1-0.1,0.3-0.2,0.8-0.5c0.5-0.2,0.9-0.5,1.4-0.8c0.5-0.3,0.9-0.5,1.3-0.8c0.4-0.3,0.6-0.5,0.6-0.6c0.1-0.2,0.4-0.3,1-0.2
			c0.6,0,1.2,0.1,1.9,0.3c0.7,0.2,1.3,0.3,1.9,0.5c0.6,0.2,0.9,0.4,1.1,0.4c1,0.6,1.6,1.4,1.6,2.4c0,1-0.2,1.9-0.6,2.8
			c-1,2.3-2.6,4.1-4.7,5.6c-2.1,1.5-4.3,2.5-6.5,3.1c-2.2,0.6-4.5,0.8-6.8,0.6c-2.4-0.2-4.5-0.9-6.5-2.3c-2-1.4-3.5-3.2-4.4-5.4
			c-0.9-2.2-1.5-4.5-1.6-6.9c0-3.2,0.5-6.5,1.6-9.7c1.1-3.2,2.5-6.2,4.4-9.1c1.9-2.9,4-5.5,6.5-7.8c2.5-2.3,5.1-4.2,7.8-5.7
			c2.3-1.1,4.7-2,7.4-2.7C98.1,52.2,100.7,52.1,103.3,52.7z M94.7,69.7c1-0.8,1.8-1.6,2.3-2.5c0.5-0.9,1.1-1.8,1.7-2.9
			c-0.5-0.1-1.3,0-2.1,0.3c-0.9,0.3-1.7,0.7-2.6,1.2c-0.9,0.5-1.7,1-2.5,1.6c-0.8,0.5-1.4,1-1.8,1.4c-1.2,1-2.4,2.2-3.4,3.3
			c-1.1,1.2-2,2.5-2.8,3.9l2.7-1.4c1.5-0.6,3-1.3,4.5-2.1C92.1,71.7,93.4,70.7,94.7,69.7z"/>
		<path class="st1" d="M151.9,67.5c0.9,0.1,1.5,0.5,1.8,1.1c0.4,0.6,0.6,1.4,0.6,2.2c0,0.9,0,1.7-0.1,2.6c-0.1,0.9-0.3,1.6-0.5,2.2
			c-0.6,2.7-1.6,5.4-2.9,7.9c-1.3,2.5-2.6,5.1-3.8,7.6c-1.6,3.2-3.2,6.5-5,9.9c-1.7,3.4-3.7,6.6-5.9,9.7c-2.2,3.1-4.7,5.8-7.5,8.2
			c-2.8,2.4-6,4.3-9.7,5.5c-2.9,1-6,1.4-9.2,1.2c-3.2-0.2-6.2-1.3-8.9-3.2c-0.6-0.5-1.4-1.2-2.3-2.2c-0.9-1-1.4-2-1.4-3
			c0.1-0.7,0.2-1.3,0.5-2c0.2-0.7,0.6-1.3,1-1.8c0.4-0.5,1-1,1.6-1.3c0.6-0.3,1.4-0.4,2.2-0.4c0.8,0.1,1.6,0.4,2.3,0.8
			c0.7,0.4,1.5,0.7,2.3,1.1c0.5,0.1,1,0.2,1.6,0.3c0.6,0.1,1.2,0.1,1.6,0.1c1.4,0.1,2.8,0,4.2-0.3c1.4-0.3,2.7-0.9,3.9-1.7
			c2.7-1.6,5-3.7,7-6.4c2-2.7,3.8-5.4,5.4-8.1c-0.3,0.2-0.6,0.4-0.9,0.6c-0.3,0.2-0.7,0.4-1.1,0.6c-1.1,0.8-2.3,1.5-3.5,2.1
			c-1.2,0.6-2.5,1-3.7,1.1c-1.3,0.2-2.5,0.1-3.8-0.2c-1.3-0.3-2.5-0.9-3.8-1.8c-1.2-0.9-2.2-2-2.8-3.2c-0.6-1.2-1.1-2.5-1.3-3.9
			c-0.2-1.4-0.3-2.8-0.2-4.3c0.1-1.5,0.4-2.9,0.7-4.2c0.7-3.1,1.8-6.1,3.4-9.1c1.6-2.9,3.5-5.6,5.6-8.1c2-2.4,4.3-4.6,6.8-6.5
			c2.5-1.9,5.2-3.5,8-4.8c2.8-1.3,5.8-2.2,8.9-2.8c3.1-0.6,6.2-0.7,9.4-0.4c1,0.1,2,0.3,2.9,0.4c0.9,0.2,1.7,0.6,2.3,1.2
			c0.4,0.4,0.8,0.9,1.2,1.5c0.4,0.6,0.8,1.2,1.1,1.8c0.3,0.6,0.4,1.3,0.4,1.9c0,0.6-0.2,1.2-0.6,1.8c-0.9,1-2,1.6-3.6,1.8
			c-1.5,0.2-2.9,0.3-4.1,0.4c-1.4,0.1-2.8,0.3-4.2,0.4c-1.4,0.2-2.8,0.4-4.2,0.8c-3.1,0.9-5.8,2.1-8.3,3.8c-2.5,1.6-4.8,3.6-6.8,5.9
			c-1.8,2.1-3.5,4.5-4.9,7.2c-1.4,2.7-2.2,5.4-2.3,8.1c2.9-1.8,5.7-3.8,8.2-6.1c2.5-2.3,5-4.6,7.5-7c1.8-1.5,3.4-3.1,5-4.8
			c1.6-1.6,3.2-3.3,4.9-4.9c0.2,0.1,0.5,0.1,1.1,0.1c0.6,0,1.1,0.1,1.6,0.1c0.5,0,1.1,0.1,1.5,0.1C151.5,67.4,151.8,67.5,151.9,67.5
			z"/>
		<path class="st1" d="M193.2,84.7c-1.4,3.1-3.2,5.9-5.3,8.5c-2.1,2.6-4.6,4.7-7.5,6.5c-1.3,0.9-2.8,1.6-4.4,2.2
			c-1.6,0.6-3.2,0.9-4.8,1.1c-1.6,0.1-3.2,0-4.8-0.3c-1.6-0.3-3.1-1-4.4-2.1c-1.9-1.3-3.3-3-4.2-4.9c-0.9-1.9-1.4-3.9-1.6-6
			c-0.1-2.1,0.1-4.3,0.5-6.6c0.5-2.3,1.2-4.5,2.1-6.6c0.9-2.1,1.9-4.1,3.1-6c1.1-1.9,2.3-3.5,3.4-4.9c2-2.4,4.3-4.6,6.7-6.4
			c2.5-1.8,5.1-3.3,8-4.3c1.3-0.5,2.4-0.8,3.2-1c0.9-0.2,1.9,0.1,3,0.8c0.6,0.4,1.2,0.8,1.6,1.4c0.5,0.5,0.9,1.1,1.1,1.7
			c0.3,0.6,0.4,1.2,0.3,1.9c-0.1,0.6-0.4,1.3-0.9,1.9l-0.5,0.6c1.3-0.1,2.5,0.4,3.6,1.4c1.1,1.1,2,2.1,2.6,3.2
			c0.7,1.4,1.2,2.9,1.4,4.4c0.2,1.6,0.2,3.1,0,4.7c-0.2,1.6-0.5,3.1-1,4.7C194.4,81.9,193.8,83.3,193.2,84.7z M179.9,84.5
			c1.6-2.2,3-4.6,3.9-7.3c1-2.7,1-5.3,0.1-8c0.1,0.1,0.2-0.1,0.4-0.4c0.1-0.3,0.2-0.6,0.4-1c0.1-0.4,0.2-0.7,0.3-1.1
			c0.1-0.3,0.2-0.5,0.2-0.6c0-0.3,0-0.7,0.1-1.1c0.1-0.4,0.2-0.8,0.3-1.1c-0.6,0.4-1.3,0.7-1.9,1.1c-0.7,0.4-1.3,0.8-1.9,1.2
			c-1.1,0.9-2.2,1.7-3.2,2.5c-1,0.8-2,1.7-2.9,2.7c-1,1.1-2,2.3-2.9,3.7c-0.9,1.4-1.7,2.8-2.4,4.3c-0.7,1.5-1.2,3-1.6,4.6
			c-0.4,1.6-0.5,3.1-0.3,4.7c0.1,1.1,0.4,1.8,1,2.1c0.5,0.3,1.2,0.4,1.9,0.1c0.8-0.2,1.6-0.6,2.5-1.2c0.9-0.6,1.7-1.2,2.6-1.9
			c0.8-0.7,1.6-1.4,2.2-2C179.2,85.3,179.6,84.8,179.9,84.5z M178.8,48.6c-1.5-1.8-2.5-3.5-3-5.1c-0.2-0.7-0.4-1.4-0.5-2.1
			c-0.1-0.7,0-1.4,0.3-2.1c0.2-0.7,0.7-1.3,1.3-1.9c0.6-0.6,1.5-1.1,2.6-1.5l23.5-8.7c1.5,1.8,2.6,3.5,3.3,5.1
			c0.5,1.4,0.6,2.8,0.3,4.3c-0.4,1.4-1.7,2.5-3.9,3.3L178.8,48.6z"/>
		<path class="st1" d="M267.7,29.5c0.7,0.3,1.2,0.8,1.7,1.5c0.5,0.7,0.7,1.7,0.7,2.9c0,1.2-0.2,2.7-0.7,4.5c-0.5,1.8-1.3,4-2.5,6.5
			l-26.8,55.7c-2.9,1-5.2,1.1-6.8,0.5c-0.7-0.2-1.2-0.7-1.7-1.4c-0.5-0.7-0.7-1.6-0.7-2.8c0-1.2,0.2-2.8,0.8-4.6
			c0.5-1.9,1.5-4.2,2.7-6.9l26.8-56C264,28.7,266.1,28.7,267.7,29.5z"/>
		<path class="st1" d="M298.9,52.7c0.9,0.1,1.9,0.3,2.8,0.4c1,0.2,1.8,0.6,2.4,1.2c0.4,0.4,0.9,0.9,1.3,1.5c0.4,0.6,0.8,1.2,1.1,1.8
			c0.3,0.6,0.4,1.3,0.4,1.9c0,0.6-0.3,1.2-0.7,1.8c-0.4,0.5-0.9,0.9-1.5,1.1c-0.6,0.3-1.3,0.5-2.1,0.6c-0.7,0.2-1.5,0.2-2.2,0.3
			c-0.7,0-1.3,0.1-1.9,0.1c-1.4,0.1-2.8,0.3-4.3,0.4c-1.5,0.2-2.9,0.4-4.2,0.8c-3.1,0.9-5.8,2.1-8.3,3.8c-2.5,1.6-4.8,3.6-6.8,5.9
			c-0.9,1-1.8,2.2-2.6,3.4c-0.8,1.2-1.6,2.5-2.2,3.8c-0.7,1.3-1.2,2.7-1.6,4c-0.4,1.4-0.7,2.7-0.7,4.1c2.9-1.8,5.6-3.8,8.1-6.1
			c2.5-2.3,5.1-4.6,7.6-7c1.2-1.1,2.4-2.2,3.6-3.4c1.2-1.2,2.4-2.4,3.6-3.6c0.1-0.1,0.2-0.2,0.5-0.5c0.3-0.2,0.6-0.5,0.9-0.8
			c0.3-0.3,0.6-0.5,0.9-0.8c0.3-0.2,0.4-0.4,0.4-0.5h0.7c1,0,2.1,0.1,3.2,0.4c1.1,0.2,2.1,0.7,3.1,1.4c1.1,0.7,1.9,1.8,2.4,3.1
			c0.5,1.3,0.2,3-0.8,5l-12.6,25.4c-2-0.1-3.6-0.4-5-0.9c-1.2-0.5-2.3-1.2-3.2-2.1c-0.9-0.9-1.2-2.3-0.9-4l-5,3.6
			c-1.1,0.8-2.3,1.5-3.5,2.1c-1.3,0.6-2.5,1-3.8,1.1c-1.3,0.2-2.5,0.1-3.8-0.2c-1.3-0.3-2.5-0.9-3.6-1.8c-1.2-0.9-2.2-2-2.8-3.2
			c-0.7-1.2-1.1-2.5-1.3-3.9c-0.2-1.4-0.3-2.8-0.2-4.3c0.1-1.5,0.3-2.9,0.7-4.2c0.7-3.1,1.9-6.1,3.5-9.1c1.6-2.9,3.4-5.6,5.4-8.1
			c2.1-2.4,4.4-4.6,6.9-6.5c2.5-1.9,5.2-3.5,8-4.8c2.8-1.3,5.8-2.2,8.9-2.8C292.5,52.6,295.6,52.4,298.9,52.7z"/>
		<path class="st1" d="M340,103.4c-0.7-0.2-1.3-0.7-1.7-1.2c-0.5-0.6-0.8-1.4-1-2.3c-0.2-1-0.1-2.2,0.2-3.6c0.3-1.4,0.9-3.1,1.9-5.1
			L359,50.3c0.4-0.1,0.8-0.1,1.2-0.2c0.7-0.1,1.6,0,2.7,0.2l-1-10.7c2-1.8,3.9-2.7,5.6-2.8c0.7-0.1,1.5,0.1,2.2,0.4
			c0.7,0.3,1.4,0.9,2.1,1.7c0.6,0.9,1.2,2,1.6,3.6c0.5,1.5,0.8,3.5,1.1,5.9l2.7,28.9l20-41.6c2.6-0.5,4.7-0.4,6.3,0.4
			c0.7,0.4,1.2,0.9,1.7,1.5c0.5,0.6,0.7,1.5,0.8,2.6c0.1,1.1-0.1,2.5-0.5,4.1c-0.4,1.6-1.2,3.6-2.3,5.9l-23.7,49.8v0.2
			c-2,2-3.9,3.1-5.6,3.4c-0.7,0.1-1.5,0-2.2-0.2c-0.7-0.3-1.4-0.9-2.1-1.7c-0.6-0.9-1.2-2.1-1.6-3.7c-0.5-1.6-0.8-3.6-1.1-6.1
			l-2.4-25.4l-18.1,37.5C343.7,104.2,341.6,104.1,340,103.4z"/>
		<path class="st1" d="M432.8,52.7c1.8,0.5,3.2,1.3,4.3,2.3c1.1,1,2,2.3,2.5,3.7c0.5,1.4,0.7,3,0.7,4.6c-0.1,1.6-0.4,3.2-1,4.8
			c-0.9,2.6-2.2,4.9-4,7c-1.7,2.1-3.7,3.9-5.9,5.3c-2.9,1.9-5.9,3.2-9.1,4c-0.4,0.1-0.8,0.2-1.2,0.4c-0.5,0.1-0.9,0.2-1.5,0.4
			c-0.5,0.1-1,0.2-1.5,0.2c-0.5,0-0.9,0-1.2-0.1c-0.7-0.3-1.6-0.8-2.6-1.4c-1-0.6-1.8-1.4-2.2-2.2c-0.2,0.7-0.5,1.6-0.8,2.6
			c-0.3,1-0.4,1.9-0.5,2.9c-0.1,0.9,0,1.8,0.3,2.5c0.2,0.7,0.8,1.1,1.6,1.1c1,0.1,2.1,0.1,3.2-0.1c1.1-0.2,2.1-0.6,3.2-1.1
			c0.1-0.1,0.3-0.2,0.8-0.5c0.5-0.2,0.9-0.5,1.4-0.8c0.5-0.3,0.9-0.5,1.3-0.8c0.4-0.3,0.6-0.5,0.6-0.6c0.1-0.2,0.4-0.3,1-0.2
			c0.6,0,1.2,0.1,1.9,0.3c0.7,0.2,1.3,0.3,1.9,0.5c0.6,0.2,0.9,0.4,1.1,0.4c1,0.6,1.6,1.4,1.6,2.4c0,1-0.2,1.9-0.6,2.8
			c-1,2.3-2.6,4.1-4.7,5.6c-2.1,1.5-4.3,2.5-6.5,3.1c-2.2,0.6-4.5,0.8-6.8,0.6c-2.4-0.2-4.5-0.9-6.5-2.3c-2-1.4-3.5-3.2-4.4-5.4
			c-0.9-2.2-1.5-4.5-1.6-6.9c0-3.2,0.5-6.5,1.6-9.7c1.1-3.2,2.5-6.2,4.4-9.1c1.9-2.9,4-5.5,6.5-7.8c2.5-2.3,5.1-4.2,7.8-5.7
			c2.3-1.1,4.7-2,7.4-2.7C427.7,52.2,430.3,52.1,432.8,52.7z M424.2,69.7c1-0.8,1.8-1.6,2.3-2.5c0.5-0.9,1.1-1.8,1.7-2.9
			c-0.5-0.1-1.3,0-2.1,0.3c-0.9,0.3-1.7,0.7-2.6,1.2c-0.9,0.5-1.7,1-2.5,1.6c-0.8,0.5-1.4,1-1.8,1.4c-1.2,1-2.4,2.2-3.4,3.3
			c-1.1,1.2-2,2.5-2.8,3.9l2.7-1.4c1.5-0.6,3-1.3,4.5-2.1C421.7,71.7,423,70.7,424.2,69.7z"/>
		<path class="st1" d="M481.4,67.5c0.9,0.1,1.5,0.5,1.8,1.1c0.4,0.6,0.6,1.4,0.6,2.2c0,0.9,0,1.7-0.1,2.6c-0.1,0.9-0.3,1.6-0.5,2.2
			c-0.6,2.7-1.6,5.4-2.9,7.9c-1.3,2.5-2.6,5.1-3.8,7.6c-1.6,3.2-3.2,6.5-5,9.9c-1.7,3.4-3.7,6.6-5.9,9.7c-2.2,3.1-4.7,5.8-7.5,8.2
			c-2.8,2.4-6,4.3-9.7,5.5c-2.9,1-6,1.4-9.2,1.2c-3.2-0.2-6.2-1.3-8.9-3.2c-0.6-0.5-1.4-1.2-2.3-2.2c-0.9-1-1.4-2-1.4-3
			c0.1-0.7,0.2-1.3,0.5-2c0.2-0.7,0.6-1.3,1-1.8c0.4-0.5,1-1,1.6-1.3c0.6-0.3,1.4-0.4,2.2-0.4c0.8,0.1,1.6,0.4,2.3,0.8
			c0.7,0.4,1.5,0.7,2.3,1.1c0.5,0.1,1,0.2,1.6,0.3c0.6,0.1,1.2,0.1,1.6,0.1c1.4,0.1,2.8,0,4.2-0.3c1.4-0.3,2.7-0.9,3.9-1.7
			c2.7-1.6,5-3.7,7-6.4c2-2.7,3.8-5.4,5.4-8.1c-0.3,0.2-0.6,0.4-0.9,0.6c-0.3,0.2-0.7,0.4-1.1,0.6c-1.1,0.8-2.3,1.5-3.5,2.1
			c-1.2,0.6-2.5,1-3.7,1.1c-1.3,0.2-2.5,0.1-3.8-0.2c-1.3-0.3-2.5-0.9-3.8-1.8c-1.2-0.9-2.2-2-2.8-3.2c-0.6-1.2-1.1-2.5-1.3-3.9
			c-0.2-1.4-0.3-2.8-0.2-4.3c0.1-1.5,0.4-2.9,0.7-4.2c0.7-3.1,1.8-6.1,3.4-9.1c1.6-2.9,3.5-5.6,5.6-8.1c2-2.4,4.3-4.6,6.8-6.5
			c2.5-1.9,5.2-3.5,8-4.8c2.8-1.3,5.8-2.2,8.9-2.8c3.1-0.6,6.2-0.7,9.4-0.4c1,0.1,2,0.3,2.9,0.4c0.9,0.2,1.7,0.6,2.3,1.2
			c0.4,0.4,0.8,0.9,1.2,1.5c0.4,0.6,0.8,1.2,1.1,1.8c0.3,0.6,0.4,1.3,0.4,1.9c0,0.6-0.2,1.2-0.6,1.8c-0.9,1-2,1.6-3.6,1.8
			c-1.5,0.2-2.9,0.3-4.1,0.4c-1.4,0.1-2.8,0.3-4.2,0.4c-1.4,0.2-2.8,0.4-4.2,0.8c-3.1,0.9-5.8,2.1-8.3,3.8c-2.5,1.6-4.8,3.6-6.8,5.9
			c-1.8,2.1-3.5,4.5-4.9,7.2c-1.4,2.7-2.2,5.4-2.3,8.1c2.9-1.8,5.7-3.8,8.2-6.1c2.5-2.3,5-4.6,7.5-7c1.8-1.5,3.4-3.1,5-4.8
			c1.6-1.6,3.2-3.3,4.9-4.9c0.2,0.1,0.5,0.1,1.1,0.1c0.5,0,1.1,0.1,1.6,0.1c0.5,0,1.1,0.1,1.5,0.1C481.1,67.4,481.4,67.5,481.4,67.5
			z"/>
		<path class="st1" d="M527.5,55.1c1.1,1.1,1.8,2.4,2.1,3.8c0.3,1.4,0.4,2.9,0.2,4.4c-0.2,1.5-0.5,3-1.1,4.4
			c-0.5,1.4-1.1,2.7-1.6,3.9c-0.7,1.6-1.5,3.1-2.3,4.6c-0.9,1.5-1.8,2.9-2.7,4.3c-0.1,0.1-0.4,0.4-0.8,0.9c-0.4,0.5-0.8,1-1.3,1.6
			c-0.5,0.6-0.9,1.1-1.3,1.6c-0.4,0.5-0.6,0.7-0.7,0.7c-0.6,0.2-1.3,0.2-2,0.2c-0.7-0.1-1.5-0.3-2.2-0.6c-0.7-0.3-1.3-0.8-1.9-1.3
			c-0.6-0.5-1-1.1-1.1-1.8c-0.4-1.5-0.3-3.1,0.5-4.8c0.7-1.6,1.4-3.1,2.1-4.5c0.3-0.6,0.6-1.2,1-1.8c0.4-0.6,0.7-1.2,1-1.8
			c-0.2,0.2-0.3,0.4-0.5,0.5c-0.1,0.2-0.3,0.3-0.5,0.5c-1.5,1.4-2.9,2.9-4.3,4.5c-1.3,1.6-2.6,3.2-3.8,4.8c-1.9,2.4-3.8,5.2-5.7,8.1
			c-1.9,3-3.6,5.8-5.1,8.4l-3,6.2c-0.6,0.1-1.2,0.1-1.8,0.1c-0.5,0-1.1,0-1.7-0.1c-0.6-0.1-1.2-0.2-1.8-0.4
			c-0.7-0.1-1.4-0.4-1.9-0.7c-0.5-0.3-0.9-0.9-1.1-1.6c-0.1-0.1-0.2-0.2-0.2-0.4c-0.4-0.9-0.6-2-0.5-3.4c0.1-1.3,0.7-3,1.7-5
			l17-36.3c1.3-0.1,2.5,0,3.6,0.3c1,0.2,1.9,0.5,2.8,1c0.9,0.5,1.6,1.2,2.1,2.1c0.6-0.3,1.2-0.6,1.7-1c0.5-0.4,1-0.7,1.5-1
			c1-0.6,2.1-1.1,3.3-1.6c1.2-0.5,2.4-0.8,3.7-0.9c1.2-0.2,2.4-0.1,3.6,0.2C525.5,53.6,526.6,54.2,527.5,55.1z"/>
		<path class="st1" d="M571.8,52.7c0.9,0.1,1.9,0.3,2.8,0.4c1,0.2,1.8,0.6,2.4,1.2c0.4,0.4,0.9,0.9,1.3,1.5c0.4,0.6,0.8,1.2,1.1,1.8
			c0.3,0.6,0.4,1.3,0.4,1.9c0,0.6-0.3,1.2-0.7,1.8c-0.4,0.5-0.9,0.9-1.5,1.1c-0.6,0.3-1.3,0.5-2.1,0.6c-0.7,0.2-1.5,0.2-2.2,0.3
			c-0.7,0-1.3,0.1-1.9,0.1c-1.4,0.1-2.8,0.3-4.3,0.4c-1.5,0.2-2.9,0.4-4.2,0.8c-3.1,0.9-5.8,2.1-8.3,3.8c-2.5,1.6-4.8,3.6-6.8,5.9
			c-0.9,1-1.8,2.2-2.6,3.4c-0.8,1.2-1.6,2.5-2.2,3.8c-0.7,1.3-1.2,2.7-1.6,4c-0.4,1.4-0.7,2.7-0.7,4.1c2.9-1.8,5.6-3.8,8.1-6.1
			c2.5-2.3,5.1-4.6,7.6-7c1.2-1.1,2.4-2.2,3.6-3.4c1.2-1.2,2.4-2.4,3.6-3.6c0.1-0.1,0.2-0.2,0.5-0.5c0.3-0.2,0.6-0.5,0.9-0.8
			c0.3-0.3,0.6-0.5,0.9-0.8c0.3-0.2,0.4-0.4,0.4-0.5h0.7c1,0,2.1,0.1,3.2,0.4c1.1,0.2,2.1,0.7,3.1,1.4c1.1,0.7,1.9,1.8,2.4,3.1
			c0.5,1.3,0.2,3-0.8,5l-12.6,25.4c-2-0.1-3.6-0.4-5-0.9c-1.2-0.5-2.3-1.2-3.2-2.1c-0.9-0.9-1.2-2.3-0.9-4l-5,3.6
			c-1.1,0.8-2.3,1.5-3.5,2.1c-1.3,0.6-2.5,1-3.8,1.1c-1.3,0.2-2.5,0.1-3.8-0.2c-1.3-0.3-2.5-0.9-3.6-1.8c-1.2-0.9-2.2-2-2.8-3.2
			c-0.7-1.2-1.1-2.5-1.3-3.9c-0.2-1.4-0.3-2.8-0.2-4.3c0.1-1.5,0.3-2.9,0.7-4.2c0.7-3.1,1.9-6.1,3.5-9.1c1.6-2.9,3.4-5.6,5.4-8.1
			c2.1-2.4,4.4-4.6,6.9-6.5c2.5-1.9,5.2-3.5,8-4.8c2.8-1.3,5.8-2.2,8.9-2.8C565.4,52.6,568.5,52.4,571.8,52.7z"/>
	</g>
	<g>
		<path class="st1" d="M147.8,139.7c0.6,0.4,1.1,0.9,1.4,1.4c0.3,0.6,0.5,1.2,0.5,1.9c0,0.7,0,1.3-0.2,2c-0.2,0.7-0.4,1.3-0.6,1.9
			c-0.3,0.6-0.6,1.2-0.9,1.7c-0.3,0.6-0.7,1.1-1,1.7c-0.1,0.1-0.2,0.2-0.4,0.5c-0.2,0.3-0.4,0.6-0.6,0.9c-0.2,0.3-0.4,0.6-0.6,0.8
			c-0.2,0.2-0.2,0.4-0.2,0.4c-0.1,0.1-0.4,0.2-0.6,0.2c-0.3,0-0.6,0-0.9,0c-0.3,0-0.6-0.1-0.9-0.2c-0.3-0.1-0.5-0.2-0.6-0.3
			c-0.4-0.2-0.7-0.6-0.8-1.1c-0.1-0.5-0.1-0.9,0-1.4c0.1-0.5,0.2-0.9,0.4-1.4c0.2-0.5,0.4-0.9,0.7-1.4c0.2-0.5,0.5-0.9,0.7-1.3
			c0.2-0.4,0.4-0.9,0.6-1.4c-2,0.6-3.8,1.8-5.2,3.4c-1.5,1.6-2.5,3.4-3.2,5.4c-0.1,0.5-0.3,1.1-0.4,1.7c-0.1,0.7,0,1.2,0.3,1.7
			c0.1,0.2,0.2,0.3,0.5,0.4c0.2,0.1,0.4,0.1,0.7,0c0.2,0,0.5-0.1,0.7-0.1c0.2,0,0.4-0.1,0.6-0.2c0.5-0.1,0.9-0.4,1.4-0.7
			c0.1-0.1,0.2-0.2,0.4-0.3c0.2-0.2,0.3-0.2,0.4-0.2c0.5,0.1,1.1,0.1,1.8,0.1c0.6,0,1.2,0.1,1.6,0.4c0.3,0.2,0.4,0.5,0.5,0.7
			c0.1,0.3,0.1,0.6,0,0.9c-0.1,0.3-0.2,0.6-0.3,0.9c-0.1,0.3-0.3,0.6-0.4,0.8c-0.8,1.1-1.9,1.9-3.2,2.5c-1.1,0.5-2.3,0.7-3.6,0.7
			c-1.3,0-2.4-0.3-3.5-0.9c-1-0.6-1.8-1.3-2.3-2.2c-0.5-0.9-0.8-1.8-0.9-2.8c-0.1-1-0.1-2.1,0.1-3.2c0.2-1.1,0.5-2.2,0.9-3.2
			c0.4-1.1,0.9-2,1.4-3c0.5-0.9,1.1-1.8,1.6-2.5c1-1.2,2.2-2.3,3.4-3.3c1.3-0.9,2.6-1.7,4.1-2.2c0.5-0.2,1-0.4,1.6-0.5
			c0.6-0.1,1.2-0.2,1.8-0.3c0.6,0,1.2,0,1.7,0.1C146.8,139.1,147.3,139.3,147.8,139.7z"/>
		<path class="st1" d="M166.3,154.3c-0.7,1.5-1.5,2.8-2.5,4.1c-1,1.2-2.2,2.3-3.6,3.1c-0.6,0.4-1.3,0.8-2.1,1
			c-0.8,0.3-1.5,0.4-2.3,0.5c-0.8,0.1-1.5,0-2.3-0.2c-0.8-0.2-1.5-0.5-2.1-1c-0.9-0.6-1.6-1.4-2-2.3c-0.4-0.9-0.7-1.9-0.7-2.9
			c-0.1-1,0-2.1,0.3-3.2c0.2-1.1,0.6-2.2,1-3.2c0.4-1,0.9-2,1.5-2.9c0.5-0.9,1.1-1.7,1.6-2.3c1-1.2,2-2.2,3.2-3.1
			c1.2-0.9,2.5-1.6,3.8-2.1c0.6-0.2,1.1-0.4,1.6-0.5c0.4-0.1,0.9,0.1,1.4,0.4c0.3,0.2,0.6,0.4,0.8,0.7c0.2,0.3,0.4,0.5,0.5,0.8
			c0.1,0.3,0.2,0.6,0.2,0.9c0,0.3-0.2,0.6-0.4,0.9l-0.3,0.3c0.6-0.1,1.2,0.2,1.7,0.7c0.5,0.5,1,1,1.2,1.5c0.4,0.7,0.6,1.4,0.7,2.1
			c0.1,0.7,0.1,1.5,0,2.3c-0.1,0.8-0.2,1.5-0.5,2.2C166.8,153,166.6,153.7,166.3,154.3z M159.9,154.3c0.8-1.1,1.4-2.2,1.9-3.5
			c0.5-1.3,0.5-2.6,0-3.8c0.1,0,0.1,0,0.2-0.2c0.1-0.1,0.1-0.3,0.2-0.5c0.1-0.2,0.1-0.3,0.2-0.5c0-0.2,0.1-0.3,0.1-0.3
			c0-0.1,0-0.3,0-0.5c0-0.2,0.1-0.4,0.1-0.5c-0.3,0.2-0.6,0.4-0.9,0.5c-0.3,0.2-0.6,0.4-0.9,0.6c-0.5,0.4-1,0.8-1.5,1.2
			c-0.5,0.4-0.9,0.8-1.4,1.3c-0.5,0.5-1,1.1-1.4,1.8c-0.4,0.7-0.8,1.3-1.2,2.1c-0.3,0.7-0.6,1.5-0.8,2.2c-0.2,0.8-0.2,1.5-0.1,2.2
			c0.1,0.5,0.2,0.9,0.5,1c0.2,0.1,0.6,0.2,0.9,0.1c0.4-0.1,0.8-0.3,1.2-0.6c0.4-0.3,0.8-0.6,1.2-0.9c0.4-0.3,0.7-0.7,1.1-1
			C159.6,154.7,159.8,154.4,159.9,154.3z"/>
		<path class="st1" d="M191.2,140.2c0.5,0.4,0.8,0.9,1.1,1.4c0.2,0.5,0.4,1.1,0.4,1.7c0.1,0.6,0.1,1.2,0,1.8
			c-0.1,0.6-0.2,1.2-0.3,1.7c-0.4,1.5-0.9,3.1-1.6,4.8c-0.7,1.7-1.4,3.2-2.1,4.6c-0.1,0.1-0.3,0.6-0.7,1.2c-0.4,0.7-0.8,1.4-1.2,2.1
			c-0.5,0.9-1.1,1.9-1.7,3c-0.4,0.2-0.7,0.3-1.2,0.4c-0.4,0.1-0.9,0.1-1.2,0c-0.4-0.1-0.7-0.3-1.1-0.5c-0.3-0.2-0.5-0.6-0.5-1.1
			c-0.1-0.9,0-1.9,0.4-2.8c0.4-0.9,0.8-1.8,1.2-2.6c0.4-0.8,0.8-1.7,1.3-2.7c0.5-0.9,0.9-1.9,1.4-2.8c0.4-1,0.8-1.9,1.2-2.9
			s0.6-1.9,0.7-2.9c-0.8,0.2-1.6,0.5-2.3,1c-0.8,0.4-1.5,0.9-2.2,1.5c-0.7,0.6-1.4,1.1-2,1.8c-0.6,0.6-1.2,1.3-1.7,1.9
			c-1.1,1.4-2.2,3-3.2,4.8c-1,1.8-1.9,3.5-2.8,5c-0.1,0.1-0.1,0.2-0.2,0.4c0,0.1-0.1,0.2-0.2,0.4l-0.6,1.1c-1.2,0.1-2.2,0-2.9-0.3
			c-0.3-0.1-0.6-0.3-0.9-0.6c-0.2-0.2-0.4-0.6-0.5-1c-0.1-0.4-0.1-0.9,0-1.5c0.1-0.6,0.4-1.3,0.8-2.1l8.2-17.4c0.7,0,1.3,0,1.9,0.1
			c0.5,0.1,1,0.3,1.4,0.6c0.4,0.3,0.7,0.8,0.9,1.3c0.6-0.4,1.2-0.7,1.7-1.1c0.6-0.3,1.1-0.6,1.8-0.9c0.5-0.2,1.1-0.4,1.7-0.6
			c0.6-0.1,1.2-0.2,1.8-0.2c0.6,0,1.2,0.1,1.8,0.3C190.2,139.5,190.8,139.8,191.2,140.2z"/>
		<path class="st1" d="M225.7,127.9c0.3,0.1,0.6,0.4,0.8,0.7c0.2,0.3,0.3,0.8,0.4,1.4c0,0.6-0.1,1.3-0.3,2.2
			c-0.2,0.9-0.6,1.9-1.2,3.1L212.5,162c-1.4,0.5-2.5,0.5-3.2,0.2c-0.3-0.1-0.6-0.3-0.8-0.7c-0.2-0.3-0.3-0.8-0.4-1.4
			c0-0.6,0.1-1.3,0.4-2.2c0.3-0.9,0.7-2,1.3-3.3l12.8-26.8C224,127.5,225,127.6,225.7,127.9z"/>
		<path class="st1" d="M240.6,139c0.4,0.1,0.9,0.1,1.4,0.2c0.5,0.1,0.8,0.3,1.1,0.6c0.2,0.2,0.4,0.4,0.6,0.7
			c0.2,0.3,0.4,0.6,0.5,0.9c0.1,0.3,0.2,0.6,0.2,0.9c0,0.3-0.1,0.6-0.3,0.9c-0.2,0.2-0.4,0.4-0.7,0.5c-0.3,0.1-0.6,0.2-1,0.3
			c-0.4,0.1-0.7,0.1-1,0.1c-0.3,0-0.6,0-0.9,0.1c-0.7,0.1-1.4,0.1-2.1,0.2c-0.7,0.1-1.4,0.2-2,0.4c-1.5,0.4-2.8,1-4,1.8
			c-1.2,0.8-2.3,1.7-3.2,2.8c-0.4,0.5-0.9,1-1.2,1.6c-0.4,0.6-0.8,1.2-1.1,1.8c-0.3,0.6-0.6,1.3-0.8,1.9c-0.2,0.7-0.3,1.3-0.4,2
			c1.4-0.8,2.7-1.8,3.9-2.9c1.2-1.1,2.4-2.2,3.7-3.3c0.6-0.5,1.2-1.1,1.7-1.6c0.6-0.6,1.1-1.1,1.7-1.7c0,0,0.1-0.1,0.2-0.2
			c0.1-0.1,0.3-0.2,0.4-0.4c0.1-0.1,0.3-0.3,0.4-0.4c0.1-0.1,0.2-0.2,0.2-0.3h0.4c0.5,0,1,0.1,1.5,0.2c0.5,0.1,1,0.3,1.5,0.7
			c0.5,0.4,0.9,0.8,1.1,1.5c0.2,0.6,0.1,1.4-0.4,2.4l-6.1,12.2c-0.9,0-1.7-0.2-2.4-0.4c-0.6-0.2-1.1-0.6-1.5-1
			c-0.4-0.4-0.6-1.1-0.4-1.9l-2.4,1.7c-0.5,0.4-1.1,0.7-1.7,1c-0.6,0.3-1.2,0.5-1.8,0.5c-0.6,0.1-1.2,0.1-1.8-0.1
			c-0.6-0.1-1.2-0.4-1.7-0.9c-0.6-0.4-1-0.9-1.4-1.5c-0.3-0.6-0.5-1.2-0.6-1.9c-0.1-0.7-0.1-1.4-0.1-2.1c0-0.7,0.2-1.4,0.3-2
			c0.4-1.5,0.9-2.9,1.7-4.3c0.8-1.4,1.6-2.7,2.6-3.9c1-1.2,2.1-2.2,3.3-3.1c1.2-0.9,2.5-1.7,3.8-2.3c1.4-0.6,2.8-1.1,4.3-1.3
			C237.6,139,239.1,138.9,240.6,139z"/>
		<path class="st1" d="M278.5,139.7c0.6,0.4,1.1,0.9,1.4,1.4c0.3,0.6,0.5,1.2,0.5,1.9c0,0.7,0,1.3-0.2,2c-0.2,0.7-0.4,1.3-0.6,1.9
			c-0.3,0.6-0.6,1.2-0.9,1.7c-0.3,0.6-0.7,1.1-1,1.7c-0.1,0.1-0.2,0.2-0.4,0.5c-0.2,0.3-0.4,0.6-0.6,0.9c-0.2,0.3-0.4,0.6-0.6,0.8
			c-0.2,0.2-0.2,0.4-0.2,0.4c-0.1,0.1-0.4,0.2-0.6,0.2c-0.3,0-0.6,0-0.9,0c-0.3,0-0.6-0.1-0.9-0.2c-0.3-0.1-0.5-0.2-0.6-0.3
			c-0.4-0.2-0.7-0.6-0.8-1.1c-0.1-0.5-0.1-0.9,0-1.4c0.1-0.5,0.2-0.9,0.4-1.4c0.2-0.5,0.4-0.9,0.7-1.4c0.2-0.5,0.5-0.9,0.7-1.3
			c0.2-0.4,0.4-0.9,0.6-1.4c-2,0.6-3.8,1.8-5.2,3.4c-1.5,1.6-2.5,3.4-3.2,5.4c-0.1,0.5-0.3,1.1-0.4,1.7c-0.1,0.7,0,1.2,0.3,1.7
			c0.1,0.2,0.2,0.3,0.5,0.4c0.2,0.1,0.4,0.1,0.7,0c0.2,0,0.5-0.1,0.7-0.1c0.2,0,0.4-0.1,0.6-0.2c0.5-0.1,0.9-0.4,1.4-0.7
			c0.1-0.1,0.2-0.2,0.4-0.3c0.2-0.2,0.3-0.2,0.4-0.2c0.5,0.1,1.1,0.1,1.8,0.1c0.6,0,1.2,0.1,1.6,0.4c0.3,0.2,0.4,0.5,0.5,0.7
			c0.1,0.3,0.1,0.6,0,0.9c-0.1,0.3-0.2,0.6-0.3,0.9c-0.1,0.3-0.3,0.6-0.4,0.8c-0.8,1.1-1.9,1.9-3.2,2.5c-1.1,0.5-2.3,0.7-3.6,0.7
			c-1.3,0-2.4-0.3-3.5-0.9c-1-0.6-1.8-1.3-2.3-2.2c-0.5-0.9-0.8-1.8-0.9-2.8c-0.1-1-0.1-2.1,0.1-3.2c0.2-1.1,0.5-2.2,0.9-3.2
			c0.4-1.1,0.9-2,1.4-3c0.5-0.9,1.1-1.8,1.6-2.5c1-1.2,2.2-2.3,3.4-3.3c1.3-0.9,2.6-1.7,4.1-2.2c0.5-0.2,1-0.4,1.6-0.5
			c0.6-0.1,1.2-0.2,1.8-0.3c0.6,0,1.2,0,1.7,0.1C277.5,139.1,278,139.3,278.5,139.7z"/>
		<path class="st1" d="M297,154.3c-0.7,1.5-1.5,2.8-2.5,4.1c-1,1.2-2.2,2.3-3.6,3.1c-0.6,0.4-1.3,0.8-2.1,1
			c-0.8,0.3-1.5,0.4-2.3,0.5c-0.8,0.1-1.5,0-2.3-0.2s-1.5-0.5-2.1-1c-0.9-0.6-1.6-1.4-2-2.3c-0.4-0.9-0.7-1.9-0.7-2.9
			c-0.1-1,0-2.1,0.3-3.2c0.2-1.1,0.6-2.2,1-3.2c0.4-1,0.9-2,1.5-2.9c0.5-0.9,1.1-1.7,1.6-2.3c1-1.2,2-2.2,3.2-3.1
			c1.2-0.9,2.5-1.6,3.8-2.1c0.6-0.2,1.1-0.4,1.6-0.5c0.4-0.1,0.9,0.1,1.4,0.4c0.3,0.2,0.6,0.4,0.8,0.7c0.2,0.3,0.4,0.5,0.5,0.8
			c0.1,0.3,0.2,0.6,0.2,0.9c0,0.3-0.2,0.6-0.4,0.9l-0.3,0.3c0.6-0.1,1.2,0.2,1.7,0.7c0.5,0.5,1,1,1.2,1.5c0.4,0.7,0.6,1.4,0.7,2.1
			c0.1,0.7,0.1,1.5,0,2.3c-0.1,0.8-0.2,1.5-0.5,2.2C297.5,153,297.3,153.7,297,154.3z M290.6,154.3c0.8-1.1,1.4-2.2,1.9-3.5
			c0.5-1.3,0.5-2.6,0-3.8c0.1,0,0.1,0,0.2-0.2c0.1-0.1,0.1-0.3,0.2-0.5c0.1-0.2,0.1-0.3,0.2-0.5c0-0.2,0.1-0.3,0.1-0.3
			c0-0.1,0-0.3,0-0.5c0-0.2,0.1-0.4,0.1-0.5c-0.3,0.2-0.6,0.4-0.9,0.5c-0.3,0.2-0.6,0.4-0.9,0.6c-0.5,0.4-1,0.8-1.5,1.2
			c-0.5,0.4-0.9,0.8-1.4,1.3c-0.5,0.5-1,1.1-1.4,1.8c-0.4,0.7-0.8,1.3-1.2,2.1c-0.3,0.7-0.6,1.5-0.8,2.2c-0.2,0.8-0.2,1.5-0.1,2.2
			c0.1,0.5,0.2,0.9,0.5,1c0.2,0.1,0.6,0.2,0.9,0.1c0.4-0.1,0.8-0.3,1.2-0.6c0.4-0.3,0.8-0.6,1.2-0.9c0.4-0.3,0.7-0.7,1.1-1
			C290.2,154.7,290.5,154.4,290.6,154.3z"/>
		<path class="st1" d="M315.5,140.2c0.8,0.5,1.5,1.2,1.9,2c0.4,0.8,0.6,1.8,0.5,2.7c-0.1,0.9-0.4,1.8-0.9,2.6c0,0-0.1,0.1-0.2,0.2
			c-0.1,0.1-0.2,0.3-0.3,0.4c-0.1,0.2-0.2,0.3-0.3,0.4c-0.1,0.1-0.2,0.2-0.2,0.2c-0.1,0.1-0.3,0.2-0.7,0.2c-0.4,0-0.7,0-0.9,0
			c-0.3-0.1-0.6-0.2-1-0.4c-0.3-0.2-0.6-0.4-0.8-0.8c-0.1-0.2-0.2-0.4-0.2-0.7c0-0.2,0-0.5,0.1-0.7c0-0.2,0-0.5,0-0.7
			c0-0.2-0.1-0.4-0.2-0.6c-0.1-0.1-0.2-0.2-0.4-0.2s-0.4,0-0.5,0.1c-0.2,0.1-0.4,0.2-0.5,0.2c-0.2,0.1-0.3,0.2-0.4,0.2
			c-0.6,0.3-1.1,0.7-1.7,1.1c-0.5,0.4-1,0.9-1.3,1.4c0.8,0.2,1.6,0.3,2.3,0.4c0.7,0,1.5,0.2,2.3,0.6c1.1,0.5,2,1.3,2.7,2.3
			c0.7,1,1,2.2,0.9,3.4c-0.1,1.2-0.5,2.3-1.2,3.3c-0.7,1-1.7,1.8-2.7,2.5c-1.1,0.7-2.2,1.2-3.5,1.5c-1.2,0.4-2.4,0.5-3.5,0.5
			c-1.1,0-2.2-0.2-3.2-0.7c-1.1-0.5-1.9-1.2-2.5-2.2c-0.2-0.3-0.3-0.6-0.5-0.9c-0.2-0.3-0.2-0.7-0.2-1c0.1-0.5,0.3-1,0.7-1.6
			c0.4-0.5,0.8-0.8,1.4-0.9c0.3,0,0.5,0,0.7,0.1c0.2,0.1,0.4,0.2,0.6,0.4c0.2,0.1,0.3,0.3,0.5,0.5c0.2,0.2,0.3,0.4,0.5,0.5
			c0.4,0.2,0.9,0.3,1.4,0.3c0.5,0,0.9,0,1.4-0.1c0.4-0.1,0.8-0.2,1.2-0.3c0.5-0.1,0.9-0.3,1.4-0.5c0.4-0.2,0.8-0.5,1.2-0.8
			c0.4-0.3,0.6-0.6,0.8-1.1c-0.1-0.3-0.3-0.4-0.6-0.5c-0.3-0.1-0.7-0.2-1.1-0.2c-0.4,0-0.8,0-1.2,0c-0.4,0-0.7,0-1-0.1
			c-0.8-0.2-1.6-0.5-2.4-1c-0.8-0.5-1.4-1.1-1.7-2c-0.4-0.8-0.5-1.5-0.5-2.3c0-0.8,0.2-1.5,0.6-2.2c0.3-0.7,0.8-1.4,1.3-2
			c0.5-0.6,1-1.1,1.6-1.6c0.7-0.6,1.4-1.1,2.3-1.6c0.8-0.5,1.7-0.9,2.6-1.2c0.9-0.3,1.8-0.4,2.8-0.4
			C313.8,139.4,314.7,139.7,315.5,140.2z"/>
		<path class="st1" d="M338.6,139c0.4,0.1,0.9,0.1,1.4,0.2c0.5,0.1,0.8,0.3,1.1,0.6c0.2,0.2,0.4,0.4,0.6,0.7
			c0.2,0.3,0.4,0.6,0.5,0.9c0.1,0.3,0.2,0.6,0.2,0.9c0,0.3-0.1,0.6-0.3,0.9c-0.2,0.2-0.4,0.4-0.7,0.5c-0.3,0.1-0.6,0.2-1,0.3
			c-0.4,0.1-0.7,0.1-1,0.1c-0.3,0-0.6,0-0.9,0.1c-0.7,0.1-1.4,0.1-2.1,0.2c-0.7,0.1-1.4,0.2-2,0.4c-1.5,0.4-2.8,1-4,1.8
			c-1.2,0.8-2.3,1.7-3.2,2.8c-0.4,0.5-0.9,1-1.2,1.6c-0.4,0.6-0.8,1.2-1.1,1.8c-0.3,0.6-0.6,1.3-0.8,1.9c-0.2,0.7-0.3,1.3-0.4,2
			c1.4-0.8,2.7-1.8,3.9-2.9c1.2-1.1,2.4-2.2,3.7-3.3c0.6-0.5,1.2-1.1,1.7-1.6c0.6-0.6,1.1-1.1,1.7-1.7c0,0,0.1-0.1,0.2-0.2
			c0.1-0.1,0.3-0.2,0.4-0.4c0.1-0.1,0.3-0.3,0.4-0.4c0.1-0.1,0.2-0.2,0.2-0.3h0.4c0.5,0,1,0.1,1.5,0.2c0.5,0.1,1,0.3,1.5,0.7
			c0.5,0.4,0.9,0.8,1.1,1.5c0.2,0.6,0.1,1.4-0.4,2.4l-6.1,12.2c-0.9,0-1.7-0.2-2.4-0.4c-0.6-0.2-1.1-0.6-1.5-1
			c-0.4-0.4-0.6-1.1-0.4-1.9l-2.4,1.7c-0.5,0.4-1.1,0.7-1.7,1s-1.2,0.5-1.8,0.5c-0.6,0.1-1.2,0.1-1.8-0.1c-0.6-0.1-1.2-0.4-1.7-0.9
			c-0.6-0.4-1-0.9-1.4-1.5c-0.3-0.6-0.5-1.2-0.6-1.9c-0.1-0.7-0.1-1.4-0.1-2.1c0-0.7,0.2-1.4,0.3-2c0.4-1.5,0.9-2.9,1.7-4.3
			c0.8-1.4,1.6-2.7,2.6-3.9c1-1.2,2.1-2.2,3.3-3.1c1.2-0.9,2.5-1.7,3.8-2.3c1.4-0.6,2.8-1.1,4.3-1.3C335.5,139,337,138.9,338.6,139z
			"/>
		<path class="st1" d="M375.3,139.3c0.8,0.1,1.4,0.4,2,0.9c0.6,0.5,1,1,1.4,1.6c0.4,0.6,0.6,1.3,0.8,2c0.2,0.7,0.2,1.4,0.2,2.1
			c0,1.5-0.3,2.9-0.8,4.4c-0.5,1.4-1.1,2.8-1.9,4c-0.7,1.2-1.5,2.4-2.4,3.5c-0.9,1.1-2,2.1-3.1,2.9c-1.2,0.8-2.4,1.4-3.7,1.8
			c-1.3,0.4-2.8,0.4-4.3,0c-1.2-0.3-2.2-0.8-2.9-1.4c-0.7-0.7-1.2-1.4-1.5-2.3c-0.3-0.9-0.4-1.8-0.4-2.8c0-1,0.2-2.1,0.4-3.1
			c0.2-1.1,0.5-2.1,0.9-3.1c0.4-1,0.7-1.9,1.1-2.7c1.4-3.1,2.8-6.2,4.3-9.2c1.5-3,2.9-6.1,4.4-9.1l0.8-0.4c0.2-0.1,0.4-0.2,0.6-0.3
			c0.2-0.1,0.3-0.1,0.3-0.2c0.4-0.1,0.8-0.1,1.2-0.1c0.4,0,0.7,0.1,1,0.4c0.3,0.3,0.4,0.7,0.5,1.1c0.1,0.4,0.1,0.8,0,1.3
			c-0.1,0.5-0.2,0.9-0.3,1.3c-0.1,0.4-0.3,0.8-0.4,1.2c-0.5,1.7-1.1,3.3-1.8,4.8c-0.7,1.5-1.5,3.1-2.2,4.7c-0.7,1.5-1.5,3.1-2.3,4.6
			c-0.8,1.5-1.5,3.1-2.1,4.8c-0.2,0.7-0.5,1.4-0.7,2.2c-0.2,0.8-0.3,1.5-0.2,2.3c0.1,0.4,0.3,0.6,0.7,0.7c0.4,0.1,0.8,0.1,1.1,0.1
			c0.7,0,1.3-0.2,1.9-0.7c0.6-0.4,1.2-0.9,1.7-1.5c0.5-0.6,1-1.2,1.5-1.8c0.4-0.7,0.8-1.2,1.1-1.7c0.8-1.5,1.3-2.9,1.7-4.4
			c0.1-0.4,0.2-1,0.2-1.7c0-0.7-0.1-1.2-0.4-1.6c-0.1-0.2-0.3-0.4-0.4-0.7c-0.1-0.3-0.2-0.6-0.3-0.9c-0.1-0.3-0.2-0.6-0.3-0.9
			c-0.1-0.3-0.2-0.5-0.4-0.7c0-0.4,0.1-0.6,0.2-0.8c0.2-0.2,0.4-0.3,0.7-0.4c0.3-0.1,0.6-0.2,0.9-0.2
			C374.8,139.2,375.1,139.2,375.3,139.3z"/>
		<path class="st1" d="M396.6,127.9c0.3,0.1,0.6,0.4,0.8,0.7c0.2,0.3,0.3,0.8,0.4,1.4c0,0.6-0.1,1.3-0.3,2.2
			c-0.2,0.9-0.6,1.9-1.2,3.1L383.4,162c-1.4,0.5-2.5,0.5-3.2,0.2c-0.3-0.1-0.6-0.3-0.8-0.7c-0.2-0.3-0.3-0.8-0.4-1.4
			c0-0.6,0.1-1.3,0.4-2.2c0.3-0.9,0.7-2,1.3-3.3l12.8-26.8C394.8,127.5,395.9,127.6,396.6,127.9z"/>
		<path class="st1" d="M411.5,139c0.4,0.1,0.9,0.1,1.4,0.2c0.5,0.1,0.8,0.3,1.1,0.6c0.2,0.2,0.4,0.4,0.6,0.7
			c0.2,0.3,0.4,0.6,0.5,0.9c0.1,0.3,0.2,0.6,0.2,0.9c0,0.3-0.1,0.6-0.3,0.9c-0.2,0.2-0.4,0.4-0.7,0.5c-0.3,0.1-0.6,0.2-1,0.3
			c-0.4,0.1-0.7,0.1-1,0.1c-0.3,0-0.6,0-0.9,0.1c-0.7,0.1-1.4,0.1-2.1,0.2c-0.7,0.1-1.4,0.2-2,0.4c-1.5,0.4-2.8,1-4,1.8
			c-1.2,0.8-2.3,1.7-3.2,2.8c-0.4,0.5-0.9,1-1.2,1.6c-0.4,0.6-0.8,1.2-1.1,1.8c-0.3,0.6-0.6,1.3-0.8,1.9c-0.2,0.7-0.3,1.3-0.4,2
			c1.4-0.8,2.7-1.8,3.9-2.9c1.2-1.1,2.4-2.2,3.7-3.3c0.6-0.5,1.2-1.1,1.7-1.6c0.6-0.6,1.1-1.1,1.7-1.7c0,0,0.1-0.1,0.2-0.2
			c0.1-0.1,0.3-0.2,0.4-0.4c0.1-0.1,0.3-0.3,0.4-0.4c0.1-0.1,0.2-0.2,0.2-0.3h0.4c0.5,0,1,0.1,1.5,0.2c0.5,0.1,1,0.3,1.5,0.7
			c0.5,0.4,0.9,0.8,1.1,1.5c0.2,0.6,0.1,1.4-0.4,2.4l-6,12.2c-0.9,0-1.7-0.2-2.4-0.4c-0.6-0.2-1.1-0.6-1.5-1
			c-0.4-0.4-0.6-1.1-0.4-1.9l-2.4,1.7c-0.5,0.4-1.1,0.7-1.7,1c-0.6,0.3-1.2,0.5-1.8,0.5c-0.6,0.1-1.2,0.1-1.8-0.1
			c-0.6-0.1-1.2-0.4-1.7-0.9c-0.6-0.4-1-0.9-1.4-1.5c-0.3-0.6-0.5-1.2-0.6-1.9c-0.1-0.7-0.1-1.4-0.1-2.1c0-0.7,0.2-1.4,0.3-2
			c0.4-1.5,0.9-2.9,1.7-4.3c0.8-1.4,1.6-2.7,2.6-3.9c1-1.2,2.1-2.2,3.3-3.1c1.2-0.9,2.5-1.7,3.8-2.3c1.4-0.6,2.8-1.1,4.3-1.3
			C408.5,139,410,138.9,411.5,139z"/>
		<path class="st1" d="M436.7,140.2c0.5,0.4,0.8,0.9,1.1,1.4s0.4,1.1,0.4,1.7c0.1,0.6,0.1,1.2,0,1.8c-0.1,0.6-0.2,1.2-0.3,1.7
			c-0.4,1.5-0.9,3.1-1.6,4.8s-1.4,3.2-2.1,4.6c-0.1,0.1-0.3,0.6-0.7,1.2c-0.4,0.7-0.8,1.4-1.2,2.1c-0.5,0.9-1.1,1.9-1.7,3
			c-0.4,0.2-0.7,0.3-1.2,0.4c-0.4,0.1-0.9,0.1-1.3,0c-0.4-0.1-0.7-0.3-1.1-0.5c-0.3-0.2-0.5-0.6-0.5-1.1c-0.1-0.9,0-1.9,0.4-2.8
			c0.4-0.9,0.8-1.8,1.2-2.6c0.4-0.8,0.8-1.7,1.3-2.7c0.5-0.9,0.9-1.9,1.4-2.8c0.4-1,0.8-1.9,1.2-2.9c0.4-1,0.6-1.9,0.7-2.9
			c-0.8,0.2-1.6,0.5-2.3,1c-0.8,0.4-1.5,0.9-2.2,1.5c-0.7,0.6-1.4,1.1-2,1.8c-0.6,0.6-1.2,1.3-1.7,1.9c-1.1,1.4-2.2,3-3.2,4.8
			c-1,1.8-1.9,3.5-2.8,5c-0.1,0.1-0.1,0.2-0.2,0.4c0,0.1-0.1,0.2-0.2,0.4l-0.6,1.1c-1.2,0.1-2.2,0-2.9-0.3c-0.3-0.1-0.6-0.3-0.9-0.6
			c-0.2-0.2-0.4-0.6-0.5-1c-0.1-0.4-0.1-0.9,0-1.5c0.1-0.6,0.4-1.3,0.8-2.1l8.2-17.4c0.7,0,1.3,0,1.9,0.1c0.5,0.1,1,0.3,1.4,0.6
			c0.4,0.3,0.7,0.8,0.9,1.3c0.6-0.4,1.2-0.7,1.7-1.1c0.6-0.3,1.1-0.6,1.8-0.9c0.5-0.2,1.1-0.4,1.7-0.6c0.6-0.1,1.2-0.2,1.8-0.2
			c0.6,0,1.2,0.1,1.8,0.3C435.7,139.5,436.2,139.8,436.7,140.2z"/>
		<path class="st1" d="M456.6,139.7c0.6,0.4,1.1,0.9,1.4,1.4c0.3,0.6,0.5,1.2,0.5,1.9c0,0.7,0,1.3-0.2,2c-0.2,0.7-0.4,1.3-0.6,1.9
			c-0.3,0.6-0.6,1.2-0.9,1.7c-0.3,0.6-0.7,1.1-1,1.7c-0.1,0.1-0.2,0.2-0.4,0.5c-0.2,0.3-0.4,0.6-0.6,0.9c-0.2,0.3-0.4,0.6-0.6,0.8
			c-0.2,0.2-0.2,0.4-0.2,0.4c-0.1,0.1-0.4,0.2-0.6,0.2c-0.3,0-0.6,0-0.9,0c-0.3,0-0.6-0.1-0.9-0.2c-0.3-0.1-0.5-0.2-0.6-0.3
			c-0.4-0.2-0.7-0.6-0.8-1.1c-0.1-0.5-0.1-0.9,0-1.4c0.1-0.5,0.2-0.9,0.4-1.4c0.2-0.5,0.4-0.9,0.7-1.4c0.2-0.5,0.5-0.9,0.7-1.3
			c0.2-0.4,0.4-0.9,0.6-1.4c-2,0.6-3.8,1.8-5.2,3.4c-1.5,1.6-2.5,3.4-3.2,5.4c-0.1,0.5-0.3,1.1-0.4,1.7c-0.1,0.7,0,1.2,0.3,1.7
			c0.1,0.2,0.2,0.3,0.5,0.4c0.2,0.1,0.4,0.1,0.7,0c0.2,0,0.5-0.1,0.7-0.1c0.2,0,0.4-0.1,0.6-0.2c0.5-0.1,0.9-0.4,1.4-0.7
			c0.1-0.1,0.2-0.2,0.4-0.3c0.2-0.2,0.3-0.2,0.4-0.2c0.5,0.1,1.1,0.1,1.8,0.1c0.6,0,1.2,0.1,1.6,0.4c0.3,0.2,0.4,0.5,0.5,0.7
			c0.1,0.3,0.1,0.6,0,0.9c-0.1,0.3-0.2,0.6-0.3,0.9c-0.1,0.3-0.3,0.6-0.4,0.8c-0.8,1.1-1.9,1.9-3.2,2.5c-1.1,0.5-2.3,0.7-3.6,0.7
			s-2.4-0.3-3.5-0.9c-1-0.6-1.8-1.3-2.3-2.2c-0.5-0.9-0.8-1.8-0.9-2.8c-0.1-1-0.1-2.1,0.1-3.2c0.2-1.1,0.5-2.2,0.9-3.2
			c0.4-1.1,0.9-2,1.4-3c0.5-0.9,1.1-1.8,1.6-2.5c1-1.2,2.2-2.3,3.4-3.3c1.3-0.9,2.6-1.7,4.1-2.2c0.5-0.2,1-0.4,1.6-0.5
			c0.6-0.1,1.2-0.2,1.8-0.3c0.6,0,1.2,0,1.7,0.1C455.6,139.1,456.1,139.3,456.6,139.7z"/>
		<path class="st1" d="M478.2,139c0.4,0.1,0.9,0.1,1.4,0.2c0.5,0.1,0.8,0.3,1.1,0.6c0.2,0.2,0.4,0.4,0.6,0.7
			c0.2,0.3,0.4,0.6,0.5,0.9c0.1,0.3,0.2,0.6,0.2,0.9c0,0.3-0.1,0.6-0.3,0.9c-0.2,0.2-0.4,0.4-0.7,0.5c-0.3,0.1-0.6,0.2-1,0.3
			c-0.4,0.1-0.7,0.1-1,0.1c-0.3,0-0.6,0-0.9,0.1c-0.7,0.1-1.4,0.1-2.1,0.2c-0.7,0.1-1.4,0.2-2,0.4c-1.5,0.4-2.8,1-4,1.8
			c-1.2,0.8-2.3,1.7-3.2,2.8c-0.4,0.5-0.9,1-1.2,1.6c-0.4,0.6-0.8,1.2-1.1,1.8c-0.3,0.6-0.6,1.3-0.8,1.9c-0.2,0.7-0.3,1.3-0.4,2
			c1.4-0.8,2.7-1.8,3.9-2.9c1.2-1.1,2.4-2.2,3.7-3.3c0.6-0.5,1.2-1.1,1.7-1.6c0.6-0.6,1.1-1.1,1.7-1.7c0,0,0.1-0.1,0.2-0.2
			c0.1-0.1,0.3-0.2,0.4-0.4c0.1-0.1,0.3-0.3,0.4-0.4c0.1-0.1,0.2-0.2,0.2-0.3h0.4c0.5,0,1,0.1,1.5,0.2c0.5,0.1,1,0.3,1.5,0.7
			c0.5,0.4,0.9,0.8,1.1,1.5c0.2,0.6,0.1,1.4-0.4,2.4l-6.1,12.2c-0.9,0-1.7-0.2-2.4-0.4c-0.6-0.2-1.1-0.6-1.5-1
			c-0.4-0.4-0.6-1.1-0.4-1.9l-2.4,1.7c-0.5,0.4-1.1,0.7-1.7,1s-1.2,0.5-1.8,0.5c-0.6,0.1-1.2,0.1-1.8-0.1c-0.6-0.1-1.2-0.4-1.7-0.9
			c-0.6-0.4-1-0.9-1.4-1.5c-0.3-0.6-0.5-1.2-0.6-1.9c-0.1-0.7-0.1-1.4-0.1-2.1c0-0.7,0.2-1.4,0.3-2c0.4-1.5,0.9-2.9,1.7-4.3
			c0.8-1.4,1.6-2.7,2.6-3.9c1-1.2,2.1-2.2,3.3-3.1c1.2-0.9,2.5-1.7,3.8-2.3c1.4-0.6,2.8-1.1,4.3-1.3
			C475.1,139,476.7,138.9,478.2,139z"/>
	</g>
</g>
</svg>
