<svg xmlns="http://www.w3.org/2000/svg" xmlns:xlink="http://www.w3.org/1999/xlink" version="1.1" id="Layer_1" x="0px" y="0px" viewBox="0 0 3000 2403" style="enable-background:new 0 0 3000 2403;" xml:space="preserve">
            <g xmlns="http://www.w3.org/2000/svg">
            <g>
                <path style="fill:#262223;" d="M2200.535,1325.271l0.093-5.932l42.476,0.647c0.31-0.013,4.241-0.233,9.758-2.843    c5.318-2.516,13.243-7.844,20.802-18.922l4.876,3.387c-16.272,23.851-34.618,24.391-35.391,24.391h-0.078L2200.535,1325.271z"/>
            </g>
            <g>
                <line style="fill:#262223;" x1="2194" y1="1279" x2="2194" y2="1312"/>
                <rect x="2191" y="1279" style="fill:#262223;" width="6" height="33"/>
            </g>
            <g>
                <path style="fill:#71616C;" d="M2311.98,1190.82l-3.666-5.535c19.381-12.84,50.918-33.9,53.231-35.892    c0.197-0.189,0.42-0.381,0.699-0.623c2.485-2.142,3.591-3.687,3.283-4.589c-0.134-0.393-1.166-2.455-8.426-4.588    c-7.448-2.19-19.007-3.732-34.356-4.585c-24.867-1.382-44.239,6.88-56.107,14.056c-12.837,7.764-19.791,15.84-19.859,15.921    l-5.055-4.306c0.31-0.363,7.73-8.982,21.479-17.295c12.669-7.661,33.346-16.48,59.912-15.005    c31.053,1.727,46.071,5.941,48.699,13.666c1.906,5.604-3.281,10.074-5.234,11.757c-0.188,0.161-0.342,0.29-0.442,0.388    C2363.859,1156.399,2324.109,1182.785,2311.98,1190.82z"/>
            </g>
            <path style="fill-rule:evenodd;clip-rule:evenodd;fill:#BE4123;" d="M2306.572,1238.217c2.131,0,4.232-0.039,6.304,0.188   l0.59-79.404h-88.896l0.796,134h23.738C2250.428,1263,2275.649,1238.217,2306.572,1238.217z"/>
            <rect x="2327" y="933" style="fill-rule:evenodd;clip-rule:evenodd;fill:#71616C;" width="9" height="333"/>
            <path style="fill-rule:evenodd;clip-rule:evenodd;fill:#BE4123;" d="M2343.527,943.828c0,0,106.1,19.156,113.549,48.774   c0,0,13.76,31.155-34.535,30.542c-48.295-0.613-47.107-1.927-48.223-14.279c-1.113-12.352-19.954-59.848-33.434-64.368   C2340.885,944.498,2338.934,943.194,2343.527,943.828z"/>
            <path style="fill-rule:evenodd;clip-rule:evenodd;fill:#C86146;" d="M2456.416,1011.012c-0.369,0.641-0.754,1.269-1.509,1.527   c-0.808,0.543-1.552,1.385-2.437,1.581c-5.073,1.117-9.424,3.993-14.254,5.681c-3.059,1.001-6.131,1.917-9.412,1.287   c-0.174-0.033-0.414-0.183-0.505-0.116c-2.935,2.148-6.269,0.354-9.349,0.966c-1.515,0.301-2.751-0.935-4.425-0.434   c-2.844,0.851-5.939-0.184-8.743,0.301c-3.249,0.561-5.902-0.566-8.75-1.372c-1.279-0.362-2.513-0.204-3.766,0.03   c-0.73-0.839-1.267-1.983-2.775-1.308c-0.562,0.252-1.275,0.107-1.646-0.548c-0.855-1.516-2.425-1.663-3.863-2.123   c-0.96-0.307-2.209-0.147-2.688-1.404c0.415-1.658,1.438-3.095,0.746-5.078c-0.677-1.936,2.129-1.961,2.581-3.456l-0.012,0.015   c1.258,0.162,1.011-1.543,2.232-1.683c1.819-0.209,1.675-0.938,0.569-2.317c-0.874-1.091-2.196-2.781-1.503-4.078   c0.942-1.76-0.086-4.038,1.764-5.458c0.415-0.318,0.201-1.209-0.576-1.038c-1.77,0.387-1.684-0.907-1.902-1.919   c-0.566-2.625-0.746-5.439-3.699-6.771c-0.427-0.193-0.697-0.654-0.494-1.146c0.592-1.439-0.518-2.367-1.25-3.06   c-2.854-2.698-4.958-5.554-4.828-9.805c0.039-1.274,0.783-2.56,0.338-3.694c-1.248-3.176-1.008-4.576,2.953-5.685   c2.266-0.634,5.298-0.174,7.17-2.375c0.076-0.091,0.489,0.067,0.729,0.157c2.744,1.042,5.857,0.35,8.516,1.938   c2.719,1.626,5.992,1.131,8.938,1.597c2.308,0.365,3.059,2.191,4.915,2.744c3.817,1.137,7.721,2.056,11.379,3.713   c0.895,0.405,1.834,0.649,2.717,1.167c1.013,0.594,2.361,1.253,3.045-0.593c3.297,1.163,5.439,4.271,9.102,5.094   c1.24,0.278,3.363,1.137,4.15,2.944c-0.006,0.538-0.189,1.21,0.332,1.524c2.355,1.423,3.343,3.326,3.046,6.181   c-0.12,1.144,0.813,2.839,2.653,1.873c0.996-0.522,1.451-0.557,1.745,0.552c0.62,2.335,4.175,2.433,4.099,5.352   c-0.005,0.179,0.729,0.475,1.15,0.546c0.804,0.136,1.157,0.456,0.812,1.278c-1.389,3.316,1.497,4.523,3.133,6.346   c0.688,0.385,0.799,0.88,0.869,1.729C2457.982,1004.909,2456.908,1007.911,2456.416,1011.012z"/>
            <path style="fill-rule:evenodd;clip-rule:evenodd;fill:#262223;" d="M2344.416,1167.744c-0.186,0.184-0.373,0.367-0.559,0.552   c-3.659,0.666-6.098,3.335-8.74,5.558c-1.062,0.895-1.006,2.641-0.998,4.134c0.047,7.46,0.295,14.924,0.32,22.375   c0.029,8.429-0.443,16.876-0.242,25.31c0.113,4.778,0.062,9.542-0.033,14.313c-0.033,1.634,0.11,2.657-2.172,1.513   c-2.099-1.051-2.976-2.201-2.953-4.563c0.104-10.751-0.168-21.509,0.137-32.252c0.162-5.681-0.78-11.39,0.626-17.091   c0.481-1.951-0.386-4.291-0.86-6.403c-0.346-1.543-1.344-1.407-2.462-0.556c-1.062,0.807-1.603,2.264-3.118,2.494   c0.266-1.599,0.395-3.168-0.977-4.404c0.934-0.691,1.865-1.382,2.797-2.075c2.469-1.838,3.938-4.066,3.533-7.378   c-0.26-2.131-0.223-4.339,0.432-6.456c1.661-0.17,3.326,0.719,4.987-0.01c-0.029,0.637-0.065,1.274-0.088,1.912   c-0.046,1.291-0.155,2.636,1.312,3.295c1.523,0.685,2.265-0.593,3.277-1.322c1.973-1.423,4.062-2.683,6.061-4.07   c1.32-0.915,2.622-0.153,3.6,0.34c1.206,0.608-0.055,1.317-0.557,1.818C2346.687,1165.825,2344.822,1165.963,2344.416,1167.744z"/>
            <path style="fill-rule:evenodd;clip-rule:evenodd;fill:#262223;" d="M2334.557,1080.673c0,3.805,0.367,7.655-0.094,11.402   c-0.564,4.583,0.441,9.169-0.448,13.708c-0.361,1.849,0.454,3.579,0.587,5.385c0.281,3.849-0.535,7.181-3.867,9.529   c-0.455,0.013-0.908,0.025-1.363,0.038c-0.084-0.901-0.232-1.8-0.242-2.702c-0.016-1.605-0.775-3.567,2.18-3.594   c1.086-0.01,1.787-1.258,1.465-2.519c-0.269-1.048-0.805-1.888-2.15-1.276c-0.523,0.238-1.123,0.323-1.412-0.309   c-0.329-0.718-0.205-1.474,0.384-2.017c1.011-0.935,1.194-1.689-0.108-2.577c-0.77-0.525-0.525-1.536-0.438-2.308   c0.719-6.316-0.721-12.677,0.439-18.992c0.185-1.008-0.287-2.136-0.455-3.209   C2330.764,1079.945,2332.689,1080.601,2334.557,1080.673z"/>
            <path style="fill-rule:evenodd;clip-rule:evenodd;fill:#262223;" d="M2329.225,1160.871c-1.076-2.548-0.551-5.235-0.598-7.854   c-0.093-5.381-0.064-10.768,0.059-16.148c0.056-2.401-0.828-3.013-3.219-3.069c-4.337-0.103-8.533,0.835-12.805,1.118   c-0.633-0.85-1.797-0.045-2.516-0.828c1.266-2.61,3.516-3.461,6.223-3.517c3.004-0.062,6.018-0.295,9.01-0.141   c2.831,0.147,3.76-1.161,3.695-3.719c-0.023-0.906,0.109-1.816,0.17-2.725c1.902-1.366,3.453,0.883,5.26,0.513   c0.021,1.283,0.041,2.567,0.062,3.851c-0.795,0.771-0.207,0.949,0.469,1.091c0.203,0.201,0.408,0.402,0.611,0.602   c0.023,1.078,0.047,2.156,0.068,3.233c-2.132,2.106-0.984,4.944-1.578,7.4c-0.393,1.62,0.285,3.423,0.324,5.098   c0.119,4.998-0.184,10.007-0.321,15.011C2332.496,1160.606,2330.856,1160.523,2329.225,1160.871z"/>
            <path style="fill-rule:evenodd;clip-rule:evenodd;fill:#262223;" d="M2329.031,941.831c-0.037-0.562,0.17-1.185-0.399-1.615   c0.004-1.433,0.008-2.866,0.012-4.299c0.974-0.53,1.991-0.753,3.122-0.763c2.037-0.018,3.162,0.426,2.486,2.861   c-0.328,1.179-0.062,2.524-0.062,3.794C2332.471,941.816,2330.751,941.824,2329.031,941.831z"/>
            <path style="fill-rule:evenodd;clip-rule:evenodd;fill:#0DD3AD;" d="M2315.357,944.301c0,0-27.887,23.513-34.209,60.349   c0,0-2.312,17.019-27.66,16.183c-25.349-0.835-46.297-4.956-46.297-4.956s-9.449-3.443-4.995-19.217   c4.455-15.773,30.093-31.018,54.983-38.36C2282.07,950.956,2314.565,942.449,2315.357,944.301z"/>
            <path style="fill-rule:evenodd;clip-rule:evenodd;fill:#4A2246;" d="M2312.038,944.67c0,0-33.607,28.049-34.21,58.675   c0,0-5.646,18.38,18.412,19.214c24.061,0.833,69.717,2.143,69.717,2.143s16.064-3.778,13.18-24.106   c-2.885-20.328-23.318-54.67-33.088-56.098C2346.049,944.498,2327.063,938.384,2312.038,944.67z"/>
            <path style="fill-rule:evenodd;clip-rule:evenodd;fill:#31152E;" d="M2312.746,994.85c-4.232,0.268-8.463,0.582-12.699,0.774   c-1.363,0.061-1.436,1.476-2.446,1.909c-1.853,0.792-3.633,1.75-5.813,2.822c1.561,0.817,2.846,0.387,4.041,0.541   c0.577,0.074,1.188,0.242,1.279,0.827c0.124,0.79-0.611,0.667-1.117,0.801c-3.453,0.919-6.842,2.014-10.033,3.657   c-1.139,0.586-0.37,1.345-0.232,2.051c0.493,2.522,0.256,4.803-2.096,6.391c-0.625-0.062-1.062-0.32-1.079-1.024   c-0.185-0.93-0.786-1.251-1.678-1.148c-0.146-0.384-0.292-0.768-0.438-1.153c0.287-0.148,0.788-0.26,0.821-0.453   c0.105-0.616-0.451-0.583-0.865-0.645c-0.145-0.538-0.289-1.076-0.435-1.616c0.818-0.054,1.03-0.65,1.126-1.311   c0.375-2.61,2.031-4.591,3.299-6.762c1.828-3.13,1.479-6.818,2.564-10.142c0.077-0.235-0.245-0.656-0.465-0.922   c-0.322-0.389-0.554-0.793-0.158-1.196c1.219-1.241,0.857-2.718,0.897-4.232c0.045-1.68,0.398-3.503,2.607-3.918   c0.755-0.141,1.307-0.723,0.797-1.341c-1.507-1.827,0.294-2.187,1.151-3.049c0.934-0.939,2.66-1.215,2.4-3.209   c-0.12-0.916-1.703-2.956,0.814-2.729c1.944,0.175,0.41-2.313,2.438-2.274c0.971,0.019,3.387-1.348,3.998-2.664   c1.125-2.424,3.045-3.753,4.697-5.538c2.207-2.383,4.939-2.994,7.375-4.43c1.633-0.963,4.073-0.643,4.853,0.904   c0.571,1.133,0.62,1.346,1.666,0.937c0.452-0.178,0.878-0.643,1.44-0.076c1.979,1.999,2.625,0.47,2.744-1.245   c0.148-2.119,1.066-2.935,3.127-2.724c0.568,0.057,1.646,0.212,1.553-0.593c-0.254-2.189,1.292-1.341,2.262-1.588   c1.359-0.346,3.156,0.965,4.078-1.052c0.934-0.297,2.273,0.558,2.771-0.976c1.049-0.079,2.096-0.158,3.144-0.237   c0.187,0.108,0.374,0.214,0.562,0.322c0.158,1.153,0.481,1.953,1.718,0.803c0.356,0.024,0.714,0.05,1.071,0.075   c0,0.354,0,0.708,0,1.063c-0.65,0.098-1.678-0.129-1.457,0.972c0.204,1.019,0.988,0.218,1.516,0.201   c0.354-0.011,0.706-0.053,1.059-0.08c0.67,0.433,1.626,0.58,1.652,1.654c-0.756,1.663-1.335,3.333-0.045,5.156   c-1.777,0.554-2.771-0.558-3.744-1.367c-1.517-1.26-2.941-1.143-4.894-1.034c-3.819,0.212-4.714,3.742-7.312,5.21   c-0.739,0.417-1.012,1.917-0.673,3c0.353,1.133,0.177,1.89-0.878,2.524c-1.627,0.979-0.904-0.775-1.361-1.143   c-1.893-1.527-5.061-0.739-6.36,1.47c-0.843,1.43-2.86,2.651-3.908,2.28c-3.155-1.117-3.672,1.909-5.427,2.86   c-0.595,0.323-0.768,1.421-1.732,1.441c0.199,0.875,0.771,0.878,1.303,0.988c1.22,0.253,1.051,0.804,0.251,1.406   c-1.481,1.112-1.459,2.31,0.228,3.052c0.968,0.426,1.07,1.08,1.15,1.924c0.19,2.031,1.525,2.711,3.26,2.209   c1.158-0.334,2.117-0.128,3.17,0.118c0.716,0.167,1.697,0.24,1.461,1.181c-0.206,0.823-1.129,1.104-2.026,0.911   c-4.063-0.875-5.987,1.086-4.935,5.029c0.172,0.647,0.258,1.358-0.557,1.587c-1.543,0.433-1.52,1.612-1.488,2.83L2312.746,994.85z"/>
            <path style="fill-rule:evenodd;clip-rule:evenodd;fill:#0DBF9D;" d="M2264.48,1001.377c-1.285-0.327-2.438-0.688-2.834,1.044   c-0.204,0.889-1.227,1.352-2.105,1.6c-1.504,0.424-2.75,0.945-2.656,2.865c0.016,0.32-0.516,0.954-0.801,0.958   c-3.346,0.037-6.672,1.233-9.9,0.885c-2.02-0.219-4.078-0.549-6.145-0.665c-1.398-0.08-2.713,0.113-3.931,0.868   c-0.876,0.543-2.026,0.017-2.647,0.165c-2.521,0.602-5.004-0.931-7.387,0.115c-0.686,0.302-1.154,0.396-1.709-0.091   c-0.365-0.319-0.761-0.37-1.26-0.264c-3.973,0.854-7.787-0.643-11.605-0.798c-3.626-0.148-4.014-3.443-6.549-4.343   c-1.047-0.372-0.35-1.389,0.744-1.838c0.934-0.382,4.216-0.601,0.444-2.197c-1.131-0.478-0.513-1.476,0.297-1.839   c2.026-0.908,3.665-2.623,6.131-2.65c3.22-0.036,4.97-2.67,7.132-4.486c1.02-0.855,0.075-1.061-0.697-1.297   c-2.174-0.664-2.258-1.721-0.638-3.253c1.751-1.656,3.796-2.685,5.955-3.713c2.982-1.421,6.06-2.591,8.792-4.719   c2.502-1.949,5.033-4.648,8.844-4.187c0.566,0.069,0.985-0.269,1.449-0.607c1.915-1.394,3.893-2.622,6.396-2.777   c0.822-0.051,1.646-0.486,2.395-1.128c3.562-3.048,7.679-4.943,12.4-5.312c1.799-0.141,2.608-1.919,4.285-2.356   c1.062-0.277,1.92-0.554,2.736,0.274c1.305,1.328,2.498,1.215,3.754-0.082c0.434-0.447,1.037-0.729,1.572-1.075   c1.605-1.038,2.629-0.833,2.514,1.312c-0.09,1.655,0.672,2.029,2.16,1.864c2.014-0.224,2.85,0.825,2.273,2.808   c-0.385,1.321-0.713,2.631-0.59,4.019c0.106,1.178-0.176,2.112-1.343,2.726c-0.519,0.273-1.239,0.937-1.204,1.371   c0.323,4.076-3.025,3.611-5.302,4.261c-2.106,0.603-2.66,1.518-1.382,3.337c0.715,1.017,0.412,1.801-0.414,2.327   c-1.304,0.83-2.184,1.86-2.53,3.381c-0.128,0.565-0.613,0.957-1.204,0.953c-1.742-0.013-2.81,0.664-3.486,2.396   c-0.67,1.711-1.801,0.801-2.454-0.123c-0.89-1.256-1.374-1.193-2.437-0.056c-2.817,3.02-2.168,6.865,1.627,8.614   C2263.73,999.925,2264.401,1000.113,2264.48,1001.377z"/>
            <polygon style="fill-rule:evenodd;clip-rule:evenodd;fill:#BE4123;" points="2167.907,1159.195 2221,1160.125 2221,1293.43    2168.342,1282.002  "/>
            <path style="fill-rule:evenodd;clip-rule:evenodd;fill:#AD371A;" d="M2303.605,1177.999c-0.839,0.698-1.843,0.221-2.615,0.976   c-2.088,2.039-2.146,4.333,0.363,5.979c0.984,0.646,1.621,1.235,1.939,2.297c0.75,2.5,1.551,4.898,1.774,7.605   c0.265,3.231,0.825,6.436-0.026,9.573c-0.902,3.321,0.135,6.755-1.084,10.06c-0.506,1.375-0.591,3.076,0.396,4.546   c0.949,1.413-0.305,2.702-0.582,3.968c-0.364,1.662-0.362,3.991-3.42,3.945c-1.949-0.03-3.772,1.879-6.143,0.371   c0.984,1.451,0.389,2.502-0.686,3.264c-1.805,1.277-2.628,2.994-2.916,5.043c-0.058,0.41-0.228,1.127-0.413,1.147   c-1.637,0.181-1.864,1.497-2.679,2.483c-2.052,2.484-7.02,2.385-8.61,0.277c-1.952-2.588-4.876-3.35-7.446-4.752   c-1.281-0.7-2.201-2.498-4.32-1.627c-0.578,0.238-0.729-0.961-0.573-1.471c0.818-2.682-1.415-3.445-3.048-4.58   c-0.932-0.646-2.506-0.609-2.17-2.458c0.168-0.917-1.031-1.055-1.811-1.19c-0.654-0.113-1.713-0.463-1.5-0.81   c1.142-1.87,0.311-3.894,0.771-5.776c0.094-0.383,0.664-0.879,0.113-1.078c-3.253-1.182-3.375-4.514-4.996-6.776   c-0.797-1.11,0.738-2.95,1.525-4.05c1.286-1.795,3.206-3.29,5.139-4.504c1.366-0.858,0.6-1.019-0.01-1.617   c-2.028-1.996-4.703-1.119-6.383-0.32c-2.711,1.291-4.73-0.105-7.032-0.393c-2.7-0.338-4.024-2.797-6.294-3.85   c-0.93-0.433-0.479-1.481,0.186-1.653c2.988-0.771,2.082-3.456,1.619-4.566c-0.831-1.994-0.831-4.167-1.857-6.085   c-0.438-0.818-1.006-1.394-1.777-1.372c-2.264,0.063-3.85-1.291-5.706-2.119c-0.772-0.344-1.315-0.44-0.932-1.399   c0.812-2.029-2.227-0.164-1.945-1.731c0.212-1.191,1.921-1.508,1.857-2.76c-0.19-3.759,1.433-5.659,5.616-6.051   c2.045-0.191,4.07-0.496,6.039-0.779c2.502-0.36,5.676-0.279,8.066,0.543c2.131,0.733,2.973-0.962,4.574-0.797   c0.846,0.088,1.773-0.246,2.602,0.249c1.482,0.887,2.984,2.152,3.99-0.514c0.08-0.211,0.658-0.417,0.948-0.363   c5.68,1.072,11.388-0.286,17.13,0.24c3.296,0.301,6.868,0.271,10.326-0.312c2.967-0.5,6.047-0.491,9.077-0.495   c1.639-0.001,2.148,1.935,3.546,2.446c1.596,0.582,2.734,1.356,2.283,3.219c-0.019,0.082-0.037,0.207,0.009,0.256   c3.004,3.263-1.123,3.493-2.37,4.758C2302.939,1176.225,2302.718,1176.024,2303.605,1177.999z"/>
            <path style="fill-rule:evenodd;clip-rule:evenodd;fill:#AD371A;" d="M2219.699,1168.595c0.041,1.097,0.082,2.194,0.123,3.292   c-1.113,1.546-0.303,3.306-0.551,4.947c-0.342,0.107-0.965,0.179-0.984,0.326c-0.366,2.862-2.919,3.061-4.816,4.109   c-2.064,1.141-1.658,3.376-1.182,4.896c0.764,2.436,0.054,4.97,1.113,7.437c0.461,1.072,0.793,1.729,2.246,2.279   c-3.008,0.758-1.531,2.803-1.598,4.188c-0.057,1.2,0.775,2.578,1.541,3.646c0.746,1.041,0.528,1.909,0.433,3.022   c-0.198,2.28-0.854,4.461-0.369,6.928c0.327,1.663,0.796,3.532,0.647,5.299c-0.102,1.196-0.032,2.101,0.877,2.915   c0.629,0.562,0.689,1.739,0.305,1.992c-2.363,1.555-0.756,3.662-1.068,5.49c-1.098,6.385,0.275,12.876-1.11,19.203   c-0.185,0.852-0.216,1.586,0.091,2.37c0.842,2.147,0.42,3.677-1.029,5.769c-1.519,2.19-3.039,4.744-3.805,7.444   c-0.359,1.263-0.805,1.701-2.075,2.005c-3.601,0.863-7.335-0.302-10.917,0.991c-2.174,0.784-4.236-1.325-6.619-0.642   c-0.748,0.214-1.545,0.108-2.385,0.587c-2.143,1.218-3.334-1.489-5.321-1.572c-1.161-0.048-2.313-0.947-3.419-1.556   c-1.945-1.072-3.348-2.31-2.202-4.932c0.573-1.312,2.239-3.186-0.671-4.137c-0.414-0.135-0.238-0.707,0.027-0.924   c1.424-1.154,0.863-2.84,1.271-4.26c1.296-4.512-1.025-7.442-3.888-10.321c-0.585-0.589-0.946-1.618-0.999-2.47   c-0.079-1.266-0.592-1.848-1.707-2.416c-2.086-1.061-1.887-3.041-1.09-4.746c0.498-1.066,1.428-1.459-0.436-2.229   c-1.157-0.479,0.33-2.469-0.597-3.674c-0.278-0.359-0.112-1.061-0.149-1.607c0.002-0.349,0.004-0.697,0.006-1.047   c0.547-0.33,0.594-0.855,0.542-1.412c-0.239-2.559-0.667-5.236,0.317-7.609c1.031-2.486-1.02-3.85-1.396-5.777   c-0.169-1.273-0.337-2.545-0.505-3.818c2.115-1.124,1.08-3.355,1.422-4.961c0.359-1.684-0.123-3.78-0.413-5.667   c-0.264-1.713-1.192-4.087,0.337-5.982c0.466-0.578,0.164-1.216-0.272-1.739c-0.435-0.521-0.763-1.18-0.464-1.763   c1.192-2.327-0.06-4.808,0.561-7.165c0.653-2.484,2.582-3.774,4.549-5.025c0.682-0.434,1.492-0.66,2.23-1.007   c1.398-0.657,2.348-1.227,3.233,1.035c1.009,2.575,4.067,2.365,6.524,3.189c-1.695-2.059-0.951-3.35,0.98-4.292   c0.416-0.203,0.861-0.324,0.938-0.861c0.452-3.207,2.756-4.072,5.48-4.06c3.996,0.018,7.949,0.518,11.695,2.045   c0.402,0.165,0.902,0.689,1.186,0.268c2.512-3.737,5.437-0.593,8.168-0.554C2216.654,1166.071,2217.864,1167.957,2219.699,1168.595   z"/>
            <circle style="fill-rule:evenodd;clip-rule:evenodd;fill:#0DD3AD;" cx="2313.581" cy="1301.793" r="57.528">
                <animateTransform attributeType="xml" attributeName="transform" type="rotate" from="0" to="360" begin="0" dur="5s" repeatCount="indefinite" />
            </circle>
            
            <circle style="fill-rule:evenodd;clip-rule:evenodd;fill:#4F2747;" cx="2313.443" cy="1301.793" r="50.381"/>
            <path style="fill-rule:evenodd;clip-rule:evenodd;fill:#31152E;" d="M2330.385,1261.47c6.454,2.145,10.152,7.075,13.617,12.597   c1.676,2.667,3.611,5.16,4.686,8.142c1.605,4.456,3.616,8.771,3.763,13.684c0.11,3.703,0.683,7.327-0.831,10.952   c-0.807,1.934,0.492,4.07-0.107,6.327c-0.51,1.922-1.518,3.399-2.271,5.097c-1.009,2.274-1.53,4.705-2.964,6.872   c-1.953,2.953-3.95,6.248-6.699,8.002c-3.525,2.246-6.66,5.713-11.32,5.933c-1.453-0.052-2.861,0.05-3.987,1.14   c-0.424-0.024-0.847-0.048-1.272-0.073c-1.854-0.439-3.697-0.931-5.563-1.303c-3.772-0.752-4.011-5.057-6.83-6.781   c-0.188-0.114-0.04-1.051,0.173-1.498c0.602-1.261,2.77-2.384,0.056-3.782c-0.443-0.229,0.184-0.96,0.683-1.222   c2.57-1.355,4.532-2.45,4.066-6.415c-0.33-2.81-0.999-5.808-0.689-8.767c0.041-0.383-0.258-0.946-0.578-1.194   c-1.613-1.25-2.479-2.909-3.256-4.769c-0.654-1.566-1.839-2.898-4.002-2.424c-1.569,0.345-2.527-0.863-3.398-1.831   c-2.069-2.3-3.875-4.859-6.688-6.374c-0.594-0.32-0.533-0.892-0.568-1.425c-0.106-1.575-0.926-2.854-1.515-4.256   c-0.564-1.345-2.399-2.737-1.358-4.262c1.059-1.548,2.957-3.337,4.293-3.636c1.92-0.432,1.719-1.384,1.578-2.295   c-0.23-1.488,0.008-2.555,1.227-3.488c0.354-0.27,0.48-0.971,0.52-1.488c0.109-1.411,4.729-6.91,6.077-6.88   c4.283,0.095,7.526-2.401,10.999-4.292c1.005-0.547,2.826-0.066,2.865-2.012c0.334,0.017,0.669,0.033,1.004,0.051   c0.299,0.669,0.825,0.739,1.449,0.556c0.095-0.098,0.188-0.097,0.281,0.004c0.075,0.145,0.151,0.287,0.227,0.431   c0.084-0.139,0.166-0.276,0.248-0.415c0.106-0.09,0.221-0.104,0.344-0.04c0.646-0.103,1.242,2.557,1.93,0.036   c1.114-0.415,1.879,0.279,2.683,0.847C2329.458,1262.068,2329.773,1262.431,2330.385,1261.47z"/>
            <circle style="fill-rule:evenodd;clip-rule:evenodd;fill:#4F2747;" cx="2194.152" cy="1326.791" r="30.316"/>
            <circle style="fill-rule:evenodd;clip-rule:evenodd;fill:#0DD3AD;" cx="2194.156" cy="1326.715" r="24.414"/>
            <path style="fill-rule:evenodd;clip-rule:evenodd;fill:#0DBF9D;" d="M2202.365,1307.176c3.127,1.039,4.92,3.428,6.6,6.104   c0.811,1.292,1.75,2.501,2.27,3.945c0.777,2.159,1.752,4.25,1.824,6.631c0.053,1.795,0.33,3.551-0.403,5.308   c-0.392,0.937,0.237,1.972-0.052,3.065c-0.248,0.932-0.734,1.646-1.101,2.471c-0.489,1.102-0.741,2.279-1.437,3.329   c-0.947,1.432-1.912,3.028-3.246,3.878c-1.709,1.088-3.228,2.769-5.484,2.875c-0.705-0.025-1.388,0.024-1.934,0.551   c-0.205-0.011-0.41-0.021-0.616-0.035c-0.899-0.212-1.791-0.451-2.696-0.631c-1.828-0.363-1.943-2.45-3.31-3.286   c-0.092-0.055-0.021-0.508,0.084-0.726c0.292-0.61,1.343-1.154,0.026-1.832c-0.215-0.111,0.09-0.465,0.331-0.592   c1.245-0.658,2.196-1.188,1.972-3.108c-0.16-1.362-0.484-2.815-0.334-4.249c0.019-0.185-0.126-0.459-0.281-0.579   c-0.781-0.605-1.201-1.409-1.578-2.311c-0.316-0.759-0.891-1.404-1.939-1.175c-0.76,0.166-1.225-0.418-1.646-0.887   c-1.003-1.114-1.877-2.355-3.24-3.089c-0.287-0.155-0.259-0.433-0.275-0.69c-0.053-0.764-0.448-1.383-0.734-2.062   c-0.273-0.652-1.162-1.327-0.657-2.066c0.513-0.75,1.433-1.616,2.081-1.762c0.929-0.209,0.832-0.67,0.764-1.112   c-0.111-0.721,0.003-1.237,0.594-1.689c0.172-0.131,0.232-0.471,0.252-0.722c0.053-0.685,2.292-3.349,2.945-3.334   c2.075,0.047,3.646-1.163,5.33-2.079c0.486-0.266,1.369-0.033,1.389-0.976c0.162,0.009,0.322,0.017,0.486,0.024   c0.143,0.325,0.399,0.358,0.702,0.27c0.045-0.048,0.091-0.047,0.136,0.002c0.037,0.07,0.074,0.139,0.11,0.209   c0.04-0.066,0.079-0.134,0.12-0.201c0.051-0.044,0.106-0.05,0.168-0.02c0.312-0.049,0.6,1.239,0.934,0.018   c0.539-0.201,0.91,0.135,1.299,0.41C2201.916,1307.466,2202.069,1307.642,2202.365,1307.176z"/>
            </g>
        </svg>