<?xml version="1.0" encoding="iso-8859-1"?>
<!-- Generator: Adobe Illustrator 18.0.0, SVG Export Plug-In . SVG Version: 6.00 Build 0)  -->
<!DOCTYPE svg PUBLIC "-//W3C//DTD SVG 1.1//EN" "http://www.w3.org/Graphics/SVG/1.1/DTD/svg11.dtd">
<svg version="1.1" id="Layer_1" xmlns="http://www.w3.org/2000/svg" xmlns:xlink="http://www.w3.org/1999/xlink" x="0px" y="0px"
     viewBox="0 0 3000 2403" style="enable-background:new 0 0 3000 2403;" xml:space="preserve">
<path style="fill-rule:evenodd;clip-rule:evenodd;fill:none;stroke:#FFFFFF;stroke-width:3;stroke-miterlimit:10;" d="
    M2318.258,1357.108c0,0-227.648-1.234-285.567,2.213s-133.978,6.366-200.221,0s-85.872,3.758-85.872,3.758
    s-117.767,18.073-137.395,10.108c-19.627-7.965-66.244-1.849-85.871,0c-19.628,1.849-188.917-12.355-203.638-16.294
    c-14.722-3.938-115.313-7.952-127.581-4.719s-95.687,6.152-107.953,7.146s-88.325,1.664-122.674,3.782
    c-34.348,2.119-83.417-4.776-90.777-3.782c-7.361,0.994-149.662,1.664-164.383,3.782"/>
</svg>
