<?xml version="1.0" encoding="utf-8"?>
<!-- Generator: Adobe Illustrator 18.0.0, SVG Export Plug-In . SVG Version: 6.00 Build 0)  -->
<!DOCTYPE svg PUBLIC "-//W3C//DTD SVG 1.1//EN" "http://www.w3.org/Graphics/SVG/1.1/DTD/svg11.dtd">
<svg version="1.1" id="Layer_1" xmlns="http://www.w3.org/2000/svg" xmlns:xlink="http://www.w3.org/1999/xlink" x="0px" y="0px"
	 viewBox="0 302.4 612 187" enable-background="new 0 302.4 612 187" xml:space="preserve">
<g id="BOTON_ENTRAR">
	<path fill="#4F2747" d="M53.6,314.5c0,0,10.4,2.7,13.3,0.5c2.9-2.2,12.4-5,12.4-5l3.4,1.1l2.2-0.9l7.2,4h5.1l348.3-0.9l-8.6-3.5
		l17-2.7l-2.6-2.4l10.5,0.2l-3-2.6l23.6,0.1l22.2-0.1l-14.2,2.4l14.2,1.2l-12.8,1.2l12.8,1.9l-9.6,0.7l11.5,2.4l5.6-3.4l8.2,4.1
		l14.6,1.6l-6.4,1.2l6.4,1.7l-6.4-0.2l11.8,2.4l-12.8,2.9l12.8,1.6l-11.5,1.7l1.9,4.2l4.6,0.8l14.4,4.8h26.9l-8.7,2.5
		c0,0,1.6-0.2,6.2,3.1c4.6,3.3,14.9,4.1,18,4.2c3,0.1,6.5,6.4,11.6,6.4c5.1-0.1,6.9,3.1,6.9,3.1l1.4,3.7h-5.1l5.1,2.6l-6.4,1.6
		l4.3,0.6l-2.7,2.9c0,0-1.1,2.2-0.9,4.3c0.1,2.2-2.2,3.4-2.2,3.4s-0.3-0.4-0.4,2.6c-0.1,2.9-6.7,4.3-6.7,4.3l-0.2,2.3l-1.9,1.1
		c0,0-5.1-0.2-7.9,0s-4,0.5-6,0.9c-2,0.4-10.4-0.1-13.3,0.1s-9.2,4.7-9.2,4.7s2.4,0.9,6.1-0.1c3.8-1,12.8-2.9,12.6-3.5
		c-0.2-0.6-1.9-1.3,4-0.1c5.8,1.1,8.3,0.2,10.7,0.6c2.4,0.4,6.5,0.9,6.5,0.9l-19.3,2.6l-5.9,2.6l-1.1,2l-2-0.1l1.4,3.5l0.6,1.5
		l-1.2,2.1c0,0,8.7-2.6,11.3-1.5c2.6,1.1,5.4,3.1,5.4,3.1l4.8,3.6h2.3h1.4l-2.4,3.1l-0.2,3.1l0.6,3.1h-2.9l-0.6,0.9l-4.8,2.4
		l-3.6,0.7l5.2,1.1l-2.9,3.2l0.3,4.1l1.9,3.5l-3.6,2.6h-3.3l-4.3,0.6c0,0-0.5-1.1-4.2,1.4c-3.7,2.6-6.8,4.6-6.8,4.6l-3,3.4l-4.6,0.8
		l-1.9,0.6l6.6,1.4l5.8-0.9l4.4-1.5c0,0,5,1.6,5.7,1.1c0.7-0.6,3.6-0.8,3.6-0.8l2.6,2.1l-14,2.8l-2.4,0.6l-2.1,2.2l2.9,3.6h2.7
		l-1.3,0.4l-3.4,0.9l-2.4,1l-4.3,0.1c0,0-2.2-0.4-1.1,0.9c1.1,1.3,3.7,0,3.7,0l-1.6,2.4l-1.5,1.6l1.4,3.1l-0.2,1.4l-12.4,3.3l-4,3.5
		c0,0-1.6-0.4-3.3,0.2c-1.7,0.6-5.3,2.7-5.3,2.7l-1.6,1.6l15.7-2.3l5.6-0.5l3.2,0.5l-13.6,2.1l-5,2.4l-3,1.6c0,0-8.2,0.1-9.3,0.6
		c-1.1,0.4-7.2,0.6-7.2,0.6s-7.2-1.9-9.3-2.1c-2.1-0.1-19-0.3-19-0.3l-9.6,6.7l-10.3,0.4l-4.6-1.2l-7.4-1.6l-7.3-1.5l-15.6,1.2
		c0,0-1-0.2-3.4-0.2c-2.4,0-15,0.9-15,0.9l-7.6,0.1l-6.3,1.4l4.8-4.8h-59.4l-10.8,5l-5.8-0.6l-2.6,0.4l1.6-3.6l-13.4-1.1l-11,2.6
		l1.2-3.1l-28.1-1.1l3.8-1.2l-52.2,1.2l-13.2,6.3l-8.4-0.8l-5.8,0.5l6.4-3.4l-25.2,1.6l-14.6-0.5l-11.1,1l-15.8,0.5l6.7-3.9
		l-34.8,0.1h-13l-26.9-2.7l3.9-5.4l-9.6-2.4l5.3-1.5l4.5-0.9l2.5-1v-2.5l-3.3-0.3l-5.2-3l-18-2.9l-12.5-3.8l-4.3-1
		c0,0-1.1-1.2-2.2-1.1c-1.1,0.1-3.5-0.6-3.5-0.6s-4.7-3.5-9.3-4.2s-8.3,0-8.3,0l-6.4-3.6c0,0-2.1-2.7-4.8-3.3
		c-2.6-0.6-3.2-2.4-4.8-2.8s-1.2-0.4-0.9-3c0.4-2.6-0.3-4.8,0.7-5.7s0.9-4.1,0.9-4.1l1.7-2.5c0,0,2.3-2.5,2.2-3.5
		c-0.1-1,0.3-1.8,1.1-2.9c0.9-1.1,4.3-2.6,4.3-2.6l1.9-3.7c0,0,3.1-2,5.3-1.4c2.2,0.6,6.2,0.1,8.3-0.3c2.1-0.4,7.6-1.5,7.6-1.5
		s2.8,0.1,3.1,0.6c0.4,0.5,6.5,0.9,6.5,0.9s6.5-1.4,7.3-3.4c0.8-2,0.4-3.6,0.4-3.6l-4.8,0.2c0,0-2.7,1-4.3,1.6s-2.9-2.6-5.7-1.4
		c-2.8,1.2-6.3,1.9-6.3,1.9l-7.8,1.6l-7.1,0.7l-7.9,0.3l-2.1-1.4l20.1-3.2l4.8-0.4l3.5-1.6l3.9-1.3l1.1-1.4l0.1-2.9l-0.2-1.3
		l-3.1-0.1l-3-0.2c0,0-6.2,1.6-7.6-0.9c-1.4-2.5-3.1-4.4-3.1-4.4l-2.1-0.6l-3-2.9c0,0-0.6-1.2-0.5-2.8c0.1-1.6-1.1-2.7,0.1-3.6
		s4.7-1.8,4.7-1.8l1.9-1.2c0,0,3.6,1.3,4.6,1c0.9-0.4,2.6-2.3,2.6-2.3l-3.1-0.4l-3.6-1.3l2.6-4l-2.3-4.5l-0.6-1.5l4.9-1.9l4.3,0.5
		l1.9-1.6l4.2-1.8l4.3-1.9c0,0,4.3-6.9,4.6-6.7c0.2,0.2,4,1.4,3.8,0c-0.1-1.4,3.8-1.3,3.8-1.3l1.3-0.1l-9-2.6l-4.8,1.4l-3.9-1.3
		l-4.3,2.4l-4.3-0.1l-2.5-2.5l13.6-2.1l3.4-1.5l-3.1-5.2l7.4-1.4l2.7-1.1l-2.5-0.4l2.8-2.9l-1.1-1.4l-1.1-2.5c0,0,6.1,0,6.6-0.2
		c0.4-0.2,2.5-1.9,3.8-2.4c1.4-0.6,3.8-1.1,4.6-1.8c0.9-0.7,1.7-1.3,1.7-1.3l5.8-2.4l-0.6-2.4c0,0-7.1,0.4-7.2,0.4
		c-0.1,0-5,0.6-5,0.6l-1.6-0.1H56L53.6,314.5z"/>
</g>
<g id="TEXTO_BOTON_ENTRAR" enable-background="new    ">
	<path fill="#FFD44A" d="M99.8,436.4c-1.4-2.6-2-4.9-2-7c0-0.9,0.2-1.7,0.5-2.6c0.3-0.8,0.9-1.6,1.6-2.2s1.8-1.2,3.2-1.6
		c1.3-0.4,3-0.6,5.1-0.6h3.2c-1.2-0.8-2-2.2-2.2-4.1c-0.2-1.9,0.5-4.7,2.2-8.3l18.9-39.6H125c-1.4-2.6-2-4.9-2-7
		c0-0.9,0.2-1.7,0.5-2.6c0.3-0.8,0.9-1.6,1.6-2.2c0.8-0.7,1.8-1.2,3.2-1.6c1.3-0.4,3-0.6,5.1-0.6h44.4c1.5,2.6,2.3,4.9,2.4,7
		c0,0.9-0.1,1.7-0.4,2.6c-0.3,0.8-0.8,1.6-1.6,2.2c-0.8,0.7-1.9,1.2-3.3,1.6c-1.4,0.4-3.2,0.6-5.4,0.6h-27.2c0.5,1.1,0.7,2.4,0.6,4
		c-0.1,1.6-0.8,3.7-2,6.2l-5,10.4H156c0.7,2.6,1,4.9,1.1,7c0,1.7-0.3,3.3-0.9,4.8c-0.6,1.5-1.9,2.2-4,2.2H132
		c-0.1-0.4-0.3-0.8-0.3-1.2c-0.1-0.6-0.3-1.6-0.4-2.9l-10.6,21.6h32c1.5,2.6,2.3,4.9,2.4,7c0,0.9-0.1,1.7-0.4,2.6
		c-0.3,0.8-0.8,1.6-1.6,2.2s-1.8,1.2-3.2,1.6c-1.4,0.4-3.2,0.6-5.3,0.6H99.8z"/>
	<path fill="#FFD44A" d="M175.1,435.9c-0.8-0.3-1.5-0.8-2.1-1.5c-0.6-0.7-1-1.6-1.1-2.8c-0.2-1.2-0.1-2.6,0.3-4.3
		c0.4-1.7,1.1-3.7,2.3-6.1l23.2-48.7c0.4-0.1,0.9-0.1,1.4-0.2c0.8-0.1,1.9,0,3.2,0.2l-1.2-12.8c2.4-2.1,4.6-3.2,6.7-3.4
		c0.9-0.1,1.7,0.1,2.6,0.4c0.9,0.4,1.7,1.1,2.5,2.1c0.8,1,1.4,2.4,2,4.3c0.5,1.8,1,4.1,1.3,7l3.3,34.5l23.8-49.6
		c3.1-0.6,5.6-0.4,7.5,0.4c0.8,0.4,1.5,1,2,1.8s0.9,1.8,1,3.1s-0.1,2.9-0.6,4.9c-0.5,2-1.4,4.3-2.7,7L222,431.6v0.2
		c-2.4,2.4-4.6,3.7-6.7,4c-0.9,0.1-1.7,0.1-2.6-0.3c-0.9-0.3-1.7-1-2.5-2.1c-0.8-1.1-1.4-2.5-2-4.4c-0.5-1.9-1-4.3-1.3-7.3
		l-2.8-30.3l-21.6,44.7C179.5,436.8,177,436.7,175.1,435.9z"/>
	<path fill="#FFD44A" d="M262,435.9c-0.8-0.3-1.5-0.8-2.1-1.5c-0.6-0.7-0.9-1.7-1.1-2.9c-0.1-1.2,0-2.8,0.4-4.6s1.3-4.1,2.5-6.7
		l24-49.6h-21.6c-1.5-2.6-2.3-4.9-2.2-7c0-0.9,0.2-1.7,0.5-2.6c0.4-0.8,1-1.6,1.9-2.2c0.9-0.7,2.1-1.2,3.6-1.6
		c1.5-0.4,3.4-0.6,5.7-0.6h49.9c1.7,2.6,2.7,4.9,2.7,7c0,0.9-0.2,1.7-0.5,2.6c-0.3,0.8-0.9,1.6-1.8,2.2c-0.9,0.7-2.1,1.2-3.7,1.6
		c-1.6,0.4-3.6,0.6-6.1,0.6h-17.1c0.5,1.2,0.7,2.8,0.4,4.8s-1.1,4.5-2.5,7.6l-25.5,53C266.5,436.7,263.9,436.7,262,435.9z"/>
	<path fill="#FFD44A" d="M324.4,435.9c-3.2,0.8-5.7,0.8-7.6,0c-0.8-0.3-1.5-0.8-2.1-1.5c-0.6-0.7-0.9-1.7-1-2.9
		c-0.1-1.2,0.1-2.8,0.5-4.6c0.4-1.9,1.3-4.1,2.6-6.7l23.8-49.6h-6.8c-1-0.9-1.9-2.1-2.7-3.6c-0.8-1.5-1-2.9-0.7-4.4
		c0.4-1.7,1.5-3,3.2-3.9c1.7-0.8,3.6-1.4,5.7-1.7c2.1-0.3,4.2-0.5,6.3-0.4c2.1,0,3.8,0.1,5,0.1c2,0,4.1,0,6.2-0.1
		c2.1-0.1,4.2,0,6.3,0.1c2.1,0.1,4.1,0.5,6.1,0.9c2,0.5,3.9,1.3,5.7,2.5c3.1,1.8,5.6,4.3,7.4,7.5c1.8,3.2,2.7,6.6,2.7,10.3
		c-0.1,3.5-1.1,6.8-3,9.9c-1.9,3.1-4.2,5.7-7.1,7.9c-2.9,2-6.1,3.6-9.5,4.6c-3.4,1.1-6.9,1.8-10.4,2.2l12.9,29.1
		c-1.8,2.1-3.7,3.6-5.6,4.5c-1.6,0.8-3.3,1-5,0.6c-1.7-0.4-3.3-2.1-4.7-5.1L340,403.5L324.4,435.9z M352,370.4
		c0.6,1.2,0.8,2.8,0.5,4.8c-0.2,2-1.1,4.5-2.7,7.6l-3.8,8c0.6-0.3,1.1-0.5,1.6-0.6c0.5-0.1,1-0.2,1.5-0.4c1.5-0.5,3.1-0.9,4.8-1.2
		c1.7-0.3,3.3-0.7,5-1.2c1.2-0.3,2.5-0.7,4-1.4c1.5-0.6,2.9-1.4,4.1-2.4c1.3-1,2.3-2.1,3-3.4c0.7-1.3,0.9-2.7,0.7-4.4
		c-0.4-1.8-1.3-3.1-2.7-3.9c-1.5-0.8-3.1-1.3-5-1.5c-1.9-0.2-3.8-0.3-5.8-0.2c-2,0.1-3.6,0.2-5,0.2H352z"/>
	<path fill="#FFD44A" d="M380.8,436.4c-1.4-2.6-2-4.9-2-7c0-0.9,0.2-1.7,0.5-2.6c0.3-0.8,0.9-1.6,1.6-2.2c0.8-0.7,1.8-1.2,3.2-1.6
		c1.3-0.4,3-0.6,5.1-0.6h3.2c-1.2-0.8-2-2.2-2.2-4.1c-0.2-1.9,0.5-4.7,2.2-8.3l18.9-39.6H406c-1.4-2.6-2-4.9-2-7
		c0-0.9,0.2-1.7,0.5-2.6c0.3-0.8,0.9-1.6,1.6-2.2c0.8-0.7,1.8-1.2,3.2-1.6c1.3-0.4,3-0.6,5.1-0.6h44.4c1.5,2.6,2.3,4.9,2.4,7
		c0,0.9-0.1,1.7-0.4,2.6c-0.3,0.8-0.8,1.6-1.6,2.2c-0.8,0.7-1.9,1.2-3.3,1.6c-1.4,0.4-3.2,0.6-5.4,0.6h-27.2c0.5,1.1,0.7,2.4,0.6,4
		c-0.1,1.6-0.8,3.7-2,6.2l-5,10.4H437c0.7,2.6,1,4.9,1.1,7c0,1.7-0.3,3.3-0.9,4.8c-0.6,1.5-1.9,2.2-4,2.2H413
		c-0.1-0.4-0.3-0.8-0.3-1.2c-0.1-0.6-0.3-1.6-0.4-2.9l-10.6,21.6h32c1.5,2.6,2.3,4.9,2.4,7c0,0.9-0.1,1.7-0.4,2.6
		c-0.3,0.8-0.8,1.6-1.6,2.2s-1.8,1.2-3.2,1.6c-1.4,0.4-3.2,0.6-5.3,0.6H380.8z"/>
	<path fill="#FFD44A" d="M463.5,435.9c-3.2,0.8-5.7,0.8-7.6,0c-0.8-0.3-1.5-0.8-2.1-1.5c-0.6-0.7-0.9-1.7-1-2.9
		c-0.1-1.2,0.1-2.8,0.5-4.6c0.4-1.9,1.3-4.1,2.6-6.7l23.8-49.6h-6.8c-1-0.9-1.9-2.1-2.7-3.6c-0.8-1.5-1-2.9-0.7-4.4
		c0.4-1.7,1.5-3,3.2-3.9c1.7-0.8,3.6-1.4,5.7-1.7c2.1-0.3,4.2-0.5,6.3-0.4c2.1,0,3.8,0.1,5,0.1c2,0,4.1,0,6.2-0.1
		c2.1-0.1,4.2,0,6.3,0.1c2.1,0.1,4.1,0.5,6.1,0.9c2,0.5,3.9,1.3,5.7,2.5c3.1,1.8,5.6,4.3,7.4,7.5c1.8,3.2,2.7,6.6,2.7,10.3
		c-0.1,3.5-1.1,6.8-3,9.9c-1.9,3.1-4.2,5.7-7.1,7.9c-2.9,2-6.1,3.6-9.5,4.6c-3.4,1.1-6.9,1.8-10.4,2.2l12.9,29.1
		c-1.8,2.1-3.7,3.6-5.6,4.5c-1.6,0.8-3.3,1-5,0.6c-1.7-0.4-3.3-2.1-4.7-5.1l-12.5-27.9L463.5,435.9z M491.1,370.4
		c0.6,1.2,0.8,2.8,0.5,4.8c-0.2,2-1.1,4.5-2.7,7.6l-3.8,8c0.6-0.3,1.1-0.5,1.6-0.6c0.5-0.1,1-0.2,1.5-0.4c1.5-0.5,3.1-0.9,4.8-1.2
		c1.7-0.3,3.3-0.7,5-1.2c1.2-0.3,2.5-0.7,4-1.4c1.5-0.6,2.9-1.4,4.1-2.4c1.3-1,2.3-2.1,3-3.4c0.7-1.3,0.9-2.7,0.7-4.4
		c-0.4-1.8-1.3-3.1-2.7-3.9c-1.5-0.8-3.1-1.3-5-1.5c-1.9-0.2-3.8-0.3-5.8-0.2c-2,0.1-3.6,0.2-5,0.2H491.1z"/>
</g>
</svg>
