<?xml version="1.0" encoding="utf-8"?>
<!-- Generator: Adobe Illustrator 18.0.0, SVG Export Plug-In . SVG Version: 6.00 Build 0)  -->
<!DOCTYPE svg PUBLIC "-//W3C//DTD SVG 1.1//EN" "http://www.w3.org/Graphics/SVG/1.1/DTD/svg11.dtd">
<svg version="1.1" id="Layer_1" xmlns="http://www.w3.org/2000/svg" xmlns:xlink="http://www.w3.org/1999/xlink" x="0px" y="0px"
	 viewBox="0 0 1185.2 262.6" enable-background="new 0 0 1185.2 262.6" xml:space="preserve">
	<g id="BOTON_ENTRAR">
	<path fill-rule="evenodd" clip-rule="evenodd" fill="#4F2747" d="M103.9,16.9c0,0,20.1,3.8,25.7,0.7c5.6-3.1,24-7,24-7l6.5,1.6
		l4.2-1.2l13.9,5.6h9.9l674.5-1.2l-16.7-4.9l32.9-3.8l-5.1-3.3l20.2,0.3L888.1,0l45.7,0.2l43-0.2l-27.5,3.4l27.5,1.7L952,6.9
		l24.8,2.6l-18.5,1l22.2,3.3L991.3,9l15.9,5.7l28.3,2.2l-12.5,1.7l12.5,2.4l-12.4-0.3l22.9,3.4l-24.7,4.1l24.7,2.3l-22.2,2.4
		l3.7,5.9l8.9,1.1l27.9,6.7h52.2l-16.9,3.4c0,0,3.2-0.3,12,4.3c8.8,4.6,28.9,5.7,34.7,5.9c5.9,0.2,12.6,9,22.6,9
		c10-0.1,13.4,4.3,13.4,4.3l2.7,5.2h-9.9l9.9,3.6l-12.4,2.2l8.4,0.8l-5.2,4.1c0,0-2,3.1-1.7,6.1c0.3,3.1-4.3,4.8-4.3,4.8
		s-0.6-0.5-0.8,3.6c-0.2,4.1-12.9,6-12.9,6l-0.4,3.2l-3.7,1.6c0,0-9.8-0.3-15.3,0s-7.7,0.7-11.7,1.3c-3.9,0.6-20.1-0.1-25.7,0.2
		c-5.6,0.3-17.8,6.6-17.8,6.6s4.5,1.2,11.9-0.2c7.4-1.4,24.9-4,24.5-4.9c-0.4-0.9-3.6-1.8,7.7-0.2c11.3,1.6,16.1,0.3,20.7,0.8
		c4.6,0.5,12.5,1.2,12.5,1.2l-37.4,3.6l-11.5,3.6l-2.1,2.8l-3.9-0.2l2.6,4.9l1.3,2.1l-2.3,3c0,0,16.8-3.6,21.9-2.1
		s10.4,4.4,10.4,4.4l9.4,5.1h4.4h2.7l-4.5,4.4l-0.4,4.3l1.1,4.3h-5.7l-1.1,1.3l-9.2,3.4l-7,1l10.1,1.5l-5.5,4.5l0.5,5.7l3.7,4.9
		l-6.9,3.6h-6.4l-8.3,0.8c0,0-0.9-1.5-8.1,2c-7.1,3.6-13.1,6.5-13.1,6.5l-5.8,4.8l-9,1.1l-3.7,0.9l12.6,1.9l11.3-1.3l8.5-2.1
		c0,0,9.6,2.3,11,1.5c1.4-0.8,6.9-1.1,6.9-1.1l4.9,2.9l-27.1,3.9l-4.7,0.9l-4.2,3.1l5.6,5h5.3l-2.5,0.6l-6.6,1.2l-4.6,1.4l-8.3,0.2
		c0,0-4.3-0.6-2.1,1.2c2.2,1.8,7.1,0,7.1,0l-3.1,3.4l-2.9,2.3l2.7,4.4l-0.4,1.9l-24,4.6l-7.7,4.9c0,0-3-0.6-6.3,0.3
		c-3.3,0.9-10.2,3.8-10.2,3.8l-3.1,2.3l30.4-3.2l11-0.7l6.2,0.7l-26.4,3l-9.7,3.3l-5.7,2.2c0,0-15.8,0.2-18,0.8
		c-2.2,0.6-13.9,0.8-13.9,0.8s-14-2.7-18.1-3c-4.1-0.2-36.8-0.4-36.8-0.4L934,262l-19.8,0.6l-9-1.7l-14.3-2.2l-14.2-2.1l-30.2,1.7
		c0,0-2-0.3-6.6-0.3c-4.6,0-29,1.3-29,1.3l-14.6,0.1l-12.3,1.9l9.4-6.8H678.2l-20.8,7l-11.4-0.8l-5.1,0.5l3-5l-25.9-1.6l-21.3,3.7
		l2.4-4.3l-54.4-1.5l7.4-1.7l-101.2,1.7l-25.5,8.8l-16.3-1.1l-11.1,0.7l12.4-4.7l-48.7,2.2l-28.3-0.7l-21.5,1.4l-30.5,0.7l13-5.5
		l-67.4,0.1h-25.3l-52.1-3.8l7.6-7.6l-18.6-3.4l10.3-2.1l8.9-1.3l5-1.4v-3.5l-6.5-0.4l-10.1-4.2l-34.9-4.1L86.6,217l-8.3-1.4
		c0,0-2.1-1.7-4.3-1.6c-2.2,0.1-6.8-0.8-6.8-0.8s-9.2-4.9-18.1-5.9c-8.9-1-15.9,0-15.9,0l-12.4-5.1c0,0-4.2-3.8-9.3-4.6
		c-5.1-0.8-6.3-3.3-9.4-3.9c-3.1-0.6-2.3-0.6-1.6-4.2c0.7-3.6-0.6-6.8,1.3-8c2-1.2,1.8-5.7,1.8-5.7l3.3-3.5c0,0,4.4-3.5,4.3-4.9
		c-0.1-1.4,0.6-2.5,2.2-4c1.6-1.5,8.3-3.6,8.3-3.6l3.7-5.2c0,0,6-2.8,10.3-1.9c4.3,0.8,12,0.1,16.2-0.4c4.2-0.6,14.8-2.1,14.8-2.1
		s5.3,0.1,6.1,0.8c0.8,0.7,12.6,1.2,12.6,1.2s12.6-1.9,14.1-4.7c1.5-2.8,0.8-5,0.8-5l-9.5,0.3c0,0-5.2,1.4-8.5,2.3
		c-3.2,0.9-5.7-3.7-11.1-2c-5.4,1.7-12.2,2.7-12.2,2.7L43.9,148L30,149l-15.3,0.4l-4.2-2l38.9-4.5l9.3-0.5l6.8-2.3l7.6-1.8l2-1.9
		l0.2-4l-0.5-1.8l-6-0.1l-5.8-0.3c0,0-12.1,2.2-14.6-1.2c-2.6-3.5-6-6.2-6-6.2l-4.2-0.9l-5.8-4c0,0-1.1-1.7-0.9-3.9
		c0.1-2.2-2.2-3.8,0.1-5c2.3-1.2,9.1-2.5,9.1-2.5l3.6-1.7c0,0,7.1,1.8,9,1.4c1.9-0.5,4.9-3.2,4.9-3.2l-5.9-0.6l-6.9-1.8l5.1-5.6
		l-4.4-6.3l-1.3-2.1l9.6-2.6l8.3,0.7l3.7-2.3l8.1-2.5l8.3-2.6c0,0,8.4-9.7,8.9-9.4c0.5,0.3,7.7,1.9,7.5,0c-0.2-1.9,7.4-1.8,7.4-1.8
		l2.5-0.1l-17.4-3.6l-9.3,2l-7.5-1.8l-8.4,3.5L58,65.7l-4.8-3.5l26.4-2.9l6.6-2.1L80,49.9L94.5,48l5.3-1.6l-4.8-0.5l5.4-4.1L98,39.8
		l-2.1-3.5c0,0,11.8,0,12.7-0.3c0.9-0.3,4.8-2.6,7.4-3.4c2.6-0.8,7.3-1.5,9-2.5c1.8-1,3.3-1.8,3.3-1.8l11.1-3.3l-1.1-3.3
		c0,0-13.8,0.6-13.9,0.6c-0.1,0-9.6,0.9-9.6,0.9l-3.2-0.2l-3.2,0.2L103.9,16.9z"/>
</g>
<text id="TEXTO_BOTON_ENTRAR" transform="matrix(1 0 0 1 136.2752 185.4336)" fill="#FFD44A" font-family="FilbertBrush" font-size="153.0578" letter-spacing="12">CONTINUER</text>
</svg>
