<?xml version="1.0" encoding="utf-8"?>
<!-- Generator: Adobe Illustrator 18.0.0, SVG Export Plug-In . SVG Version: 6.00 Build 0)  -->
<!DOCTYPE svg PUBLIC "-//W3C//DTD SVG 1.1//EN" "http://www.w3.org/Graphics/SVG/1.1/DTD/svg11.dtd">
<svg version="1.1" id="Layer_1" xmlns="http://www.w3.org/2000/svg" xmlns:xlink="http://www.w3.org/1999/xlink" x="0px" y="0px"
	 viewBox="0 0 858.6 262.6" enable-background="new 0 0 858.6 262.6" xml:space="preserve">
	<g id="BOTON_ENTRAR">
	<path fill-rule="evenodd" clip-rule="evenodd" fill="#4F2747" d="M75.2,16.9c0,0,14.6,3.8,18.6,0.7c4-3.1,17.4-7,17.4-7l4.7,1.6
		l3.1-1.2l10.1,5.6h7.1l488.7-1.2l-12.1-4.9l23.8-3.8l-3.7-3.3l14.7,0.3L643.4,0l33.1,0.2L707.7,0l-19.9,3.4l19.9,1.7l-17.9,1.7
		l17.9,2.6l-13.4,1l16.1,3.3l7.9-4.8l11.5,5.7l20.5,2.2l-9,1.7l9,2.4l-9-0.3l16.6,3.4l-17.9,4.1l17.9,2.3l-16.1,2.4l2.7,5.9l6.4,1.1
		l20.2,6.7h37.8L796.7,50c0,0,2.3-0.3,8.7,4.3c6.4,4.6,20.9,5.7,25.2,5.9c4.2,0.2,9.1,9,16.3,9c7.2-0.1,9.7,4.3,9.7,4.3l2,5.2h-7.1
		l7.1,3.6l-9,2.2l6.1,0.8l-3.8,4.1c0,0-1.5,3.1-1.2,6.1c0.2,3.1-3.1,4.8-3.1,4.8s-0.4-0.5-0.6,3.6c-0.1,4.1-9.4,6-9.4,6l-0.3,3.2
		l-2.7,1.6c0,0-7.1-0.3-11.1,0s-5.6,0.7-8.4,1.3c-2.8,0.6-14.6-0.1-18.6,0.2c-4,0.3-12.9,6.6-12.9,6.6s3.3,1.2,8.6-0.2
		c5.4-1.4,18-4,17.7-4.9c-0.3-0.9-2.6-1.8,5.6-0.2c8.2,1.6,11.6,0.3,15,0.8c3.4,0.5,9.1,1.2,9.1,1.2l-27.1,3.6l-8.3,3.6l-1.5,2.8
		l-2.8-0.2l1.9,4.9l0.9,2.1l-1.7,3c0,0,12.2-3.6,15.9-2.1c3.7,1.5,7.6,4.4,7.6,4.4l6.8,5.1h3.2h2l-3.3,4.4l-0.3,4.3l0.8,4.3h-4.1
		l-0.8,1.3l-6.7,3.4l-5.1,1l7.3,1.5l-4,4.5l0.4,5.7l2.7,4.9l-5,3.6h-4.6l-6,0.8c0,0-0.7-1.5-5.9,2c-5.2,3.6-9.5,6.5-9.5,6.5
		l-4.2,4.8l-6.5,1.1l-2.7,0.9l9.2,1.9l8.2-1.3l6.2-2.1c0,0,7,2.3,8,1.5c1-0.8,5-1.1,5-1.1l3.6,2.9l-19.6,3.9l-3.4,0.9l-3,3.1l4.1,5
		h3.8l-1.8,0.6l-4.8,1.2l-3.3,1.4l-6,0.2c0,0-3.1-0.6-1.5,1.2c1.6,1.8,5.2,0,5.2,0l-2.2,3.4l-2.1,2.3l1.9,4.4l-0.3,1.9l-17.4,4.6
		l-5.6,4.9c0,0-2.2-0.6-4.6,0.3c-2.4,0.9-7.4,3.8-7.4,3.8l-2.2,2.3l22-3.2l7.9-0.7l4.5,0.7l-19.1,3l-7,3.3l-4.2,2.2
		c0,0-11.5,0.2-13.1,0.8c-1.6,0.6-10.1,0.8-10.1,0.8s-10.1-2.7-13.1-3c-2.9-0.2-26.6-0.4-26.6-0.4l-13.5,9.4l-14.4,0.6l-6.5-1.7
		l-10.4-2.2l-10.3-2.1l-21.9,1.7c0,0-1.4-0.3-4.8-0.3c-3.4,0-21,1.3-21,1.3l-10.6,0.1l-8.9,1.9l6.8-6.8h-83.4l-15.1,7l-8.2-0.8
		l-3.7,0.5l2.2-5l-18.8-1.6l-15.4,3.7l1.7-4.3l-39.4-1.5l5.4-1.7l-73.3,1.7l-18.5,8.8l-11.8-1.1l-8.1,0.7l9-4.7l-35.3,2.2l-20.5-0.7
		l-15.6,1.4l-22.1,0.7l9.4-5.5l-48.8,0.1h-18.3l-37.8-3.8l5.5-7.6l-13.5-3.4l7.4-2.1l6.3-1.3l3.5-1.4v-3.5l-4.6-0.4l-7.3-4.2
		l-25.3-4.1L62.8,217l-6-1.4c0,0-1.5-1.7-3.1-1.6c-1.6,0.1-4.9-0.8-4.9-0.8s-6.6-4.9-13.1-5.9c-6.5-1-11.6,0-11.6,0l-9-5.1
		c0,0-3-3.8-6.7-4.6c-3.7-0.8-4.5-3.3-6.8-3.9c-2.3-0.6-1.7-0.6-1.2-4.2c0.5-3.6-0.4-6.8,1-8c1.4-1.2,1.3-5.7,1.3-5.7l2.4-3.5
		c0,0,3.2-3.5,3.1-4.9c-0.1-1.4,0.4-2.5,1.6-4c1.2-1.5,6-3.6,6-3.6l2.7-5.2c0,0,4.4-2.8,7.4-1.9c3.1,0.8,8.7,0.1,11.7-0.4
		c3-0.6,10.7-2.1,10.7-2.1s3.9,0.1,4.4,0.8c0.6,0.7,9.1,1.2,9.1,1.2s9.1-1.9,10.2-4.7c1.1-2.8,0.6-5,0.6-5l-6.8,0.3
		c0,0-3.8,1.4-6.1,2.3c-2.3,0.9-4.1-3.7-8-2c-3.9,1.7-8.9,2.7-8.9,2.7L31.8,148l-10,1l-11.1,0.4l-3-2l28.2-4.5l6.7-0.5l4.9-2.3
		l5.5-1.8l1.5-1.9l0.2-4l-0.3-1.8l-4.4-0.1l-4.2-0.3c0,0-8.7,2.2-10.6-1.2c-1.9-3.5-4.4-6.2-4.4-6.2l-3-0.9l-4.2-4
		c0,0-0.8-1.7-0.7-3.9c0.1-2.2-1.6-3.8,0.1-5c1.7-1.2,6.6-2.5,6.6-2.5l2.6-1.7c0,0,5.1,1.8,6.5,1.4c1.3-0.5,3.6-3.2,3.6-3.2
		l-4.3-0.6l-5-1.8l3.7-5.6l-3.2-6.3l-0.9-2.1l6.9-2.6l6,0.7l2.7-2.3l5.9-2.5l6-2.6c0,0,6.1-9.7,6.4-9.4c0.3,0.3,5.6,1.9,5.4,0
		c-0.1-1.9,5.3-1.8,5.3-1.8l1.8-0.1l-12.6-3.6l-6.8,2l-5.5-1.8L48,65.9L42,65.7l-3.5-3.5l19.1-2.9l4.8-2.1L58,49.9L68.4,48l3.8-1.6
		l-3.5-0.5l3.9-4.1L71,39.8l-1.5-3.5c0,0,8.5,0,9.2-0.3c0.6-0.3,3.5-2.6,5.4-3.4c1.9-0.8,5.3-1.5,6.5-2.5c1.3-1,2.4-1.8,2.4-1.8
		l8.1-3.3l-0.8-3.3c0,0-10,0.6-10.1,0.6c-0.1,0-7,0.9-7,0.9l-2.3-0.2L78.6,23L75.2,16.9z"/>
</g>
<text id="TEXTO_BOTON_ENTRAR" transform="matrix(1 0 0 1 146.4315 185.4335)" fill="#FFD44A" font-family="FilbertBrush" font-size="153.0578" letter-spacing="12">ENTRER</text>
</svg>
