<?xml version="1.0" encoding="utf-8"?>
<!-- Generator: Adobe Illustrator 18.0.0, SVG Export Plug-In . SVG Version: 6.00 Build 0)  -->
<!DOCTYPE svg PUBLIC "-//W3C//DTD SVG 1.1//EN" "http://www.w3.org/Graphics/SVG/1.1/DTD/svg11.dtd">
<svg version="1.1" id="Layer_1" xmlns="http://www.w3.org/2000/svg" xmlns:xlink="http://www.w3.org/1999/xlink" x="0px" y="0px"
	 viewBox="-0.1 328.2 612 135.6" enable-background="new -0.1 328.2 612 135.6" xml:space="preserve">
<g id="BOTON_ENTRAR">
	<path fill="#4F2747" d="M53.7,336.9c0,0,10.4,2,13.3,0.4c2.9-1.6,12.4-3.6,12.4-3.6l3.4,0.8l2.2-0.6l7.2,2.9h5.1l348.3-0.6
		l-8.6-2.5l17-2l-2.6-1.7l10.4,0.2l-3-1.9l23.6,0.1l22.2-0.1l-14.2,1.8l14.2,0.9l-12.8,0.9l12.8,1.3l-9.6,0.5l11.5,1.7l5.6-2.5
		l8.2,2.9l14.6,1.1l-6.5,0.9l6.5,1.2l-6.4-0.2l11.8,1.8l-12.8,2.1l12.8,1.2l-11.5,1.2l1.9,3l4.6,0.6l14.4,3.5h27l-8.7,1.8
		c0,0,1.7-0.2,6.2,2.2s14.9,2.9,17.9,3c3,0.1,6.5,4.6,11.7,4.6c5.2-0.1,6.9,2.2,6.9,2.2l1.4,2.7h-5.1l5.1,1.9l-6.4,1.1l4.3,0.4
		l-2.7,2.1c0,0-1,1.6-0.9,3.1c0.2,1.6-2.2,2.5-2.2,2.5s-0.3-0.3-0.4,1.9c-0.1,2.1-6.7,3.1-6.7,3.1l-0.2,1.7l-1.9,0.8
		c0,0-5.1-0.2-7.9,0s-4,0.4-6,0.7c-2,0.3-10.4-0.1-13.3,0.1c-2.9,0.2-9.2,3.4-9.2,3.4s2.3,0.6,6.1-0.1c3.8-0.7,12.9-2.1,12.7-2.5
		c-0.2-0.5-1.9-0.9,4-0.1c5.8,0.8,8.3,0.2,10.7,0.4c2.4,0.3,6.5,0.6,6.5,0.6l-19.3,1.9l-5.9,1.9l-1.1,1.4l-2-0.1l1.3,2.5l0.7,1.1
		l-1.2,1.5c0,0,8.7-1.9,11.3-1.1c2.6,0.8,5.4,2.3,5.4,2.3l4.9,2.6h2.3h1.4l-2.3,2.3l-0.2,2.2l0.6,2.2h-2.9l-0.6,0.7l-4.8,1.8
		l-3.6,0.5l5.2,0.8l-2.8,2.3l0.3,2.9l1.9,2.5l-3.6,1.9h-3.3l-4.3,0.4c0,0-0.5-0.8-4.2,1c-3.7,1.9-6.8,3.4-6.8,3.4l-3,2.5l-4.6,0.6
		l-1.9,0.5l6.5,1l5.8-0.7l4.4-1.1c0,0,5,1.2,5.7,0.8c0.7-0.4,3.6-0.6,3.6-0.6l2.5,1.5l-14,2l-2.4,0.5l-2.2,1.6l2.9,2.6h2.7l-1.3,0.3
		l-3.4,0.6l-2.4,0.7l-4.3,0.1c0,0-2.2-0.3-1.1,0.6c1.1,0.9,3.7,0,3.7,0l-1.6,1.8l-1.5,1.2l1.4,2.3l-0.2,1l-12.4,2.4l-4,2.5
		c0,0-1.5-0.3-3.3,0.2c-1.7,0.5-5.3,2-5.3,2l-1.6,1.2l15.7-1.7l5.7-0.4l3.2,0.4l-13.6,1.5l-5,1.7l-2.9,1.1c0,0-8.2,0.1-9.3,0.4
		c-1.1,0.3-7.2,0.4-7.2,0.4s-7.2-1.4-9.3-1.5c-2.1-0.1-19-0.2-19-0.2l-9.3,5l-10.2,0.3l-4.6-0.9l-7.4-1.1l-7.3-1.1l-15.6,0.9
		c0,0-1-0.2-3.4-0.2s-15,0.7-15,0.7l-7.5,0.1l-6.4,1l4.9-3.5h-59.5l-10.7,3.6l-5.9-0.4l-2.6,0.3l1.5-2.6l-13.4-0.8l-11,1.9l1.2-2.2
		l-28.1-0.8l3.8-0.9l-52.3,0.9l-13.2,4.5l-8.4-0.6l-5.7,0.4l6.4-2.4l-25.1,1.1l-14.6-0.4l-11.1,0.7l-15.7,0.4l6.7-2.8l-34.8,0.1
		h-13.1l-26.9-2l3.9-3.9l-9.6-1.8l5.3-1.1l4.6-0.7l2.6-0.7v-1.8l-3.4-0.2l-5.2-2.2l-18-2.1l-12.8-2.9l-4.3-0.7c0,0-1.1-0.9-2.2-0.8
		c-1.1,0.1-3.5-0.4-3.5-0.4s-4.8-2.5-9.3-3c-4.6-0.5-8.2,0-8.2,0l-6.4-2.6c0,0-2.2-2-4.8-2.4s-3.3-1.7-4.9-2
		c-1.6-0.3-1.2-0.3-0.8-2.2s-0.3-3.5,0.7-4.1c1-0.6,0.9-2.9,0.9-2.9l1.7-1.8c0,0,2.3-1.8,2.2-2.5c-0.1-0.7,0.3-1.3,1.1-2.1
		c0.8-0.8,4.3-1.9,4.3-1.9l1.9-2.7c0,0,3.1-1.4,5.3-1c2.2,0.4,6.2,0.1,8.4-0.2c2.2-0.3,7.6-1.1,7.6-1.1s2.7,0.1,3.1,0.4
		c0.4,0.4,6.5,0.6,6.5,0.6s6.5-1,7.3-2.4c0.8-1.4,0.4-2.6,0.4-2.6l-4.9,0.2c0,0-2.7,0.7-4.4,1.2c-1.7,0.5-2.9-1.9-5.7-1
		c-2.8,0.9-6.3,1.4-6.3,1.4l-7.8,1.1l-7.2,0.5l-7.9,0.2l-2.2-1l20.1-2.3l4.8-0.3l3.5-1.2l3.9-0.9l1-1l0.1-2.1l-0.3-0.9l-3.1-0.1
		l-3-0.2c0,0-6.2,1.1-7.5-0.6c-1.3-1.8-3.1-3.2-3.1-3.2l-2.2-0.5l-3-2.1c0,0-0.6-0.9-0.5-2c0.1-1.1-1.1-2,0.1-2.6
		c1.2-0.6,4.7-1.3,4.7-1.3l1.9-0.9c0,0,3.7,0.9,4.6,0.7c1-0.3,2.5-1.7,2.5-1.7l-3-0.3l-3.6-0.9l2.6-2.9l-2.3-3.3l-0.7-1.1l5-1.3
		l4.3,0.4l1.9-1.2l4.2-1.3l4.3-1.3c0,0,4.3-5,4.6-4.9c0.3,0.2,4,1,3.9,0c-0.1-1,3.8-0.9,3.8-0.9l1.3-0.1l-9-1.9l-4.8,1l-3.9-0.9
		l-4.3,1.8l-4.4-0.2l-2.5-1.8l13.6-1.5l3.4-1.1l-3.2-3.8l7.5-1l2.7-0.8l-2.5-0.3l2.8-2.1l-1.2-1l-1.1-1.8c0,0,6.1,0,6.6-0.2
		c0.5-0.2,2.5-1.3,3.8-1.8s3.8-0.8,4.6-1.3c0.9-0.5,1.7-0.9,1.7-0.9l5.7-1.7l-0.6-1.7c0,0-7.1,0.3-7.2,0.3s-5,0.5-5,0.5l-1.7-0.1
		l-1.7,0.1L53.7,336.9z"/>
</g>
<g id="TEXTO_BOTON_ENTRAR" enable-background="new    ">
	<path fill="#FFD44A" d="M85.6,427.2c-3.2-0.9-5.5-2.4-7.1-4.6c-1.6-2.2-2.6-4.7-3-7.4c-0.4-2.8-0.5-5.6,0-8.6c0.4-3,1.1-5.7,2-8.2
		c0.9-2.7,2.1-5.3,3.6-8c1.4-2.6,3-5.1,4.8-7.5c1.8-2.3,3.8-4.5,6-6.5c2.2-2,4.5-3.7,7.1-5.2c2.4-1.4,5-2.5,7.9-3.2
		c2.8-0.7,5.7-0.9,8.5-0.5c1.4,0.2,2.6,0.6,3.7,1.3c1.1,0.7,2,1.5,2.8,2.5c0.8,1,1.3,2.1,1.7,3.3c0.3,1.2,0.4,2.5,0.3,3.9
		c-0.3,2.3-0.9,4.5-1.9,6.6c-1,2.1-2,4.2-3.1,6.1c-0.2,0.3-0.7,0.9-1.5,2.1c-0.8,1.1-1.7,2.3-2.6,3.6c-1.1,1.5-2.2,3.2-3.6,5.1
		c-0.4,0.3-1,0.5-1.7,0.7c-0.7,0.2-1.4,0.3-2.1,0.4c-0.7,0.1-1.4,0-2-0.2c-0.6-0.2-1-0.6-1.3-1.2c-0.3-0.6-0.4-1.3-0.4-2
		c0.1-0.7,0.2-1.4,0.5-2.1c0.3-0.7,0.6-1.4,0.9-2.1c0.4-0.7,0.7-1.3,0.9-1.8c0.6-1.3,1.3-2.6,2.1-3.9c0.8-1.3,1.6-2.6,2.3-4
		c0.7-1.3,1.4-2.7,2-4.1c0.6-1.4,1-2.8,1.3-4.2c-0.2,0.1-0.6,0.1-1,0.1c-0.5-0.1-0.8-0.1-1.1-0.1c-1.4,0.2-2.7,0.4-4,0.9
		c-1.2,0.4-2.4,0.9-3.5,1.5c-1.1,0.6-2.2,1.3-3.1,2.1c-2.1,1.6-4,3.4-5.6,5.4c-1.6,2-3.1,4.2-4.4,6.5c-1.4,2.3-2.6,4.7-3.7,7.2
		c-1,2.6-1.7,5.2-1.9,7.9c-0.1,1-0.1,2-0.1,3c0,1,0.2,1.9,0.5,2.8c0.3,0.8,0.8,1.5,1.5,2.1c0.7,0.6,1.6,0.9,2.8,1
		c1.1,0.1,2.2,0,3.3-0.3c1.1-0.3,2.2-0.7,3.2-1.3c0.5-0.3,1.1-0.8,1.6-1.3c0.6-0.6,1.1-0.9,1.7-1.1c0.6-0.2,1.4-0.3,2.3-0.5
		c0.9-0.2,1.8-0.3,2.6-0.2c0.8,0,1.5,0.3,1.9,0.7c0.5,0.4,0.6,1.3,0.4,2.4c-0.2,1.1-0.5,2.1-1.1,3.1c-0.6,1-1.2,1.9-2.1,2.8
		c-0.8,0.9-1.7,1.6-2.7,2.3c-1,0.7-2,1.3-3,1.7c-1.9,0.9-4,1.4-6.2,1.6C89.8,428,87.7,427.8,85.6,427.2z"/>
	<path fill="#FFD44A" d="M133.2,423.9c-3-1.1-5.2-2.8-6.6-5.2c-1.4-2.4-2.2-5-2.4-7.8c-0.2-2.8-0.1-5.8,0.6-8.8
		c0.6-3,1.4-5.7,2.3-8.1c1.1-2.6,2.3-5.2,3.8-7.7c1.5-2.5,3.2-4.8,5.1-7c1.9-2.2,4-4.2,6.4-6c2.3-1.8,4.8-3.3,7.4-4.5
		c2.2-1.1,4.5-1.9,7-2.4c0.9-0.2,1.7-0.1,2.5,0.2c0.8,0.3,1.6,0.6,2.4,1c0.6,0.3,1.1,0.7,1.5,1.1c0.4,0.4,0.7,0.9,0.9,1.3
		s0.1,1-0.1,1.5c-0.2,0.5-0.6,1-1.3,1.5c-0.9,0.6-1.9,1.1-2.9,1.6c-1,0.5-2,0.9-3,1.3c-4.7,2.4-8.8,5.4-12.3,9.1
		c-3.5,3.7-6.2,8-8.1,12.9c-0.4,1-0.8,2.2-1.3,3.6c-0.4,1.4-0.7,2.8-0.9,4.3c-0.2,1.5-0.2,2.9-0.1,4.2c0.2,1.4,0.6,2.6,1.4,3.6
		c0.4,0.5,0.9,0.9,1.6,1.1s1.3,0.3,1.9,0.2c0.7,0,1.3-0.1,2-0.3c0.7-0.2,1.3-0.4,1.8-0.6c1.9-0.6,3.6-1.6,5.3-2.9
		c1.6-1.3,3.1-2.8,4.4-4.4c1.3-1.7,2.5-3.4,3.5-5.3c1-1.9,1.9-3.8,2.6-5.7c0.6-1.2,1-2.5,1.2-3.8c0.2-1.3,0.4-2.7,0.5-4
		c0-1.2-0.2-2.3-0.5-3.3c0-0.1-0.1-0.2-0.2-0.4c-0.1-0.2-0.3-0.5-0.4-0.8l-0.5-1.1c0.1,0,0.1-0.2,0.1-0.6c0-0.4,0-0.8,0-1.3
		s0-0.9,0-1.3c0-0.4,0-0.7,0-0.8c0-0.8,0.2-1.5,0.6-2c0.4-0.6,1-0.9,1.9-1c0.8,0.1,1.5,0.3,2.2,0.6c0.7,0.4,1.3,0.8,1.9,1.4
		c0.6,0.6,1.1,1.2,1.6,1.8c0.5,0.7,0.9,1.3,1.2,1.9c1.2,2.4,1.8,4.9,1.8,7.5c0,2.7-0.4,5.3-1.1,7.9c-0.7,2.6-1.8,5.2-3.1,7.6
		c-1.3,2.5-2.8,4.7-4.2,6.6c-1.5,2.2-3.3,4.3-5.5,6.3c-2.1,2-4.4,3.7-6.9,5.1c-2.5,1.4-5.1,2.3-7.9,2.7
		C138.8,425.3,136,425,133.2,423.9z"/>
	<path fill="#FFD44A" d="M176.9,424.9c-0.6-0.2-1.1-0.6-1.5-1.1c-0.4-0.5-0.7-1.2-0.8-2c-0.1-0.8-0.1-1.9,0.2-3.1
		c0.3-1.2,0.8-2.7,1.7-4.4l16.8-35.2c0.3-0.1,0.7-0.1,1-0.2c0.6-0.1,1.3,0,2.3,0.2l-0.9-9.2c1.7-1.5,3.3-2.3,4.8-2.4
		c0.6-0.1,1.3,0.1,1.9,0.3c0.6,0.3,1.2,0.8,1.8,1.5c0.6,0.7,1,1.8,1.4,3.1c0.4,1.3,0.7,3,0.9,5.1l2.4,25l17.2-36
		c2.3-0.4,4.1-0.3,5.5,0.3c0.6,0.3,1.1,0.8,1.5,1.3c0.4,0.6,0.6,1.3,0.7,2.3c0.1,0.9-0.1,2.1-0.4,3.6c-0.4,1.4-1,3.1-2,5.1l-20.5,43
		v0.2c-1.7,1.7-3.3,2.7-4.8,2.9c-0.6,0.1-1.3,0-1.9-0.2s-1.2-0.7-1.8-1.5c-0.6-0.8-1-1.8-1.4-3.2c-0.4-1.4-0.7-3.1-0.9-5.3l-2.1-22
		l-15.6,32.4C180.1,425.6,178.3,425.5,176.9,424.9z"/>
	<path fill="#FFD44A" d="M239.9,424.9c-0.6-0.2-1.1-0.6-1.5-1.1c-0.4-0.5-0.7-1.2-0.8-2.1c-0.1-0.9,0-2,0.3-3.4
		c0.3-1.3,0.9-3,1.8-4.9l17.4-36h-15.6c-1.1-1.9-1.6-3.6-1.6-5.1c0-0.6,0.1-1.3,0.4-1.9c0.3-0.6,0.7-1.1,1.4-1.6
		c0.7-0.5,1.5-0.9,2.6-1.1c1.1-0.3,2.5-0.4,4.1-0.4h36.1c1.3,1.9,1.9,3.6,2,5.1c0,0.6-0.1,1.3-0.4,1.9c-0.2,0.6-0.7,1.1-1.3,1.6
		s-1.5,0.9-2.6,1.1c-1.1,0.3-2.6,0.4-4.4,0.4h-12.4c0.4,0.9,0.5,2.1,0.3,3.5s-0.8,3.3-1.8,5.5l-18.5,38.4
		C243.1,425.5,241.3,425.5,239.9,424.9z"/>
	<path fill="#FFD44A" d="M279.4,424.8c-0.6-0.2-1.1-0.6-1.5-1.1c-0.4-0.6-0.6-1.3-0.7-2.4s0.1-2.3,0.6-3.8c0.4-1.5,1.2-3.4,2.3-5.6
		l21.4-44.8c2.3-0.5,4.1-0.4,5.5,0.3c0.5,0.3,1,0.8,1.4,1.3c0.4,0.6,0.6,1.4,0.7,2.3c0.1,1-0.1,2.2-0.5,3.6c-0.4,1.4-1.1,3.2-2,5.3
		l-21.3,44.7C282.7,425.3,280.8,425.4,279.4,424.8z"/>
	<path fill="#FFD44A" d="M308.2,424.9c-0.6-0.2-1.1-0.6-1.5-1.1c-0.4-0.5-0.7-1.2-0.8-2c-0.1-0.8-0.1-1.9,0.2-3.1
		c0.3-1.2,0.8-2.7,1.7-4.4l16.8-35.2c0.3-0.1,0.7-0.1,1-0.2c0.6-0.1,1.3,0,2.3,0.2l-0.9-9.2c1.7-1.5,3.3-2.3,4.8-2.4
		c0.6-0.1,1.3,0.1,1.9,0.3c0.6,0.3,1.2,0.8,1.8,1.5c0.6,0.7,1,1.8,1.4,3.1c0.4,1.3,0.7,3,0.9,5.1l2.4,25l17.2-36
		c2.3-0.4,4.1-0.3,5.5,0.3c0.6,0.3,1.1,0.8,1.5,1.3c0.4,0.6,0.6,1.3,0.7,2.3c0.1,0.9-0.1,2.1-0.4,3.6c-0.4,1.4-1,3.1-2,5.1l-20.5,43
		v0.2c-1.7,1.7-3.3,2.7-4.8,2.9c-0.6,0.1-1.3,0-1.9-0.2c-0.6-0.2-1.2-0.7-1.8-1.5c-0.6-0.8-1-1.8-1.4-3.2c-0.4-1.4-0.7-3.1-0.9-5.3
		l-2.1-22l-15.6,32.4C311.4,425.6,309.5,425.5,308.2,424.9z"/>
	<path fill="#FFD44A" d="M414.6,375.2c-1.1,4.2-2.5,8.3-4.4,12.1c-1.9,3.9-3.7,7.7-5.6,11.5c-1.1,2.5-2.2,4.9-3.4,7.4
		c-1.1,2.4-2.4,4.7-3.9,7c-1.5,2.1-3.3,4.1-5.5,6c-2.2,2-4.6,3.6-7.2,4.7s-5.2,1.8-7.9,1.8c-2.7,0-5.3-0.9-7.8-2.7
		c-2.2-1.6-3.6-3.4-4.4-5.6c-0.8-2.1-1.1-4.4-1-6.7c0.1-2.3,0.6-4.7,1.4-7.1c0.8-2.4,1.7-4.6,2.7-6.6c1.1-2.1,2.2-4.1,3.2-6.3
		c1.1-2.1,2.1-4.3,3.2-6.4c1.1-1.9,2-3.9,3-5.7c0.9-1.9,1.9-3.7,2.8-5.6c0.5-0.9,0.9-1.7,1.3-2.3c0.3-0.6,0.9-1.2,1.7-1.7
		c0.6-0.4,1.3-0.7,2.1-1.1c0.8-0.4,1.5-0.6,2.2-0.7c0.7-0.1,1.3,0.1,1.8,0.4c0.5,0.4,0.8,1.1,0.8,2.2c0.1,1.8-0.1,3.7-0.8,5.5
		c-0.6,1.8-1.3,3.5-2,5.1c-0.8,1.9-1.6,3.9-2.6,5.7c-0.9,1.9-1.9,3.7-2.8,5.6c-1.1,2.2-2.1,4.4-3.3,6.4c-1.1,2.1-2.2,4.2-3.2,6.4
		c-0.4,1.1-0.8,2.3-1.1,3.7c-0.3,1.4-0.4,2.7-0.2,3.8c0.2,1.2,0.7,2.1,1.5,2.7c0.8,0.6,2.1,0.7,4,0.2c2.5-0.7,4.7-2.1,6.6-4.1
		c1.9-2.1,3.5-4.2,4.8-6.5c1-1.7,1.9-3.5,2.8-5.4c0.9-1.9,1.8-3.8,2.6-5.7c1.9-4.1,3.8-8.2,5.6-12.2c1.8-4,3.7-8.1,5.7-12.2
		c0.4-0.3,1-0.6,1.7-0.9c0.7-0.4,1.4-0.7,2.1-0.9c0.7-0.2,1.4-0.3,2-0.2c0.6,0.1,1.1,0.5,1.5,1.1c0.3,0.5,0.4,1,0.5,1.6
		c0.1,0.6,0.1,1.2,0,1.8c-0.1,0.6-0.1,1.3-0.3,1.9C414.9,374.1,414.7,374.7,414.6,375.2z"/>
	<path fill="#FFD44A" d="M408.7,425.3c-1-1.9-1.5-3.6-1.4-5.1c0-0.6,0.1-1.3,0.4-1.9c0.2-0.6,0.6-1.1,1.2-1.6
		c0.6-0.5,1.3-0.9,2.3-1.1c1-0.3,2.2-0.4,3.7-0.4h2.3c-0.9-0.6-1.4-1.6-1.6-3c-0.2-1.4,0.4-3.4,1.6-6l13.7-28.7H427
		c-1-1.9-1.5-3.6-1.4-5.1c0-0.6,0.1-1.3,0.4-1.9c0.2-0.6,0.6-1.1,1.2-1.6c0.6-0.5,1.3-0.9,2.3-1.1c1-0.3,2.2-0.4,3.7-0.4h32.2
		c1.1,1.9,1.7,3.6,1.7,5.1c0,0.6-0.1,1.3-0.3,1.9c-0.2,0.6-0.6,1.1-1.2,1.6c-0.6,0.5-1.4,0.9-2.4,1.1c-1,0.3-2.3,0.4-3.9,0.4h-19.7
		c0.4,0.8,0.5,1.8,0.4,2.9c-0.1,1.2-0.6,2.7-1.5,4.5l-3.6,7.5h14.6c0.5,1.9,0.7,3.6,0.8,5.1c0,1.3-0.2,2.4-0.7,3.5
		c-0.4,1.1-1.4,1.6-2.9,1.6H432c-0.1-0.3-0.2-0.6-0.2-0.9c-0.1-0.4-0.2-1.1-0.3-2.1l-7.7,15.6H447c1.1,1.9,1.7,3.6,1.7,5.1
		c0,0.6-0.1,1.3-0.3,1.9c-0.2,0.6-0.6,1.1-1.1,1.6c-0.6,0.5-1.3,0.9-2.3,1.1c-1,0.3-2.3,0.4-3.9,0.4H408.7z"/>
	<path fill="#FFD44A" d="M468.6,424.9c-2.3,0.6-4.2,0.6-5.5,0c-0.6-0.2-1.1-0.6-1.5-1.1s-0.7-1.2-0.8-2.1c-0.1-0.9,0-2,0.4-3.4
		c0.3-1.3,0.9-3,1.9-4.9l17.2-36h-4.9c-0.7-0.7-1.4-1.6-2-2.6c-0.6-1.1-0.7-2.1-0.5-3.2c0.3-1.3,1.1-2.2,2.3-2.8
		c1.2-0.6,2.6-1,4.1-1.3c1.5-0.2,3.1-0.3,4.6-0.3c1.5,0,2.7,0,3.6,0c1.5,0,3,0,4.5-0.1c1.5-0.1,3,0,4.5,0.1c1.5,0.1,3,0.3,4.4,0.7
		c1.4,0.3,2.8,0.9,4.1,1.8c2.3,1.3,4.1,3.1,5.4,5.5c1.3,2.3,2,4.8,2,7.4c-0.1,2.5-0.8,4.9-2.2,7.2c-1.3,2.3-3.1,4.2-5.2,5.7
		c-2.1,1.5-4.4,2.6-6.9,3.4c-2.5,0.8-5,1.3-7.5,1.6l9.3,21.1c-1.3,1.5-2.7,2.6-4,3.2c-1.2,0.6-2.4,0.7-3.6,0.4
		c-1.3-0.3-2.4-1.5-3.4-3.7l-9.1-20.2L468.6,424.9z M488.6,377.5c0.4,0.9,0.6,2.1,0.4,3.5c-0.2,1.4-0.8,3.3-2,5.5l-2.8,5.8
		c0.4-0.2,0.8-0.4,1.2-0.4c0.4-0.1,0.7-0.2,1.1-0.3c1.1-0.4,2.3-0.7,3.5-0.9c1.2-0.2,2.4-0.5,3.6-0.9c0.8-0.2,1.8-0.5,2.9-1
		c1.1-0.4,2.1-1,3-1.7c0.9-0.7,1.6-1.5,2.2-2.4c0.5-0.9,0.7-2,0.5-3.2c-0.3-1.3-0.9-2.3-2-2.8c-1.1-0.6-2.3-0.9-3.6-1.1
		c-1.4-0.2-2.8-0.2-4.2-0.1c-1.4,0.1-2.6,0.1-3.6,0.1H488.6z"/>
</g>
</svg>
