<?xml version="1.0" encoding="utf-8"?>
<!-- Generator: Adobe Illustrator 18.0.0, SVG Export Plug-In . SVG Version: 6.00 Build 0)  -->
<!DOCTYPE svg PUBLIC "-//W3C//DTD SVG 1.1//EN" "http://www.w3.org/Graphics/SVG/1.1/DTD/svg11.dtd">
<svg version="1.1" id="Layer_1" xmlns="http://www.w3.org/2000/svg" xmlns:xlink="http://www.w3.org/1999/xlink" x="0px" y="0px"
	 viewBox="0 0 297.4 335" enable-background="new 0 0 297.4 335" xml:space="preserve">
<path fill="#FFD565" d="M275.3,90.2c0-4.3-2.3-8.2-6-10.4L147.6,9.6c-1.9-1.1-3.9-1.6-6-1.6c-2.1,0-4.1,0.5-6,1.6L14,79.9
	c-3.7,2.1-6,6.1-6,10.4l0,140.5c0,4.3,2.3,8.2,6,10.4l121.7,70.2c1.9,1.1,3.9,1.6,6,1.6c2.1,0,4.1-0.5,6-1.6l121.6-70.3
	c3.7-2.1,6-6.1,6-10.4L275.3,90.2z"/>
<g>
	<defs>
		<path id="SVGID_1_" d="M259,98.8c0-3.8-2-7.2-5.3-9.1L146.9,28c-1.6-0.9-3.4-1.4-5.3-1.4c-1.8,0-3.6,0.5-5.3,1.4L29.6,89.8
			c-3.3,1.9-5.3,5.4-5.3,9.1l0,123.3c0,3.8,2,7.2,5.3,9.1L136.4,293c1.6,0.9,3.4,1.4,5.3,1.4c1.8,0,3.6-0.5,5.3-1.4l106.8-61.7
			c3.3-1.9,5.3-5.4,5.3-9.1L259,98.8z"/>
	</defs>
	<clipPath id="SVGID_2_">
		<use xlink:href="#SVGID_1_"  overflow="visible"/>
	</clipPath>
	<g clip-path="url(#SVGID_2_)">
		<path fill="#C49844" d="M275.3,228c-0.1,0-7.7-7.9-11.5-9.7c-1.9-0.9-7.3-3.8-10.7-4c0-0.1-0.1-0.1-0.1-0.2c3.5-3.1,4-5.4,3.5-7
			c-0.3-0.8-1.7-3.9-1.9-4.5c-2.4-6.2-0.7-2.4-6-11c-2.8-4.5-7.9-9.7-10.1-12.4c-3-3.7-8.6-8.3-12.6-10c-1.2-0.5-2.3-0.9-3.4-1.4
			c-1-0.6-2.1-1-3.4-1.2c-2.3-0.8-4.3-1.3-6.2-1.4c-0.8,0-1.8,0.1-2.9,0.3c-0.5-0.1-1.1-0.1-1.6-0.2c-0.8-0.4-1.7-0.7-2.7-0.7
			c-0.5,0-1.3,0.1-2.1,0.4l-1.4,0c-1-0.5-2.3-0.9-3.8-0.9c-0.4,0-0.8,0-1.2,0.1c-0.1,0-0.1,0-0.2,0c-0.2,0-0.5,0-1.2-0.5
			c-3.2-2.3-7-3.7-11.3-4c-1.7-0.1-3.2-0.3-4.6-0.6c1.1-1.8,2-3.9,2.4-6.4c0.5-3.2-0.1-5.8-1.9-7.7c0.7-2.1,1.5-4.2,2.2-6.3
			c0.5-1.4,1-2.8,1.5-4.3c1.4-3.7,2.9-7.8,3.3-12.4c1-0.9,1.7-2,2.2-2.7c0.3-0.4,0.6-0.9,0.8-1.1c1.9-1.7,2.9-4,2.9-6.5
			c0.6-2.4,0.6-4.9,0-7.4l0-2.3c0,0,0.1-0.1,0.1-0.1c0.3-0.3,0.5-0.6,0.7-0.8c0.2-0.3,0.5-0.6,0.8-0.9c1.5-1.8,3.2-3.8,4.2-6.7
			c0.9-2.5,3.5-10-1.8-16.1c-2.3-2.7-5.2-5.6-9.1-7.2c-0.4-0.4-0.8-0.8-1.4-1.2c0.3-2.3,0.2-4.6,0.1-6.6c0-0.7,0-1.5,0-2.2
			c0.1-3.8-1.8-6.4-5.7-7.9c-2.1-1.9-4.8-2.9-7.7-2.7c-0.3,0-0.6,0-1.1-0.2c-1.2-0.3-2.5-0.7-3.8-1.1c-1.2-0.4-2.5-0.7-3.8-1.1
			c-1-0.3-1.9-0.5-2.9-0.8c-2.7-0.8-5.5-1.6-8.7-2c-0.1,0-0.2-0.1-0.3-0.1c-0.8-0.2-1.8-0.5-3.1-0.5c-1.4,0-2.8,0.4-4,1.1
			c-0.8,0.2-1.5,0.6-2.2,1.2l-0.4,0.2l-1,0.2l-0.7,0.5c-0.6,0.2-1.1,0.5-1.6,0.8c-1.1,0.5-2.1,1.1-3,1.6c-0.9,0.5-1.7,1-2.4,1.3
			c-0.1,0-0.1,0-0.2,0c-0.4,0-0.7,0-1.1,0c-1.9,0-3.6,0.5-5,1.5c-2.3,1-4,2.4-5.5,3.6c-0.7,0.6-1.4,1.2-2.1,1.6
			c-2,1.3-3.5,2.9-4.9,4.3c-1.2,1.3-2.3,2.4-3.3,2.9c-5,2.4-6.4,7-7.2,9.4c-0.4,1.3-1.1,2.4-2.3,3.6c-5.3,5.5-8.4,11.7-9,18.5
			c-0.5,1.5-0.5,2.9-0.3,3.7c-1,2-1.6,4-2.1,5.8c-0.2,0.6-0.3,1.1-0.5,1.7c-0.3,0.8-0.4,1.5-0.5,2.1c0,0.1-0.1,0.3-0.1,0.4
			c-1.9,2.5-2.5,5.3-2.7,7.6c-0.1,0.8-0.2,1.6-0.2,2.4c-0.1,1.4-0.2,2.7-0.5,3.8c-1.7,7.1,0.9,12.8,3.1,17.9c0.2,0.5,0.5,1,0.7,1.5
			c0.7,1.5,1.8,2.8,3.3,3.5c-0.5,0.2-1.1,0.5-1.7,0.7c-0.4,0.2-0.9,0.4-1.3,0.5l-2.6,0.4l-2.6,0c-1.4-0.1-2.7,0.1-3.7,0.3
			c-0.6,0.1-1.1,0.2-1.5,0.2c-0.1,0-0.1,0-0.1,0l-0.5-0.1l-0.5,0c-1,0-2-0.2-3.4-0.5l-0.8-0.2c-2.3-0.5-4.9-1.2-7.7-1.2
			c-1.8,0-3.4,0.2-5,0.7l-0.4,0.1l-0.4,0.2c-0.2,0.1-0.7,0.2-1.1,0.2c-1.3,0.2-3.4,0.6-5.2,2.1c-2.5,1.1-4.2,2.8-5.4,4.1
			c-0.5,0.5-0.9,1-1.3,1.3c-1.6,1.2-3.1,2.7-4.5,4.4c-4,3.2-6.5,7.2-8.1,10.1c-1.6,2.9-3.2,5.9-4.7,8.8c-2.8,5.3-5.6,10.7-8.8,15.7
			c-1.9,2.5-3.2,5-4.6,7.9c-4,8-6.8,14.8-8.9,21.3c-1.5,3-2.6,6.1-3.6,9.1c-0.3,0.9-0.6,1.8-0.9,2.8c-1.4,2.3-0.7,4.3-0.3,5.1
			c0.4,0.8,1.6,2.7,4.4,3l0.2,0l-0.2-0.2l20.6,0.6L23.8,257c-0.8,1.6-1.3,3.1-1.6,4.4c-1.2,0.5-2.3,1.1-3.1,1.9
			c-1,0.9-1.7,2.1-2.2,3.4c-0.3,1-0.5,2-0.5,3c0,1.9,0.4,3.9,1.4,6l1.6,3.3h23c1.5,0,2.9-0.2,4.1-0.6c0.2-0.1,0.5-0.2,0.7-0.3
			c0.5,0.3,1,0.5,1.5,0.6v26.5h182.3v-12.7c2.2,0.3,3.8,0.5,5.1,0.5c4.6,0,6.5-2,8-4.1c0.3-0.4,0.6-0.8,1-1.2
			c2.7-2.9,4.7-7.5,6.5-12c0.7-1.6,1.3-3.1,1.9-4.3c1.9-4.1,5.1-8.6,5.3-8.8c0.2-0.2,3.4-4.7,7.3-8c1.9-1.6,4.7-4.2,7.1-7.1
			c2.7-3.4,4.1-6.3,4.4-9C277.6,235.2,278.2,230.3,275.3,228z"/>
		<path fill="#C49844" d="M218.1,155.9c0,0-10.3-21-17-16.4C194.3,144.1,210.4,152,218.1,155.9z"/>
		<path fill="#C49844" d="M221,132.3c-7.9-1.9-3,15.3-0.8,23.6C220.2,155.9,228.9,134.2,221,132.3z"/>
		<path fill="#C49844" d="M237.8,138.8c-5.2-6.2-11.5,10.5-14.7,18.5C223.1,157.4,243,145.1,237.8,138.8z"/>
	</g>
</g>
<g>
</g>
<g>
</g>
<g>
</g>
<g>
</g>
<g>
</g>
<g>
</g>
<g>
</g>
<g>
</g>
<g>
</g>
<g>
</g>
<g>
</g>
<g>
</g>
<g>
</g>
<g>
</g>
<g>
</g>
</svg>
