<?xml version="1.0" encoding="utf-8"?>
<!-- Generator: Adobe Illustrator 18.0.0, SVG Export Plug-In . SVG Version: 6.00 Build 0)  -->
<!DOCTYPE svg PUBLIC "-//W3C//DTD SVG 1.1//EN" "http://www.w3.org/Graphics/SVG/1.1/DTD/svg11.dtd">
<svg version="1.1" id="Layer_1" xmlns="http://www.w3.org/2000/svg" xmlns:xlink="http://www.w3.org/1999/xlink" x="0px" y="0px"
	 viewBox="0 0 298.8 327.9" enable-background="new 0 0 298.8 327.9" xml:space="preserve">
<g>
	<path fill="#FFD565" d="M151.1,307c-1,0-2.1-0.3-3-0.8L26.4,236c-1.9-1.1-3-3.1-3-5.2l0-140.5c0-2.1,1.1-4.1,3-5.2L148,14.8
		c0.9-0.5,2-0.8,3-0.8c1,0,2.1,0.3,3,0.8L275.6,85c1.9,1.1,3,3.1,3,5.2l0,140.5c0,2.1-1.1,4.1-3,5.2l-121.6,70.3
		C153.1,306.8,152.1,307,151.1,307z"/>
	<path fill="#44BC91" d="M151,20l121.7,70.2l0,140.5L151.1,301L29.4,230.8l0-140.5L151,20 M151,8c-2.1,0-4.1,0.5-6,1.6L23.3,79.9
		c-3.7,2.1-6,6.1-6,10.4l0,140.5c0,4.3,2.3,8.2,6,10.4l121.7,70.2c1.9,1.1,3.9,1.6,6,1.6c2.1,0,4.1-0.5,6-1.6l121.6-70.3
		c3.7-2.1,6-6.1,6-10.4l0-140.5c0-4.3-2.3-8.2-6-10.4L157,9.6C155.1,8.5,153,8,151,8L151,8z"/>
</g>
<g>
	<g>
		<g>
			<path fill="#07B89C" d="M274,237.6c-0.3-0.6-0.6-1.2-0.9-1.9c-0.5-1.1-1-2.2-1.6-3.3c-1.1-1.9-2.2-3.9-3.2-6.1
				c-1.6-3.1-3.2-6.3-5.2-9.3c-0.2-0.3-0.4-0.9-0.7-1.5c-0.5-1.3-1.1-3-2.4-4.5c-0.4-1.4-1.2-2.3-1.7-2.9c-1.3-4.5-3.4-8.4-5.5-12.2
				c-0.4-0.8-0.8-1.5-1.2-2.3l-0.4-0.8c-1.5-3-3.2-6.3-6.3-9c-0.8-0.9-1.6-1.7-2.4-2.5c-2.6-2.7-5.1-5.3-6.8-8.3l-0.1-0.1
				c-0.6-1-1.2-1.9-2-2.5c-1.2-1.9-3.3-3.1-5.7-3.5c-3-0.5-6-0.8-8.9-1.1c-0.6-0.1-1.1-0.1-1.7-0.2c-0.8-0.4-1.7-0.7-2.7-0.7
				c-0.5,0-1.3,0.1-2.1,0.4l-1.4,0c-1-0.5-2.3-0.9-3.8-0.9c-0.4,0-0.8,0-1.2,0.1c-0.1,0-0.1,0-0.2,0c-0.2,0-0.5,0-1.2-0.5
				c-3.2-2.3-7-3.7-11.3-4c-1.7-0.1-3.2-0.3-4.6-0.6c1.1-1.8,2-3.9,2.4-6.4c0.5-3.2-0.1-5.8-1.9-7.7c0.7-2.1,1.5-4.2,2.2-6.3
				c0.5-1.4,1-2.8,1.5-4.3c1.4-3.7,2.9-7.8,3.3-12.4c1-0.9,1.7-2,2.2-2.7c0.3-0.4,0.6-0.9,0.8-1.1c1.9-1.7,2.9-4,2.9-6.5
				c0.6-2.4,0.6-4.9,0-7.4l0-2.3c0,0,0.1-0.1,0.1-0.1c0.3-0.3,0.5-0.6,0.7-0.8c0.2-0.3,0.5-0.6,0.8-0.9c1.5-1.8,3.2-3.8,4.2-6.7
				c0.9-2.5,3.5-10-1.8-16.1c-2.3-2.7-5.2-5.6-9.1-7.2c-0.4-0.4-0.8-0.8-1.4-1.2c0.3-2.3,0.2-4.6,0.1-6.6c0-0.7,0-1.5,0-2.2
				c0.1-3.8-1.8-6.4-5.7-7.9c-2.1-1.9-4.8-2.9-7.7-2.7c-0.3,0-0.6,0-1.1-0.2c-1.2-0.3-2.5-0.7-3.8-1.1c-1.2-0.4-2.5-0.7-3.8-1.1
				c-1-0.3-1.9-0.5-2.9-0.8c-2.7-0.8-5.5-1.6-8.7-2c-0.1,0-0.2-0.1-0.3-0.1c-0.8-0.2-1.8-0.5-3.1-0.5c-1.4,0-2.8,0.4-4,1.1
				c-0.8,0.2-1.5,0.6-2.2,1.2l-0.4,0.2l-1,0.2l-0.7,0.5c-0.6,0.2-1.1,0.5-1.6,0.8c-1.1,0.5-2.1,1.1-3,1.6c-0.9,0.5-1.7,1-2.4,1.3
				c-0.1,0-0.1,0-0.2,0c-0.4,0-0.7,0-1.1,0c-1.9,0-3.6,0.5-5,1.5c-2.3,1-4,2.4-5.5,3.6c-0.7,0.6-1.4,1.2-2.1,1.6
				c-2,1.3-3.5,2.9-4.9,4.3c-1.2,1.3-2.3,2.4-3.3,2.9c-5,2.4-6.4,7-7.2,9.4c-0.4,1.3-1.1,2.4-2.3,3.6c-5.3,5.5-8.4,11.7-9,18.5
				c-0.5,1.5-0.5,2.9-0.3,3.7c-1,2-1.6,4-2.1,5.8c-0.2,0.6-0.3,1.1-0.5,1.7c-0.3,0.8-0.4,1.5-0.5,2.1c0,0.1-0.1,0.3-0.1,0.4
				c-1.9,2.5-2.5,5.3-2.7,7.6c-0.1,0.8-0.2,1.6-0.2,2.4c-0.1,1.4-0.2,2.7-0.5,3.8c-1.7,7.1,0.9,12.8,3.1,17.9c0.2,0.5,0.5,1,0.7,1.5
				c0.7,1.5,1.8,2.8,3.3,3.5c-0.5,0.2-1.1,0.5-1.7,0.7c-0.4,0.2-0.9,0.4-1.3,0.5l-2.6,0.4l-2.6,0c-1.4-0.1-2.7,0.1-3.7,0.3
				c-0.6,0.1-1.1,0.2-1.5,0.2c-0.1,0-0.1,0-0.1,0l-0.5-0.1l-0.5,0c-1,0-2-0.2-3.4-0.5l-0.8-0.2c-2.3-0.5-4.9-1.2-7.7-1.2
				c-1.8,0-3.4,0.2-5,0.7l-0.4,0.1l-0.4,0.2c-0.2,0.1-0.7,0.2-1.1,0.2c-1.3,0.2-3.4,0.6-5.2,2.1c-2.5,1.1-4.2,2.8-5.4,4.1
				c-0.5,0.5-0.9,1-1.3,1.3c-1.6,1.2-3.1,2.7-4.5,4.4c-4,3.2-6.5,7.2-8.1,10.1c-1.6,2.9-3.2,5.9-4.7,8.8c-2.8,5.3-5.6,10.7-8.8,15.7
				c-1.9,2.5-3.2,5-4.6,7.9c-4,8-6.8,14.8-8.9,21.3c-1.5,3-2.6,6.1-3.6,9.1c-0.3,0.9-0.6,1.8-0.9,2.8c-1.4,2.3-0.7,4.3-0.3,5.1
				c0.4,0.8,1.6,2.7,4.4,3l0.2,0l-0.2-0.2l44.8,1.3h173.5h41.4c1,0-39.4-1.2-38.5-1.2l6.9,0.1l3.6,0c0.2,0,0.6,0.2,0.9,0.2
				c0.9,0.2,2.1,0.5,3.4,0.5c1.1,0,2.3,0,3.7,0.1c1.6,0.2,3.2,0.2,5,0.2h15L274,237.6z M154.8,89.3
				C154.7,89.3,154.7,89.3,154.8,89.3L154.8,89.3C154.7,89.3,154.7,89.3,154.8,89.3z M154.6,89.3L154.6,89.3L154.6,89.3L154.6,89.3
				L154.6,89.3z M137,93.3L137,93.3L137,93.3L137,93.3z M142.4,128.2L142.4,128.2L142.4,128.2L142.4,128.2z M119.2,140L119.2,140
				L119.2,140L119.2,140z M123.2,110.6L123.2,110.6L123.2,110.6L123.2,110.6z M181.4,72L181.4,72L181.4,72L181.4,72z M191.3,101.4
				L191.3,101.4L191.3,101.4L191.3,101.4z M173,131.1L173,131.1L173,131.1L173,131.1L173,131.1z"/>
		</g>
		<g id="cara_jale.psd_1_">
			<g>
				<defs>
					<rect id="SVGID_1_" x="-42.6" y="15.6" width="376" height="273.8"/>
				</defs>
				<clipPath id="SVGID_2_">
					<use xlink:href="#SVGID_1_"  overflow="visible"/>
				</clipPath>
				<g transform="matrix(1 0 0 1 0 9.536743e-07)" clip-path="url(#SVGID_2_)">
					
						<image overflow="visible" width="842" height="613" xlink:href="8AB16DDAD14F9EFD.png"  transform="matrix(0.4466 0 0 0.4466 -42.594 15.6035)">
					</image>
				</g>
			</g>
		</g>
	</g>
	<g>
		<path fill="#28BA9C" d="M284.1,228C282.4,226.6,284.1,228.3,284.1,228C284.1,228,284.6,228,284.1,228
			C283.9,227.9,284.3,228.1,284.1,228c-0.1,0-7.7-7.9-11.5-9.7c-1.9-0.9-7.6-3.9-10.9-4.1c0.9-1.5-1.4,1.2,0,0
			c3.7-3.2,4.2-5.6,3.7-7.1c-0.3-0.8-1.7-3.9-1.9-4.5c-2.4-6.2-0.7-2.4-6-11c-2.8-4.5-7.9-9.7-10.1-12.4c-3-3.7-8.6-8.3-12.6-10
			c-4.9-2-9.4-3.8-12.9-4c-3.7-0.2-11.6,2.8-16.6,6.5c-2.6,2,0.6-0.6,0,0l-47.6,42.9c-0.5,0.4-0.9,0.9-1.3,1.5
			c-2.6,5.1-3.3,10.5-4.3,17.9l-0.1,1c-0.6,4.7,0.6,9.1,3.4,12.7c2.4,3,5.4,4.8,7.6,5.8c1,0.5,4.1,1.9,14.7,1.9c1.7,0,3.5,0,4.9-0.1
			c3.2-0.2,10.2-1.6,15.4-3c-0.9,1.2-1.8,2.4-2.4,3.3c-3.7,5.5-6.8,10.4-6.8,15c0,6.2,5.1,10,10.2,13c5.7,3.4,19.1,6.6,26.4,7.7
			c4.7,0.7,8.2,0.9,10.4,0.9c1,0,1.8,0,2.4-0.1c2.9,0.5,4.9,0.7,6.5,0.7c4.6,0,6.5-2,8-4.1c0.3-0.4,0.6-0.8,1-1.2
			c2.7-2.9,4.7-7.5,6.5-12c0.7-1.6,1.3-3.1,1.9-4.3c1.9-4.1,5.1-8.6,5.3-8.8c0.2-0.2,3.4-4.7,7.3-8c1.9-1.6,4.7-4.2,7.1-7.1
			c2.7-3.4,4.1-6.3,4.4-9C286.3,235.2,286.9,230.3,284.1,228z"/>
		<path fill-rule="evenodd" clip-rule="evenodd" fill="#EBE5DE" d="M161.9,216l41.7-34.1c0,0,8.8-8.9,14.7-8.6
			c5.8,0.3,18.4,4.8,22.5,9.9c4.1,5,12.6,18,13.2,21.6c0.6,3.6,3.4,7.3,0,10.4c-3.4,3-6.2,4-6.2,4s-0.9,1.8,2,2.1
			c2.9,0.3,12.2-0.2,15.2,1.2c3,1.4,8.6,5.1,9.9,6c1.3,0.9,2.8,1.1,2.8,1.1s5,2.2,4.7,5.8c-0.3,3.6-5.2,9-9.8,12.8
			c-4.5,3.8-8.1,8.9-8.1,8.9s-3.5,4.9-5.7,9.6c-2.2,4.6-4.5,11.9-7.5,15.1c-3,3.2-1.4,4.8-11.7,3c0,0-4.3,0.5-12.3-0.7
			c-7.9-1.2-20-4.3-24.6-7c-4.6-2.7-7.7-5.3-7.7-8.7c0-3.4,3.2-8.2,5.9-12.3c2.7-4,10.1-13,11.9-15.1c1.8-2.1,4.4-4.6,8.6-6.8
			c4.1-2.2,4-5.4,4-5.4s12.1-4.9,13.6-5.6c1.5-0.7,3.5-0.9,3.5-0.9s-12.8,5.4-15.7,6.4c-2.9,1-6.6,2.9-11,5.7
			c-4.3,2.8-9.7,8.1-14.3,9.8c-4.6,1.6-14.4,3.7-18,3.9c-3.6,0.2-13.7,0.3-17.2-1.3c-3.5-1.6-9.2-5.6-8.1-13.4
			C159,225.6,159.6,220.5,161.9,216z"/>
		<g>
			<path fill-rule="evenodd" clip-rule="evenodd" fill="#C5ADA6" d="M259,235.2c0.7,0.5,2,2,1.7,3.6c-0.3,1.5-0.3,1-1.7,0.8
				c-1.4-0.1-1.8-2.8-1.8-2.8l-0.6-1.6c0,0-1.8-0.5-2.5-0.8c-0.7-0.3-2-4.3-2-4.3s-1.1-1.9-1.3-3c-0.1-1.1,0.6-1.6,0-2.2
				c-0.6-0.6-1.1-0.3-1.1-1.3c0-1-1.1-2,0-2c1.1,0.1,4.9-0.1,6.2,0c1.3,0.1,2.2,0,2.2,0s0.8,1.5,0.6,2c-0.3,0.5,3.5,0.5,2.8,1.6
				c-0.7,1.1-2.8,1-2.9,1.9c-0.1,0.9,1.1,2.3,0.3,2.3c-0.8,0-1.3-1.1-2.1-0.8c-0.8,0.3-0.4,0.8-0.1,1.5c0.3,0.7,0.3,1.5,0.6,2.4
				c0.3,0.8,0.3,1.7,0.7,2c0.4,0.3,0.4,0.3,0.4,0.3L259,235.2z"/>
			<path fill-rule="evenodd" clip-rule="evenodd" fill="#C5ADA6" d="M240.1,222.6c0.2,1.8-1.1,5.3-2,6c-0.8,0.8-1.8,0.2-2.7,0
				c-0.8-0.2-0.8,0.5-1.4,0c-0.6-0.5-4.6-1.1-4.6-1.1L240.1,222.6z"/>
			<path fill-rule="evenodd" clip-rule="evenodd" fill="#C5ADA6" d="M196,270.8c0,0-0.8-5,0.7-7.5c1.5-2.5,3.2-5.7,3.8-6
				c0.6-0.3,4-6.7,6.3-9.1c2.3-2.4,1.7-1.4,3.2-2.8c1.5-1.4,1.5-1.4,1.5-1.4s0.3-2.5,2.8-4.1c2.5-1.6,3.5-4.7,5.6-4.6
				c0,0,3-1.5,3.2,0.6c0.2,2.1-2,4.3,0,4c2-0.4,3.3-1.6,3.2-1.3c-0.1,0.3-1.2-0.1-0.1,0.3c1.1,0.4,1-0.8,1-0.8l-2.1-1.5
				c0,0,0.5-2.9,2-1.2c1.5,1.7,0.8,4.8,1.5,4.6c0.7-0.2,1.8-1.2,1.8-1.2s0.4,0.6,1.1,1.2c0.7,0.6,0.3,1.2,3.7,2
				c3.4,0.8,4.6,1.2,4.5,2.2c-0.1,1-4.2-1.1-2.9,0.3c1.3,1.4,0.9,2.2,2.9,3.9c2.1,1.7,2.9,2,3.8,3.2c0.8,1.3,2.1,1,2.7,3.8
				c0,0,2.1,2,1.9,4.2c-0.2,2.2,0.5,7.7,0,8.8c-0.5,1.1-0.8,2.1-0.9,3.8c-0.1,1.7-0.4,2.5-0.3,3.1c0.1,0.6-0.3,0.4,0.6,1.3
				c0.8,0.8,0.4,0.8,0.8,2.4c0.4,1.5,1.3,5-0.8,5.6c-2.1,0.6-4.9,0.7-8.6,0c-3.7-0.7-6.8-1.4-9.3-1.4c-2.6,0-7.2-0.8-11.1-1.7
				c-3.9-0.8-7.4-1.8-9.1-2.1c-1.7-0.3-1.5-1.1-3.8-1.7c-2.2-0.6-4.3-1.8-5.9-2.9c-1.5-1.1-1.4-1.1-2.5-2.4
				C196,270.8,196,270.8,196,270.8z"/>
			<path fill-rule="evenodd" clip-rule="evenodd" fill="#C5ADA6" d="M249.3,267.1c2,0.7,3.2,1.1,1.9,2.5c-1.3,1.4-2.3,1.1-1.9,0
				C249.7,268.5,249.3,267.1,249.3,267.1z"/>
		</g>
		<path fill-rule="evenodd" clip-rule="evenodd" fill="#C5ADA6" d="M162.3,217.5c0.7,0,0.9-0.2,0.8,0.7c-0.1,1-0.8,1.4-0.8,1.4
			s1.2-0.7,1.5,0c0.2,0.7-1.1,1.5-0.7,2c0.4,0.5,0.4,1.3,0,3.1c-0.4,1.8,0.5,5.5,1.3,4.7c0.8-0.7,1-4.3,2-3.1c1,1.2,0.9,3.1,0,4.1
			c-0.9,1-2.7,1.3-1.6,1.6c1.1,0.2,2-0.1,2.4,0c0.4,0.1,1.4,0.2,1,1.3c-0.4,1.1-1.3,2.7-2.8,4c-1.4,1.3-3,2.8-1.2,2.2
			c1.8-0.6,1.7-2.2,2.4-2.3c0.8-0.1,0.1,0.9,0.8,0.8c0.7-0.1,0.4,0.8,2.2-0.6c1.8-1.3,2.7-1.8,2.7-2.3c0-0.5,0.2-1.2,0-1.7
			c-0.2-0.6-1-1.3-1.3-1.6c-0.3-0.2-1.6-0.9-0.9-1.5c0.7-0.6,1.6-1.8,1.6-1.8s1.3-0.4,1.3,0.8c0,1.2,0,0.9,0.9,2.9
			c0.9,2,1.4,2.6,2,1.6c0.6-1,1.1-2,1.7-1.3c0.6,0.7,0.7-2,1.9-1.6c1.2,0.4,0.2,1.6,1.2,1.2c1-0.4,0.9-0.4,1.6-1.2
			c0.7-0.8-0.1-0.7,1.1-1.5c1.2-0.8,1.2-2.3,1.4-1.4c0.2,0.9,0.6,1.4,0,2.3c-0.6,0.9,1.2,0.6,1.2,0.6s0.2-1,0.4-1.5
			c0.2-0.5,0.1-1.6,0.6-1.5c0.4,0.1,0.1-0.8,0.4,0.1c0.3,0.9,0.4,1.4,0.4,1.4s0.6-0.2,0.9,0c0.3,0.2,0.4,0.1,0.4-0.8
			c0-0.9-0.4-1.8,0-2.4c0.4-0.6,1.9-2.1,2.6-1c0.7,1.1-0.9,1.6-0.6,2.3c0.3,0.8,0.4,0.7,0.7,1.1c0.3,0.4,0.9-0.2,1.2-0.7
			c0.2-0.6,1.7-1.9,1.8-1c0.1,0.9-1.3,2.7,0,2.5c1.3-0.2,1.8-1.3,2.1-0.8c0.3,0.5,1-2.6,2.5-1.8c1.4,0.8,1.9,1.6,2.9,1.1
			c1-0.4,2.3-1.7,2.3-1.7s0.4-0.2,1.2-0.2c0.8,0,2-0.3,2-0.3s-1.3-1.6,0-2.1c1.3-0.5,2.2,0.5,2.4,0c0.2-0.5-0.4-1.5,0-2
			c0.4-0.5,0.3-0.8,1.5-0.7c1.3,0.1,1.2,0,1.8-0.1c0.7-0.1,2.1-1.9,0.7-2c-1.4-0.1-1.3,0.2-2-0.5c-0.6-0.7-0.4-1.2-0.6-2
			c-0.2-0.8-0.2-1.3,0-2c0.2-0.7,0-2.3,0-2.3h-1.6c0,0,0.2-1.5,0.1-2.5c-0.2-1-2.1-1.3-1.1-1.7c1-0.4,2.4-0.2,2.6,0.6
			c0.2,0.8,1.3,2.3,1.6,1.2c0.3-1.1,0.4-1.7,0.5-2.2c0.1-0.5,1-1.3,1-1.3s1.4,1.3,1.8,1.7c0.5,0.4,1.4,3,1.5,3.5
			c0.1,0.4,0.4,1.6-0.4,0.8c-0.9-0.8-1.3-2.4-2.7-1.6c-1.3,0.9,0,0.8,1.2,2c1.2,1.2,2,0.9,1.6,1.8c-0.4,0.9-0.3,1.9-1.3,0.8
			c-1-1.1-1.8-1.6-2.1-1.2c-0.3,0.3-0.6-0.1-0.1,1.4c0.5,1.6-0.3,2.2,0.7,2.3c1,0.1,1.9-0.8,1.9-0.8s0.6,0.5,1.5,0.9
			c0.8,0.4,0.2-0.4,1.7,0.6c1.5,1,2.3,1,2.4,1.4c0,0.4,1.2,2,1.2,2s0.1,0.6-0.7,0.5c-0.8-0.1-3-0.2-2.9,0.5c0,0.7,0.2-0.1,0,1
			c-0.2,1.1-0.7,1.7-0.2,2c0.5,0.2,0.5-0.1,1.6-0.1c1.1,0-0.1-0.1,2.2,0.7c2.3,0.8,1.4,0.6,2.1,0.8c0.7,0.2,1,0.4,1,0.4v1
			c0,0-10,5.2-17.7,11.4c0,0-7,5.4-18,7.2c-11,1.8-23.7,1.8-27.7-1.9c0,0-2.4-2.2-1.8-3.3c0.7-1.1,0.7-1.5,0.7-1.5s0.9-1.7-0.8-1
			c-1.7,0.7-1.7,1.6-2,1.1c-0.3-0.4-1.9-3.2-1-5.2c0.9-2-0.3-4.4-0.1-4.7c0.2-0.3,0.6-0.4,1-2.6c0.4-2.1,0.1-2.2,0.3-3.2
			c0.2-1,0.3-3.5,0.9-4.3c0.6-0.9,1.2-2.1,1.2-2.1L162.3,217.5z"/>
		<g>
			<path fill-rule="evenodd" clip-rule="evenodd" fill="#C69972" d="M215.6,176c0.1,0.7-2.8,1.3-3,2.2c-0.2,0.9-1,4.1-0.7,5.2
				c0.3,1.1,0.7,2,0.8,2.9c0,0-1.2,1.7-0.9,3.1c0.3,1.4,2.2,4.1,1.9,5.2c-0.3,1.1-2.3,1.2-1.9,1.8c0.4,0.6,1.7,1.2,1.9,2.6
				c0.1,1.3,1.4,1.8,1.5,2.7c0.1,0.9,0.8,2.3,0.4,2.8c-0.3,0.4-0.1,1.1,0.7,2.6c0.8,1.4,1.6,1,1.6,1.9c0,0.9,0.3,1.2,1,1.9
				c0.7,0.7,1,1.8,2.7,2.2c1.7,0.4,2.6,0.4,4.2,1.1c1.7,0.7,2.2,0.9,3.7,0c0,0,0.9,1.1,1.6,1.4c0.7,0.3,0.6,1.6,3.1,0.9
				c2.6-0.7,5.2-1.6,6.9-2.1c1.7-0.6,3.9-1.3,3.9-1.3s0.9,0.1,1-0.7c0.1-0.8-1.3-2.1-0.7-2.4c0.7-0.3,1.2,0.9,1.7,1.9
				c0.4,1,0.4,1.4,1.6,1.2c1.1-0.2,1.3-0.3,2-0.6c0.7-0.2,1-0.9,1.2-0.6c0.2,0.3-0.3,1.4,0.4,1.4c0.8,0,0.1-0.7,1.4-0.9
				c1.3-0.2,1.3-0.2,1.3-0.2s-0.3-1.8-0.9-2.9c-0.6-1.1-0.3-2.2-1.2-2.8c-0.9-0.6-0.9-0.4-0.9-1c0-0.6-0.2-1.2,0.1-2.2
				c0.3-1-0.2-1-0.8-2.2c-0.6-1.2-1.3-1.8-1.2-2.9c0.1-1.1-1.2-2.8-1.4-3.3c-0.2-0.6-2.2-2.6-2.8-2.9c-0.6-0.3-1.1,0.1-1.1-0.9
				c0-1,1.1-2.8-1.1-3.1c-2.2-0.3-3.5-0.7-3.8-1.6c-0.3-0.9-0.4-3-0.7-3.5c-0.2-0.4-0.4-1.1-1.8-1.6c-1.3-0.4-1.8-2.1-2.4-2.2
				c-0.7-0.1-1.6-0.4-1.5,0.7c0.1,1.1,1.4,2.7,0.9,2.9c-0.6,0.2-2.6,0.2-2.6,0.2s0.1,1-0.7,0.4c-0.8-0.6-1-0.7-1.1-1.1
				c-0.1-0.4,0.4-0.9-0.2-1.1c-0.7-0.2-1.3-1-0.8-1.8c0.6-0.8,1.3-1.8,1.3-1.8s0.4-0.9,0-1c-0.4-0.1-2.8-1.7-4.7-1.4
				c-1.9,0.2-1.1,0.8-0.6,1.6c0.6,0.8,1.1,2,0.3,1.7c-0.8-0.3-2.6-0.8-2.8-1.6c-0.2-0.8,0-1.7,0-1.7s-2.1-0.9-4.1-0.8
				C216.4,174.6,215.6,176,215.6,176z"/>
			<path fill-rule="evenodd" clip-rule="evenodd" fill="#CA8D62" d="M211.2,201.9c0,0-1.2,0.3-0.9,1.2c0.3,0.9,0.8,0.4,1.5,1.7
				c0.7,1.2,0.4,3.4,1.4,3.3c1-0.1,1-2.1,1.1-3.6c0.1-1.6,0.6-2.5-0.4-2.5c-1,0-2,0-2,0L211.2,201.9z"/>
			<path fill-rule="evenodd" clip-rule="evenodd" fill="#CA8D62" d="M243.7,215.9c0,0-1.8,0.7-1.7,0.9c0.1,0.1-0.1,1.8,1.7,1.5
				c1.8-0.3,3.1,0,4.1-0.6c1-0.6-0.8-1-1-1.8c-0.2-0.8-0.1-2.1-1.2-1.6C244.4,214.9,243.7,215.9,243.7,215.9z"/>
			<path fill-rule="evenodd" clip-rule="evenodd" fill="#CA8D62" d="M228.8,220.6c0,0-0.6-1.3-1.2-0.9c-0.7,0.4-0.1,1.2,0,2.1
				c0.1,0.9-0.4,1.9,0.5,1.7c0.9-0.2,1.2-0.4,2-0.9c0.8-0.4,0.7-1,0.7-1v-0.7c0,0,0.1-0.6-0.9-0.4c-1,0.2-0.7,0.2-0.7,0.2
				L228.8,220.6z"/>
			<path fill-rule="evenodd" clip-rule="evenodd" fill="#CA8D62" d="M220.1,221.6c0.8,0.2,1.9,0.4,2.9,0.5c1,0.1,1.8,0,1.8,0
				s1.7-0.8,1.6,0c-0.1,0.8-0.1,1.6-1.1,1.4c-1-0.1-3.3-0.5-3.3-0.5s-0.9-0.7-1.2-0.5c-0.3,0.2-0.6,0-0.6,0S219.7,221.5,220.1,221.6
				z"/>
			<path fill-rule="evenodd" clip-rule="evenodd" fill="#CA8D62" d="M205.6,239.7c-1.2-0.6-2.2-1.6-2.1-2c0.1-0.4,1.1-0.7,2.8-1
				c1.7-0.3,4.8-1.7,5.5-1.9c0.7-0.2,4.7-2.8,5.5-2.9c0.8-0.1,4.3-3.1,5.9-3.2c1.6-0.1,2,0,2,0s-10.8,6.1-12.8,8.1
				c-2.1,2-4,3-5.1,3.7c-1.1,0.7-1.4,2.1-1.6,0.7C205.6,239.7,205.6,239.7,205.6,239.7z"/>
		</g>
		<path fill-rule="evenodd" clip-rule="evenodd" fill="#C69972" d="M197.1,271.9c0,0-1-2.8-0.7-3.7c0.3-1,0.1-1.7,0.3-2.4
			c0.2-0.7-0.5-1,0.4-1.4c0.8-0.4,1.5-0.6,1.8-1.8c0.3-1.3-1.5-2.2,0-2c1.5,0.3,1,1.7,1.8,1.4c0.8-0.3,0.8-2.4,0.8-2.4
			s-0.1-1.4,0-1.5c0.1-0.1,0.3-0.2,1-0.2c0.7,0,0.7,0,0.7,0s0.3-1,0-1.7c-0.3-0.7-1-1.6-0.4-1.9c0.6-0.3,2-1.1,2.5,0
			c0.4,1.1,2.5,3,2.5,3v-4.9c0,0-1-0.5,0-0.5c1,0,0.9,0,0.9,0s1-0.2,2.1-3.6c1.1-3.3-0.4-3.9,0.7-4.3c1.1-0.4,0.1-0.6,1.1-0.5
			c1,0.1,0.9-0.1,1.7-0.1c0.8,0.1,2.4-1.7,2.4-1.7s0.7-2.3,1.5-2c0.8,0.3,3.2-0.1,4.1,0c0.9,0,1.7,1.9,4.1,2.6
			c2.4,0.7,2,0.8,3.1,1.3c1.1,0.4,3.7,1.4,3.9,1.7c0.1,0.3,1.2,0.7,1.2,0.7s0.5,1.1,1.6,2.1c1.1,1,2.7,1.8,2.7,1.8s1.6,1.5,2.1,1.8
			c0.4,0.3,2.2,1,2.5,1.5c0.3,0.6,0.4,2.1,0.7,2.6c0.3,0.5,0.2,1.1,1,2.3c0.7,1.3,0,1.3,0.6,2.2c0.6,1-0.4,3.8,0,4.3
			c0.4,0.6-0.1,2.7,0.2,3.4c0.2,0.7,0.6,3.5,0,4.6c-0.6,1.1-2,3.4-2,4.1s1,1.8,2.3,2.7c1.3,0.8,1.3,2.8,1.2,3.4
			c-0.1,0.6,0.6,1.1-0.8,1.3c-1.4,0.1-4.3,0.4-5,0.6c-0.7,0.1-9.1-1.8-9.8-1.7c-0.7,0.1-2.5-0.1-4.3-0.3c-1.8-0.1-4.8-0.6-5.5-0.8
			c-0.7-0.3-2-0.4-3.5-0.7c-1.5-0.3-2.8-0.7-5-1c-2.2-0.3-7.1-2.1-8.7-3.1c-1.5-1-1.5-1.3-2.9-2
			C200.3,274.4,197.1,271.9,197.1,271.9z"/>
	</g>
	<path fill="#28BA9C" d="M226.8,155.9c0,0-10.3-21-17-16.4C203.1,144.1,219.1,152,226.8,155.9z"/>
	<path fill="#28BA9C" d="M229,155.9c0,0,8.7-21.7,0.8-23.6C221.9,130.4,226.7,147.6,229,155.9z"/>
	<path fill="#28BA9C" d="M231.9,157.4c0,0,19.9-12.3,14.7-18.5C241.3,132.6,235,149.3,231.9,157.4z"/>
	<g>
		<g>
			<path fill="#28BA9C" d="M92.9,233.6c-0.8-1.5-1.8-2.7-3.2-3.5c-1.1-0.7-2.3-1-3.6-1.2c-2.2-0.2-4.6,0.4-7,1.9l-2.5,1.5l-0.2,2.3
				L63,251.9h-0.8c-1.5,0-2.8,0.2-4,0.7c-1.3,0.5-2.5,1.2-3.4,2c-1,1-1.7,1.7-2.2,3c-0.3,0.9-0.5,1.3-0.5,2.3h-1.3l7.7-15.6
				c0.8-1.6,1.3-2.8,1.5-4.1c0.3-1.5,0.4-2.8,0.2-4.1c-0.2-1.6-0.8-2.9-1.7-4c-0.7-0.9-1.5-1.6-2.5-2.1l-0.6-0.3
				c-1.9-0.9-4.1-1.2-6.6-0.8l-3.1,0.4L32.5,257c-0.8,1.6-1.3,3.1-1.6,4.4c-1.2,0.5-2.3,1.1-3.1,1.9c-1,0.9-1.7,2.1-2.2,3.4
				c-0.3,1-0.5,2-0.5,3c0,1.9,0.4,3.9,1.4,6l1.6,3.3h23c1.5,0,2.9-0.2,4.1-0.6c0.2-0.1,0.5-0.2,0.7-0.3c1.8,1,4.1,1.4,6.8,1.1
				l2.4-0.4l6.8-8.8H75c0.2,1,0.6,2.8,1.1,3.8c1,2.1,2.5,3.2,3.5,3.7c1.6,0.9,3.5,1.2,5.3,0.9l0.6,1.1l0.1-1.2
				c1.6-0.3,3.1-1.1,4.8-2.2l2.3-1.6l1.8-32.4c0.1-1.8,0-3.3-0.2-4.5C93.9,236,93.5,234.7,92.9,233.6z"/>
			<path fill="#28BA9C" d="M234.4,237.9c-0.1-2-0.7-4-1.9-6.1l-1.7-2.9h-24.6c-1.5,0-2.9,0.2-4.1,0.6c-1.4,0.4-2.6,1.1-3.6,1.9
				c-1.1,0.9-1.9,2.1-2.4,3.3c-0.4,1-0.6,2.1-0.6,3.2c0,1.9,0.5,4,1.6,6.1l-6.6,13.9l0-0.3c-0.4,0.9-0.8,2.3-1,2.3h-3.6l7.7-15.6
				c0.8-1.6,1.3-2.8,1.5-4.1c0.3-1.5,0.4-2.8,0.2-4.1c-0.2-1.6-0.8-2.9-1.7-4c-0.7-0.9-1.5-1.6-2.5-2.1l-0.6-0.3
				c-1.9-0.9-4.1-1.2-6.6-0.8l-3.1,0.4l-7.6,16l0.2-3.3c0.1-1.8,0-3.3-0.2-4.5c-0.2-1.5-0.6-2.7-1.2-3.8c-0.8-1.5-1.8-2.7-3.2-3.5
				c-1.1-0.7-2.3-1-3.6-1.2c-2.2-0.2-4.6,0.4-7,1.9l-2.5,1.5l-0.2,2.4l-12.4,15.7c0-0.1,0.1-0.2,0.1-0.3c0.4-1,0.8-2.1,1.2-3.3
				c0.1-0.2,0.1-0.4,0.2-0.5c1.1-0.5,2.1-1.1,2.9-1.9c1-1,1.8-2.3,2.1-3.7c0.2-0.9,0.3-1.8,0.3-2.7l0-0.2c-0.1-1.8-0.6-3.7-1.6-5.8
				l-1.6-3.2h-21.1c-1.5,0-2.8,0.2-3.9,0.7c-1.3,0.5-2.5,1.2-3.4,2.1c-1,1-1.7,2.2-2.1,3.5c-0.3,0.9-0.4,1.9-0.4,2.8
				c0,1.8,0.4,3.6,1.3,5.7l1.5,3.3h6.1c-0.8,1-1.6,3.3-2.4,4.9c-0.4-0.6-0.9-1.1-1.4-1.6c-1.3-1.1-2.7-1.8-4.4-2.1l-0.4-0.1
				c-2.1-0.3-3.9,0-5.3,0.8c-0.9,0.5-1.8,1.2-2.8,2.2l-0.2,0.2c-1.5,1.7-2.8,3.7-3.7,5.9c-1,2.4-1.4,4.8-1.3,7.3l0,0.1
				c0.2,2.9,1,5.5,2.6,7.9c1.7,2.6,4.2,4.5,7.2,5.5c1.7,0.5,3.3,0.8,4.9,0.8c1.1,0,2.3-0.1,3.4-0.4c2.3-0.6,4.5-1.6,6.5-3
				c1.2-0.9,2.3-1.9,3.4-3c0.1,0.5,0.2,1,0.4,1.4c0.6,1.4,1.6,2.6,2.8,3.5c2,1.4,4.5,1.9,7.6,1.6l2.4-0.4l6.8-8.8h3.2
				c0.2,1,0.6,2.8,1.1,3.8c1,2.1,2.5,3.2,3.5,3.7c1.3,0.7,2.8,1.1,4.2,1l0.2,0.4h1.1l0.3,0.7l0-0.7H186c0.2,0,0.4,0,0.6,0l0,0h24.8
				c1.6,0,3-0.2,4.2-0.6c1.4-0.4,2.7-1.1,3.7-1.9c1.1-1,2-2.2,2.4-3.6c0.4-1,0.5-2.1,0.5-3.1l0-0.2c-0.1-2-0.7-3.9-1.9-6l-0.6-1.1
				c1.2-0.8,2.1-1.9,2.6-3.2c0.6-1.4,0.9-2.9,0.9-4.5l0-0.2c-0.1-1.4-0.3-3-0.7-4.7l-0.7-2.9h1.6c1.6,0,3,0,4.1-0.4
				c1.4-0.4,2.7-1,3.7-1.8c1.2-1,2.1-2.2,2.6-3.6c0.3-1,0.5-2,0.5-3.1L234.4,237.9z"/>
		</g>
		<g>
			<path fill="#FFFFFF" d="M29.2,270.1c0-0.4,0.1-0.8,0.2-1.2c0.1-0.4,0.4-0.8,0.7-1.1c0.3-0.3,0.8-0.6,1.4-0.8
				c0.6-0.2,1.3-0.3,2.2-0.3h1.9c-0.6-0.4-0.9-1.1-0.9-2.2c0-1.1,0.4-2.7,1.4-4.7L48,235c1.4-0.2,2.6-0.1,3.5,0.4
				c0.3,0.2,0.7,0.5,0.9,0.8c0.3,0.3,0.5,0.8,0.5,1.4c0.1,0.6,0,1.2-0.1,2.1c-0.2,0.8-0.5,1.8-1.1,3l-11.6,24.2h12.9
				c0.7,1.3,1,2.4,1,3.3c0,0.4-0.1,0.8-0.2,1.2c-0.1,0.4-0.4,0.8-0.7,1.1c-0.3,0.3-0.8,0.6-1.4,0.8c-0.6,0.2-1.4,0.3-2.3,0.3H30.1
				C29.5,272.2,29.2,271.1,29.2,270.1z"/>
			<path fill="#FFFFFF" d="M60.5,273.8c-1.7,0.2-3,0-3.8-0.6c-0.3-0.2-0.6-0.6-0.8-1c-0.2-0.4-0.2-1-0.1-1.6
				c0.1-0.7,0.4-1.5,0.9-2.4c0.5-0.9,1.3-2.1,2.3-3.3h-2c-0.6-1.3-0.9-2.4-0.8-3.3c0-0.4,0.1-0.8,0.2-1.2c0.1-0.4,0.4-0.8,0.7-1.1
				c0.3-0.3,0.8-0.6,1.3-0.8c0.6-0.2,1.3-0.3,2.1-0.3h3.6l16.2-20.6h0.1l0.1-1.4c1.3-0.8,2.4-1.2,3.4-1c0.4,0,0.8,0.2,1.2,0.4
				c0.4,0.2,0.7,0.6,1,1.1c0.3,0.5,0.5,1.2,0.6,2.1c0.1,0.9,0.2,2,0.1,3.3l-1.6,29.6c-1.3,0.9-2.5,1.4-3.5,1.4
				c-0.4,0-0.8-0.1-1.2-0.3c-0.4-0.2-0.7-0.6-1-1.2c-0.3-0.6-0.5-1.3-0.6-2.2c-0.1-0.9-0.2-2.1-0.1-3.6l0.1-2
				c-0.3,0.3-0.8,0.5-1.3,0.7c-0.5,0.2-1.2,0.3-2,0.3h-8.3L60.5,273.8z M72.7,258.2h6.5c0,0,0,0.1,0.1,0.1c0,0,0.1,0.1,0.2,0.3
				L80,249L72.7,258.2z"/>
			<path fill="#FFFFFF" d="M106.9,264.9c-0.1-1.7,0.2-3.3,0.9-4.9c0.7-1.6,1.6-3,2.7-4.3c0.6-0.6,1.1-1,1.5-1.2
				c0.4-0.2,1.1-0.3,1.9-0.2c0.7,0.1,1.3,0.4,1.8,0.9c0.5,0.4,0.7,1,0.6,1.8c-0.1,0.7-0.4,1.5-0.8,2.2c-0.5,0.8-0.9,1.5-1.3,2.3
				c-0.4,0.8-0.7,1.6-0.8,2.4c-0.1,0.8,0.1,1.5,0.6,2.3c0.2,0.3,0.5,0.5,0.7,0.6c0.3,0.1,0.6,0.2,0.9,0.2c0.3,0,0.6,0,0.9-0.1
				c0.3-0.1,0.6-0.2,0.9-0.3c0.8-0.3,1.5-0.8,2.1-1.4c0.6-0.6,1.1-1.2,1.6-1.8c0.9-1.1,1.6-2.3,2.3-3.4c0.6-1.2,1.3-2.4,1.9-3.6
				c1.2-2.4,2.4-4.8,3.6-7.2c1.2-2.4,2.3-4.8,3.6-7.2h-11.6c-0.6-1.3-0.8-2.4-0.8-3.3c0-0.4,0.1-0.8,0.2-1.2
				c0.1-0.4,0.3-0.8,0.7-1.1c0.3-0.3,0.7-0.6,1.3-0.8c0.5-0.2,1.2-0.3,2-0.3h17.6c0.6,1.3,1,2.4,1,3.3c0,0.4-0.1,0.8-0.2,1.2
				c-0.1,0.4-0.3,0.8-0.6,1.1c-0.3,0.3-0.7,0.6-1.3,0.8c-0.5,0.2-1.2,0.3-2.1,0.3h-1c0.1,0.3,0.2,0.5,0.2,0.7c0.2,1,0.1,2-0.2,3.1
				c-0.3,1.1-0.7,2-1,2.9c-0.3,0.9-0.7,1.7-1.1,2.5c-0.4,0.8-0.8,1.6-1.2,2.4c-0.9,1.7-1.7,3.4-2.5,5.1c-0.8,1.7-1.7,3.4-2.6,5.1
				c-0.8,1.4-1.8,2.7-2.9,4.1c-1.1,1.4-2.4,2.6-3.8,3.6c-1.4,1-2.9,1.7-4.5,2.1c-1.6,0.4-3.3,0.3-5.1-0.3c-1.8-0.6-3.2-1.7-4.2-3.2
				C107.6,268.4,107,266.7,106.9,264.9z"/>
			<path fill="#FFFFFF" d="M139.5,273.8c-1.7,0.2-3,0-3.8-0.6c-0.3-0.2-0.6-0.6-0.8-1c-0.2-0.4-0.2-1-0.1-1.6
				c0.1-0.7,0.4-1.5,0.9-2.4c0.5-0.9,1.3-2.1,2.3-3.3h-2c-0.6-1.3-0.9-2.4-0.8-3.3c0-0.4,0.1-0.8,0.2-1.2c0.1-0.4,0.4-0.8,0.7-1.1
				c0.3-0.3,0.8-0.6,1.3-0.8c0.6-0.2,1.3-0.3,2.1-0.3h3.6l16.2-20.6h0.1l0.1-1.4c1.3-0.8,2.4-1.2,3.4-1c0.4,0,0.8,0.2,1.2,0.4
				c0.4,0.2,0.7,0.6,1,1.1c0.3,0.5,0.5,1.2,0.6,2.1c0.1,0.9,0.2,2,0.1,3.3l-1.6,29.6c-1.3,0.9-2.5,1.4-3.5,1.4
				c-0.4,0-0.8-0.1-1.2-0.3c-0.4-0.2-0.7-0.6-1-1.2c-0.3-0.6-0.5-1.3-0.6-2.2c-0.1-0.9-0.2-2.1-0.1-3.6l0.1-2
				c-0.3,0.3-0.8,0.5-1.3,0.7c-0.5,0.2-1.2,0.3-2,0.3h-8.3L139.5,273.8z M151.8,258.2h6.5c0,0,0,0.1,0.1,0.1c0,0,0.1,0.1,0.2,0.3
				l0.6-9.6L151.8,258.2z"/>
			<path fill="#FFFFFF" d="M164.3,270.1c0-0.4,0.1-0.8,0.2-1.2c0.1-0.4,0.4-0.8,0.7-1.1c0.3-0.3,0.8-0.6,1.4-0.8
				c0.6-0.2,1.3-0.3,2.2-0.3h1.9c-0.6-0.4-0.9-1.1-0.9-2.2c0-1.1,0.4-2.7,1.4-4.7L183,235c1.4-0.2,2.6-0.1,3.5,0.4
				c0.3,0.2,0.7,0.5,0.9,0.8c0.3,0.3,0.5,0.8,0.5,1.4c0.1,0.6,0,1.2-0.1,2.1c-0.2,0.8-0.5,1.8-1.1,3l-11.6,24.2h12.9
				c0.7,1.3,1,2.4,1,3.3c0,0.4-0.1,0.8-0.2,1.2c-0.1,0.4-0.4,0.8-0.7,1.1c-0.3,0.3-0.8,0.6-1.4,0.8c-0.6,0.2-1.4,0.3-2.3,0.3h-19.4
				C164.5,272.2,164.2,271.1,164.3,270.1z"/>
			<path fill="#FFFFFF" d="M188.6,273.5c-0.7-1.3-1-2.4-0.9-3.3c0-0.4,0.1-0.8,0.2-1.2c0.2-0.4,0.4-0.8,0.8-1.1
				c0.4-0.3,0.9-0.6,1.5-0.8c0.6-0.2,1.5-0.3,2.4-0.3h1.5c-0.6-0.4-0.9-1-1-2c-0.1-0.9,0.2-2.3,1-4l9-19h-2.5
				c-0.7-1.3-1-2.4-0.9-3.3c0-0.4,0.1-0.8,0.2-1.2c0.2-0.4,0.4-0.8,0.8-1.1c0.4-0.3,0.9-0.6,1.5-0.8c0.6-0.2,1.5-0.3,2.4-0.3H226
				c0.7,1.3,1.1,2.4,1.2,3.3c0,0.4-0.1,0.8-0.2,1.2c-0.1,0.4-0.4,0.8-0.8,1.1c-0.4,0.3-0.9,0.6-1.6,0.8c-0.7,0.2-1.5,0.3-2.6,0.3
				h-13c0.2,0.5,0.3,1.2,0.3,1.9c-0.1,0.8-0.4,1.8-1,3l-2.4,5h9.7c0.3,1.3,0.5,2.4,0.5,3.3c0,0.8-0.2,1.6-0.4,2.3
				c-0.3,0.7-0.9,1-1.9,1H204c-0.1-0.2-0.1-0.4-0.2-0.6c-0.1-0.3-0.1-0.7-0.2-1.4l-5.1,10.4h15.3c0.7,1.3,1.1,2.4,1.2,3.3
				c0,0.4-0.1,0.8-0.2,1.2c-0.1,0.4-0.4,0.8-0.8,1.1c-0.4,0.3-0.9,0.6-1.5,0.8c-0.7,0.2-1.5,0.3-2.6,0.3H188.6z"/>
		</g>
	</g>
</g>
<g>
</g>
<g>
</g>
<g>
</g>
<g>
</g>
<g>
</g>
<g>
</g>
<g>
</g>
<g>
</g>
<g>
</g>
<g>
</g>
<g>
</g>
<g>
</g>
<g>
</g>
<g>
</g>
<g>
</g>
</svg>
