<?xml version="1.0" encoding="utf-8"?>
<!-- Generator: Adobe Illustrator 18.0.0, SVG Export Plug-In . SVG Version: 6.00 Build 0)  -->
<!DOCTYPE svg PUBLIC "-//W3C//DTD SVG 1.1//EN" "http://www.w3.org/Graphics/SVG/1.1/DTD/svg11.dtd">
<svg version="1.1" id="Layer_1" xmlns="http://www.w3.org/2000/svg" xmlns:xlink="http://www.w3.org/1999/xlink" x="0px" y="0px"
	 viewBox="0 0 766.2 1029.1" style="enable-background:new 0 0 766.2 1029.1;" xml:space="preserve">
<style type="text/css">
	.st0{fill:#FFD64A;}
	.st1{fill:#50BC8C;}
	.st2{fill:#2DB89A;}
	.st3{fill:#3BBA99;}
	.st4{fill-rule:evenodd;clip-rule:evenodd;fill:#EBE5DD;}
	.st5{fill-rule:evenodd;clip-rule:evenodd;fill:#C4ADA4;}
	.st6{fill-rule:evenodd;clip-rule:evenodd;fill:#C49A6B;}
	.st7{fill-rule:evenodd;clip-rule:evenodd;fill:#C88E5B;}
	.st8{fill:#FFFFFF;}
	.st9{fill:#E5E5F8;}
	.st10{fill:#E2EDEA;}
	.st11{fill:#CBCBD8;}
	.st12{opacity:0.5;}
	.st13{clip-path:url(#SVGID_6_);}
	.st14{fill:#FED64B;}
	.st15{fill:#23A37E;}
	.st16{fill:#FFD64A;stroke:#FFD64A;stroke-width:5;stroke-miterlimit:10;}
	.st17{fill:#359B7E;}
	.st18{clip-path:url(#SVGID_10_);}
	.st19{fill:#2FA081;}
 
    .character,.video1,.video2,.video3 {
        display:none;
    }
</style>
<g class="character">
	<g>
		<path class="st0" d="M559.2,1022.3c-1.2,0-2.4-0.3-3.4-0.9l-138.1-79.7c-2.1-1.2-3.4-3.5-3.4-5.9l-0.1-159.5
			c0-2.4,1.3-4.7,3.4-5.9l138-79.8c1.1-0.6,2.2-0.9,3.4-0.9c1.2,0,2.4,0.3,3.4,0.9l138.1,79.7c2.1,1.2,3.4,3.5,3.4,5.9l0.1,159.5
			c0,2.4-1.3,4.7-3.4,5.9l-138,79.8C561.6,1022,560.4,1022.3,559.2,1022.3z"/>
		<path class="st1" d="M559.1,696.5l138.1,79.7l0.1,159.5l-138,79.8l-138.1-79.7l-0.1-159.5L559.1,696.5 M559.1,682.9
			c-2.4,0-4.7,0.6-6.8,1.8l-138,79.8c-4.2,2.4-6.8,6.9-6.8,11.8l0.1,159.5c0,4.9,2.6,9.4,6.8,11.8l138.1,79.7
			c2.1,1.2,4.5,1.8,6.8,1.8c2.4,0,4.7-0.6,6.8-1.8l138-79.8c4.2-2.4,6.8-6.9,6.8-11.8l-0.1-159.5c0-4.9-2.6-9.4-6.8-11.8
			l-138.1-79.7C563.8,683.5,561.5,682.9,559.1,682.9L559.1,682.9z"/>
	</g>
	<g>
		<g>
			<g>
				<path class="st2" d="M698.7,943.3c-0.3-0.7-0.7-1.3-1-2.1c-0.5-1.3-1.1-2.5-1.8-3.7c-1.3-2.2-2.4-4.4-3.7-6.9
					c-1.8-3.5-3.6-7.1-5.9-10.5c-0.2-0.4-0.5-1.1-0.8-1.8c-0.6-1.5-1.3-3.4-2.7-5.1c-0.5-1.6-1.4-2.7-1.9-3.3
					c-1.5-5.1-3.9-9.6-6.2-13.9c-0.5-0.9-0.9-1.7-1.4-2.6l-0.5-1c-1.7-3.4-3.7-7.1-7.1-10.2c-0.9-1-1.8-1.9-2.7-2.9
					c-3-3.1-5.8-6.1-7.7-9.4l-0.1-0.1c-0.6-1.2-1.4-2.1-2.3-2.9c-1.4-2.1-3.7-3.6-6.5-4c-3.4-0.5-6.8-0.9-10.1-1.2
					c-0.6-0.1-1.3-0.1-1.9-0.2c-0.9-0.5-2-0.7-3-0.7c-0.6,0-1.4,0.1-2.4,0.5l-1.6,0c-1.1-0.6-2.6-1-4.3-1c-0.4,0-0.9,0-1.3,0.1
					c-0.1,0-0.1,0-0.2,0c-0.2,0-0.6,0-1.4-0.6c-3.6-2.6-7.9-4.2-12.8-4.6c-1.9-0.2-3.7-0.3-5.3-0.6c1.2-2.1,2.3-4.4,2.8-7.2
					c0.6-3.6-0.1-6.5-2.2-8.7c0.8-2.3,1.7-4.7,2.5-7.1c0.5-1.6,1.1-3.2,1.7-4.9c1.6-4.2,3.3-8.9,3.8-14.1c1.1-1.1,1.9-2.2,2.5-3.1
					c0.3-0.5,0.7-1,0.9-1.2c2.1-2,3.3-4.6,3.3-7.4c0.7-2.8,0.6-5.6-0.1-8.3l0-2.6c0-0.1,0.1-0.1,0.1-0.1c0.3-0.3,0.6-0.6,0.8-1
					c0.3-0.3,0.6-0.7,0.9-1c1.7-2,3.7-4.4,4.8-7.6c1-2.8,4-11.3-2-18.3c-2.6-3-5.9-6.3-10.3-8.2c-0.4-0.5-1-0.9-1.6-1.3
					c0.3-2.6,0.2-5.2,0.2-7.4c0-0.8-0.1-1.7-0.1-2.5c0.1-4.3-2.1-7.3-6.5-9c-2.4-2.2-5.5-3.3-8.7-3.1c-0.3,0-0.7,0-1.2-0.2
					c-1.4-0.4-2.8-0.8-4.3-1.2c-1.4-0.4-2.9-0.8-4.3-1.2c-1.1-0.3-2.2-0.6-3.3-1c-3.1-0.9-6.3-1.9-9.8-2.2c-0.1,0-0.2-0.1-0.4-0.1
					c-0.9-0.3-2.1-0.6-3.6-0.6c-1.6,0-3.2,0.5-4.5,1.3c-0.9,0.3-1.8,0.7-2.5,1.3l-0.4,0.2l-1.1,0.2l-0.8,0.6
					c-0.7,0.2-1.3,0.6-1.8,0.9c-1.3,0.6-2.4,1.2-3.4,1.8c-1,0.6-1.9,1.1-2.7,1.4c-0.1,0-0.1,0-0.2,0c-0.4,0-0.8,0-1.2,0
					c-2.2,0-4.1,0.6-5.7,1.7c-2.6,1.1-4.6,2.7-6.2,4.1c-0.8,0.7-1.6,1.3-2.4,1.8c-2.3,1.4-4,3.2-5.5,4.8c-1.4,1.4-2.6,2.7-3.8,3.3
					c-5.7,2.8-7.3,7.9-8.2,10.7c-0.5,1.5-1.2,2.7-2.6,4.1c-6,6.2-9.5,13.3-10.2,21c-0.6,1.7-0.5,3.2-0.4,4.3
					c-1.1,2.3-1.8,4.5-2.4,6.6c-0.2,0.7-0.4,1.3-0.6,1.9c-0.3,0.9-0.4,1.7-0.5,2.4c0,0.2-0.1,0.4-0.1,0.5c-2.2,2.8-2.8,6.1-3.1,8.6
					c-0.1,0.9-0.2,1.8-0.3,2.7c-0.1,1.6-0.3,3.1-0.6,4.4c-1.9,8,1,14.5,3.6,20.3c0.3,0.6,0.5,1.2,0.8,1.7c0.8,1.8,2.1,3.1,3.7,4
					c-0.6,0.3-1.3,0.5-1.9,0.8c-0.5,0.2-1,0.4-1.5,0.6l-2.9,0.4l-2.9,0c-1.6-0.1-3.1,0.2-4.2,0.3c-0.6,0.1-1.3,0.2-1.7,0.2
					c-0.1,0-0.1,0-0.2,0l-0.5-0.1l-0.5,0c-1.1,0-2.3-0.2-3.8-0.6l-0.9-0.2c-2.6-0.6-5.6-1.3-8.7-1.3c-2,0-3.9,0.3-5.7,0.8l-0.4,0.1
					l-0.4,0.2c-0.2,0.1-0.8,0.2-1.2,0.3c-1.5,0.3-3.8,0.7-5.9,2.3c-2.8,1.2-4.7,3.2-6.2,4.7c-0.5,0.6-1,1.1-1.5,1.5
					c-1.8,1.4-3.5,3-5.1,5c-4.5,3.6-7.4,8.2-9.2,11.5c-1.9,3.3-3.6,6.7-5.4,10c-3.1,6-6.4,12.1-10,17.9c-2.1,2.8-3.7,5.7-5.3,9
					c-4.5,9-7.7,16.8-10.1,24.2c-1.7,3.5-2.9,7-4.1,10.4c-0.4,1-0.7,2.1-1.1,3.1c-1.5,2.6-0.8,4.9-0.3,5.8c0.4,0.9,1.8,3.1,5,3.4
					l0.3,0h-0.3l50.8,1h197H703c1.2,0-44.7-1.2-43.7-1.2l7.9,0.2l4.1,0.1c0.2,0,0.7,0.2,1.1,0.3c1,0.3,2.3,0.6,3.8,0.6
					c1.2,0,2.7-0.2,4.2,0c1.8,0.2,3.7,0.1,5.6,0.1H703L698.7,943.3z M563.4,775.1C563.4,775.1,563.4,775.1,563.4,775.1L563.4,775.1
					C563.4,775.1,563.4,775.1,563.4,775.1z M563.3,775.1L563.3,775.1L563.3,775.1L563.3,775.1L563.3,775.1z M543.2,779.7
					L543.2,779.7L543.2,779.7L543.2,779.7z M549.4,819.3L549.4,819.3L549.4,819.3L549.4,819.3z M523.1,832.7L523.1,832.7
					L523.1,832.7L523.1,832.7z M527.6,799.4L527.6,799.4L527.6,799.4L527.6,799.4z M593.7,755.5L593.7,755.5L593.7,755.5
					L593.7,755.5z M604.9,788.9L604.9,788.9L604.9,788.9L604.9,788.9z M584.1,822.6L584.1,822.6L584.1,822.6L584.1,822.6
					L584.1,822.6z"/>
			</g>
			<g id="cara_jale.psd_1_">
				<g>
					<defs>
						<rect id="SVGID_1_" x="339.4" y="691.5" width="426.8" height="310.7"/>
					</defs>
					<clipPath id="SVGID_2_">
						<use xlink:href="#SVGID_1_"  style="overflow:visible;"/>
					</clipPath>
					<g style="clip-path:url(#SVGID_2_);">
						
							<image style="overflow:visible;" width="842" height="613" xlink:href="3B4B2CF5799DAB03.png"  transform="matrix(0.5069 0 0 0.5069 339.4258 691.5197)">
						</image>
					</g>
				</g>
			</g>
		</g>
		<g>
			<path class="st3" d="M710.2,932.6C708.3,931,710.2,932.9,710.2,932.6C710.2,932.6,710.8,932.6,710.2,932.6
				C710,932.5,710.4,932.7,710.2,932.6c-0.1-0.1-8.7-9-13.1-11c-2.2-1-8.6-4.4-12.4-4.6c1.1-1.7-1.6,1.4,0,0
				c4.2-3.6,4.8-6.3,4.2-8.1c-0.3-0.9-1.9-4.5-2.1-5.1c-2.8-7.1-0.8-2.7-6.8-12.4c-3.2-5.1-8.9-11-11.5-14
				c-3.5-4.2-9.7-9.4-14.3-11.3c-5.6-2.3-10.6-4.3-14.6-4.5c-4.2-0.2-13.2,3.1-18.9,7.4c-3,2.2,0.7-0.7,0,0l-54,48.6
				c-0.6,0.5-1.1,1.1-1.4,1.8c-3,5.7-3.8,11.9-4.9,20.3l-0.2,1.2c-0.7,5.3,0.6,10.3,3.9,14.4c2.7,3.4,6.2,5.5,8.6,6.6
				c1.1,0.5,4.6,2.1,16.6,2.1c2,0,4,0,5.5-0.1c3.7-0.2,11.5-1.8,17.5-3.4c-1.1,1.4-2,2.7-2.7,3.7c-4.2,6.2-7.7,11.8-7.7,17.1
				c0,7,5.8,11.4,11.5,14.7c6.5,3.8,21.7,7.4,30,8.7c5.3,0.8,9.4,1,11.8,1c1.2,0,2.1,0,2.7-0.1c3.3,0.6,5.6,0.8,7.4,0.8
				c5.2,0,7.4-2.3,9.1-4.7c0.4-0.5,0.7-0.9,1.1-1.4c3.1-3.3,5.3-8.5,7.4-13.6c0.8-1.8,1.5-3.5,2.1-4.9c2.2-4.6,5.8-9.7,6-10
				c0.2-0.3,3.9-5.3,8.3-9c2.2-1.9,5.4-4.8,8.1-8.1c3.1-3.8,4.7-7.1,5-10.2C712.8,940.8,713.4,935.2,710.2,932.6z"/>
			<path class="st4" d="M571.5,919l47.3-38.7c0,0,10-10.1,16.6-9.8c6.6,0.3,20.9,5.5,25.6,11.2c4.7,5.7,14.3,20.4,15,24.5
				c0.7,4.1,3.9,8.3,0,11.8c-3.9,3.4-7.1,4.6-7.1,4.6s-1,2.1,2.3,2.4c3.3,0.3,13.8-0.2,17.2,1.4c3.4,1.6,9.7,5.8,11.2,6.9
				c1.5,1,3.2,1.3,3.2,1.3s5.7,2.5,5.4,6.6c-0.3,4.1-5.9,10.2-11.1,14.5c-5.1,4.3-9.2,10-9.2,10s-4,5.6-6.5,10.8
				c-2.5,5.3-5.1,13.5-8.6,17.1c-3.4,3.7-1.6,5.5-13.2,3.4c0,0-4.9,0.6-13.9-0.8c-9-1.4-22.7-4.9-28-8c-5.3-3.1-8.8-6.1-8.8-9.9
				c0-3.9,3.7-9.4,6.7-13.9c3.1-4.6,11.4-14.7,13.5-17.1c2.1-2.4,5-5.3,9.7-7.8c4.7-2.5,4.5-6.1,4.5-6.1s13.8-5.6,15.5-6.4
				c1.7-0.8,4-1,4-1s-14.5,6.2-17.8,7.3c-3.3,1.1-7.5,3.3-12.4,6.5c-4.9,3.2-11,9.2-16.2,11.1c-5.2,1.8-16.3,4.2-20.4,4.5
				c-4.1,0.2-15.5,0.3-19.5-1.5c-4-1.8-10.4-6.4-9.2-15.2C568.2,929.9,568.9,924.1,571.5,919z"/>
			<g>
				<path class="st5" d="M681.8,940.8c0.8,0.5,2.2,2.3,1.9,4c-0.3,1.7-0.3,1.1-1.9,1c-1.6-0.2-2.1-3.2-2.1-3.2l-0.6-1.8
					c0,0-2.1-0.6-2.9-0.9c-0.8-0.3-2.2-4.9-2.2-4.9s-1.3-2.2-1.4-3.4c-0.2-1.2,0.6-1.8,0-2.5c-0.6-0.6-1.3-0.3-1.3-1.5
					s-1.3-2.3,0-2.2c1.3,0.1,5.6-0.1,7,0c1.4,0.1,2.5,0,2.5,0s1,1.7,0.6,2.2c-0.3,0.6,4,0.6,3.2,1.8c-0.8,1.3-3.2,1.1-3.3,2.2
					c-0.2,1,1.3,2.7,0.3,2.6c-1,0-1.4-1.3-2.4-0.9c-0.9,0.4-0.5,0.9-0.2,1.7c0.3,0.8,0.3,1.7,0.6,2.7c0.3,1,0.3,1.9,0.8,2.2
					c0.5,0.3,0.5,0.3,0.5,0.3L681.8,940.8z"/>
				<path class="st5" d="M660.2,926.5c0.3,2-1.3,6-2.3,6.8c-1,0.9-2.1,0.3-3,0c-1-0.2-1,0.6-1.6,0c-0.6-0.6-5.2-1.2-5.2-1.2
					L660.2,926.5z"/>
				<path class="st5" d="M610.2,981.1c0,0-1-5.7,0.8-8.6c1.7-2.9,3.6-6.5,4.3-6.8c0.6-0.3,4.6-7.7,7.1-10.3c2.6-2.7,1.9-1.6,3.7-3.2
					c1.7-1.6,1.7-1.6,1.7-1.6s0.3-2.8,3.2-4.7c2.8-1.8,4-5.3,6.4-5.2c0,0,3.4-1.7,3.7,0.7c0.3,2.4-2.3,4.9,0,4.5
					c2.3-0.4,3.8-1.8,3.7-1.5c-0.1,0.3-1.4-0.2-0.1,0.3c1.3,0.5,1.1-0.9,1.1-0.9l-2.4-1.7c0,0,0.6-3.3,2.3-1.3
					c1.7,2,0.9,5.5,1.7,5.2c0.8-0.2,2.1-1.4,2.1-1.4s0.4,0.6,1.2,1.4c0.8,0.7,0.3,1.4,4.2,2.2c3.8,0.9,5.2,1.3,5.1,2.4
					c-0.2,1.1-4.8-1.3-3.3,0.3c1.4,1.6,1,2.5,3.3,4.4c2.4,1.9,3.3,2.2,4.3,3.7c1,1.4,2.4,1.1,3,4.3c0,0,2.4,2.2,2.2,4.8
					c-0.3,2.5,0.6,8.7,0,10c-0.6,1.3-0.9,2.4-1.1,4.3c-0.2,1.9-0.5,2.9-0.3,3.5c0.2,0.6-0.3,0.5,0.6,1.4c1,1,0.5,1,0.9,2.7
					c0.5,1.7,1.4,5.7-0.9,6.3c-2.4,0.6-5.6,0.8-9.8,0c-4.2-0.8-7.7-1.6-10.6-1.6c-2.9,0-8.2-1-12.6-1.9c-4.4-1-8.4-2.1-10.3-2.4
					c-1.9-0.3-1.7-1.3-4.3-1.9c-2.5-0.6-4.9-2.1-6.7-3.3c-1.7-1.3-1.6-1.3-2.9-2.7C610.2,981.1,610.2,981.1,610.2,981.1z"/>
				<path class="st5" d="M670.7,977c2.3,0.8,3.6,1.3,2.2,2.9c-1.4,1.6-2.6,1.3-2.2,0C671.1,978.6,670.7,977,670.7,977z"/>
			</g>
			<path class="st5" d="M572,920.7c0.8,0,1-0.3,0.9,0.8c-0.1,1.1-0.9,1.6-0.9,1.6s1.4-0.7,1.6,0c0.3,0.8-1.3,1.7-0.8,2.2
				c0.4,0.6,0.5,1.4,0,3.5c-0.5,2,0.6,6.2,1.4,5.4c0.9-0.8,1.1-4.9,2.3-3.5c1.1,1.4,1,3.5,0,4.7c-1,1.1-3.1,1.5-1.9,1.8
				c1.2,0.2,2.2-0.1,2.7,0c0.5,0.1,1.6,0.2,1.1,1.5c-0.5,1.3-1.5,3-3.2,4.5c-1.6,1.5-3.4,3.2-1.4,2.5c2-0.6,1.9-2.5,2.8-2.7
				c0.9-0.1,0.1,1,0.9,0.9c0.8-0.1,0.5,0.9,2.5-0.6c2-1.5,3-2,3-2.6c0-0.6,0.3-1.3,0-2c-0.3-0.6-1.1-1.5-1.5-1.8
				c-0.4-0.3-1.8-1-1-1.6c0.8-0.6,1.8-2.1,1.8-2.1s1.5-0.4,1.5,0.9c0,1.3,0,1.1,1,3.3c1,2.3,1.6,2.9,2.3,1.8
				c0.6-1.1,1.3-2.3,1.9-1.5c0.6,0.8,0.8-2.3,2.1-1.9c1.4,0.5,0.3,1.9,1.4,1.4c1.1-0.5,1-0.4,1.8-1.4c0.8-0.9-0.1-0.8,1.3-1.7
				c1.4-1,1.4-2.6,1.6-1.6c0.3,1,0.6,1.6,0,2.7c-0.6,1,1.4,0.7,1.4,0.7s0.3-1.1,0.5-1.7c0.3-0.6,0.1-1.8,0.6-1.7
				c0.5,0.1,0.1-0.9,0.5,0.1c0.4,1,0.5,1.6,0.5,1.6s0.6-0.2,1,0c0.4,0.2,0.5,0.2,0.5-0.9c0-1.1-0.5-2.1,0-2.7
				c0.5-0.6,2.1-2.4,2.9-1.1c0.8,1.3-1,1.8-0.6,2.7c0.4,0.9,0.5,0.8,0.8,1.2c0.3,0.4,1.1-0.2,1.3-0.8c0.3-0.6,1.9-2.1,2-1.1
				c0.1,1-1.5,3.1,0,2.9c1.5-0.2,2-1.5,2.4-0.9c0.4,0.6,1.1-3,2.8-2.1c1.6,0.9,2.1,1.8,3.3,1.3c1.1-0.5,2.6-1.9,2.6-1.9
				s0.5-0.3,1.4-0.3c0.9,0,2.3-0.4,2.3-0.4s-1.5-1.8,0-2.4c1.5-0.5,2.5,0.5,2.7,0c0.2-0.5-0.4-1.7,0-2.2c0.4-0.6,0.3-1,1.7-0.8
				c1.5,0.1,1.3,0,2.1-0.1c0.8-0.1,2.4-2.1,0.8-2.3c-1.6-0.1-1.5,0.2-2.2-0.6c-0.7-0.8-0.5-1.4-0.7-2.3c-0.2-0.9-0.2-2.4,0-3.2
				c0.2-0.8,0-3.5,0-3.5h-1.8c0,0,0.3-0.7,0.1-1.9c-0.2-1.1-2.3-1-1.2-1.4c1.1-0.4,2.8,0,3,0.9c0.2,0.9,1.5,2.7,1.8,1.5
				c0.4-1.3,0.4-1.9,0.6-2.4c0.2-0.5,1.2-1.5,1.2-1.5s1.5,1.5,2.1,1.9c0.5,0.5,1.6,3.4,1.8,3.9c0.1,0.5,0.5,1.8-0.5,0.9
				c-1-0.9-1.5-2.8-3-1.8c-1.5,1,0,0.9,1.4,2.3c1.4,1.4,2.3,1,1.8,2c-0.5,1-0.4,2.2-1.5,0.9c-1.1-1.3-2.1-1.8-2.4-1.4
				c-0.3,0.4-0.7-0.1-0.2,1.6c0.6,1.8-0.3,2.5,0.8,2.7c1.1,0.1,2.1-0.9,2.1-0.9s0.7,0.5,1.7,1c1,0.5,0.2-0.4,1.9,0.7
				c1.7,1.1,2.7,1.1,2.7,1.6c0,0.5,1.4,2.2,1.4,2.2s0.1,0.7-0.8,0.5c-0.9-0.1-3.4-0.2-3.3,0.6c0.1,0.8,0.2-0.1,0,1.1
				c-0.2,1.2-0.8,2-0.2,2.2c0.5,0.3,0.5-0.1,1.8-0.1c1.3,0-0.1-0.1,2.5,0.8c2.6,0.9,2.3,0.6,3.1,0.9c0.8,0.2,1.9,0.5,1.9,0.5v1.1
				c0,0-12.1,5.9-20.8,12.9c0,0-8.3,6.2-20.8,8.2c-12.5,2-27,2-31.6-2.1c0,0-2.8-2.5-2.1-3.7c0.8-1.2,0.7-1.7,0.7-1.7s1-1.9-0.9-1.1
				c-1.9,0.8-1.9,1.8-2.3,1.3c-0.4-0.5-2.2-3.6-1.1-5.9c1-2.2-0.4-5-0.1-5.4c0.2-0.4,0.6-0.5,1.1-2.9c0.5-2.4,0.1-2.5,0.4-3.7
				c0.3-1.1,0.4-3.9,1-4.9c0.6-1,1.4-2.4,1.4-2.4L572,920.7z"/>
			<g>
				<path class="st6" d="M632.5,873.6c0.1,0.8-3.2,1.5-3.4,2.5c-0.3,1-1.1,4.7-0.8,5.9c0.4,1.3,0.8,2.3,0.9,3.3c0,0-1.3,1.9-1,3.5
					c0.3,1.6,2.5,4.7,2.1,5.9c-0.4,1.3-2.6,1.4-2.2,2c0.4,0.6,2,1.4,2.1,2.9c0.2,1.5,1.5,2,1.7,3c0.1,1,0.9,2.7,0.5,3.2
					c-0.4,0.5-0.1,1.3,0.8,2.9c0.9,1.6,1.8,1.1,1.8,2.1c0,1,0.4,1.4,1.1,2.1c0.8,0.8,1.1,2,3,2.5c1.9,0.5,2.9,0.5,4.8,1.3
					c1.9,0.8,2.5,1,4.2,0c0,0,1,1.3,1.8,1.6c0.8,0.4,0.6,1.8,3.5,1c2.9-0.8,5.9-1.8,7.8-2.4c1.9-0.6,4.4-1.5,4.4-1.5s1,0.1,1.1-0.8
					c0.1-0.9-1.5-2.4-0.8-2.8c0.8-0.4,1.4,1,1.9,2.2c0.5,1.1,0.5,1.6,1.8,1.4c1.3-0.2,1.5-0.4,2.3-0.6c0.8-0.3,1.1-1,1.4-0.6
					c0.3,0.4-0.4,1.6,0.5,1.6c0.9,0,0.1-0.8,1.6-1c1.5-0.3,1.5-0.3,1.5-0.3s-0.4-2-1-3.3c-0.6-1.3-0.4-2.5-1.4-3.2
					c-1-0.6-1-0.5-1-1.1c0-0.6-0.3-1.4,0.1-2.5c0.4-1.1-0.3-1.1-0.9-2.5c-0.6-1.4-1.5-2-1.4-3.3c0.1-1.3-1.4-3.2-1.6-3.8
					c-0.3-0.6-2.5-2.9-3.2-3.3c-0.6-0.4-1.3,0.1-1.3-1c0-1.1,1.3-3.2-1.3-3.5c-2.5-0.4-3.9-0.8-4.3-1.8c-0.4-1-0.5-3.4-0.8-3.9
					c-0.2-0.5-0.5-1.3-2-1.8c-1.5-0.5-2-2.4-2.8-2.5c-0.8-0.1-1.8-0.5-1.7,0.8c0.1,1.3,1.6,3,1,3.3c-0.6,0.3-2.9,0.3-2.9,0.3
					s0.1,1.1-0.8,0.5c-0.9-0.6-1.1-0.8-1.3-1.3c-0.1-0.5,0.5-1-0.2-1.3c-0.8-0.2-1.5-1.1-0.9-2c0.6-0.9,1.5-2,1.5-2s0.5-1,0-1.1
					c-0.5-0.1-3.2-1.9-5.3-1.6c-2.1,0.3-1.3,0.9-0.6,1.8c0.6,0.9,1.3,2.3,0.4,1.9c-0.9-0.4-3-0.9-3.2-1.8c-0.2-0.9,0-1.9,0-1.9
					s-2.4-1-4.6-0.9C633.4,871.9,632.5,873.6,632.5,873.6z"/>
				<path class="st7" d="M627.4,903.2c0,0-1.4,0.2-1,1.2c0.4,1,0.9,0.4,1.7,1.8c0.8,1.4,0.5,3.9,1.6,3.8c1.1-0.1,1.1-2.1,1.3-3.9
					c0.1-1.8,0.6-2.6-0.5-2.6c-1.1,0-2.3,0-2.3,0L627.4,903.2z"/>
				<path class="st7" d="M664.3,918.8c0,0-2,0.8-1.9,1c0.1,0.2-0.1,2.1,1.9,1.7c2-0.4,3.5,0,4.7-0.6c1.1-0.6-0.9-1.1-1.1-2
					c-0.3-0.9-0.1-2.4-1.4-1.8C665.2,917.7,664.3,918.8,664.3,918.8z"/>
				<path class="st7" d="M647.5,924.2c0,0-0.6-1.5-1.4-1c-0.8,0.5-0.1,1.4,0,2.4c0.1,1-0.5,2.2,0.5,1.9c1-0.3,1.4-0.5,2.3-1
					c0.9-0.5,0.8-1.2,0.8-1.2v-0.8c0,0,0.1-0.7-1-0.5c-1.1,0.3-0.8,0.3-0.8,0.3L647.5,924.2z"/>
				<path class="st7" d="M637.6,925.4c1,0.3,2.2,0.4,3.3,0.5c1.1,0.1,2,0,2,0s1.9-0.9,1.8,0.1c-0.1,1-0.1,1.8-1.3,1.6
					c-1.1-0.2-3.8-0.5-3.8-0.5s-1-0.8-1.4-0.6c-0.4,0.2-0.7,0-0.7,0S637.1,925.2,637.6,925.4z"/>
				<path class="st7" d="M621.1,945.9c-1.4-0.6-2.5-1.8-2.4-2.3c0.1-0.5,1.3-0.8,3.2-1.1c1.9-0.4,5.4-1.9,6.2-2.1
					c0.8-0.3,5.4-3.2,6.3-3.3c0.9-0.1,4.9-3.5,6.7-3.7c1.8-0.1,2.3,0,2.3,0s-12.2,6.9-14.6,9.2c-2.4,2.3-4.5,3.4-5.8,4.2
					c-1.3,0.8-1.6,2.4-1.8,0.8C621.1,945.9,621.1,945.9,621.1,945.9z"/>
			</g>
			<path class="st6" d="M611.5,982.5c0,0-1.1-3.1-0.8-4.2c0.3-1.1,0.1-1.9,0.4-2.7c0.3-0.8-0.5-1.1,0.4-1.6c1-0.5,1.7-0.6,2.1-2.1
				c0.3-1.4-1.7-2.5,0-2.2c1.7,0.3,1.1,1.9,2.1,1.6c1-0.3,1-2.8,1-2.8s-0.2-1.6,0-1.8c0.2-0.2,0.3-0.2,1.1-0.2c0.8,0,0.8,0,0.8,0
				s0.3-1.2,0-2c-0.3-0.8-1.1-1.8-0.5-2.1c0.6-0.3,2.4-1.2,2.8,0.1c0.5,1.3,2.8,3.4,2.8,3.4v-5.6c0,0-1.2-1.8-0.1-1.8
				c1.1,0,1.1,0,1.1,0s1.1,0.4,2.4-3.4c1.3-3.8-0.5-4.1,0.8-4.6c1.3-0.5,0.2-0.6,1.3-0.4c1.1,0.2,1-0.1,1.9,0
				c0.9,0.1,2.7-1.9,2.7-1.9s0.8-2.6,1.7-2.2c1,0.4,3.6-0.1,4.6,0c1,0,1.9,2.2,4.7,3c2.8,0.8,2.3,1,3.5,1.4c1.2,0.5,4.2,1.6,4.4,1.9
				c0.1,0.3,1.4,0.8,1.4,0.8s0.5,1.2,1.8,2.4c1.2,1.1,3,2.1,3,2.1s1.9,1.7,2.3,2.1c0.5,0.3,2.5,1.1,2.9,1.7c0.3,0.6,0.5,2.3,0.8,2.9
				c0.3,0.6,0.3,1.2,1.1,2.6c0.8,1.4,0,1.4,0.7,2.5c0.6,1.1-0.5,4.3,0,4.9c0.5,0.6-0.1,3,0.2,3.8c0.3,0.8,0.7,4,0,5.2
				c-0.7,1.3-2.3,3.8-2.3,4.6c0,0.8,1.2,2.1,2.6,3c1.5,1,1.5,3.2,1.3,3.8c-0.2,0.6,0.6,1.3-1,1.4c-1.6,0.2-4.9,0.5-5.7,0.6
				c-0.8,0.2-10.4-2.1-11.1-1.9c-0.8,0.2-2.8-0.1-4.9-0.3c-2.1-0.2-5.4-0.6-6.2-1c-0.8-0.3-2.2-0.5-4-0.8c-1.7-0.3-3.2-0.8-5.7-1.1
				c-2.5-0.3-8.1-2.4-9.8-3.5c-1.7-1.1-1.7-1.4-3.3-2.2C615.1,985.2,611.5,982.5,611.5,982.5z"/>
		</g>
		<path class="st3" d="M645.2,850.8c0,0-11.7-23.8-19.3-18.6C618.3,837.4,636.5,846.3,645.2,850.8z"/>
		<path class="st3" d="M647.7,850.8c0,0,9.9-24.6,0.9-26.8C639.6,821.8,645.1,841.3,647.7,850.8z"/>
		<path class="st3" d="M650.9,852.4c0,0,22.6-14,16.7-21C661.7,824.3,654.5,843.3,650.9,852.4z"/>
		<g>
			<g>
				<path class="st3" d="M493.2,939c-0.9-1.7-2.1-3-3.6-3.9c-1.3-0.7-2.6-1.2-4.1-1.3c-2.5-0.2-5.2,0.5-7.9,2.1l-2.8,1.7l-0.2,2
					l-15.4,18.8h-0.9c-1.7,0-3.2,0.9-4.6,1.4c-1.5,0.5-2.8,1.6-3.9,2.6c-1.1,1.1-2,2.5-2.5,3.9c-0.3,1-0.5,0.1-0.6,3.1h-1.5l8.7-18
					c0.9-1.8,1.4-3.3,1.8-4.8c0.4-1.7,0.4-3.2,0.2-4.7c-0.3-1.8-0.9-3.3-2-4.6c-0.8-1-1.7-1.8-2.8-2.5l-0.6-0.3
					c-2.1-1-4.6-1.3-7.5-1l-3.5,0.4l-15,31.4c-0.9,1.8-1.5,3.5-1.9,5c-1.4,0.5-2.6,1.2-3.5,2.2c-1.1,1.1-2,2.4-2.5,3.8
					c-0.4,1.1-0.6,2.2-0.6,3.4c-0.1,2.1,0.5,3.5,1.6,5.8l1.8,2.9h26.1c1.7,0,3.2,0.7,4.6,0.2c0.3-0.1,0.5,0.3,0.8,0.2
					c2.1,1.1,4.7,1.6,7.8,1.6h2.8l7.7-10h3.6c0.3,0,0.7,3,1.3,4.2c1.2,2.3,2.8,3.5,4,4.2c1.9,1,3.9,1.3,6,1l0.6,1.2l0.1-1.4
					c1.8-0.4,3.5-1.2,5.4-2.5l2.6-1.8l2-36.8c0.1-2,0-3.7-0.2-5.2C494.3,941.7,493.9,940.2,493.2,939z"/>
				<path class="st3" d="M653.8,943.8c-0.1-2.2-0.8-4.6-2.2-7l-1.9-3.3h-27.9c-1.8,0-3.3,0.3-4.6,0.7c-1.6,0.5-3,1.3-4.1,2.2
					c-1.2,1.1-2.1,2.4-2.7,3.8c-0.5,1.2-0.7,2.4-0.7,3.7c-0.1,2.2,0.5,4.5,1.8,6.9l-7.5,15.8l0,0c-0.5,1.1-0.9,2.9-1.2,2.9h-4.1
					l8.7-18c0.9-1.8,1.4-3.3,1.8-4.8c0.4-1.7,0.4-3.2,0.2-4.7c-0.3-1.8-0.9-3.3-2-4.6c-0.8-1-1.7-1.8-2.8-2.5l-0.6-0.3
					c-2.1-1-4.6-1.3-7.5-1l-3.5,0.4l-8.7,18.1l0.2-3.7c0.1-2,0-3.7-0.2-5.2c-0.3-1.7-0.7-3.1-1.4-4.4c-0.9-1.7-2.1-3-3.6-3.9
					c-1.3-0.7-2.6-1.2-4.1-1.3c-2.5-0.2-5.2,0.5-7.9,2.1l-2.8,1.7l-0.2,2.7l-14,17.8c0.1-0.1,0.1-0.3,0.2-0.4
					c0.5-1.1,0.9-2.4,1.3-3.8c0.1-0.2,0.1-0.4,0.2-0.6c1.3-0.5,2.4-1.3,3.3-2.2c1.2-1.2,2-2.6,2.4-4.2c0.3-1,0.4-2,0.4-3l0-0.2
					c-0.1-2.1-0.7-4.3-1.8-6.6l-1.8-3.7h-24c-1.7,0-3.1,0.3-4.5,0.8c-1.5,0.5-2.8,1.4-3.9,2.4c-1.1,1.1-1.9,2.5-2.4,3.9
					c-0.3,1-0.5,2.1-0.5,3.2c-0.1,2.1,0.4,3.9,1.5,6.1l1.7,3.5h7c-0.9,1-1.8,4.1-2.7,5.9c-0.4-0.7-1-1.1-1.6-1.7
					c-1.4-1.2-3.1-1.9-5-2.3l-0.5,0c-2.4-0.3-4.4,0.1-6.1,1c-1,0.6-2.1,1.4-3.2,2.5l-0.3,0.3c-1.7,2-3.2,4.2-4.2,6.7
					c-1.1,2.7-1.6,5.5-1.5,8.3l0,0.1c0.2,3.3,1.2,6.3,3,9c1.9,2.9,4.7,5.1,8.2,6.2c1.9,0.6,3.8,0.9,5.6,0.9c1.3,0,2.6-0.2,3.8-0.5
					c2.6-0.7,5.1-1.8,7.3-3.4c1.4-1,2.7-2.1,3.9-3.4c0.1,0.6,0.3,1.1,0.5,1.6c0.7,1.6,1.8,3,3.2,4c2.2,1.5,5.1,2.2,8.6,1.8l2.8-0.2
					l7.7-9.8h3.6c0.3,0,0.7,3,1.3,4.2c1.2,2.3,2.8,3.5,4,4.2c1.5,0.8,3.1,0.3,4.8,0.2l0.2-0.5h1.3l0.4,0.8l0-0.8h24.5
					c0.2,0,0.5,0,0.7,0l0,0h28.2c1.8,0,3.4,0.7,4.7,0.3c1.6-0.5,3-0.8,4.2-1.7c1.3-1.1,2.5-2.2,3.1-3.8c0.4-1.1,0.9-2.1,0.9-3.3
					v-0.2c0-2.2-1.1-4.5-2.5-6.8l-0.8-1.2c1.3-0.9,2.3-2.1,2.9-3.7c0.7-1.6,1-3.3,1-5.2l0-0.2c-0.1-1.6-0.3-3.7-0.8-5.6l-0.8-3.6
					h1.8c1.8,0,3.3,0.2,4.7-0.2c1.6-0.5,3-1,4.2-1.9c1.4-1.1,2.4-2.4,2.9-4c0.4-1.1,0.6-2.3,0.6-3.5L653.8,943.8z"/>
			</g>
			<g>
				<path class="st8" d="M420.9,980.4c0-0.5,0.1-0.9,0.2-1.4c0.2-0.5,0.4-0.9,0.8-1.2c0.4-0.4,0.9-0.6,1.5-0.9
					c0.7-0.2,1.5-0.3,2.5-0.3h2.2c-0.7-0.4-1-1.3-1.1-2.5c0-1.2,0.5-3,1.6-5.3l13.5-28.2c1.6-0.2,2.9-0.1,4,0.4
					c0.4,0.2,0.8,0.6,1.1,0.9c0.3,0.4,0.5,0.9,0.6,1.5c0.1,0.6,0,1.4-0.1,2.3c-0.2,0.9-0.6,2-1.2,3.4l-13.2,27.4H448
					c0.8,1.4,1.1,2.7,1.2,3.8c0,0.5-0.1,0.9-0.2,1.4c-0.1,0.5-0.4,0.9-0.8,1.2c-0.4,0.4-0.9,0.6-1.6,0.9c-0.7,0.2-1.6,0.3-2.6,0.3
					h-22C421.2,982.8,420.9,981.5,420.9,980.4z"/>
				<path class="st8" d="M456.4,984.6c-1.9,0.2-3.4,0-4.3-0.7c-0.4-0.3-0.7-0.7-0.9-1.1c-0.2-0.5-0.2-1.1-0.1-1.8
					c0.1-0.8,0.5-1.7,1.1-2.7c0.6-1.1,1.5-2.3,2.6-3.8h-2.3c-0.7-1.4-1-2.7-0.9-3.8c0-0.5,0.1-0.9,0.2-1.4c0.2-0.5,0.4-0.9,0.8-1.2
					c0.4-0.4,0.9-0.6,1.5-0.9c0.6-0.2,1.4-0.3,2.4-0.3h4.1l18.4-23.4h0.1l0.1-1.5c1.5-0.9,2.8-1.3,3.9-1.2c0.5,0,0.9,0.2,1.4,0.4
					c0.4,0.3,0.8,0.7,1.1,1.3c0.3,0.6,0.6,1.4,0.7,2.4c0.2,1,0.2,2.3,0.1,3.8l-1.8,33.6c-1.5,1.1-2.8,1.6-3.9,1.6
					c-0.5,0-0.9-0.1-1.4-0.4c-0.5-0.2-0.8-0.7-1.2-1.3c-0.3-0.6-0.6-1.5-0.7-2.5c-0.2-1.1-0.2-2.4-0.1-4.1l0.1-2.3
					c-0.4,0.3-0.9,0.6-1.5,0.8c-0.6,0.2-1.3,0.3-2.3,0.3h-9.4L456.4,984.6z M470.3,966.8h7.4c0,0,0,0.1,0.1,0.1c0,0,0.1,0.1,0.2,0.3
					l0.7-10.9L470.3,966.8z"/>
				<path class="st8" d="M509.2,974.4c-0.1-1.9,0.3-3.8,1-5.6c0.8-1.8,1.8-3.4,3-4.9c0.7-0.7,1.2-1.1,1.7-1.4
					c0.5-0.3,1.2-0.3,2.2-0.2c0.8,0.2,1.5,0.5,2,1c0.6,0.5,0.8,1.2,0.7,2c-0.1,0.8-0.4,1.7-1,2.6c-0.5,0.9-1,1.8-1.5,2.6
					c-0.5,0.9-0.8,1.8-0.9,2.7c-0.1,0.9,0.1,1.8,0.7,2.6c0.2,0.3,0.5,0.6,0.8,0.7c0.3,0.2,0.7,0.2,1,0.3c0.4,0,0.7,0,1.1-0.1
					c0.4-0.1,0.7-0.2,1-0.3c0.9-0.4,1.7-0.9,2.3-1.6c0.7-0.7,1.3-1.4,1.8-2.1c1-1.3,1.8-2.6,2.6-3.9c0.7-1.3,1.4-2.7,2.2-4.1
					c1.4-2.7,2.7-5.5,4-8.2c1.3-2.8,2.7-5.5,4-8.2h-13.2c-0.6-1.4-0.9-2.7-0.9-3.8c0-0.5,0.1-0.9,0.2-1.4c0.1-0.5,0.4-0.9,0.7-1.2
					c0.4-0.4,0.8-0.6,1.5-0.9c0.6-0.2,1.4-0.3,2.3-0.3h19.9c0.7,1.4,1.1,2.7,1.1,3.8c0,0.5-0.1,0.9-0.2,1.4
					c-0.1,0.5-0.4,0.9-0.7,1.2c-0.4,0.4-0.8,0.6-1.5,0.9c-0.6,0.2-1.4,0.3-2.4,0.3h-1.2c0.2,0.3,0.2,0.6,0.2,0.8
					c0.2,1.1,0.1,2.3-0.3,3.5c-0.4,1.2-0.8,2.3-1.2,3.3c-0.4,1-0.8,1.9-1.3,2.9c-0.5,0.9-0.9,1.8-1.3,2.8c-1,1.9-1.9,3.8-2.8,5.8
					c-0.9,1.9-1.9,3.9-2.9,5.8c-0.9,1.5-2,3.1-3.3,4.7c-1.3,1.6-2.7,2.9-4.3,4.1c-1.6,1.1-3.3,1.9-5.1,2.4c-1.8,0.5-3.8,0.3-5.8-0.3
					c-2-0.7-3.6-1.9-4.8-3.6C509.9,978.4,509.3,976.5,509.2,974.4z"/>
				<path class="st8" d="M546.1,984.6c-1.9,0.2-3.4,0-4.3-0.7c-0.4-0.3-0.7-0.7-0.9-1.1c-0.2-0.5-0.2-1.1-0.1-1.8
					c0.1-0.8,0.5-1.7,1.1-2.7c0.6-1.1,1.5-2.3,2.6-3.8h-2.3c-0.7-1.4-1-2.7-0.9-3.8c0-0.5,0.1-0.9,0.2-1.4c0.2-0.5,0.4-0.9,0.8-1.2
					c0.4-0.4,0.9-0.6,1.5-0.9c0.6-0.2,1.4-0.3,2.4-0.3h4.1l18.4-23.4h0.1l0.1-1.5c1.5-0.9,2.8-1.3,3.9-1.2c0.5,0,0.9,0.2,1.4,0.4
					c0.4,0.3,0.8,0.7,1.1,1.3c0.3,0.6,0.6,1.4,0.7,2.4c0.2,1,0.2,2.3,0.1,3.8l-1.8,33.6c-1.5,1.1-2.8,1.6-3.9,1.6
					c-0.5,0-0.9-0.1-1.4-0.4c-0.5-0.2-0.8-0.7-1.2-1.3c-0.3-0.6-0.6-1.5-0.7-2.5c-0.2-1.1-0.2-2.4-0.1-4.1l0.1-2.3
					c-0.4,0.3-0.9,0.6-1.5,0.8c-0.6,0.2-1.3,0.3-2.3,0.3H554L546.1,984.6z M560,966.8h7.4c0,0,0,0.1,0.1,0.1c0,0,0.1,0.1,0.2,0.3
					l0.7-10.9L560,966.8z"/>
				<path class="st8" d="M574.2,980.4c0-0.5,0.1-0.9,0.2-1.4c0.2-0.5,0.4-0.9,0.8-1.2c0.4-0.4,0.9-0.6,1.5-0.9
					c0.7-0.2,1.5-0.3,2.5-0.3h2.2c-0.7-0.4-1-1.3-1.1-2.5c0-1.2,0.5-3,1.6-5.3l13.5-28.2c1.6-0.2,2.9-0.1,4,0.4
					c0.4,0.2,0.7,0.6,1.1,0.9c0.3,0.4,0.5,0.9,0.6,1.5c0.1,0.6,0,1.4-0.1,2.3c-0.2,0.9-0.6,2-1.2,3.4l-13.2,27.4h14.7
					c0.8,1.4,1.1,2.7,1.2,3.8c0,0.5-0.1,0.9-0.2,1.4c-0.1,0.5-0.4,0.9-0.8,1.2c-0.4,0.4-0.9,0.6-1.6,0.9c-0.7,0.2-1.6,0.3-2.6,0.3
					h-22C574.5,982.8,574.2,981.5,574.2,980.4z"/>
				<path class="st8" d="M601.8,984.2c-0.8-1.4-1.1-2.7-1.1-3.8c0-0.5,0.1-0.9,0.3-1.4c0.2-0.5,0.5-0.9,0.9-1.2
					c0.4-0.4,1-0.6,1.7-0.9c0.7-0.2,1.7-0.3,2.8-0.3h1.7c-0.7-0.4-1.1-1.2-1.2-2.2c-0.1-1,0.3-2.6,1.2-4.5l10.3-21.5h-2.8
					c-0.8-1.4-1.1-2.7-1.1-3.8c0-0.5,0.1-0.9,0.3-1.4c0.2-0.5,0.5-0.9,0.9-1.2c0.4-0.4,1-0.6,1.7-0.9c0.7-0.2,1.7-0.3,2.8-0.3h24.2
					c0.8,1.4,1.3,2.7,1.3,3.8c0,0.5-0.1,0.9-0.2,1.4c-0.2,0.5-0.5,0.9-0.9,1.2c-0.4,0.4-1,0.6-1.8,0.9c-0.8,0.2-1.7,0.3-2.9,0.3
					h-14.8c0.3,0.6,0.4,1.3,0.3,2.2c-0.1,0.9-0.4,2-1.1,3.4l-2.7,5.6h11c0.4,1.4,0.6,2.7,0.6,3.8c0,0.9-0.2,1.8-0.5,2.6
					c-0.3,0.8-1.1,1.2-2.2,1.2h-11c-0.1-0.2-0.1-0.4-0.2-0.7c-0.1-0.3-0.2-0.8-0.2-1.6l-5.8,11.8h17.4c0.8,1.4,1.3,2.7,1.3,3.8
					c0,0.5-0.1,0.9-0.2,1.4c-0.2,0.5-0.4,0.9-0.9,1.2c-0.4,0.4-1,0.6-1.8,0.9c-0.7,0.2-1.7,0.3-2.9,0.3H601.8z"/>
			</g>
		</g>
	</g>
</g>
<g class="video2">
	<g>
		<path class="st3" d="M265.6,518.3c-1,0-2-0.3-2.9-0.8l-117.7-68c-1.8-1-2.9-3-2.9-5l0-136c0-2.1,1.1-4,2.9-5l117.7-68
			c0.9-0.5,1.9-0.8,2.9-0.8s2,0.3,2.9,0.8l117.7,68c1.8,1,2.9,3,2.9,5l0,136c0,2.1-1.1,4-2.9,5l-117.7,68
			C267.6,518.1,266.6,518.3,265.6,518.3z"/>
		<path class="st0" d="M265.6,523.1c-1.9,0-3.7-0.5-5.3-1.4l-117.7-68c-3.3-1.9-5.3-5.4-5.3-9.2l0-136c0-3.8,2-7.3,5.3-9.2l117.7-68
			c3.2-1.9,7.4-1.9,10.6,0l117.7,68c3.3,1.9,5.3,5.4,5.3,9.2l0,136c0,3.8-2,7.3-5.3,9.2l-117.7,68
			C269.3,522.6,267.4,523.1,265.6,523.1z M265.5,239.5c-0.2,0-0.4,0.1-0.5,0.1l-117.7,68c-0.3,0.2-0.5,0.5-0.5,0.9l0,136
			c0,0.4,0.2,0.7,0.5,0.9l117.7,68c0.3,0.2,0.7,0.2,1,0l117.7-68c0.3-0.2,0.5-0.5,0.5-0.9l0-136c0-0.4-0.2-0.7-0.5-0.9l-117.7-68
			C265.8,239.6,265.7,239.5,265.5,239.5z"/>
	</g>
	<g>
		<g>
			<g>
				
					<image style="overflow:visible;opacity:0.63;" width="998" height="659" xlink:href="3B4B2CF5799DAB01.png"  transform="matrix(0.24 0 0 0.24 145.4371 267.4796)">
				</image>
				<g>
					<path class="st0" d="M367.6,323.6c-3-4.3-10.8-8.4-14.4-10.1c-3-1.8-23.8-14.3-33.3-18.9c-9.1-4.4-39.4-16.1-46.6-17
						c-0.7-0.1-1.4-0.1-2.2-0.1c-6.8,0-16.7,3.6-18.5,4.2c-2.3,0.8-22.2,8-26.1,9.8c-3.8,1.7-8.5,7.6-14,17.4
						c-2.8,2.6-11.6,10.6-14.4,13.2c-5.8,5.3-5.5,11.1-5.4,12.2l0.2,1.5l4.4,7.5l-37,11.4l0,0c-15,24.9,9,32.4,23.6,33.7
						c1.1,0.1-1-0.4,0,0c9.1,4,48.5,4.6,60.8,4.7l70.7,2.8l0,0c0.1,0,0.2-0.1,0.3-0.1c0.8-0.3,1.7-0.4,2.8-0.4
						c1.6,0,3.2,0.3,4.3,0.6c1.3,1.5,2.6,3.4,2.8,4.3c0.8,3.1,2.8,11.2,11.1,11.2c0.5,0,0.9,0,1.4-0.1c5-0.6,8-4.8,9.4-9.1
						c5.3-6.3,6.2-7.9,6.6-8.9c0.6-1.1,2.7-4.9,4.2-7.8c4.1-7.3,4.7-8.6,5-9.5c0.1-0.2,0.2-0.5,0.4-0.9c2.7-5.9,5.9-13.5,6.5-20.2
						C370.6,351,372.2,330.2,367.6,323.6z"/>
				</g>
			</g>
			<g>
				<g>
					<g>
						<path class="st9" d="M173.9,365.2c12.7-5.9,25.6-11.9,39.6-13.6c12.4-1.5,24.6,1.3,36.5,4.4c10.5,2.7,20.9,6,30.7,10.5
							c8.5,3.9,18.8,9.7,21.7,19.2c0.3-0.6,0.7-1.2,1-1.8c-7.1,2.5-14.2,0.8-21.3-0.9c-7-1.7-13.8-2.5-21.1-2.7
							c-12.3-0.3-24.7-0.7-37.1-0.8c-9.3,0-18.7,0-28-1.2c-7.7-1-18.8-3.2-21.5-11.7c-0.6-1.8-3.5-1-2.9,0.8
							c2.5,7.6,10.1,10.8,17.3,12.6c10.1,2.5,20.8,2.5,31.1,2.5c12.4,0,24.8,0.7,37.2,0.7c8.8,0,17.1,1,25.7,3
							c7,1.7,14.2,3,21.2,0.5c0.8-0.3,1.3-1,1-1.8c-2.8-9.3-11.6-15.1-19.8-19.4c-10.6-5.6-22.2-9.2-33.7-12.2
							c-12.6-3.3-25.2-6.1-38.3-4.8c-14.5,1.5-28.1,8-41.1,14C170.7,363.4,172.2,366,173.9,365.2L173.9,365.2z"/>
					</g>
				</g>
				<g>
					<g>
						<path class="st9" d="M176.2,370.4c16.8-2.1,34.2-1.3,49.9-8.8c3.9-1.9,2.2-8.9-2.3-8.4c-17.5,2.2-34.7,6.1-51.9,10.4
							c-4.1,1-4.5,7.9,0,8.7c22.6,4.2,45.6,3.2,68.3,0c5-0.7,3.8-9.2-1.2-8.8c-12.9,1-25.5-0.5-37.7,4.7c-3.5,1.5-2.6,7.7,1.1,8.2
							c13.3,1.9,27-0.5,40.2-1.4c7.2-0.5,14.5-0.8,21.7-0.4c5.7,0.3,12.5,1.2,17.1,4.8c1.8-2.4,3.6-4.7,5.5-7.1
							c-20.3-10.9-45.2-28.4-69.3-19.8c-5.4,1.9-3.1,10.6,2.4,8.7c21.5-7.7,44.4,9.2,62.4,18.9c4.3,2.3,9.6-3.8,5.5-7.1
							c-11.1-8.6-26.6-8-39.9-7.3c-14,0.7-29.1,4.1-43.1,2.1c0.4,2.7,0.7,5.5,1.1,8.2c10.4-4.4,22.2-2.6,33.2-3.5
							c-0.4-2.9-0.8-5.9-1.2-8.8c-21,2.9-42.6,3.9-63.5,0c0,2.9,0,5.8,0,8.7c16.3-4.1,32.8-8,49.5-10c-0.8-2.8-1.5-5.6-2.3-8.4
							c-14,6.7-30.3,5.6-45.4,7.5C170.5,362.1,170.5,371.1,176.2,370.4L176.2,370.4z"/>
					</g>
				</g>
				<g>
					<path class="st10" d="M206.7,347.3c0-7.6-5.2-16.6-0.5-22.7c3.8-4.3,11.3-5.2,14.6-10.9c2.4-3.3,1.9-6.2,3.3-9
						c6.6-13.3,32.6-17,45.8-18.9c12.7-1.9,23.1,5.2,34.5,9.5c14.6,5.2,28.8,10.9,42,18.5c8.5,5.2,16.1,10.4,17.5,20.8
						c1.9,11.4-0.9,23.7-5.2,34.1c-2.8,6.2-6.6,12.3-9.9,18.5c-1.4,3.8-4.7,15.6-8.5,17c-7.6,3.3-8-4.7-9.4-9
						c-3.3-7.6-5.2-7.6-12.8-8.5c-2.8-0.5-3.3,1.4-6.1,0c-2.8-1.4-6.1-8.1-9.9-10.4c-10.4-6.2-20.8-12.8-32.1-17
						c-19.4-6.6-40.6-6.2-60.5-10.9"/>
				</g>
				<g>
					<g>
						<path class="st11" d="M224.2,351c-2.5-2.9-4.8-5.5-5.8-9.2c-0.5-1.6-2.9-1.3-2.9,0.4c-0.1,5,2.4,9.2,6.2,12.2
							c1.1,0.9,3,0.1,2.5-1.5c-0.5-1.6-0.9-3.3-1.3-4.9c-0.4-1.6-3.1-1.3-2.9,0.4c0.4,3.5,2.1,5.5,5.5,6.4c0.6,0.2,1.4-0.1,1.7-0.7
							c0.9-1.6,1.3-2.9,1.5-4.8c0.1-0.5-0.3-1.1-0.7-1.3c-2.2-1-4.4-2.1-6.7-3.1c-1.4-0.6-3.2,1.2-1.8,2.4c3.3,2.8,6.7,5.1,10.9,6.2
							c1,0.3,1.8-0.5,1.9-1.4c0.3-3.7-0.3-7.4-0.4-11.2c-1,0.1-2,0.3-2.9,0.4c0.6,4.5,2.1,8.3,4.8,11.8c1,1.3,2.8-0.2,2.5-1.5
							c0-0.3,0-0.7,0-1c-0.9,0.1-1.8,0.2-2.7,0.4c4.4,5.7,10.3,6.2,16.9,7.8c1.3,0.3,2.7-1.5,1.5-2.5c-3.4-2.6-7.2-4.2-11-6.1
							c-0.5,0.9-1,1.7-1.5,2.6c1.8,0.9,3.7,1,5.7,1.5c0.7,0.2,1.7-0.2,1.8-1c0.7-3.6,0.1-7-0.4-10.6c-0.3-1.7-2.9-1.2-2.9,0.4
							c-0.3,6.4,1.4,13.2,6.2,17.6c0.9,0.8,2.7,0.3,2.6-1.1c-0.4-3.2-1.8-5.5-3.3-8.4c-0.7,0.7-1.4,1.4-2.1,2.1
							c1.3,0.7,2,1.2,2.9,2.2c1,1.1,2.9,0,2.5-1.5c0-0.1,0-0.1-0.1-0.2c-0.6-1.8-3.5-1.1-2.9,0.8c0,0.1,0,0.1,0.1,0.2
							c0.8-0.5,1.7-1,2.5-1.5c-1.1-1.1-2.1-1.9-3.5-2.7c-1.3-0.7-2.8,0.7-2.1,2.1c1.2,2.2,2.6,4.3,2.9,6.8c0.9-0.4,1.7-0.7,2.6-1.1
							c-4.3-3.9-5.6-9.9-5.3-15.5c-1,0.1-2,0.3-2.9,0.4c0.5,3.1,1,5.9,0.4,9c0.6-0.3,1.2-0.7,1.8-1c-1.7-0.4-3.4-0.4-5-1.2
							c-1.7-0.8-3.3,1.7-1.5,2.6c3.6,1.7,7.2,3.1,10.4,5.6c0.5-0.8,1-1.7,1.5-2.5c-5.5-1.4-11.4-1.6-15.1-6.5
							c-0.7-0.9-2.5-1.1-2.7,0.4c-0.2,1.1-0.2,1.5,0,2.6c0.8-0.5,1.7-1,2.5-1.5c-2.4-3.1-3.5-6.6-4.1-10.5c-0.2-1.7-3-1.3-2.9,0.4
							c0.1,3.7,0.7,7.4,0.4,11.2c0.6-0.5,1.3-1,1.9-1.4c-3.8-1-6.6-2.9-9.6-5.4c-0.6,0.8-1.2,1.6-1.8,2.4c2.1,0.9,6.7,1.7,4.8,5.1
							c0.6-0.2,1.1-0.5,1.7-0.7c-1.1-1.2-2.2-2.3-3.3-3.5c-1,0.1-2,0.3-2.9,0.4c0.4,1.7,0.8,3.3,1.3,4.9c0.8-0.5,1.7-1,2.5-1.5
							c-3.3-2.6-5.4-5.8-5.3-10.1c-1,0.1-2,0.3-2.9,0.4c1.2,4.2,3.8,7.2,6.6,10.5C223.3,354.6,225.5,352.5,224.2,351L224.2,351z"/>
					</g>
				</g>
				<g>
					<g>
						<path class="st11" d="M233.9,349.8c3.7,1.8,7.5,3.2,11.5,4.2c1.9,0.5,2.7-2.4,0.8-2.9c-3.7-1-7.3-2.2-10.8-3.9
							C233.7,346.4,232.2,349,233.9,349.8L233.9,349.8z"/>
					</g>
				</g>
				<g>
					<g>
						<path class="st11" d="M232,346.4c-0.4,0.1-0.5-0.1,0,0.2c0.4,0.3,0.8,0.7,1.2,1.1c1,1,1.8,2.1,2.7,3.1
							c-0.1-0.6-0.2-1.2-0.2-1.8c0.4-0.6,1.6-0.1,0.8-0.4c-0.4-0.2-0.8-0.3-1.3-0.3c-1.9-0.2-1.9,2.8,0,3c0.4,0,0.8,0.4,1.3,0.4
							c0.8,0,1.4-0.5,1.8-1.1c0.4-0.6,0.2-1.3-0.2-1.8c-1-1.3-2.1-2.6-3.3-3.8c-0.9-0.8-2.2-2-3.5-1.5
							C229.4,344.1,230.1,347,232,346.4L232,346.4z"/>
					</g>
				</g>
				<g>
					<g>
						<path class="st11" d="M216.5,345.7c-1.7,0.2-3.2,0.7-4.9,0.9c-1.5,0.1-2.1,2-0.8,2.8c4.8,3,10.8,3.7,16.3,4.2
							c1.9,0.2,1.9-2.8,0-3c-5-0.5-10.4-1.1-14.8-3.8c-0.3,0.9-0.5,1.9-0.8,2.8c1.7-0.2,3.2-0.7,4.9-0.9
							C218.4,348.5,218.4,345.5,216.5,345.7L216.5,345.7z"/>
					</g>
				</g>
				<g>
					<g>
						<path class="st11" d="M256.1,355.2c0.3-0.8,0.4-1.8,1-2.5c-0.9-0.4-1.7-0.7-2.6-1.1c0.1,3.4,1.9,6.1,5.1,7.3
							c1.8,0.7,2.6-2.2,0.8-2.9c-1.9-0.7-2.9-2.4-2.9-4.4c0-1.2-1.7-2.1-2.6-1.1c-1,1.1-1.3,2.4-1.7,3.8
							C252.7,356.2,255.6,357,256.1,355.2L256.1,355.2z"/>
					</g>
				</g>
				<g>
					<g>
						<path class="st11" d="M278.1,362.9c-5.5-3.7-10.7-7.6-17.6-7.4c-1.9,0.1-1.9,3.1,0,3c6.3-0.2,11.1,3.6,16.1,6.9
							C278.2,366.5,279.7,363.9,278.1,362.9L278.1,362.9z"/>
					</g>
				</g>
				<g>
					<g>
						<path class="st11" d="M308.8,378.8c-3.4-5.7-7.2-11.2-11.3-16.4c-0.4-0.5-1.3-0.6-1.8-0.2c-5.2,3.4-0.8,9.2,2.2,12.5
							c5.3,5.9,10.9,8.9,18.8,9.5c6.3,0.5,10.3,1.5,11.7,8.4c0.6,2.9,1.8,7,4,9.2c2,1.9,4.9,0.1,6.5-1.3c2.4-2.1,2-6.3,0.2-8.7
							c-0.7-1-1.9-1-2.6,0c-0.7,0.9-1.5,1.8-2.2,2.7c0.9,0.1,1.8,0.2,2.7,0.4c-1.4-10.3-9.7-12.2-18.9-11.8
							c-2.9,0.1-6.2,1.7-6.5-2.2c-0.4-5.1,8.9,2.1,9.5,2.6c5.4,4.4,10.1,9.7,11.3,16.7c0.2,1.1,1.8,1.5,2.5,0.7
							c1.4-1.6,2.7-3.7,0.6-5.4c-1-0.8-2.5-1.1-3.7-1.6c-2.4-1.1-3.6-4.3-4.9-6.4c-1.5-2.5-3.7-5.3-6.9-5.4
							c-4.1-0.2-10,4.9-11.4-1.4c-0.4-1.9-3.3-1.1-2.9,0.8c1.6,6.8,5.5,6.1,11,4.1c5.6-2,7.7,3.7,10.1,7.6c0.6,1,1.5,2.2,2.6,2.8
							c0.6,0.3,4.4,1.6,3.3,2.8c0.8,0.2,1.7,0.4,2.5,0.7c-1.5-9.4-9.2-16.5-16.7-21.7c-2.1-1.4-6.7-2.4-8.6-0.1
							c-2.1,2.6-1.3,5.5,0.3,8.2c0.3,0.4,0.8,0.8,1.3,0.7c9-0.5,20.9-2.8,22.6,9.2c0.2,1.5,2.1,1.2,2.7,0.4c0.7-0.9,1.5-1.8,2.2-2.7
							c-0.9,0-1.7,0-2.6,0c0.2,0.3,0.4,0.5,0.6,0.8c1.2,2.9,0.1,4.5-3.4,4.7c-0.6-0.9-0.9-2.1-1.2-3.1c-1-2.6-1.1-5.9-2.4-8.3
							c-2.2-4.1-5.6-5-10-5.7c-5.8-1-10.6-0.9-15.4-4.7c-2-1.6-11.5-9.5-7.4-12.1c-0.6-0.1-1.2-0.2-1.8-0.2c4,5,7.6,10.3,10.9,15.8
							C307.2,382,309.8,380.4,308.8,378.8L308.8,378.8z"/>
					</g>
				</g>
				<g>
					<g>
						<path class="st11" d="M330.9,314.7c0,5.1,2.3,7.8,5.8,11.2c5,4.7,4.3,12.2,6.8,18.2c0.5,1.2,2,0.8,2.6,0
							c2.5-3.3,3.6-7.1,4.6-11.1c-1,0-1.9,0-2.9,0c0.8,4,0.9,8.1,1.3,12.1c0.1,1.6,1.9,2,2.8,0.8c2.7-3.5,4-7.5,5.5-11.5
							c-0.9,0.1-1.8,0.2-2.7,0.4c3.5,4.8,5.4,10.4,6,16.2c0.2,1.9,3,2,3,0c0-7.5,1.2-15.7-3.5-22.1c-2.6-3.5-6.7-5.2-10.4-7.1
							c-5.7-3-11.2-6.3-17-9.2c-0.8-0.4-2-0.1-2.2,0.9c-0.6,2.8,1.3,5.5,2.8,7.8c2.6,4,6.4,8,7.4,12.7c0.4,1.8,2.8,1.2,2.9-0.4
							c0.2-1.7,0.8-3.3,1.3-5c-0.9,0.1-1.8,0.2-2.7,0.4c0.7,1.6,1.7,3,2.7,4.5c0.8,1.2,2.8,0.8,2.8-0.8c0-0.7,0-1.5,0-2.2
							c0-1.7-2.5-2-2.9-0.4c-0.6,2.2-1.2,4.3-1.4,6.7c1,0,2,0,3,0c-0.1-6-1-11.8-3.2-17.4c-0.9,0.4-1.8,0.8-2.7,1.2
							c3.4,5.5,10.6,7.5,13.3,13.4c0.4-0.8,0.9-1.5,1.3-2.3c-4.1-0.3-6-4.6-8.4-7.4c-2-2.4-4.1-4.3-7.3-5c-0.9-0.2-2,0.4-1.9,1.4
							c0.3,3.6,3.3,5.5,6.2,7.1c3.5,1.9,11.4,4.4,7.1,9.2c0.8,0.6,1.6,1.2,2.4,1.8c1.3-2.5,2.7-4.6,5.2-6.2
							c-0.8-0.4-1.5-0.9-2.3-1.3c0.2,1.7,0.7,3.3,0.9,4.9c0.2,1.5,2.7,2.2,2.9,0.4c0.4-2.4,0.4-4.6,0-7.1c-0.3-1.9-3.2-1.1-2.9,0.8
							c0.4,1.8,0.4,3.6,0,5.5c1,0.1,2,0.3,2.9,0.4c-0.2-1.7-0.7-3.2-0.9-4.9c-0.1-1.1-1.2-2-2.3-1.3c-2.9,1.8-4.7,4.2-6.3,7.2
							c-0.8,1.5,1.2,3.2,2.4,1.8c2.9-3.3,3.2-6.7-0.3-9.6c-2.9-2.4-11.8-4.6-12.2-8.9c-0.6,0.5-1.3,1-1.9,1.4
							c7.3,1.8,8.3,12,16.4,12.6c1.2,0.1,1.7-1.3,1.3-2.3c-2.8-6.1-9.9-7.9-13.3-13.4c-0.9-1.4-3.4-0.5-2.7,1.2
							c2.1,5.4,3,10.8,3.1,16.6c0,2,2.8,1.9,3,0c0.2-2.1,0.7-3.9,1.3-5.9c-1-0.1-2-0.3-2.9-0.4c0,0.7,0,1.5,0,2.2
							c0.9-0.3,1.9-0.5,2.8-0.8c-1-1.5-2-2.9-2.7-4.5c-0.6-1.3-2.4-0.8-2.7,0.4c-0.6,1.9-1.2,3.7-1.4,5.8c1-0.1,2-0.3,2.9-0.4
							c-0.7-3.2-2.6-5.9-4.4-8.6c-1.5-2.3-6.5-7.3-5.8-10.3c-0.7,0.3-1.5,0.6-2.2,0.9c4.2,2.1,8.2,4.4,12.3,6.7
							c4.2,2.3,8.9,4.1,12.6,7.1c6.3,5.2,4.6,14.9,4.6,22c1,0,2,0,3,0c-0.6-6.4-2.6-12.5-6.4-17.7c-0.8-1.1-2.3-0.9-2.7,0.4
							c-1.4,3.8-2.7,7.6-5.2,10.8c0.9,0.3,1.9,0.5,2.8,0.8c-0.4-4.3-0.6-8.6-1.4-12.9c-0.3-1.5-2.5-1.4-2.9,0
							c-0.9,3.7-1.9,7.2-4.3,10.4c0.9,0,1.7,0,2.6,0c-2.3-5.3-2-11.1-5-16.1c-2.7-4.4-7.3-5.7-7.2-11.7
							C333.9,312.8,330.9,312.8,330.9,314.7L330.9,314.7z"/>
					</g>
				</g>
				<g>
					<g>
						<path class="st11" d="M232.7,300c-1.4,4.9-3.3,9.6-6.1,14c-0.9,1.4,0.8,2.6,2.1,2.1c9.4-4.4,15.3-12.5,20.5-21.1
							c0.8-1.2-0.8-2.9-2.1-2.1c-5,3.4-10.4,5.4-16.1,7.5c0.4,0.9,0.8,1.8,1.2,2.7c5.3-2.8,10.6-4.7,16.5-5.7
							c1.7-0.3,1.3-3.1-0.4-2.9c-4.8,0.3-9,3.2-13.8,3.1c0.4,0.9,0.7,1.7,1.1,2.6c5.1-5.3,14-4.1,20.7-4.5c-0.1-1-0.3-2-0.4-2.9
							c-8.5,3.4-16.8,6.7-22.9,13.8c-1.2,1.5,0.8,3.6,2.1,2.1c6.8-7.5,14.6-13.3,24.7-15.3c1.9-0.4,1.1-3.3-0.8-2.9
							c-10.6,2.1-18.9,8.2-26,16c0.7,0.7,1.4,1.4,2.1,2.1c5.7-6.8,13.5-9.8,21.6-13c1.5-0.6,1.4-3-0.4-2.9
							c-7.6,0.4-17.1-0.7-22.8,5.4c-0.9,0.9-0.3,2.5,1.1,2.6c4.9,0.1,9-2.8,13.8-3.1c-0.1-1-0.3-2-0.4-2.9c-6.2,1-11.7,3.1-17.3,6
							c-1.5,0.8-0.5,3.3,1.2,2.7c5.9-2.1,11.6-4.2,16.8-7.8c-0.7-0.7-1.4-1.4-2.1-2.1c-5,8.2-10.5,15.9-19.5,20
							c0.7,0.7,1.4,1.4,2.1,2.1c2.9-4.6,4.9-9.5,6.4-14.7C236.2,298.9,233.3,298.1,232.7,300L232.7,300z"/>
					</g>
				</g>
				<g>
					<g>
						<path class="st11" d="M215.5,319.3c-3.4,5.9-7.1,11.4-8.2,18.2c0.9-0.1,1.8-0.2,2.7-0.4c-0.9-1.6-2-3.1-2.9-4.7
							c-0.5-0.8,2.9-2.9,3.3-3.2c4.2-3.4,7-7.7,9.4-12.5c-0.9-0.4-1.8-0.8-2.7-1.2c-2.1,6.3-7.9,8.9-11.7,13.9
							c-4,5.2-1.6,10.6,2,15.4c0.8,1,2.4,1,2.7-0.4c1.1-3.7,0.7-7.4,1.3-11.2c0.2-0.9-0.2-1.5-1-1.8c-0.8-0.4-1.5-0.8-2.3-1.2
							c0.2,0.6,0.5,1.1,0.7,1.7c2.8-8.2,10.6-13.4,15-20.7c1-1.7-1.6-3.2-2.6-1.5c-4.5,7.6-12.3,12.8-15.3,21.4
							c-0.2,0.6,0.1,1.4,0.7,1.7c1.3,0.8,1.6,1,3,1.5c-0.3-0.6-0.7-1.2-1-1.8c-0.7,3.7-0.3,7.5-1.3,11.2c0.9-0.1,1.8-0.2,2.7-0.4
							c-2-2.7-4.4-5.9-3.7-9.4c0.5-2.3,2.7-4.1,4.4-5.6c3.9-3.5,7.5-6.8,9.2-12c0.5-1.6-2-2.7-2.7-1.2c-1.8,3.6-3.7,6.8-6.5,9.7
							c-1.8,1.9-4.1,3.3-5.9,5.1c-2.5,2.5,1.4,6.5,2.7,8.6c0.6,1,2.5,1,2.7-0.4c1.1-6.6,4.6-11.8,7.8-17.5
							C219.1,319.1,216.5,317.6,215.5,319.3L215.5,319.3z"/>
					</g>
				</g>
				<g id="frontal.psd_1_" class="st12">
					<g>
						<defs>
							<rect id="SVGID_3_" x="166.7" y="269.5" width="196" height="162"/>
						</defs>
						<clipPath id="SVGID_4_">
							<use xlink:href="#SVGID_3_"  style="overflow:visible;"/>
						</clipPath>
						<g style="clip-path:url(#SVGID_4_);">
							
								<image style="overflow:visible;" width="318" height="261" xlink:href="3B4B2CF5799DAB07.png"  transform="matrix(0.6165 0 0 0.62 166.3015 269.3412)">
							</image>
						</g>
					</g>
				</g>
			</g>
		</g>
		<g>
			<g>
				<path class="st0" d="M371.3,399.8c-0.3-2.1-0.9-4-1.8-5.7c-1.3-2.5-3.1-4.5-5.4-5.8c-1.9-1.1-3.9-1.8-6-1.9
					c-0.5,0-0.9,0.2-1.4,0.2c-3,0-5.9,1.9-8.8,2.9h-0.2l-0.2-0.1c0,0-0.1-0.1-0.1-0.1l-4.9,3l-0.3,3.6l-3.5,4.4
					c-1.2-2.6-2.9-4.9-5-6.9c-2.6-2.4-5.6-4.2-8.9-5.4c-3-1-6-1.5-9.1-1.5c-1.9,0-3.9,0.1-5.9,0.2c-2.5,0.1-5,0.6-7.3,1.3l-0.1,0
					l-0.3-0.2c-2.2-1.1-4.6-1.7-7.2-1.7c-1.3,0-2.7,0.1-4.1,0.4l-4,0.8c-1.8-0.6-3.7-1-5.9-1c-0.8,0-1.6,0-2.4,0.1l-5.1,0.5
					l-2.4,3.4c-0.6-0.6-1.4-1.2-2.1-1.6c-1.9-1.2-4-1.9-6.2-2.1l-0.1,0l-0.1,0c-0.3,0-0.7,0-1,0c-3.4,0-6.7,1.1-9.9,3.4l-4.2,3
					l-0.4,3.9c-0.3-1.4-0.8-2.7-1.5-4l-0.1-0.1l-0.1-0.1c-1.9-3.3-5.2-5.6-9-6.2c-0.8-0.1-1.6-0.2-2.3-0.2c-1.4,0-2.8,0.2-4.2,0.6
					c-1.2,0.4-2.4,0.9-3.6,1.5c-0.7,0.4-1.2,0.7-1.7,1c-0.2-0.1-0.3-0.3-0.5-0.4c-2.3-1.7-5-2.5-7.8-2.5c-0.5,0-1,0-1.5,0.1
					c-1.8,0.2-3.5,0.7-5.3,1.5c-0.8,0.4-1.5,0.8-2.2,1.2l-0.3,0.2l-0.3,0.2c-0.8,0.5-1.5,1.1-2.2,1.8c-0.7-0.6-1.4-1.1-2.1-1.6
					c-1.8-1.2-3.8-2.2-6-2.7c-1.8-0.5-3.7-0.7-5.5-0.7c-0.3,0-0.5,0-0.8,0c-3.5,0.1-6.8,1-10,2.4c-2.4,1.1-4.6,2.4-6.7,3.9
					c-2.3,1.6-4.5,3.5-6.4,5.7c-2.3,2.6-4,5.6-5.1,8.8l0,0.1l0,0.1c-1.2,3.5-1.3,7.1-0.5,10.5c-1,0.7-1.9,1.6-2.7,2.5l0,0l0,0
					c-0.8,0.9-1.4,1.9-2,2.8l-0.1,0.2l-0.1,0.2c-1.2,2.4-1.8,5-1.7,7.5c0.1,2.3,0.6,4.6,1.6,6.7c0.8,1.6,1.7,3,2.9,4.3
					c1.1,1.2,2.3,2.3,3.6,3.3c3.1,2.3,6.7,3.7,10.5,4.2c1.3,0.2,2.5,0.3,3.8,0.3c2,0,4-0.2,5.9-0.6c2.9-0.6,5.8-1.6,8.5-3
					c1.1-0.5,2.1-1.1,3.1-1.7c0.6,0.5,1.1-0.8,1.8-0.3c3.6,2.7,7.8,2.3,12.1,2.3h0.2c3.5,0,7,1,10.2-0.5c2.8-1.3,5.5-2.1,7.8-4.3
					c2.2-1.9,4-3.5,5.6-5.7l0.1,0.1l0.1-0.1c1.3-2,2.6-4.1,3.6-6.3c0.8-1.8,1.6-3.5,2.4-5.2c1.3-2.6,2.6-5.3,3.9-7.9
					c1.3-2.7,2.4-5.5,3.2-8.4l-2.1,20.8c-0.2,2.3-0.2,4.2,0,6c0.3,2.2,0.8,4.1,1.6,5.8c1.2,2.4,2.8,4.3,4.9,5.7c1.9,1.3,4,2,6.2,2.3
					c0.6,0.1,1.2,0.1,1.8,0.1c2.9,0,5.8-0.8,8.8-2.5l1.6-0.9c1.3,1.3,2.9,2.4,4.7,3.1c1.8,0.7,3.7,1.1,5.7,1.1
					c1.8,0,3.7-0.3,5.8-0.9l2.4-0.7c1.1,0.6,2.2,1.1,3.4,1.4c1,0.3,2.1-1.3,3.2-1.3c0.5,0,0.9-1.7,1.4-1.7h5.6c4.4,0,8.6,1,12.6-0.4
					c1.9-0.7,3.8-0.6,5.6-1.6c0.7,0.8,1.5,1.9,2.3,2.5c2.6,1.8,5.7,2.9,9.3,2.9c0.8,0,1.6,0.1,2.4,0l4.8-0.4l3-3.8l2.2-2.8
					c1.3,2.1,3.1,3.7,5.2,4.9c2,1.1,4.3,1.6,6.6,1.6c3.4,0,6.9-1.2,10.2-3.6l4.5-3.2l0.3-5.5l1.7-31.5
					C371.7,403.5,371.6,401.5,371.3,399.8z"/>
			</g>
			<g>
				<g>
					<path class="st8" d="M169.7,435.6c-0.6-0.4-1.2-1-1.7-1.5c-0.5-0.6-0.9-1.2-1.2-1.8c-0.3-0.6-0.5-1.3-0.5-2
						c0-0.7,0.2-1.4,0.5-2.2c0.2-0.3,0.4-0.7,0.8-1.1c0.3-0.4,0.6-0.7,1-0.9c0.4-0.2,0.7-0.3,1.1-0.3c0.4,0,0.7,0.2,1,0.7
						c0.3,0.3,0.5,0.7,0.7,1c0.2,0.4,0.4,0.7,0.6,1c0.2,0.3,0.4,0.6,0.7,0.9c0.3,0.3,0.6,0.5,1.1,0.8c0.8,0.4,1.6,0.6,2.5,0.6
						c0.9,0.1,1.8,0,2.6-0.1c0.9-0.1,1.8-0.4,2.6-0.7c0.9-0.3,1.7-0.7,2.4-1.1c0.6-0.3,1.2-0.7,2-1.2c0.8-0.5,1.4-1.1,1.9-1.8
						c0.5-0.6,0.8-1.3,0.8-2c0-0.7-0.4-1.3-1.4-2c-0.9-0.6-1.7-0.8-2.6-0.9c-0.9,0-1.7-0.1-2.7-0.1c-0.9-0.1-1.8-0.3-2.7-0.5
						c-0.9-0.2-1.7-0.5-2.6-0.9c-1.8-0.9-3-2.2-3.8-3.9c-0.7-1.7-0.8-3.5-0.1-5.4c0.6-1.9,1.6-3.5,2.9-5c1.3-1.5,2.7-2.8,4.3-3.9
						c1.6-1.1,3.2-2.1,5-2.9s3.6-1.3,5.6-1.4c1,0,1.9,0.1,2.9,0.3c0.9,0.3,1.8,0.7,2.6,1.2c0.8,0.5,1.5,1.2,2.1,2
						c0.6,0.8,1,1.6,1.3,2.6c0.3,1,0.4,2,0.2,3c-0.1,1-0.4,2-0.8,2.9c-0.2,0.4-0.4,0.8-0.6,1.1c-0.2,0.3-0.5,0.7-0.7,1
						c0,0-0.1,0.1-0.2,0.2c-0.1,0.1-0.2,0.2-0.4,0.3c-0.1,0.1-0.3,0.3-0.4,0.4s-0.2,0.2-0.2,0.2c-0.3,0.2-0.6,0.4-1,0.4
						c-0.4,0.1-0.8,0.1-1.3,0c-0.4,0-0.8-0.1-1.2-0.3c-0.4-0.1-0.7-0.3-0.9-0.5c-0.4-0.3-0.6-0.6-0.7-1c0-0.4,0-0.8,0.2-1.3
						c0.2-0.4,0.4-0.9,0.6-1.3c0.2-0.4,0.4-0.8,0.6-1.2c0.3-0.8,0.3-1.5,0.1-2.1c-0.2-0.6-0.8-0.9-1.8-0.9c-0.9,0.1-1.7,0.3-2.5,0.6
						c-0.8,0.3-1.6,0.7-2.3,1c-1.7,1-3.2,2.3-4.6,3.8c-0.1,0.1-0.3,0.3-0.6,0.6c-0.3,0.3-0.5,0.7-0.8,1c-0.3,0.4-0.5,0.7-0.6,1.1
						c-0.1,0.4-0.1,0.6,0,0.8c0.5,0.5,1.1,0.8,2,0.8c0.8,0.1,1.6,0.1,2.3,0.1c0.7,0.1,1.4,0.2,2.1,0.2c0.7,0.1,1.3,0.3,2,0.5
						c1.8,0.5,3.4,1.4,4.8,2.7c1.4,1.3,2.4,2.9,2.8,4.7c0.4,2,0.2,3.9-0.7,5.7c-0.9,1.8-2,3.4-3.5,4.7c-1.4,1.2-3,2.2-4.8,3.1
						c-1.9,0.9-3.8,1.6-5.7,2c-2,0.4-3.9,0.5-5.9,0.2C173.1,437.5,171.3,436.7,169.7,435.6z"/>
					<path class="st8" d="M235.6,402.6c-0.7,3-1.8,5.8-3.1,8.6c-1.3,2.7-2.6,5.4-3.9,8.1c-0.8,1.7-1.6,3.5-2.4,5.2
						c-0.8,1.7-1.7,3.3-2.8,4.9c-1,1.4-2.3,2.9-3.9,4.3c-1.6,1.4-3.2,2.5-5,3.3c-1.8,0.8-3.7,1.3-5.6,1.3c-1.9,0-3.7-0.6-5.5-1.9
						c-1.5-1.1-2.6-2.4-3.1-3.9s-0.8-3.1-0.7-4.7c0.1-1.7,0.4-3.3,1-5c0.6-1.7,1.2-3.2,1.9-4.6c0.8-1.4,1.5-2.9,2.3-4.4
						c0.7-1.5,1.5-3,2.2-4.5c0.7-1.4,1.4-2.7,2.1-4c0.6-1.3,1.3-2.6,2-3.9c0.4-0.7,0.7-1.2,0.9-1.6c0.2-0.4,0.6-0.8,1.2-1.2
						c0.4-0.3,0.9-0.5,1.5-0.8c0.5-0.3,1.1-0.4,1.6-0.5c0.5-0.1,0.9,0,1.3,0.3c0.4,0.3,0.5,0.8,0.6,1.6c0.1,1.3-0.1,2.6-0.5,3.8
						c-0.4,1.3-0.9,2.5-1.4,3.6c-0.6,1.4-1.2,2.7-1.8,4c-0.7,1.3-1.3,2.6-2,3.9c-0.7,1.6-1.5,3.1-2.3,4.5c-0.8,1.5-1.6,3-2.3,4.5
						c-0.3,0.7-0.6,1.6-0.8,2.6c-0.2,1-0.3,1.9-0.1,2.7c0.1,0.8,0.5,1.4,1.1,1.9c0.6,0.4,1.5,0.5,2.8,0.2c1.8-0.5,3.3-1.4,4.7-2.9
						s2.5-3,3.4-4.6c0.7-1.2,1.4-2.5,2-3.8s1.2-2.7,1.9-4c1.3-2.9,2.7-5.8,4-8.6c1.3-2.8,2.6-5.7,4-8.6c0.3-0.2,0.7-0.4,1.2-0.7
						c0.5-0.3,1-0.5,1.5-0.6c0.5-0.1,1-0.2,1.4-0.1c0.4,0.1,0.8,0.3,1.1,0.8c0.2,0.3,0.3,0.7,0.3,1.1c0,0.4,0,0.8,0,1.3
						c0,0.4-0.1,0.9-0.2,1.3C235.7,401.8,235.6,402.2,235.6,402.6z"/>
					<path class="st8" d="M257.9,437.1c-0.4,0-0.9-0.2-1.3-0.4c-0.4-0.3-0.7-0.7-1-1.3c-0.3-0.6-0.5-1.3-0.6-2.3
						c-0.1-0.9-0.1-2.1,0.1-3.6l3.1-31c1.4-1,2.6-1.4,3.6-1.3c0.4,0,0.9,0.2,1.3,0.4s0.7,0.7,1,1.3c0.3,0.6,0.5,1.4,0.6,2.4
						c0.1,1,0.1,2.2,0,3.8l-1.4,15.2l16.7-23.3c1.7-0.2,3.1,0,4,0.6c0.4,0.3,0.7,0.6,0.9,1c0.2,0.4,0.3,1,0.2,1.7
						c-0.1,0.7-0.4,1.6-0.8,2.6c-0.5,1-1.2,2.2-2.1,3.6l-20.2,28l-0.1,1.7C260.2,436.9,259,437.2,257.9,437.1z"/>
					<path class="st8" d="M277.7,437.6c-0.4-0.1-0.8-0.4-1-0.8c-0.3-0.4-0.4-0.9-0.5-1.7s0.1-1.6,0.4-2.7c0.3-1.1,0.8-2.4,1.6-4
						l15.1-31.6c1.6-0.3,2.9-0.3,3.8,0.2c0.4,0.2,0.7,0.5,1,0.9c0.3,0.4,0.4,1,0.5,1.6c0,0.7-0.1,1.5-0.4,2.6
						c-0.3,1-0.8,2.3-1.4,3.7l-15,31.5C280,437.9,278.6,438,277.7,437.6z"/>
					<path class="st8" d="M297.6,431.2c-0.4-0.2-0.7-0.4-1-0.8s-0.5-0.8-0.6-1.3c-0.1-0.5-0.1-1.2,0.1-1.9c0.1-0.8,0.5-1.7,0.9-2.7
						l9.7-20.2h-1.2c-0.5-0.4-1-0.8-1.4-1.2c-0.5-0.4-0.8-0.9-1-1.5c-0.2-0.4-0.2-0.8-0.1-1.1s0.3-0.6,0.5-0.9
						c0.2-0.3,0.5-0.5,0.9-0.7c0.3-0.2,0.7-0.4,1-0.5c1.7-0.6,3.4-1,5.3-1.1c1.9-0.1,3.6-0.1,5.3-0.1c1.9,0,3.7,0.3,5.5,0.9
						c1.8,0.6,3.4,1.6,4.7,2.9c1.5,1.4,2.5,3.1,3.1,5c0.6,1.9,0.8,3.9,0.7,5.9c-0.2,2-0.6,4-1.3,5.9c-0.7,2-1.6,3.8-2.6,5.5
						c-1.1,1.7-2.3,3.4-3.7,4.9c-1.4,1.5-2.9,2.9-4.5,4.1c-2.5,1.9-5.2,3.3-7.9,4.2c-2.7,0.9-5.7,1.4-8.9,1.4h-5.9
						c-0.3,0-0.5,0-0.8,0.1c-0.3,0-0.5,0-0.8-0.1c-0.4-0.1-0.8-0.3-1.2-0.6c-0.4-0.3-0.7-0.6-0.9-0.9c-0.4-0.4-0.7-0.8-1-1.4
						c-0.3-0.6-0.2-1.1,0.2-1.7c0.4-0.5,0.9-0.9,1.7-1.1c0.7-0.2,1.4-0.4,2.1-0.5c0.6-0.1,1.1-0.3,1.6-0.3
						C296.6,431.3,297.1,431.2,297.6,431.2z M312.9,404.2c0.3,0.6,0.4,1.2,0.3,2.1c-0.1,0.8-0.4,1.9-1,3.2l-10.3,21.4
						c0.3,0,0.6,0,1,0c0.4,0,0.7,0,1-0.1c1.8-0.2,3.6-0.7,5.3-1.5c1.7-0.8,3.3-1.8,4.8-2.9c1.5-1.2,2.8-2.5,4-4c1.2-1.5,2.2-3,3-4.6
						c0.4-0.7,0.7-1.6,1.1-2.5c0.4-0.9,0.6-1.8,0.8-2.8c0.2-0.9,0.2-1.9,0.1-2.8s-0.3-1.8-0.8-2.6c-0.4-0.7-0.9-1.2-1.5-1.6
						c-0.6-0.4-1.2-0.7-1.9-0.9c-0.7-0.2-1.4-0.3-2.1-0.4c-0.7-0.1-1.4-0.1-2.1-0.1H312.9z"/>
					<path class="st8" d="M332,438.2c-1.8,0.2-3.2,0-4-0.6c-0.4-0.3-0.7-0.6-0.8-1.1c-0.2-0.4-0.2-1-0.1-1.7c0.1-0.7,0.5-1.6,1-2.6
						c0.5-1,1.4-2.2,2.5-3.6h-2.1c-0.6-1.3-0.9-2.5-0.9-3.6c0-0.4,0.1-0.9,0.2-1.3c0.1-0.4,0.4-0.8,0.8-1.1c0.4-0.3,0.8-0.6,1.4-0.8
						s1.4-0.3,2.3-0.3h3.8l17.3-21.9h0.1l0.1-1.4c1.4-0.9,2.6-1.2,3.6-1.1c0.4,0,0.9,0.2,1.3,0.4c0.4,0.2,0.8,0.7,1.1,1.2
						c0.3,0.6,0.5,1.3,0.7,2.3c0.1,0.9,0.2,2.1,0.1,3.6l-1.7,31.5c-1.4,1-2.6,1.5-3.7,1.5c-0.4,0-0.9-0.1-1.3-0.3s-0.8-0.6-1.1-1.2
						c-0.3-0.6-0.5-1.4-0.7-2.4c-0.1-1-0.2-2.3-0.1-3.8l0.1-2.1c-0.4,0.3-0.8,0.5-1.4,0.7c-0.6,0.2-1.3,0.3-2.1,0.3h-8.9L332,438.2z
						 M345.1,421.6h6.9c0,0,0,0.1,0.1,0.1c0,0,0.1,0.1,0.2,0.3l0.6-10.2L345.1,421.6z"/>
				</g>
			</g>
		</g>
	</g>
</g>
<g class="video1">
	<g>
		<path class="st0" d="M403,744.1c-1,0-2-0.3-2.8-0.8l-115.2-66.5c-1.8-1-2.8-2.9-2.8-4.9l0-133.1c0-2,1.1-3.9,2.8-4.9L400,467.2
			c0.9-0.5,1.9-0.8,2.8-0.8c1,0,2,0.3,2.8,0.8L521,533.7c1.8,1,2.8,2.9,2.8,4.9l0,133.1c0,2-1.1,3.9-2.8,4.9l-115.2,66.6
			C404.9,743.8,404,744.1,403,744.1z"/>
		<path class="st1" d="M402.9,472.2l115.2,66.5l0,133.1L403,738.4l-115.3-66.5l0-133.1L402.9,472.2 M402.9,460.8
			c-2,0-3.9,0.5-5.7,1.5L282,528.9c-3.5,2-5.7,5.8-5.7,9.9l0,133.1c0,4.1,2.2,7.8,5.7,9.8l115.3,66.5c1.8,1,3.7,1.5,5.7,1.5
			c2,0,3.9-0.5,5.7-1.5l115.2-66.6c3.5-2,5.7-5.8,5.7-9.8l0-133.1c0-4.1-2.2-7.8-5.7-9.8l-115.3-66.5
			C406.8,461.3,404.9,460.8,402.9,460.8L402.9,460.8z"/>
	</g>
	<g>
		<path class="st1" d="M525,647.1c-0.2-2.9-1.2-5.7-2.9-8c0,0,0-0.1,0-0.1c-1.4-2-3.2-3.6-5.4-4.7c-0.3-0.2-0.6-0.3-0.9-0.4
			c-2.3-1-4.7-1.6-7.3-1.6c-1.2,0-2.5,0.1-3.8,0.4c-1.6,0.3-3.1,0.8-4.4,1.6c-0.1,0-0.1-0.1-0.2-0.1c-1.6-0.7-3.3-1.1-5.1-1.2
			c-0.6-0.9-1.2-1.8-2-2.7c-2.7-3.2-6.6-5-10.6-5c-1.6,0-3.2,0.3-4.8,0.9l-10.7,4c-2.5,0.9-4.5,2.3-6.2,3.9
			c-0.4-0.1-0.8-0.3-1.2-0.4c-0.2,0-0.3-0.1-0.5-0.1c-1.8-0.4-3.7-0.6-5.5-0.6c-1.5,0-3.1,0.2-4.6,0.5c-1.6,0.3-3.1,0.1-4.6,0.7
			c-2-1.1-4.3-2.5-6.7-2.5h-16.9c-2.1,0-4,1-5.8,1.5c-0.8,0.2-1.5,0.9-2.2,1.2c-0.9-0.4-1.8-0.5-2.7-0.7c-1.5-0.4-3-0.5-4.6-0.6
			c-0.8-0.1-1.7-0.1-2.6-0.1c-0.4,0-0.8,0-1.3,0c-0.7,0-1.3-0.6-1.9-0.6c-0.4,0-1-0.7-1.6-0.7h-0.5c-1.4,0-2.9,0.8-4.3,1
			c-1.6,0.3-3.2,0.3-4.7,0.9c-2.7-1-5.5-1.9-8.4-1.9h-3.2h-2.9c-1.9,0-3.8,0.9-5.7,1.3l-0.7,0.5l-0.3,0.2c-1.4,0.3-2.6,0.8-3.8,1.4
			c-1.2,0.6-2.2,1.3-3.2,2c-0.1,0.1-0.1,0.1-0.2,0.2c-2.2-2.2-5-3.7-8.1-4.2c-0.9-0.2-1.8-0.2-2.6-0.2c-1.6,0-3.1,0.2-4.6,0.7
			c-0.8,0.2-1.5,0.5-2.3,0.8c-2-0.9-4.1-1.4-6.3-1.4c-0.6,0-1.1,0-1.7,0.1c-2,0.2-3.9,0.8-5.7,1.6c-0.5,0.3-1,0.5-1.4,0.8
			c-1.4-0.8-3-1.4-4.5-1.9c-1.8-0.5-3.7-0.8-5.6-0.8c-0.3,0-0.5,0-0.8,0c-3.3,0.1-6.5,0.9-9.5,2.3c-2,1-4,2.1-5.8,3.4
			c-2.1,1.5-4,3.2-5.7,5.2c-2.1,2.5-3.7,5.3-4.8,8.4c0,0,0,0.1,0,0.1c-0.8,2.5-1.1,5-1,7.5c-0.1,0.2-0.3,0.3-0.4,0.5
			c-0.8,0.9-1.5,1.9-2.1,3c-0.1,0.2-0.2,0.4-0.3,0.6c-1.3,2.6-1.9,5.4-1.8,8.2c0.1,2.5,0.7,4.9,1.8,7.2c0.8,1.6,1.7,3.1,2.9,4.4
			c1.1,1.2,2.3,2.3,3.6,3.3c3.1,2.3,6.5,3.6,10.3,4.1c1.2,0.1,2.4,0.2,3.5,0.2c1.8,0,3.7-0.2,5.5-0.6c2.4-0.5,4.8-1.7,7.1-2.8
			c3.3,2.1,7.1,2.8,10.9,2.8c0,0,0.2,0,0.2,0c3.4,0,6.7-0.4,9.8-1.9c2.6-1.2,5-2.6,7.2-4.5c0.7-0.6,1.2-1.1,1.9-1.7
			c0.5,0.9,1,1.9,1.7,2.7c1.7,2.1,3.9,3.8,6.5,4.8c2,0.8,4.1,1.2,6.4,1.2c1.6,0,3.3-0.2,5-0.6c2.7-0.7,5.2-2.2,7-4.3
			c1.6,1.6,3.4,2.9,5.5,3.7c2,0.8,4.1,1.2,6.4,1.2c1.6,0,3.3-0.2,5-0.6c0.9-0.2,1.8-0.5,2.6-0.9c1.3,0.7,2.5,1,3.4,1.2
			c1.2,0.3,2.5,0.4,3.8,0.4c1,0,2-0.4,2.9-0.5c0.7,0.1,1.4-0.1,2.2-0.1h17c2.2,0,4.1,0,5.9-0.5c0.3-0.1,0.5,0,0.7-0.1
			c0.2,0.1,0.4,0.3,0.6,0.4c0.1,0,0.1,0.1,0.2,0.1c2.7,1.3,5.6,1.9,8.6,1.9c0.6,0,1.1,0,1.7-0.1c0,0,0.1,0,0.1,0
			c0.5,0.2,0.9,0.3,1.4,0.4c0.1,0,0.3,0.1,0.4,0.1c1.4,0.3,3,0.4,4.5,0.4c3.4,0,6.5-1.2,9-3.3c2.3,0.7,4.6,1.1,6.9,1.1
			c1.1,0,2.2-0.1,3.3-0.2c2.1-0.3,4.2-0.9,6.2-1.8c0.6,0.4,1.3,0.7,2,1c2,0.8,4.3,1.2,6.6,1.2c1.3,0,2.6-0.1,3.9-0.4
			c1.2-0.2,2.4-0.6,3.5-1.1c0.2,0.1,0.4,0.2,0.7,0.3c1.7,0.6,3.6,1,5.5,1c0.8,0,1.6-0.1,2.4-0.2c3.7-0.6,7.2-2.4,10.2-5.4
			c1.4-1.4,2.4-3,3.1-4.7l10.3-21.7c0.9-1.8,1.5-3.5,2-5.2C524.9,651.3,525.1,649.2,525,647.1z"/>
		<g>
			<g>
				<path class="st8" d="M301.3,676.8c-0.5-0.3-0.9-0.7-1.3-1.1s-0.7-0.9-0.9-1.4s-0.4-1-0.4-1.5c0-0.5,0.1-1.1,0.4-1.6
					c0.1-0.2,0.3-0.5,0.6-0.8c0.2-0.3,0.5-0.5,0.7-0.6s0.5-0.2,0.8-0.2c0.3,0,0.5,0.2,0.8,0.5c0.2,0.2,0.4,0.5,0.5,0.8
					c0.2,0.3,0.3,0.5,0.5,0.7c0.2,0.2,0.3,0.5,0.5,0.7s0.5,0.4,0.8,0.6c0.6,0.3,1.2,0.4,1.8,0.5c0.7,0,1.3,0,2-0.1
					c0.7-0.1,1.3-0.3,2-0.5c0.7-0.2,1.3-0.5,1.8-0.8c0.4-0.2,0.9-0.5,1.5-0.9c0.6-0.4,1.1-0.8,1.5-1.3s0.6-1,0.6-1.5
					c0-0.5-0.3-1-1-1.5c-0.6-0.4-1.3-0.6-1.9-0.6c-0.6,0-1.3,0-2-0.1c-0.7-0.1-1.4-0.2-2-0.4c-0.7-0.2-1.3-0.4-1.9-0.7
					c-1.3-0.7-2.3-1.7-2.8-2.9c-0.5-1.3-0.6-2.6-0.1-4.1c0.5-1.4,1.2-2.6,2.2-3.8c1-1.1,2-2.1,3.2-2.9c1.2-0.8,2.4-1.6,3.7-2.2
					c1.3-0.6,2.7-1,4.2-1c0.7,0,1.4,0.1,2.1,0.2c0.7,0.2,1.4,0.5,2,0.9c0.6,0.4,1.1,0.9,1.5,1.5c0.4,0.6,0.7,1.2,0.9,2
					c0.2,0.7,0.3,1.5,0.2,2.2c-0.1,0.7-0.3,1.5-0.6,2.2c-0.1,0.3-0.3,0.6-0.5,0.8c-0.2,0.2-0.3,0.5-0.5,0.8c0,0-0.1,0.1-0.2,0.1
					s-0.2,0.2-0.3,0.2c-0.1,0.1-0.2,0.2-0.3,0.3s-0.1,0.1-0.1,0.2c-0.2,0.2-0.4,0.3-0.7,0.3c-0.3,0-0.6,0-0.9,0s-0.6-0.1-0.9-0.2
					c-0.3-0.1-0.5-0.2-0.7-0.4c-0.3-0.2-0.5-0.4-0.5-0.7c0-0.3,0-0.6,0.1-1c0.1-0.3,0.3-0.7,0.5-1c0.2-0.3,0.3-0.6,0.4-0.9
					c0.2-0.6,0.2-1.1,0.1-1.6c-0.2-0.5-0.6-0.7-1.4-0.7c-0.6,0.1-1.3,0.2-1.8,0.4c-0.6,0.2-1.2,0.5-1.7,0.8
					c-1.2,0.7-2.4,1.7-3.4,2.8c-0.1,0.1-0.2,0.2-0.4,0.5c-0.2,0.2-0.4,0.5-0.6,0.7c-0.2,0.3-0.3,0.5-0.5,0.8c-0.1,0.3-0.1,0.5,0,0.6
					c0.4,0.4,0.9,0.6,1.5,0.6s1.2,0.1,1.7,0.1c0.6,0.1,1.1,0.1,1.6,0.2c0.5,0.1,1,0.2,1.5,0.4c1.3,0.4,2.5,1.1,3.6,2
					s1.8,2.1,2.1,3.5c0.3,1.5,0.1,2.9-0.5,4.3c-0.6,1.4-1.5,2.5-2.6,3.5c-1,0.9-2.2,1.6-3.6,2.3s-2.8,1.2-4.3,1.5s-2.9,0.4-4.4,0.2
					C303.8,678.2,302.5,677.7,301.3,676.8z"/>
				<path class="st8" d="M350.4,652.2c-0.6,2.2-1.3,4.3-2.3,6.4c-1,2-2,4-2.9,6c-0.6,1.3-1.2,2.6-1.8,3.9c-0.6,1.3-1.3,2.5-2.1,3.7
					c-0.8,1.1-1.7,2.1-2.9,3.2c-1.2,1-2.4,1.9-3.8,2.5c-1.3,0.6-2.7,0.9-4.2,1c-1.4,0-2.8-0.5-4.1-1.4c-1.1-0.8-1.9-1.8-2.3-2.9
					c-0.4-1.1-0.6-2.3-0.5-3.5c0.1-1.2,0.3-2.5,0.7-3.7c0.4-1.2,0.9-2.4,1.4-3.4c0.6-1.1,1.1-2.2,1.7-3.3c0.6-1.1,1.1-2.2,1.7-3.3
					c0.6-1,1.1-2,1.6-3c0.5-1,1-2,1.5-2.9c0.3-0.5,0.5-0.9,0.7-1.2s0.5-0.6,0.9-0.9c0.3-0.2,0.7-0.4,1.1-0.6
					c0.4-0.2,0.8-0.3,1.2-0.4c0.4,0,0.7,0,1,0.2c0.3,0.2,0.4,0.6,0.4,1.2c0.1,1-0.1,1.9-0.4,2.9c-0.3,0.9-0.7,1.8-1.1,2.7
					c-0.4,1-0.9,2-1.4,3s-1,2-1.5,2.9c-0.6,1.2-1.1,2.3-1.7,3.4c-0.6,1.1-1.2,2.2-1.7,3.4c-0.2,0.6-0.4,1.2-0.6,1.9
					c-0.2,0.7-0.2,1.4-0.1,2c0.1,0.6,0.4,1.1,0.8,1.4c0.4,0.3,1.1,0.4,2.1,0.1c1.3-0.4,2.5-1.1,3.5-2.2s1.8-2.2,2.5-3.4
					c0.5-0.9,1-1.9,1.5-2.8c0.5-1,0.9-2,1.4-3c1-2.2,2-4.3,2.9-6.4c1-2.1,2-4.2,3-6.4c0.2-0.1,0.5-0.3,0.9-0.5
					c0.4-0.2,0.7-0.3,1.1-0.5c0.4-0.1,0.7-0.1,1.1-0.1c0.3,0.1,0.6,0.2,0.8,0.6c0.1,0.2,0.2,0.5,0.2,0.8c0,0.3,0,0.6,0,1
					c0,0.3-0.1,0.7-0.1,1C350.5,651.6,350.4,651.9,350.4,652.2z"/>
				<path class="st8" d="M362.7,678.3c-0.3-0.1-0.6-0.3-0.8-0.6s-0.4-0.7-0.4-1.1c0-0.5,0-1.1,0.2-1.8c0.2-0.7,0.5-1.6,1-2.6
					l9.1-18.9h-2.5l-0.1-0.1c-0.2-0.2-0.3-0.4-0.5-0.7c-0.2-0.2-0.4-0.5-0.5-0.8c-0.1-0.3-0.2-0.6-0.2-0.9s0-0.6,0.2-0.9
					c0.1-0.2,0.3-0.5,0.5-0.6c0.2-0.2,0.5-0.3,0.8-0.5c0.3-0.1,0.6-0.2,0.9-0.3s0.6-0.1,0.8-0.2c0.9-0.2,1.8-0.3,2.8-0.3
					c0.9,0,1.9,0,2.9,0h3.2c1.5,0,2.9,0.3,4.2,1c1.3,0.7,2.4,1.6,3.2,2.9c0.7,1.2,1.2,2.5,1.2,3.8s-0.1,2.6-0.5,3.8s-1,2.4-1.8,3.5
					c-0.8,1.1-1.7,2-2.8,2.8c-1.2,0.9-2.4,1.6-3.8,2.1c-1.3,0.5-2.7,0.8-4.1,1.1c-0.6,0.1-1.1,0.2-1.5,0.1c-0.4,0-0.8-0.3-1.2-0.8
					c-0.5-0.5-0.8-1-0.9-1.6c-0.1-0.6,0.1-1.2,0.7-1.6c0.5-0.4,1-0.7,1.6-0.9c0.6-0.2,1.2-0.5,1.8-0.7c0.6-0.2,1.2-0.4,1.8-0.6
					c0.6-0.2,1.2-0.5,1.7-0.9c0.4-0.3,0.8-0.6,1.3-1c0.4-0.4,0.8-0.8,1.1-1.3c0.3-0.5,0.6-1,0.8-1.5c0.2-0.5,0.3-1.1,0.3-1.6
					c0-1-0.2-1.7-0.7-2.2c-0.5-0.5-1.1-0.8-1.8-0.9c-0.7-0.2-1.5-0.2-2.3-0.2c-0.8,0-1.6,0-2.3,0c0.2,0.5,0.2,1.1,0.1,1.8
					c-0.1,0.7-0.5,1.7-1,2.9l-9.7,20.2C364.4,678.6,363.4,678.6,362.7,678.3z"/>
				<path class="st8" d="M389.5,678.3c-1.2,0.3-2.2,0.3-2.9,0c-0.3-0.1-0.6-0.3-0.8-0.6s-0.4-0.7-0.4-1.1c0-0.5,0-1.1,0.2-1.8
					c0.2-0.7,0.5-1.6,1-2.6l9.1-18.9h-2.6c-0.4-0.4-0.7-0.8-1-1.4s-0.4-1.1-0.2-1.7c0.2-0.7,0.6-1.2,1.2-1.5
					c0.6-0.3,1.4-0.5,2.2-0.7c0.8-0.1,1.6-0.2,2.4-0.2c0.8,0,1.4,0,1.9,0c0.8,0,1.6,0,2.4,0c0.8,0,1.6,0,2.4,0s1.6,0.2,2.3,0.4
					c0.7,0.2,1.5,0.5,2.2,0.9c1.2,0.7,2.1,1.6,2.8,2.9s1,2.5,1,3.9c-0.1,1.3-0.4,2.6-1.1,3.8c-0.7,1.2-1.6,2.2-2.7,3
					c-1.1,0.8-2.3,1.4-3.6,1.8s-2.6,0.7-3.9,0.9l4.9,11.1c-0.7,0.8-1.4,1.4-2.1,1.7c-0.6,0.3-1.2,0.4-1.9,0.2
					c-0.7-0.2-1.3-0.8-1.8-1.9l-4.8-10.6L389.5,678.3z M400,653.4c0.2,0.5,0.3,1.1,0.2,1.8c-0.1,0.7-0.4,1.7-1,2.9l-1.5,3
					c0.2-0.1,0.4-0.2,0.6-0.2c0.2,0,0.4-0.1,0.6-0.1c0.6-0.2,1.2-0.3,1.8-0.5c0.6-0.1,1.3-0.3,1.9-0.5c0.4-0.1,0.9-0.3,1.5-0.5
					s1.1-0.5,1.6-0.9c0.5-0.4,0.9-0.8,1.1-1.3c0.3-0.5,0.4-1,0.2-1.7c-0.1-0.7-0.5-1.2-1-1.5c-0.6-0.3-1.2-0.5-1.9-0.6
					c-0.7-0.1-1.5-0.1-2.2-0.1C401.3,653.4,400.6,653.4,400,653.4L400,653.4z"/>
				<path class="st8" d="M407.7,678.5c-0.5-1-0.8-1.9-0.7-2.7c0-0.3,0.1-0.7,0.2-1c0.1-0.3,0.3-0.6,0.6-0.9s0.7-0.5,1.2-0.6
					c0.5-0.2,1.2-0.2,1.9-0.2h1.2c-0.5-0.3-0.7-0.8-0.8-1.6c-0.1-0.7,0.2-1.8,0.8-3.2l7.2-15.1h-2c-0.5-1-0.8-1.9-0.7-2.7
					c0-0.3,0.1-0.7,0.2-1c0.1-0.3,0.3-0.6,0.6-0.9c0.3-0.2,0.7-0.4,1.2-0.6s1.2-0.2,1.9-0.2h16.9c0.6,1,0.9,1.9,0.9,2.7
					c0,0.3-0.1,0.7-0.2,1c-0.1,0.3-0.3,0.6-0.6,0.9c-0.3,0.2-0.7,0.5-1.3,0.6s-1.2,0.2-2.1,0.2h-10.3c0.2,0.4,0.3,0.9,0.2,1.5
					c0,0.6-0.3,1.4-0.8,2.4l-1.9,3.9h7.7c0.2,1,0.4,1.9,0.4,2.7c0,0.7-0.1,1.3-0.4,1.8c-0.2,0.6-0.7,0.8-1.5,0.8H420
					c-0.1-0.1-0.1-0.3-0.1-0.5c-0.1-0.2-0.1-0.6-0.2-1.1l-4,8.2h12.2c0.6,1,0.9,1.9,0.9,2.7c0,0.3-0.1,0.7-0.2,1
					c-0.1,0.3-0.3,0.6-0.6,0.9c-0.3,0.2-0.7,0.5-1.2,0.6c-0.5,0.2-1.2,0.2-2,0.2H407.7z"/>
				<path class="st8" d="M437.9,679.2c-1.4-0.7-2.5-1.7-3.1-3.1c-0.6-1.4-0.9-2.8-1-4.3c0-1.5,0.2-3,0.6-4.5c0.4-1.5,0.9-3,1.5-4.4
					c0.6-1.4,1.4-2.8,2.2-4.1c0.8-1.3,1.8-2.6,2.7-3.7c0.9-1,1.8-2,3-2.9c1.1-1,2.3-1.8,3.6-2.5s2.6-1.2,4-1.4
					c1.4-0.3,2.8-0.2,4.2,0.1c1.3,0.4,2.3,1.1,3,2.1c0.7,1.1,0.9,2.3,0.7,3.6c-0.1,1.1-0.4,2.2-0.9,3.2c-0.5,1-1,2-1.5,2.9
					c0,0-0.1,0.1-0.3,0.2c-0.2,0.1-0.5,0.2-0.9,0.3c-0.3,0.1-0.6,0.2-0.9,0.2c-0.3,0.1-0.5,0.1-0.5,0.1c-0.5,0-0.8-0.2-1-0.5
					c-0.2-0.3-0.3-0.7-0.2-1.2c0-0.5,0.1-1,0.2-1.5c0.1-0.5,0.3-1,0.4-1.5c0.1-0.3,0.1-0.5,0.2-0.8c0.1-0.3,0.1-0.5,0.2-0.9
					c0.1-0.1,0.1-0.3,0.1-0.6c0-0.3,0-0.5,0.1-0.5c-0.1-0.1-0.2-0.1-0.3-0.1s-0.4,0-0.6,0c-0.2,0-0.4,0.1-0.6,0.1
					c-0.2,0-0.3,0-0.4,0c-0.7,0.1-1.4,0.3-2,0.6c-0.6,0.3-1.3,0.6-1.9,0.9c-1.2,0.8-2.3,1.8-3.2,2.9c-1,1.1-1.8,2.3-2.6,3.5
					c-0.8,1.3-1.5,2.7-2.1,4.1c-0.6,1.4-1.1,2.9-1.3,4.4c-0.1,0.4-0.1,1-0.1,1.6c0,0.6,0,1.1,0.2,1.6c0.1,0.5,0.4,0.9,0.7,1.1
					c0.3,0.3,0.9,0.3,1.5,0.1c0.7-0.2,1.3-0.5,1.9-0.9c0.6-0.4,1.2-0.9,1.7-1.4c0.5-0.5,1-1,1.5-1.6c0.5-0.6,0.9-1.1,1.4-1.6
					l0.8-1.1l1.4-3c1,0.1,1.9,0.3,2.6,0.6c0.6,0.3,1.1,0.7,1.4,1.3s0.3,1.4-0.2,2.4l-5.3,11.5c-0.6,0-1.2-0.1-1.8-0.2
					c-0.5-0.1-0.9-0.3-1.4-0.5s-0.8-0.6-0.9-1.1h-0.1c-1.1,0.6-2.2,0.9-3.3,1C440.1,679.9,439,679.7,437.9,679.2z"/>
				<path class="st8" d="M476.6,648.2c0.6,0.3,1,0.8,1.2,1.3c0.2,0.5,0,1-0.7,1.5c-0.5,0.3-1,0.6-1.5,0.8c-0.5,0.2-1.1,0.5-1.6,0.7
					c-2.5,1.2-4.6,2.8-6.5,4.8c-1.9,2-3.3,4.2-4.3,6.8c-0.2,0.5-0.4,1.2-0.7,1.9c-0.2,0.7-0.4,1.5-0.5,2.2c-0.1,0.8-0.1,1.5,0,2.2
					c0.1,0.7,0.3,1.3,0.7,1.9c0.2,0.3,0.5,0.5,0.8,0.6s0.7,0.1,1,0.1c0.3,0,0.7-0.1,1-0.2c0.3-0.1,0.7-0.2,0.9-0.3
					c1-0.3,1.9-0.8,2.8-1.5s1.6-1.5,2.3-2.3c0.7-0.9,1.3-1.8,1.8-2.8c0.5-1,1-2,1.4-3c0.3-0.6,0.5-1.3,0.6-2
					c0.1-0.7,0.2-1.4,0.3-2.1c0-0.6-0.1-1.2-0.2-1.7c0,0,0-0.1-0.1-0.2c-0.1-0.1-0.1-0.3-0.2-0.4l-0.2-0.6c0,0,0-0.1,0.1-0.3
					c0-0.2,0-0.4,0-0.7s0-0.5,0-0.7s0-0.4,0-0.4c0-0.4,0.1-0.8,0.3-1.1c0.2-0.3,0.5-0.5,1-0.5c0.4,0,0.8,0.1,1.2,0.3
					c0.4,0.2,0.7,0.4,1,0.7s0.6,0.6,0.9,1c0.2,0.3,0.5,0.7,0.6,1c0.6,1.2,1,2.6,1,4s-0.2,2.8-0.6,4.2c-0.4,1.4-0.9,2.7-1.6,4
					c-0.7,1.3-1.4,2.4-2.2,3.5c-0.8,1.1-1.8,2.2-2.9,3.3c-1.1,1.1-2.3,2-3.6,2.7c-1.3,0.7-2.7,1.2-4.1,1.4c-1.4,0.2-2.9,0-4.4-0.5
					c-1.6-0.6-2.7-1.5-3.4-2.7c-0.7-1.2-1.1-2.6-1.3-4.1c-0.1-1.5,0-3,0.3-4.6s0.7-3,1.2-4.2c0.6-1.4,1.2-2.7,2-4s1.7-2.5,2.7-3.7
					s2.1-2.2,3.3-3.1c1.2-0.9,2.5-1.7,3.9-2.4c0,0,0.1,0,0.1,0c-0.2-0.3-0.4-0.7-0.5-1.1c-0.2-0.4-0.2-0.8-0.2-1.2
					c0-0.4,0.2-0.8,0.5-1.1s0.8-0.7,1.4-0.9l10.7-3.9c0.7,0.8,1.2,1.6,1.5,2.3c0.2,0.6,0.3,1.3,0.1,1.9c-0.2,0.7-0.8,1.2-1.8,1.5
					L476.6,648.2z"/>
				<path class="st8" d="M481.3,678.3c-0.3-0.1-0.6-0.3-0.8-0.6s-0.4-0.6-0.4-1.1c-0.1-0.4,0-1,0.1-1.6c0.1-0.6,0.4-1.4,0.9-2.3
					l8.8-18.5c0.2,0,0.3-0.1,0.5-0.1c0.3,0,0.7,0,1.2,0.1l-0.5-4.9c0.9-0.8,1.8-1.2,2.5-1.3c0.3,0,0.7,0,1,0.2
					c0.3,0.1,0.6,0.4,0.9,0.8c0.3,0.4,0.5,0.9,0.7,1.6c0.2,0.7,0.4,1.6,0.5,2.7l1.2,13.1l9.1-18.9c1.2-0.2,2.1-0.2,2.9,0.2
					c0.3,0.2,0.6,0.4,0.8,0.7s0.3,0.7,0.4,1.2c0,0.5,0,1.1-0.2,1.9c-0.2,0.7-0.5,1.6-1,2.7l-10.8,22.6v0.1c-0.9,0.9-1.8,1.4-2.5,1.5
					c-0.3,0.1-0.7,0-1-0.1c-0.3-0.1-0.6-0.4-0.9-0.8s-0.5-1-0.7-1.7c-0.2-0.7-0.4-1.6-0.5-2.8l-1.1-11.5l-8.2,17
					C483,678.7,482,678.6,481.3,678.3z"/>
			</g>
		</g>
	</g>
	<g>
		<defs>
			<path id="SVGID_5_" d="M402.1,725.3c-0.9,0-1.7-0.2-2.5-0.7l-101.4-58.5c-1.5-0.9-2.5-2.5-2.5-4.3l0-117.1c0-1.8,1-3.4,2.5-4.3
				l101.3-58.6c0.8-0.4,1.6-0.7,2.5-0.7c0.9,0,1.7,0.2,2.5,0.7l101.4,58.5c1.5,0.9,2.5,2.5,2.5,4.3l0,117.1c0,1.8-0.9,3.4-2.5,4.3
				l-101.3,58.6C403.8,725,402.9,725.3,402.1,725.3z"/>
		</defs>
		<clipPath id="SVGID_6_">
			<use xlink:href="#SVGID_5_"  style="overflow:visible;"/>
		</clipPath>
		<g class="st13">
			<g>
				
					<image style="overflow:visible;opacity:0.63;" width="1044" height="1070" xlink:href="3B4B2CF5799DAB00.png"  transform="matrix(0.24 0 0 0.24 303.1179 400.8437)">
				</image>
				<g>
					<path class="st14" d="M378.9,560.5c0,0.1-5.3,17.1-8.6,17.7c-3.3,0.6-3.4,0.6-3.4,0.6s-3.4,9.7-6.7,11.3
						c-3.3,1.5-4.3,1.3-4.3,1.3s-1.1,6.3-4.5,8.6c-3.3,2.4-5,2.2-5,2.2s-2.1,6.4-6.5,7.1c-4.4,0.7-4.4,0.7-4.4,0.7s-3.5,4.6-7.7,5.1
						c-4.2,0.6-14.9,5.1-14.7-7.2c0.1-12.4,3.5-13.9,3.5-13.9s-1.6-12.2,8.4-17.1c0,0,4.2-12.7,10.2-15.4c0,0,6.7-11.5,15.6-17.7
						c8.9-6.1,18.9-11,18.9-11l58.4-50.2l48.4-38.4c0,0-1.1-11.5,8.6-12.5h6.9l24.1-18.9c0,0,10.4-4.1,16.7,0.6
						c6.3,4.7,9,9.8,4.7,21.9c0,0-3.5,10.4-14.6,24.6C511.8,473.9,446.2,568,446.2,568s-29.1,40-49.9,58.6
						c-20.8,18.6-28.2,16.7-29.1,16.7c-0.9,0-12.1,2.2-11.2-8.7c0.9-10.8,7.1-12.4,7.1-12.4s0.3-9.3,7.8-15l5.8-3.5
						c0,0-0.9-6.2,4.4-10.3c5.3-4,5.3-4,5.3-4s-0.9-5.3,2.5-7.7c3.4-2.5,6.2-2.5,6.2-2.5s2.5-7.1,5.6-8.7c3.1-1.5,6.2-2.5,6.2-2.5
						s2.8-4.3,5.9-6.5c3.1-2.2,8.5-4,12-7.4c3.5-3.4,62.1-85.2,62.1-85.2l-5.3-1.9l-91.4,80.3C390.1,547.2,380.2,556.8,378.9,560.5z
						"/>
				</g>
			</g>
		</g>
		<g id="_x30_140040a.psd_2_" class="st13">
			<g>
				<defs>
					<rect id="SVGID_7_" x="277.7" y="378.5" width="294" height="293"/>
				</defs>
				<clipPath id="SVGID_8_">
					<use xlink:href="#SVGID_7_"  style="overflow:visible;"/>
				</clipPath>
				<g style="clip-path:url(#SVGID_8_);">
					
						<image style="overflow:visible;" width="2362" height="2362" xlink:href="3B4B2CF5799DAB0E.png"  transform="matrix(0.1241 0 0 0.1241 278.085 379.054)">
					</image>
				</g>
			</g>
		</g>
	</g>
</g>
<g class="video3">
	<g>
		<path class="st3" d="M128.5,287.5c-1,0-2-0.3-2.9-0.8L8.3,218.9c-1.8-1-2.9-2.9-2.9-5l0-135.6c0-2.1,1.1-4,2.9-5L125.5,5.5
			c0.9-0.5,1.9-0.8,2.9-0.8c1,0,2,0.3,2.9,0.8l117.4,67.7c1.8,1,2.9,2.9,2.9,5l0,135.6c0,2.1-1.1,4-2.9,5l-117.3,67.8
			C130.5,287.2,129.5,287.5,128.5,287.5z"/>
		<path class="st0" d="M128.5,292.2c-1.8,0-3.7-0.5-5.3-1.4L5.9,223.1c-3.3-1.9-5.3-5.4-5.3-9.1l0-135.6c0-3.8,2-7.3,5.3-9.1
			L123.1,1.4c3.2-1.9,7.3-1.9,10.6,0l117.4,67.7c3.3,1.9,5.3,5.4,5.3,9.1l0,135.6c0,3.8-2,7.3-5.3,9.1l-117.3,67.8
			C132.2,291.7,130.4,292.2,128.5,292.2z M128.4,9.5c-0.2,0-0.4,0.1-0.5,0.1L10.6,77.5c-0.3,0.2-0.5,0.5-0.5,0.9l0,135.6
			c0,0.4,0.2,0.7,0.5,0.9L128,282.6c0.3,0.2,0.7,0.2,1,0l117.3-67.8c0.3-0.2,0.5-0.5,0.5-0.9l0-135.6c0-0.4-0.2-0.7-0.5-0.9
			L128.9,9.6C128.8,9.6,128.6,9.5,128.4,9.5z"/>
	</g>
	<path class="st15" d="M211.7,208.6c0,11.5-9.3,20.9-20.9,20.9H68.5c-11.5,0-20.9-9.3-20.9-20.9V68.4c0-11.5,9.3-20.9,20.9-20.9
		h122.3c11.5,0,20.9,9.3,20.9,20.9V208.6z"/>
	<g>
		
			<image style="overflow:visible;" width="304" height="304" xlink:href="3B4B2CF5799DAB0F.png"  transform="matrix(0.4919 0 0 0.4919 54.1735 53.5587)">
		</image>
	</g>
	<g>
		<g>
			<g>
				<path class="st16" d="M29.3,223.9c-2-0.9-3.4-2.4-4.2-4.2c-0.8-1.9-1.3-3.9-1.3-6c0-2.1,0.3-4.1,0.8-6.2
					c0.5-2.1,1.2-4.1,2.1-6.1c0.9-2,1.9-3.9,3.1-5.7c1.2-1.8,2.4-3.5,3.8-5.1c1.2-1.4,2.6-2.7,4.1-4c1.5-1.3,3.2-2.4,5-3.4
					c1.8-0.9,3.6-1.6,5.6-2c1.9-0.4,3.9-0.3,5.8,0.1c1.8,0.5,3.2,1.5,4.1,3c1,1.5,1.3,3.1,1,5c-0.2,1.5-0.5,3-1.2,4.4
					c-0.6,1.4-1.3,2.8-2.1,4c0,0-0.1,0.1-0.5,0.2c-0.3,0.1-0.7,0.2-1.2,0.4c-0.5,0.1-0.9,0.2-1.3,0.3c-0.4,0.1-0.6,0.1-0.7,0.1
					c-0.6,0-1.1-0.2-1.4-0.7c-0.3-0.5-0.4-1-0.3-1.7c0-0.7,0.1-1.4,0.3-2.1c0.2-0.7,0.4-1.4,0.6-2.1c0.1-0.4,0.2-0.8,0.3-1.1
					c0.1-0.4,0.2-0.8,0.3-1.2c0.1-0.2,0.1-0.5,0.1-0.9c0-0.4,0.1-0.6,0.1-0.7c-0.1-0.1-0.2-0.1-0.5-0.1c-0.2,0-0.5,0-0.8,0.1
					c-0.3,0-0.6,0.1-0.8,0.1c-0.3,0-0.4,0.1-0.5,0.1c-1,0.2-1.9,0.5-2.8,0.8c-0.9,0.4-1.7,0.8-2.6,1.3c-1.6,1.1-3.1,2.5-4.4,4
					c-1.3,1.5-2.5,3.1-3.6,4.9c-1.1,1.8-2.1,3.7-2.9,5.7c-0.8,2-1.5,4-1.8,6.1c-0.1,0.6-0.2,1.3-0.2,2.2c0,0.8,0.1,1.6,0.3,2.3
					c0.2,0.7,0.5,1.2,1,1.6c0.5,0.4,1.2,0.4,2.1,0.1c0.9-0.3,1.8-0.7,2.6-1.3c0.8-0.6,1.6-1.2,2.4-1.9c0.7-0.7,1.4-1.4,2.1-2.2
					c0.6-0.8,1.3-1.5,1.9-2.2l1.1-1.5l1.9-4.1c1.4,0.1,2.6,0.4,3.6,0.9c0.8,0.4,1.5,1,2,1.8c0.5,0.8,0.4,1.9-0.3,3.3l-7.3,15.9
					c-0.9,0-1.7-0.1-2.5-0.2c-0.7-0.2-1.3-0.4-1.9-0.7c-0.6-0.3-1.1-0.9-1.3-1.6h-0.2c-1.5,0.8-3,1.2-4.6,1.3
					C32.3,224.9,30.8,224.6,29.3,223.9z"/>
				<path class="st16" d="M44.4,231.3c-1.2,0-2.4-0.1-3.5-0.3c-1.3-0.3-2.4-0.7-3.4-1.3c0,0-0.1,0-0.1-0.1c-1,0.2-1.9,0.4-2.9,0.5
					c-2.6,0.2-5.1-0.2-7.4-1.3c-3.2-1.5-5.6-3.9-6.9-7c-1.1-2.5-1.7-5.2-1.8-7.9c0-0.1,0-0.1,0-0.2c0-2.5,0.3-5,0.9-7.5
					c0.6-2.4,1.4-4.7,2.4-7c1-2.2,2.1-4.4,3.4-6.4c1.3-2,2.7-4,4.2-5.7c1.4-1.6,3-3.2,4.7-4.7c1.8-1.6,3.9-2.9,6-4
					c2.2-1.2,4.6-2,7-2.5c2.7-0.5,5.4-0.5,8.1,0.2c0.1,0,0.1,0,0.2,0c3,0.8,5.5,2.6,7.2,5.2c1.6,2.5,2.3,5.5,1.9,8.5
					c-0.2,2.1-0.8,4.1-1.6,6c-0.7,1.5-1.4,2.9-2.2,4.3c-0.5,1.1-1.6,2.3-3.6,2.9c-0.2,0.1-0.5,0.2-0.8,0.3c0.2,0.2,0.3,0.4,0.4,0.7
					c0.9,1.6,1.7,4.4,0,8.3l-7.3,15.9C48.4,230.1,46.5,231.3,44.4,231.3z M44.9,196.9c-0.4,0.4-0.8,0.8-1.2,1.2
					c-1.1,1.3-2.2,2.7-3.2,4.2c-0.9,1.5-1.8,3.1-2.5,4.9c-0.1,0.2-0.2,0.5-0.3,0.7c0.5-0.6,1-1.1,1.4-1.6l0.7-0.9l1.7-3.6
					c0.7-1.5,2.1-2.6,3.6-3C45,198.2,44.9,197.6,44.9,196.9z"/>
			</g>
			<g>
				<path class="st16" d="M58.8,223.4c-1.9,0.2-3.3,0-4.1-0.6c-0.4-0.3-0.7-0.6-0.9-1.1c-0.2-0.5-0.2-1.1-0.1-1.8
					c0.1-0.7,0.5-1.6,1-2.6c0.6-1,1.4-2.3,2.6-3.7h-2.2c-0.7-1.4-1-2.6-0.9-3.7c0-0.5,0.1-0.9,0.2-1.3c0.2-0.4,0.4-0.8,0.8-1.2
					c0.4-0.3,0.9-0.6,1.5-0.8c0.6-0.2,1.4-0.3,2.4-0.3h4l17.8-22.6h0.1l0.1-1.5c1.4-0.9,2.7-1.3,3.7-1.1c0.5,0,0.9,0.2,1.3,0.4
					c0.4,0.3,0.8,0.7,1.1,1.3c0.3,0.6,0.5,1.4,0.7,2.3c0.2,1,0.2,2.2,0.1,3.7l-1.8,32.5c-1.5,1-2.7,1.6-3.8,1.6
					c-0.5,0-0.9-0.1-1.3-0.3c-0.4-0.2-0.8-0.7-1.1-1.3c-0.3-0.6-0.5-1.4-0.7-2.4c-0.2-1-0.2-2.3-0.1-3.9l0.1-2.2
					c-0.4,0.3-0.9,0.6-1.4,0.7c-0.6,0.2-1.3,0.3-2.2,0.3h-9.1L58.8,223.4z M72.2,206.3h7.1c0,0,0,0.1,0.1,0.1c0,0,0.1,0.1,0.2,0.3
					l0.6-10.5L72.2,206.3z"/>
				<path class="st16" d="M57.5,228.9c-2.4,0-4.4-0.6-6-1.7c-1.2-0.9-2.2-2-2.8-3.4c-0.6-1.4-0.7-3.1-0.4-4.8
					c0.2-1.2,0.7-2.5,1.4-3.9c-0.7-1.8-1.1-3.5-1-5.2c0-1,0.2-2.1,0.5-3c0.4-1.2,1.2-2.4,2.2-3.3c0.9-0.9,2.1-1.6,3.4-2
					c1.2-0.4,2.5-0.6,4.1-0.6h1.3l15.3-19.4c0.2-1.6,1.1-3,2.5-3.8c2.5-1.5,4.9-2.2,7.2-1.9c1.1,0.1,2.4,0.5,3.5,1.1
					c1.3,0.8,2.4,1.9,3.1,3.4c0.6,1.1,1,2.4,1.2,4c0.2,1.3,0.3,2.9,0.2,4.8l-1.8,32.5c-0.1,1.6-0.9,3.2-2.3,4.1
					c-3.9,2.7-7.5,3.3-10.8,1.6c-1.5-0.8-2.6-2-3.4-3.6c-0.6-1.1-1-2.4-1.2-4c0-0.2,0-0.3-0.1-0.5h-4.7l-6.1,7.7
					c-0.9,1.2-2.2,1.9-3.7,2C58.7,228.8,58.1,228.9,57.5,228.9z"/>
			</g>
			<g>
				<path class="st16" d="M86,219.4c0-0.5,0.1-0.9,0.2-1.4c0.1-0.4,0.4-0.8,0.8-1.2c0.4-0.3,0.9-0.6,1.5-0.8
					c0.6-0.2,1.4-0.3,2.4-0.3H93c-0.7-0.4-1-1.2-1-2.4c0-1.2,0.5-2.9,1.6-5.1l13-27.3c1.6-0.2,2.8-0.1,3.8,0.4
					c0.4,0.2,0.7,0.5,1,0.9c0.3,0.4,0.5,0.9,0.6,1.5c0.1,0.6,0,1.4-0.1,2.3c-0.2,0.9-0.6,2-1.2,3.2l-12.7,26.5h14.2
					c0.7,1.4,1.1,2.6,1.1,3.7c0,0.5-0.1,0.9-0.2,1.3c-0.1,0.4-0.4,0.8-0.8,1.2c-0.4,0.3-0.9,0.6-1.6,0.8c-0.7,0.2-1.5,0.3-2.6,0.3
					H86.9C86.2,221.7,85.9,220.5,86,219.4z"/>
				<path class="st16" d="M108.2,228.5H86.9c-2.1,0-4-1.2-4.9-3.1c-1-2.1-1.5-4.2-1.4-6.1c0-1,0.2-2,0.5-3c0.4-1.3,1.2-2.4,2.2-3.3
					c0.9-0.9,2.1-1.6,3.5-2c0,0,0.1,0,0.1,0c0.3-1.5,0.9-3.2,1.8-5.1l13-27.2c0.8-1.7,2.4-2.8,4.2-3c2.7-0.3,4.8,0,6.8,0.9
					c0.2,0.1,0.4,0.2,0.5,0.3c0.9,0.6,1.8,1.3,2.5,2.2c0.9,1.1,1.5,2.5,1.7,4c0.2,1.3,0.1,2.7-0.2,4.2c-0.3,1.3-0.8,2.8-1.6,4.5
					l-9,18.8h5.6c2,0,3.8,1.1,4.8,2.9c1.1,2.1,1.7,4.1,1.8,6c0,0.1,0,0.1,0,0.2c0,1-0.1,2-0.4,2.9c-0.4,1.4-1.2,2.6-2.3,3.6
					c-1,0.9-2.2,1.5-3.6,2C111.1,228.3,109.8,228.5,108.2,228.5z"/>
			</g>
			<g>
				<path class="st16" d="M112.6,223.1c-0.7-1.4-1.1-2.6-1-3.7c0-0.5,0.1-0.9,0.3-1.4c0.2-0.4,0.5-0.8,0.9-1.2
					c0.4-0.3,1-0.6,1.7-0.8c0.7-0.2,1.6-0.3,2.7-0.3h1.7c-0.6-0.4-1-1.1-1.1-2.1c-0.1-1,0.3-2.5,1.1-4.4l9.9-20.8h-2.8
					c-0.7-1.4-1.1-2.6-1-3.7c0-0.5,0.1-0.9,0.3-1.3c0.2-0.4,0.5-0.8,0.9-1.2c0.4-0.3,1-0.6,1.7-0.8c0.7-0.2,1.6-0.3,2.7-0.3h23.4
					c0.8,1.4,1.2,2.6,1.3,3.7c0,0.5-0.1,0.9-0.2,1.3c-0.2,0.4-0.4,0.8-0.9,1.2c-0.4,0.3-1,0.6-1.7,0.8c-0.7,0.2-1.7,0.3-2.8,0.3H135
					c0.3,0.6,0.4,1.3,0.3,2.1c-0.1,0.8-0.4,1.9-1.1,3.3l-2.6,5.4h10.6c0.3,1.4,0.5,2.6,0.6,3.7c0,0.9-0.2,1.8-0.5,2.5
					c-0.3,0.8-1,1.1-2.1,1.1h-10.6c-0.1-0.2-0.1-0.4-0.2-0.6c-0.1-0.3-0.2-0.8-0.2-1.5l-5.6,11.4h16.8c0.8,1.4,1.2,2.6,1.3,3.7
					c0,0.5-0.1,0.9-0.2,1.3c-0.2,0.4-0.4,0.8-0.8,1.2c-0.4,0.3-1,0.6-1.7,0.8c-0.7,0.2-1.7,0.3-2.8,0.3H112.6z"/>
				<path class="st16" d="M136.1,228.5h-23.5c-2,0-3.8-1.1-4.8-2.9c-1.2-2.2-1.7-4.3-1.7-6.3c0-1.1,0.2-2.2,0.6-3.2
					c0.5-1.3,1.3-2.4,2.4-3.3c0.9-0.7,1.9-1.3,3.2-1.8c0.3-1.2,0.7-2.6,1.4-4.1l7.5-15.7c-0.1-0.1-0.1-0.2-0.2-0.3
					c-1.1-2.2-1.7-4.3-1.7-6.3c0-1.1,0.2-2.2,0.6-3.2c0.5-1.3,1.3-2.4,2.4-3.3c1-0.8,2.2-1.5,3.6-1.9c1.2-0.4,2.6-0.5,4.2-0.5h23.4
					c1.9,0,3.7,1,4.7,2.7c1.3,2.2,1.9,4.2,2,6.2c0,0.1,0,0.1,0,0.2c0,1.1-0.2,2.1-0.5,3.1c-0.5,1.4-1.3,2.6-2.5,3.6
					c-1,0.8-2.3,1.4-3.7,1.9c-1.2,0.3-2.6,0.5-4.3,0.5H140c0,0,0,0,0,0.1h2.2c2.5,0,4.6,1.7,5.2,4.1c0.4,1.7,0.7,3.3,0.7,4.8
					c0,0.1,0,0.1,0,0.2c0,1.6-0.3,3.2-0.9,4.6c-0.7,1.8-2.1,3.1-3.8,3.8c0.6,0.4,1.2,1,1.6,1.7c1.3,2.2,1.9,4.2,2,6.2
					c0,0.1,0,0.1,0,0.2c0,1.1-0.2,2.1-0.5,3.1c-0.5,1.4-1.3,2.5-2.4,3.5c-1,0.8-2.2,1.5-3.7,1.9
					C139.2,228.3,137.8,228.5,136.1,228.5z"/>
			</g>
			<g>
				<path class="st16" d="M151.7,222.8c-1.7,0.4-3,0.4-4,0c-0.4-0.2-0.8-0.4-1.1-0.8c-0.3-0.4-0.5-0.9-0.5-1.5
					c-0.1-0.6,0-1.5,0.3-2.4c0.2-1,0.7-2.2,1.4-3.5l12.5-26.1h-3.6c-0.5-0.5-1-1.1-1.4-1.9c-0.4-0.8-0.5-1.5-0.3-2.3
					c0.2-0.9,0.8-1.6,1.7-2c0.9-0.4,1.9-0.7,3-0.9c1.1-0.2,2.2-0.2,3.3-0.2c1.1,0,2,0,2.6,0c1.1,0,2.2,0,3.3-0.1
					c1.1,0,2.2,0,3.3,0.1c1.1,0.1,2.1,0.2,3.2,0.5c1,0.2,2,0.7,3,1.3c1.6,1,2.9,2.3,3.9,4c1,1.7,1.4,3.5,1.4,5.4
					c-0.1,1.8-0.6,3.6-1.6,5.2c-1,1.6-2.2,3-3.8,4.1c-1.5,1.1-3.2,1.9-5,2.4c-1.8,0.6-3.6,0.9-5.5,1.2l6.8,15.3
					c-1,1.1-1.9,1.9-2.9,2.4c-0.8,0.4-1.7,0.5-2.6,0.3c-0.9-0.2-1.7-1.1-2.5-2.7l-6.6-14.7L151.7,222.8z M166.2,188.4
					c0.3,0.6,0.4,1.5,0.3,2.5c-0.1,1-0.6,2.4-1.4,4l-2,4.2c0.3-0.2,0.6-0.3,0.9-0.3c0.3-0.1,0.5-0.1,0.8-0.2
					c0.8-0.3,1.6-0.5,2.5-0.6c0.9-0.2,1.8-0.4,2.6-0.6c0.6-0.2,1.3-0.4,2.1-0.7c0.8-0.3,1.5-0.7,2.2-1.3c0.7-0.5,1.2-1.1,1.6-1.8
					c0.4-0.7,0.5-1.4,0.3-2.3c-0.2-1-0.7-1.6-1.4-2.1c-0.8-0.4-1.6-0.7-2.6-0.8c-1-0.1-2-0.1-3-0.1c-1,0.1-1.9,0.1-2.6,0.1H166.2z"
					/>
				<path class="st16" d="M169.8,228.6c-0.7,0-1.4-0.1-2.1-0.2c-2.6-0.6-4.7-2.5-6.2-5.7l-1.9-4.2l-3.2,6.6c-0.7,1.4-2,2.5-3.5,2.9
					c-2.8,0.7-5.2,0.6-7.3-0.2c-1.3-0.5-2.4-1.3-3.3-2.4c-1-1.2-1.6-2.7-1.7-4.4c-0.1-1.2,0-2.6,0.4-4.1c0.3-1.4,0.9-2.9,1.8-4.7
					l9.7-20.2c-0.8-0.8-1.5-1.7-2.1-2.8c-1.1-2-1.4-4.1-0.8-6.2c0.6-2.4,2.2-4.4,4.5-5.6c1.4-0.7,2.9-1.2,4.6-1.4
					c1.3-0.2,2.6-0.3,3.8-0.3h0.4c1.1,0,1.9,0,2.6,0c1,0,2,0,3.1-0.1c1.3,0,2.6,0,3.9,0.1c1.4,0.1,2.8,0.3,4.1,0.6
					c1.6,0.4,3.1,1,4.5,1.9c2.4,1.4,4.4,3.4,5.8,5.9c1.4,2.5,2.1,5.2,2.1,8.1c0,0.1,0,0.1,0,0.2c-0.1,2.7-0.9,5.3-2.3,7.7
					c-1.3,2.3-3.1,4.2-5.2,5.7c-1.9,1.3-3.9,2.3-6,3.1l4.1,9.3c0.8,1.9,0.5,4.1-0.8,5.7c-1.5,1.7-3.1,2.9-4.8,3.7
					C172.7,228.3,171.3,228.6,169.8,228.6z"/>
			</g>
			<g>
				<path class="st16" d="M200.1,180.8c0.5,0.2,0.9,0.4,1.3,0.8c0.4,0.4,0.7,0.9,0.8,1.6c0.1,0.7,0,1.6-0.2,2.8
					c-0.2,1.1-0.8,2.5-1.6,4.2L185,222.6c-1.8,0.5-3.2,0.6-4.2,0.2c-0.4-0.2-0.8-0.4-1.1-0.8c-0.3-0.4-0.5-1-0.5-1.7
					c0-0.7,0.1-1.7,0.4-2.8c0.3-1.1,0.9-2.5,1.6-4.1l14.9-31.1l-1.6,0.6c-0.9-1.1-1.6-2.2-1.9-3.2c-0.2-0.4-0.2-0.9-0.3-1.3
					c0-0.5,0-0.9,0.2-1.3c0.2-0.4,0.4-0.8,0.8-1.2c0.4-0.4,0.9-0.7,1.6-0.9l14.7-5.4c1,1.1,1.6,2.2,2.1,3.2c0.3,0.9,0.4,1.8,0.2,2.7
					c-0.2,0.9-1,1.6-2.5,2.1L200.1,180.8z"/>
				<path class="st16" d="M182.3,228.4c-1.3,0-2.5-0.2-3.5-0.7c-1.4-0.5-2.6-1.5-3.5-2.7c-0.9-1.3-1.4-2.8-1.5-4.6
					c-0.1-1.4,0.1-2.9,0.6-4.6c0.4-1.4,1-3,1.9-4.9l12.7-26.5c-0.7-1-1.2-2.1-1.5-3.1c-0.3-0.8-0.5-1.7-0.6-2.6
					c-0.1-1.2,0.1-2.5,0.5-3.6c0.4-1.2,1.2-2.3,2.2-3.2c0.9-0.8,2-1.5,3.4-2.1l14.8-5.5c2.1-0.8,4.6-0.1,6,1.6
					c1.3,1.6,2.3,3.1,2.9,4.6c0.8,2.1,0.9,4.1,0.4,6.1c-0.5,1.9-1.9,4.4-5.9,5.8l-3.6,1.3c0,1-0.1,2.1-0.4,3.3c-0.3,1.6-1,3.3-2,5.4
					l-15.5,32.4c-0.7,1.4-1.9,2.4-3.3,2.8C185,228.2,183.6,228.4,182.3,228.4z M182.3,221.3v1.7V221.3z"/>
			</g>
			<g>
				<path class="st16" d="M200.6,223.4c-1.9,0.2-3.3,0-4.1-0.6c-0.4-0.3-0.7-0.6-0.9-1.1c-0.2-0.5-0.2-1.1-0.1-1.8
					c0.1-0.7,0.5-1.6,1-2.6c0.6-1,1.4-2.3,2.6-3.7h-2.2c-0.7-1.4-1-2.6-0.9-3.7c0-0.5,0.1-0.9,0.2-1.3c0.2-0.4,0.4-0.8,0.8-1.2
					c0.4-0.3,0.9-0.6,1.5-0.8c0.6-0.2,1.4-0.3,2.4-0.3h4l17.8-22.6h0.1l0.1-1.5c1.4-0.9,2.7-1.3,3.7-1.1c0.5,0,0.9,0.2,1.3,0.4
					c0.4,0.3,0.8,0.7,1.1,1.3c0.3,0.6,0.5,1.4,0.7,2.3c0.2,1,0.2,2.2,0.1,3.7l-1.8,32.5c-1.4,1-2.7,1.6-3.8,1.6
					c-0.5,0-0.9-0.1-1.3-0.3c-0.4-0.2-0.8-0.7-1.1-1.3c-0.3-0.6-0.5-1.4-0.7-2.4c-0.2-1-0.2-2.3-0.1-3.9l0.1-2.2
					c-0.4,0.3-0.9,0.6-1.4,0.7c-0.6,0.2-1.3,0.3-2.2,0.3h-9.1L200.6,223.4z M214.1,206.3h7.1c0,0,0,0.1,0.1,0.1c0,0,0.1,0.1,0.2,0.3
					l0.6-10.5L214.1,206.3z"/>
				<path class="st16" d="M199.3,228.9c-2.4,0-4.4-0.6-6-1.7c-1.2-0.9-2.2-2-2.8-3.4c-0.6-1.4-0.7-3.1-0.4-4.8
					c0.2-1.2,0.7-2.5,1.4-3.9c-0.7-1.8-1.1-3.5-1-5.2c0-1,0.2-2.1,0.5-3c0.4-1.2,1.2-2.4,2.2-3.3c0.9-0.9,2.1-1.6,3.4-2
					c1.2-0.4,2.5-0.6,4.1-0.6h1.3l15.3-19.4c0.2-1.6,1.1-3,2.5-3.8c2.5-1.5,4.9-2.2,7.2-1.9c1.1,0.1,2.4,0.5,3.5,1.1
					c1.3,0.8,2.4,1.9,3.1,3.4c0.6,1.1,1,2.4,1.2,4c0.2,1.3,0.3,2.9,0.2,4.8l-1.8,32.5c-0.1,1.6-0.9,3.2-2.3,4.1
					c-3.9,2.7-7.5,3.3-10.8,1.6c-1.5-0.8-2.6-2-3.4-3.6c-0.6-1.1-1-2.4-1.2-4c0-0.2,0-0.3-0.1-0.5h-4.7l-6.1,7.7
					c-0.9,1.2-2.2,1.9-3.7,2C200.5,228.8,199.9,228.9,199.3,228.9z"/>
			</g>
		</g>
		<g>
			<g>
				<path class="st8" d="M30.2,224.8c-2-1-3.4-2.4-4.2-4.2c-0.8-1.9-1.3-3.9-1.3-6c0-2.1,0.3-4.1,0.8-6.2c0.5-2.1,1.2-4.1,2.1-6.1
					c0.9-2,1.9-3.9,3.1-5.7c1.2-1.8,2.4-3.5,3.8-5.1c1.2-1.4,2.6-2.7,4.1-4c1.5-1.3,3.2-2.4,5-3.4c1.8-0.9,3.6-1.6,5.6-2
					c1.9-0.4,3.9-0.3,5.8,0.1c1.8,0.5,3.2,1.5,4.1,3c1,1.5,1.3,3.1,1,5c-0.2,1.5-0.5,3-1.2,4.4c-0.6,1.4-1.3,2.8-2.1,4
					c0,0-0.1,0.1-0.5,0.2c-0.3,0.1-0.7,0.2-1.2,0.4c-0.5,0.1-0.9,0.2-1.3,0.3c-0.4,0.1-0.6,0.1-0.7,0.1c-0.7,0-1.1-0.2-1.4-0.7
					c-0.3-0.5-0.4-1-0.3-1.7c0-0.7,0.1-1.4,0.3-2.1c0.2-0.7,0.4-1.4,0.6-2.1c0.1-0.4,0.2-0.8,0.3-1.1c0.1-0.4,0.2-0.8,0.3-1.2
					c0.1-0.2,0.1-0.5,0.1-0.9c0-0.4,0.1-0.6,0.1-0.7c-0.1-0.1-0.2-0.1-0.5-0.1s-0.5,0-0.8,0.1c-0.3,0-0.6,0.1-0.8,0.1
					c-0.2,0-0.4,0.1-0.5,0.1c-1,0.2-1.9,0.5-2.8,0.8c-0.9,0.4-1.7,0.8-2.6,1.3c-1.6,1.1-3.1,2.5-4.4,4c-1.3,1.5-2.5,3.1-3.6,4.8
					c-1.1,1.8-2.1,3.7-2.9,5.7c-0.8,2-1.5,4-1.8,6.1c-0.1,0.6-0.2,1.3-0.2,2.2c0,0.8,0.1,1.6,0.3,2.3c0.2,0.7,0.5,1.2,1,1.6
					c0.5,0.4,1.2,0.4,2.1,0.1c0.9-0.3,1.8-0.7,2.6-1.3c0.8-0.6,1.6-1.2,2.4-1.9c0.7-0.7,1.4-1.4,2.1-2.2c0.6-0.8,1.3-1.5,1.9-2.2
					l1.1-1.5l1.9-4.1c1.4,0.1,2.6,0.4,3.6,0.9c0.8,0.4,1.5,1,2,1.8c0.5,0.8,0.4,1.9-0.3,3.4l-7.3,15.9c-0.9,0-1.7-0.1-2.5-0.2
					c-0.7-0.2-1.3-0.4-1.9-0.7c-0.6-0.3-1.1-0.9-1.3-1.5h-0.2c-1.5,0.8-3,1.2-4.6,1.3C33.3,225.8,31.7,225.5,30.2,224.8z"/>
				<path class="st8" d="M59.7,224.3c-1.9,0.2-3.3,0-4.1-0.6c-0.4-0.3-0.7-0.6-0.9-1.1c-0.2-0.5-0.2-1.1-0.1-1.8
					c0.1-0.7,0.5-1.6,1-2.6c0.6-1,1.4-2.3,2.6-3.7H56c-0.7-1.4-1-2.6-0.9-3.7c0-0.5,0.1-0.9,0.2-1.3c0.2-0.4,0.4-0.8,0.8-1.2
					c0.4-0.3,0.9-0.6,1.5-0.8c0.6-0.2,1.4-0.3,2.4-0.3h4l17.8-22.6h0.1l0.1-1.5c1.4-0.9,2.7-1.3,3.7-1.1c0.5,0,0.9,0.2,1.3,0.4
					c0.4,0.2,0.8,0.7,1.1,1.3c0.3,0.6,0.5,1.4,0.7,2.3c0.2,1,0.2,2.2,0.1,3.7l-1.8,32.5c-1.5,1-2.7,1.5-3.8,1.5
					c-0.5,0-0.9-0.1-1.3-0.3c-0.4-0.2-0.8-0.7-1.1-1.3c-0.3-0.6-0.5-1.4-0.7-2.4c-0.2-1-0.2-2.3-0.1-3.9l0.1-2.2
					c-0.4,0.3-0.9,0.6-1.4,0.7c-0.6,0.2-1.3,0.3-2.2,0.3h-9.1L59.7,224.3z M73.2,207.2h7.1c0,0,0,0.1,0.1,0.1c0,0,0.1,0.1,0.2,0.3
					l0.6-10.5L73.2,207.2z"/>
				<path class="st8" d="M86.9,220.3c0-0.5,0.1-0.9,0.2-1.3c0.2-0.4,0.4-0.8,0.8-1.2c0.4-0.3,0.9-0.6,1.5-0.8
					c0.6-0.2,1.4-0.3,2.4-0.3H94c-0.7-0.4-1-1.2-1-2.4c0-1.2,0.5-2.9,1.5-5.1l13-27.3c1.6-0.2,2.8-0.1,3.8,0.4
					c0.4,0.2,0.7,0.5,1,0.9c0.3,0.4,0.5,0.9,0.6,1.5c0.1,0.6,0,1.4-0.1,2.3c-0.2,0.9-0.6,2-1.2,3.2l-12.7,26.5h14.2
					c0.7,1.4,1.1,2.6,1.1,3.7c0,0.5-0.1,0.9-0.2,1.3c-0.1,0.4-0.4,0.8-0.8,1.2c-0.4,0.3-0.9,0.6-1.6,0.8c-0.7,0.2-1.5,0.3-2.6,0.3
					H87.8C87.2,222.6,86.9,221.4,86.9,220.3z"/>
				<path class="st8" d="M113.6,224c-0.7-1.4-1.1-2.6-1-3.7c0-0.5,0.1-0.9,0.3-1.3c0.2-0.4,0.5-0.8,0.9-1.2c0.4-0.3,1-0.6,1.7-0.8
					c0.7-0.2,1.6-0.3,2.7-0.3h1.7c-0.7-0.4-1-1.1-1.1-2.2c-0.1-1,0.3-2.5,1.1-4.4l9.9-20.8h-2.8c-0.7-1.4-1.1-2.6-1-3.7
					c0-0.5,0.1-0.9,0.3-1.3c0.2-0.4,0.5-0.8,0.9-1.2c0.4-0.3,1-0.6,1.7-0.8c0.7-0.2,1.6-0.3,2.7-0.3h23.4c0.8,1.4,1.2,2.6,1.3,3.7
					c0,0.5-0.1,0.9-0.2,1.3c-0.2,0.4-0.4,0.8-0.9,1.2c-0.4,0.3-1,0.6-1.8,0.8c-0.7,0.2-1.7,0.3-2.8,0.3h-14.3
					c0.3,0.6,0.4,1.3,0.3,2.1c-0.1,0.8-0.4,1.9-1.1,3.3l-2.6,5.5h10.6c0.3,1.4,0.5,2.6,0.6,3.7c0,0.9-0.2,1.8-0.5,2.5
					c-0.3,0.8-1,1.1-2.1,1.1h-10.6c-0.1-0.2-0.1-0.4-0.2-0.6c-0.1-0.3-0.2-0.8-0.2-1.5l-5.6,11.4h16.8c0.8,1.4,1.2,2.6,1.3,3.7
					c0,0.5-0.1,0.9-0.2,1.3c-0.2,0.4-0.4,0.8-0.8,1.2c-0.4,0.3-1,0.6-1.7,0.8c-0.7,0.2-1.7,0.3-2.8,0.3H113.6z"/>
				<path class="st8" d="M152.6,223.7c-1.7,0.4-3,0.4-4,0c-0.4-0.2-0.8-0.4-1.1-0.8c-0.3-0.4-0.5-0.9-0.5-1.5
					c-0.1-0.6,0-1.5,0.3-2.4s0.7-2.2,1.4-3.5l12.5-26.1h-3.6c-0.5-0.5-1-1.1-1.4-1.9c-0.4-0.8-0.5-1.5-0.3-2.3
					c0.2-0.9,0.8-1.6,1.7-2c0.9-0.4,1.9-0.7,3-0.9c1.1-0.2,2.2-0.2,3.3-0.2c1.1,0,2,0,2.6,0c1.1,0,2.2,0,3.3-0.1
					c1.1,0,2.2,0,3.3,0.1c1.1,0.1,2.2,0.2,3.2,0.5c1,0.2,2,0.7,3,1.3c1.6,1,2.9,2.3,3.9,4c1,1.7,1.4,3.5,1.4,5.4
					c-0.1,1.8-0.6,3.6-1.6,5.2c-1,1.6-2.2,3-3.8,4.1c-1.5,1.1-3.2,1.9-5,2.4c-1.8,0.6-3.6,0.9-5.5,1.2l6.8,15.3
					c-1,1.1-1.9,1.9-2.9,2.4c-0.8,0.4-1.7,0.5-2.6,0.3c-0.9-0.2-1.7-1.1-2.5-2.7l-6.6-14.7L152.6,223.7z M167.1,189.3
					c0.3,0.7,0.4,1.5,0.3,2.5c-0.1,1-0.6,2.4-1.4,4l-2,4.2c0.3-0.2,0.6-0.3,0.9-0.3c0.3-0.1,0.5-0.1,0.8-0.2
					c0.8-0.3,1.6-0.5,2.5-0.6c0.9-0.2,1.8-0.4,2.6-0.6c0.6-0.2,1.3-0.4,2.1-0.7c0.8-0.3,1.5-0.7,2.2-1.3c0.7-0.5,1.2-1.1,1.6-1.8
					c0.4-0.7,0.5-1.4,0.3-2.3c-0.2-1-0.7-1.6-1.4-2.1c-0.8-0.4-1.6-0.7-2.6-0.8c-1-0.1-2-0.1-3-0.1c-1,0.1-1.9,0.1-2.6,0.1H167.1z"
					/>
				<path class="st8" d="M201.1,181.7c0.5,0.2,0.9,0.4,1.3,0.8c0.4,0.4,0.7,0.9,0.8,1.6c0.1,0.7,0,1.6-0.2,2.8
					c-0.2,1.1-0.8,2.5-1.6,4.2l-15.5,32.4c-1.8,0.5-3.2,0.6-4.2,0.2c-0.4-0.2-0.8-0.4-1.1-0.8c-0.3-0.4-0.5-1-0.5-1.7
					c0-0.7,0.1-1.7,0.4-2.8c0.3-1.1,0.9-2.5,1.6-4.1l14.9-31.1l-1.6,0.6c-0.9-1.1-1.5-2.2-1.9-3.2c-0.2-0.4-0.2-0.9-0.3-1.3
					c0-0.5,0-0.9,0.2-1.3c0.2-0.4,0.4-0.8,0.8-1.2c0.4-0.4,0.9-0.7,1.6-0.9l14.7-5.5c1,1.1,1.6,2.2,2.1,3.2c0.3,0.9,0.4,1.8,0.2,2.7
					c-0.2,0.9-1.1,1.6-2.5,2.1L201.1,181.7z"/>
				<path class="st8" d="M201.6,224.3c-1.9,0.2-3.3,0-4.1-0.6c-0.4-0.3-0.7-0.6-0.9-1.1c-0.2-0.5-0.2-1.1-0.1-1.8
					c0.1-0.7,0.5-1.6,1-2.6c0.6-1,1.4-2.3,2.6-3.7h-2.2c-0.7-1.4-1-2.6-0.9-3.7c0-0.5,0.1-0.9,0.2-1.3c0.2-0.4,0.4-0.8,0.8-1.2
					c0.4-0.3,0.9-0.6,1.5-0.8c0.6-0.2,1.4-0.3,2.4-0.3h4l17.8-22.6h0.1l0.1-1.5c1.4-0.9,2.7-1.3,3.7-1.1c0.5,0,0.9,0.2,1.3,0.4
					c0.4,0.2,0.8,0.7,1.1,1.3c0.3,0.6,0.5,1.4,0.7,2.3c0.2,1,0.2,2.2,0.1,3.7l-1.8,32.5c-1.5,1-2.7,1.5-3.8,1.5
					c-0.5,0-0.9-0.1-1.3-0.3c-0.4-0.2-0.8-0.7-1.1-1.3c-0.3-0.6-0.5-1.4-0.7-2.4c-0.2-1-0.2-2.3-0.1-3.9l0.1-2.2
					c-0.4,0.3-0.9,0.6-1.4,0.7c-0.6,0.2-1.3,0.3-2.2,0.3h-9.1L201.6,224.3z M215,207.2h7.1c0,0,0,0.1,0.1,0.1c0,0,0.1,0.1,0.2,0.3
					l0.6-10.5L215,207.2z"/>
			</g>
		</g>
	</g>
</g>
<g class="video1locked">
	<g>
		<g>
			<path class="st3" d="M528.2,535.4c0-3.6-2-7-5.1-8.9L409.4,461c-3.1-1.8-7.1-1.8-10.2,0l-113.6,65.7c-3.1,1.8-5.1,5.2-5.1,8.9
				l0,131.3c0,3.6,2,7,5.1,8.9l113.7,65.6c1.6,0.9,3.3,1.4,5.1,1.4c1.8,0,3.6-0.5,5.1-1.4l113.6-65.7c3.2-1.8,5.1-5.2,5.1-8.9
				L528.2,535.4z"/>
			<path class="st0" d="M404.4,747.1c-2.6,0-5.1-0.7-7.4-2l-113.7-65.6c-4.5-2.6-7.4-7.5-7.4-12.8l0-131.3c0-5.2,2.8-10.1,7.3-12.7
				L397,457.1c4.4-2.5,10.3-2.6,14.7,0l113.7,65.6c4.5,2.6,7.4,7.5,7.4,12.7l0,131.3c0,5.2-2.8,10.1-7.4,12.8l-113.6,65.7
				C409.6,746.4,407,747.1,404.4,747.1z M404.3,464.1c-1,0-2,0.3-2.9,0.7l-113.6,65.7c-1.8,1-2.9,2.9-2.9,5l0,131.3
				c0,2,1.1,3.9,2.9,5l113.7,65.6c1.7,1,4,1,5.7,0l113.6-65.7c1.8-1,2.9-2.9,2.9-5l0-131.3c0-2-1.1-3.9-2.9-5l-113.7-65.6
				C406.4,464.4,405.4,464.1,404.3,464.1z"/>
		</g>
		<g>
			<g>
				<path class="st17" d="M381.4,686.3c-6.3,0-11.4-1.1-15.1-3.2c-1.6-1-3-2.2-4.1-3.7c-1.1-1.5-1.9-3.3-2.2-5.6
					c-0.3-2.3-0.1-5,0.6-8.2c0.7-3.2,2.3-6.9,4.7-11.1l5.8-10.2c6.5-0.3,11.7,0.5,15.6,2.4c1.6,0.8,3,1.9,4.3,3.4
					c1.2,1.5,2,3.3,2.3,5.6c0.3,2.3,0,5-0.9,8.3c-0.9,3.2-2.6,7.1-5.2,11.4L381.4,686.3z M377.7,578.7c-2.8,1.3-5.3,1.4-7.5,0.4
					c-2.3-1.1-4.2-2.8-5.8-5.2c-3.2-5.4-4.6-11.4-4-18c0.6-6.7,2.2-12.7,5-18c2.8-5.7,6.5-10.6,11.1-14.9c4.6-4.2,9.8-7.6,15.5-10.2
					c5.7-2.6,11.7-4.4,18-5.4c6.3-1,12.6-1,18.7,0c9.4,1.5,17.2,5,23.2,10.7c6.1,5.7,10.3,12.4,12.8,20.1c2.4,7.7,3.1,15.8,1.9,24.3
					c-1.1,8.5-4.2,16.4-9.3,23.5c-4.7,7.3-10.6,13.4-17.7,18.1c-7.1,4.8-14.2,9.3-21.3,13.5c-1.9,1.1-3.7,2.2-5.4,3.2
					c-1.6,1-3.2,2.1-4.9,3.4c-0.5,0.3-1.3,1-2.3,2.1c-1.1,1.1-1.9,1.6-2.6,1.6c-2.8-0.5-5.4-0.9-7.9-1.1c-2.5-0.2-4.8-0.8-6.9-1.6
					c-3.2-1-5.3-2.4-6.1-4.4c-0.8-1.9-0.9-4.1-0.2-6.3c0.6-2.3,1.9-4.7,3.9-7.2c1.9-2.5,4-4.9,6.1-7.1c2.1-2.2,4.2-4.1,6.3-5.7
					c2.1-1.6,3.7-2.8,4.9-3.7c2.9-1.9,6-3.9,9.4-5.8c3.3-1.9,6.5-4,9.4-6.2c2.9-2.2,5.6-4.7,7.9-7.5c2.4-2.8,4.2-6.1,5.5-9.9
					c1.1-3.2,1.6-6.6,1.3-10c-0.2-3.4-1.6-6.5-4-9.3c-2.4-2.8-5.6-4.2-9.4-4.4c-3.8-0.2-7.4,0.1-10.8,0.7c-4.1,0.5-7.8,1.8-11.1,3.9
					c-3.3,2.1-6.1,5-8.4,8.8c-0.3,0.3-0.8,1.5-1.5,3.4c-0.6,1.9-1.3,4-1.8,6.2c-0.6,2.2-0.9,4.2-1.1,6c-0.2,1.8,0.1,2.7,0.7,2.7
					c0.2,0.3-0.3,0.9-1.5,1.8c-1.1,0.9-2.4,1.9-3.9,2.9c-1.5,1.1-2.8,2-4.1,2.9C378.6,578,377.9,578.6,377.7,578.7z"/>
			</g>
		</g>
	</g>
</g>
<g class="video3locked">
	<g>
		<g>
			<path class="st3" d="M252.2,80.4c0-3.6-2-7-5.1-8.9L133.4,6c-3.1-1.8-7.1-1.8-10.2,0L9.6,71.6c-3.1,1.8-5.1,5.2-5.1,8.9l0,131.3
				c0,3.6,2,7,5.1,8.9l113.7,65.6c1.6,0.9,3.3,1.4,5.1,1.4c1.8,0,3.6-0.5,5.1-1.4l113.6-65.7c3.2-1.8,5.1-5.2,5.1-8.9L252.2,80.4z"
				/>
			<path class="st0" d="M128.4,292.1c-2.6,0-5.1-0.7-7.4-2L7.4,224.5C2.9,221.9,0,217,0,211.8L0,80.5c0-5.2,2.8-10.1,7.3-12.7
				L121,2.1c4.4-2.5,10.3-2.6,14.7,0l113.7,65.6c4.5,2.6,7.4,7.5,7.4,12.7l0,131.3c0,5.2-2.8,10.1-7.4,12.8l-113.6,65.7
				C133.6,291.4,131,292.1,128.4,292.1z M128.3,9.1c-1,0-2,0.3-2.9,0.7L11.9,75.5c-1.8,1-2.9,2.9-2.9,5l0,131.3c0,2,1.1,3.9,2.9,5
				l113.7,65.6c1.7,1,4,1,5.7,0l113.6-65.7c1.8-1,2.9-2.9,2.9-5l0-131.3c0-2-1.1-3.9-2.9-5L131.2,9.9C130.4,9.4,129.4,9.1,128.3,9.1
				z"/>
		</g>
		<g>
			<g>
				<path class="st17" d="M105.4,231.3c-6.3,0-11.4-1.1-15.1-3.2c-1.6-1-3-2.2-4.1-3.7c-1.1-1.5-1.9-3.3-2.2-5.6
					c-0.3-2.3-0.1-5,0.6-8.2c0.7-3.2,2.3-6.9,4.7-11.1l5.8-10.2c6.5-0.3,11.7,0.5,15.6,2.4c1.6,0.8,3,1.9,4.3,3.4
					c1.2,1.5,2,3.3,2.3,5.6c0.3,2.3,0,5-0.9,8.3c-0.9,3.2-2.6,7.1-5.2,11.4L105.4,231.3z M101.7,123.7c-2.8,1.3-5.3,1.4-7.5,0.4
					c-2.3-1.1-4.2-2.8-5.8-5.2c-3.2-5.4-4.6-11.4-4-18c0.6-6.7,2.2-12.7,5-18c2.8-5.7,6.5-10.6,11.1-14.9c4.6-4.2,9.8-7.6,15.5-10.2
					c5.7-2.6,11.7-4.4,18-5.4c6.3-1,12.6-1,18.7,0c9.4,1.5,17.2,5,23.2,10.7c6.1,5.7,10.3,12.4,12.8,20.1c2.4,7.7,3.1,15.8,1.9,24.3
					c-1.1,8.5-4.2,16.4-9.3,23.5c-4.7,7.3-10.6,13.4-17.7,18.1c-7.1,4.8-14.2,9.3-21.3,13.5c-1.9,1.1-3.7,2.2-5.4,3.2
					c-1.6,1-3.2,2.1-4.9,3.4c-0.5,0.3-1.3,1-2.3,2.1c-1.1,1.1-1.9,1.6-2.6,1.6c-2.8-0.5-5.4-0.9-7.9-1.1c-2.5-0.2-4.8-0.8-6.9-1.6
					c-3.2-1-5.3-2.4-6.1-4.4c-0.8-1.9-0.9-4.1-0.2-6.3c0.6-2.3,1.9-4.7,3.9-7.2c1.9-2.5,4-4.9,6.1-7.1c2.1-2.2,4.2-4.1,6.3-5.7
					c2.1-1.6,3.7-2.8,4.9-3.7c2.9-1.9,6-3.9,9.4-5.8c3.3-1.9,6.5-4,9.4-6.2c2.9-2.2,5.6-4.7,7.9-7.5c2.4-2.8,4.2-6.1,5.5-9.9
					c1.1-3.2,1.6-6.6,1.3-10c-0.2-3.4-1.6-6.5-4-9.3c-2.4-2.8-5.6-4.2-9.4-4.4c-3.8-0.2-7.4,0.1-10.8,0.7c-4.1,0.5-7.8,1.8-11.1,3.9
					c-3.3,2.1-6.1,5-8.4,8.8c-0.3,0.3-0.8,1.5-1.5,3.4c-0.6,1.9-1.3,4-1.8,6.2c-0.6,2.2-0.9,4.2-1.1,6c-0.2,1.8,0.1,2.7,0.7,2.7
					c0.2,0.3-0.3,0.9-1.5,1.8c-1.1,0.9-2.4,1.9-3.9,2.9c-1.5,1.1-2.8,2-4.1,2.9C102.6,123,101.9,123.6,101.7,123.7z"/>
			</g>
		</g>
	</g>
</g>
<g class="video2locked">
	<g>
		<g>
			<path class="st3" d="M389.2,310.4c0-3.6-2-7-5.1-8.9L270.4,236c-3.1-1.8-7.1-1.8-10.2,0l-113.6,65.7c-3.1,1.8-5.1,5.2-5.1,8.9
				l0,131.3c0,3.6,2,7,5.1,8.9l113.7,65.6c1.6,0.9,3.3,1.4,5.1,1.4c1.8,0,3.6-0.5,5.1-1.4l113.6-65.7c3.2-1.8,5.1-5.2,5.1-8.9
				L389.2,310.4z"/>
			<path class="st0" d="M265.4,522.1c-2.6,0-5.1-0.7-7.4-2l-113.7-65.6c-4.5-2.6-7.4-7.5-7.4-12.8l0-131.3c0-5.2,2.8-10.1,7.3-12.7
				L258,232.1c4.4-2.5,10.3-2.6,14.7,0l113.7,65.6c4.5,2.6,7.4,7.5,7.4,12.7l0,131.3c0,5.2-2.8,10.1-7.4,12.8l-113.6,65.7
				C270.6,521.4,268,522.1,265.4,522.1z M265.3,239.1c-1,0-2,0.3-2.9,0.7l-113.6,65.7c-1.8,1-2.9,2.9-2.9,5l0,131.3
				c0,2,1.1,3.9,2.9,5l113.7,65.6c1.7,1,4,1,5.7,0l113.6-65.7c1.8-1,2.9-2.9,2.9-5l0-131.3c0-2-1.1-3.9-2.9-5l-113.7-65.6
				C267.4,239.4,266.4,239.1,265.3,239.1z"/>
		</g>
		<g>
			<g>
				<path class="st17" d="M242.4,461.3c-6.3,0-11.4-1.1-15.1-3.2c-1.6-1-3-2.2-4.1-3.7c-1.1-1.5-1.9-3.3-2.2-5.6
					c-0.3-2.3-0.1-5,0.6-8.2c0.7-3.2,2.3-6.9,4.7-11.1l5.8-10.2c6.5-0.3,11.7,0.5,15.6,2.4c1.6,0.8,3,1.9,4.3,3.4
					c1.2,1.5,2,3.3,2.3,5.6c0.3,2.3,0,5-0.9,8.3c-0.9,3.2-2.6,7.1-5.2,11.4L242.4,461.3z M238.7,353.7c-2.8,1.3-5.3,1.4-7.5,0.4
					c-2.3-1.1-4.2-2.8-5.8-5.2c-3.2-5.4-4.6-11.4-4-18c0.6-6.7,2.2-12.7,5-18c2.8-5.7,6.5-10.6,11.1-14.9c4.6-4.2,9.8-7.6,15.5-10.2
					c5.7-2.6,11.7-4.4,18-5.4c6.3-1,12.6-1,18.7,0c9.4,1.5,17.2,5,23.2,10.7c6.1,5.7,10.3,12.4,12.8,20.1c2.4,7.7,3.1,15.8,1.9,24.3
					c-1.1,8.5-4.2,16.4-9.3,23.5c-4.7,7.3-10.6,13.4-17.7,18.1c-7.1,4.8-14.2,9.3-21.3,13.5c-1.9,1.1-3.7,2.2-5.4,3.2
					c-1.6,1-3.2,2.1-4.9,3.4c-0.5,0.3-1.3,1-2.3,2.1c-1.1,1.1-1.9,1.6-2.6,1.6c-2.8-0.5-5.4-0.9-7.9-1.1c-2.5-0.2-4.8-0.8-6.9-1.6
					c-3.2-1-5.3-2.4-6.1-4.4c-0.8-1.9-0.9-4.1-0.2-6.3c0.6-2.3,1.9-4.7,3.9-7.2c1.9-2.5,4-4.9,6.1-7.1c2.1-2.2,4.2-4.1,6.3-5.7
					c2.1-1.6,3.7-2.8,4.9-3.7c2.9-1.9,6-3.9,9.4-5.8c3.3-1.9,6.5-4,9.4-6.2c2.9-2.2,5.6-4.7,7.9-7.5c2.4-2.8,4.2-6.1,5.5-9.9
					c1.1-3.2,1.6-6.6,1.3-10c-0.2-3.4-1.6-6.5-4-9.3c-2.4-2.8-5.6-4.2-9.4-4.4c-3.8-0.2-7.4,0.1-10.8,0.7c-4.1,0.5-7.8,1.8-11.1,3.9
					c-3.3,2.1-6.1,5-8.4,8.8c-0.3,0.3-0.8,1.5-1.5,3.4c-0.6,1.9-1.3,4-1.8,6.2c-0.6,2.2-0.9,4.2-1.1,6c-0.2,1.8,0.1,2.7,0.7,2.7
					c0.2,0.3-0.3,0.9-1.5,1.8c-1.1,0.9-2.4,1.9-3.9,2.9c-1.5,1.1-2.8,2-4.1,2.9C239.6,353,238.9,353.6,238.7,353.7z"/>
			</g>
		</g>
	</g>
</g>
<g class="characterlocked">
	<path class="st3" d="M707.2,775.8c0-4.8-2.5-9.1-6.6-11.5l-134.8-77.8c-2.1-1.2-4.3-1.8-6.6-1.8c-2.3,0-4.6,0.6-6.7,1.8
		l-134.8,77.9c-4.1,2.4-6.6,6.8-6.6,11.5l0.1,155.7c0,4.7,2.5,9.1,6.7,11.5l134.8,77.8c2.1,1.2,4.3,1.8,6.6,1.8
		c2.3,0,4.6-0.6,6.7-1.8L700.6,943c4.1-2.4,6.6-6.8,6.6-11.5L707.2,775.8z"/>
	<g>
		<defs>
			<path id="SVGID_9_" d="M689.2,785.3c0-4.2-2.2-8-5.8-10.1L565,706.9c-1.8-1-3.8-1.6-5.8-1.6c-2,0-4,0.5-5.8,1.6L435,775.3
				c-3.6,2.1-5.8,5.9-5.8,10.1l0,136.7c0,4.2,2.2,8,5.8,10.1l118.3,68.3c1.8,1,3.8,1.6,5.8,1.6c2,0,4-0.5,5.8-1.6l118.3-68.4
				c3.6-2.1,5.8-5.9,5.8-10.1L689.2,785.3z"/>
		</defs>
		<clipPath id="SVGID_10_">
			<use xlink:href="#SVGID_9_"  style="overflow:visible;"/>
		</clipPath>
		<g class="st18">
			<path class="st19" d="M707.3,928.4c-0.1,0-8.5-8.8-12.8-10.8c-2.1-1-8.1-4.2-11.8-4.5c0-0.1-0.1-0.1-0.1-0.2
				c3.9-3.4,4.5-6,3.9-7.7c-0.3-0.9-1.8-4.4-2.1-5c-2.7-6.9-0.7-2.6-6.7-12.1c-3.1-5-8.7-10.7-11.2-13.7c-3.4-4.1-9.5-9.2-14-11
				c-1.3-0.5-2.5-1-3.7-1.5c-1.1-0.7-2.3-1.1-3.7-1.4c-2.5-0.8-4.8-1.4-6.8-1.5c-0.9,0-1.9,0.1-3.2,0.3c-0.6-0.1-1.2-0.1-1.8-0.2
				c-0.9-0.5-1.9-0.7-3-0.7c-0.6,0-1.4,0.1-2.3,0.4l-1.5,0c-1.1-0.6-2.5-1-4.2-1c-0.4,0-0.8,0-1.3,0.1c-0.1,0-0.1,0-0.2,0
				c-0.2,0-0.6,0-1.3-0.6c-3.5-2.6-7.7-4.1-12.5-4.5c-1.9-0.2-3.6-0.3-5.1-0.6c1.2-2,2.2-4.3,2.7-7.1c0.6-3.5-0.1-6.4-2.1-8.5
				c0.8-2.3,1.7-4.6,2.4-7c0.5-1.6,1.1-3.1,1.7-4.8c1.5-4.1,3.2-8.7,3.7-13.7c1.1-1,1.8-2.2,2.4-3c0.3-0.5,0.7-1,0.9-1.2
				c2.1-1.9,3.2-4.5,3.2-7.2c0.7-2.7,0.6-5.4-0.1-8.1l0-2.5c0,0,0.1-0.1,0.1-0.1c0.3-0.3,0.6-0.6,0.8-0.9c0.3-0.3,0.6-0.7,0.8-1
				c1.7-2,3.6-4.3,4.7-7.4c1-2.7,3.9-11-2-17.9c-2.6-3-5.7-6.2-10.1-8c-0.4-0.5-0.9-0.9-1.6-1.3c0.3-2.6,0.2-5,0.2-7.3
				c0-0.8,0-1.7-0.1-2.5c0.1-4.2-2-7.1-6.4-8.8c-2.3-2.1-5.4-3.2-8.5-3c-0.3,0-0.7,0-1.2-0.2c-1.4-0.4-2.8-0.8-4.2-1.2
				c-1.4-0.4-2.8-0.8-4.2-1.2c-1.1-0.3-2.1-0.6-3.2-0.9c-3-0.9-6.1-1.8-9.6-2.2c-0.1,0-0.2-0.1-0.3-0.1c-0.9-0.2-2-0.6-3.5-0.6
				c-1.6,0-3.1,0.4-4.4,1.3c-0.9,0.3-1.7,0.7-2.5,1.3l-0.4,0.2l-1.1,0.2l-0.7,0.5c-0.7,0.2-1.2,0.5-1.7,0.9
				c-1.2,0.6-2.3,1.2-3.3,1.7c-1,0.6-1.9,1.1-2.7,1.4c-0.1,0-0.1,0-0.2,0c-0.4,0-0.8,0-1.2,0c-2.2,0-4,0.6-5.6,1.7
				c-2.5,1.1-4.5,2.7-6.1,4c-0.8,0.7-1.6,1.3-2.3,1.8c-2.2,1.4-3.9,3.2-5.4,4.7c-1.3,1.4-2.5,2.6-3.7,3.2c-5.5,2.7-7.1,7.7-8,10.4
				c-0.5,1.5-1.2,2.7-2.5,4c-5.9,6.1-9.3,13-10,20.5c-0.6,1.6-0.5,3.2-0.4,4.2c-1.1,2.2-1.7,4.4-2.3,6.4c-0.2,0.6-0.4,1.3-0.6,1.9
				c-0.3,0.9-0.4,1.7-0.5,2.3c0,0.2-0.1,0.3-0.1,0.5c-2.1,2.8-2.7,5.9-3,8.4c-0.1,0.9-0.2,1.7-0.3,2.6c-0.1,1.6-0.3,3-0.6,4.3
				c-1.9,7.8,1,14.2,3.5,19.8c0.2,0.6,0.5,1.1,0.7,1.7c0.8,1.7,2,3.1,3.6,3.9c-0.6,0.3-1.2,0.5-1.9,0.8c-0.5,0.2-1,0.4-1.4,0.6
				l-2.9,0.4l-2.9,0c-1.5-0.1-3,0.2-4.1,0.3c-0.6,0.1-1.2,0.2-1.6,0.2c-0.1,0-0.1,0-0.2,0l-0.5-0.1l-0.5,0c-1.1,0-2.2-0.2-3.7-0.6
				l-0.9-0.2c-2.5-0.6-5.4-1.3-8.5-1.3c-2,0-3.8,0.3-5.6,0.8l-0.4,0.1l-0.4,0.2c-0.2,0.1-0.8,0.2-1.2,0.3c-1.4,0.3-3.7,0.7-5.8,2.3
				c-2.8,1.2-4.6,3.1-6,4.6c-0.5,0.5-1,1.1-1.5,1.4c-1.8,1.3-3.4,2.9-5,4.8c-4.4,3.5-7.2,8-8.9,11.2c-1.8,3.3-3.6,6.6-5.2,9.8
				c-3.1,5.8-6.2,11.8-9.7,17.4c-2.1,2.7-3.6,5.6-5.1,8.7c-4.4,8.8-7.5,16.4-9.9,23.6c-1.7,3.4-2.9,6.8-4,10.1c-0.3,1-0.7,2-1.1,3.1
				c-1.5,2.5-0.7,4.8-0.3,5.6c0.4,0.9,1.8,3,4.9,3.3l0.3,0l-0.3-0.2l22.8,0.6l-6.7,14.1c-0.9,1.8-1.5,3.4-1.8,4.8
				c-1.3,0.5-2.5,1.2-3.5,2.1c-1.1,1-1.9,2.3-2.4,3.7c-0.4,1.1-0.6,2.2-0.6,3.3c-0.1,2.1,0.5,4.3,1.5,6.6l1.7,3.7H449
				c1.7,0,3.2-0.3,4.5-0.7c0.3-0.1,0.5-0.2,0.8-0.3c0.5,0.3,1.1,0.5,1.6,0.7v29.3h202v-14.1c2.4,0.4,4.2,0.6,5.7,0.6
				c5.1,0,7.2-2.3,8.9-4.6c0.3-0.5,0.7-0.9,1.1-1.3c3-3.2,5.2-8.3,7.2-13.3c0.7-1.8,1.4-3.4,2.1-4.8c2.2-4.5,5.7-9.5,5.9-9.8
				c0.2-0.2,3.8-5.2,8.1-8.8c2.1-1.8,5.2-4.6,7.9-7.9c3-3.7,4.6-7,4.8-10C709.8,936.4,710.4,931,707.3,928.4z"/>
			<path class="st19" d="M643.8,848.6c0,0-11.5-23.2-18.9-18.2C617.5,835.5,635.3,844.2,643.8,848.6z"/>
			<path class="st19" d="M647.1,822.4c-8.7-2.1-3.3,16.9-0.9,26.2C646.2,848.6,655.8,824.5,647.1,822.4z"/>
			<path class="st19" d="M665.7,829.6c-5.8-6.9-12.7,11.6-16.3,20.5C649.4,850.2,671.5,836.5,665.7,829.6z"/>
		</g>
	</g>
</g>
</svg>
