<?xml version="1.0" encoding="utf-8"?>
<!-- Generator: Adobe Illustrator 18.0.0, SVG Export Plug-In . SVG Version: 6.00 Build 0)  -->
<!DOCTYPE svg PUBLIC "-//W3C//DTD SVG 1.1//EN" "http://www.w3.org/Graphics/SVG/1.1/DTD/svg11.dtd">
<svg version="1.1" id="Layer_1" xmlns="http://www.w3.org/2000/svg" xmlns:xlink="http://www.w3.org/1999/xlink" x="0px" y="0px"
	 viewBox="0 0 824.7 1161.8" style="enable-background:new 0 0 824.7 1161.8;" xml:space="preserve">
<style type="text/css">
	.st0{fill:#FFD44A;}
	.st1{fill:#3BB897;}
	.st2{clip-path:url(#SVGID_2_);}
	.st3{fill:#FFFFFF;}
	.st4{fill:#35997E;}
	.st5{fill:#50BA8A;}
	.st6{fill:#F0F0F0;}
	.st7{fill:#E3E3F6;}
	.st8{fill:#E0EBE8;}
	.st9{fill:#C9C9D6;}
	.st10{opacity:0.5;}
</style>
<g id="character">
	<g id="HEXAGONO_AMARILLO_2_">
		<path class="st0" d="M665.7,1155c-1.2,0-2.4-0.3-3.4-0.9l-138.1-79.7c-2.1-1.2-3.4-3.5-3.4-5.9L520.8,909c0-2.4,1.3-4.7,3.4-5.9
			l138-79.8c1.1-0.6,2.2-0.9,3.4-0.9c1.2,0,2.4,0.3,3.4,0.9L807.1,903c2.1,1.2,3.4,3.5,3.4,5.9l0.1,159.5c0,2.4-1.3,4.7-3.4,5.9
			l-138,79.8C668.1,1154.7,666.9,1155,665.7,1155z"/>
		<path class="st1" d="M665.6,829.2l138.1,79.7l0.1,159.5l-138,79.8l-138.1-79.7L527.6,909L665.6,829.2 M665.6,815.6
			c-2.4,0-4.7,0.6-6.8,1.8l-138,79.8c-4.2,2.4-6.8,6.9-6.8,11.8l0.1,159.5c0,4.9,2.6,9.4,6.8,11.8l138.1,79.7
			c2.1,1.2,4.5,1.8,6.8,1.8c2.4,0,4.7-0.6,6.8-1.8l138-79.8c4.2-2.4,6.8-6.9,6.8-11.8l-0.1-159.5c0-4.9-2.6-9.4-6.8-11.8
			l-138.1-79.7C670.3,816.2,668,815.6,665.6,815.6L665.6,815.6z"/>
	</g>
	<g>
		<defs>
			<polyline id="SVGID_1_" points="655.2,826.2 803.7,912.9 803.8,1072.4 665.7,1152.2 527.6,1072.5 527.6,913 655.2,826.2 			"/>
		</defs>
		<clipPath id="SVGID_2_">
			<use xlink:href="#SVGID_1_"  style="overflow:visible;"/>
		</clipPath>
		<g class="st2">
			<path class="st1" d="M797.1,1015.5l-1-9.8c0-0.2,0-0.4-0.1-0.5c-0.1-0.2-1.7-6.1-2.8-9.2c-0.7-2.2-2.3-4.5-3.7-6.4
				c-0.8-1.2-1.7-2.4-2.1-3.2c-0.3-0.7-0.4-1.6-0.6-2.6c-0.3-1.9-0.6-4.2-2.2-6.6c-2.3-3.5-18.5-20.1-33.2-31.7
				c-14.6-11.5-27.3-13.9-35.3-13.9c-4.8,0-17.4-1.4-22.5-2c0.4-1.5,1.2-4.5,2.5-7.8c1.4-3.3,2.8-9.7,4.3-16.3
				c0.9-3.9,1.8-7.9,2.6-11.1c2.4-9-8.1-16.6-12.1-19.2l-0.3-2.9c-0.6-4.9-5-10.4-13.5-16.6c-8.4-6.2-20.5-6.7-24-6.7
				c-0.7,0-1.4,0-2.1,0c-4.3,0.2-8.5,0.9-14.3,1.9c-4.1,0.7-9.1,1.6-15.4,2.4c-15.7,2.2-20.2,10.1-22.9,14.8l-0.4,0.7
				c-2.6,4.4-5.9,13.5-6.4,14.8c-0.2,0.4-0.6,1.3-1.8,3.8c-1.5,3.2-1.9,9.9-2.4,17.8c-0.2,3.5-0.4,7.2-0.8,10.5
				c-0.8,7.8,1.8,15.6,3.5,19.5c-0.2,0.1-0.4,0.3-0.7,0.4c-3.1,2-13.6,12.2-14.8,13.3c-0.2,0.2-0.4,0.4-0.5,0.6
				c-2.9,4.7,0,10.6,2.3,15.3c0.8,1.5,1.5,3,1.8,4c0.7,2.2-2,4.3-2,4.3c-0.3,0.2-0.6,0.5-0.8,0.8c-0.1,0.1-6.8,10.1-13,18.7
				c-4,5.7-7.1,11.4-9.5,16.1c-1.4,2.7-2.7,5-3.8,6.8c-3.7,5.9-5.4,20-3.3,27.8c1.2,4.3-0.5,8.6-2.2,13.1c-0.6,1.6-1.3,3.3-1.8,5
				c-2.3,7.7,3,15.1,5.8,19.1l0.1,0.2c1.1,1.7-0.2,11.3-2.5,18.5c-1.4,4.2,0.4,9.6,2.1,14.3c0.2,0.6,0.4,1.1,0.5,1.4
				c0.7,2.3,4.8,11.1,5.7,12.9c0.5,1.1,1.6,1.7,2.9,1.7h237.9c1.7,0,2.8-1.2,2.8-2.9v-110.6C797,1015.7,797.2,1015.6,797.1,1015.5z"
				/>
			
				<image style="overflow:visible;" width="3183" height="3409" xlink:href="65B077334BE17BC3.png"  transform="matrix(8.024700e-02 0 0 8.024700e-02 534.5531 848.209)">
			</image>
		</g>
	</g>
	<g>
		<path class="st1" d="M643.2,1085.8c-1.2-2.4-2.9-4.2-5.1-5.5c-1.8-1-3.7-1.7-5.7-1.8c-3.5-0.3-7.1,0.6-10.6,2.8
			c-2.2,1.4-3.8,3.6-4.4,6l-16.2,20.6c-1.9,0-3.6,0.3-5.2,0.7l3-6.3c1.1-2.2,1.8-4.2,2.2-6.1c0.5-2.3,0.6-4.3,0.3-6.3
			c-0.4-2.4-1.3-4.6-2.8-6.5c-1.1-1.4-2.4-2.5-3.9-3.4c-0.3-0.2-0.6-0.4-1-0.5c-2.9-1.3-6.2-1.8-9.9-1.3c-3.4,0.4-6.3,2.5-7.8,5.6
			l-15.2,31.8c-0.8,1.7-1.5,3.3-1.9,4.8c-1.4,0.6-2.6,1.5-3.6,2.5c-1.6,1.5-2.8,3.3-3.5,5.4c-0.5,1.5-0.8,3.1-0.8,4.7
			c-0.1,2.8,0.6,6.2,2,9.2c1.7,3.5,5.2,6.2,9,6.2h24.9c2.2,0,4.2-0.7,5.9-1.3c2,0.9,4.2,1.1,6.7,1.1c0.8,0,1.6-0.2,2.5-0.2
			c2.7-0.3,5.2-1.2,6.9-3.4l6-7.2h0.6c0.3,1,0.7,1.8,1.2,2.8c1.6,3.3,4,4.8,5.6,5.6c2,1,4,1.4,6.2,1.4c3.4,0,6.7-1.3,10.2-3.7
			c2.5-1.8,4-4.6,4.2-7.6l2.1-38c0.1-2.5,0-4.6-0.2-6.4C644.6,1089.3,644,1087.4,643.2,1085.8z"/>
		<path class="st1" d="M824.6,1092.3c-0.1-2.9-1.1-5.4-2.8-8.5c-1.8-3.1-5.1-4.4-8.6-4.4h-27.3c-2.2,0-4.2-0.3-6,0.3
			c-2.2,0.6-4.1,1.4-5.6,2.7c-0.8,0.7-1.5,1.3-2.1,2.1c-0.2-0.3-0.4-0.6-0.6-0.9c-1.1-1.4-2.4-2.5-3.9-3.4c-0.3-0.2-0.6-0.4-1-0.5
			c-2.9-1.3-6.2-1.8-9.9-1.3c-3.4,0.4-6.3,2.5-7.8,5.6l-3.2,6.7c-0.4-1.8-0.9-3.4-1.6-4.8c-1.2-2.4-2.9-4.2-5.1-5.5
			c-1.8-1-3.7-1.7-5.7-1.8c-3.5-0.3-7.1,0.6-10.6,2.8c-2.2,1.4-3.8,3.6-4.4,6l-2.2,2.9c-0.3-2-1-3.6-2.1-5.7c-1.7-3.4-5.2-5-8.9-5
			h-22.5c-2.2,0-4.1-0.2-5.9,0.4c-2.1,0.7-3.9,1.6-5.4,3.1c-1.6,1.6-2.7,3.3-3.3,5.4c-0.4,1.4-0.7,2.8-0.7,4.3
			c-0.1,2.7,0.6,5.6,1.9,8.5c0.3,0.7,0.7,1.3,1.1,1.8c-3.1-0.3-5.7,0.2-8,1.4c-1.4,0.8-2.8,1.8-4.2,3.3c-0.1,0.1-0.3,0.3-0.4,0.4
			c-2.2,2.4-3.9,5.2-5.2,8.3c-1.4,3.4-2,6.9-1.9,10.5c0,0.1,0,0.1,0,0.2c0.2,4.1,1.5,8,3.8,11.4c2.5,3.8,6.2,6.6,10.6,8.1
			c2.4,0.8,4.8,1.2,7.1,1.2c1.7,0,3.4-0.2,5-0.6c3.3-0.8,6.4-2.2,9.2-4.2c0.6-0.4,1.2-0.9,1.8-1.4c0.9,1.5,2.2,2.9,3.6,3.9
			c2.5,1.7,5.5,2.6,9.1,2.6c0.8,0,1.6,0,2.5-0.1c2.7-0.3,5.2-1.2,6.9-3.3l6-7.1h0.6c0.3,1,0.7,1.8,1.2,2.8c1.6,3.3,4,4.8,5.6,5.6
			c2,1,4,1.4,6.2,1.4c0.7,0,1.4,0.3,2.1,0.2c1,0.4,2.1,1,3.2,1h24.9c1.2,0,2.2-0.1,3.2-0.2c0.6,0.1,1.3,0.2,2,0.2h27.4
			c2.3,0,4.3-0.7,6.1-1.2c2.2-0.6,4.1-1.9,5.7-3.2c1.8-1.5,3.2-3.6,3.9-5.8c0.5-1.6,0.8-3.3,0.8-4.9c0-0.1,0-0.3,0-0.4
			c-0.1-2.7-0.9-5.6-2.5-8.4c1-1,1.8-2.3,2.4-3.7c0.9-2.1,1.4-4.4,1.4-6.9c0-0.1,0-0.2,0-0.4c-0.1-2-0.4-4-1-6.4
			c0-0.1,0-0.2-0.1-0.3c1.7-0.1,3.2-0.3,4.6-0.7c2.2-0.6,4.1-1.6,5.7-2.9c1.9-1.6,3.3-3.6,4.1-5.8c0.5-1.6,0.8-3.2,0.8-4.9
			C824.7,1092.5,824.7,1092.4,824.6,1092.3z"/>
	</g>
	<g>
		<g>
			<g>
				<path class="st3" d="M562.2,1134.2c0-0.5,0.1-1.1,0.3-1.6c0.2-0.5,0.5-1,0.9-1.4c0.4-0.4,1-0.7,1.7-1c0.7-0.2,1.7-0.4,2.8-0.4
					h2.5c-0.8-0.5-1.2-1.4-1.2-2.8c0-1.4,0.6-3.4,1.8-6l15.2-31.8c1.8-0.2,3.3-0.1,4.5,0.5c0.4,0.3,0.8,0.6,1.2,1.1
					c0.4,0.4,0.6,1,0.7,1.7c0.1,0.7,0.1,1.6-0.2,2.6c-0.2,1-0.7,2.3-1.4,3.8l-14.9,31h16.5c0.8,1.6,1.3,3,1.3,4.3
					c0,0.5-0.1,1.1-0.2,1.6c-0.2,0.5-0.5,1-0.9,1.4c-0.4,0.4-1.1,0.7-1.8,1c-0.8,0.2-1.8,0.4-3,0.4h-24.9
					C562.5,1136.9,562.2,1135.4,562.2,1134.2z"/>
				<path class="st3" d="M602.2,1138.9c-2.2,0.2-3.8,0-4.8-0.7c-0.4-0.3-0.8-0.7-1-1.3c-0.2-0.5-0.3-1.2-0.1-2.1
					c0.2-0.8,0.6-1.9,1.2-3.1c0.6-1.2,1.6-2.6,3-4.3h-2.5c-0.8-1.6-1.1-3-1.1-4.3c0-0.5,0.1-1.1,0.3-1.6c0.2-0.5,0.5-1,0.9-1.4
					c0.4-0.4,1-0.7,1.7-1c0.7-0.2,1.6-0.4,2.7-0.4h4.6l20.8-26.4h0.1l0.1-1.7c1.7-1,3.1-1.5,4.4-1.3c0.5,0,1,0.2,1.5,0.5
					c0.5,0.3,0.9,0.8,1.3,1.5c0.4,0.7,0.6,1.6,0.8,2.7c0.2,1.1,0.2,2.5,0.1,4.3l-2.1,37.9c-1.7,1.2-3.2,1.8-4.4,1.8
					c-0.5,0-1.1-0.1-1.6-0.4c-0.5-0.3-0.9-0.8-1.3-1.5c-0.4-0.7-0.6-1.7-0.8-2.8c-0.2-1.2-0.2-2.7-0.1-4.6l0.1-2.5
					c-0.4,0.4-1,0.6-1.7,0.9c-0.7,0.2-1.5,0.3-2.5,0.3h-10.7L602.2,1138.9z M617.9,1118.9h8.3c0,0,0,0.1,0.1,0.1
					c0,0,0.1,0.2,0.2,0.3l0.7-12.3L617.9,1118.9z"/>
				<path class="st3" d="M661.7,1127.4c-0.1-2.1,0.3-4.2,1.1-6.3c0.8-2.1,2-3.9,3.4-5.5c0.8-0.8,1.4-1.3,1.9-1.6
					c0.5-0.3,1.4-0.4,2.5-0.2c0.9,0.2,1.7,0.5,2.3,1.1c0.6,0.6,0.9,1.3,0.8,2.3c-0.1,0.9-0.5,1.9-1.1,2.9c-0.6,1-1.1,2-1.6,3
					c-0.5,1-0.8,2-1,3c-0.2,1,0.1,2,0.8,2.9c0.3,0.4,0.6,0.6,0.9,0.8c0.4,0.2,0.7,0.3,1.1,0.3c0.4,0,0.8,0,1.2-0.1
					c0.4-0.1,0.8-0.2,1.1-0.4c1-0.4,1.9-1,2.6-1.8c0.8-0.8,1.5-1.5,2-2.3c1.1-1.4,2.1-2.9,2.9-4.4c0.8-1.5,1.6-3,2.5-4.6
					c1.6-3.1,3.1-6.2,4.6-9.3c1.5-3.1,3-6.2,4.6-9.3h-14.9c-0.7-1.6-1.1-3-1-4.3c0-0.5,0.1-1.1,0.2-1.6c0.2-0.5,0.4-1,0.8-1.4
					c0.4-0.4,0.9-0.7,1.6-1c0.7-0.2,1.6-0.4,2.6-0.4h22.5c0.8,1.6,1.2,3,1.3,4.3c0,0.5-0.1,1.1-0.2,1.6c-0.1,0.5-0.4,1-0.8,1.4
					c-0.4,0.4-0.9,0.7-1.6,1c-0.7,0.2-1.6,0.4-2.7,0.4h-1.3c0.2,0.4,0.3,0.6,0.3,0.9c0.2,1.3,0.1,2.6-0.3,3.9
					c-0.4,1.4-0.9,2.6-1.3,3.7c-0.4,1.1-0.9,2.2-1.4,3.2c-0.5,1-1,2.1-1.5,3.1c-1.1,2.1-2.2,4.3-3.2,6.5c-1,2.2-2.1,4.4-3.3,6.5
					c-1,1.7-2.3,3.5-3.7,5.3c-1.4,1.8-3,3.3-4.8,4.6c-1.8,1.3-3.7,2.2-5.8,2.7c-2.1,0.5-4.3,0.4-6.6-0.4c-2.3-0.8-4.1-2.1-5.4-4.1
					C662.5,1132,661.8,1129.8,661.7,1127.4z"/>
				<path class="st3" d="M703.4,1138.9c-2.2,0.2-3.8,0-4.8-0.7c-0.4-0.3-0.8-0.7-1-1.3c-0.2-0.5-0.3-1.2-0.1-2.1
					c0.2-0.8,0.6-1.9,1.2-3.1c0.6-1.2,1.6-2.6,3-4.3h-2.5c-0.8-1.6-1.1-3-1.1-4.3c0-0.5,0.1-1.1,0.3-1.6c0.2-0.5,0.5-1,0.9-1.4
					c0.4-0.4,1-0.7,1.7-1c0.7-0.2,1.6-0.4,2.7-0.4h4.6l20.8-26.4h0.1l0.1-1.7c1.7-1,3.1-1.5,4.4-1.3c0.5,0,1,0.2,1.5,0.5
					c0.5,0.3,0.9,0.8,1.3,1.5c0.4,0.7,0.6,1.6,0.8,2.7c0.2,1.1,0.2,2.5,0.1,4.3l-2.1,37.9c-1.7,1.2-3.2,1.8-4.4,1.8
					c-0.5,0-1.1-0.1-1.6-0.4c-0.5-0.3-0.9-0.8-1.3-1.5c-0.4-0.7-0.6-1.7-0.8-2.8c-0.2-1.2-0.2-2.7-0.1-4.6l0.1-2.5
					c-0.4,0.4-1,0.6-1.7,0.9c-0.7,0.2-1.5,0.3-2.5,0.3h-10.7L703.4,1138.9z M719.1,1118.9h8.3c0,0,0,0.1,0.1,0.1
					c0,0,0.1,0.2,0.2,0.3l0.7-12.3L719.1,1118.9z"/>
				<path class="st3" d="M735.1,1134.2c0-0.5,0.1-1.1,0.3-1.6c0.2-0.5,0.5-1,0.9-1.4c0.4-0.4,1-0.7,1.7-1c0.7-0.2,1.7-0.4,2.8-0.4
					h2.5c-0.8-0.5-1.2-1.4-1.2-2.8c0-1.4,0.6-3.4,1.8-6l15.2-31.8c1.8-0.2,3.3-0.1,4.5,0.5c0.4,0.3,0.8,0.6,1.2,1.1
					c0.4,0.4,0.6,1,0.7,1.7c0.1,0.7,0.1,1.6-0.2,2.6c-0.2,1-0.7,2.3-1.4,3.8l-14.9,31h16.5c0.8,1.6,1.3,3,1.3,4.3
					c0,0.5-0.1,1.1-0.2,1.6c-0.2,0.5-0.5,1-0.9,1.4c-0.4,0.4-1.1,0.7-1.8,1c-0.8,0.2-1.8,0.4-3,0.4h-24.9
					C735.4,1136.9,735.1,1135.4,735.1,1134.2z"/>
				<path class="st3" d="M766.3,1138.5c-0.8-1.6-1.2-3-1.2-4.3c0-0.5,0.1-1.1,0.3-1.6c0.2-0.5,0.5-1,1-1.4c0.5-0.4,1.1-0.7,1.9-1
					c0.8-0.2,1.9-0.4,3.1-0.4h1.9c-0.8-0.5-1.2-1.3-1.3-2.5c-0.1-1.2,0.3-2.9,1.3-5.1L785,1098h-3.2c-0.8-1.6-1.3-3-1.2-4.3
					c0-0.5,0.1-1.1,0.3-1.6c0.2-0.5,0.5-1,1-1.4c0.5-0.4,1.1-0.7,1.9-1c0.8-0.2,1.9-0.4,3.1-0.4h27.3c0.9,1.6,1.4,3,1.5,4.3
					c0,0.5-0.1,1.1-0.3,1.6c-0.2,0.5-0.5,1-1,1.4c-0.5,0.4-1.2,0.7-2,1c-0.9,0.2-2,0.4-3.3,0.4h-16.7c0.3,0.7,0.4,1.5,0.4,2.5
					c-0.1,1-0.5,2.3-1.2,3.8l-3.1,6.4h12.4c0.4,1.6,0.6,3,0.7,4.3c0,1.1-0.2,2.1-0.6,2.9c-0.4,0.9-1.2,1.3-2.4,1.3H786
					c-0.1-0.2-0.2-0.5-0.2-0.7c-0.1-0.4-0.2-1-0.3-1.8l-6.5,13.3h19.6c0.9,1.6,1.4,3,1.5,4.3c0,0.5-0.1,1.1-0.3,1.6
					c-0.2,0.5-0.5,1-1,1.4c-0.5,0.4-1.1,0.7-2,1c-0.8,0.2-1.9,0.4-3.3,0.4H766.3z"/>
			</g>
		</g>
	</g>
</g>
<g>
	<path class="st0" d="M88.1,185c-3.9,0-7.6-2.1-9.6-5.5L52,134.2c-3.1-5.3-1.3-12.4,3.9-15.4l106.6-62.3c1.7-1,3.7-1.5,5.7-1.5
		c4.2,0,8,2.1,10,5.5l26.5,45.4c3,5.2,1,12.2-4.4,15.4L93.8,183.5C92.1,184.5,90.1,185,88.1,185z"/>
	<path class="st1" d="M168.3,58.4L168.3,58.4c2.9,0,5.6,1.5,6.9,3.8l26.5,45.4c2.1,3.5,0.6,8.4-3.1,10.6L92,180.5
		c-1.2,0.7-2.5,1.1-3.9,1.1c-2.7,0-5.2-1.4-6.5-3.7l-26.5-45.4c-2.1-3.7-0.9-8.6,2.7-10.7l106.6-62.3
		C165.5,58.8,166.9,58.4,168.3,58.4 M168.3,51.4c-2.6,0-5.1,0.6-7.5,2L54.2,115.7c-7,4.1-9.2,13.3-5.2,20.2l26.5,45.4
		c2.7,4.6,7.6,7.2,12.6,7.2c2.5,0,5.1-0.7,7.4-2l106.6-62.3c7-4.1,9.7-13.2,5.6-20.1l-26.5-45.4C178.6,54,173.5,51.4,168.3,51.4
		L168.3,51.4z"/>
</g>
<g>
	<g>
		<path class="st3" d="M139.7,135.7c-0.7,0-1.4-0.2-2-0.5l-31.3-15.6c-1.5-0.7-2.4-2.2-2.5-3.8s0.7-3.2,2.1-4l31.3-19.4
			c0.7-0.4,1.5-0.7,2.4-0.7c0.8,0,1.5,0.2,2.2,0.6c1.4,0.8,2.3,2.3,2.3,3.9l0,35c0,1.6-0.8,3-2.1,3.8
			C141.4,135.4,140.5,135.7,139.7,135.7z"/>
		<path class="st1" d="M139.7,96.2l0,35l-31.3-15.6L139.7,96.2 M139.7,87.2c-1.6,0-3.3,0.5-4.7,1.3l-31.3,19.4
			c-2.8,1.7-4.4,4.8-4.3,8.1c0.1,3.3,2.1,6.2,5,7.6l31.3,15.6c1.3,0.6,2.6,0.9,4,0.9c1.6,0,3.3-0.5,4.7-1.3c2.7-1.6,4.3-4.5,4.3-7.7
			l0-35c0-3.3-1.8-6.3-4.6-7.9C142.7,87.6,141.2,87.2,139.7,87.2L139.7,87.2z"/>
	</g>
</g>
<g id="video3locked_1_">
	
		<image style="overflow:visible;opacity:0.71;" width="273" height="308" xlink:href="65B077334BE17BC1.png"  transform="matrix(0.9656 0 0 0.9656 95.4447 142.8409)">
	</image>
	<g>
		<g>
			<path class="st1" d="M334.9,222.2c0-3.5-1.9-6.8-4.9-8.5l-109.8-63.3c-3-1.7-6.9-1.7-9.9,0l-109.7,63.4c-3,1.8-4.9,5-4.9,8.6
				l0,126.8c0,3.5,1.9,6.8,4.9,8.5l109.7,63.3c1.5,0.9,3.2,1.3,4.9,1.3c1.7,0,3.4-0.5,4.9-1.3L330,357.5c3-1.8,4.9-5,4.9-8.5
				L334.9,222.2z"/>
			<path class="st0" d="M215.4,426.6c-2.5,0-5-0.7-7.1-1.9L98.5,361.4c-4.4-2.5-7.1-7.2-7.1-12.3l0-126.8c0-5.1,2.7-9.8,7.1-12.3
				l109.7-63.4c4.3-2.5,9.9-2.5,14.2,0l109.8,63.3c4.4,2.5,7.1,7.2,7.1,12.3l0,126.8c0,5.1-2.7,9.8-7.1,12.3l-109.7,63.4
				C220.3,425.9,217.9,426.6,215.4,426.6z M215.3,153.4c-1,0-2,0.2-2.8,0.7l-109.7,63.4c-1.7,1-2.8,2.8-2.8,4.8l0,126.8
				c0,2,1.1,3.8,2.8,4.8l109.8,63.3c1.7,1,3.8,1,5.5,0l109.7-63.4c1.7-1,2.8-2.8,2.8-4.8l0-126.8c0-2-1.1-3.8-2.8-4.8l-109.8-63.3
				C217.2,153.6,216.3,153.4,215.3,153.4z"/>
		</g>
		<g>
			<path class="st4" d="M253.1,246.7c-0.9-8.3-3.9-15.6-8.6-20.9c-3.1-3.5-6.9-6.3-11.3-8.1c-4.8-2-10.4-3-16.6-3
				c-9.2,0-17.2,2.2-23.7,6.5c-5.3,3.5-9.7,8.4-12.7,14.5c-4.9,9.8-5.2,19.2-5.2,20.3v44.5c0,4,3,7.2,7,7.2s7-3.2,7-7.2v-44.4
				c0-0.2,0.5-7.1,3.9-13.8c1.9-3.8,4.7-6.8,7.9-8.9c4.1-2.7,9.5-4.1,15.8-4.1c7.7,0,13.3,2,17,6.2c6.8,7.7,5.3,20.5,5.2,20.6l0,0
				l0.1,0c0,0.3-0.1,0.7-0.1,1c0,4.1,3.2,7.5,7.2,7.5c4,0,7.2-3.3,7.2-7.5c0-0.1,0-0.3,0-0.4C253.4,254.6,253.5,251.1,253.1,246.7z"
				/>
			<path class="st4" d="M277,271.8c0-8-6.5-14.4-14.4-14.4h-96.1c-8,0-14.4,6.5-14.4,14.4V333c0,8,6.5,14.4,14.4,14.4h96.1
				c8,0,14.4-6.5,14.4-14.4V271.8z M229.8,330.4h-33.2l5.2-31.6c-3.2-3.2-5.2-7.8-5.2-12.6c0-9.8,7.9-17.8,17.7-17.8
				S232,276.3,232,286c0,5.3-2.3,10.4-6,13.6L229.8,330.4z"/>
		</g>
	</g>
</g>
<g id="video2locked_1_">
	
		<image style="overflow:visible;opacity:0.71;" width="273" height="308" xlink:href="65B077334BE17BC7.png"  transform="matrix(0.9764 0 0 0.9764 239.6239 360.2314)">
	</image>
	<g>
		<g>
			<path class="st1" d="M481.8,440.5c0-3.6-1.9-6.9-5-8.6l-111-64.1c-3-1.7-6.9-1.7-10,0l-110.9,64.1c-3.1,1.8-5,5.1-5,8.6l0,128.2
				c0,3.6,1.9,6.9,5,8.6l111,64.1c1.5,0.9,3.2,1.3,5,1.3c1.7,0,3.5-0.5,5-1.3l110.9-64.1c3.1-1.8,5-5.1,5-8.6L481.8,440.5z"/>
			<path class="st0" d="M360.9,647.2c-2.5,0-5-0.7-7.2-1.9l-111-64c-4.4-2.6-7.2-7.3-7.2-12.5l0-128.2c0-5.1,2.7-9.9,7.2-12.4
				l111-64.1c4.3-2.5,10-2.5,14.4,0L479,428c4.4,2.6,7.2,7.3,7.2,12.4l0,128.2c0,5.1-2.7,9.9-7.2,12.5l-110.9,64.1
				C365.9,646.5,363.4,647.2,360.9,647.2z M360.8,370.9c-1,0-2,0.3-2.8,0.7l-110.9,64.1c-1.7,1-2.8,2.9-2.8,4.8l0,128.2
				c0,2,1.1,3.8,2.8,4.8l111,64.1c1.7,1,3.9,1,5.6,0l110.9-64.1c1.7-1,2.8-2.8,2.8-4.8l0-128.2c0-2-1.1-3.8-2.8-4.8l-111-64.1
				C362.8,371.1,361.8,370.9,360.8,370.9z"/>
		</g>
		<g>
			<path class="st4" d="M399.1,459.7c-0.9-8.3-3.9-15.6-8.6-20.9c-3.1-3.5-6.9-6.3-11.3-8.1c-4.8-2-10.4-3-16.6-3
				c-9.2,0-17.2,2.2-23.7,6.5c-5.3,3.5-9.7,8.4-12.7,14.5c-4.9,9.8-5.2,19.2-5.2,20.3v44.5c0,4,3,7.2,7,7.2s7-3.2,7-7.2v-44.4
				c0-0.2,0.5-7.1,3.9-13.8c1.9-3.8,4.7-6.8,7.9-8.9c4.1-2.7,9.5-4.1,15.8-4.1c7.7,0,13.3,2,17,6.2c6.8,7.7,5.3,20.5,5.2,20.6l0,0
				l0.1,0c0,0.3-0.1,0.7-0.1,1c0,4.1,3.2,7.5,7.2,7.5c4,0,7.2-3.3,7.2-7.5c0-0.1,0-0.3,0-0.4C399.4,467.6,399.5,464.1,399.1,459.7z"
				/>
			<path class="st4" d="M423,484.8c0-8-6.5-14.4-14.4-14.4h-96.1c-8,0-14.4,6.5-14.4,14.4V546c0,8,6.5,14.4,14.4,14.4h96.1
				c8,0,14.4-6.5,14.4-14.4V484.8z M375.8,543.4h-33.2l5.2-31.6c-3.2-3.2-5.2-7.8-5.2-12.6c0-9.8,7.9-17.8,17.7-17.8
				S378,489.3,378,499c0,5.3-2.3,10.4-6,13.6L375.8,543.4z"/>
		</g>
	</g>
</g>
<g id="video1locked_1_">
	
		<image style="overflow:visible;opacity:0.71;" width="273" height="308" xlink:href="65B077334BE17BC0.png"  transform="matrix(1 0 0 1 378.7231 581.2314)">
	</image>
	<g>
		<g>
			<path class="st1" d="M626.7,663.4c0-3.6-2-7-5.1-8.9L508,589c-3.1-1.8-7.1-1.8-10.2,0l-113.6,65.7c-3.1,1.8-5.1,5.2-5.1,8.9
				l0,131.3c0,3.6,2,7,5.1,8.9l113.7,65.6c1.6,0.9,3.3,1.4,5.1,1.4c1.8,0,3.6-0.5,5.1-1.4l113.6-65.7c3.2-1.8,5.1-5.2,5.1-8.9
				L626.7,663.4z"/>
			<path class="st0" d="M502.9,875.1c-2.6,0-5.1-0.7-7.4-2l-113.7-65.6c-4.5-2.6-7.4-7.5-7.4-12.8l0-131.3c0-5.2,2.8-10.1,7.3-12.7
				l113.6-65.7c4.4-2.5,10.3-2.6,14.7,0l113.7,65.6c4.5,2.6,7.4,7.5,7.4,12.7l0,131.3c0,5.2-2.8,10.1-7.4,12.8l-113.6,65.7
				C508.1,874.4,505.5,875.1,502.9,875.1z M502.9,592.1c-1,0-2,0.3-2.9,0.7l-113.6,65.7c-1.8,1-2.9,2.9-2.9,5l0,131.3
				c0,2,1.1,3.9,2.9,5l113.7,65.6c1.7,1,4,1,5.7,0l113.6-65.7c1.8-1,2.9-2.9,2.9-5l0-131.3c0-2-1.1-3.9-2.9-5l-113.7-65.6
				C504.9,592.4,503.9,592.1,502.9,592.1z"/>
		</g>
		<g>
			<path class="st4" d="M544.1,689.7c-0.9-8.3-3.9-15.6-8.6-20.9c-3.1-3.5-6.9-6.3-11.3-8.1c-4.8-2-10.4-3-16.6-3
				c-9.2,0-17.2,2.2-23.7,6.5c-5.3,3.5-9.7,8.4-12.7,14.5c-4.9,9.8-5.2,19.2-5.2,20.3v44.5c0,4,3,7.2,7,7.2s7-3.2,7-7.2v-44.4
				c0-0.2,0.5-7.1,3.9-13.8c1.9-3.8,4.7-6.8,7.9-8.9c4.1-2.7,9.5-4.1,15.8-4.1c7.7,0,13.3,2,17,6.2c6.8,7.7,5.3,20.5,5.2,20.6l0,0
				l0.1,0c0,0.3-0.1,0.7-0.1,1c0,4.1,3.2,7.5,7.2,7.5c4,0,7.2-3.3,7.2-7.5c0-0.1,0-0.3,0-0.4C544.4,697.6,544.5,694.1,544.1,689.7z"
				/>
			<path class="st4" d="M568,714.8c0-8-6.5-14.4-14.4-14.4h-96.1c-8,0-14.4,6.5-14.4,14.4V776c0,8,6.5,14.4,14.4,14.4h96.1
				c8,0,14.4-6.5,14.4-14.4V714.8z M520.8,773.4h-33.2l5.2-31.6c-3.2-3.2-5.2-7.8-5.2-12.6c0-9.8,7.9-17.8,17.7-17.8
				S523,719.3,523,729c0,5.3-2.3,10.4-6,13.6L520.8,773.4z"/>
		</g>
	</g>
</g>
<g id="video3_1_">
	<g>
		<g id="GALERIA_JALE_2_">
			<g>
				<path class="st1" d="M215.5,422.3c-1,0-1.9-0.3-2.8-0.8L99.5,356.2c-1.7-1-2.8-2.8-2.8-4.8l0-130.8c0-2,1.1-3.8,2.8-4.8
					l113.2-65.4c0.9-0.5,1.8-0.8,2.8-0.8c1,0,1.9,0.3,2.8,0.8l113.2,65.4c1.7,1,2.8,2.8,2.8,4.8l0,130.8c0,2-1.1,3.8-2.8,4.8
					l-113.2,65.4C217.5,422.1,216.5,422.3,215.5,422.3z"/>
				<path class="st0" d="M215.5,426.9c-1.8,0-3.5-0.5-5.1-1.4L97.2,360.2c-3.1-1.8-5.1-5.2-5.1-8.8l0-130.8c0-3.6,1.9-7,5.1-8.8
					l113.2-65.4c3.1-1.8,7.1-1.8,10.2,0l113.2,65.4c3.1,1.8,5.1,5.2,5.1,8.8l0,130.8c0,3.6-1.9,7-5.1,8.8l-113.2,65.4
					C219.1,426.4,217.3,426.9,215.5,426.9z M215.4,154.2c-0.2,0-0.3,0.1-0.5,0.1l-113.2,65.4c-0.3,0.2-0.5,0.5-0.5,0.9l0,130.8
					c0,0.3,0.2,0.7,0.5,0.8L215,417.6c0.3,0.2,0.7,0.2,1,0l113.2-65.4c0.3-0.2,0.5-0.5,0.5-0.8l0-130.8c0-0.4-0.2-0.7-0.5-0.9
					l-113.2-65.4C215.8,154.2,215.6,154.2,215.4,154.2z"/>
			</g>
		</g>
	</g>
	<g>
		<path class="st0" d="M99.6,244.1l43.7-21.8l-1.5-12.3c0,0-3.1-6.7-1.5-9.7c1.5-2.9,1.6-2.9,1.6-2.9l-0.9-13.8
			c0,0-5.9-15,12.7-23.4c18.6-8.4,55.4-9.6,55.4-9.6l34.5,1.9h3.1c0,0,3.1-11.5,11.5-5.9c8.4,5.6,7,10.6,7,10.6s21.8,6.7,21.2,15.1
			c-0.6,8.4,0.9,15.8,0.9,15.8s-2.2,24.9-1.8,34.3c0.5,9.4,0.3,11.6-2.7,17.5c-3,5.9-3.5,1.9-3.5,1.9l11.8,5.3l27.3,9.5
			c0,0,1.7,16.2,1.7,28.3s-1.7,27.3-1.7,27.3s-11.8,15.8-27.6,25.4c-15.8,9.6-42.5,27-42.5,27s-13.5,4.7-22.7,7.4
			c-9.2,2.8-21.3,0-21.3,0l-21.1-3.4l-3.1-12.1l-5.3-2.8l-9,24.5l-5.1,9.4l-13.2-8.8l-4.6-2.8l8-25.3c0,0-3.7-5.4-8.1-4.2
			c-4.3,1.2-7.1-0.9-7.1-0.9s-5.2-6.5-4.9-10.2c0.3-3.7,0-8.1,0-8.1l-4.4-2.2l-22,10.4h-4.7L99.6,244.1z"/>
		<g>
			
				<image style="overflow:visible;" width="4320" height="6480" xlink:href="65B077334BE17BCE.png"  transform="matrix(4.959500e-02 0 0 4.959500e-02 105.5292 105.5264)">
			</image>
		</g>
		<g>
		</g>
	</g>
	<g>
		<g>
			
				<image style="overflow:visible;opacity:0.75;" width="442" height="372" xlink:href="65B077334BE17BCF.png"  transform="matrix(0.24 0 0 0.24 166.2778 314.877)">
			</image>
			<g>
				<path class="st5" d="M253,367.8c0,7.7-6.2,13.9-13.8,13.9c0,0-14.7,2.3-23.9,2.3c-9.2,0-24.1-2.3-24.1-2.3
					c-7.7,0-14.1-6.2-14.1-13.9v-27c0-7.7,6.4-13.9,14.1-13.9c0,0,15.7-2,24.1-2c8.4,0,23.9,2,23.9,2c7.7,0,13.9,6.2,13.9,13.9
					V367.8z"/>
			</g>
		</g>
		<path class="st6" d="M228.7,350.2l-19.2-11.3c-0.3-0.2-0.7-0.3-1.1-0.3c-0.4,0-1.3,0.1-1.7,0.3c-0.7,0.4-1.7,1.1-1.7,1.9v22.7
			c0,0.8,1,1.5,1.7,1.9c0.3,0.2,1,0.3,1.4,0.3c0.4,0,0.9-0.1,1.3-0.3l19.3-11.3c0.7-0.4,1.1-1.1,1.1-1.9
			C229.7,351.3,229.4,350.6,228.7,350.2z"/>
	</g>
</g>
<g id="video2_1_">
	<g id="VIDA_JALE_3_">
		<g>
			<path class="st1" d="M355.3,648.5c-1,0-2-0.3-2.9-0.8l-117-67.5c-1.8-1-2.9-2.9-2.9-5l0-135.1c0-2.1,1.1-4,2.9-5l117-67.6
				c0.9-0.5,1.9-0.8,2.9-0.8c1,0,2,0.3,2.9,0.8l117,67.5c1.8,1,2.9,2.9,2.9,5l0,135.1c0,2.1-1.1,4-2.9,5l-117,67.6
				C357.3,648.3,356.3,648.5,355.3,648.5z"/>
			<path class="st0" d="M355.3,653.3c-1.8,0-3.7-0.5-5.3-1.4l-117-67.5c-3.2-1.9-5.3-5.4-5.3-9.1l0-135.1c0-3.7,2-7.2,5.2-9.1
				l117-67.6c3.2-1.8,7.3-1.8,10.5,0l117,67.5c3.2,1.9,5.3,5.4,5.3,9.1l0,135.1c0,3.7-2,7.2-5.3,9.1l-117,67.6
				C358.9,652.8,357.1,653.3,355.3,653.3z M355.2,371.5c-0.2,0-0.4,0.1-0.5,0.1l-117,67.6c-0.3,0.2-0.5,0.5-0.5,0.9l0,135.1
				c0,0.4,0.2,0.7,0.5,0.9l117,67.5c0.3,0.2,0.7,0.2,1,0l117-67.6c0.3-0.2,0.5-0.5,0.5-0.9l0-135.1c0-0.4-0.2-0.7-0.5-0.9l-117-67.5
				C355.5,371.5,355.4,371.5,355.2,371.5z"/>
		</g>
		<g>
			<g>
				<g>
					
						<image style="overflow:visible;opacity:0.63;" width="992" height="656" xlink:href="65B077334BE17BC2.png"  transform="matrix(0.24 0 0 0.24 239.9129 398.1534)">
					</image>
					<g>
						<path class="st0" d="M460.8,454c-3-4.3-10.8-8.3-14.3-10c-3-1.8-23.6-14.2-33.1-18.8c-9-4.4-39.2-16-46.3-16.9
							c-0.7-0.1-1.4-0.1-2.1-0.1c-6.7,0-16.6,3.5-18.4,4.2c-2.2,0.8-22.1,7.9-26,9.7c-3.8,1.7-8.4,7.5-13.9,17.3
							c-2.8,2.5-11.5,10.5-14.4,13.1c-5.8,5.2-5.5,11-5.4,12.2l0.2,1.5l4.4,7.5l-36.8,11.4l0,0c-15,24.7,9,32.2,23.5,33.5
							c1.1,0.1-1-0.4,0,0c9,4,48.2,4.6,60.4,4.7l70.3,2.8l0,0c0.1,0,0.2-0.1,0.3-0.1c0.8-0.3,1.7-0.4,2.8-0.4c1.6,0,3.2,0.3,4.2,0.6
							c1.3,1.5,2.6,3.4,2.8,4.3c0.8,3.1,2.8,11.2,11.1,11.2c0.5,0,0.9,0,1.4-0.1c5-0.6,7.9-4.8,9.3-9.1c5.3-6.3,6.2-7.8,6.6-8.9
							c0.5-1.1,2.6-4.9,4.2-7.7c4-7.3,4.7-8.5,5-9.4c0.1-0.2,0.2-0.5,0.4-0.9c2.7-5.9,5.9-13.5,6.5-20
							C463.7,481.3,465.3,460.5,460.8,454z"/>
					</g>
				</g>
				<g>
					<g>
						<g>
							<path class="st7" d="M268.3,495.3c12.6-5.8,25.4-11.9,39.4-13.5c12.3-1.5,24.4,1.3,36.3,4.4c10.4,2.7,20.7,5.9,30.5,10.5
								c8.4,3.9,18.7,9.6,21.6,19.1c0.3-0.6,0.7-1.2,1-1.8c-7,2.5-14.1,0.8-21.1-0.9c-7-1.7-13.7-2.5-20.9-2.6
								c-12-0.3-24-0.7-36-0.8c-9.1,0-18.3,0-27.4-1.1c-8-0.9-19.7-3-22.6-11.8c-0.6-1.8-3.5-1-2.9,0.8c2.5,7.7,10.3,10.9,17.6,12.7
								c9.9,2.4,20.3,2.4,30.4,2.4c12.4,0,24.8,0.7,37.2,0.7c8.8,0,17,1,25.5,3c7,1.6,14.1,3,21.1,0.5c0.8-0.3,1.3-1,1-1.8
								c-2.8-9.2-11.5-15-19.6-19.2c-10.5-5.6-22.1-9.1-33.5-12.1c-12.5-3.3-25.1-6-38.1-4.7c-14.4,1.5-27.9,7.9-40.9,14
								C265,493.5,266.6,496.1,268.3,495.3L268.3,495.3z"/>
						</g>
					</g>
					<g>
						<g>
							<path class="st7" d="M270.6,500.5c16.7-2.1,34-1.2,49.6-8.7c3.9-1.9,2.2-8.9-2.3-8.4c-17.4,2.1-34.5,6-51.6,10.3
								c-4.1,1-4.5,7.9,0,8.7c22.5,4.1,45.3,3.2,67.9,0c5-0.7,3.8-9.2-1.2-8.8c-12.8,1-25.4-0.5-37.5,4.7c-3.5,1.5-2.6,7.7,1.1,8.2
								c13,1.9,26.3-0.4,39.3-1.4c7.3-0.6,14.6-0.9,21.9-0.5c5.7,0.3,12.6,1.1,17.3,4.8c1.8-2.4,3.6-4.7,5.5-7.1
								c-20.2-10.8-45-28.2-68.9-19.7c-5.4,1.9-3.1,10.6,2.4,8.7c21.3-7.6,44.1,9.2,62,18.8c4.3,2.3,9.6-3.8,5.5-7.1
								c-10.8-8.4-26-8-39-7.3c-14.2,0.7-29.4,4.2-43.5,2.1c0.4,2.7,0.7,5.5,1.1,8.2c10.3-4.4,22.1-2.6,33-3.4
								c-0.4-2.9-0.8-5.9-1.2-8.8c-20.8,2.9-42.3,3.8-63.1,0c0,2.9,0,5.8,0,8.7c16.2-4.1,32.5-7.9,49.2-10c-0.8-2.8-1.5-5.6-2.3-8.4
								c-13.9,6.7-30.1,5.6-45.1,7.5C264.9,492.3,264.8,501.3,270.6,500.5L270.6,500.5z"/>
						</g>
					</g>
					<g>
						<path class="st8" d="M300.9,477.5c0-7.5-5.2-16.5-0.5-22.6c3.8-4.2,11.3-5.2,14.6-10.8c2.3-3.3,1.9-6.1,3.3-8.9
							c6.6-13.2,32.4-16.9,45.5-18.8c12.7-1.9,23,5.2,34.3,9.4c14.6,5.2,28.6,10.8,41.8,18.3c8.5,5.2,16,10.3,17.4,20.7
							c1.9,11.3-0.9,23.5-5.2,33.9c-2.8,6.1-6.6,12.2-9.9,18.3c-1.4,3.8-4.7,15.5-8.4,16.9c-7.5,3.3-8-4.7-9.4-8.9
							c-3.3-7.5-5.2-7.5-12.7-8.5c-2.8-0.5-3.3,1.4-6.1,0c-2.8-1.4-6.1-8-9.9-10.4c-10.3-6.1-20.7-12.7-31.9-16.9
							c-19.2-6.6-40.4-6.1-60.1-10.8"/>
					</g>
					<g>
						<g>
							<path class="st9" d="M318.3,481.2c-2.4-2.8-4.8-5.4-5.8-9.1c-0.5-1.6-2.9-1.3-2.9,0.4c-0.1,5,2.4,9.1,6.2,12.2
								c1.1,0.9,3,0.1,2.5-1.5c-0.5-1.6-0.9-3.2-1.3-4.9c-0.4-1.6-3.1-1.3-2.9,0.4c0.4,3.5,2.1,5.4,5.5,6.3c0.6,0.2,1.4-0.1,1.7-0.7
								c0.9-1.6,1.3-2.9,1.5-4.8c0.1-0.5-0.3-1.1-0.7-1.3c-2.2-1-4.4-2.1-6.6-3.1c-1.4-0.6-3.2,1.2-1.8,2.4c3.3,2.8,6.6,5,10.8,6.2
								c1,0.3,1.8-0.5,1.9-1.4c0.3-3.7-0.3-7.4-0.4-11.1c-1,0.1-2,0.3-2.9,0.4c0.6,4.4,2.1,8.2,4.8,11.8c1,1.3,2.8-0.2,2.5-1.5
								c0-0.3,0-0.7,0-1c-0.9,0.1-1.8,0.2-2.7,0.4c4.4,5.7,10.2,6.2,16.8,7.8c1.3,0.3,2.7-1.5,1.5-2.5c-3.3-2.6-7.1-4.2-10.9-6
								c-0.5,0.9-1,1.7-1.5,2.6c1.8,0.9,3.7,1,5.7,1.5c0.7,0.2,1.7-0.2,1.8-1c0.7-3.6,0.1-7-0.4-10.6c-0.3-1.7-2.9-1.2-2.9,0.4
								c-0.3,6.3,1.4,13.1,6.2,17.5c0.9,0.8,2.7,0.3,2.6-1.1c-0.4-3.2-1.8-5.5-3.3-8.3c-0.7,0.7-1.4,1.4-2.1,2.1
								c1.3,0.7,1.9,1.2,2.9,2.2c1,1.1,2.9,0,2.5-1.5c0-0.1,0-0.1-0.1-0.2c-0.6-1.8-3.5-1.1-2.9,0.8c0,0.1,0,0.1,0.1,0.2
								c0.8-0.5,1.7-1,2.5-1.5c-1.1-1.1-2.1-1.9-3.5-2.7c-1.3-0.7-2.8,0.7-2.1,2.1c1.2,2.2,2.6,4.3,2.9,6.8c0.9-0.4,1.7-0.7,2.6-1.1
								c-4.3-3.9-5.6-9.8-5.3-15.4c-1,0.1-2,0.3-2.9,0.4c0.5,3.1,1,5.9,0.4,9c0.6-0.3,1.2-0.7,1.8-1c-1.6-0.4-3.4-0.4-4.9-1.2
								c-1.7-0.8-3.3,1.7-1.5,2.6c3.5,1.7,7.2,3.1,10.3,5.5c0.5-0.8,1-1.7,1.5-2.5c-5.5-1.4-11.3-1.5-15-6.4
								c-0.7-0.9-2.5-1.1-2.7,0.4c-0.2,1.1-0.2,1.5,0,2.6c0.8-0.5,1.7-1,2.5-1.5c-2.4-3.1-3.5-6.6-4-10.4c-0.2-1.7-3-1.3-2.9,0.4
								c0.1,3.7,0.7,7.4,0.4,11.1c0.6-0.5,1.3-1,1.9-1.4c-3.7-1-6.6-2.9-9.5-5.4c-0.6,0.8-1.2,1.6-1.8,2.4c2.1,0.9,6.6,1.7,4.8,5.1
								c0.6-0.2,1.1-0.5,1.7-0.7c-1.1-1.1-2.2-2.3-3.3-3.4c-1,0.1-2,0.3-2.9,0.4c0.4,1.6,0.8,3.3,1.3,4.9c0.8-0.5,1.7-1,2.5-1.5
								c-3.2-2.6-5.4-5.8-5.3-10c-1,0.1-2,0.3-2.9,0.4c1.2,4.2,3.8,7.2,6.6,10.4C317.4,484.8,319.5,482.7,318.3,481.2L318.3,481.2z"
								/>
						</g>
					</g>
					<g>
						<g>
							<path class="st9" d="M327.9,480c3.6,1.8,7.5,3.1,11.4,4.2c1.9,0.5,2.7-2.4,0.8-2.9c-3.7-1-7.3-2.2-10.7-3.9
								C327.7,476.6,326.2,479.2,327.9,480L327.9,480z"/>
						</g>
					</g>
					<g>
						<g>
							<path class="st9" d="M326,476.6c-0.4,0.1-0.5-0.1,0,0.2c0.4,0.3,0.8,0.7,1.2,1.1c1,1,1.8,2.1,2.7,3.1
								c-0.1-0.6-0.2-1.2-0.2-1.8c0.4-0.6,1.6-0.1,0.8-0.4c-0.4-0.2-0.8-0.3-1.3-0.3c-1.9-0.2-1.9,2.8,0,3c0.4,0,0.8,0.4,1.3,0.4
								c0.8,0,1.4-0.5,1.8-1.1c0.4-0.6,0.2-1.3-0.2-1.8c-1-1.3-2.1-2.6-3.3-3.7c-0.9-0.8-2.2-2-3.5-1.5
								C323.4,474.4,324.1,477.3,326,476.6L326,476.6z"/>
						</g>
					</g>
					<g>
						<g>
							<path class="st9" d="M310.6,475.9c-1.7,0.2-3.2,0.7-4.9,0.9c-1.5,0.1-2.1,2-0.8,2.8c4.8,3,10.7,3.7,16.2,4.2
								c1.9,0.2,1.9-2.8,0-3c-5-0.5-10.4-1.1-14.7-3.8c-0.3,0.9-0.5,1.9-0.8,2.8c1.7-0.2,3.2-0.7,4.9-0.9
								C312.5,478.7,312.5,475.7,310.6,475.9L310.6,475.9z"/>
						</g>
					</g>
					<g>
						<g>
							<path class="st9" d="M350,485.4c0.3-0.8,0.3-1.8,0.9-2.4c-0.9-0.4-1.7-0.7-2.6-1.1c0.1,3.4,1.9,6.1,5.1,7.2
								c1.8,0.7,2.6-2.2,0.8-2.9c-1.9-0.7-2.8-2.4-2.9-4.3c0-1.2-1.7-2.1-2.6-1.1c-1,1.1-1.3,2.4-1.7,3.8
								C346.5,486.4,349.4,487.2,350,485.4L350,485.4z"/>
						</g>
					</g>
					<g>
						<g>
							<path class="st9" d="M371.8,493c-5.4-3.7-10.7-7.5-17.5-7.3c-1.9,0.1-1.9,3.1,0,3c6.3-0.2,11.1,3.6,16,6.9
								C371.9,496.7,373.4,494.1,371.8,493L371.8,493z"/>
						</g>
					</g>
					<g>
						<g>
							<path class="st9" d="M402.4,508.8c-3.4-5.7-7.1-11.1-11.3-16.3c-0.4-0.5-1.3-0.6-1.8-0.2c-5.2,3.4-0.8,9.2,2.2,12.5
								c5.3,5.8,10.8,8.8,18.7,9.4c6.3,0.5,10.3,1.5,11.6,8.4c0.6,2.9,1.8,7,4,9.1c2,1.9,4.9,0.1,6.5-1.3c2.4-2.1,2-6.3,0.2-8.6
								c-0.7-1-1.9-1-2.6,0c-0.7,0.9-1.5,1.8-2.2,2.7c0.9,0.1,1.8,0.2,2.7,0.4c-1.4-10.3-9.7-12.2-18.8-11.7
								c-1.9,0.1-5.4,1.2-6.2-0.8c-1.9-4.7,4.2-2.5,5.1-2c1.5,0.9,2.7,2.1,4,3.2c5.3,4.4,10.1,9.6,11.2,16.6
								c0.2,1.1,1.8,1.5,2.5,0.7c1.4-1.6,2.7-3.7,0.6-5.3c-1-0.8-2.5-1.1-3.6-1.6c-2.4-1.1-3.6-4.3-4.8-6.4
								c-1.5-2.5-3.7-5.3-6.9-5.4c-4.1-0.2-9.9,4.9-11.4-1.4c-0.4-1.9-3.3-1.1-2.9,0.8c1.6,6.7,5.5,6.1,11,4.1c5.6-2,7.6,3.7,10,7.6
								c0.6,1,1.5,2.2,2.6,2.8c0.5,0.3,4.4,1.6,3.3,2.8c0.8,0.2,1.7,0.4,2.5,0.7c-1.5-9.2-8.6-15.5-15.6-20.9c-6.5-5-13.5,0-9.2,7.4
								c0.3,0.4,0.8,0.8,1.3,0.7c9-0.5,20.8-2.8,22.4,9.1c0.2,1.5,2.1,1.2,2.7,0.4c0.7-0.9,1.5-1.7,2.2-2.7c-0.9,0-1.7,0-2.6,0
								c0.2,0.3,0.4,0.5,0.6,0.8c1.2,2.9,0.1,4.4-3.3,4.6c-0.6-0.9-0.9-2.1-1.2-3.1c-1-2.6-1.1-5.8-2.4-8.3c-2.2-4.1-5.6-4.9-10-5.7
								c-5.8-1-10.5-0.9-15.3-4.7c-2-1.6-11.4-9.4-7.4-12c-0.6-0.1-1.2-0.2-1.8-0.2c4,5,7.6,10.2,10.8,15.7
								C400.7,512,403.3,510.5,402.4,508.8L402.4,508.8z"/>
						</g>
					</g>
					<g>
						<g>
							<path class="st9" d="M424.3,445.1c0,5.1,2.3,7.8,5.8,11.1c5,4.7,4.2,12.1,6.8,18.1c0.5,1.2,2,0.8,2.6,0c2.5-3.3,3.6-7,4.6-11
								c-1,0-1.9,0-2.9,0c0.8,4,0.9,8,1.3,12c0.1,1.6,1.9,2,2.8,0.8c2.6-3.5,4-7.4,5.5-11.5c-0.9,0.1-1.8,0.2-2.7,0.4
								c3.5,4.7,5.4,10.3,6,16.1c0.2,1.9,3,2,3,0c0-7.4,1.2-15.6-3.5-21.9c-2.6-3.5-6.6-5.1-10.4-7.1c-5.7-2.9-11.2-6.2-16.9-9.2
								c-0.8-0.4-2-0.1-2.2,0.9c-0.6,2.8,1.3,5.5,2.8,7.7c2.6,4,6.4,7.9,7.4,12.6c0.3,1.4,2.7,1.5,2.9,0c0.3-1.9,0.8-3.5,1.3-5.3
								c-0.9,0.1-1.8,0.2-2.7,0.4c0.7,1.6,1.7,3,2.7,4.4c0.8,1.2,2.8,0.8,2.8-0.8c0-0.7,0-1.5,0-2.2c0-1.7-2.5-2-2.9-0.4
								c-0.6,2.2-1.2,4.3-1.4,6.6c1,0,2,0,3,0c-0.1-6-1-11.7-3.1-17.3c-0.9,0.4-1.8,0.8-2.7,1.2c3.4,5.5,10.5,7.5,13.3,13.3
								c0.4-0.8,0.9-1.5,1.3-2.3c-4.1-0.3-6-4.6-8.3-7.4c-2-2.4-4.1-4.2-7.2-5c-0.9-0.2-2,0.4-1.9,1.4c0.3,3.6,3.3,5.5,6.2,7.1
								c3.4,1.9,11.3,4.3,7.1,9.2c0.8,0.6,1.6,1.2,2.4,1.8c1.3-2.5,2.7-4.6,5.2-6.1c-0.7-0.3-1.5-0.6-2.2-0.9c0.2,1.5,0.5,3,0.8,4.5
								c0.2,1.5,2.7,2.2,2.9,0.4c0.4-2.4,0.4-4.6,0-7c-0.3-1.9-3.2-1.1-2.9,0.8c0.4,1.8,0.4,3.6,0,5.4c1,0.1,2,0.3,2.9,0.4
								c-0.2-1.8-0.7-3.5-0.9-5.3c-0.2-1-1.4-1.4-2.2-0.9c-2.9,1.8-4.7,4.2-6.3,7.2c-0.8,1.5,1.2,3.2,2.4,1.8
								c2.8-3.3,3.2-6.7-0.3-9.6c-2.9-2.4-11.7-4.5-12.1-8.8c-0.6,0.5-1.3,1-1.9,1.4c7.3,1.8,8.2,11.9,16.3,12.5
								c1.2,0.1,1.7-1.3,1.3-2.3c-2.8-6-9.9-7.8-13.3-13.3c-0.9-1.4-3.4-0.5-2.7,1.2c2.1,5.3,2.9,10.8,3,16.5c0,2,2.8,1.9,3,0
								c0.2-2.1,0.7-3.9,1.3-5.8c-1-0.1-2-0.3-2.9-0.4c0,0.7,0,1.5,0,2.2c0.9-0.3,1.9-0.5,2.8-0.8c-1-1.4-1.9-2.8-2.7-4.4
								c-0.6-1.3-2.4-0.8-2.7,0.4c-0.5,1.8-1.1,3.5-1.3,5.3c1,0,1.9,0,2.9,0c-0.7-3.2-2.6-5.9-4.4-8.5c-1.5-2.2-6.4-7.3-5.8-10.2
								c-0.7,0.3-1.5,0.6-2.2,0.9c4.1,2.1,8.2,4.4,12.2,6.6c4.1,2.3,8.9,4.1,12.5,7.1c6.3,5.1,4.6,14.8,4.6,21.9c1,0,2,0,3,0
								c-0.6-6.4-2.6-12.5-6.4-17.6c-0.8-1.1-2.3-0.9-2.7,0.4c-1.4,3.8-2.7,7.5-5.2,10.7c0.9,0.3,1.9,0.5,2.8,0.8
								c-0.4-4.3-0.6-8.6-1.4-12.8c-0.3-1.5-2.5-1.4-2.9,0c-0.9,3.7-1.9,7.2-4.3,10.3c0.9,0,1.7,0,2.6,0c-2.3-5.2-1.9-11.1-5-16
								c-2.7-4.4-7.2-5.6-7.2-11.6C427.3,443.2,424.3,443.2,424.3,445.1L424.3,445.1z"/>
						</g>
					</g>
					<g>
						<g>
							<path class="st9" d="M326.7,430.5c-1.4,4.9-3.3,9.5-6,13.9c-0.9,1.4,0.8,2.6,2.1,2.1c9.3-4.3,15.2-12.5,20.4-21
								c0.8-1.2-0.8-2.9-2.1-2.1c-5,3.3-10.4,5.4-16,7.4c0.4,0.9,0.8,1.8,1.2,2.7c5.3-2.8,10.6-4.7,16.4-5.6
								c1.7-0.3,1.3-3.1-0.4-2.9c-4.8,0.3-8.9,3.2-13.7,3.1c0.4,0.9,0.7,1.7,1.1,2.6c5-5.3,13.9-4.1,20.6-4.4c-0.1-1-0.3-2-0.4-2.9
								c-8.4,3.4-16.7,6.6-22.8,13.7c-1.2,1.5,0.8,3.6,2.1,2.1c6.7-7.5,14.5-13.2,24.5-15.2c1.9-0.4,1.1-3.3-0.8-2.9
								c-10.5,2.1-18.8,8.1-25.8,15.9c0.7,0.7,1.4,1.4,2.1,2.1c5.7-6.7,13.4-9.7,21.4-12.9c1.5-0.6,1.4-3-0.4-2.9
								c-7.5,0.4-17-0.7-22.7,5.3c-0.9,0.9-0.3,2.5,1.1,2.6c4.9,0.1,8.9-2.8,13.7-3.1c-0.1-1-0.3-2-0.4-2.9c-6.1,1-11.7,3-17.1,5.9
								c-1.5,0.8-0.5,3.3,1.2,2.7c5.9-2.1,11.5-4.2,16.7-7.7c-0.7-0.7-1.4-1.4-2.1-2.1c-5,8.1-10.5,15.8-19.3,19.9
								c0.7,0.7,1.4,1.4,2.1,2.1c2.9-4.5,4.9-9.4,6.3-14.6C330.1,429.5,327.3,428.7,326.7,430.5L326.7,430.5z"/>
						</g>
					</g>
					<g>
						<g>
							<path class="st9" d="M309.6,449.7c-3.4,5.9-7,11.3-8.1,18.1c0.9-0.1,1.8-0.2,2.7-0.4c-0.9-1.6-2-3.1-2.9-4.7
								c-0.4-0.8,2.9-2.9,3.3-3.2c4.2-3.4,6.9-7.6,9.3-12.4c-0.9-0.4-1.8-0.8-2.7-1.2c-2,6.3-7.8,8.9-11.6,13.8
								c-4,5.2-1.5,10.6,2,15.3c0.8,1,2.4,1,2.7-0.4c1.1-3.7,0.6-7.4,1.3-11.1c0.2-0.9-0.2-1.5-1-1.8c-0.8-0.4-1.5-0.8-2.3-1.2
								c0.2,0.6,0.5,1.1,0.7,1.7c2.8-8.1,10.5-13.3,14.9-20.5c1-1.7-1.6-3.2-2.6-1.5c-4.5,7.5-12.3,12.8-15.2,21.2
								c-0.2,0.6,0.1,1.4,0.7,1.7c1.3,0.8,1.6,1,3,1.5c-0.3-0.6-0.7-1.2-1-1.8c-0.7,3.7-0.3,7.5-1.3,11.1c0.9-0.1,1.8-0.2,2.7-0.4
								c-2-2.7-4.4-5.8-3.6-9.3c0.5-2.3,2.7-4.1,4.3-5.6c3.9-3.5,7.5-6.8,9.2-11.9c0.5-1.6-2-2.7-2.7-1.2c-1.8,3.6-3.7,6.7-6.5,9.6
								c-1.8,1.9-4.1,3.2-5.9,5.1c-2.5,2.5,1.4,6.5,2.6,8.6c0.6,1,2.5,1,2.7-0.4c1-6.6,4.5-11.8,7.8-17.4
								C313.2,449.5,310.6,448,309.6,449.7L309.6,449.7z"/>
						</g>
					</g>
					<g id="frontal.psd_1_" class="st10">
						<g>
							<defs>
								<rect id="SVGID_3_" x="261" y="400.4" width="194" height="161"/>
							</defs>
							<clipPath id="SVGID_4_">
								<use xlink:href="#SVGID_3_"  style="overflow:visible;"/>
							</clipPath>
							<g style="clip-path:url(#SVGID_4_);">
								
									<image style="overflow:visible;" width="318" height="261" xlink:href="65B077334BE17BC5.png"  transform="matrix(0.6126 0 0 0.6161 260.7094 400.0655)">
								</image>
							</g>
						</g>
					</g>
				</g>
			</g>
		</g>
	</g>
	<g>
		<g>
			
				<image style="overflow:visible;opacity:0.75;" width="452" height="380" xlink:href="65B077334BE17BC6.png"  transform="matrix(0.24 0 0 0.24 306.224 532.8163)">
			</image>
			<g>
				<path class="st5" d="M396,587.1c0,7.9-6.6,14.4-14.6,14.4c0,0-15.3,2.4-24.8,2.4c-9.5,0-25-2.4-25-2.4
					c-7.9,0-14.6-6.4-14.6-14.4v-27.9c0-7.9,6.6-14.4,14.6-14.4c0,0,16.2-2,24.8-2c8.6,0,25,2,25,2c7.9,0,14.6,6.4,14.6,14.4V587.1z
					"/>
			</g>
		</g>
		<path class="st6" d="M370.3,569l-19.9-11.7c-0.4-0.2-0.8-0.3-1.2-0.3c-0.4,0-1.3,0.1-1.6,0.3c-0.7,0.4-1.7,1.2-1.7,2v23.5
			c0,0.8,0.9,1.6,1.7,2c0.4,0.2,1,0.3,1.4,0.3c0.4,0,0.9-0.1,1.3-0.3l19.9-11.7c0.7-0.4,1.2-1.2,1.2-2
			C371.4,570.1,371,569.4,370.3,569z"/>
	</g>
</g>
<g id="video1_2_">
	<g id="VIDA_JALE">
		<g>
			<path class="st1" d="M503.3,868.5c-1,0-2-0.3-2.9-0.8l-117-67.5c-1.8-1-2.9-2.9-2.9-5l0-135.1c0-2.1,1.1-4,2.9-5l117-67.6
				c0.9-0.5,1.9-0.8,2.9-0.8c1,0,2,0.3,2.9,0.8l117,67.5c1.8,1,2.9,2.9,2.9,5l0,135.1c0,2.1-1.1,4-2.9,5l-117,67.6
				C505.3,868.3,504.3,868.5,503.3,868.5z"/>
			<path class="st0" d="M503.3,873.3c-1.8,0-3.7-0.5-5.3-1.4l-117-67.5c-3.2-1.9-5.3-5.4-5.3-9.1l0-135.1c0-3.7,2-7.2,5.2-9.1
				l117-67.6c3.2-1.8,7.3-1.8,10.5,0l117,67.5c3.2,1.9,5.3,5.4,5.3,9.1l0,135.1c0,3.7-2,7.2-5.3,9.1l-117,67.6
				C506.9,872.8,505.1,873.3,503.3,873.3z M503.2,591.5c-0.2,0-0.4,0.1-0.5,0.1l-117,67.6c-0.3,0.2-0.5,0.5-0.5,0.9l0,135.1
				c0,0.4,0.2,0.7,0.5,0.9l117,67.5c0.3,0.2,0.7,0.2,1,0l117-67.6c0.3-0.2,0.5-0.5,0.5-0.9l0-135.1c0-0.4-0.2-0.7-0.5-0.9l-117-67.5
				C503.5,591.5,503.4,591.5,503.2,591.5z"/>
		</g>
		<g>
			<g>
				<g>
					
						<image style="overflow:visible;opacity:0.63;" width="992" height="656" xlink:href="B2813A69F796E330.png"  transform="matrix(0.24 0 0 0.24 387.9129 618.1533)">
					</image>
					<g>
						<path class="st0" d="M608.8,674c-3-4.3-10.8-8.3-14.3-10c-3-1.8-23.6-14.2-33.1-18.8c-9-4.4-39.2-16-46.3-16.9
							c-0.7-0.1-1.4-0.1-2.1-0.1c-6.7,0-16.6,3.5-18.4,4.2c-2.2,0.8-22.1,7.9-26,9.7c-3.8,1.7-8.4,7.5-13.9,17.3
							c-2.8,2.5-11.5,10.5-14.4,13.1c-5.8,5.2-5.5,11-5.4,12.2l0.2,1.5l4.4,7.5l-36.8,11.4l0,0c-15,24.7,9,32.2,23.5,33.5
							c1.1,0.1-1-0.4,0,0c9,4,48.2,4.6,60.4,4.7l70.3,2.8l0,0c0.1,0,0.2-0.1,0.3-0.1c0.8-0.3,1.7-0.4,2.8-0.4c1.6,0,3.2,0.3,4.2,0.6
							c1.3,1.5,2.6,3.4,2.8,4.3c0.8,3.1,2.8,11.2,11.1,11.2c0.5,0,0.9,0,1.4-0.1c5-0.6,7.9-4.8,9.3-9.1c5.3-6.3,6.2-7.8,6.6-8.9
							c0.5-1.1,2.6-4.9,4.2-7.7c4-7.3,4.7-8.5,5-9.4c0.1-0.2,0.2-0.5,0.4-0.9c2.7-5.9,5.9-13.5,6.5-20
							C611.7,701.3,613.3,680.5,608.8,674z"/>
					</g>
				</g>
				<g>
					<g>
						<g>
							<path class="st7" d="M416.3,715.3c12.6-5.8,25.4-11.9,39.4-13.5c12.3-1.5,24.4,1.3,36.3,4.4c10.4,2.7,20.7,5.9,30.5,10.5
								c8.4,3.9,18.7,9.6,21.6,19.1c0.3-0.6,0.7-1.2,1-1.8c-7,2.5-14.1,0.8-21.1-0.9c-7-1.7-13.7-2.5-20.9-2.6
								c-12-0.3-24-0.7-36-0.8c-9.1,0-18.3,0-27.4-1.1c-8-0.9-19.7-3-22.6-11.8c-0.6-1.8-3.5-1-2.9,0.8c2.5,7.7,10.3,10.9,17.6,12.7
								c9.9,2.4,20.3,2.4,30.4,2.4c12.4,0,24.8,0.7,37.2,0.7c8.8,0,17,1,25.5,3c7,1.6,14.1,3,21.1,0.5c0.8-0.3,1.3-1,1-1.8
								c-2.8-9.2-11.5-15-19.6-19.2c-10.5-5.6-22.1-9.1-33.5-12.1c-12.5-3.3-25.1-6-38.1-4.7c-14.4,1.5-27.9,7.9-40.9,14
								C413,713.5,414.6,716.1,416.3,715.3L416.3,715.3z"/>
						</g>
					</g>
					<g>
						<g>
							<path class="st7" d="M418.6,720.5c16.7-2.1,34-1.2,49.6-8.7c3.9-1.9,2.2-8.9-2.3-8.4c-17.4,2.1-34.5,6-51.6,10.3
								c-4.1,1-4.5,7.9,0,8.7c22.5,4.1,45.3,3.2,67.9,0c5-0.7,3.8-9.2-1.2-8.8c-12.8,1-25.4-0.5-37.5,4.7c-3.5,1.5-2.6,7.7,1.1,8.2
								c13,1.9,26.3-0.4,39.3-1.4c7.3-0.6,14.6-0.9,21.9-0.5c5.7,0.3,12.6,1.1,17.3,4.8c1.8-2.4,3.6-4.7,5.5-7.1
								c-20.2-10.8-45-28.2-68.9-19.7c-5.4,1.9-3.1,10.6,2.4,8.7c21.3-7.6,44.1,9.2,62,18.8c4.3,2.3,9.6-3.8,5.5-7.1
								c-10.8-8.4-26-8-39-7.3c-14.2,0.7-29.4,4.2-43.5,2.1c0.4,2.7,0.7,5.5,1.1,8.2c10.3-4.4,22.1-2.6,33-3.4
								c-0.4-2.9-0.8-5.9-1.2-8.8c-20.8,2.9-42.3,3.8-63.1,0c0,2.9,0,5.8,0,8.7c16.2-4.1,32.5-7.9,49.2-10c-0.8-2.8-1.5-5.6-2.3-8.4
								c-13.9,6.7-30.1,5.6-45.1,7.5C412.9,712.3,412.8,721.3,418.6,720.5L418.6,720.5z"/>
						</g>
					</g>
					<g>
						<path class="st8" d="M448.9,697.5c0-7.5-5.2-16.5-0.5-22.6c3.8-4.2,11.3-5.2,14.6-10.8c2.3-3.3,1.9-6.1,3.3-8.9
							c6.6-13.2,32.4-16.9,45.5-18.8c12.7-1.9,23,5.2,34.3,9.4c14.6,5.2,28.6,10.8,41.8,18.3c8.5,5.2,16,10.3,17.4,20.7
							c1.9,11.3-0.9,23.5-5.2,33.9c-2.8,6.1-6.6,12.2-9.9,18.3c-1.4,3.8-4.7,15.5-8.4,16.9c-7.5,3.3-8-4.7-9.4-8.9
							c-3.3-7.5-5.2-7.5-12.7-8.5c-2.8-0.5-3.3,1.4-6.1,0c-2.8-1.4-6.1-8-9.9-10.4c-10.3-6.1-20.7-12.7-31.9-16.9
							c-19.2-6.6-40.4-6.1-60.1-10.8"/>
					</g>
					<g>
						<g>
							<path class="st9" d="M466.3,701.2c-2.4-2.8-4.8-5.4-5.8-9.1c-0.5-1.6-2.9-1.3-2.9,0.4c-0.1,5,2.4,9.1,6.2,12.2
								c1.1,0.9,3,0.1,2.5-1.5c-0.5-1.6-0.9-3.2-1.3-4.9c-0.4-1.6-3.1-1.3-2.9,0.4c0.4,3.5,2.1,5.4,5.5,6.3c0.6,0.2,1.4-0.1,1.7-0.7
								c0.9-1.6,1.3-2.9,1.5-4.8c0.1-0.5-0.3-1.1-0.7-1.3c-2.2-1-4.4-2.1-6.6-3.1c-1.4-0.6-3.2,1.2-1.8,2.4c3.3,2.8,6.6,5,10.8,6.2
								c1,0.3,1.8-0.5,1.9-1.4c0.3-3.7-0.3-7.4-0.4-11.1c-1,0.1-2,0.3-2.9,0.4c0.6,4.4,2.1,8.2,4.8,11.8c1,1.3,2.8-0.2,2.5-1.5
								c0-0.3,0-0.7,0-1c-0.9,0.1-1.8,0.2-2.7,0.4c4.4,5.7,10.2,6.2,16.8,7.8c1.3,0.3,2.7-1.5,1.5-2.5c-3.3-2.6-7.1-4.2-10.9-6
								c-0.5,0.9-1,1.7-1.5,2.6c1.8,0.9,3.7,1,5.7,1.5c0.7,0.2,1.7-0.2,1.8-1c0.7-3.6,0.1-7-0.4-10.6c-0.3-1.7-2.9-1.2-2.9,0.4
								c-0.3,6.3,1.4,13.1,6.2,17.5c0.9,0.8,2.7,0.3,2.6-1.1c-0.4-3.2-1.8-5.5-3.3-8.3c-0.7,0.7-1.4,1.4-2.1,2.1
								c1.3,0.7,1.9,1.2,2.9,2.2c1,1.1,2.9,0,2.5-1.5c0-0.1,0-0.1-0.1-0.2c-0.6-1.8-3.5-1.1-2.9,0.8c0,0.1,0,0.1,0.1,0.2
								c0.8-0.5,1.7-1,2.5-1.5c-1.1-1.1-2.1-1.9-3.5-2.7c-1.3-0.7-2.8,0.7-2.1,2.1c1.2,2.2,2.6,4.3,2.9,6.8c0.9-0.4,1.7-0.7,2.6-1.1
								c-4.3-3.9-5.6-9.8-5.3-15.4c-1,0.1-2,0.3-2.9,0.4c0.5,3.1,1,5.9,0.4,9c0.6-0.3,1.2-0.7,1.8-1c-1.6-0.4-3.4-0.4-4.9-1.2
								c-1.7-0.8-3.3,1.7-1.5,2.6c3.5,1.7,7.2,3.1,10.3,5.5c0.5-0.8,1-1.7,1.5-2.5c-5.5-1.4-11.3-1.5-15-6.4
								c-0.7-0.9-2.5-1.1-2.7,0.4c-0.2,1.1-0.2,1.5,0,2.6c0.8-0.5,1.7-1,2.5-1.5c-2.4-3.1-3.5-6.6-4-10.4c-0.2-1.7-3-1.3-2.9,0.4
								c0.1,3.7,0.7,7.4,0.4,11.1c0.6-0.5,1.3-1,1.9-1.4c-3.7-1-6.6-2.9-9.5-5.4c-0.6,0.8-1.2,1.6-1.8,2.4c2.1,0.9,6.6,1.7,4.8,5.1
								c0.6-0.2,1.1-0.5,1.7-0.7c-1.1-1.1-2.2-2.3-3.3-3.4c-1,0.1-2,0.3-2.9,0.4c0.4,1.6,0.8,3.3,1.3,4.9c0.8-0.5,1.7-1,2.5-1.5
								c-3.2-2.6-5.4-5.8-5.3-10c-1,0.1-2,0.3-2.9,0.4c1.2,4.2,3.8,7.2,6.6,10.4C465.4,704.8,467.5,702.7,466.3,701.2L466.3,701.2z"
								/>
						</g>
					</g>
					<g>
						<g>
							<path class="st9" d="M475.9,700c3.6,1.8,7.5,3.1,11.4,4.2c1.9,0.5,2.7-2.4,0.8-2.9c-3.7-1-7.3-2.2-10.7-3.9
								C475.7,696.6,474.2,699.2,475.9,700L475.9,700z"/>
						</g>
					</g>
					<g>
						<g>
							<path class="st9" d="M474,696.6c-0.4,0.1-0.5-0.1,0,0.2c0.4,0.3,0.8,0.7,1.2,1.1c1,1,1.8,2.1,2.7,3.1
								c-0.1-0.6-0.2-1.2-0.2-1.8c0.4-0.6,1.6-0.1,0.8-0.4c-0.4-0.2-0.8-0.3-1.3-0.3c-1.9-0.2-1.9,2.8,0,3c0.4,0,0.8,0.4,1.3,0.4
								c0.8,0,1.4-0.5,1.8-1.1c0.4-0.6,0.2-1.3-0.2-1.8c-1-1.3-2.1-2.6-3.3-3.7c-0.9-0.8-2.2-2-3.5-1.5
								C471.4,694.4,472.1,697.3,474,696.6L474,696.6z"/>
						</g>
					</g>
					<g>
						<g>
							<path class="st9" d="M458.6,695.9c-1.7,0.2-3.2,0.7-4.9,0.9c-1.5,0.1-2.1,2-0.8,2.8c4.8,3,10.7,3.7,16.2,4.2
								c1.9,0.2,1.9-2.8,0-3c-5-0.5-10.4-1.1-14.7-3.8c-0.3,0.9-0.5,1.9-0.8,2.8c1.7-0.2,3.2-0.7,4.9-0.9
								C460.5,698.7,460.5,695.7,458.6,695.9L458.6,695.9z"/>
						</g>
					</g>
					<g>
						<g>
							<path class="st9" d="M498,705.4c0.3-0.8,0.3-1.8,0.9-2.4c-0.9-0.4-1.7-0.7-2.6-1.1c0.1,3.4,1.9,6.1,5.1,7.2
								c1.8,0.7,2.6-2.2,0.8-2.9c-1.9-0.7-2.8-2.4-2.9-4.3c0-1.2-1.7-2.1-2.6-1.1c-1,1.1-1.3,2.4-1.7,3.8
								C494.5,706.4,497.4,707.2,498,705.4L498,705.4z"/>
						</g>
					</g>
					<g>
						<g>
							<path class="st9" d="M519.8,713c-5.4-3.7-10.7-7.5-17.5-7.3c-1.9,0.1-1.9,3.1,0,3c6.3-0.2,11.1,3.6,16,6.9
								C519.9,716.7,521.4,714.1,519.8,713L519.8,713z"/>
						</g>
					</g>
					<g>
						<g>
							<path class="st9" d="M550.4,728.8c-3.4-5.7-7.1-11.1-11.3-16.3c-0.4-0.5-1.3-0.6-1.8-0.2c-5.2,3.4-0.8,9.2,2.2,12.5
								c5.3,5.8,10.8,8.8,18.7,9.4c6.3,0.5,10.3,1.5,11.6,8.4c0.6,2.9,1.8,7,4,9.1c2,1.9,4.9,0.1,6.5-1.3c2.4-2.1,2-6.3,0.2-8.6
								c-0.7-1-1.9-1-2.6,0c-0.7,0.9-1.5,1.8-2.2,2.7c0.9,0.1,1.8,0.2,2.7,0.4c-1.4-10.3-9.7-12.2-18.8-11.7
								c-1.9,0.1-5.4,1.2-6.2-0.8c-1.9-4.7,4.2-2.5,5.1-2c1.5,0.9,2.7,2.1,4,3.2c5.3,4.4,10.1,9.6,11.2,16.6
								c0.2,1.1,1.8,1.5,2.5,0.7c1.4-1.6,2.7-3.7,0.6-5.3c-1-0.8-2.5-1.1-3.6-1.6c-2.4-1.1-3.6-4.3-4.8-6.4
								c-1.5-2.5-3.7-5.3-6.9-5.4c-4.1-0.2-9.9,4.9-11.4-1.4c-0.4-1.9-3.3-1.1-2.9,0.8c1.6,6.7,5.5,6.1,11,4.1c5.6-2,7.6,3.7,10,7.6
								c0.6,1,1.5,2.2,2.6,2.8c0.5,0.3,4.4,1.6,3.3,2.8c0.8,0.2,1.7,0.4,2.5,0.7c-1.5-9.2-8.6-15.5-15.6-20.9c-6.5-5-13.5,0-9.2,7.4
								c0.3,0.4,0.8,0.8,1.3,0.7c9-0.5,20.8-2.8,22.4,9.1c0.2,1.5,2.1,1.2,2.7,0.4c0.7-0.9,1.5-1.7,2.2-2.7c-0.9,0-1.7,0-2.6,0
								c0.2,0.3,0.4,0.5,0.6,0.8c1.2,2.9,0.1,4.4-3.3,4.6c-0.6-0.9-0.9-2.1-1.2-3.1c-1-2.6-1.1-5.8-2.4-8.3c-2.2-4.1-5.6-4.9-10-5.7
								c-5.8-1-10.5-0.9-15.3-4.7c-2-1.6-11.4-9.4-7.4-12c-0.6-0.1-1.2-0.2-1.8-0.2c4,5,7.6,10.2,10.8,15.7
								C548.7,732,551.3,730.5,550.4,728.8L550.4,728.8z"/>
						</g>
					</g>
					<g>
						<g>
							<path class="st9" d="M572.3,665.1c0,5.1,2.3,7.8,5.8,11.1c5,4.7,4.2,12.1,6.8,18.1c0.5,1.2,2,0.8,2.6,0c2.5-3.3,3.6-7,4.6-11
								c-1,0-1.9,0-2.9,0c0.8,4,0.9,8,1.3,12c0.1,1.6,1.9,2,2.8,0.8c2.6-3.5,4-7.4,5.5-11.5c-0.9,0.1-1.8,0.2-2.7,0.4
								c3.5,4.7,5.4,10.3,6,16.1c0.2,1.9,3,2,3,0c0-7.4,1.2-15.6-3.5-21.9c-2.6-3.5-6.6-5.1-10.4-7.1c-5.7-2.9-11.2-6.2-16.9-9.2
								c-0.8-0.4-2-0.1-2.2,0.9c-0.6,2.8,1.3,5.5,2.8,7.7c2.6,4,6.4,7.9,7.4,12.6c0.3,1.4,2.7,1.5,2.9,0c0.3-1.9,0.8-3.5,1.3-5.3
								c-0.9,0.1-1.8,0.2-2.7,0.4c0.7,1.6,1.7,3,2.7,4.4c0.8,1.2,2.8,0.8,2.8-0.8c0-0.7,0-1.5,0-2.2c0-1.7-2.5-2-2.9-0.4
								c-0.6,2.2-1.2,4.3-1.4,6.6c1,0,2,0,3,0c-0.1-6-1-11.7-3.1-17.3c-0.9,0.4-1.8,0.8-2.7,1.2c3.4,5.5,10.5,7.5,13.3,13.3
								c0.4-0.8,0.9-1.5,1.3-2.3c-4.1-0.3-6-4.6-8.3-7.4c-2-2.4-4.1-4.2-7.2-5c-0.9-0.2-2,0.4-1.9,1.4c0.3,3.6,3.3,5.5,6.2,7.1
								c3.4,1.9,11.3,4.3,7.1,9.2c0.8,0.6,1.6,1.2,2.4,1.8c1.3-2.5,2.7-4.6,5.2-6.1c-0.7-0.3-1.5-0.6-2.2-0.9c0.2,1.5,0.5,3,0.8,4.5
								c0.2,1.5,2.7,2.2,2.9,0.4c0.4-2.4,0.4-4.6,0-7c-0.3-1.9-3.2-1.1-2.9,0.8c0.4,1.8,0.4,3.6,0,5.4c1,0.1,2,0.3,2.9,0.4
								c-0.2-1.8-0.7-3.5-0.9-5.3c-0.2-1-1.4-1.4-2.2-0.9c-2.9,1.8-4.7,4.2-6.3,7.2c-0.8,1.5,1.2,3.2,2.4,1.8
								c2.8-3.3,3.2-6.7-0.3-9.6c-2.9-2.4-11.7-4.5-12.1-8.8c-0.6,0.5-1.3,1-1.9,1.4c7.3,1.8,8.2,11.9,16.3,12.5
								c1.2,0.1,1.7-1.3,1.3-2.3c-2.8-6-9.9-7.8-13.3-13.3c-0.9-1.4-3.4-0.5-2.7,1.2c2.1,5.3,2.9,10.8,3,16.5c0,2,2.8,1.9,3,0
								c0.2-2.1,0.7-3.9,1.3-5.8c-1-0.1-2-0.3-2.9-0.4c0,0.7,0,1.5,0,2.2c0.9-0.3,1.9-0.5,2.8-0.8c-1-1.4-1.9-2.8-2.7-4.4
								c-0.6-1.3-2.4-0.8-2.7,0.4c-0.5,1.8-1.1,3.5-1.3,5.3c1,0,1.9,0,2.9,0c-0.7-3.2-2.6-5.9-4.4-8.5c-1.5-2.2-6.4-7.3-5.8-10.2
								c-0.7,0.3-1.5,0.6-2.2,0.9c4.1,2.1,8.2,4.4,12.2,6.6c4.1,2.3,8.9,4.1,12.5,7.1c6.3,5.1,4.6,14.8,4.6,21.9c1,0,2,0,3,0
								c-0.6-6.4-2.6-12.5-6.4-17.6c-0.8-1.1-2.3-0.9-2.7,0.4c-1.4,3.8-2.7,7.5-5.2,10.7c0.9,0.3,1.9,0.5,2.8,0.8
								c-0.4-4.3-0.6-8.6-1.4-12.8c-0.3-1.5-2.5-1.4-2.9,0c-0.9,3.7-1.9,7.2-4.3,10.3c0.9,0,1.7,0,2.6,0c-2.3-5.2-1.9-11.1-5-16
								c-2.7-4.4-7.2-5.6-7.2-11.6C575.3,663.2,572.3,663.2,572.3,665.1L572.3,665.1z"/>
						</g>
					</g>
					<g>
						<g>
							<path class="st9" d="M474.7,650.5c-1.4,4.9-3.3,9.5-6,13.9c-0.9,1.4,0.8,2.6,2.1,2.1c9.3-4.3,15.2-12.5,20.4-21
								c0.8-1.2-0.8-2.9-2.1-2.1c-5,3.3-10.4,5.4-16,7.4c0.4,0.9,0.8,1.8,1.2,2.7c5.3-2.8,10.6-4.7,16.4-5.6
								c1.7-0.3,1.3-3.1-0.4-2.9c-4.8,0.3-8.9,3.2-13.7,3.1c0.4,0.9,0.7,1.7,1.1,2.6c5-5.3,13.9-4.1,20.6-4.4c-0.1-1-0.3-2-0.4-2.9
								c-8.4,3.4-16.7,6.6-22.8,13.7c-1.2,1.5,0.8,3.6,2.1,2.1c6.7-7.5,14.5-13.2,24.5-15.2c1.9-0.4,1.1-3.3-0.8-2.9
								c-10.5,2.1-18.8,8.1-25.8,15.9c0.7,0.7,1.4,1.4,2.1,2.1c5.7-6.7,13.4-9.7,21.4-12.9c1.5-0.6,1.4-3-0.4-2.9
								c-7.5,0.4-17-0.7-22.7,5.3c-0.9,0.9-0.3,2.5,1.1,2.6c4.9,0.1,8.9-2.8,13.7-3.1c-0.1-1-0.3-2-0.4-2.9c-6.1,1-11.7,3-17.1,5.9
								c-1.5,0.8-0.5,3.3,1.2,2.7c5.9-2.1,11.5-4.2,16.7-7.7c-0.7-0.7-1.4-1.4-2.1-2.1c-5,8.1-10.5,15.8-19.3,19.9
								c0.7,0.7,1.4,1.4,2.1,2.1c2.9-4.5,4.9-9.4,6.3-14.6C478.1,649.5,475.3,648.7,474.7,650.5L474.7,650.5z"/>
						</g>
					</g>
					<g>
						<g>
							<path class="st9" d="M457.6,669.7c-3.4,5.9-7,11.3-8.1,18.1c0.9-0.1,1.8-0.2,2.7-0.4c-0.9-1.6-2-3.1-2.9-4.7
								c-0.4-0.8,2.9-2.9,3.3-3.2c4.2-3.4,6.9-7.6,9.3-12.4c-0.9-0.4-1.8-0.8-2.7-1.2c-2,6.3-7.8,8.9-11.6,13.8
								c-4,5.2-1.5,10.6,2,15.3c0.8,1,2.4,1,2.7-0.4c1.1-3.7,0.6-7.4,1.3-11.1c0.2-0.9-0.2-1.5-1-1.8c-0.8-0.4-1.5-0.8-2.3-1.2
								c0.2,0.6,0.5,1.1,0.7,1.7c2.8-8.1,10.5-13.3,14.9-20.5c1-1.7-1.6-3.2-2.6-1.5c-4.5,7.5-12.3,12.8-15.2,21.2
								c-0.2,0.6,0.1,1.4,0.7,1.7c1.3,0.8,1.6,1,3,1.5c-0.3-0.6-0.7-1.2-1-1.8c-0.7,3.7-0.3,7.5-1.3,11.1c0.9-0.1,1.8-0.2,2.7-0.4
								c-2-2.7-4.4-5.8-3.6-9.3c0.5-2.3,2.7-4.1,4.3-5.6c3.9-3.5,7.5-6.8,9.2-11.9c0.5-1.6-2-2.7-2.7-1.2c-1.8,3.6-3.7,6.7-6.5,9.6
								c-1.8,1.9-4.1,3.2-5.9,5.1c-2.5,2.5,1.4,6.5,2.6,8.6c0.6,1,2.5,1,2.7-0.4c1-6.6,4.5-11.8,7.8-17.4
								C461.2,669.5,458.6,668,457.6,669.7L457.6,669.7z"/>
						</g>
					</g>
					<g id="frontal.psd_2_" class="st10">
						<g>
							<defs>
								<rect id="SVGID_5_" x="409" y="620.4" width="194" height="161"/>
							</defs>
							<clipPath id="SVGID_6_">
								<use xlink:href="#SVGID_5_"  style="overflow:visible;"/>
							</clipPath>
							<g style="clip-path:url(#SVGID_6_);">
								
									<image style="overflow:visible;" width="318" height="261" xlink:href="B2813A69F796E337.png"  transform="matrix(0.6126 0 0 0.6161 408.7094 620.0654)">
								</image>
							</g>
						</g>
					</g>
				</g>
			</g>
		</g>
	</g>
	<g>
		<g>
			
				<image style="overflow:visible;opacity:0.75;" width="452" height="380" xlink:href="B2813A69F796E331.png"  transform="matrix(0.24 0 0 0.24 454.224 752.8163)">
			</image>
			<g>
				<path class="st5" d="M544,807.1c0,7.9-6.6,14.4-14.6,14.4c0,0-15.3,2.4-24.8,2.4c-9.5,0-25-2.4-25-2.4
					c-7.9,0-14.6-6.4-14.6-14.4v-27.9c0-7.9,6.6-14.4,14.6-14.4c0,0,16.2-2,24.8-2c8.6,0,25,2,25,2c7.9,0,14.6,6.4,14.6,14.4V807.1z
					"/>
			</g>
		</g>
		<path class="st6" d="M518.3,789l-19.9-11.7c-0.4-0.2-0.8-0.3-1.2-0.3c-0.4,0-1.3,0.1-1.6,0.3c-0.7,0.4-1.7,1.2-1.7,2v23.5
			c0,0.8,0.9,1.6,1.7,2c0.4,0.2,1,0.3,1.4,0.3c0.4,0,0.9-0.1,1.3-0.3l19.9-11.7c0.7-0.4,1.2-1.2,1.2-2
			C519.4,790.1,519,789.4,518.3,789z"/>
	</g>
</g>
<g>
</g>
<g>
</g>
<g>
</g>
<g>
</g>
<g>
</g>
<g>
</g>
<g>
</g>
<g>
</g>
<g>
</g>
<g>
</g>
<g>
</g>
<g>
</g>
<g>
</g>
<g>
</g>
<g>
</g>
</svg>
